<?xml version="1.0" standalone="no"?>
<!DOCTYPE svg PUBLIC "-//W3C//DTD SVG 20010904//EN"
 "http://www.w3.org/TR/2001/REC-SVG-20010904/DTD/svg10.dtd">
<svg version="1.0" xmlns="http://www.w3.org/2000/svg"
 width="980.000000pt" height="980.000000pt" viewBox="0 0 980.000000 980.000000"
 preserveAspectRatio="xMidYMid meet">
<metadata>
Created by potrace 1.11, written by Peter Selinger 2001-2013
</metadata>
<g transform="translate(0.000000,980.000000) scale(0.100000,-0.100000)"
fill="#000000" stroke="none">
<path d="M2573 9779 c-75 -24 -162 -98 -199 -171 -41 -82 -46 -161 -42 -798
l3 -595 24 -60 c33 -82 115 -164 196 -194 76 -29 302 -41 410 -22 128 23 230
103 277 219 l23 57 3 610 c2 414 -1 631 -8 674 -25 142 -108 240 -239 281 -90
29 -356 28 -448 -1z"/>
<path d="M6895 9786 c-163 -40 -279 -146 -337 -307 -22 -63 -23 -71 -26 -559
-2 -312 1 -524 7 -575 22 -161 118 -294 269 -367 65 -32 71 -33 193 -33 124 0
126 0 200 37 139 69 237 202 259 353 13 91 13 968 0 1060 -39 272 -304 455
-565 391z"/>
<path d="M237 8859 c-90 -21 -167 -82 -209 -167 l-23 -47 0 -4210 0 -4210 28
-57 c32 -64 80 -111 146 -142 l46 -21 4675 0 4675 0 57 28 c62 31 106 76 141
147 l22 45 0 4210 0 4210 -27 50 c-35 67 -81 112 -148 144 l-55 26 -815 0
-815 0 -5 -490 -5 -490 -33 -69 c-69 -147 -238 -271 -439 -322 -92 -23 -107
-24 -453 -24 -346 0 -361 1 -453 24 -201 51 -370 175 -439 322 l-33 69 -5 490
-5 490 -1165 0 -1165 0 -5 -490 -5 -490 -33 -69 c-69 -147 -238 -271 -439
-322 -92 -23 -107 -24 -453 -24 -346 0 -361 1 -453 24 -201 51 -370 175 -439
322 l-33 69 -5 490 -5 490 -795 2 c-437 0 -812 -3 -833 -8z m1633 -3959 l0
-700 -700 0 -700 0 0 700 0 700 700 0 700 0 0 -700z m1860 0 l0 -700 -700 0
-700 0 0 700 0 700 700 0 700 0 0 -700z m1870 0 l0 -700 -700 0 -700 0 0 700
0 700 700 0 700 0 0 -700z m1870 0 l0 -700 -700 0 -700 0 0 700 0 700 700 0
700 0 0 -700z m1860 0 l0 -700 -700 0 -700 0 0 700 0 700 700 0 700 0 0 -700z
m-7460 -1870 l0 -700 -700 0 -700 0 0 700 0 700 700 0 700 0 0 -700z m1860 0
l0 -700 -700 0 -700 0 0 700 0 700 700 0 700 0 0 -700z m3740 0 l0 -700 -700
0 -700 0 0 700 0 700 700 0 700 0 0 -700z m1860 0 l0 -700 -700 0 -700 0 0
700 0 700 700 0 700 0 0 -700z m-7462 -1862 l2 -698 -630 0 c-683 0 -657 -2
-718 54 -53 48 -52 27 -52 711 l0 635 698 -2 697 -3 3 -697z m1862 2 l0 -700
-700 0 -700 0 0 700 0 700 700 0 700 0 0 -700z m1870 0 l0 -700 -700 0 -700 0
0 700 0 700 700 0 700 0 0 -700z m1870 0 l0 -700 -700 0 -700 0 0 700 0 700
700 0 700 0 0 -700z m1860 65 c0 -684 2 -662 -52 -712 -57 -54 -48 -53 -723
-53 l-625 0 0 700 0 700 700 0 700 0 0 -635z"/>
</g>
</svg>
