<?xml version="1.0" encoding="utf-8"?>
<!-- Generator: Adobe Illustrator 21.0.2, SVG Export Plug-In . SVG Version: 6.00 Build 0)  -->
<svg version="1.1" id="Слой_1" xmlns="http://www.w3.org/2000/svg" xmlns:xlink="http://www.w3.org/1999/xlink" x="0px" y="0px"
	 viewBox="0 0 62.4 62.4" style="enable-background:new 0 0 62.4 62.4;" xml:space="preserve">
<style type="text/css">
	.st0{fill:#7F7F7F;}
</style>
<g>
	<path class="st0" d="M44.3,7h-6.2c-7,0-11.5,4.6-11.5,11.8v5.5h-6.3c-0.5,0-1,0.4-1,1v7.9c0,0.5,0.4,1,1,1h6.3v19.9
		c0,0.5,0.4,1,1,1h8.2c0.5,0,1-0.4,1-1v-20h7.3c0.5,0,1-0.4,1-1v-7.9c0-0.3-0.1-0.5-0.3-0.7c-0.2-0.2-0.4-0.3-0.7-0.3h-7.3v-4.6
		c0-2.2,0.5-3.3,3.4-3.3h4.2c0.5,0,1-0.4,1-1V8C45.3,7.4,44.8,7,44.3,7z"/>
</g>
</svg>
