<?xml version="1.0" encoding="utf-8"?>
<!-- Generator: Adobe Illustrator 21.0.2, SVG Export Plug-In . SVG Version: 6.00 Build 0)  -->
<svg version="1.1" id="Слой_1" xmlns="http://www.w3.org/2000/svg" xmlns:xlink="http://www.w3.org/1999/xlink" x="0px" y="0px"
	 viewBox="0 0 62.4 62.4" style="enable-background:new 0 0 62.4 62.4;" xml:space="preserve">
<style type="text/css">
	.st0{fill:#7F7F7F;}
</style>
<path class="st0" d="M49,7H14.3c-4,0-7.2,3.2-7.2,7.2v34.7c0,4,3.2,7.2,7.2,7.2H49c4,0,7.2-3.2,7.2-7.2V14.2C56.2,10.3,52.9,7,49,7z
	 M31.7,44.4c-7.1,0-12.9-5.8-12.9-12.9s5.8-12.9,12.9-12.9s12.9,5.8,12.9,12.9S38.9,44.4,31.7,44.4z M46.1,21.4
	c-2.4,0-4.3-1.9-4.3-4.3s1.9-4.3,4.3-4.3s4.3,1.9,4.3,4.3S48.5,21.4,46.1,21.4z"/>
<path class="st0" d="M46.1,15.7c-0.8,0-1.4,0.6-1.4,1.4s0.6,1.4,1.4,1.4c0.8,0,1.4-0.6,1.4-1.4S46.9,15.7,46.1,15.7z"/>
<path class="st0" d="M31.7,21.4c-5.6,0-10.1,4.5-10.1,10.1s4.5,10.1,10.1,10.1S41.8,37,41.8,31.5S37.3,21.4,31.7,21.4z"/>
</svg>
