<?xml version="1.0" encoding="utf-8"?>
<!-- Generator: Adobe Illustrator 21.0.2, SVG Export Plug-In . SVG Version: 6.00 Build 0)  -->
<svg version="1.1" id="Слой_1" xmlns="http://www.w3.org/2000/svg" xmlns:xlink="http://www.w3.org/1999/xlink" x="0px" y="0px"
	 viewBox="0 0 62.4 62.4" style="enable-background:new 0 0 62.4 62.4;" xml:space="preserve">
<style type="text/css">
	.st0{fill:#7F7F7F;}
</style>
<g>
	<g>
		<path class="st0" d="M60.4,13.8c-2.1,0.9-4.3,1.5-6.6,1.8c2.4-1.4,4.2-3.7,5.1-6.4c-2.2,1.3-4.6,2.3-7.3,2.8
			c-2.1-2.2-5.1-3.7-8.3-3.7c-6.4,0-11.4,5.2-11.4,11.6c0,0.9,0.1,1.7,0.2,2.7c-9.5-0.5-17.9-5.1-23.6-12c-1,1.7-1.6,3.7-1.6,5.8
			c0,4,2.1,7.5,5.1,9.6c-1.8,0-3.7-0.6-5.2-1.4v0.1c0,5.5,3.9,10.3,9.1,11.3c-0.9,0.2-2,0.3-3,0.3c-0.7,0-1.5,0-2.2-0.2
			c1.5,4.5,5.7,7.9,10.7,8c-3.9,3.1-8.8,5-14.2,5c-0.9,0-1.8,0-2.8-0.1c5.1,3.2,11.1,5.2,17.6,5.2c21,0,32.6-17.6,32.6-32.8
			c0-0.5,0-1,0-1.5C56.9,18.1,58.9,16.1,60.4,13.8z"/>
	</g>
</g>
</svg>
