<?xml version="1.0" encoding="utf-8"?>
<!-- Generator: Adobe Illustrator 21.0.2, SVG Export Plug-In . SVG Version: 6.00 Build 0)  -->
<svg version="1.1" id="Слой_1" xmlns="http://www.w3.org/2000/svg" xmlns:xlink="http://www.w3.org/1999/xlink" x="0px" y="0px"
	 viewBox="0 0 62.4 62.4" style="enable-background:new 0 0 62.4 62.4;" xml:space="preserve">
<style type="text/css">
	.st0{fill:#7F7F7F;}
</style>
<g>
	<g>
		<g>
			<path class="st0" d="M61.8,46.6c-0.2-0.3-1.2-2.5-6.2-7.2c-5.2-4.8-4.5-4.1,1.8-12.4c3.8-5.1,5.4-8.2,4.9-9.6
				c-0.5-1.3-3.3-0.9-3.3-0.9l-9.4,0.1c0,0-0.7-0.1-1.2,0.2c-0.5,0.3-0.8,1-0.8,1s-1.5,4-3.5,7.3c-4.2,7.1-5.8,7.5-6.5,7
				c-1.6-1-1.2-4.1-1.2-6.3c0-6.9,1-9.7-2-10.5c-1-0.2-1.8-0.4-4.4-0.4c-3.3,0-6.2,0-7.8,0.8c-1.1,0.5-1.9,1.7-1.4,1.8
				c0.6,0.1,2,0.4,2.8,1.4c1,1.3,0.9,4.2,0.9,4.2s0.6,8.1-1.3,9.1c-1.3,0.7-3-0.7-6.7-7.2c-1.9-3.3-3.3-6.9-3.3-6.9s-0.3-0.7-0.8-1
				c-0.6-0.4-1.4-0.6-1.4-0.6L2,16.5c0,0-1.3,0-1.8,0.6c-0.4,0.5,0,1.6,0,1.6S7.1,35,15,43.3c7.2,7.5,15.5,7,15.5,7h3.7
				c0,0,1.1-0.1,1.7-0.7c0.5-0.6,0.5-1.6,0.5-1.6s-0.1-5,2.2-5.7c2.3-0.7,5.2,4.8,8.3,7c2.4,1.6,4.1,1.3,4.1,1.3l8.3-0.1
				C59.5,50.3,63.9,50,61.8,46.6z"/>
		</g>
	</g>
</g>
</svg>
