<svg width="24" height="19" viewBox="0 0 24 19" fill="none" xmlns="http://www.w3.org/2000/svg">
<path d="M21.8937 8.36364C21.0037 5.30593 20.0001 3.72602 19.9839 3.69768C19.9267 3.62785 18.5084 1.93064 15.0902 0.675293L14.6385 1.90505C16.2647 2.50229 17.4184 3.23089 18.0529 3.70165C16.1586 3.13599 13.9052 2.78955 11.9094 2.78955C9.91354 2.78955 7.6601 3.13599 5.76585 3.70165C6.4003 3.23093 7.55398 2.50229 9.18014 1.90505L8.72845 0.675293C5.31033 1.93064 3.89209 3.62785 3.83488 3.69768C3.81868 3.72602 2.815 5.30593 1.92508 8.36364C1.0674 11.3103 0.741571 15.4673 0.729736 15.634C0.80616 15.7535 2.56389 18.7545 7.35423 18.7545L8.56844 16.9962C7.20811 16.635 5.91097 16.0526 4.72357 15.2622L5.4495 14.1716C7.36511 15.4466 9.59889 16.1206 11.9094 16.1206C14.2198 16.1206 16.4536 15.4466 18.3692 14.1716L19.0952 15.2622C17.9078 16.0526 16.6106 16.635 15.2503 16.9962L16.4645 18.7545C21.2548 18.7545 23.0126 15.7535 23.089 15.634C23.0772 15.4673 22.7513 11.3103 21.8937 8.36364ZM8.88047 11.791H7.57036V9.60746H8.88047V11.791ZM16.2484 11.791H14.9383V9.60746H16.2484V11.791Z" fill="#446DFF"/>
</svg>
