<svg width="105" height="101" viewBox="0 0 105 101" fill="none" xmlns="http://www.w3.org/2000/svg">
<path d="M9.81347 29.0031C9.13507 29.7847 9.24615 31.2271 9.56839 32.8013L9.56524 32.7982C10.0168 35.9131 4.89896 36.735 3.10178 38.3896C2.43449 39.0168 1.92647 39.794 1.61993 40.6569C1.31339 41.5198 1.21717 42.4434 1.33928 43.3509C1.92031 46.7924 6.22505 48.0777 6.79675 48.2491C8.55709 48.7552 10.4282 48.7262 12.172 48.1657C13.817 47.6517 15.5892 47.7231 17.1876 48.3676C25.8468 52.0937 33.4861 57.8422 39.4646 65.1309C39.4094 67.3224 40.0407 69.4764 41.2701 71.2915C42.0807 72.4762 43.6605 74.7836 46.2108 74.8236C46.9926 74.7796 47.756 74.57 48.4506 74.2086C49.1452 73.8473 49.7552 73.3425 50.24 72.7276C50.9204 71.9429 50.8071 70.4965 50.4838 68.9193L50.4892 68.9315C50.0376 65.8166 55.1555 64.9947 56.9516 63.3401C57.6189 62.713 58.1269 61.9357 58.4335 61.0728C58.74 60.21 58.8362 59.2864 58.7141 58.3788C58.1331 54.9374 53.8284 53.652 53.2567 53.4807C51.4963 52.9745 49.6252 53.0036 47.8814 53.5641C46.7621 53.9402 45.5535 53.959 44.423 53.618L44.2761 53.2403L29.6759 44.6259L29.1043 44.29C26.0033 42.0458 23.1362 39.4952 20.5461 36.6768C20.6244 34.4644 20.0083 32.2829 18.7843 30.4383C17.9727 29.2536 16.394 26.9461 13.8436 26.9061C13.0617 26.95 12.298 27.1596 11.6032 27.5209C10.9084 27.8823 10.2984 28.3872 9.81345 29.0021L9.81347 29.0031Z" fill="white"/>
<path d="M54.5732 64.3663C56.1328 65.3098 61.2939 61.9941 57.3184 55.5222C56.4385 54.089 53.2082 53.6966 51.2675 52.7714C50.2686 52.2944 45.6355 54.2536 44.5675 53.7604C34.1305 48.9404 24.5836 40.9538 20.7948 36.6713C20.8726 34.4591 20.2562 32.2781 19.032 30.4339C18.2215 29.2492 16.6416 26.9417 14.0913 26.9017C13.3096 26.9458 12.5461 27.1554 11.8515 27.5168C11.1569 27.8781 10.547 28.3829 10.0622 28.9977C8.183 31.1648 9.11342 32.9929 9.42793 33.1546C9.42793 33.1546 11.6499 31.9537 14.9021 34.9662C22.6158 42.113 38.6097 54.0294 50.7818 59.7209C56.3198 62.3116 54.5722 64.3663 54.5722 64.3663L54.5732 64.3663Z" fill="#D0CFCE"/>
<path d="M10.3772 39.5204C12.3295 38.3564 8.18338 31.1649 10.0626 28.9989C10.5474 28.3838 11.1575 27.8787 11.8522 27.5172C12.547 27.1557 13.3107 26.9459 14.0927 26.9018C16.6431 26.9429 18.2229 29.2493 19.0334 30.434C20.2578 32.2785 20.8742 34.4599 20.7962 36.6725C27.3069 44.0338 38.8469 50.7281 43.6332 53.2526C45.0374 53.9293 46.6483 54.0393 48.1315 53.5597C49.8753 52.9992 51.7464 52.9702 53.5068 53.4764C54.0785 53.6477 58.3832 54.9331 58.9642 58.3745C59.0862 59.2821 58.9899 60.2058 58.6831 61.0687C58.3764 61.9316 57.8682 62.7088 57.2007 63.3358C55.4046 64.9904 50.2867 65.8123 50.7383 68.9272" stroke="black" stroke-width="1.16392" stroke-linecap="round" stroke-linejoin="round"/>
<path d="M50.1752 62.2006C48.223 63.3647 52.3691 70.5571 50.4899 72.7222C50.005 73.3373 49.395 73.8423 48.7002 74.2039C48.0054 74.5654 47.2417 74.7752 46.4597 74.8192C43.9094 74.7792 42.3296 72.4718 41.5191 71.2871C40.2896 69.472 39.6583 67.318 39.7135 65.1265C33.7349 57.8382 26.0956 52.0901 17.4365 48.3643C15.8381 47.7198 14.066 47.6485 12.4209 48.1623C10.6772 48.7228 8.80603 48.7519 7.0457 48.2457C6.47502 48.0743 2.16925 46.789 1.58823 43.3476C1.46624 42.4399 1.56261 41.5163 1.86934 40.6534C2.17606 39.7905 2.68427 39.0133 3.35176 38.3863C5.1479 36.7317 10.2658 35.9098 9.81419 32.7949" stroke="black" stroke-width="1.16392" stroke-linecap="round" stroke-linejoin="round"/>
<path d="M14.3657 51.0567C14.5369 52.4334 16.0743 53.6152 17.9323 54.7046L17.9264 54.705C21.4362 57.0462 17.6693 62.8845 17.7082 66.1588C17.7354 67.3859 18.055 68.5889 18.6405 69.6678C19.2259 70.7466 20.0604 71.6701 21.0745 72.3617C25.0258 74.8665 30.1647 71.727 30.8479 71.3107C32.9299 70.0094 34.5777 68.1182 35.5816 65.8776C36.5434 63.7772 38.2027 62.0745 40.2775 61.0587C51.7517 55.7657 64.3279 53.3018 76.9511 53.8736C79.0863 55.8925 81.7993 57.1934 84.7104 57.5943C86.6177 57.848 90.3336 58.3409 92.6589 55.8344C93.3156 55.0157 93.7907 54.0667 94.053 53.0505C94.3152 52.0343 94.3586 50.9739 94.1801 49.9396C94.0076 48.5582 92.4642 47.3748 90.6022 46.2838L90.6192 46.2894C87.1094 43.9482 90.8764 38.1099 90.8365 34.8367C90.8094 33.6095 90.4898 32.4065 89.9043 31.3277C89.3188 30.2489 88.4844 29.3253 87.4702 28.6338C83.5189 26.129 78.38 29.2684 77.6969 29.6848C75.6149 30.986 73.967 32.8773 72.9631 35.1178C72.335 36.5707 71.2708 37.7924 69.9177 38.6138L69.4097 38.4217L47.7386 45.2565L46.8916 45.5254C41.8756 46.6055 36.7636 47.178 31.633 47.2343C29.4977 45.1736 26.771 43.8329 23.8353 43.4001C21.9271 43.1475 18.2121 42.6535 15.8867 45.16C15.2298 45.9788 14.7544 46.9278 14.492 47.9443C14.2296 48.9607 14.1862 50.0213 14.3647 51.0558L14.3657 51.0567Z" fill="white"/>
<path d="M89.7276 38.1271C92.0658 37.4179 93.3854 29.3018 83.3713 27.4651C81.1541 27.0579 77.8682 29.9265 75.2068 31.032C73.8362 31.6003 71.6374 37.9745 70.1887 38.5973C56.0309 44.6822 39.5141 47.0421 31.8499 46.9814C29.7143 44.9215 26.9878 43.5814 24.0523 43.1491C22.145 42.8955 18.4291 42.4025 16.1037 44.909C15.4472 45.7278 14.9721 46.6767 14.7098 47.693C14.4476 48.7092 14.4042 49.7695 14.5826 50.8038C15.0589 54.6191 17.715 55.3298 18.1581 55.1612C18.1581 55.1612 18.9521 51.87 24.8695 51.3276C38.9063 50.0425 65.1179 44.7774 81.6993 37.7438C89.2445 34.5448 89.7267 38.1281 89.7267 38.1281L89.7276 38.1271Z" fill="#D0CFCE"/>
<path d="M25.3543 59.9198C25.9434 56.9305 15.0591 54.6191 14.5838 50.8048C14.4051 49.7702 14.4483 48.7095 14.7105 47.693C14.9728 46.6764 15.448 45.7271 16.1048 44.9081C18.4312 42.4025 22.1461 42.8945 24.0534 43.1482C26.9893 43.5805 29.7163 44.9209 31.852 46.9813C45.0247 47.0877 62.0392 41.5829 68.8449 39.0739C70.7778 38.2804 72.331 36.7732 73.1821 34.8649C74.186 32.6243 75.8339 30.733 77.9159 29.4318C78.599 29.0154 83.7379 25.876 87.6892 28.3808C88.7033 29.0726 89.5377 29.9963 90.123 31.0753C90.7084 32.1544 91.0277 33.3575 91.0546 34.5847C91.0945 37.858 87.3275 43.6963 90.8373 46.0375" stroke="black" stroke-width="1.16392" stroke-linecap="round" stroke-linejoin="round"/>
<path d="M83.6276 40.5709C83.0386 43.5602 93.9239 45.8724 94.3981 49.6859C94.5768 50.7204 94.5336 51.7811 94.2714 52.7977C94.0091 53.8143 93.5339 54.7635 92.8771 55.5826C90.5518 58.0891 86.8358 57.5961 84.9285 57.3425C82.0174 56.9416 79.3045 55.6406 77.1693 53.6217C64.5463 53.0504 51.9705 55.5146 40.4967 60.8078C38.4219 61.8236 36.7627 63.5263 35.8009 65.6266C34.7969 67.8672 33.1491 69.7585 31.0671 71.0597C30.3848 71.475 25.2451 74.6155 21.2937 72.1107C20.2796 71.419 19.4453 70.4952 18.8599 69.4162C18.2746 68.3372 17.9552 67.1341 17.9283 65.9068C17.8885 62.6335 21.6554 56.7952 18.1456 54.4541" stroke="black" stroke-width="1.16392" stroke-linecap="round" stroke-linejoin="round"/>
</svg>
