<svg width="109" height="109" viewBox="0 0 109 109" fill="none" xmlns="http://www.w3.org/2000/svg">
<path d="M26.4543 21.7426C25.4352 22.8035 25.4895 24.859 25.834 27.1167L25.8298 27.1122C26.2475 31.5663 18.9234 32.3661 16.2535 34.5861C15.2613 35.4285 14.4844 36.4955 13.9874 37.6984C13.4904 38.9014 13.2876 40.2056 13.3958 41.5026C13.9739 46.4297 19.9926 48.563 20.7919 48.8472C23.2545 49.6919 25.9128 49.7849 28.4284 49.1142C30.8004 48.5026 33.3111 48.7309 35.5339 49.7605C47.5591 55.6708 57.9914 64.379 65.9556 75.1544C65.7202 78.2615 66.4619 81.3644 68.077 84.0292C69.1427 85.7691 71.2199 89.1579 74.8374 89.3976C75.9503 89.3911 77.0491 89.1483 78.0611 88.6851C79.073 88.222 79.9751 87.5491 80.7074 86.7111C81.7295 85.6459 81.6725 83.5845 81.3266 81.3223L81.3333 81.3401C80.9156 76.8859 88.2397 76.0861 90.9081 73.8661C91.9003 73.0237 92.6772 71.9567 93.1743 70.7538C93.6713 69.5508 93.8741 68.2466 93.7658 66.9496C93.1878 62.0225 87.1691 59.8893 86.3698 59.605C83.9072 58.7603 81.2489 58.6673 78.7333 59.338C77.1173 59.7916 75.4003 59.7317 73.8199 59.1666L73.6386 58.6199L53.5302 45.3443L52.7428 44.8265C48.5017 41.4184 44.6145 37.5921 41.1397 33.4054C41.4095 30.2703 40.6914 27.1294 39.0861 24.4231C38.019 22.6832 35.9432 19.2943 32.3257 19.0547C31.2126 19.0609 30.1135 19.3037 29.1012 19.7668C28.089 20.2299 27.1868 20.9029 26.4543 21.7411L26.4543 21.7426Z" fill="white"/>
<path d="M87.4582 75.152C89.6045 76.6033 97.1687 72.2664 91.9893 62.7941C90.843 60.6964 86.2855 59.9078 83.5969 58.4553C82.2131 57.7066 75.4956 60.1556 74.0148 59.3789C59.5444 51.7881 46.5645 39.7661 41.4931 33.4152C41.7622 30.2804 41.0435 27.1401 39.438 24.4343C38.3723 22.6944 36.2951 19.3055 32.6776 19.0659C31.5647 19.0724 30.4659 19.3153 29.454 19.7785C28.442 20.2416 27.54 20.9144 26.8076 21.7524C23.9847 24.694 25.1744 27.3558 25.6093 27.608C25.6093 27.608 28.8496 26.0625 33.2503 30.5721C43.688 41.2706 65.538 59.3335 82.4091 68.2858C90.0849 72.3605 87.4567 75.1519 87.4567 75.1519L87.4582 75.152Z" fill="#D0CFCE"/>
<path d="M26.4998 36.7125C29.3547 35.2001 23.9847 24.694 26.8076 21.7539C27.54 20.9155 28.4422 20.2423 29.4544 19.7789C30.4666 19.3155 31.5658 19.0725 32.679 19.0659C36.2965 19.3071 38.3738 22.6945 39.4394 24.4344C41.0453 27.1406 41.7639 30.2815 41.4945 33.4167C50.2091 44.3335 66.1109 54.6639 72.7244 58.5908C74.6693 59.6521 76.9482 59.9237 79.0881 59.3493C81.6037 58.6787 84.2619 58.7716 86.7246 59.6164C87.5239 59.9006 93.5426 62.0339 94.1206 66.9609C94.2287 68.2581 94.0257 69.5624 93.5284 70.7653C93.0311 71.9682 92.2539 73.0352 91.2614 73.8774C88.593 76.0974 81.2689 76.8972 81.6867 81.3514" stroke="black" stroke-width="1.65437" stroke-linecap="round" stroke-linejoin="round"/>
<path d="M81.37 71.7623C78.5151 73.2748 83.8851 83.7823 81.0622 86.721C80.3298 87.5594 79.4276 88.2326 78.4154 88.696C77.4032 89.1594 76.304 89.4024 75.1908 89.4089C71.5733 89.1692 69.4961 85.7803 68.4304 84.0405C66.8153 81.3757 66.0735 78.2727 66.309 75.1656C58.3446 64.3908 47.9122 55.6832 35.8872 49.7732C33.6644 48.7438 31.1538 48.5155 28.7817 49.127C26.2661 49.7976 23.6078 49.7047 21.1452 48.8599C20.3474 48.5757 14.3272 46.4424 13.7492 41.5154C13.6411 40.2182 13.8441 38.9139 14.3414 37.711C14.8387 36.508 15.6158 35.4411 16.6083 34.5989C19.2767 32.3789 26.6008 31.5791 26.1831 27.1249" stroke="black" stroke-width="1.65437" stroke-linecap="round" stroke-linejoin="round"/>
</svg>
