<svg width="131" height="131" viewBox="0 0 131 131" fill="none" xmlns="http://www.w3.org/2000/svg">
<g clip-path="url(#clip0_11_55)">
<path d="M51.5691 27.1008C50.3062 27.7013 49.6632 29.5472 49.2103 31.6705L49.208 31.6651C48.0814 35.7659 41.3003 34.0138 38.1798 35.0898C37.0143 35.5051 35.9647 36.1925 35.1182 37.095C34.2717 37.9974 33.6528 39.0888 33.3128 40.2785C32.1698 44.8537 36.8038 48.7746 37.4189 49.2962C39.3244 50.8755 41.6567 51.8521 44.119 52.1019C46.4338 52.3558 48.5893 53.4032 50.2194 55.0662C58.9238 64.3655 65.2709 75.6168 68.7283 87.876C67.474 90.5595 67.0899 93.5679 67.6298 96.4804C67.9922 98.3858 68.6994 102.098 71.8353 103.527C72.827 103.896 73.8856 104.049 74.9412 103.978C75.9967 103.906 77.025 103.612 77.958 103.113C79.225 102.509 79.8676 100.657 80.3209 98.5296L80.3209 98.5477C81.4475 94.4468 88.2286 96.1989 91.3478 95.1224C92.5133 94.7071 93.5629 94.0197 94.4094 93.1173C95.2559 92.2148 95.8748 91.1234 96.2148 89.9337C97.3578 85.3585 92.7238 81.4376 92.1087 80.916C90.2032 79.3367 87.8709 78.3601 85.4086 78.1103C83.8193 77.9703 82.3127 77.3395 81.0976 76.3055L81.1202 75.7585L67.7059 57.1919L67.1798 56.4667C64.5552 52.0101 62.3857 47.3006 60.7042 42.4095C61.9985 39.7127 62.4163 36.6785 61.8991 33.7323C61.5354 31.8264 60.8295 28.1152 57.6936 26.6855C56.7018 26.3167 55.6429 26.1628 54.5871 26.2342C53.5314 26.3056 52.5028 26.6005 51.5697 27.0995L51.5691 27.1008Z" fill="white"/>
<path d="M87.8479 95.1055C89.2682 97.1178 97.4523 95.8056 96.0328 85.6415C95.719 83.3909 91.932 81.157 90.0299 78.9612C89.0514 77.8301 82.255 77.7485 81.1995 76.5599C70.8862 64.944 63.3884 49.8895 61.0152 42.5371C62.3086 39.8403 62.7258 36.8064 62.2082 33.8607C61.8458 31.9553 61.1386 28.2435 58.0027 26.8138C57.011 26.4454 55.9524 26.2918 54.8969 26.3633C53.8413 26.4347 52.813 26.7296 51.8801 27.2284C48.3807 28.8945 48.5434 31.6613 48.8452 32.0318C48.8452 32.0318 52.2461 31.7474 54.6423 37.2371C60.3248 50.2598 73.6777 73.6687 85.6677 87.3024C91.1222 93.5069 87.8466 95.105 87.8466 95.105L87.8479 95.1055Z" fill="#D0CFCE"/>
<path d="M46.5753 40.4264C49.6223 40.0418 48.3809 28.8945 51.8797 27.2296C52.8129 26.7305 53.8415 26.4353 54.8973 26.3637C55.9532 26.2921 57.0122 26.4457 58.0042 26.8143C61.1395 28.2453 61.8473 31.9558 62.2096 33.8612C62.7273 36.8074 62.31 39.8418 61.0161 42.5389C65.0931 55.1763 75.7577 69.7094 80.3174 75.4251C81.6897 77.0228 83.6246 78.0308 85.7205 78.2397C88.1827 78.4895 90.515 79.4661 92.4206 81.0454C93.0356 81.567 97.6697 85.4879 96.5266 90.0631C96.1865 91.2529 95.5673 92.3442 94.7206 93.2466C93.8739 94.1489 92.824 94.8362 91.6583 95.2513C88.5391 96.3278 81.758 94.5757 80.6314 98.6766" stroke="black" stroke-width="2" stroke-linecap="round" stroke-linejoin="round"/>
<path d="M83.5746 90.044C80.5276 90.4287 81.7684 101.577 78.2702 103.241C77.337 103.74 76.3084 104.035 75.2526 104.107C74.1967 104.178 73.1377 104.025 72.1457 103.656C69.0098 102.226 68.3026 98.5147 67.9402 96.6093C67.4003 93.6968 67.7844 90.6883 69.0387 88.0049C65.581 75.746 59.2337 64.4952 50.5293 55.1963C48.8991 53.5334 46.7436 52.4861 44.4289 52.2321C41.9666 51.9823 39.6343 51.0056 37.7288 49.4263C37.115 48.9053 32.4797 44.9839 33.6227 40.4086C33.9629 39.2189 34.582 38.1275 35.4288 37.2252C36.2755 36.3228 37.3253 35.6356 38.491 35.2205C41.6102 34.144 48.3913 35.8961 49.5179 31.7952" stroke="black" stroke-width="2" stroke-linecap="round" stroke-linejoin="round"/>
</g>
<defs>
<clipPath id="clip0_11_55">
<rect width="99.9987" height="99.9987" fill="white" transform="translate(0 92.3557) rotate(-67.4535)"/>
</clipPath>
</defs>
</svg>
