<svg width="59" height="51" viewBox="0 0 59 51" fill="none" xmlns="http://www.w3.org/2000/svg">
<path d="M9.00219 3.83164C8.32379 4.61323 8.43487 6.05561 8.75711 7.62976L8.75396 7.62673C9.20556 10.7416 4.08768 11.5635 2.29051 13.2181C1.62321 13.8452 1.11519 14.6225 0.808647 15.4854C0.502106 16.3483 0.405894 17.2719 0.528004 18.1794C1.10903 21.6209 5.41377 22.9062 5.98547 23.0776C7.74581 23.5837 9.61693 23.5547 11.3607 22.9942C13.0057 22.4802 14.7779 22.5516 16.3763 23.1961C25.0355 26.9222 32.6748 32.6707 38.6533 39.9594C38.5981 42.1509 39.2294 44.3049 40.4589 46.1199C41.2694 47.3046 42.8492 49.6121 45.3995 49.6521C46.1813 49.6081 46.9447 49.3985 47.6394 49.0371C48.334 48.6758 48.9439 48.171 49.4287 47.5561C50.1091 46.7714 49.9959 45.325 49.6726 43.7477L49.6779 43.76C49.2263 40.6451 54.3442 39.8232 56.1403 38.1686C56.8076 37.5415 57.3157 36.7642 57.6222 35.9013C57.9287 35.0384 58.025 34.1149 57.9029 33.2073C57.3218 29.7659 53.0171 28.4805 52.4454 28.3092C50.685 27.803 48.8139 27.8321 47.0701 28.3925C45.9508 28.7687 44.7422 28.7875 43.6117 28.4465L43.4649 28.0688L28.8647 19.4544L28.293 19.1185C25.1921 16.8743 22.3249 14.3237 19.7348 11.5053C19.8131 9.29286 19.1971 7.11141 17.973 5.26678C17.1615 4.0821 15.5827 1.77462 13.0323 1.73459C12.2504 1.77849 11.4868 1.98806 10.792 2.34942C10.0972 2.71077 9.48709 3.21565 9.00217 3.83061L9.00219 3.83164Z" fill="white"/>
<path d="M53.7622 39.1946C55.3218 40.1382 60.4828 36.8225 56.5074 30.3506C55.6275 28.9174 52.3972 28.525 50.4565 27.5998C49.4576 27.1228 44.8245 29.082 43.7564 28.5888C33.3194 23.7687 23.7725 15.7821 19.9837 11.4997C20.0615 9.2875 19.4451 7.10644 18.221 5.26222C17.4104 4.07752 15.8306 1.77006 13.2803 1.73003C12.4985 1.77414 11.7351 1.98381 11.0405 2.34515C10.3459 2.70649 9.73598 3.21126 9.25112 3.82604C7.37196 5.99314 8.30239 7.82125 8.6169 7.98298C8.6169 7.98298 10.8389 6.78206 14.0911 9.79456C21.8048 16.9413 37.7987 28.8578 49.9708 34.5493C55.5088 37.14 53.7612 39.1946 53.7612 39.1946L53.7622 39.1946Z" fill="#D0CFCE"/>
<path d="M9.56568 14.3485C11.5179 13.1845 7.37185 5.99306 9.25103 3.82698C9.7359 3.21188 10.3459 2.70684 11.0407 2.34531C11.7355 1.98378 12.4992 1.77403 13.2812 1.72993C15.8315 1.77099 17.4113 4.07742 18.2219 5.26212C19.4463 7.10663 20.0627 9.28807 19.9847 11.5006C26.4954 18.862 38.0354 25.5563 42.8216 28.0807C44.2259 28.7574 45.8368 28.8674 47.32 28.3879C49.0638 27.8274 50.9349 27.7983 52.6952 28.3045C53.2669 28.4758 57.5717 29.7612 58.1527 33.2026C58.2747 34.1103 58.1783 35.0339 57.8716 35.8968C57.5649 36.7597 57.0567 37.5369 56.3892 38.1639C54.593 39.8186 49.4752 40.6404 49.9268 43.7553" stroke="black" stroke-width="1.16392" stroke-linecap="round" stroke-linejoin="round"/>
<path d="M49.364 37.0289C47.4117 38.1929 51.5578 45.3854 49.6786 47.5504C49.1937 48.1655 48.5837 48.6706 47.8889 49.0321C47.1941 49.3936 46.4304 49.6034 45.6485 49.6475C43.0981 49.6075 41.5183 47.3 40.7078 46.1153C39.4783 44.3003 38.847 42.1463 38.9022 39.9547C32.9236 32.6665 25.2843 26.9183 16.6252 23.1925C15.0269 22.5481 13.2547 22.4767 11.6097 22.9906C9.86587 23.5511 7.99475 23.5801 6.23442 23.074C5.66374 22.9026 1.35798 21.6173 0.776949 18.1758C0.654964 17.2682 0.751336 16.3446 1.05806 15.4817C1.36478 14.6188 1.873 13.8415 2.54048 13.2145C4.33663 11.5599 9.4545 10.738 9.00291 7.62313" stroke="black" stroke-width="1.16392" stroke-linecap="round" stroke-linejoin="round"/>
</svg>
