<svg width="20" height="17" viewBox="0 0 20 17" fill="none" xmlns="http://www.w3.org/2000/svg">
<path d="M19.4698 2.79121C18.7457 3.10881 17.9743 3.31932 17.1699 3.42154C17.9974 2.9275 18.6289 2.15114 18.9258 1.21537C18.1544 1.67534 17.3025 2.00025 16.3948 2.18156C15.6622 1.40155 14.6182 0.918457 13.4792 0.918457C11.2694 0.918457 9.4903 2.71211 9.4903 4.91098C9.4903 5.22736 9.51707 5.53158 9.58278 5.82119C6.2644 5.65935 3.32812 4.06891 1.35558 1.64614C1.01121 2.24362 0.809213 2.9275 0.809213 3.6637C0.809213 5.04605 1.52108 6.27143 2.58218 6.98086C1.94089 6.96869 1.31178 6.78251 0.778791 6.48925C0.778791 6.50142 0.778791 6.51724 0.778791 6.53306C0.778791 8.47273 2.16236 10.0839 3.9767 10.455C3.6518 10.5438 3.29769 10.5864 2.9302 10.5864C2.67466 10.5864 2.41669 10.5718 2.17453 10.5183C2.6917 12.099 4.15923 13.2611 5.90421 13.2988C4.54619 14.3611 2.8219 15.0012 0.955236 15.0012C0.6279 15.0012 0.31395 14.9866 0 14.9464C1.7681 16.0866 3.86353 16.7377 6.12325 16.7377C13.4682 16.7377 17.4839 10.6533 17.4839 5.37947C17.4839 5.20303 17.4778 5.03267 17.4693 4.86352C18.2614 4.30133 18.9271 3.5992 19.4698 2.79121Z" fill="#446DFF"/>
</svg>
