<svg width="120" height="120" viewBox="0 0 120 120" fill="none" xmlns="http://www.w3.org/2000/svg">
<g clip-path="url(#clip0_11_43)">
<path d="M50.8465 24.9028C49.6874 25.3203 48.9643 26.8833 48.3839 28.7059L48.3824 28.7009C47.0407 32.1992 41.2464 30.0778 38.4175 30.7519C37.3598 31.0154 36.3802 31.5276 35.5601 32.2457C34.74 32.9639 34.1032 33.8674 33.7024 34.8812C32.3054 38.794 36.03 42.6317 36.5243 43.1421C38.0587 44.6912 40.0193 45.7488 42.1567 46.1803C44.1643 46.6027 45.9638 47.7071 47.2496 49.3058C54.0788 58.2105 58.6728 68.6232 60.6462 79.6702C59.3149 81.9148 58.7185 84.5194 58.9405 87.1196C59.0938 88.8215 59.3935 92.1369 62.0196 93.6611C62.8573 94.0698 63.7723 94.2959 64.7039 94.3243C65.6355 94.3527 66.5626 94.1829 67.4236 93.826C68.5866 93.4064 69.3099 91.838 69.8909 90.0116L69.8894 90.0274C71.2311 86.5291 77.0254 88.6505 79.8532 87.9758C80.9109 87.7123 81.8905 87.2002 82.7106 86.482C83.5307 85.7638 84.1675 84.8603 84.5683 83.8466C85.9653 79.9337 82.2407 76.096 81.7464 75.5856C80.212 74.0365 78.2513 72.9789 76.114 72.5474C74.7326 72.2874 73.4661 71.6044 72.49 70.5929L72.557 70.1153L62.3979 52.6788L61.9993 51.9976C60.0826 47.8635 58.5869 43.5471 57.5348 39.1136C58.9023 36.8608 59.5304 34.2365 59.3312 31.6087C59.1769 29.9063 58.8782 26.5914 56.2522 25.0672C55.4144 24.6583 54.4992 24.432 53.5674 24.4035C52.6356 24.375 51.7083 24.5448 50.847 24.9017L50.8465 24.9028Z" fill="white"/>
<path d="M76.7859 87.659C77.8575 89.5459 85.1464 89.1017 84.779 80.0675C84.6981 78.0671 81.5706 75.7817 80.0924 73.6924C79.332 72.6162 73.3801 71.958 72.5573 70.8248C64.5172 59.7502 59.2426 45.9036 57.7963 39.2523C59.1631 36.9995 59.7907 34.3754 59.5911 31.7479C59.4379 30.0461 59.1381 26.7306 56.512 25.2064C55.6743 24.7978 54.7594 24.5718 53.8278 24.5434C52.8961 24.5149 51.9691 24.6847 51.108 25.0415C47.8961 26.2003 47.7999 28.6403 48.0326 28.9911C48.0326 28.9911 51.0389 29.0353 52.6661 34.0554C56.5246 45.9638 66.2119 67.6407 75.5478 80.6293C79.7947 86.54 76.7848 87.6584 76.7848 87.6584L76.7859 87.659Z" fill="#D0CFCE"/>
<path d="M45.3176 36.1555C48.0224 36.0812 47.896 26.2003 51.1074 25.0426C51.9686 24.6855 52.8959 24.5155 53.8279 24.5438C54.7598 24.5721 55.6751 24.7982 56.513 25.207C59.1385 26.7323 59.4388 30.0466 59.5921 31.7485C59.7918 34.3764 59.164 37.0009 57.7967 39.2539C60.2807 50.686 68.377 64.3488 71.8816 69.7537C72.9469 71.273 74.5564 72.3237 76.376 72.6878C78.5133 73.1193 80.4739 74.1769 82.0084 75.726C82.5026 76.2364 86.2273 80.0741 84.8302 83.9869C84.4293 85.0007 83.7922 85.9042 82.972 86.6222C82.1517 87.3403 81.1719 87.8523 80.114 88.1156C77.2863 88.7903 71.4919 86.6689 70.1503 90.1672" stroke="black" stroke-width="1.16392" stroke-linecap="round" stroke-linejoin="round"/>
<path d="M73.4761 82.8524C70.7714 82.9267 70.8972 92.8087 67.6864 93.9653C66.8251 94.3224 65.8978 94.4924 64.9659 94.4641C64.034 94.4357 63.1187 94.2097 62.2807 93.8009C59.6546 92.2767 59.3549 88.9613 59.2016 87.2594C58.9796 84.6591 59.576 82.0546 60.9073 79.81C58.9336 68.7633 54.3394 58.351 47.5101 49.4467C46.2243 47.848 44.4248 46.7437 42.4172 46.3212C40.2799 45.8897 38.3193 44.8321 36.7848 43.2829C36.2916 42.7732 32.5659 38.9349 33.963 35.022C34.3639 34.0083 35.001 33.1048 35.8212 32.3867C36.6415 31.6686 37.6213 31.1567 38.6792 30.8933C41.5069 30.2187 47.3013 32.3401 48.6429 28.8418" stroke="black" stroke-width="1.16392" stroke-linecap="round" stroke-linejoin="round"/>
</g>
<defs>
<clipPath id="clip0_11_43">
<rect width="88.1006" height="88.1006" fill="white" transform="translate(0 77.6665) rotate(-61.8319)"/>
</clipPath>
</defs>
</svg>
