<svg width="23" height="19" viewBox="0 0 23 19" fill="none" xmlns="http://www.w3.org/2000/svg">
<path d="M21.489 7.70878C20.5966 4.64294 19.5903 3.05883 19.5741 3.03042C19.5167 2.9604 18.0947 1.25868 14.6674 0L14.2146 1.23303C15.845 1.83185 17.0018 2.56238 17.638 3.0344C15.7387 2.46723 13.4793 2.11988 11.4781 2.11988C9.477 2.11988 7.21757 2.46723 5.31829 3.0344C5.95442 2.56243 7.11117 1.83185 8.74165 1.23303L8.28876 0C4.86156 1.25868 3.43955 2.9604 3.38219 3.03042C3.36594 3.05883 2.3596 4.64294 1.46732 7.70878C0.607356 10.6633 0.280665 14.8313 0.268799 14.9984C0.345425 15.1182 2.10783 18.1272 6.91089 18.1272L8.12833 16.3643C6.76438 16.0021 5.4638 15.4181 4.27324 14.6256L5.0011 13.5322C6.9218 14.8106 9.16152 15.4864 11.4781 15.4864C13.7947 15.4864 16.0345 14.8106 17.9551 13.5322L18.683 14.6256C17.4925 15.4181 16.1919 16.0021 14.8279 16.3643L16.0454 18.1272C20.8484 18.1272 22.6108 15.1182 22.6875 14.9984C22.6756 14.8313 22.3489 10.6633 21.489 7.70878ZM8.44118 11.1452H7.12759V8.9559H8.44118V11.1452ZM15.8287 11.1452H14.5151V8.9559H15.8287V11.1452Z" fill="white"/>
</svg>
