<svg width="1167" height="1254" viewBox="0 0 1167 1254" fill="none" xmlns="http://www.w3.org/2000/svg">
<g opacity="0.07" clip-path="url(#clip0_190_63)">
<path d="M762.127 1666.37L763.847 1664.09C662.057 1575.2 539.672 1478.31 413.047 1467.27C345.368 1461.38 293.895 1488.14 228.416 1485.94C203.417 1485.12 177.721 1477.89 152.79 1462.63C104.859 1433.31 90.0515 1384.76 78.8778 1342.67C41.4267 1201.35 43.8514 1065.33 19.9955 926.215C9.81403 866.821 -13.5458 701.793 -121.11 703.924C-193.181 705.358 -247.6 758.96 -290.202 796.784C-317.651 821.112 -343.709 846.492 -373.33 868.81C-431.046 912.189 -499.994 946.587 -584.427 953.225C-706.59 962.779 -834.665 907.675 -955.155 828.62L-956.962 831.008C-836.097 910.305 -707.585 965.728 -584.977 956.343C-500.064 949.827 -430.779 915.222 -372.982 871.517C-343.11 848.927 -316.962 823.091 -289.501 798.247C-246.801 759.617 -192.487 704.897 -120.035 702.503C-12.2695 698.93 10.8102 865.225 20.7505 924.301C44.2865 1064.11 41.4061 1200.6 78.0645 1342.59C88.8855 1384.52 103.089 1433.02 150.815 1462.51C175.541 1477.8 200.949 1485.04 225.827 1485.8C290.959 1487.82 341.789 1460.62 409.295 1466.57C536.65 1477.74 660.171 1576.86 762.127 1666.37Z" fill="white"/>
<path d="M770.998 1654.64L772.34 1652.87C670.546 1566.51 553.088 1480.7 429.972 1471.45C361.539 1466.29 305.828 1491.26 237.657 1485.18C211.07 1482.81 182.475 1473.98 156.838 1457.02C115.105 1429.41 98.6527 1385.98 86.6159 1347.62C43.0709 1208.74 44.4678 1073.82 19.3951 937.527C8.02833 875.716 -16.951 715.199 -125.33 713.924C-198.243 713.064 -253.43 764.355 -297.866 800.34C-322.642 820.398 -347.454 840.544 -374.123 858.782C-429.88 896.942 -494.444 927.798 -572.432 934.96C-694.347 946.159 -822.218 892.279 -943.189 812.724L-945.5 815.779C-824.374 895.388 -696.238 949.416 -574.208 938.104C-495.96 930.857 -431.246 899.704 -375.637 861.024C-348.876 842.405 -324.169 821.78 -299.406 801.24C-254.923 764.357 -199.472 712.04 -126.098 712.011C-17.2377 711.972 7.77474 873.72 19.0729 935.543C44.1002 1072.69 42.3994 1208.25 85.3833 1347.92C97.1346 1386.17 113.213 1429.7 154.851 1457.42C180.332 1474.38 208.693 1483.19 235.127 1485.42C303.004 1491.14 358.134 1465.59 426.35 1470.62C550.367 1479.79 668.951 1567.66 770.998 1654.64Z" fill="white"/>
<path d="M777.855 1645.58L778.864 1644.24C676.879 1559.91 563.804 1484.05 443.377 1475.61C377.646 1470.97 320.648 1489.94 254.319 1482.78C226.157 1479.75 195.644 1470.69 168.387 1453.31C125.01 1425.64 106.505 1381.71 93.1691 1341.99C50.2415 1213.72 48.898 1088 26.5763 962.519C15.658 901.131 -5.85141 737.681 -113.438 726.633C-185.459 719.255 -239.178 767.67 -284.31 798.578C-306.391 813.7 -329.037 828.333 -351.994 842.521C-409.804 878.235 -474.004 908.57 -551.542 916.293C-675.492 928.627 -805.151 874.999 -928.586 793.422L-931.311 797.024C-808.863 877.874 -679.986 931.52 -556.79 919.684C-479.308 912.234 -415.091 882.017 -357.814 845.931C-335.802 832.077 -314.25 817.613 -293.09 802.852C-246.339 770.223 -194.965 721.879 -122.636 723.89C-14.0114 726.872 11.1539 884.195 22.9767 947.117C48.0411 1080.57 46.5605 1214.52 94.6011 1350.85C108.344 1389.9 127.414 1430.69 170.469 1456.58C197.802 1473.06 227.19 1481.21 254.899 1483.61C320.491 1489.35 376.586 1470.18 442.111 1474.91C562.709 1483.72 676.15 1561.16 777.855 1645.58Z" fill="white"/>
<path d="M783.032 1638.74L783.794 1637.73C688.662 1560.79 586.052 1495.3 474.647 1481.51C404.951 1472.89 343.324 1487.75 273.913 1479.06C244.212 1475.32 212.843 1466.31 183.726 1449.15C139.543 1423.07 118.562 1382.75 103.634 1342.48C57.5704 1218.24 56.8869 1095.05 35.7998 973.954C25.1272 912.898 5.31497 754.277 -100.578 740.851C-170.827 731.928 -217.925 776.869 -265.668 802.246C-288.323 814.261 -312.121 825.159 -335.126 836.741C-397.963 868.401 -465.719 895.626 -546.578 899.094C-668.692 904.26 -793.184 850.137 -911.813 771.252L-914.896 775.327C-797.336 853.434 -673.821 907.375 -552.772 902.42C-472.093 899.13 -404.476 871.989 -342.414 839.68C-319.35 827.681 -295.801 816.017 -273.288 803.392C-225.757 776.743 -179.46 733.996 -111.019 737.64C-3.78339 743.314 19.9334 896.216 31.5287 958.861C54.2936 1081.81 55.8071 1204.19 97.2708 1329.65C110.566 1369.85 129.516 1415.92 172.787 1445.13C200.424 1463.74 232.944 1474.16 262.104 1478.69C329.97 1489.23 389.99 1473.62 456.515 1479.16C573.808 1488.97 682.192 1556.88 783.032 1638.74Z" fill="white"/>
<path d="M786.877 1633.65L787.437 1632.91C694.756 1559.33 597.224 1501.53 490.128 1486.03C419.715 1475.83 354.628 1485.84 283.651 1472.58C252.623 1466.78 219.301 1455.84 189.668 1437.2C145.858 1409.64 124.862 1368.15 110.163 1327.51C66.7183 1207.54 66.6539 1089.55 46.4559 972.598C36.6586 916.043 20.7089 782.378 -70.7495 758.279C-138.044 740.57 -182.502 783.596 -229.206 802.219C-253.171 811.784 -279.284 818.708 -303.493 828.058C-370.715 854.02 -439.393 878.659 -520.938 880.403C-646.282 883.105 -772.532 827.86 -893.361 746.861L-896.706 751.283C-776.159 831.996 -650.097 886.993 -525.286 883.679C-443.862 881.518 -375.414 856.306 -308.95 829.215C-284.929 819.377 -259.101 811.693 -235.317 801.612C-188.472 781.786 -143.301 738.375 -75.1768 755.287C17.2477 778.207 34.0414 913.885 43.9728 970.542C64.6304 1088.66 64.8486 1207.74 108.413 1328.79C123.053 1369.48 143.902 1411.37 187.89 1439.01C217.399 1457.54 250.557 1468.23 281.382 1473.73C352.218 1486.35 416.797 1475.38 487.034 1485.2C595.083 1500.27 693.603 1559.38 786.877 1633.65Z" fill="white"/>
<path d="M789.733 1629.88L790.162 1629.31C699.684 1558.66 606.285 1507.46 502.81 1489.84C431.064 1477.64 362.176 1482.26 289.298 1463.28C261.043 1455.93 231.897 1444.87 204.981 1428.73C161.044 1402.38 138.265 1365.29 122.338 1324.33C77.6695 1209.48 79.5823 1095.25 62.3735 983.99C53.9235 929.419 41.6594 800.524 -46.433 774.547C-110.031 755.796 -148.359 795.72 -196.224 807.571C-221.972 813.973 -250.174 816.548 -275.865 823.592C-343.765 842.203 -411.313 861.583 -489.136 861.675C-619.43 861.796 -748.987 805.046 -873.671 720.836L-877.203 725.505C-752.89 809.308 -623.639 865.826 -494.039 864.929C-416.435 864.389 -349.229 844.445 -282.102 824.704C-256.654 817.224 -228.778 813.806 -203.27 806.865C-155.333 793.842 -116.083 753.377 -51.7317 771.451C37.549 796.555 50.6696 926.947 59.3667 981.988C77.1788 1094.53 75.4874 1209.87 120.449 1325.93C136.349 1366.97 158.996 1404.47 203.186 1430.86C229.988 1446.87 259.013 1457.69 287.095 1464.76C359.851 1483.1 428.284 1477.35 499.875 1489.08C604.276 1506.19 698.565 1558.5 789.733 1629.88Z" fill="white"/>
<path d="M791.953 1626.94L792.302 1626.48C705.22 1559.43 616.095 1513.92 517.271 1493.56C448.764 1479.48 381.682 1476.97 312.456 1457.19C237.942 1435.9 170.269 1398.25 138.103 1326.26C90.2465 1219.13 94.2871 1108.91 81.6755 1006.23C75.1008 952.625 70.4561 831.11 -9.46842 794.197C-25.9862 786.566 -43.3643 785.332 -58.5409 785.889C-73.23 786.772 -87.2317 789.15 -100.323 792.987C-117.88 798.023 -134.637 804.262 -150.489 811.664C-177.721 815.088 -208.104 812.237 -235.553 816.525C-308.492 828.051 -378.116 844.897 -457.584 842.78C-592.665 839.289 -725.097 780.899 -853.21 693.791L-856.843 698.593C-729.179 785.298 -597.125 843.371 -462.779 846.18C-383.587 847.826 -314.425 830.474 -242.264 817.667C-215.144 812.857 -185.105 814.767 -158.124 810.839C-142.078 803.107 -125.114 796.539 -107.333 791.176C-94.0556 787.114 -79.8533 784.507 -64.943 783.395C-49.5949 782.611 -31.922 783.575 -15.0794 791.095C66.1399 827.372 71.6299 950.44 78.5052 1004.52C91.7095 1108.51 87.9625 1219.9 136.232 1328.28C168.37 1400.44 235.455 1438.17 310.268 1458.81C379.355 1477.88 446.074 1479.32 514.397 1492.9C614.167 1512.72 704.109 1559.14 791.953 1626.94Z" fill="white"/>
<path d="M793.871 1624.41L794.199 1623.98C710.877 1560.65 625.541 1519.88 531.674 1496.67C461.665 1479.36 391.869 1470.86 321.421 1446.22C246.195 1419.91 177.286 1380.73 146.286 1307.58C102.978 1205.45 109.162 1102.15 99.4431 1004.94C94.3831 954.45 92.1844 842.053 15.4946 807.797C-28.7751 788.021 -62.8528 808.163 -98.0312 813.524C-126.251 817.816 -162.683 808.658 -192.853 810.247C-270.527 814.405 -343.259 828.406 -424.555 824.025C-564.747 816.511 -700.465 756.548 -832.441 666.338L-836.094 671.167C-704.634 760.944 -569.374 820.635 -429.984 827.396C-348.939 831.293 -276.902 816.536 -199.9 811.334C-169.988 809.308 -133.803 817.419 -105.902 812.593C-70.4215 806.454 -35.7101 785.554 9.38616 804.874C87.4332 838.332 90.5459 952.271 95.9308 1003.24C106.432 1101.82 100.593 1206.37 144.226 1309.74C175.236 1383.12 243.494 1422.35 319.125 1448.06C389.449 1471.99 458.866 1479.44 528.69 1496.12C623.616 1518.76 709.719 1560.33 793.871 1624.41Z" fill="white"/>
<path d="M795.834 1621.81L796.212 1621.31C716.928 1561.94 634.853 1524.92 546.19 1499.14C474.278 1478.23 402.053 1463.29 330.281 1433.91C255.121 1403.15 184.664 1362.41 155.059 1288.51C119.102 1198.74 124.59 1108.85 119.515 1024.26C116.562 974.838 121.376 869.466 54.2271 826.623C19.2358 804.346 -16.6771 812.769 -46.4993 816.708C-76.7827 820.739 -115.994 805.472 -149.504 803.947C-231.666 800.232 -307.924 811.722 -391.309 805.121C-536.632 793.672 -675.74 732.392 -811.808 639.066L-815.401 643.815C-679.854 736.736 -541.2 797.778 -396.601 808.49C-313.615 814.643 -237.955 802.668 -156.435 805.1C-123.107 806.11 -84.1366 820.419 -54.112 815.794C-24.0873 811.169 12.4885 801.789 48.3355 823.813C116.913 865.963 112.883 973.166 116.166 1022.85C121.854 1108.75 116.704 1199.78 153.007 1290.72C182.635 1364.91 252.366 1405.62 328.026 1435.9C399.649 1464.56 471.54 1478.4 543.205 1498.64C632.962 1524.01 715.696 1561.64 795.834 1621.81Z" fill="white"/>
<path d="M798.195 1618.69L798.7 1618.03C654.423 1511.9 496.716 1492.68 343.456 1422.26C271.188 1389.05 196.494 1347.69 166.89 1275.5C132.782 1192.33 140.039 1108.91 138.242 1031.58C137.083 983.252 146.069 888.503 86.9889 841.709C57.1277 818.068 24.782 820.801 -4.13681 820.956C-36.2976 821.133 -76.072 800.994 -110.881 796.703C-196.491 786.111 -276.591 794.611 -361.85 785.785C-511.106 770.312 -652.641 708.097 -791.775 612.588L-795.232 617.156C-656.635 712.301 -515.517 774.389 -366.888 789.157C-281.957 797.62 -202.538 788.625 -117.495 798.034C-82.9472 801.854 -43.1253 821.253 -11.3852 820.317C17.6532 819.466 50.664 815.695 81.3945 839.123C141.863 885.258 133.548 981.889 135.006 1030.36C137.344 1108.95 130.396 1193.49 164.817 1277.82C194.379 1350.31 268.34 1391.52 341.116 1424.33C495.714 1494.1 652.633 1511.24 798.195 1618.69Z" fill="white"/>
<path d="M801.289 1614.6L801.934 1613.75C662.414 1513.91 500.654 1483.61 353.001 1408.13C281.591 1371.61 204.768 1328.67 176.301 1256.13C145.638 1177.99 155.001 1100.81 155.782 1029.04C156.303 982.073 166.89 896.442 111.43 849.325C80.2333 822.828 53.6173 830.378 21.691 822.217C8.77203 818.914 -9.36521 806.471 -22.952 801.541C-44.527 793.702 -66.2845 788.914 -87.5438 785.498C-178.741 770.816 -264.892 776.458 -355.902 763.281C-501.358 742.167 -638.382 679.568 -772.808 587.517L-776.047 591.799C-642.046 683.613 -505.458 746.112 -360.464 766.782C-269.766 779.692 -184.191 773.677 -93.5296 787.314C-72.45 790.489 -50.8655 794.968 -29.4196 802.499C-16.0563 807.187 2.24701 819.43 14.8961 822.393C47.1817 830.039 73.9083 820.969 106.209 847.241C163.129 893.524 152.976 980.972 152.779 1027.87C152.458 1100.98 143.352 1179.22 174.222 1258.48C202.608 1331.34 278.616 1374.07 350.556 1410.3C499.267 1485.2 660.913 1513.58 801.289 1614.6Z" fill="white"/>
<path d="M805.467 1609.08L806.34 1607.93C741.773 1562.11 667.764 1532.76 597.857 1503C520.417 1470.06 442.728 1437.12 367.403 1395.62C298.7 1357.78 217.343 1313.22 187.965 1242.57C158.04 1170.56 168.4 1099.3 171.491 1034.21C173.8 986.218 185.985 910.826 138.558 859.047C112.82 830.933 87.6498 831.711 57.2048 818.703C41.6925 812.075 26.566 800.673 10.5497 793.893C-11.6544 784.436 -34.2467 778.062 -56.5088 773.342C-150.103 753.501 -239.357 757.268 -331.919 742.936C-479.757 719.99 -618.554 657.602 -755.359 564.453L-758.295 568.334C-621.863 661.338 -483.341 723.791 -335.893 746.495C-243.542 760.688 -154.783 756.62 -61.5789 775.641C-39.4728 780.148 -17.0257 786.277 5.08759 795.456C20.8709 801.985 36.1108 813.337 51.4077 819.593C82.1227 832.144 107.309 829.511 134.196 857.581C183.018 908.592 170.966 985.7 168.985 1033.46C166.223 1099.68 155.989 1171.96 186.006 1245.02C215.185 1316.01 295.74 1360.24 364.863 1397.87C439.974 1438.75 517.403 1470.73 594.523 1502.99C665.391 1532.61 740.23 1562.3 805.467 1609.08Z" fill="white"/>
<path d="M811.067 1601.68L812.233 1600.14C750.95 1560.34 682.468 1532.76 617.949 1502.84C538.733 1466.11 459.565 1428.01 382.885 1383.25C315.709 1344.05 231.118 1297.98 199.384 1228.87C168.971 1162.77 179.809 1096.51 184.274 1037.67C188.086 987.892 199.96 921.179 160.158 865.477C139.974 837.234 115.231 827.367 85.997 811.185C45.3289 788.681 12.2464 769.379 -31.2549 758.449C-126.511 734.529 -218.217 737.174 -311.945 722.371C-461.222 698.817 -601.159 637.538 -739.888 544.003L-742.446 547.385C-604.039 640.887 -464.226 702.449 -315.104 725.969C-221.527 740.753 -130.173 737.936 -35.1568 761.275C8.23462 771.912 40.8126 791.284 81.5282 812.848C110.949 828.405 135.791 836.388 156.898 864.626C197.98 919.712 185.932 987.772 182.357 1037.22C178.029 1097.03 167.119 1164.24 197.426 1231.26C228.811 1300.67 312.722 1346.4 380.094 1385.38C456.625 1429.65 535.478 1466.86 614.364 1502.94C679.722 1532.87 749.29 1560.74 811.067 1601.68Z" fill="white"/>
<path d="M818.445 1591.93L819.958 1589.93C679.945 1514.66 536.921 1454.86 399.388 1371.04C333.245 1330.73 245.06 1282.96 210.146 1215.06C178.848 1154.19 188.393 1093.05 193.346 1039.19C198.106 987.398 207.998 926.631 174.828 868.061C138.947 804.745 53.0004 758.84 -13.2742 740.36C-109.527 713.515 -202.773 716.024 -296.989 701.647C-446.603 678.856 -586.933 619.671 -726.859 526.783L-728.969 529.571C-589.194 622.68 -448.845 682.299 -299.199 705.345C-205.019 719.83 -111.99 717.388 -15.834 743.803C48.4831 761.484 136.672 806.537 172.825 867.919C207.07 926.065 196.714 987.645 192.06 1039.1C187.107 1093.73 177.224 1155.74 208.28 1217.49C242.53 1285.57 330.171 1333.06 396.43 1373.19C474.484 1420.47 554.843 1462.34 635.618 1501.98C696.284 1531.73 758.887 1558.39 818.445 1591.93Z" fill="white"/>
<path d="M827.734 1579.65L829.314 1577.56C689.355 1519.52 548.122 1439.67 416.252 1357.67C349.273 1316.02 261.396 1269 223.725 1200.68C191.592 1142.41 198.141 1083.79 201.697 1031.54C205.352 978.04 212.116 919.196 181.902 859.527C146.323 789.319 68.199 741.918 -5.78596 720.342C-102.702 692.063 -196.906 693.866 -291.46 679.916C-438.722 658.181 -577.251 602.949 -716.278 512.796L-718.11 515.217C-578.521 606.142 -439.335 662.258 -291.287 683.97C-196.876 697.791 -102.866 695.546 -6.15457 723.618C67.4152 745.006 145.825 792.885 181.054 862.64C211.228 922.362 203.848 981.202 199.686 1034.5C195.618 1086.53 188.44 1145.1 220.553 1203.4C258.032 1271.39 346.633 1318.95 413.33 1360.36C546.055 1442.72 687.3 1520.52 827.734 1579.65Z" fill="white"/>
<path d="M835.621 1569.22L836.751 1567.73C780.015 1545.11 723.537 1512.61 669.016 1482.28C589.525 1438.06 511.07 1391.35 433.651 1342.16C365.46 1298.83 281.38 1254.02 241.984 1184.57C209.098 1126.54 211.17 1067.92 210.937 1014.1C210.768 959.307 213.077 900.396 181.743 841.17C143.801 769.404 67.4753 723.909 -8.6143 700.972C-105.425 671.776 -199.941 670.984 -294.542 656.338C-436.447 634.356 -570.404 583.6 -705.253 498.223L-707.271 500.891C-571.57 587.133 -436.718 638.639 -293.797 660.593C-199.106 675.119 -104.567 675.424 -7.6359 704.46C68.137 727.178 144.809 772.873 182.262 844.489C213.304 903.84 210.094 962.688 209.527 1017.26C208.971 1070.79 206.064 1129.42 238.695 1187.5C277.683 1256.85 362.42 1301.95 430.439 1344.95C508.036 1394.03 586.876 1440.5 666.958 1484.38C721.919 1514.49 778.639 1546.47 835.621 1569.22Z" fill="white"/>
<path d="M841.136 1561.93L841.893 1560.93C786.963 1538.32 732.282 1502.8 680.441 1471.3C603.68 1424.69 527.842 1376.04 452.67 1326.35C383.924 1280.91 303.199 1237.05 261.064 1167.44C226.355 1110.09 222.344 1051.1 217.215 995.887C212.036 939.9 208.328 880.695 174.869 822.346C133.64 750.422 59.4065 705.629 -18.1461 681.039C-113.593 650.778 -207.292 647.312 -300.774 631.865C-436.094 609.506 -564.21 562.802 -693.284 482.403L-695.443 485.257C-565.24 566.554 -436.037 613.932 -299.446 636.246C-205.722 651.572 -111.786 654.546 -16.0224 684.607C61.2891 708.878 135.908 753.7 176.51 825.696C209.516 884.225 212.092 943.372 216.3 999.148C220.448 1054.12 223.344 1113.03 257.659 1170.53C299.232 1240.16 380.521 1284.12 449.217 1329.16C524.769 1378.7 601.148 1427 678.448 1473.16C730.807 1504.43 785.853 1539.38 841.136 1561.93Z" fill="white"/>
<path d="M844.704 1557.22L845.158 1556.62C792.347 1532.79 740.39 1494.29 691.595 1461.41C618.196 1411.87 545.576 1361.02 472.846 1310.3C404.228 1262.44 326.193 1218.37 280.622 1149.54C243.343 1093.07 232.246 1033.77 221.03 977.138C209.7 919.979 198.979 860.481 162.531 803.196C117.399 732.346 45.2249 687.181 -33.0257 660.805C-126.082 629.436 -218.008 623.148 -309.397 606.768C-437.24 583.868 -558.481 540.887 -680.563 465.588L-682.849 468.61C-559.447 544.813 -436.947 588.421 -307.736 611.245C-215.917 627.457 -123.627 633.244 -30.0974 664.405C48.0686 690.455 120.623 735.436 165.01 806.592C200.903 864.055 210.36 923.509 220.499 980.47C230.578 1036.87 240.294 1096.12 277.199 1152.75C322.131 1221.77 400.584 1265.73 469.314 1313.17C542.456 1363.65 615.666 1414.1 689.689 1463.12C739.013 1495.72 791.481 1533.66 844.704 1557.22Z" fill="white"/>
<path d="M846.747 1554.52L846.98 1554.21C796.37 1527.64 748.323 1486.98 702.596 1452.21C633.124 1399.39 564.086 1346.04 494.064 1293.94C426.209 1243.47 350.066 1198.29 300.725 1130.89C259.943 1075.33 241.266 1015.77 222.944 957.895C204.517 899.698 186.112 839.977 146.005 783.782C96.8653 714.924 26.2911 668.62 -52.0325 640.249C-141.893 607.743 -231.315 598.525 -319.931 581.128C-439.525 557.683 -553.142 518.111 -667.262 448.007L-669.633 451.142C-554.057 522.169 -439.048 562.312 -317.973 585.672C-228.83 602.89 -138.926 611.571 -48.5037 643.852C29.8683 671.84 100.678 717.913 149.129 787.163C188.554 843.543 205.547 903.257 222.66 961.298C239.679 1018.96 256.965 1078.49 297.118 1134.23C345.794 1201.88 422.206 1246.83 490.249 1296.84C560.741 1348.65 630.426 1401.55 700.625 1453.76C746.989 1488.22 795.682 1528.38 846.747 1554.52Z" fill="white"/>
<path d="M847.686 1553.28L847.772 1553.16C799.658 1523.55 755.811 1480.27 713.359 1443.54C648.317 1387.28 583.066 1331.19 515.752 1277.35C449.172 1224.09 374.081 1177.23 320.918 1111.77C276.336 1056.87 249.599 997.148 223.537 938.345C197.475 879.542 170.843 819.521 126.626 764.276C73.7137 698.153 3.93576 650.039 -73.8937 619.64C-159.987 586.02 -246.391 573.769 -331.786 555.222C-442.519 531.161 -548.061 494.761 -653.542 429.872L-655.979 433.094C-548.944 498.897 -441.955 535.835 -329.638 559.794C-243.657 578.123 -156.654 589.863 -69.9018 623.269C8.04427 653.295 77.9136 701.068 130.184 767.701C173.64 823.115 198.72 882.917 223.481 941.826C248.179 1000.5 273.447 1060.21 317.339 1115.19C369.883 1181 445.054 1227.54 511.92 1280.32C579.696 1333.83 645.623 1389.43 711.476 1445.08C754.499 1481.4 799.119 1524.22 847.686 1553.28Z" fill="white"/>
<path d="M847.958 1552.92C802.516 1519.69 763.206 1474.12 723.93 1435.13C663.636 1375.38 602.322 1316.42 537.627 1260.51C472.517 1204.25 398.107 1155.71 341.126 1092.23C292.29 1037.81 257.529 978.02 223.325 918.605C147.776 787.378 58.0542 664.765 -97.2495 599.056C-179.317 564.338 -262.346 548.999 -344.302 529.174C-445.873 504.577 -543.086 471.133 -639.585 411.424L-642.047 414.679C-543.959 475.255 -445.304 509.224 -342.085 533.735C-259.514 553.343 -175.866 568.124 -93.1062 602.683C63.0174 667.807 150.539 790.16 223.38 922.097C256.161 981.442 289.516 1041.22 337.57 1095.7C393.868 1159.52 468.407 1207.79 533.775 1263.51C598.918 1319.02 660.953 1377.49 722.077 1436.62C761.937 1475.14 802.036 1520.35 847.958 1552.92Z" fill="white"/>
<path d="M847.979 1552.89C805.355 1515.8 770.677 1468.11 734.35 1426.7C679.053 1363.64 621.622 1301.64 559.347 1243.41C495.674 1183.88 421.927 1134.2 361.161 1072.41C307.804 1018.18 265.163 958.406 222.914 898.808C132.993 771.956 30.5383 647.985 -120.814 578.627C-290.066 501.053 -459.542 496.448 -625.552 392.876L-628.014 396.131C-539.046 451.569 -448.627 482.778 -354.699 507.695C-275.549 528.7 -195.382 546.626 -116.699 582.191C35.2845 650.915 135.475 774.631 222.984 902.281C263.819 961.857 305.117 1021.66 357.663 1075.89C417.745 1137.92 491.646 1187.49 555.558 1246.43C618.243 1304.24 676.338 1365.68 732.537 1428.18C769.373 1469.13 804.845 1516.49 847.979 1552.89Z" fill="white"/>
<path d="M848.171 1552.64L848.256 1552.52C808.439 1511.7 778.112 1461.96 744.612 1417.97C694.253 1351.86 640.65 1286.81 580.536 1226.08C518.174 1163.09 445.399 1112.98 380.822 1052.47C322.865 998.139 272.672 938.561 222.857 879.102C120.331 756.819 5.37821 632.097 -143.303 558.53C-298.417 481.752 -460.21 469.841 -611.63 374.475L-614.062 377.689C-460.201 474.451 -297.026 485.112 -139.488 562.034C9.50942 634.824 122.453 759.473 222.772 882.561C271.316 942.087 320.219 1001.74 377.382 1056.01C441.314 1116.71 514.251 1166.78 576.843 1229.17C637.324 1289.45 691.58 1353.96 742.796 1419.56C776.815 1463.08 807.874 1512.45 848.171 1552.64Z" fill="white"/>
<path d="M848.963 1551.59L849.2 1551.28C811.917 1507.07 785.619 1455.29 754.726 1408.71C709.042 1339.86 659.12 1271.84 600.837 1208.53C539.677 1142.1 468.04 1092.16 399.902 1032.57C337.412 977.955 280.475 918.666 223.601 859.571C109.831 741.334 -15.6948 617.339 -163.421 538.904C-305.837 463.292 -459.259 444.3 -597.976 356.426L-600.347 359.561C-459.558 448.699 -304.627 466.473 -160.112 542.32C-12.3158 619.885 111.486 744.086 223.376 862.977C279.08 922.162 334.884 981.496 396.599 1036.06C464.148 1095.79 535.974 1145.78 597.358 1211.64C655.935 1274.5 706.48 1342 752.946 1410.38C784.309 1456.52 811.27 1507.94 848.963 1551.59Z" fill="white"/>
<path d="M850.784 1549.18L851.243 1548.57C815.83 1501.57 793.17 1447.56 764.712 1398.66C723.241 1327.43 676.752 1256.6 619.927 1190.77C560.026 1121.39 489.316 1071.68 418.231 1012.83C351.657 957.711 288.848 898.972 225.82 840.402C102.075 725.409 -31.6671 603.409 -179.858 519.851C-247.904 481.501 -318.62 453.673 -389.175 427.184C-454.592 402.631 -523.221 379.255 -584.74 338.932L-587.026 341.953C-524.324 383.203 -454.472 406.895 -387.719 431.515C-316.844 457.66 -245.777 484.945 -177.304 523.168C-29.2607 605.807 103.216 728.244 225.299 843.741C287.29 902.386 349.173 961.254 415.075 1016.28C485.704 1075.26 556.54 1124.99 616.677 1193.91C673.727 1259.31 720.8 1329.64 762.963 1400.49C791.841 1449.02 815.155 1502.65 850.784 1549.18Z" fill="white"/>
<path d="M854.049 1544.87L854.806 1543.87C819.806 1495.36 800.638 1437.93 774.579 1387.53C736.707 1314.27 693.229 1240.92 637.412 1172.8C578.908 1101.4 508.632 1051.53 435.562 993.367C365.618 937.704 297.924 879.525 229.972 821.688C162.02 763.85 93.7901 706.379 22.8217 652.089C-45.7797 599.612 -117.376 545.236 -191.388 501.564C-257.826 462.364 -326.91 431.681 -396.145 403.17C-454.619 379.12 -516.626 357.629 -572.161 322.304L-574.325 325.166C-517.841 361.387 -454.713 383.149 -395.092 407.375C-325.659 435.564 -256.395 465.712 -189.753 504.762C-115.806 548.122 -44.1725 602.548 24.0842 655.142C94.5451 709.425 162.004 767.057 229.13 824.952C296.255 882.846 363.228 941.202 432.652 996.755C505.436 1055.02 575.739 1104.81 634.494 1175.94C690.451 1243.67 734.423 1316.61 772.836 1389.51C799.481 1440.07 819.475 1496.1 854.049 1544.87Z" fill="white"/>
<path d="M859.191 1538.07L860.321 1536.58C824.919 1487.15 808.427 1426.5 784.351 1375.09C749.278 1300.19 708.255 1224.66 652.963 1154.63C596.006 1082.5 525.468 1031.75 451.845 974.434C379.592 918.177 308.346 860.71 236.767 803.662C98.123 693.181 -45.2765 575.998 -196.56 484.217C-262.607 444.16 -331.111 410.738 -400.105 380.175C-453.164 356.718 -509.012 336.688 -560.353 306.697L-562.371 309.365C-510.434 340.321 -453.542 360.585 -399.647 384.171C-330.657 414.342 -262.156 447.29 -196.175 487.214C-45.1814 578.482 97.712 695.995 235.362 806.794C306.425 863.986 377.136 921.583 449.074 977.738C522.703 1035.2 593.129 1085.73 650.399 1157.86C705.761 1227.6 747.15 1302.76 782.697 1377.43C807.045 1428.68 823.948 1488.71 859.191 1538.07Z" fill="white"/>
<path d="M866.633 1528.23L868.208 1526.15C831.068 1477.31 816.396 1412.32 794.05 1361.05C760.857 1284.92 721.667 1207.71 666.215 1136.28C610.763 1064.85 539.381 1012.48 466.758 956.017C393.602 899.182 320.3 842.519 246.625 786.329C103.745 677.362 -41.3125 561.316 -194.22 467.855C-310.523 396.813 -429.435 349.438 -549.499 292.351L-551.351 294.799C-431.787 354.559 -311.953 399.36 -195.271 470.699C-42.6573 563.99 102.305 680.163 244.602 789.36C318.024 845.705 391.088 902.524 464.213 959.262C537.151 1015.85 608.402 1067.95 664.055 1139.56C719.409 1210.8 758.879 1287.74 792.335 1363.68C814.992 1415.05 829.914 1479.15 866.633 1528.23Z" fill="white"/>
<path d="M876.534 1515.15L878.431 1512.64C841.185 1461.97 823.238 1400.32 798.676 1347.43C763.932 1272.45 724.28 1197.15 671.618 1126.01C618.202 1053.78 552.792 998.003 481.3 939.605C410.437 881.722 338.56 825.036 265.667 769.546C121.673 659.862 -27.0387 548.246 -183.018 458.408C-252.035 418.651 -322.571 383.115 -393.564 349.457C-441.532 326.621 -492.54 306.509 -538.797 278.205L-540.815 280.872C-493.628 307.449 -443.372 327.379 -395.13 350.191C-324.249 383.66 -253.895 419.457 -185.16 459.566C-29.8541 550.174 118.065 662.817 261.916 772.172C335.019 827.73 407.295 884.323 478.742 941.949C550.448 999.806 617.348 1054.97 671.119 1126.87C724.459 1198.21 763.929 1274.15 798.185 1349.53C822.099 1402.17 839.167 1464.81 876.534 1515.15Z" fill="white"/>
<path d="M887.786 1500.27L889.87 1497.52C853.151 1446.67 829.576 1389.96 801.732 1337.11C763.992 1265.48 723.19 1194.23 674.38 1125.29C574.352 984.027 427.67 868.136 286.242 758.307C141.221 645.697 -11.5916 539.681 -171.383 452.989C-241.67 414.852 -313.032 380.327 -384.13 344.816C-429.781 322.025 -487.68 298.053 -525.93 261.197L-528.347 264.392C-488.458 299.918 -431.872 322.897 -385.816 345.649C-314.703 380.783 -243.476 415.426 -173.356 453.804C-14.2379 540.888 137.907 647.866 282.709 759.849C423.745 868.921 573.711 984.277 673.93 1124.91C723.398 1194.33 764.037 1266.4 801.176 1338.71C828.406 1391.7 851.007 1449.28 887.786 1500.27Z" fill="white"/>
<path d="M900.033 1484.09L902.278 1481.12C818.174 1368.07 756.01 1246.03 676.644 1131.08C653.546 1097.63 629.676 1064.44 605.032 1031.53C578.024 995.51 541.779 962.457 508.301 930.291C443.733 868.293 376.017 808.984 305.584 752.742C159.327 635.809 2.91037 534.796 -160.683 449.465C-231.7 412.432 -303.649 378.124 -374.307 340C-418.544 316.138 -483.077 284.976 -511.13 241.635L-513.855 245.236C-484.154 287.517 -420.24 317.383 -376.056 340.857C-305.273 378.479 -233.432 412.768 -162.517 449.976C0.169094 535.344 156.503 637.392 302.264 753.365C372.878 809.44 440.946 868.429 506.082 929.997C539.811 961.891 576.32 994.535 603.898 1030.4C629.026 1063.08 653.149 1096.17 676.269 1129.67C722.102 1195.8 763.952 1263.12 804.416 1330.82C834.984 1381.87 863.576 1434.66 900.033 1484.09Z" fill="white"/>
<path d="M913.117 1466.79L915.488 1463.66C833.213 1359.39 754.856 1253.65 681.066 1146C631.937 1074.31 587.581 1006.88 525.527 940.849C465.236 876.769 400.516 815.817 332.069 758.653C186.27 636.812 28.1304 539.331 -137.9 454.253C-209.169 417.732 -281.409 382.973 -351.334 342.624C-401.195 313.784 -473.575 272.795 -494.766 220.005L-497.743 223.94C-475.096 275.682 -402.327 315.361 -353.133 343.308C-282.995 383.157 -210.845 417.796 -139.618 454.411C25.7314 539.414 183.337 637.561 328.932 758.377C397.566 815.298 462.663 875.876 523.574 939.507C555.885 973.296 588.409 1007.36 613.606 1044.74C635.888 1077.77 658.31 1110.77 680.872 1143.74C755.268 1252.39 830.734 1361.17 913.117 1466.79Z" fill="white"/>
<path d="M926.817 1448.68L929.299 1445.4C893.377 1403.24 852.224 1364.3 814.09 1323.55C766.577 1272.92 723.257 1219.71 684.736 1164.67C635.78 1094.51 597.905 1024.15 541.219 956.684C480.937 885.013 413.85 817.245 341.223 754.661C195.164 628.701 35.1002 536.812 -133.015 451.541C-203.57 415.749 -275.326 380.371 -343.046 337.128C-397.078 302.626 -463.874 254.535 -477.221 196.815L-480.375 200.983C-465.781 257.812 -397.99 304.568 -344.876 337.893C-276.868 380.557 -205.175 415.72 -134.616 451.525C32.9106 536.518 192.362 629.078 338.233 753.951C410.982 816.175 478.433 883.444 539.396 954.571C596.858 1021.69 635.749 1091.59 684.591 1161.86C755.734 1264.2 845.597 1351.93 926.817 1448.68Z" fill="white"/>
<path d="M940.955 1430L943.478 1426.66C907.121 1387.48 861.671 1356.76 819.85 1322.97C765.508 1279.05 718.431 1230.1 680.059 1175.42C631.65 1106.41 599.684 1035.01 547.861 966.67C492.271 893.397 428.315 824.048 357.626 760.391C286.428 696.476 209.338 638.579 128.161 588.057C43.3918 535.135 -45.0122 493.055 -132.71 448.248C-242.157 392.387 -445.225 297.955 -458.879 172.57L-462.149 176.892C-446.409 300.237 -241.394 393.352 -134.227 448.002C39.6587 536.663 205.31 625.649 354.789 759.24C425.581 822.49 489.893 891.321 546.168 964.068C598.721 1032.06 631.758 1103.02 680.019 1172.08C718.664 1227.4 765.537 1277.68 819.243 1323.45C860.283 1358.39 904.874 1390.53 940.955 1430Z" fill="white"/>
<path d="M955.346 1410.97L957.869 1407.64C919.611 1369.94 871.025 1348.02 825.553 1322.14C769.918 1290.48 722.099 1251.87 684.434 1201.75C658.531 1167.26 638.85 1130.66 622.095 1094.16C604.071 1054.89 579.805 1016.34 554.03 978.637C503.028 903.907 442.102 832.927 373.227 767.999C303.9 702.734 226.932 644.283 146.019 593.776C60.7982 540.575 -28.279 499.863 -116.286 454.529C-247.138 387.119 -430.116 289.24 -440.108 147.76L-443.423 152.142C-431.537 291.815 -245.978 388.175 -117.729 454.066C-29.9413 499.172 58.8276 540.112 143.758 593.198C224.4 643.605 301.141 701.779 370.591 766.602C439.54 831.088 500.806 901.532 552.49 975.752C578.504 1013.08 603.28 1051.33 621.584 1090.35C638.76 1126.95 658.748 1163.56 684.617 1198.28C722.244 1248.77 769.725 1288.98 825.028 1322.64C869.751 1349.8 917.602 1373.21 955.346 1410.97Z" fill="white"/>
<path d="M969.793 1391.88L972.316 1388.54C927.645 1348.18 871.661 1335.84 820.147 1316.64C764.072 1295.73 715.595 1264.8 678.662 1215.89C652.765 1181.53 636.512 1145.08 621.652 1108.79C605.428 1069.19 583.534 1029.68 559.809 991.157C513.201 915.426 455.405 842.671 388.25 776.648C314.937 704.561 231.388 641.341 143.176 588.091C58.6718 537.11 -29.7926 499.074 -116.117 453.429C-260.074 377.343 -421.52 270.606 -421.277 122.868L-424.577 127.23C-423.203 273.528 -258.861 378.449 -117.557 452.843C-31.4025 498.234 56.7638 536.485 141.021 587.393C228.938 640.515 312.269 703.465 385.676 775.089C452.862 840.845 511.174 912.803 558.402 988.236C582.365 1026.41 604.739 1065.64 621.257 1105C636.54 1141.38 653.116 1177.78 678.922 1212.28C715.646 1261.35 763.671 1293.95 819.747 1316.83C870.705 1337.58 925.942 1351.69 969.793 1391.88Z" fill="white"/>
<path d="M984.108 1372.96L986.596 1369.67C891.926 1290.59 771.102 1345.73 683.127 1243.73C657.435 1213.95 641.441 1179.49 629.31 1146.93C614.089 1106.05 598.387 1066.29 577.266 1025.7C534.765 943.979 478.511 864.463 409.69 792.554C340.217 719.953 259.21 656.381 173.124 603.229C82.9117 547.563 -12.0001 508.865 -104.258 459.329C-174.554 421.583 -246.307 377.932 -304.528 321.635C-377.575 251.029 -407.174 174.868 -402.778 98.4175L-405.993 102.666C-409.7 178.347 -378.831 253.067 -306.32 322.031C-247.661 377.809 -175.902 421.014 -105.68 458.599C-13.616 507.873 80.9774 546.813 170.913 602.427C256.771 655.522 337.56 718.824 407.208 791.033C476.133 862.506 532.878 941.513 576.145 1022.85C613.537 1093.16 627.529 1174.69 683.54 1240.44C770.386 1342.27 890.601 1293.85 984.108 1372.96Z" fill="white"/>
<path d="M998.106 1354.45L1000.52 1351.27C897.936 1270.95 770.994 1364.18 677.788 1258.94C652.424 1230.31 638.677 1195.79 628.613 1164.57C613.57 1117.84 598.344 1072.2 576.03 1025.52C537.223 944.275 483.873 864.786 416.677 793.1C348.762 720.65 268.212 657.79 182.691 605.883C93.0041 551.454 -1.35085 515.128 -92.5718 465.715C-166.594 425.602 -241.848 377.257 -299.39 314.763C-371.643 236.294 -392.931 153.731 -384.976 74.8867L-388.039 78.9352C-395.408 156.985 -373.007 238.177 -301.087 315.115C-243.162 377.081 -167.891 424.946 -94.0207 464.881C-2.98036 514.095 91.0789 550.732 180.488 605.129C265.833 657.05 346.145 719.687 414.243 791.835C481.584 863.17 535.408 942.231 574.941 1023.17C597.599 1069.54 613.358 1114.93 628.715 1161.38C639.078 1192.79 653.166 1227.14 678.414 1255.94C770.743 1361.3 896.807 1274.36 998.106 1354.45Z" fill="white"/>
<path d="M1011.59 1336.63L1013.9 1333.58C952.297 1287.51 880.026 1304.78 825.184 1310.36C778.421 1315.12 716.222 1321.65 671.626 1271.68C646.656 1243.71 635.102 1208.76 626.868 1178.53C614.104 1131.65 602.025 1085.86 582.376 1038.64C548.948 958.222 500.666 878.508 436.74 806.244C367.736 728.262 282.97 661.73 192.464 608.066C103.239 555.118 9.4363 521.349 -80.9371 472.41C-154.145 432.755 -227.256 383.808 -282.965 321.401C-362.126 232.66 -379.864 139.109 -368.254 52.7837L-371.1 56.5454C-382.179 142.129 -363.335 234.179 -284.573 321.495C-228.635 383.478 -155.401 432.004 -82.4143 471.534C7.74778 520.334 101.239 554.475 190.243 607.455C280.557 661.215 365.208 727.66 434.404 805.368C498.478 877.335 547.32 956.728 581.499 1036.97C601.478 1083.9 614.122 1129.52 627.185 1176.16C635.685 1206.5 647.566 1241.23 672.427 1269.29C767.781 1376.91 902.706 1254.65 1011.59 1336.63Z" fill="white"/>
<path d="M1024.39 1319.72L1026.55 1316.86C960.967 1268.86 885.01 1292.92 830.917 1304.14C787.005 1313.25 714.962 1335.59 666.378 1282.81C641.929 1256.25 632.15 1221.57 625.346 1192.95C614.204 1146.2 606.19 1100.74 589.741 1053.39C560.685 969.66 514.945 885.472 449.801 809.34C384.481 733.002 302.586 668.275 214.997 616.45C121.058 560.87 22.2943 528.518 -72.5908 477.235C-149.462 435.689 -225.289 382.244 -279.811 314.442C-356.286 219.323 -367.086 120.963 -352.985 32.6011L-355.568 36.0159C-369.347 124.171 -357.269 221.978 -279.97 316.147C-227.777 379.754 -156.79 430.513 -84.4741 470.73C9.08604 522.689 107.162 554.992 200.339 608.853C289.703 660.521 373.747 725.217 441.394 802.005C508.229 877.874 556.031 962.206 586.884 1046.49C604.175 1093.74 613.782 1139.37 624.579 1186.04C631.437 1215.66 641.117 1251.17 665.513 1279.07C713.19 1333.58 784.351 1314.19 829.51 1305.56C883.792 1295.18 959.323 1272.01 1024.39 1319.72Z" fill="white"/>
<path d="M1036.27 1304.01L1038.29 1301.34C968.327 1249.91 887.402 1280.01 832.889 1295.59C792.717 1307.07 714.994 1342 663.583 1292.61C633.687 1263.86 625.639 1220.91 620.1 1189.73C611.835 1143.08 605.803 1097.58 591.624 1050.07C567.103 967.93 525.696 884.409 462.824 808.8C395.163 727.429 307.031 660.626 213.512 608.951C120.321 557.46 22.7547 529.045 -70.3772 478.532C-147.602 436.656 -222.264 381.094 -274.149 311.72C-350.039 210.249 -355.939 106.43 -339.548 14.8398L-341.763 17.7678C-357.736 108.605 -351.148 211.256 -275.579 311.519C-223.535 380.562 -148.957 435.778 -72.0349 477.656C20.8372 528.213 118.175 557.21 211.063 608.881C304.574 660.886 392.589 727.883 460.525 809.189C523.628 884.711 565.795 968.126 591.129 1050.36C605.703 1097.69 612.294 1143.09 620.864 1189.59C626.628 1220.82 635.083 1263.27 664.834 1291.98C716.006 1341.34 792.465 1308.21 833.129 1297.17C887.524 1282.4 967.15 1253.29 1036.27 1304.01Z" fill="white"/>
<path d="M1047.12 1289.67L1048.89 1287.33C971.025 1228.33 880.101 1268.61 822.034 1288.17C784.632 1300.77 703.94 1341.67 653.994 1290.29C624.684 1260.12 619.193 1215.25 615.015 1183.9C608.849 1137.66 605.937 1092.76 594.591 1045.55C574.374 961.528 535.384 874.791 470.331 796.945C404.234 717.869 316.853 654.676 225.265 606.684C132.164 557.904 35.4941 533.303 -57.3304 485.173C-134.228 445.275 -208.127 390.656 -260.039 322.374C-343.713 212.445 -347.274 98.5024 -328.32 0L-330.117 2.3744C-348.755 100.161 -344.576 213.008 -261.359 321.868C-209.396 389.843 -135.707 444.261 -59.1108 484.319C33.3953 532.69 129.883 557.93 222.641 606.985C314.315 655.461 401.618 719.036 467.982 798.178C533.325 876.118 573.11 962.9 594.223 1047.21C606.02 1094.33 609.51 1139.18 615.966 1185.31C620.342 1216.58 626.236 1260.92 655.445 1290.86C705.276 1341.93 784.916 1302.53 822.592 1290.1C880.319 1271.09 970.097 1231.73 1047.12 1289.67Z" fill="white"/>
</g>
<defs>
<clipPath id="clip0_190_63">
<rect width="1042" height="1875" fill="white" transform="matrix(-0.603339 0.797485 0.797485 0.603339 -328.32 0)"/>
</clipPath>
</defs>
</svg>
