<svg width="156" height="55" viewBox="0 0 156 55" fill="none" xmlns="http://www.w3.org/2000/svg">
<g clip-path="url(#clip0_123_3)">
<path d="M70.2733 33.1139H68.1482V28.2367H62.6288V33.1139H60.5037V21.8474H62.6288V26.7246H68.1482V21.8474H70.2733V33.1139Z" fill="white"/>
<path d="M78.0357 33.1139H75.9105V28.4886L71.5718 21.8474L74.1249 21.8623L77.342 26.7987L80.5593 21.8474H82.3596L78.0357 28.4886V33.1139Z" fill="white"/>
<path d="M88.3072 33.1139H83.5256V21.8474H88.3072C89.5075 21.8474 90.4717 22.0327 91.1998 22.4034C91.9133 22.758 92.465 23.3732 92.7419 24.123C93.0693 25.0681 93.2218 26.0654 93.192 27.0656V27.8957C93.2219 28.8959 93.0693 29.8932 92.7419 30.8383C92.4651 31.5882 91.9134 32.2033 91.1998 32.5579C90.4716 32.9285 89.5074 33.1138 88.3072 33.1139ZM88.3072 31.6018C89.3008 31.6018 89.9748 31.3349 90.329 30.8013C90.6832 30.2676 90.8603 29.299 90.8603 27.8957V27.0656C90.8603 25.6524 90.6832 24.6814 90.329 24.1526C89.9749 23.624 89.3009 23.3597 88.3072 23.3595H85.6508V31.6018L88.3072 31.6018Z" fill="white"/>
<path d="M104.481 33.1139H102.017L100.526 30.3269C100.256 29.761 99.9323 29.2224 99.5598 28.7185C99.4494 28.5693 99.3059 28.448 99.1406 28.3644C98.9753 28.2807 98.7929 28.237 98.6079 28.2367H96.9108V33.1139H94.7856V21.8474H99.759C101.254 21.8474 102.29 22.0698 102.865 22.5145C103.441 22.9592 103.729 23.7992 103.729 25.0346C103.729 26.0723 103.522 26.8383 103.109 27.3324C102.696 27.8267 102.292 28.0886 101.899 28.1181L101.884 28.1033C102.047 28.5168 102.239 28.9181 102.46 29.304L104.481 33.1139ZM99.759 26.7246C100.398 26.7246 100.831 26.6233 101.058 26.4207C101.284 26.2183 101.397 25.7563 101.397 25.0346C101.397 24.3231 101.284 23.866 101.058 23.6634C100.831 23.461 100.398 23.3597 99.759 23.3595H96.9108V26.7246L99.759 26.7246Z" fill="white"/>
<path d="M116.642 33.1139H114.398L113.026 30.1045H108.2L106.901 33.1139H105.263L110.089 21.8474H111.713L116.642 33.1139ZM112.347 28.5925L110.547 24.6195L108.835 28.5925H112.347Z" fill="white"/>
<path d="M128.3 33.1139H123.518V21.8474H128.3C129.5 21.8474 130.464 22.0327 131.192 22.4034C131.906 22.758 132.457 23.3732 132.734 24.123C133.062 25.0681 133.214 26.0654 133.184 27.0656V27.8957C133.214 28.8959 133.062 29.8932 132.734 30.8383C132.458 31.5882 131.906 32.2033 131.192 32.5579C130.464 32.9285 129.5 33.1138 128.3 33.1139ZM128.3 31.6018C129.293 31.6018 129.967 31.3349 130.321 30.8013C130.676 30.2676 130.853 29.299 130.853 27.8957V27.0656C130.853 25.6524 130.676 24.6814 130.321 24.1526C129.967 23.624 129.293 23.3597 128.3 23.3595H125.643V31.6018L128.3 31.6018Z" fill="white"/>
<path d="M145.064 33.1139H142.821L141.449 30.1045H136.623L135.324 33.1139H133.686L138.512 21.8474H140.135L145.064 33.1139ZM140.77 28.5925L138.969 24.6195L137.257 28.5925H140.77Z" fill="white"/>
<path d="M151.115 33.3213H150.495C149.285 33.3213 148.319 33.136 147.596 32.7654C146.885 32.409 146.336 31.7941 146.061 31.0458C145.733 30.1008 145.581 29.1035 145.611 28.1032V26.8579C145.581 25.8577 145.733 24.8604 146.061 23.9153C146.336 23.167 146.885 22.5522 147.596 22.1957C148.319 21.8251 149.285 21.6398 150.495 21.6398H151.115C152.325 21.6398 153.292 21.8251 154.015 22.1957C154.726 22.5522 155.274 23.1671 155.55 23.9153C155.877 24.8604 156.03 25.8577 156 26.8579V28.1032C156.03 29.1035 155.877 30.1007 155.55 31.0458C155.274 31.7941 154.726 32.4089 154.015 32.7654C153.292 33.136 152.325 33.3213 151.115 33.3213ZM151.115 31.8093C152.109 31.8093 152.783 31.5424 153.137 31.0087C153.491 30.4751 153.668 29.5066 153.668 28.1032V26.8579C153.668 25.4448 153.491 24.4738 153.137 23.9449C152.783 23.4163 152.109 23.152 151.115 23.1518H150.436C149.492 23.1518 148.84 23.4162 148.481 23.9449C148.122 24.4738 147.942 25.4447 147.942 26.8579V28.1032C147.942 29.5066 148.122 30.4751 148.481 31.0087C148.84 31.5424 149.512 31.8092 150.495 31.8093H151.115Z" fill="white"/>
<path d="M36.1844 1.45709C36.1844 1.45709 31.8279 -0.212869 27.8509 0.0227849C23.874 0.258439 24.7666 4.47869 27.7703 3.96246C30.7741 3.44623 28.9271 1.16222 36.1844 1.45709Z" fill="white"/>
<path d="M17.2179 2.06195C17.2179 2.06195 12.8277 3.64064 9.96004 6.41851C7.09235 9.19639 10.5035 11.8182 12.4503 9.46319C14.3972 7.10823 11.5153 6.58056 17.2179 2.06195Z" fill="white"/>
<path d="M3.19258 14.6583C3.19258 14.6583 0.869812 18.7197 0.480114 22.7024C0.0904162 26.685 4.37959 26.4588 4.34136 23.3979C4.30313 20.337 1.76866 21.8126 3.19258 14.6583Z" fill="white"/>
<path d="M0.766113 33.4548C0.766113 33.4548 1.53652 38.0744 3.75116 41.4009C5.9658 44.7274 9.13795 41.8186 7.17483 39.4773C5.21172 37.136 4.185 39.8919 0.766113 33.4548Z" fill="white"/>
<path d="M10.6902 49.2521C10.6902 49.2521 14.2631 52.2618 18.098 53.346C21.9329 54.4301 22.4638 50.1488 19.4572 49.6495C16.4506 49.1503 17.4521 51.9156 10.6902 49.2521Z" fill="white"/>
<path d="M28.4233 55C28.4233 55 33.0862 54.9724 36.7084 53.3064C40.3307 51.6404 37.9776 48.0311 35.3637 49.6047C32.7497 51.1782 35.2945 52.6357 28.4233 55Z" fill="white"/>
<path d="M45.8438 47.9418C45.8438 47.9418 49.3915 44.9022 51.0925 41.2835C52.7935 37.6648 48.6786 36.4281 47.6894 39.3235C46.7001 42.2188 49.581 41.6859 45.8438 47.9418Z" fill="white"/>
<path d="M54.5129 31.4682C54.5129 31.4682 55.3252 26.8559 54.3459 22.9769C53.3666 19.0979 49.4085 20.7732 50.4789 23.6393C51.5492 26.5054 53.4346 24.2532 54.5129 31.4682Z" fill="white"/>
<path d="M50.7291 13.0592C50.7291 13.0592 48.3894 9.00754 45.1509 6.67686C41.9124 4.34617 39.9624 8.19034 42.6203 9.68781C45.2782 11.1853 45.2735 8.2427 50.7291 13.0592Z" fill="white"/>
<path d="M10.4365 25.2365C10.476 25.264 10.5216 25.2812 10.5692 25.2867C10.9595 25.3145 11.3497 25.3536 11.7405 25.362C12.1024 25.3911 12.4663 25.3397 12.8063 25.2115C12.9483 25.1491 12.9761 25.1675 12.9688 25.3227C12.9476 25.7318 12.996 26.1414 13.1121 26.534C13.1993 26.8864 13.3769 27.2096 13.6273 27.4713C13.8777 27.7331 14.1921 27.9244 14.5391 28.026C15.0856 28.1671 15.6554 28.1918 16.212 28.0983C16.8798 28.0213 17.5454 27.9082 18.2153 27.8684C19.1914 27.8144 20.1496 28.1485 20.8825 28.7984C21.3782 29.2225 21.8173 29.709 22.1891 30.246C22.4199 30.6969 22.7088 31.1153 23.0486 31.4903C22.5145 31.3805 21.9633 31.3863 21.4316 31.5071C20.8998 31.628 20.3999 31.8612 19.9648 32.1912C19.4014 32.592 18.8942 33.0717 18.3513 33.5026C18.0985 33.7078 17.8297 33.8923 17.5475 34.0543C17.4346 34.1207 17.3021 34.1452 17.1731 34.1236C17.044 34.102 16.9266 34.0356 16.8412 33.936C16.4584 33.5338 16.2405 33.0014 16.231 32.445C16.2238 31.7774 16.4492 31.1282 16.8683 30.61C16.8915 30.5658 16.9242 30.5274 16.964 30.4976C17.0039 30.4678 17.0498 30.4473 17.0986 30.4376C17.1473 30.4279 17.1976 30.4293 17.2457 30.4417C17.2939 30.454 17.3387 30.477 17.3768 30.5089C17.4226 30.5316 17.4695 30.5517 17.5175 30.569C17.5203 30.5318 17.525 30.5199 17.5212 30.5123C17.2407 29.9531 16.8883 29.4576 16.3089 29.173C16.1025 29.0839 15.8753 29.0543 15.6531 29.0876C15.4308 29.121 15.2222 29.216 15.0507 29.3619C14.9235 29.4837 14.7957 29.6048 14.6705 29.7287C14.5692 29.829 14.4713 29.9329 14.3498 30.058C14.4338 30.0838 14.4838 30.0996 14.534 30.1145C14.6854 30.1485 14.8341 30.1934 14.979 30.2489C15.3279 30.4106 15.3844 30.6299 15.1483 30.9327C14.9829 31.1356 14.8071 31.3297 14.6216 31.5143C14.0143 32.1454 13.3941 32.7654 12.9396 33.5253C12.7107 33.8776 12.5694 34.2799 12.5276 34.6985C12.52 34.8076 12.5289 34.9179 12.5302 35.0277L12.5838 35.0423L13.026 34.4935L13.0848 34.5148C13.1447 35.2462 13.0782 35.9824 12.8881 36.691C12.9359 36.6865 12.9818 36.6703 13.0219 36.6437C13.3383 36.4126 13.6621 36.1903 13.9665 35.9441C14.2622 35.7324 14.5078 35.4578 14.6858 35.1399C14.7545 35.0003 14.7876 34.9964 14.8815 35.1199C15.1273 35.4467 15.4269 35.7289 15.7672 35.9544C16.0597 36.1677 16.4027 36.3002 16.7621 36.3387C17.1215 36.3772 17.4846 36.3203 17.8153 36.1737C18.324 35.9285 18.776 35.579 19.1421 35.1476C19.6039 34.6569 20.0408 34.1401 20.528 33.6766C21.2406 33.0042 22.1879 32.6404 23.1653 32.664C23.8018 32.6678 24.4353 32.7525 25.0507 32.9163C25.5121 33.1152 25.9973 33.253 26.4941 33.3262C26.02 33.5895 25.6067 33.9507 25.2814 34.3859C24.9561 34.821 24.7262 35.3204 24.6067 35.8513C24.434 36.5227 24.3548 37.218 24.2171 37.8991C24.1559 38.2198 24.0691 38.535 23.9577 38.8416C23.9141 38.9655 23.8287 39.0702 23.7162 39.1373C23.6038 39.2045 23.4715 39.23 23.3423 39.2093C22.7914 39.1503 22.2829 38.885 21.9181 38.4662C21.4835 37.961 21.2385 37.319 21.2256 36.6514C21.2091 36.4027 21.3049 36.2905 21.549 36.2445C21.5986 36.2322 21.6473 36.2171 21.6952 36.1992C21.6734 36.1689 21.6693 36.1568 21.6615 36.1535C21.0879 35.9082 20.5004 35.7584 19.875 35.9167C19.66 35.9824 19.4675 36.1071 19.3192 36.2767C19.1709 36.4463 19.0726 36.6541 19.0353 36.8768C19.0165 37.0522 18.9967 37.2277 18.9807 37.4034C18.9677 37.5458 18.9598 37.6886 18.9473 37.8629C19.0281 37.8281 19.0765 37.8078 19.1244 37.7866C19.2618 37.7144 19.4042 37.6523 19.5506 37.6008C19.921 37.498 20.105 37.6289 20.1194 38.0132C20.1234 38.2754 20.1139 38.5377 20.0908 38.7989C20.0325 39.6747 19.9573 40.5504 20.0985 41.4254C20.15 41.8429 20.3007 42.2418 20.5377 42.5886C20.602 42.6769 20.6797 42.7554 20.7512 42.8383L20.8016 42.8148L20.7867 42.1089L20.8452 42.087C21.361 42.6068 21.7833 43.2122 22.0935 43.8767C22.1271 43.8423 22.1517 43.8 22.1652 43.7538C22.2584 43.3721 22.3628 42.9924 22.4371 42.6069C22.5269 42.2535 22.538 41.8845 22.4697 41.5263C22.4325 41.3751 22.4553 41.3507 22.6063 41.3842C23.0041 41.4744 23.4142 41.4957 23.8191 41.4472C24.1795 41.4205 24.5267 41.2992 24.8259 41.0956C25.1251 40.892 25.3659 40.6131 25.5242 40.2867C25.7552 39.7696 25.8757 39.2095 25.8782 38.6427C25.9155 37.9685 25.9171 37.2905 25.9914 36.6205C26.1035 35.6449 26.5933 34.7529 27.3549 34.1371C27.7917 33.7691 28.2697 33.4534 28.7792 33.1966C29.3352 33.0503 29.8667 32.8225 30.3566 32.5206C30.1626 33.0284 30.0777 33.5716 30.1075 34.1147C30.1373 34.6578 30.2811 35.1884 30.5294 35.6717C30.8271 36.2974 31.2118 36.8808 31.5426 37.4914C31.7011 37.7764 31.8365 38.0737 31.9476 38.3805C31.9936 38.5036 31.9952 38.6389 31.9521 38.763C31.909 38.8871 31.824 38.9921 31.7119 39.0597C31.2523 39.3705 30.6931 39.496 30.1456 39.4111C29.4893 39.3051 28.8907 38.9719 28.4532 38.4692C28.4138 38.4388 28.3817 38.3999 28.3592 38.3554C28.3367 38.3109 28.3244 38.2619 28.3232 38.212C28.3219 38.1622 28.3318 38.1126 28.3521 38.067C28.3723 38.0215 28.4024 37.981 28.4403 37.9487C28.4703 37.9072 28.4979 37.8641 28.5231 37.8195C28.4871 37.8105 28.4762 37.8038 28.4681 37.8063C27.8718 37.9892 27.326 38.2541 26.9486 38.7794C26.8261 38.9687 26.7586 39.1886 26.7537 39.4143C26.7488 39.64 26.8066 39.8626 26.9207 40.0571C27.0186 40.2036 27.1158 40.3507 27.2161 40.4956C27.2974 40.613 27.3827 40.7275 27.4848 40.869C27.5244 40.7901 27.5484 40.7433 27.5715 40.6961C27.6305 40.552 27.6998 40.4125 27.7788 40.2784C27.9966 39.9604 28.2213 39.9417 28.4784 40.2266C28.6494 40.4248 28.8101 40.6317 28.9597 40.8466C29.476 41.5549 29.9792 42.2739 30.6476 42.8526C30.9545 43.1389 31.3253 43.3469 31.7289 43.4593C31.8347 43.4853 31.9444 43.4952 32.0523 43.5125L32.0757 43.4619C31.9212 43.285 31.7668 43.1081 31.6123 42.9311L31.6431 42.8765C32.3708 42.9412 33.0819 43.1318 33.7449 43.4401C33.7486 43.392 33.7404 43.3438 33.7211 43.2997C33.548 42.9472 33.3848 42.5891 33.1948 42.2459C33.0372 41.9173 32.8094 41.6276 32.5277 41.3975C32.4024 41.3058 32.4042 41.2724 32.5413 41.2004C32.9036 41.0124 33.2312 40.7637 33.5101 40.465C33.769 40.2116 33.9571 39.8945 34.0558 39.5452C34.1544 39.1959 34.1602 38.8268 34.0724 38.4746C33.918 37.9294 33.6517 37.4228 33.2905 36.9872C32.8873 36.4469 32.4543 35.9268 32.0821 35.3659C31.5432 34.5465 31.3469 33.547 31.5357 32.5834C31.6322 32.0306 31.7917 31.4907 32.0109 30.9743C32.3676 30.4741 32.6441 29.9208 32.8302 29.3346C33.002 29.8549 33.2823 30.3325 33.6523 30.7355C34.0224 31.1385 34.4737 31.4576 34.9762 31.6715C35.6033 31.9616 36.2703 32.1635 36.9132 32.4207C37.2164 32.5382 37.5098 32.6799 37.7904 32.8446C37.9041 32.9097 37.9914 33.0128 38.0372 33.1358C38.083 33.2589 38.0844 33.3943 38.0412 33.5183C37.8855 34.0523 37.5352 34.5079 37.0601 34.7941C36.4879 35.1338 35.8154 35.2619 35.1591 35.156C34.9125 35.1281 34.8196 35.0135 34.818 34.764C34.8147 34.7128 34.8086 34.6619 34.7996 34.6115C34.7661 34.6276 34.7535 34.6295 34.7488 34.6366C34.4066 35.16 34.1554 35.7142 34.1993 36.3605C34.2255 36.5847 34.3134 36.7972 34.4532 36.9739C34.593 37.1507 34.7791 37.2848 34.9906 37.3612C35.1592 37.411 35.3275 37.4617 35.4968 37.5088C35.634 37.5469 35.7725 37.5802 35.9411 37.6234C35.9214 37.5374 35.9101 37.486 35.8977 37.4349C35.8515 37.2862 35.816 37.1344 35.7915 36.9805C35.7566 36.5961 35.9176 36.4375 36.2966 36.4916C36.5542 36.5342 36.8094 36.5902 37.0613 36.6595C37.9089 36.8728 38.7534 37.1028 39.6357 37.1188C40.0539 37.142 40.4714 37.064 40.8533 36.8913C40.9512 36.8434 41.0419 36.7806 41.1359 36.7246L41.1218 36.6707C40.8904 36.6338 40.659 36.5969 40.4276 36.5599L40.4166 36.4981C41.0174 36.0807 41.6857 35.7709 42.3917 35.5824C42.364 35.543 42.327 35.5112 42.2841 35.4896C41.9267 35.3296 41.5733 35.1589 41.2089 35.017C40.8786 34.8654 40.5191 34.7888 40.156 34.7927C40.0013 34.8026 39.9815 34.7758 40.0411 34.6324C40.2001 34.2552 40.2939 33.8536 40.3184 33.4448C40.3562 33.0837 40.2992 32.719 40.1529 32.387C40.0066 32.0551 39.7761 31.7675 39.4846 31.5529C39.019 31.2327 38.4918 31.014 37.9369 30.9109C37.283 30.7541 36.6191 30.632 35.976 30.4395C35.0401 30.1553 34.2533 29.5125 33.7854 28.6502C33.4697 28.0924 33.2257 27.4965 33.0596 26.8769C33.0028 26.4177 32.892 25.9669 32.7294 25.534C32.7181 25.5037 32.7062 25.4738 32.6944 25.4438C33.1588 25.7236 33.6768 25.9016 34.2145 25.9661C34.7522 26.0306 35.2975 25.9801 35.8144 25.818C36.4793 25.6316 37.118 25.3519 37.7738 25.1302C38.0807 25.0226 38.3956 24.94 38.7157 24.8832C38.8442 24.859 38.9772 24.8808 39.0914 24.9449C39.2056 25.0089 39.2939 25.1112 39.3408 25.2338C39.5661 25.7422 39.5925 26.3172 39.4146 26.8442C39.1972 27.4752 38.767 28.0099 38.1984 28.3558C38.1618 28.3895 38.1181 28.4145 38.0706 28.4291C38.023 28.4437 37.9729 28.4474 37.9238 28.44C37.8746 28.4326 37.8278 28.4143 37.7866 28.3863C37.7454 28.3584 37.711 28.3216 37.6858 28.2786C37.6503 28.2417 37.6128 28.2069 37.5735 28.1743C37.5584 28.2084 37.5499 28.218 37.5509 28.2264C37.6272 28.848 37.7926 29.4338 38.2424 29.898C38.4069 30.0519 38.6107 30.1567 38.8312 30.2006C39.0516 30.2446 39.2799 30.2258 39.4904 30.1466C39.651 30.075 39.812 30.0043 39.9714 29.9301C40.1005 29.87 40.2276 29.8054 40.384 29.7288C40.3135 29.676 40.2718 29.6442 40.2294 29.6132C40.0984 29.5299 39.9735 29.4372 39.8558 29.3358C39.5816 29.0654 39.6021 28.8398 39.9259 28.6347C40.1498 28.4998 40.3805 28.3766 40.6171 28.2657C41.4008 27.8774 42.1928 27.5039 42.8758 26.9426C43.2096 26.6885 43.4777 26.3576 43.6577 25.9777C43.7014 25.8776 43.7301 25.7707 43.7657 25.667L43.7202 25.635L43.1196 26.0018L43.0714 25.9618C43.2606 25.253 43.5705 24.5825 43.9874 23.9798C43.9409 23.9679 43.8922 23.9676 43.8456 23.9791C43.4701 24.0894 43.0907 24.1889 42.7214 24.3176C42.3719 24.4167 42.0485 24.5919 41.7741 24.8309C41.6626 24.939 41.6302 24.9314 41.5832 24.7834C41.4616 24.3924 41.2744 24.0253 41.0297 23.6977C40.826 23.3978 40.5475 23.1568 40.2221 22.9988C39.8968 22.8408 39.5358 22.7713 39.1753 22.7972C38.614 22.8557 38.0712 23.0316 37.5817 23.3136C36.9822 23.6191 36.3973 23.9576 35.783 24.2288C34.8864 24.6203 33.8724 24.6417 32.9603 24.2884C32.4445 24.1009 31.9515 23.8554 31.4907 23.5565C31.0663 23.1134 30.5741 22.7412 30.0329 22.454C30.5704 22.3718 31.0845 22.1757 31.541 21.879C31.9975 21.5822 32.3861 21.1914 32.681 20.7324C33.0729 20.1615 33.3851 19.536 33.7475 18.9438C33.9147 18.6639 34.104 18.3978 34.3136 18.1483C34.3969 18.047 34.5129 17.9782 34.6415 17.954C34.7701 17.9297 34.903 17.9515 35.0173 18.0155C35.5144 18.2611 35.9012 18.6858 36.1005 19.205C36.3357 19.8295 36.3461 20.5169 36.1299 21.1483C36.1232 21.1978 36.1056 21.2451 36.0784 21.2869C36.0512 21.3286 36.015 21.3637 35.9726 21.3896C35.9301 21.4156 35.8824 21.4316 35.833 21.4367C35.7836 21.4417 35.7337 21.4356 35.6869 21.4188C35.6362 21.4133 35.5852 21.4106 35.5342 21.4109C35.5443 21.4468 35.5439 21.4596 35.5501 21.4654C36.0049 21.8938 36.5054 22.2373 37.1468 22.3046C37.3712 22.3171 37.5946 22.2664 37.7919 22.1583C37.9892 22.0503 38.1527 21.8891 38.2638 21.6929C38.3415 21.5346 38.4201 21.3767 38.4953 21.2172C38.5562 21.0879 38.6125 20.9566 38.6838 20.7972C38.5961 20.802 38.5437 20.8043 38.4915 20.8077C38.3377 20.8281 38.1827 20.8372 38.0277 20.8351C37.6446 20.8037 37.5166 20.6173 37.6346 20.2514C37.7205 20.0038 37.8192 19.7608 37.9303 19.5234C38.2847 18.7211 38.6549 17.9247 38.8218 17.0543C38.9161 16.6444 38.9112 16.2178 38.8073 15.8103C38.777 15.7052 38.731 15.6047 38.6922 15.5021L38.6369 15.5068C38.561 15.7295 38.4852 15.9521 38.4093 16.1748L38.3468 16.1751C38.0403 15.509 37.8509 14.7946 37.787 14.0636C37.7436 14.0843 37.706 14.1154 37.6776 14.1542C37.4594 14.4805 37.2315 14.801 37.0298 15.1373C36.8246 15.4382 36.6879 15.7809 36.6295 16.1409C36.6127 16.2957 36.583 16.3107 36.4525 16.2272C36.1099 16.0052 35.732 15.8435 35.3352 15.7493C34.9876 15.65 34.6201 15.644 34.2695 15.7319C33.9188 15.8198 33.5973 15.9986 33.3369 16.2504C32.9431 16.6563 32.6382 17.1406 32.442 17.6721C32.1763 18.2923 31.9428 18.9285 31.6438 19.532C31.2047 20.4094 30.4396 21.0781 29.5137 21.3934C28.9587 21.5946 28.3817 21.7284 27.795 21.7919C27.2506 21.7469 26.7026 21.7804 26.1677 21.8915C26.5218 21.4807 26.7855 20.9994 26.9416 20.4791C27.0976 19.9589 27.1425 19.4113 27.0732 18.8724C27.0057 18.1822 26.8423 17.502 26.7386 16.8147C26.6864 16.4925 26.66 16.1666 26.6597 15.8401C26.6583 15.7087 26.7027 15.5809 26.7853 15.4791C26.868 15.3772 26.9835 15.3076 27.1119 15.2824C27.6494 15.1477 28.2177 15.2213 28.7036 15.4886C29.2845 15.8131 29.7342 16.3314 29.9747 16.9539C30.0014 16.996 30.0184 17.0435 30.0244 17.0931C30.0305 17.1426 30.0254 17.1929 30.0096 17.2402C29.9939 17.2875 29.9678 17.3307 29.9333 17.3666C29.8988 17.4025 29.8567 17.4302 29.8102 17.4477C29.7679 17.4763 29.7272 17.5074 29.6884 17.5407C29.7192 17.5615 29.7272 17.5716 29.7357 17.572C30.3583 17.6043 30.9613 17.5422 31.4944 17.1777C31.6738 17.0417 31.8119 16.8582 31.8932 16.6477C31.9745 16.4372 31.9957 16.2082 31.9545 15.9862C31.9121 15.8149 31.8707 15.6434 31.8256 15.4728C31.7891 15.3347 31.7477 15.1978 31.6998 15.0298C31.6358 15.0903 31.5974 15.1261 31.5596 15.1626C31.4553 15.2778 31.3428 15.3853 31.2229 15.4842C30.9103 15.7086 30.6927 15.6492 30.5477 15.2932C30.4542 15.0484 30.3735 14.7988 30.3057 14.5455C30.0609 13.7029 29.832 12.8546 29.4001 12.0815C29.2088 11.7073 28.9309 11.3847 28.5897 11.1408C28.4991 11.0801 28.3993 11.0332 28.3037 10.98L28.2645 11.0195C28.3497 11.2387 28.4348 11.458 28.52 11.6772L28.4725 11.718C27.8103 11.408 27.2066 10.9851 26.688 10.4682C26.6682 10.5121 26.6595 10.5603 26.6627 10.6084C26.7058 10.999 26.7376 11.3916 26.7997 11.7792C26.8362 12.1421 26.952 12.4925 27.1387 12.8053C27.2254 12.9344 27.2123 12.9652 27.059 12.986C26.6547 13.0385 26.2622 13.1601 25.8986 13.3453C25.5692 13.4949 25.2847 13.7285 25.0734 14.0231C24.862 14.3176 24.7313 14.6626 24.6942 15.0237C24.6543 15.5891 24.7326 16.1567 24.9243 16.6898C25.1198 17.3359 25.3503 17.9731 25.5097 18.628C25.7381 19.5828 25.5833 20.5896 25.0787 21.4308C24.807 21.9059 24.4829 22.3487 24.1126 22.751C23.589 23.1005 23.1266 23.5345 22.7439 24.0355C22.7593 23.4879 22.6583 22.9433 22.4478 22.4379C22.2373 21.9325 21.922 21.478 21.523 21.1046C21.0325 20.6165 20.4743 20.1977 19.9578 19.7351C19.7129 19.5206 19.4855 19.2866 19.2778 19.0354C19.1932 18.9352 19.1462 18.8084 19.1451 18.677C19.144 18.5456 19.1887 18.4179 19.2715 18.3162C19.5997 17.8679 20.084 17.5602 20.6278 17.4544C21.2812 17.3317 21.9567 17.4424 22.5374 17.7673C22.5847 17.7826 22.628 17.8084 22.6641 17.8426C22.7002 17.8769 22.7283 17.9188 22.7462 17.9653C22.7642 18.0119 22.7715 18.0619 22.7677 18.1116C22.764 18.1614 22.7492 18.2097 22.7245 18.253C22.7101 18.3021 22.6986 18.3521 22.6899 18.4026C22.7269 18.3989 22.7394 18.4015 22.7461 18.3964C23.2459 18.0221 23.6707 17.5877 23.8495 16.9652C23.9012 16.7455 23.8909 16.5157 23.8197 16.3016C23.7485 16.0874 23.6193 15.8975 23.4466 15.7531C23.3051 15.6484 23.1642 15.5429 23.0211 15.4405C22.9052 15.3575 22.7864 15.2787 22.6427 15.1801C22.632 15.2677 22.6251 15.3199 22.6192 15.3722C22.6121 15.5278 22.5938 15.6827 22.5644 15.8356C22.4663 16.2088 22.261 16.3026 21.9233 16.1216C21.6957 15.993 21.4749 15.8527 21.2618 15.7011C20.5379 15.2095 19.8227 14.7032 18.999 14.3851C18.614 14.2196 18.195 14.1495 17.7774 14.1805C17.6691 14.1919 17.5625 14.2198 17.4551 14.2401L17.45 14.2956C17.6549 14.4098 17.8597 14.524 18.0646 14.6381L18.0539 14.7C17.3472 14.8859 16.6138 14.9475 15.8861 14.882C15.8988 14.9285 15.9227 14.9712 15.9557 15.0062C16.2371 15.2793 16.511 15.5611 16.8051 15.8197C17.0639 16.0756 17.3756 16.2711 17.7181 16.3922C17.8669 16.436 17.8764 16.468 17.7716 16.5823C17.4937 16.882 17.2688 17.2272 17.1066 17.603C16.9481 17.9293 16.8776 18.2916 16.902 18.6538C16.9265 19.016 17.0451 19.3655 17.2461 19.6672C17.5746 20.1281 17.9955 20.5147 18.4818 20.8023C19.0429 21.1742 19.6252 21.517 20.164 21.9189C20.9466 22.5075 21.4672 23.3818 21.6133 24.3528C21.72 24.985 21.7464 25.6283 21.6917 26.2672C21.5726 26.7776 21.5236 27.3021 21.5463 27.8259C21.2078 27.3962 20.7821 27.044 20.2975 26.7925C19.813 26.541 19.2806 26.3961 18.7359 26.3675C18.0479 26.31 17.3523 26.3492 16.6607 26.3281C16.3357 26.3217 16.0118 26.2891 15.6921 26.2307C15.5631 26.2085 15.446 26.1416 15.3611 26.0416C15.2762 25.9417 15.2288 25.815 15.2273 25.6836C15.192 25.1282 15.3663 24.5799 15.7155 24.1479C16.1377 23.6322 16.7262 23.2811 17.379 23.1554C17.425 23.1366 17.4746 23.1283 17.5242 23.1313C17.5738 23.1342 17.6221 23.1482 17.6656 23.1723C17.7091 23.1964 17.7467 23.23 17.7757 23.2705C17.8046 23.3111 17.8242 23.3576 17.8329 23.4068C17.8534 23.4537 17.8765 23.4995 17.9021 23.5438C17.9281 23.5171 17.9393 23.511 17.9413 23.5028C18.0849 22.8934 18.1326 22.2863 17.8715 21.6939C17.7706 21.4922 17.6157 21.3228 17.4242 21.2046C17.2327 21.0864 17.0122 21.0243 16.7875 21.025C16.6121 21.0361 16.4366 21.0462 16.2615 21.06C16.1196 21.0713 15.9781 21.0875 15.805 21.1047C15.8528 21.1788 15.8809 21.2232 15.9099 21.2671C16.0039 21.3909 16.0889 21.5214 16.1642 21.6576C16.3277 22.0069 16.2304 22.2113 15.8558 22.2905C15.5992 22.3388 15.3402 22.3737 15.08 22.3951C14.2108 22.4855 13.3389 22.5591 12.5042 22.8468C12.1034 22.9685 11.7374 23.1851 11.4372 23.4784C11.3615 23.557 11.2976 23.6472 11.2283 23.7321L11.2599 23.7779C11.49 23.7332 11.72 23.6885 11.95 23.6438L11.9814 23.6981C11.5587 24.2966 11.036 24.8171 10.4365 25.2365ZM19.6467 15.8868C19.6881 15.8433 19.7415 15.8131 19.8001 15.8C19.8587 15.7869 19.9198 15.7915 19.9757 15.8133C20.0823 15.8399 20.1854 15.8787 20.2831 15.9291C20.3108 15.9414 20.3498 15.982 20.3455 16.001C20.3337 16.0371 20.3086 16.0672 20.2753 16.0851L19.6467 15.8868ZM28.9444 13.6528C29.0857 13.6221 29.1708 13.7191 29.2444 13.8072C29.3095 13.896 29.3642 13.9921 29.4074 14.0935C29.4209 14.1207 29.4251 14.1769 29.4098 14.1889C29.3778 14.209 29.3393 14.2161 29.3023 14.2085L28.9444 13.6528ZM37.464 17.959C37.5917 18.0272 37.5943 18.1564 37.594 18.2714C37.5867 18.3815 37.5667 18.4903 37.5345 18.5957C37.5274 18.6253 37.4945 18.671 37.4751 18.6702C37.4377 18.6648 37.4038 18.6453 37.3803 18.6155L37.464 17.959ZM40.7735 27.2146L41.2562 26.7642C41.3108 26.8987 41.2304 26.9997 41.1569 27.0878C41.0811 27.1676 40.9964 27.2384 40.9045 27.2986C40.8802 27.3168 40.8258 27.3307 40.8114 27.3176C40.786 27.2894 40.7725 27.2526 40.7735 27.2146V27.2146ZM37.8576 35.9597L38.5158 35.9301C38.4708 36.0681 38.3444 36.0929 38.2316 36.1122C38.1224 36.1239 38.0123 36.1227 37.9033 36.1089C37.8731 36.1069 37.8227 36.0822 37.8202 36.0628C37.819 36.0249 37.8324 35.988 37.8576 35.9597V35.9597ZM30.5425 41.2194C30.4888 41.2463 30.4284 41.2566 30.3689 41.2491C30.3094 41.2416 30.2534 41.2165 30.208 41.1771C30.1167 41.1159 30.0327 41.0443 29.9577 40.9638C29.9357 40.9429 29.9126 40.8915 29.923 40.8749C29.9462 40.845 29.98 40.8252 30.0174 40.8196L30.5425 41.2194ZM21.0639 40.1071C20.9207 40.0871 20.874 39.9667 20.8349 39.8586C20.8041 39.7527 20.7857 39.6436 20.7798 39.5335C20.7764 39.5033 20.7917 39.449 20.8102 39.4431C20.8472 39.4352 20.8857 39.4419 20.9179 39.4617L21.0639 40.1071ZM14.8273 32.5568L14.5242 33.1444C14.4887 33.0958 14.4683 33.0378 14.4656 32.9776C14.4629 32.9174 14.478 32.8577 14.509 32.8061C14.5535 32.7053 14.6095 32.61 14.6758 32.5221C14.6926 32.4968 14.7391 32.4653 14.7571 32.4728C14.7904 32.4907 14.8155 32.5208 14.8274 32.5568L14.8273 32.5568ZM31.6318 29.5401C31.2458 30.3964 30.6157 31.1184 29.8212 31.6149C29.0266 32.1114 28.1034 32.3601 27.1681 32.3296C26.2329 32.299 25.3277 31.9906 24.567 31.4432C23.8063 30.8959 23.2242 30.1342 22.8944 29.2546C22.5646 28.3749 22.5019 27.4168 22.7142 26.5014C22.9265 25.5859 23.4043 24.7543 24.0871 24.1116C24.7699 23.4689 25.6272 23.0441 26.5504 22.8908C27.4736 22.7375 28.4213 22.8626 29.2737 23.2503C30.4158 23.7714 31.3054 24.7263 31.7475 25.9054C32.1896 27.0846 32.148 28.3917 31.6318 29.5401L31.6318 29.5401ZM14.1661 23.311C14.2648 23.2626 14.3687 23.2258 14.4758 23.2015C14.5049 23.1929 14.5607 23.1989 14.5696 23.2162C14.5836 23.2515 14.5836 23.2908 14.5695 23.326L13.961 23.5797C13.9564 23.4345 14.0667 23.3679 14.1661 23.311L14.1661 23.311Z" fill="#4C4C4C"/>
<path d="M52.3182 32.0118L52.4 31.9532C52.7069 32.1717 53.0139 32.3901 53.3209 32.6086L53.3974 32.5625C53.3519 32.3923 53.318 32.2179 53.259 32.0525C53.0133 31.4238 52.6209 30.8635 52.1148 30.4188C51.0836 29.4425 49.8568 28.7547 48.645 28.0441C48.2785 27.8398 47.9228 27.6164 47.5793 27.3749C47.0835 27.0098 47.076 26.6462 47.5455 26.244C47.7454 26.0949 47.9558 25.9606 48.1751 25.842C48.2464 25.7972 48.3167 25.7508 48.4355 25.6743C48.1936 25.534 47.9973 25.4161 47.7972 25.3052C47.5502 25.1684 47.3002 25.0369 47.051 24.9041C46.7228 24.7534 46.3592 24.6976 46.0012 24.743C45.6432 24.7885 45.3049 24.9333 45.0243 25.1612C44.2517 25.854 43.9212 26.7736 43.7294 27.7605C43.7268 27.7739 43.7393 27.7903 43.7597 27.8466C43.8264 27.7988 43.8903 27.7473 43.9512 27.6922C44.2318 27.4076 44.4666 27.3806 44.781 27.6265C45.6353 28.2948 46.3023 29.1035 46.5597 30.1851C46.7856 31.0494 46.679 31.9674 46.2612 32.7562C46.1723 32.9474 46.0195 33.1012 45.8294 33.1909C45.6392 33.2807 45.4238 33.3006 45.2206 33.2473C44.7143 33.12 44.2191 32.9521 43.7396 32.7452C42.7139 32.3159 41.7224 31.7958 40.6781 31.422C38.8862 30.7807 37.1885 30.87 35.6056 31.6854C35.9841 30.9343 36.2584 30.1346 36.4207 29.3086C36.762 28.3377 37.2248 27.4144 37.7978 26.5606C38.7146 25.2243 39.9394 24.3095 41.5226 23.9648C42.5757 23.7355 43.6536 23.6215 44.7195 23.4508C45.6151 23.3074 46.4964 23.1148 47.2755 22.6128C48.3366 21.9292 48.8168 20.9291 48.8406 19.6862C48.8512 19.0287 48.7499 18.3741 48.5411 17.7508C48.4631 17.5139 48.4981 17.4733 48.7446 17.5082C49.3255 17.559 49.9104 17.4805 50.4576 17.2783C51.0584 17.0958 51.6449 16.8659 52.2365 16.6536C52.3079 16.6244 52.371 16.5779 52.4201 16.5183C51.3127 16.1299 50.2805 15.5518 49.3693 14.8097L49.3945 14.7121C49.7694 14.6814 50.1444 14.6507 50.5193 14.62L50.5485 14.5354C50.4048 14.4342 50.2673 14.3225 50.1164 14.2338C49.5259 13.9105 48.8668 13.7344 48.1946 13.7202C46.78 13.6375 45.4 13.9021 44.0169 14.1395C43.6053 14.2195 43.1898 14.2779 42.7722 14.3145C42.1587 14.3546 41.9204 14.0808 42.0229 13.4696C42.0808 13.2264 42.1562 12.9876 42.2483 12.7553C42.2743 12.6749 42.2986 12.594 42.3406 12.4587C42.0655 12.5073 41.8397 12.5435 41.6155 12.5877C41.3386 12.6423 41.063 12.7029 40.787 12.7619C40.4391 12.8582 40.1249 13.0501 39.8796 13.3159C39.6342 13.5818 39.4676 13.9111 39.3983 14.2669C39.2494 15.2963 39.5842 16.2143 40.0685 17.0944C40.075 17.1064 40.095 17.1109 40.1467 17.1409C40.1672 17.0612 40.1833 16.9804 40.1947 16.899C40.2277 16.4997 40.3904 16.3276 40.7886 16.3131C41.8707 16.2739 42.8991 16.4632 43.7881 17.126C44.5139 17.6425 45.0194 18.4148 45.2037 19.289C45.2578 19.4929 45.2391 19.7094 45.1508 19.9008C45.0624 20.0922 44.9101 20.2465 44.7202 20.3368C44.2509 20.566 43.764 20.7569 43.2642 20.9078C42.2037 21.2407 41.1111 21.482 40.0718 21.8695C38.2887 22.5343 37.0448 23.6982 36.3532 25.3442C36.1239 24.3568 35.7336 23.4143 35.1984 22.5547C34.9218 21.7199 34.7398 20.8565 34.6557 19.9808C34.5122 18.3642 34.8738 16.8748 35.8735 15.5943C36.5385 14.7425 37.2958 13.9637 38.0079 13.1489C38.6062 12.4642 39.1622 11.7509 39.443 10.8649C39.8253 9.65837 39.5595 8.5806 38.7881 7.60859C38.3784 7.09562 37.8845 6.6567 37.3277 6.31077C37.1171 6.17839 37.1183 6.12469 37.3302 5.99353C37.8096 5.66017 38.21 5.22473 38.5028 4.71822C38.8492 4.19254 39.1546 3.63948 39.4752 3.09673C39.5116 3.02849 39.5306 2.95228 39.5306 2.87487C38.4312 3.28593 37.2693 3.50273 36.0964 3.51568L36.0537 3.42441C36.3229 3.16037 36.592 2.89633 36.8611 2.6323L36.8298 2.54843C36.6549 2.5627 36.4781 2.56491 36.3055 2.59337C35.6456 2.72309 35.0263 3.01008 34.4998 3.43021C33.3583 4.27352 32.4641 5.36206 31.5503 6.43165C31.2842 6.75709 31.0015 7.06842 30.7033 7.36438C30.2566 7.78859 29.8991 7.73067 29.5897 7.19442C29.4797 6.97004 29.386 6.73796 29.3093 6.49999C29.2782 6.42148 29.2455 6.34361 29.1918 6.21248C29.011 6.4263 28.8602 6.59898 28.7156 6.77679C28.5372 6.99629 28.3635 7.21967 28.1886 7.44204C27.982 7.73925 27.862 8.08844 27.8421 8.45038C27.8222 8.81232 27.9031 9.17267 28.0759 9.49093C28.6154 10.3789 29.4565 10.8709 30.3885 11.2379C30.4011 11.2429 30.4194 11.2335 30.4782 11.2235C30.4434 11.149 30.4044 11.0765 30.3615 11.0065C30.1332 10.678 30.149 10.4412 30.4464 10.1747C31.2544 9.45072 32.1664 8.93709 33.2719 8.87725C34.1588 8.80952 35.0387 9.07996 35.736 9.63468C35.9072 9.75693 36.0304 9.93559 36.084 10.1396C36.1377 10.3436 36.1185 10.56 36.0297 10.7513C35.814 11.2286 35.5605 11.6878 35.2717 12.1244C34.6668 13.0606 33.9791 13.9469 33.4253 14.9115C32.4826 16.5536 32.2609 18.2334 32.759 19.9301C32.0498 19.4117 31.2704 18.998 30.4444 18.7016C29.6281 18.2185 28.8724 17.6389 28.1933 16.9752C27.045 15.8335 26.3641 14.4614 26.3049 12.8352C26.2655 11.7535 26.3435 10.6676 26.3638 9.58355C26.3808 8.67272 26.3471 7.76735 25.9923 6.90863C25.5091 5.73914 24.6136 5.08827 23.3998 4.84604C22.7572 4.71986 22.0979 4.70485 21.4504 4.80165C21.2045 4.83705 21.1709 4.79526 21.2485 4.55769C21.4004 3.99224 21.4264 3.40008 21.3246 2.82338C21.2514 2.19723 21.1293 1.5768 21.0254 0.954395C21.0093 0.878691 20.9749 0.808146 20.9252 0.749023C20.3496 1.77578 19.6015 2.69471 18.7139 3.46512L18.6227 3.42303C18.6586 3.04687 18.6945 2.67071 18.7304 2.29455L18.6526 2.25079C18.5281 2.37509 18.3945 2.49145 18.281 2.62507C17.8603 3.15202 17.5717 3.77274 17.4395 4.43503C17.1095 5.81925 17.126 7.2304 17.1153 8.63984C17.1212 9.06091 17.1053 9.48201 17.0677 9.90142C16.999 10.5151 16.6888 10.7026 16.1079 10.4936C15.8797 10.3936 15.659 10.2771 15.4475 10.145C15.3733 10.1052 15.2983 10.067 15.1731 10.0016C15.1723 10.2822 15.1681 10.5118 15.172 10.7414C15.1767 11.0247 15.1876 11.308 15.1969 11.5912C15.23 11.9522 15.3628 12.2967 15.5801 12.586C15.7975 12.8754 16.0909 13.0981 16.4273 13.2292C17.4099 13.5576 18.3685 13.3881 19.3162 13.0641C19.3291 13.0597 19.337 13.0408 19.3755 12.995C19.301 12.9606 19.2247 12.9305 19.1469 12.9049C18.7614 12.802 18.6214 12.6109 18.6773 12.2145C18.8292 11.1376 19.1958 10.154 20.0017 9.39159C20.6356 8.76477 21.4814 8.40088 22.3705 8.37243C22.5798 8.35479 22.7887 8.4114 22.9607 8.53243C23.1328 8.65346 23.2572 8.83124 23.3123 9.03486C23.4543 9.53931 23.5557 10.0544 23.6156 10.5751C23.7552 11.6824 23.7994 12.8052 23.9963 13.901C24.3331 15.7759 25.2505 17.2078 26.7344 18.1812C25.7533 18.2412 24.788 18.4581 23.875 18.8238C23.0039 18.9543 22.1209 18.9854 21.2429 18.9165C19.6331 18.7781 18.2355 18.1622 17.1534 16.9512C16.4336 16.1457 15.8013 15.2615 15.1258 14.4157C14.5583 13.7051 13.9553 13.0314 13.1354 12.6C12.0187 12.0125 10.916 12.0886 9.82921 12.6833C9.25525 12.9997 8.7393 13.4122 8.3036 13.9031C8.13731 14.0884 8.08486 14.078 7.993 13.8456C7.74929 13.3135 7.39178 12.8419 6.94594 12.4645C6.4906 12.0306 6.00132 11.6326 5.52475 11.2213C5.46415 11.1735 5.39272 11.1415 5.31683 11.1281C5.52925 12.2869 5.54037 13.474 5.34971 14.6366L5.25283 14.663L4.61619 13.7269L4.52853 13.7433C4.51221 13.9188 4.48371 14.0942 4.4817 14.2698C4.49447 14.9452 4.66848 15.6076 4.9891 16.2013C5.61799 17.4768 6.53022 18.5502 7.42046 19.6396C7.69341 19.9593 7.94963 20.2929 8.18808 20.6393C8.52656 21.1548 8.4078 21.4983 7.82839 21.7115C7.58932 21.7814 7.34553 21.8339 7.09893 21.8685C7.01657 21.8857 6.93455 21.9045 6.79669 21.9348C6.97496 22.1509 7.11813 22.33 7.26739 22.5038C7.45166 22.7184 7.64055 22.9289 7.82824 23.1405C8.08382 23.3964 8.40538 23.5757 8.75679 23.6581C9.1082 23.7406 9.47554 23.723 9.81753 23.6073C10.7816 23.2275 11.4098 22.4807 11.9312 21.6223C11.9383 21.6106 11.9323 21.591 11.9327 21.531C11.8536 21.5525 11.7758 21.5785 11.6997 21.6089C11.338 21.7778 11.1086 21.7211 10.8989 21.3807C10.3292 20.4558 9.98369 19.4645 10.1167 18.3605C10.204 17.4713 10.6217 16.6478 11.2865 16.054C11.436 15.9058 11.6326 15.815 11.8419 15.7973C12.0512 15.7796 12.2601 15.8361 12.4322 15.9571C12.8628 16.2532 13.2691 16.5836 13.647 16.945C14.4601 17.7057 15.2098 18.5397 16.0595 19.2549C17.5075 20.4734 19.1179 20.9838 20.8699 20.7835C20.8329 20.8195 20.7958 20.8554 20.7592 20.8921C20.2359 21.4172 19.7765 22.0029 19.3907 22.6368C18.7391 23.4325 17.9894 24.1418 17.1596 24.7476C15.8432 25.6885 14.3808 26.1273 12.7757 25.9073C11.708 25.761 10.6563 25.4978 9.59654 25.292C8.70613 25.1191 7.81237 24.9974 6.90936 25.2014C5.67954 25.4793 4.88776 26.2541 4.44225 27.4138C4.20843 28.0281 4.08077 28.678 4.06478 29.3354C4.05738 29.5848 4.01064 29.6109 3.79092 29.4935C3.26235 29.2462 2.68602 29.119 2.10294 29.121C1.47628 29.0862 0.846846 29.1007 0.218602 29.097C0.141598 29.0999 0.0665068 29.1219 0 29.161C0.908445 29.9065 1.68157 30.8043 2.28515 31.8147L2.22825 31.8977C1.86546 31.7978 1.50267 31.6978 1.13988 31.5978L1.08364 31.6673C1.18423 31.8118 1.27546 31.964 1.38708 32.0992C1.83184 32.6058 2.3912 32.9978 3.01812 33.2421C4.31923 33.8058 5.70612 34.0312 7.08666 34.2832C7.50066 34.3495 7.91095 34.4373 8.31587 34.5464C8.90598 34.7195 9.03675 35.0586 8.73228 35.5977C8.59506 35.8064 8.44299 36.0049 8.27726 36.1916C8.22552 36.2582 8.17512 36.3259 8.08954 36.4386C8.36462 36.4874 8.58916 36.5309 8.81493 36.5664C9.09363 36.6103 9.37331 36.648 9.65271 36.6874C10.0124 36.7164 10.3731 36.644 10.6941 36.4785C11.0151 36.3129 11.2838 36.0607 11.4701 35.7502C11.9605 34.834 11.9584 33.8563 11.803 32.8629C11.8009 32.8495 11.7837 32.8384 11.7453 32.7924C11.6989 32.8602 11.6563 32.9306 11.6178 33.0032C11.4509 33.3671 11.2394 33.473 10.8603 33.3497C9.83009 33.0148 8.92818 32.4836 8.31842 31.5555C7.81224 30.8207 7.60022 29.9213 7.72463 29.0365C7.74319 28.8264 7.8345 28.6294 7.98268 28.4798C8.13086 28.3302 8.32653 28.2376 8.53568 28.218C9.05476 28.1639 9.57732 28.1517 10.0983 28.1816C11.2082 28.2331 12.3171 28.3817 13.4256 28.3746C15.329 28.3625 16.8949 27.6952 18.1056 26.3842C17.9912 27.3655 18.0308 28.3588 18.2227 29.3279C18.2029 30.229 18.0801 31.1248 17.8568 31.9977C17.4428 33.5665 16.5972 34.8428 15.2227 35.704C14.3084 36.2769 13.3321 36.7495 12.386 37.2716C11.5911 37.7102 10.8263 38.1903 10.2615 38.9269C9.4924 39.9302 9.37634 41.0344 9.77153 42.2124C9.98249 42.835 10.2978 43.4168 10.7037 43.9327C10.8567 44.1293 10.8374 44.1794 10.5936 44.2301C10.0298 44.3792 9.5056 44.6514 9.0584 45.0272C8.55422 45.4027 8.07935 45.818 7.59374 46.2184C7.53638 46.27 7.49262 46.3352 7.46635 46.4079C8.63936 46.3982 9.8052 46.5924 10.9123 46.9821C10.9153 47.0155 10.9183 47.049 10.9213 47.0825C10.5787 47.2385 10.2361 47.3945 9.89341 47.5505L9.89438 47.6401C10.0636 47.6866 10.2306 47.7451 10.4025 47.7774C11.0669 47.8816 11.7465 47.824 12.3841 47.6094C13.7435 47.2077 14.9536 46.4908 16.1758 45.7984C16.5364 45.5836 16.9078 45.3878 17.2887 45.2117C17.8527 44.966 18.169 45.1429 18.2778 45.753C18.305 46.0016 18.3143 46.2519 18.3056 46.5019C18.3082 46.5863 18.3125 46.6707 18.3184 46.8124C18.561 46.6733 18.7614 46.5627 18.9577 46.445C19.1999 46.2998 19.4391 46.1494 19.679 46.0002C19.9741 45.7916 20.2055 45.5045 20.3471 45.1711C20.4887 44.8376 20.5349 44.4712 20.4806 44.1128C20.2749 43.0933 19.6513 42.3426 18.8998 41.6783C18.8896 41.6693 18.8692 41.6718 18.8105 41.6611C18.818 41.743 18.83 41.8245 18.8466 41.9051C18.9497 42.2921 18.8544 42.5093 18.4844 42.6579C17.4789 43.0617 16.4473 43.2321 15.3878 42.9096C14.531 42.6694 13.7957 42.1138 13.3285 41.3534C13.2091 41.1798 13.154 40.9697 13.1728 40.7595C13.1916 40.5494 13.2832 40.3525 13.4315 40.2031C13.7964 39.8283 14.1906 39.4835 14.6103 39.172C15.4968 38.4991 16.4441 37.9016 17.2923 37.1845C18.7373 35.9628 19.5161 34.4581 19.6229 32.6903C20.1404 33.4579 20.7676 34.1447 21.4844 34.7286C22.0603 35.4433 22.5513 36.2231 22.9475 37.0521C23.6352 38.5206 23.8052 40.0442 23.3044 41.5918C22.9713 42.6212 22.5265 43.614 22.1365 44.6251C21.8089 45.4745 21.5308 46.3364 21.5701 47.2653C21.6238 48.5303 22.2421 49.4507 23.2991 50.0973C23.8593 50.4376 24.4732 50.6793 25.1145 50.812C25.3575 50.8636 25.3748 50.9144 25.2206 51.1108C24.8844 51.5893 24.6574 52.1364 24.5557 52.7131C24.4102 53.3264 24.3126 53.9512 24.1972 54.5716C24.1864 54.6482 24.1946 54.7263 24.2211 54.799C25.1129 54.0335 26.1299 53.4289 27.227 53.0118L27.2982 53.0828L26.811 54.1054L26.8691 54.1733C27.0285 54.0996 27.1938 54.0364 27.3461 53.9501C27.9215 53.6005 28.4049 53.1173 28.7556 52.541C29.5391 51.355 30.0064 50.0241 30.4987 48.7042C30.6372 48.3068 30.7962 47.9168 30.9751 47.5359C31.2495 46.9833 31.605 46.9144 32.079 47.3111C32.2591 47.4839 32.4265 47.6695 32.5799 47.8665C32.636 47.9295 32.6933 47.9913 32.7885 48.0959C32.8853 47.8327 32.9678 47.6185 33.0427 47.4016C33.1352 47.1339 33.2219 46.8642 33.3101 46.595C33.4024 46.2445 33.3957 45.8752 33.2905 45.5284C33.1854 45.1816 32.9861 44.8712 32.715 44.6319C31.9046 43.9843 30.9464 43.8126 29.9457 43.7896C29.9321 43.7893 29.9181 43.8044 29.8663 43.8341C29.9245 43.892 29.9859 43.9466 30.0502 43.9976C30.3769 44.2273 30.4431 44.4551 30.255 44.808C29.7438 45.7668 29.0631 46.564 28.0454 47.0018C27.2356 47.3715 26.3168 47.4213 25.4722 47.141C25.2696 47.0853 25.0928 46.9601 24.9726 46.787C24.8524 46.6139 24.7965 46.404 24.8144 46.1938C24.8537 45.6711 24.9346 45.1523 25.0565 44.6426C25.3043 43.5546 25.6469 42.485 25.837 41.3879C26.1611 39.5177 25.7931 37.8616 24.7414 36.4386C25.5163 36.6621 26.3169 36.7834 27.1229 36.7996C28.131 36.9694 29.1135 37.2669 30.0471 37.6849C31.516 38.3607 32.6249 39.4141 33.2369 40.9208C33.644 41.923 33.9423 42.9696 34.2942 43.9947C34.5898 44.8559 34.9312 45.6945 35.5582 46.3784C36.4122 47.3099 37.4758 47.6119 38.6986 47.4203C39.3451 47.317 39.9694 47.1035 40.5444 46.789C40.7632 46.6709 40.809 46.6985 40.8175 46.9484C40.8682 47.5319 41.0464 48.0969 41.3394 48.6033C41.6223 49.1661 41.9493 49.7066 42.2598 50.2552C42.3008 50.3207 42.3573 50.3751 42.4242 50.4134C42.6134 49.2505 43.0016 48.1293 43.5715 47.0994L43.6715 47.1074C43.7665 47.473 43.8615 47.8387 43.9565 48.2043L44.0446 48.2185C44.1189 48.0589 44.2046 47.9035 44.2655 47.7388C44.4802 47.0987 44.5389 46.4161 44.4364 45.7486C44.2727 44.3347 43.7744 43.0152 43.3022 41.688C43.1526 41.2946 43.0234 40.8937 42.9152 40.4868C42.7697 39.8868 42.9969 39.6037 43.6139 39.5993C43.8625 39.6145 44.1096 39.6477 44.3534 39.6987C44.4367 39.7104 44.5202 39.7205 44.6601 39.7387C44.5649 39.4749 44.4902 39.2578 44.4081 39.0435C44.3067 38.7791 44.1996 38.5169 44.0939 38.2541C43.9393 37.9266 43.6968 37.6489 43.3936 37.4522C43.0905 37.2555 42.7388 37.1476 42.378 37.1407C41.3429 37.1715 40.5007 37.6616 39.7216 38.293C39.711 38.3016 39.7101 38.3222 39.6896 38.3785C39.7712 38.385 39.8532 38.3869 39.9351 38.3841C40.3322 38.3477 40.5292 38.4788 40.6123 38.8703C40.838 39.9341 40.8304 40.9843 40.3344 41.9785C39.9536 42.786 39.2838 43.4197 38.4586 43.7534C38.2681 43.8422 38.0526 43.8612 37.8496 43.8069C37.6466 43.7527 37.4689 43.6286 37.3475 43.4564C37.0416 43.0317 36.7701 42.5831 36.5357 42.1147C36.0257 41.1231 35.6 40.084 35.0403 39.1228C34.0802 37.4744 32.7244 36.4454 30.9918 36.0457C31.736 35.7233 32.4346 35.3036 33.0695 34.7975C33.9674 34.2596 34.9305 33.8401 35.9352 33.5495C37.4924 33.1171 39.0161 33.2064 40.4498 33.964C41.4035 34.4678 42.3024 35.0761 43.2285 35.6332C44.0065 36.1012 44.8051 36.5223 45.7232 36.6404C46.9735 36.8013 47.9812 36.3448 48.7943 35.4077C49.2229 34.9106 49.5639 34.3436 49.8025 33.7312C49.8943 33.4993 49.9471 33.4908 50.1137 33.6766C50.5263 34.0904 51.0247 34.4077 51.5734 34.6059C52.1505 34.8537 52.747 35.056 53.3362 35.2752C53.4096 35.2988 53.4876 35.3039 53.5634 35.29C52.9632 34.2776 52.5419 33.1685 52.3182 32.0118ZM45.2067 15.3576C45.1698 15.3093 45.1529 15.2485 45.1594 15.188C45.1658 15.1573 45.2495 15.1238 45.2981 15.1244C45.4742 15.1156 45.6507 15.1274 45.8241 15.1594C46.0024 15.2042 46.2017 15.2593 46.2569 15.486L45.2067 15.3576ZM33.2402 6.60646C33.1811 6.59288 33.1294 6.55698 33.096 6.5062C33.0814 6.47846 33.1246 6.39903 33.1624 6.36826C33.2924 6.24864 33.4357 6.14451 33.5895 6.05795C33.667 6.00046 33.7597 5.9673 33.8559 5.96265C33.9521 5.958 34.0476 5.98208 34.1302 6.03185L33.2402 6.60646ZM18.5183 7.6777C18.4645 7.70565 18.402 7.71171 18.3438 7.69463C18.3148 7.68291 18.2968 7.5942 18.3058 7.54622C18.3283 7.37056 18.3708 7.1981 18.4327 7.03227C18.508 6.86386 18.5971 6.67654 18.8289 6.66176L18.5183 7.6777ZM7.7615 18.1234C7.73176 18.133 7.66139 18.0765 7.63776 18.0338C7.54302 17.8845 7.46577 17.7246 7.40758 17.5575C7.36465 17.4708 7.34821 17.3734 7.36034 17.2774C7.37247 17.1814 7.41262 17.0911 7.47573 17.018L7.8848 17.9981C7.86124 18.0542 7.81709 18.0991 7.7615 18.1234ZM6.37001 32.9055C6.35354 32.9322 6.26346 32.9348 6.21795 32.9176C6.0495 32.8653 5.88765 32.7937 5.7356 32.704C5.58332 32.6006 5.41486 32.4804 5.44008 32.2485L6.38331 32.7298C6.40149 32.7879 6.39673 32.8508 6.37001 32.9055ZM14.6465 45.0551C14.6975 45.0881 14.7339 45.1396 14.7481 45.1988C14.7524 45.2299 14.6848 45.2897 14.6388 45.3057C14.476 45.3736 14.3059 45.4224 14.132 45.4511C13.949 45.4693 13.743 45.4849 13.6148 45.2904L14.6465 45.0551ZM28.852 49.1234C28.9121 49.1157 28.9729 49.1316 29.0217 49.1678C29.0449 49.1888 29.0315 49.2783 29.0065 49.3202C28.9254 49.4774 28.8264 49.6247 28.7116 49.7591C28.5832 49.8912 28.4355 50.0364 28.2127 49.9702L28.852 49.1234ZM42.472 42.9998C42.5032 43.0008 42.5505 43.0778 42.5584 43.126C42.5974 43.2987 42.6165 43.4754 42.6151 43.6525C42.602 43.8366 42.5824 44.0433 42.3698 44.1372L42.3138 43.0759C42.3549 43.0311 42.4115 43.0038 42.472 42.9997V42.9998ZM27.3197 19.8511C28.8223 19.8511 30.291 20.2987 31.5403 21.1372C32.7896 21.9757 33.7633 23.1675 34.3383 24.5619C34.9133 25.9563 35.0638 27.4906 34.7706 28.9709C34.4775 30.4512 33.754 31.8109 32.6916 32.8782C31.6291 33.9454 30.2755 34.6722 28.8019 34.9666C27.3282 35.2611 25.8007 35.11 24.4126 34.5324C23.0245 33.9548 21.838 32.9767 21.0032 31.7218C20.1685 30.4669 19.7229 28.9915 19.7229 27.4822C19.7252 25.459 20.5263 23.5194 21.9505 22.0887C23.3747 20.6581 25.3056 19.8534 27.3197 19.8511ZM49.5006 30.5215L48.7778 29.7454C48.7805 29.6846 48.8064 29.6271 48.8501 29.5849C48.8746 29.5654 48.9602 29.5939 48.9971 29.6257C49.1376 29.7326 49.2654 29.8555 49.3778 29.9919C49.448 30.0581 49.4972 30.1438 49.519 30.238C49.5409 30.3323 49.5345 30.4309 49.5006 30.5215V30.5215Z" fill="white"/>
</g>
<defs>
<clipPath id="clip0_123_3">
<rect width="156" height="55" fill="white"/>
</clipPath>
</defs>
</svg>
