<svg width="20" height="16" viewBox="0 0 20 16" fill="none" xmlns="http://www.w3.org/2000/svg">
<path d="M17.7909 2.66098L19.2503 1.25877V0.95166H14.1961L10.5942 9.96009L6.49708 0.95166H1.19772V1.25877L2.90228 3.32042C3.06892 3.47278 3.15463 3.69657 3.1332 3.92035V12.0217C3.18558 12.3146 3.09273 12.6122 2.88799 12.824L0.966797 15.1642V15.4666H6.40899V15.1595L4.49018 12.8264C4.38737 12.722 4.31004 12.5953 4.2642 12.4562C4.21837 12.317 4.20527 12.1692 4.22593 12.0241V5.01545L9.00392 15.4713H9.55861L13.6676 5.01545V13.3454C13.6676 13.5644 13.6676 13.6097 13.5248 13.7549L12.0464 15.1904V15.4975H19.217V15.1904L17.7909 13.7882C17.6672 13.693 17.6029 13.5335 17.6291 13.3787V3.07045C17.6167 2.99395 17.6253 2.91554 17.6538 2.84348C17.6822 2.77141 17.7296 2.70837 17.7909 2.66098Z" fill="white"/>
</svg>
