<svg width="1220" height="1256" viewBox="0 0 1220 1256" fill="none" xmlns="http://www.w3.org/2000/svg">
<path d="M1800.29 781.167L1798.27 783.183C1696.25 694.56 1583.47 586.636 1555.15 462.724C1540.03 396.495 1559.47 341.836 1548.3 277.278C1544.06 252.629 1533.37 228.17 1514.83 205.568C1479.21 162.116 1429.08 154.115 1385.86 148.825C1240.73 131.129 1106.33 152.204 965.263 147.671C905.033 145.74 738.361 145.257 725.705 38.418C717.231 -33.1677 762.855 -94.4296 794.472 -141.821C814.802 -172.349 836.365 -201.646 854.405 -234.05C889.45 -297.174 914.057 -370.191 909.041 -454.736C901.734 -577.054 829.569 -696.352 734.722 -804.849L736.839 -806.966C831.977 -698.131 904.519 -578.445 912.054 -455.709C917.257 -370.705 892.491 -297.326 857.135 -234.076C838.859 -201.387 816.857 -171.939 796.019 -141.327C763.616 -93.7283 716.871 -32.4164 724.445 39.6776C735.701 146.914 903.59 146.946 963.47 148.682C1105.19 152.801 1239.99 131.212 1385.67 148.03C1428.69 152.992 1478.68 160.403 1514.44 203.629C1532.98 226.022 1543.63 250.196 1547.81 274.734C1558.75 338.972 1538.78 393.055 1553.95 459.104C1582.5 583.719 1697.63 692.465 1800.29 781.167Z" fill="white"/>
<path d="M1789.89 791.564L1788.32 793.137C1688.81 704.162 1587.68 599.596 1561.62 478.915C1547.11 411.839 1564.19 353.228 1548.82 286.536C1542.82 260.526 1530.14 233.415 1509.83 210.348C1476.75 172.8 1431.47 162.467 1391.83 155.81C1248.28 131.743 1114.83 151.649 976.386 145.524C913.599 142.75 751.173 140.043 735.032 32.8653C724.17 -39.2393 767.399 -100.945 796.943 -149.9C813.41 -177.195 829.96 -204.538 844.364 -233.458C874.507 -293.926 896.208 -362.115 892.596 -440.347C886.952 -562.646 816.028 -681.91 720.619 -790.814L723.328 -793.522C818.812 -684.472 889.919 -564.967 895.467 -442.538C899.03 -364.036 877.056 -295.659 846.376 -235.266C831.607 -206.202 814.57 -178.898 797.624 -151.55C767.196 -102.425 722.987 -40.3164 733.031 32.3671C747.937 140.202 911.587 142.773 974.376 145.477C1113.66 151.44 1247.7 131.145 1391.95 154.548C1431.45 160.937 1476.78 170.887 1509.95 208.326C1530.25 231.237 1542.87 258.121 1548.71 283.997C1563.69 350.447 1545.95 408.562 1560.3 475.442C1586.41 597.025 1689.73 702.423 1789.89 791.564Z" fill="white"/>
<path d="M1781.86 799.6L1780.67 800.783C1683.14 711.34 1592.47 609.751 1567.58 491.623C1553.96 427.15 1564.92 368.089 1548.73 303.37C1541.86 275.892 1528.7 246.91 1507.74 222.297C1474.38 183.129 1428.33 170.83 1387.14 163.074C1254.2 138.162 1129.49 154.09 1002.13 149.206C939.82 146.818 774.965 147.951 749.253 42.8997C732.057 -27.4257 772.639 -87.2834 797.058 -136.231C809.007 -160.179 820.392 -184.619 831.294 -209.306C858.734 -271.472 879.968 -339.229 876.973 -417.093C872.175 -541.562 801.254 -662.632 703.505 -773.699L706.698 -776.893C803.593 -666.704 874.423 -546.411 879.612 -422.757C882.869 -344.986 861.754 -277.229 833.873 -215.539C823.171 -191.834 811.803 -168.5 800.087 -145.514C774.184 -94.727 733.351 -37.202 745.273 34.1652C763.138 141.352 922.426 144.682 986.376 147.755C1122 154.262 1254.49 134.405 1396.12 163.276C1436.69 171.528 1479.71 184.817 1511.26 223.912C1531.34 248.723 1543.45 276.714 1549.63 303.831C1564.31 368.015 1553.03 426.209 1566.71 490.464C1592 608.711 1684.27 710.448 1781.86 799.6Z" fill="white"/>
<path d="M1775.79 805.668L1774.89 806.561C1685.63 722.89 1606.67 630.244 1577.72 521.786C1559.61 453.934 1565.87 390.85 1547.73 323.29C1539.95 294.382 1526.72 264.549 1505.73 238.061C1473.82 197.878 1431.01 182.631 1389.07 173.372C1259.68 144.801 1137.57 161.035 1014.72 156.772C952.777 154.582 792.937 156.734 765.102 53.6863C746.619 -14.6729 784.67 -67.4941 803.251 -118.269C812.042 -142.359 819.57 -167.428 827.884 -191.805C850.618 -258.393 868.284 -329.245 860.619 -409.815C848.972 -531.482 778.271 -647.365 683.847 -754.042L687.46 -757.655C780.967 -651.931 851.353 -536.99 863.063 -416.407C870.88 -336.04 853.278 -265.337 829.795 -199.427C821.076 -174.934 812.756 -150.007 803.341 -125.974C783.469 -75.2348 747.483 -23.5081 760.487 43.7849C780.829 149.226 935.54 151.728 999.184 154.613C1124.09 160.285 1245.53 144.982 1375.49 168.83C1417.13 176.481 1465.37 188.927 1500.24 227.779C1522.47 252.599 1537.26 283.38 1545.74 311.643C1565.5 377.42 1558.28 439.014 1572.9 504.148C1598.72 618.984 1680.86 717.02 1775.79 805.668Z" fill="white"/>
<path d="M1771.28 810.174L1770.63 810.831C1685.02 729.128 1614.37 640.455 1584.32 536.501C1564.55 468.154 1565.53 402.31 1542.65 333.825C1532.64 303.888 1517.23 272.382 1494.7 245.589C1461.39 205.977 1417.41 190.876 1375.14 181.894C1250.34 155.331 1133.46 171.465 1014.84 167.514C957.475 165.573 822.885 168.124 786.46 80.84C759.68 16.6139 796.195 -33.33 808.23 -82.148C814.415 -107.2 817.689 -134.016 823.626 -159.28C840.114 -229.429 855.092 -300.84 845.625 -381.852C831.094 -506.379 759.04 -623.851 662.22 -732.415L666.141 -736.336C762.639 -628.011 834.421 -510.693 848.273 -386.608C857.31 -305.659 841.733 -234.397 824.023 -164.844C817.576 -139.699 813.51 -113.061 806.79 -88.1185C793.582 -38.9947 756.784 11.7076 782.887 76.8654C818.279 165.268 954.978 163.277 1012.46 165.336C1132.3 169.583 1250.28 153.452 1376.17 179.985C1418.48 188.9 1462.83 203.802 1496.25 243.58C1518.65 270.265 1533.8 301.641 1543.47 331.42C1565.71 399.852 1563.7 465.325 1583.07 533.55C1612.84 638.506 1684.91 727.978 1771.28 810.174Z" fill="white"/>
<path d="M1767.93 813.521L1767.43 814.024C1685.03 734.102 1621.49 648.616 1589.84 548.538C1567.9 479.148 1563.02 410.277 1534.21 340.695C1523.05 313.717 1508.09 286.366 1488.41 261.919C1456.28 222.016 1416.42 204.544 1373.66 194.391C1253.76 165.912 1140.88 183.488 1028.31 181.716C973.095 180.838 843.736 186.385 805.912 102.693C778.607 42.2714 812.892 -1.17493 818.059 -50.2134C820.867 -76.5966 819.545 -104.885 822.995 -131.299C832.109 -201.112 842.033 -270.681 831.44 -347.78C813.673 -476.856 739.674 -597.397 639.145 -709.34L643.285 -713.479C743.36 -601.848 817.087 -481.579 833.99 -353.083C844.108 -276.139 833.579 -206.832 823.241 -137.63C819.326 -111.397 819.766 -83.3151 816.392 -57.0963C810.074 -7.82486 775.381 36.6083 802.117 97.8693C839.24 182.858 970.199 177.954 1025.91 179.013C1139.83 181.207 1253.85 163.696 1374.98 192.3C1417.82 202.416 1458.07 219.7 1490.28 259.848C1509.82 284.199 1524.52 311.463 1535.38 338.309C1563.53 407.859 1567.23 476.433 1588.68 545.736C1619.96 646.8 1684.72 733.014 1767.93 813.521Z" fill="white"/>
<path d="M1765.33 816.124L1764.92 816.532C1686.55 739.48 1629.23 657.447 1595.5 562.353C1572.16 496.427 1560.46 430.324 1531.36 364.469C1500.04 293.584 1453.46 231.72 1377.74 209.741C1265.05 177.045 1156.42 196.179 1052.99 197.783C998.988 198.629 877.985 210.71 830.449 136.61C820.624 121.296 817.016 104.252 815.484 89.1426C814.342 74.4715 814.776 60.2758 816.779 46.7815C819.357 28.6995 823.236 11.2449 828.392 -5.47378C828.045 -32.918 821.051 -62.6216 821.529 -90.3988C822.933 -164.23 830.061 -235.507 817.055 -313.932C795.053 -447.255 719.035 -570.418 615.164 -685.359L619.422 -689.617C722.833 -575.065 798.484 -452.234 819.71 -319.545C832.211 -241.329 824.519 -170.439 821.739 -97.2032C820.698 -69.6802 826.714 -40.1871 826.526 -12.9225C821.07 4.0327 816.894 21.738 814.023 40.0868C811.822 53.796 811.19 68.2217 812.135 83.1435C813.465 98.454 816.846 115.827 826.607 131.478C873.691 206.948 996.347 195.491 1050.86 194.877C1155.68 193.681 1265.5 174.677 1379.47 207.612C1455.37 229.538 1501.95 290.809 1532.67 362.08C1561.04 427.896 1571.62 493.785 1594.45 559.597C1627.78 655.701 1686.11 738.419 1765.33 816.124Z" fill="white"/>
<path d="M1763.09 818.371L1762.7 818.755C1688.54 744.915 1636.44 665.985 1600.56 576.192C1573.81 509.222 1555.8 441.255 1521.73 374.855C1485.34 303.954 1437.07 241.076 1360.35 220.412C1253.25 191.534 1151.78 211.841 1054.15 215.56C1003.44 217.478 891.808 230.731 847.348 159.469C821.682 118.334 836.955 81.8136 837.436 46.2322C837.813 17.6904 823.74 -17.1396 821.173 -47.2418C814.629 -124.752 818.512 -198.717 803.012 -278.642C776.323 -416.475 698.296 -542.676 590.823 -661.018L595.105 -665.3C702.078 -547.409 779.773 -421.624 805.605 -284.482C820.592 -204.74 815.864 -131.358 821.282 -54.371C823.382 -24.4643 836.383 10.2641 835.433 38.5636C834.223 74.5512 818.286 111.803 843.614 153.82C887.47 226.535 1000.76 213.977 1051.99 212.313C1151.07 209.182 1253.83 189.045 1362.21 218.074C1439.16 238.717 1487.38 300.944 1523.23 372.329C1556.58 438.703 1573.5 506.439 1599.6 573.313C1635.06 664.232 1688.06 743.811 1763.09 818.371Z" fill="white"/>
<path d="M1760.78 820.671L1760.34 821.115C1690.64 750.732 1642.71 674.517 1605 590.232C1574.42 521.871 1549.71 452.381 1510.75 385.322C1469.96 315.096 1419.94 250.899 1342.67 231.719C1248.81 208.427 1160.53 226.202 1076.05 232.788C1026.68 236.649 922.969 255.883 871.314 195.251C844.443 163.649 847.857 126.92 847.664 96.8393C847.499 66.2893 826.995 29.5455 820.883 -3.43805C805.924 -84.3123 806.837 -161.426 788.851 -243.115C757.561 -385.491 677.764 -514.868 566.642 -636.836L570.852 -641.047C681.501 -519.541 761 -390.579 791.462 -248.819C808.948 -167.464 807.474 -90.8764 821.074 -10.4621C826.65 22.4114 846.173 59.049 845.714 89.4243C845.254 119.8 840.985 157.317 867.721 189.801C918.886 251.943 1024.52 233.234 1074.19 229.665C1160.05 223.507 1249.51 205.909 1344.58 229.384C1422.14 248.546 1472.03 312.028 1512.41 382.815C1550.63 449.826 1574.21 519.135 1604.1 587.343C1641.55 672.768 1690.18 749.553 1760.78 820.671Z" fill="white"/>
<path d="M1758.02 823.439L1757.43 824.03C1632.5 695.688 1591.81 542.113 1501.01 399.972C1458.2 332.947 1406.98 264.638 1331.41 245.225C1244.34 222.857 1162.71 241.498 1085.87 250.333C1037.83 255.82 945.216 277.728 890.754 225.631C863.238 199.298 861.504 166.884 857.687 138.217C853.448 106.337 828.039 69.7037 819.01 35.8132C796.766 -47.5325 794.189 -128.041 773.742 -211.28C737.925 -356.999 656.869 -488.654 543.164 -613.359L547.215 -617.41C660.485 -493.187 741.358 -361.928 776.391 -216.734C796.433 -133.769 798.426 -53.8674 819.42 29.0797C827.947 62.7755 852.629 99.5572 856.06 131.125C859.203 160.006 860 193.222 887.424 220.445C941.424 274.007 1036 252.506 1084.21 247.295C1162.38 238.822 1245.17 220.334 1333.42 242.852C1409.28 262.184 1460.25 329.787 1502.75 397.369C1593.08 540.925 1631.6 694.006 1758.02 823.439Z" fill="white"/>
<path d="M1754.39 827.064L1753.63 827.821C1635.59 703.327 1583.37 547.259 1488.33 411.367C1442.36 345.645 1389.27 275.445 1313.51 257.205C1231.9 237.56 1156.74 257.43 1085.75 268.056C1039.3 275.02 955.938 297.262 901.653 248.796C871.124 221.532 874.949 194.131 862.482 163.628C857.436 151.284 842.622 135.027 835.873 122.246C825.147 101.951 817.417 81.057 811.115 60.4679C784.052 -27.85 777.814 -113.96 752.268 -202.299C711.385 -343.48 630.568 -470.613 520.934 -591.129L524.731 -594.925C634.072 -474.797 714.73 -348.083 755.109 -207.299C780.349 -119.232 786.138 -33.6414 812.092 54.2894C818.131 74.7336 825.531 95.4988 835.935 115.708C842.413 128.301 857.053 144.75 861.724 156.873C873.73 187.803 868.414 215.522 898.872 243.91C952.531 293.938 1037.76 271.876 1084.18 265.242C1156.56 254.888 1232.81 235.127 1315.55 254.823C1391.62 272.938 1444.38 342.361 1490.15 408.646C1584.75 545.667 1635.06 701.886 1754.39 827.064Z" fill="white"/>
<path d="M1749.5 831.961L1748.47 832.984C1694.22 775.318 1654.99 706.04 1615.92 640.879C1572.65 568.695 1529.37 496.264 1477.92 427.348C1431.01 364.491 1375.7 290.021 1301.68 270.622C1226.25 250.864 1157.08 270.91 1093.03 282.906C1045.81 291.782 972.807 314.202 915.007 274.332C883.626 252.697 880.941 227.659 863.877 199.288C855.182 184.832 841.811 171.414 832.898 156.48C820.481 135.785 811.066 114.281 803.335 92.8778C770.833 2.89384 762.311 -86.0322 735.408 -175.751C692.383 -319.039 611.532 -447.957 500.484 -570.679L503.926 -574.121C614.779 -451.748 695.656 -323.11 738.388 -180.176C765.124 -90.6469 773.28 -2.17018 804.916 87.54C812.415 108.818 821.567 130.211 833.695 150.855C842.33 165.593 855.666 179.13 863.962 193.423C880.611 222.124 881.461 247.434 912.957 270.212C970.187 311.57 1044.91 289.046 1091.95 280.528C1157.16 268.7 1227.35 248.641 1303.84 268.344C1378.17 287.5 1433.03 361.221 1479.79 424.525C1530.6 493.312 1572.91 565.617 1615.45 637.579C1654.51 703.709 1694.2 773.765 1749.5 831.961Z" fill="white"/>
<path d="M1742.93 838.525L1741.56 839.891C1693.73 784.652 1657.02 720.604 1618.52 660.804C1571.26 587.381 1522.66 514.191 1467.79 444.383C1419.73 383.225 1362.49 305.759 1289.68 283.813C1220.03 262.763 1155.88 282.594 1098.22 295.093C1049.43 305.704 984.98 326.624 924.342 294.845C893.596 278.729 880.425 255.576 860.383 228.839C832.509 191.646 808.848 161.526 792.05 119.937C755.28 28.867 745.31 -62.3342 717.78 -153.142C673.956 -297.773 594.047 -427.973 482.353 -552.547L485.351 -555.545C596.968 -431.285 677.141 -301.246 720.91 -156.765C748.4 -66.1042 758.151 24.7719 794.314 115.684C810.807 157.205 834.468 186.815 861.417 224.185C880.866 251.191 892.183 274.702 923.052 291.733C983.256 324.864 1049.02 303.586 1097.51 293.256C1156.15 280.759 1221.23 260.726 1291.77 281.546C1364.84 303.104 1421.66 379.943 1469.52 441.325C1523.87 511.055 1571.56 584.052 1618.12 657.239C1656.74 717.869 1693.9 782.952 1742.93 838.525Z" fill="white"/>
<path d="M1734.28 847.171L1732.51 848.945C1638.74 720.59 1559.86 587.13 1457.96 462.406C1408.95 402.423 1349.53 321.63 1277.48 296.369C1212.89 273.723 1153.63 291.572 1100.97 303.871C1050.32 315.697 991.484 333.837 928.915 309.021C861.273 282.173 804.003 203.341 776.6 140.231C736.796 48.5746 726.48 -44.1326 699.305 -135.484C656.191 -280.552 578.302 -411.429 467.083 -537.278L469.555 -539.75C580.971 -414.081 659.293 -283.245 702.665 -138.18C729.942 -46.8804 740.294 45.6032 779.66 137.223C806.002 198.504 862.735 279.673 928.5 307.057C990.796 332.995 1050.37 314.283 1100.7 302.61C1154.14 290.204 1214.2 271.901 1279.62 294.187C1351.76 318.767 1410.84 399.058 1459.69 459.18C1517.23 530.005 1569.74 603.854 1620.09 678.424C1657.89 734.431 1692.89 792.78 1734.28 847.171Z" fill="white"/>
<path d="M1723.4 858.058L1721.55 859.909C1644.84 729.244 1546.36 600.31 1447.03 480.945C1396.58 420.319 1337.94 339.729 1265.09 311.794C1202.97 287.964 1145.8 302.498 1094.53 313.193C1042.04 324.158 984.685 338.937 921.433 317.2C847.005 291.596 789.328 220.719 757.8 150.396C716.483 58.2805 705.338 -35.2799 678.539 -127.024C636.793 -269.907 563.067 -399.542 454.682 -524.877L456.829 -527.023C566.055 -401.238 640.748 -271.074 682.578 -127.408C709.229 -35.7886 719.912 57.64 760.995 149.581C792.279 219.519 850.47 290.613 924.4 315.932C987.699 337.622 1044.97 322.235 1097.19 310.796C1148.17 299.623 1205.2 284.472 1267.35 308.279C1339.85 336.068 1399.12 417.302 1449.29 477.682C1549.1 597.844 1645.55 727.07 1723.4 858.058Z" fill="white"/>
<path d="M1714.15 867.301L1712.83 868.626C1682.63 815.533 1642.68 764.051 1605.16 714.211C1550.44 641.543 1493.41 570.242 1434.06 500.309C1381.77 438.712 1325.85 361.58 1251.65 332.091C1189.65 307.482 1131.87 317.582 1078.53 324.74C1024.23 332.095 966.195 342.469 903.228 319.563C826.933 291.832 771.391 222.475 738.225 150.254C696.015 58.3685 682.255 -35.1446 654.761 -126.839C613.506 -264.383 544.841 -390.104 441.76 -511.955L444.126 -514.32C548.18 -391.744 617.711 -265.24 659.078 -126.685C686.466 -34.8846 699.746 58.7169 741.814 150.744C774.72 222.681 830.507 292.354 906.586 319.621C969.637 342.222 1027.49 330.963 1081.47 322.909C1134.41 315.01 1192.08 304.082 1254.1 328.43C1328.15 357.529 1384.45 435.272 1436.38 496.743C1495.64 566.87 1552.5 638.583 1606.96 711.883C1644.32 762.19 1683.79 813.983 1714.15 867.301Z" fill="white"/>
<path d="M1707.69 873.765L1706.8 874.652C1676.86 823.347 1634.17 774.06 1595.85 727.035C1539.14 657.399 1480.54 588.958 1421 521.318C1366.56 459.461 1312.03 385.522 1237.3 353.342C1175.72 326.835 1116.75 330.959 1061.35 333.459C1005.18 336.015 946.028 340.47 883.639 315.338C806.736 284.373 752.176 216.991 717.173 143.549C674.095 53.1604 657.798 -39.1757 629.665 -129.652C588.94 -260.622 525.091 -381.113 427.733 -497.927L430.264 -500.459C528.665 -382.648 593.332 -261.173 634.187 -128.939C662.234 -38.2058 678.075 54.4323 720.998 145.163C755.653 218.41 810.295 286.169 887.182 316.503C949.689 341.161 1008.63 335.594 1064.45 332.104C1119.48 328.667 1178.23 323.448 1239.89 349.545C1314.57 381.165 1369.27 455.65 1423.31 517.513C1482.76 585.548 1541.08 654.573 1597.42 724.805C1635.59 772.375 1677.77 822.101 1707.69 873.765Z" fill="white"/>
<path d="M1703.51 877.946L1702.98 878.479C1672.13 829.438 1626.86 783.259 1587.59 739.44C1528.44 673.537 1468.11 608.585 1407.88 543.507C1351.06 482.108 1296.69 410.863 1222.25 375.172C1161.2 345.997 1100.94 343.147 1043.3 339.811C985.129 336.436 924.723 333.984 862.976 305.745C786.601 270.767 731.956 205.477 695.087 131.588C651.241 43.7188 632.392 -46.4735 603.621 -134.749C563.387 -258.237 504.169 -372.43 412.824 -483.019L415.503 -485.698C507.925 -373.926 567.937 -258.572 608.284 -133.717C636.947 -44.994 655.349 45.6275 699.055 133.994C735.589 207.844 790.104 273.537 866.681 307.735C928.527 335.399 988.717 336.605 1046.53 338.828C1103.78 341.069 1163.81 342.559 1224.96 371.341C1299.49 406.372 1353.81 478.048 1410.24 539.613C1470.28 605.133 1530.3 670.725 1589.02 737.317C1628.08 781.699 1672.87 828.462 1703.51 877.946Z" fill="white"/>
<path d="M1701.11 880.341L1700.84 880.613C1667.57 834.131 1620.7 792.121 1579.99 751.599C1518.13 690.037 1455.81 628.976 1394.59 566.769C1335.28 506.486 1280.07 437.266 1206.54 397.644C1145.91 364.876 1084.35 354.553 1024.5 344.349C964.328 334.086 902.646 324.054 841.478 292.041C766.525 252.82 710.971 189.27 672.116 115.583C627.582 31.0362 606.175 -56.2743 576.778 -141.663C537.137 -256.906 482.342 -364.014 397.235 -467.43L400.015 -470.21C486.236 -365.478 541.788 -257.069 581.547 -140.347C610.84 -54.4123 631.781 33.4493 676.17 118.584C714.652 192.372 770.009 256.186 845.255 294.671C906.514 325.983 967.995 334.618 1027.84 343.6C1087.29 352.542 1148.63 361.493 1209.35 393.614C1283.05 432.541 1338.06 502.06 1396.93 562.593C1457.93 625.305 1519.89 687.068 1581.25 749.434C1621.75 790.628 1668.22 833.347 1701.11 880.341Z" fill="white"/>
<path d="M1700.01 881.441L1699.91 881.542C1663.97 837.949 1615.08 800.459 1572.88 763.45C1508.22 706.748 1443.7 649.815 1381.13 590.53C1319.24 531.891 1262.51 463.945 1190.37 420.271C1129.87 383.648 1067.04 365.363 1005.22 347.62C943.396 329.878 880.287 311.738 819.495 275.523C746.735 232.189 689.497 169.677 648.702 96.7579C603.581 16.0952 579.584 -67.809 549.49 -149.849C510.455 -256.231 459.911 -355.776 381.156 -451.35L384.012 -454.207C463.886 -357.219 515.162 -256.314 554.313 -148.35C584.272 -65.6986 607.845 18.8686 652.844 100.214C693.286 173.3 750.199 235.949 823.377 278.577C884.232 314.014 946.91 330.648 1008.66 347.087C1070.17 363.496 1132.78 380.328 1193.27 416.256C1265.67 459.268 1322.09 527.339 1383.55 586.326C1445.86 646.114 1509.98 703.785 1574.14 761.375C1616.03 799.003 1664.57 837.323 1700.01 881.441Z" fill="white"/>
<path d="M1699.7 881.761C1660.55 841.31 1610.01 808.629 1566 775.077C1498.53 723.556 1431.71 670.917 1367.45 614.51C1302.79 557.738 1244.49 490.697 1173.79 442.97C1113.19 402.067 1049.19 375.844 985.638 350.12C845.282 293.302 711.513 221.262 625.105 76.4493C579.45 -0.0756108 552.858 -80.2118 521.97 -158.67C483.662 -255.903 437.189 -347.605 364.798 -434.993L367.684 -437.879C441.152 -349.035 488.343 -255.977 526.791 -157.101C557.55 -78.0032 583.674 2.82306 629.267 80.0554C715.208 225.761 848.417 295.657 989.105 349.696C1052.39 374.019 1116.18 398.852 1176.74 438.972C1247.68 485.976 1305.73 553.182 1369.89 610.282C1433.83 667.188 1500.26 720.608 1567.22 773.036C1610.84 807.231 1661.13 840.745 1699.7 881.761Z" fill="white"/>
<path d="M1699.67 881.784C1657.08 844.657 1605.08 816.854 1559.07 786.556C1489.03 740.438 1419.73 692.062 1353.5 638.371C1285.79 583.473 1226.46 517.244 1156.9 465.537C1095.87 420.129 1030.81 386.099 965.973 352.431C827.977 280.776 691.115 196.31 601.635 55.9124C501.561 -101.088 473.734 -268.327 348.352 -418.547L351.238 -421.433C418.365 -340.917 461.691 -255.638 499.267 -166.02C530.939 -90.5039 559.701 -13.5566 605.731 59.4995C694.669 200.609 830.968 282.868 969.422 352.024C1034.04 384.293 1098.94 416.991 1159.88 461.593C1229.57 512.592 1288.82 578.987 1355.97 634.204C1421.83 688.36 1490.67 737.469 1560.29 784.557C1605.92 815.421 1657.7 844.056 1699.67 881.784Z" fill="white"/>
<path d="M1699.45 882.009L1699.35 882.11C1653.45 848.273 1600.01 825.062 1551.84 797.918C1479.44 757.111 1407.65 712.946 1339.24 661.738C1268.28 608.615 1208.66 543.407 1139.86 487.749C1078.08 437.8 1012.18 396.261 946.445 355.08C811.245 270.312 671.922 173.569 578.641 36.3953C481.296 -106.71 447.286 -265.336 332.036 -402.23L334.886 -405.081C451.854 -265.96 484.815 -105.793 582.636 39.6924C675.191 177.287 814.165 272.049 949.86 354.52C1015.49 394.433 1081.28 434.684 1142.89 483.856C1211.79 538.85 1271.4 604.222 1341.8 657.656C1409.81 709.289 1481.16 754.175 1553.16 795.902C1600.94 823.624 1654.11 847.611 1699.45 882.009Z" fill="white"/>
<path d="M1698.52 882.938L1698.24 883.215C1649.33 852.355 1594.43 833.413 1544.05 809.208C1469.59 773.407 1395.36 733.297 1324.65 684.256C1250.44 632.796 1191.14 568.693 1122.77 509.38C1060.09 454.979 993.544 406.721 927.202 358.498C794.465 262.037 654.412 154.722 556.439 19.1617C461.992 -111.526 422.118 -260.888 316.033 -386.228L318.812 -389.007C426.434 -261.787 465.309 -110.763 560.277 21.9703C657.397 157.719 797.419 263.299 930.544 357.807C996.816 404.859 1063.25 451.989 1125.77 505.629C1194.2 564.34 1253.58 628.623 1327.24 680.384C1397.55 729.778 1471.35 770.578 1545.47 807.215C1595.47 831.947 1650.11 851.594 1698.52 882.938Z" fill="white"/>
<path d="M1696.38 885.072L1695.85 885.611C1644.43 856.985 1587.81 841.955 1535.47 820.48C1459.22 789.18 1382.68 752.854 1309.67 705.605C1232.73 655.795 1173.78 592.578 1105.73 530.246C1041.99 471.869 975.186 417.719 908.518 363.328C777.626 256.54 638.421 140.813 535.311 5.4961C487.982 -56.6407 450.709 -122.867 414.785 -189.117C381.484 -250.544 348.908 -315.315 300.521 -370.716L303.2 -373.395C352.668 -316.949 385.725 -251.011 419.276 -188.27C454.902 -121.655 491.686 -55.007 538.947 7.57111C641.126 142.868 780.591 257.281 911.754 362.353C978.354 415.706 1045.16 468.922 1108.71 526.646C1176.83 588.508 1235.81 651.848 1312.34 701.954C1384.95 749.487 1461.08 786.458 1537.04 818.496C1589.07 840.438 1645.4 856.169 1696.38 885.072Z" fill="white"/>
<path d="M1692.56 888.899L1691.67 889.786C1638.82 861.775 1579.3 850.674 1525.8 831.781C1448.04 804.324 1369.41 771.327 1294.27 725.391C1215.51 677.243 1156.47 614.477 1088.83 550.084C1024.09 488.445 957.17 429.378 890.551 370.009C823.932 310.641 757.638 250.947 694.121 188.103C632.722 127.355 569.033 63.9021 515.614 -3.41414C467.664 -63.8421 427.787 -128.06 390.041 -192.725C358.192 -247.343 328.392 -305.813 285.778 -355.973L288.315 -358.51C331.947 -307.533 362.17 -247.99 394.352 -192.259C431.806 -127.353 471.177 -62.8842 519.006 -2.23383C572.107 65.0603 635.851 128.544 697.318 188.935C760.759 251.276 827.107 310.185 893.669 368.727C960.23 427.269 1027.23 485.597 1091.79 546.737C1159.49 610.833 1218.46 673.635 1296.98 722.069C1371.76 768.198 1450.04 801.74 1527.52 829.782C1581.26 849.234 1639.51 861.347 1692.56 888.899Z" fill="white"/>
<path d="M1686.53 894.925L1685.21 896.249C1631.39 867.968 1569.04 859.959 1514.82 843.168C1435.81 818.709 1355.37 788.442 1278.41 743.289C1199.15 696.772 1139.19 633.87 1072.31 568.812C1006.67 504.967 939.963 442.284 873.629 379.214C745.161 257.05 609.401 131.095 497.72 -6.15626C448.976 -66.0781 406.466 -129.345 366.721 -193.491C336.202 -242.827 308.695 -295.397 271.94 -342.135L274.305 -344.5C312.098 -297.304 339.98 -243.733 370.742 -193.585C410.098 -129.391 452.138 -66.0619 500.742 -6.18621C611.874 130.849 747.892 256.257 876.538 377.393C942.944 439.931 1009.7 502.066 1075.2 565.614C1142.23 630.656 1201.95 693.48 1281.26 740.305C1357.94 785.569 1438.07 816.248 1516.91 841.207C1571.02 858.29 1632.8 866.792 1686.53 894.925Z" fill="white"/>
<path d="M1677.81 903.648L1675.96 905.493C1622.49 875.41 1556.09 869.799 1502.25 854.702C1422.28 832.275 1340.42 804.055 1262.05 758.934C1183.69 713.814 1122.01 650.297 1056.12 586.113C989.774 521.451 923.585 456.622 857.813 391.359C730.264 264.791 595.402 137.038 481.835 -1.59156C395.499 -107.041 332.248 -218.323 259.219 -329.414L261.39 -331.584C336.998 -221.356 397.826 -108.807 484.508 -3.02322C597.866 135.338 732.84 262.98 860.538 388.939C926.429 453.931 992.74 518.503 1058.98 583.146C1125.04 647.625 1186.43 711.049 1265 756.345C1343.17 801.395 1424.8 829.929 1504.61 852.643C1558.61 868.033 1624.15 874.014 1677.81 903.648Z" fill="white"/>
<path d="M1666.21 915.25L1663.98 917.474C1608.67 887.537 1545.15 878.222 1489.39 861.155C1410.35 837.033 1330.32 808.094 1252.62 765.696C1173.74 722.702 1109.51 665.568 1041.85 602.77C974.792 540.525 908.775 477.109 843.803 412.524C715.39 284.951 584.415 152.971 474.015 10.8013C425.16 -52.1044 380.277 -117.095 337.191 -182.795C307.987 -227.174 281.063 -274.938 246.676 -316.871L249.042 -319.236C281.844 -276.144 308.485 -229.1 337.704 -184.446C380.586 -118.832 425.703 -54.0576 474.868 8.52027C585.939 149.917 717.822 280.972 845.89 408.449C910.958 473.233 976.936 537.055 1043.83 599.915C1110.98 662.999 1174.8 721.692 1253.41 765.083C1331.39 808.126 1412.03 836.797 1491.4 860.379C1546.82 876.841 1611.22 885.148 1666.21 915.25Z" fill="white"/>
<path d="M1653.02 928.438L1650.58 930.881C1595.16 901.49 1535.75 885.924 1479.59 865.598C1403.45 838.048 1327.27 807.415 1252.29 768.53C1098.63 688.843 963.7 559.459 835.495 434.447C704.043 306.259 578.052 169.447 470.245 23.0699C422.82 -41.3161 378.825 -107.263 333.89 -172.813C305.048 -214.903 273.354 -268.962 231.596 -301.791L234.429 -304.623C275.095 -269.989 305.624 -217.094 334.484 -174.597C379.047 -108.981 423.14 -43.1836 470.781 21.0039C578.885 166.66 705.737 302.678 836.538 430.736C963.939 555.463 1098.79 688.174 1251.85 768.138C1327.4 807.607 1404.37 837.968 1481.09 864.828C1537.32 884.525 1597.46 899.007 1653.02 928.438Z" fill="white"/>
<path d="M1638.66 942.791L1636.03 945.423C1512.51 877.633 1383.09 832.813 1258.34 769.978C1222.03 751.692 1185.88 732.603 1149.89 712.711C1110.51 690.903 1072.79 659.54 1036.34 630.794C966.06 575.349 898.017 516.416 832.638 454.37C696.734 325.551 575.205 184.482 468.223 34.1523C421.791 -31.1087 377.931 -97.6659 330.467 -162.422C300.759 -202.964 261.033 -262.608 214.251 -284.445L217.444 -287.639C263.401 -264.024 301.759 -204.815 331.077 -164.272C378.059 -99.3238 421.887 -32.87 468.477 32.266C575.371 181.692 697.915 322.536 832.8 450.996C898.038 513.244 965.813 572.569 1035.74 628.636C1071.96 657.668 1109.31 689.349 1148.62 711.743C1184.44 732.146 1220.53 751.498 1256.88 769.801C1328.68 806.121 1401.11 838.333 1473.72 869.12C1528.49 892.39 1584.7 913.465 1638.66 942.791Z" fill="white"/>
<path d="M1623.33 958.125L1620.55 960.905C1505.98 893.723 1390.48 830.623 1273.72 772.311C1195.97 733.488 1123.09 698.808 1049.16 646.408C977.408 595.484 908.148 539.745 842.129 479.793C701.426 352.101 583.158 208.841 476.093 56.062C430.134 -9.51866 385.787 -76.3028 336.221 -140.027C300.809 -185.456 250.272 -251.523 195.072 -265.267L198.561 -268.756C252.922 -253.426 302.215 -186.794 336.652 -141.902C385.752 -77.8993 429.967 -11.1876 476.014 54.3391C582.912 206.453 701.766 349.093 841.425 476.723C907.23 536.894 976.171 593.058 1047.56 644.657C1085.47 672.023 1123.67 699.563 1164.15 719.391C1199.93 736.926 1235.7 754.605 1271.46 772.429C1389.29 831.204 1507.4 891.022 1623.33 958.125Z" fill="white"/>
<path d="M1607.27 974.181L1604.36 977.091C1557.67 947.297 1513.45 911.879 1467.85 879.701C1411.17 839.588 1352.52 803.983 1292.72 773.383C1216.5 734.521 1141.61 706.664 1067 659.776C987.73 609.905 911.393 552.756 839.432 489.408C694.614 362.024 581.62 216.091 474.077 61.2731C428.939 -3.7001 384.044 -69.9198 331.914 -131.063C290.321 -179.847 233.516 -239.408 174.51 -244.705L178.206 -248.401C236.5 -241.746 292.12 -181.017 332.421 -132.98C384.017 -71.4731 428.689 -5.28622 473.842 59.6895C581.029 213.962 694.602 359.197 838.318 486.544C909.94 550.062 985.832 607.64 1064.65 658.261C1139.03 705.965 1213.6 734.893 1289.91 773.625C1401.05 830.044 1500.28 907.014 1607.27 974.181Z" fill="white"/>
<path d="M1590.7 990.752L1587.75 993.709C1543.95 963.074 1507.27 922.272 1468.06 885.486C1417.11 837.687 1362.15 797.777 1302.72 767.274C1227.72 728.798 1152.61 706.935 1077.8 664.985C997.591 619.98 920.118 566.151 847.359 504.87C774.275 443.12 706.343 374.708 645.155 301.235C581.098 224.534 527.28 142.744 470.858 62.0278C400.501 -38.7145 279.086 -226.896 153.013 -223.208L156.846 -227.04C281.183 -228.382 401.561 -38.0919 470.406 60.5588C582.099 220.626 692.983 372.493 845.83 502.217C918.2 563.656 995.207 617.91 1074.99 663.665C1149.55 706.387 1224.38 729.37 1299.41 767.692C1359.51 798.377 1415.75 837.904 1468.46 884.818C1508.7 920.673 1546.66 960.429 1590.7 990.752Z" fill="white"/>
<path d="M1573.84 1007.62L1570.88 1010.57C1528.28 977.854 1499.9 932.737 1468.03 891.248C1429.03 840.487 1384.22 798.421 1329.4 767.994C1291.68 747.07 1252.73 732.6 1214.27 721.015C1172.9 708.553 1131.39 689.808 1090.5 669.453C1009.48 629.192 930.806 578.587 857.036 519.278C782.873 459.568 714.409 391.352 653.272 318.139C588.876 241.029 536.321 158.384 479.333 77.4342C394.598 -42.9257 272.527 -210.734 131.014 -201.209L134.899 -205.094C274.882 -212.495 395.804 -41.9213 478.677 76.068C535.407 156.832 588.147 239.14 652.389 315.979C713.39 388.938 781.548 456.966 855.291 516.859C928.632 576.302 1006.82 627.318 1087.43 668.324C1127.98 688.967 1169.27 708.257 1210.43 721.031C1249.04 733.02 1288.05 747.793 1325.99 768.651C1381.17 798.99 1427.51 840.502 1468.45 890.66C1501.5 931.23 1531.25 975.415 1573.84 1007.62Z" fill="white"/>
<path d="M1556.91 1024.55L1553.95 1027.51C1507.84 988.799 1487.93 935.039 1461.83 886.65C1433.43 833.975 1396.14 790.203 1342.62 760.335C1305.03 739.4 1266.69 728.305 1228.7 718.568C1187.26 707.933 1145.11 691.67 1103.7 673.459C1022.28 637.689 942.284 590.427 867.667 532.972C786.197 470.249 712.107 396.17 647.25 316.104C585.152 239.398 535.332 156.993 478.268 77.7522C383.139 -54.3965 255.25 -199.661 108.944 -179.139L112.811 -183.006C257.913 -201.729 384.402 -53.3471 477.489 76.4059C534.278 155.514 584.271 237.594 646.264 314.065C710.952 393.857 784.746 467.757 865.769 530.637C940.126 588.159 1019.41 636.04 1100.61 672.466C1141.71 690.962 1183.64 707.738 1224.9 718.696C1263.03 728.84 1301.36 740.263 1339.08 761.088C1392.73 790.727 1431.61 833.823 1461.97 886.227C1489.52 933.854 1511.08 986.632 1556.91 1024.55Z" fill="white"/>
<path d="M1540.13 1041.33L1537.21 1044.24C1445.89 961.325 1483.92 834.075 1370.81 760.935C1337.78 739.576 1301.45 728.464 1267.54 720.917C1224.96 711.452 1183.41 701.357 1140.3 686.009C1053.53 655.128 967.041 610.323 886.365 552.025C804.914 493.177 730.824 421.664 666.357 343.69C598.833 261.974 547.472 173.273 485.739 88.6892C438.7 24.2399 385.613 -40.8409 321.856 -90.7826C241.89 -153.445 162.387 -172.308 87.2639 -157.459L91.031 -161.226C165.486 -175.288 243.737 -154.969 322.002 -92.6116C385.305 -42.1654 437.952 22.9827 484.821 87.3807C546.268 171.809 597.824 260.161 665.258 341.61C729.637 419.366 803.431 490.7 884.518 549.776C964.777 608.236 1050.82 653.597 1137.34 685.288C1212.11 712.676 1294.79 715.342 1367.6 761.797C1480.39 833.841 1448.94 959.564 1540.13 1041.33Z" fill="white"/>
<path d="M1523.72 1057.73L1520.9 1060.56C1427.26 969.973 1502.18 831.436 1385.14 753.56C1353.3 732.365 1317.22 723.488 1284.91 717.805C1236.56 709.32 1189.26 700.502 1139.96 684.81C1054.16 657.522 968.097 615.59 887.865 558.871C806.778 501.546 733.455 430.387 670.299 352.802C604.073 271.436 555.138 182.962 493.67 99.3877C443.775 31.5736 385.556 -36.3315 315.755 -84.749C228.11 -145.545 143.406 -155.298 66.4 -136.595L69.9897 -140.184C146.289 -158.198 229.788 -147.155 315.87 -86.479C385.202 -37.6086 442.947 30.3789 492.645 98.0671C553.891 181.489 603.093 269.629 669.25 350.723C732.395 428.133 805.465 499.085 886.278 556.634C966.182 613.545 1051.88 656.005 1137.48 684.052C1186.53 700.13 1233.65 709.509 1281.77 718.343C1314.3 724.297 1350.26 733.536 1382.25 754.591C1499.29 831.581 1430.48 968.388 1523.72 1057.73Z" fill="white"/>
<path d="M1507.92 1073.54L1505.21 1076.24C1451.12 1021.55 1458.31 947.589 1456.31 892.5C1454.6 845.527 1452.53 783.021 1396.92 745.706C1365.78 724.812 1329.58 718.165 1298.5 714.16C1250.32 707.952 1203.3 702.274 1153.83 689.293C1069.58 667.221 983.994 630.34 903.639 576.94C816.922 519.295 739.384 444.465 673.802 362.183C609.107 281.071 562.781 192.792 501.898 109.993C452.569 42.9222 394.048 -22.7773 324.584 -69.3907C225.817 -135.62 130.715 -140.347 46.8018 -116.996L50.1371 -120.332C133.389 -143.055 227.155 -137.026 324.456 -70.9968C393.533 -24.0973 451.653 41.7815 500.827 108.65C561.544 191.259 608.196 279.178 672.893 360.067C738.542 442.145 815.979 516.873 902.451 574.746C982.533 628.334 1067.88 665.814 1152.06 688.654C1201.28 702.002 1248.2 708.263 1296.19 714.8C1327.41 719.053 1363.45 726.054 1394.66 746.828C1514.35 826.505 1411.76 976.937 1507.92 1073.54Z" fill="white"/>
<path d="M1492.93 1088.53L1490.39 1091.07C1433.84 1032.7 1447.24 954.154 1450.93 899.033C1453.93 854.286 1466.16 779.858 1407.21 738.981C1377.56 718.408 1341.86 713.484 1312.58 710.673C1264.74 706.054 1218.61 704.357 1169.45 694.564C1082.52 677.277 992.853 643.527 908.499 589.452C823.916 535.231 748.559 462.996 685.201 383.352C617.251 297.932 571.647 204.545 507.823 117.598C456.118 47.1577 392.769 -20.6144 318.125 -65.3113C213.408 -128.005 114.497 -125.199 28.9065 -99.1013L31.9344 -102.129C117.364 -127.879 215.902 -129.343 319.791 -65.7029C389.962 -22.7361 449.985 40.6105 499.749 106.72C564.06 192.262 609.521 284.975 675.663 369.875C739.11 451.3 814.731 525.667 900.079 582.132C984.405 637.918 1074.5 673.69 1162.22 692.681C1211.4 703.322 1257.91 706.574 1305.62 710.862C1335.91 713.588 1372.41 718.301 1403.39 738.637C1463.94 778.378 1454.5 851.528 1452.14 897.445C1449.32 952.637 1436.73 1030.63 1492.93 1088.53Z" fill="white"/>
<path d="M1478.99 1102.46L1476.63 1104.83C1416.08 1042.59 1434.79 958.295 1442.74 902.16C1448.6 860.792 1472.52 779.01 1416.55 734.866C1383.96 709.2 1340.31 707.125 1308.66 705.918C1261.32 704.137 1215.43 704.407 1166.41 696.886C1081.69 683.872 993.276 654.323 909.752 602.426C819.863 546.576 741.593 468.449 677.569 382.91C613.772 297.67 572.232 204.928 509.412 119.613C457.331 48.8678 392.045 -17.4594 316.206 -59.3297C205.277 -120.571 101.63 -112.163 13.1582 -83.3529L15.7544 -85.9491C103.538 -114.241 206.122 -121.807 315.81 -60.7189C391.344 -18.6452 456.275 47.6462 508.316 118.091C571.145 203.143 613.23 295.578 677.163 380.494C741.513 465.98 819.959 543.964 909.822 600.095C993.292 652.233 1081.7 682.55 1166.64 696.354C1215.53 704.292 1261.39 704.589 1308.63 706.695C1340.36 708.116 1383.57 710.664 1416.09 736.192C1472 780.104 1449.68 860.387 1444.33 902.181C1437.17 958.088 1419.27 1040.96 1478.99 1102.46Z" fill="white"/>
<path d="M1466.28 1115.17L1464.21 1117.25C1395.08 1048.22 1422.49 952.63 1433.89 892.427C1441.24 853.649 1470.67 768.106 1412.93 725.687C1379.02 700.795 1333.82 701.517 1302.19 701.682C1255.55 701.922 1210.67 705.201 1162.35 700.445C1076.35 691.953 985.079 665.24 899.04 611.489C811.638 556.874 737.047 478.995 676.937 394.863C615.838 309.34 578.199 216.963 517.781 131.624C467.704 60.9321 403.458 -4.76928 328.696 -46.816C208.321 -114.606 94.9678 -102.492 0 -70.1947L2.10531 -72.3C96.4074 -104.186 208.76 -115.538 328.013 -48.0543C402.478 -5.91442 466.497 59.6066 516.691 129.978C577.304 214.968 615.55 307.077 676.875 392.222C737.477 476.373 812.435 554.123 899.938 608.993C986.11 663.018 1077.53 690.512 1163.94 699.852C1212.23 705.069 1257.14 702.368 1303.72 702.431C1335.29 702.472 1380.02 702.224 1413.69 727.045C1471.12 769.393 1443.02 853.689 1435.88 892.715C1424.98 952.504 1398.31 1046.84 1466.28 1115.17Z" fill="white"/>
</svg>
