<svg width="1440" height="845" viewBox="0 0 1440 845" fill="none" xmlns="http://www.w3.org/2000/svg">
<g opacity="0.07" clip-path="url(#clip0_124_64)">
<mask id="mask0_124_64" style="mask-type:alpha" maskUnits="userSpaceOnUse" x="0" y="1" width="1440" height="844">
<rect y="1.0011" width="1440" height="843.999" fill="#C4C4C4"/>
</mask>
<g mask="url(#mask0_124_64)">
<path d="M1519 300.865V303.177C1409.79 310.862 1283.36 313.642 1196.15 258.829C1149.55 229.523 1129.38 187.032 1086 156.418C1069.44 144.718 1049.31 136.824 1025.74 134.491C980.446 130.001 947.145 154.159 919.355 175.91C826.083 248.981 761.165 338.133 677.756 416.426C642.147 449.856 546.392 545.152 477.94 491.146C432.077 454.956 423.119 393.665 414.083 348.36C408.241 319.197 403.81 290.034 395.583 261.108C379.497 204.815 351.765 148.835 300.46 103.232C226.204 37.2817 116.525 10.2547 0.0387556 2.42808L0.0387555 0C116.885 7.85377 227.003 34.8876 301.628 100.946C353.304 146.706 381.152 202.984 397.131 259.527C405.388 288.752 409.653 318.254 415.252 347.757C423.957 393.632 432.301 455.594 477.94 492.59C545.817 547.628 642.011 451.375 677.308 418.034C760.853 339.13 825.703 249.456 918.79 175.564C946.279 153.739 979.161 129.323 1024.41 133.602C1047.86 135.813 1067.81 143.565 1084.25 155.244C1127.32 185.805 1146.86 228.268 1193.39 257.445C1281.13 312.53 1409.38 308.868 1519 300.865Z" fill="white"/>
<path d="M1519 312.788V314.592C1411.02 320.635 1293.19 318.661 1209.13 264.404C1162.4 234.264 1138.61 190.858 1091.6 161.43C1073.26 149.954 1050.47 141.68 1025.62 140.1C985.159 137.536 953.299 157.577 926.775 176.493C830.757 245.007 765.712 332.944 682.898 408.817C645.341 443.23 550.745 534.816 480.101 482.614C432.574 447.496 421.99 387.324 410.87 342.311C404.667 317.217 398.484 292.048 390.169 267.205C372.798 215.246 346.166 163.702 299.282 120.913C225.99 54.0202 117.041 26.3014 1.35616e-07 18.5629L0 15.4567C117.167 23.2358 226.36 50.9885 299.671 118.01C346.683 160.982 373.265 212.791 390.286 265.014C398.475 290.149 404.356 315.575 410.315 340.975C421.026 386.592 431.279 447.557 478.67 483.475C548.982 536.763 644.202 444.396 681.719 409.943C764.924 333.494 830.085 244.993 926.123 175.699C952.413 156.709 984.078 136.424 1024.53 138.872C1049.28 140.371 1071.91 148.55 1090.08 160.039C1136.73 189.549 1159.85 233.05 1206.39 263.169C1290.99 317.915 1410.56 319.109 1519 312.788Z" fill="white"/>
<path d="M1519 322.005V323.361C1411.89 328 1301.75 321.74 1219.83 268.276C1175.09 239.113 1147.54 198.962 1101.19 171.135C1081.51 159.32 1057.37 150.246 1031.26 148.15C989.716 144.82 956.288 164.176 928.255 183.343C837.826 245.291 775.508 325.938 699.753 396.168C662.693 430.527 568.904 525.708 493.996 480.213C443.86 449.747 432.818 392.153 418.767 350.083C411.892 329.499 404.414 308.956 396.517 288.548C376.624 237.166 349.974 186.137 303.654 143.206C229.603 74.5838 119.621 45.8273 9.23866e-07 38.1906L7.63966e-07 34.5282C118.628 42.1514 228.113 70.5145 301.921 138.445C348.338 181.173 375.057 232.134 394.424 283.496C401.873 303.225 408.728 323.124 415.184 343.023C429.439 386.999 439.001 443.399 486.713 477.487C558.349 528.706 651.505 439.276 689.899 404.368C771.321 330.327 835.839 242.972 933.513 178.311C961.478 159.782 993.738 142.731 1034.21 147.058C1059.92 149.771 1082.89 158.88 1101.97 170.884C1147.15 199.268 1174.02 239.106 1218.67 268.107C1300.89 321.415 1412.03 326.84 1519 322.005Z" fill="white"/>
<path d="M1519 328.963V329.987C1419.93 333.195 1321.63 325.348 1242.91 279.759C1193.67 251.233 1161.12 211.469 1112.02 183.133C1091.01 171.013 1066.34 161.497 1039.14 158.344C997.847 153.596 964.584 169.405 935.256 188.145C844.768 245.956 784.116 325.287 711.301 393.286C674.563 427.549 584.231 520.438 509.254 477.31C459.507 448.71 451.046 396.602 432.603 356.831C423.84 337.977 413.791 319.285 404.59 300.539C379.468 249.32 349 198.562 298.454 156.757C222.086 93.6688 115.201 67.7609 1.8652e-06 60.7345L1.68428e-06 56.5906C114.129 63.5966 220.294 89.1451 296.078 151.575C346.595 193.177 377.014 243.813 401.318 295.073C410.354 314.117 419.867 333.182 428.241 352.362C445.924 392.852 454.941 443.148 500.939 474.279C572.994 523.076 663.053 435.796 701.165 400.956C775.966 332.585 836.765 254.176 924.876 193.326C953.114 173.834 987.876 153.311 1030.11 155.597C1057.06 157.082 1083.16 166.252 1104.22 177.592C1153.21 203.981 1184.36 243.44 1230.05 272.407C1310.62 323.449 1413.84 332.565 1519 328.963Z" fill="white"/>
<path d="M1519 334.131V334.884C1423.16 337.122 1331.89 326.786 1255.12 284.411C1204.64 256.557 1167.49 218.237 1115.15 192.085C1092.27 180.657 1065.39 171.427 1037.14 168.985C995.364 165.37 961.517 181.932 932.16 201.017C845.45 257.35 787.738 333.623 717.523 399.376C683.55 431.157 607.912 509.797 537.044 480.633C484.911 459.161 477.219 409.583 456.148 374.689C445.34 356.777 431.854 339.523 420.783 321.632C390.042 271.952 357.715 222.415 305.884 181.39C226.224 118.315 117.654 92.2717 2.93208e-06 85.537L2.73576e-06 81.0404C117.333 87.8225 225.659 113.934 304.676 177.144C356.225 218.38 388.124 268.175 417.822 318.214C428.533 336.329 441.464 353.935 451.903 372.091C472.477 407.833 480.442 458.008 532.721 480.403C603.637 510.801 680.804 431.273 714.913 399.491C785.995 333.209 844.34 256.306 931.653 199.335C961.001 180.182 994.945 163.295 1036.87 166.944C1064.99 169.399 1091.64 178.704 1114.24 190.234C1166.18 216.725 1202.54 255.417 1252.72 283.434C1329.89 326.549 1422.44 336.525 1519 334.131Z" fill="white"/>
<path d="M1519 337.97V338.547C1426.01 339.971 1340.64 327.383 1265.18 288.148C1212.86 260.938 1170.61 224.246 1114.25 200.861C1092.4 191.794 1068.17 184.686 1042.89 181.953C1001.62 177.497 968.781 190.335 938.469 209.034C853.474 261.453 798.877 336.261 733.375 399.797C701.242 430.954 630.317 508.312 560.706 482.01C510.452 463.02 505.204 418.448 480.072 387.365C466.567 370.626 449.605 355.163 436.45 338.038C401.678 292.78 367.51 247.197 317.276 209.061C233.157 145.234 121.715 118.546 4.08924e-06 112.001L3.88197e-06 107.254C121.277 113.88 232.407 140.568 315.699 204.558C365.573 242.877 399.244 288.657 432.964 334.267C445.749 351.555 462.088 367.405 475.174 384.374C499.78 416.25 505.36 461.623 555.769 481.42C625.721 508.868 697.932 430.961 730.454 399.62C796.969 335.556 852.256 260.131 938.031 207.074C968.362 188.314 1001.32 175.143 1042.77 179.694C1067.92 182.454 1091.96 189.657 1113.55 198.827C1169.52 222.564 1210.93 259.765 1262.91 287.205C1338.73 327.22 1425.21 339.523 1519 337.97Z" fill="white"/>
<path d="M1519 340.954V341.422C1429.96 342.182 1350.14 328.007 1276.34 292.821C1225.2 268.405 1180.63 237.207 1126.24 216.128C1067.69 193.442 1005.57 184.679 949.599 215.497C866.317 261.365 815.051 334.626 756.715 394.859C726.267 426.308 663.871 502.621 594.192 487.389C579.791 484.242 567.96 476.537 558.427 468.751C549.368 460.993 541.485 452.605 534.902 443.718C526.021 431.871 518.244 419.638 511.621 407.094C495.7 391.556 474.678 378.534 459.04 362.332C417.55 319.19 380.802 274.231 328.425 236.719C239.447 172.885 125.347 145.851 5.31047e-06 139.503L5.09727e-06 134.62C124.86 141.008 238.561 168.063 326.731 231.978C378.698 269.66 414.901 314.721 455.262 358.31C470.432 374.689 490.773 388.152 506.285 403.893C512.872 416.744 520.622 429.291 529.488 441.46C536.081 450.582 543.982 459.217 553.072 467.232C562.604 475.248 574.494 483.272 589.051 486.649C659.256 502.927 722.956 426.023 753.833 394.411C813.191 333.623 865.217 259.751 949.375 213.279C1005.41 182.332 1067.19 190.756 1125.62 214.012C1179.57 235.484 1223.38 267.198 1274.16 291.844C1348.31 327.837 1429.11 341.822 1519 340.954Z" fill="white"/>
<path d="M1519 343.531V343.972C1434.22 344.155 1359.15 328.773 1287.17 297.853C1233.48 274.794 1184.23 246.146 1126.67 227.61C1065.21 207.82 1001.54 199.444 945.753 231.585C867.855 276.442 821.36 346.271 767.562 404.388C739.617 434.562 683.258 506.175 616.967 490.807C578.7 481.936 566.529 452.236 546.421 431.558C530.287 414.975 502.273 403.072 483.558 387.283C435.408 346.59 395.261 301.95 340.597 265.007C246.351 201.275 129.358 173.651 6.56574e-06 167.418L6.35135e-06 162.508C128.813 168.768 245.377 196.344 338.737 260.172C393.002 297.304 432.331 342.094 479.537 383.133C497.872 399.078 525.214 411.536 540.881 428.309C560.803 449.639 573.014 480.138 611.592 489.708C678.37 506.257 736.072 434.094 764.466 403.764C819.432 345.152 866.765 274.679 945.48 229.177C1001.38 196.894 1064.65 204.924 1126.09 225.298C1183.21 244.233 1231.7 273.376 1284.97 296.755C1357.36 328.556 1433.31 343.796 1519 343.531Z" fill="white"/>
<path d="M1519 346.17V346.678C1438.76 346.285 1367.64 330.069 1297.75 303.361C1241.07 281.698 1187.11 256.021 1126.38 239.906C1062.78 223.025 997.35 214.9 942.101 248.208C874.993 288.67 834.603 349.486 789.977 401.709C763.911 432.229 715.517 502.73 651.193 497.582C617.697 494.869 598.613 471.85 581.271 454.712C563.676 437.288 530.881 427.977 508.485 412.567C453.587 374.77 409.935 330.028 352.836 293.499C253.352 229.801 133.526 201.37 7.82675e-06 195.151L7.61592e-06 190.322C132.99 196.548 252.407 224.911 351.064 288.731C407.686 325.355 450.715 370.118 504.571 408.43C526.596 424.084 558.768 433.897 575.906 451.579C593.043 469.26 612.089 493.221 646.013 496.517C710.921 502.811 760.717 431.51 787.124 400.983C832.782 348.218 873.951 286.826 941.858 245.773C997.262 212.289 1062.21 220.082 1125.89 237.519C1186.17 254.027 1239.39 280.247 1295.58 302.221C1365.97 329.73 1437.81 345.878 1519 346.17Z" fill="white"/>
<path d="M1519 349.344V350.022C1373.92 348.062 1262.63 283.333 1129.19 253.891C1066.27 240.008 997.798 230.208 943.387 262.41C880.699 299.508 844.613 357.008 805.654 406.138C781.282 436.827 740.775 502.499 679.733 503.856C648.886 504.534 629.324 486.941 610.716 472.691C590.024 456.842 554.484 450.405 529.897 436.149C469.41 401.112 421.815 356.424 362.418 320.418C258.425 257.398 136.574 228.383 9.06396e-06 222.076L8.86113e-06 217.43C136.048 223.711 257.568 252.603 360.811 315.772C419.818 351.853 466.732 396.528 526.275 432.053C550.462 446.485 585.672 453.423 605.721 469.558C624.066 484.316 643.55 502.906 674.855 502.791C736.472 502.54 778.332 435.979 802.967 405.344C842.889 355.665 879.725 297.589 943.182 259.893C997.71 227.481 1065.64 237.017 1128.69 251.402C1262.68 281.922 1372.44 347.614 1519 349.344Z" fill="white"/>
<path d="M1519 353.501V354.369C1380.06 350.673 1260.74 291.125 1128.45 267.7C1064.47 256.374 993.845 246.56 939.998 279.542C881.994 315.073 850.319 369.568 815.742 416.365C793.122 446.994 758.108 507.552 699.246 510.889C666.14 512.761 652.634 494.856 628.019 484.513C618.058 480.328 600.258 479.501 589.07 476.042C571.3 470.555 554.902 463.007 539.498 454.814C473.402 419.689 420.5 373.889 355.261 337.882C250.966 280.369 131.841 253.81 1.02502e-05 247.57L1.00601e-05 243.216C131.452 249.401 250.245 275.811 354.024 333.385C418.932 369.412 471.28 415.172 536.519 450.71C551.689 458.971 567.824 466.635 585.36 472.257C596.285 475.764 614.095 476.802 623.715 481.074C648.311 491.926 661.145 510.868 694.855 509.682C754.252 507.599 790.435 446.078 813.23 415.653C848.761 368.212 881.117 313.161 939.803 277.005C993.757 243.772 1063.75 253.328 1127.94 265.095C1260.62 289.416 1378.93 350.151 1519 353.501Z" fill="white"/>
<path d="M1519 359.117V360.29C1454.89 358.33 1392.73 341.103 1333.02 326.142C1266.89 309.559 1200.59 292.848 1131.65 282.831C1068.76 273.688 994.419 262.701 940.904 294.022C886.375 325.945 858.235 377.103 828.42 420.706C806.453 452.874 777.475 507.593 721.525 517.874C691.155 523.463 675.273 510.645 649.246 504.161C635.984 500.858 620.638 500.831 606.977 497.379C588.009 492.631 570.297 485.7 553.607 477.86C483.441 444.898 427.618 398.793 360.811 362.773C254.082 305.28 133.915 277.717 1.13583e-05 271.023L1.1186e-05 267.076C133.604 273.682 253.624 301.068 359.984 358.527C426.586 394.534 481.942 440.591 551.455 473.892C567.94 481.793 585.438 488.813 604.211 493.696C617.6 497.196 632.995 497.311 645.935 500.749C671.914 507.66 686.9 521.686 717.99 516.688C774.466 507.586 804.369 451.823 826.433 419.967C857.018 375.788 885.733 324.039 940.835 291.478C994.39 259.839 1068.05 270.65 1131.1 280.138C1199.61 290.447 1265.27 307.647 1330.86 324.521C1391.12 340.039 1453.98 357.455 1519 359.117Z" fill="white"/>
<path d="M1519 366.645V368.212C1459.95 363.966 1402.23 348.293 1345.92 336.078C1276.79 321.076 1207.02 306.975 1135.6 298.41C1073.04 290.895 995.87 279.297 941.585 308.468C889.628 336.336 864.243 384.489 838.371 424.721C816.501 458.781 791.565 507.735 738.623 524.284C711.778 532.673 690.97 526.949 664.173 523.11C626.899 517.766 596.091 514.063 562.643 499.847C489.41 468.71 431.454 422.13 363.664 385.846C255.708 328.041 135.347 299.203 1.2362e-05 291.817L1.22119e-05 288.379C135.123 295.629 255.543 324.223 363.382 381.973C431.065 418.197 488.709 464.716 561.504 496.11C594.737 510.462 625.254 513.873 662.099 519.848C688.711 524.182 708.662 531.174 736.102 523.239C789.568 507.715 815.051 457.805 836.911 424.077C863.347 383.282 889.151 334.477 941.488 305.965C995.695 276.428 1072.26 287.911 1134.84 295.663C1205.92 304.48 1275.05 318.993 1343.65 334.26C1400.51 346.882 1459.08 362.895 1519 366.645Z" fill="white"/>
<path d="M1519 376.561V378.595C1391.75 358.764 1270.12 327.464 1140.29 314.382C1077.86 308.088 997.535 295.832 941.79 322.663C891.819 346.712 868.099 390.925 844.973 428.18C822.733 464.004 799.422 508.142 749.364 529.791C695.235 553.183 617.269 540.819 565.419 520.343C490.111 490.61 431.094 443.365 363.197 406.565C255.396 348.103 135.804 317.718 1.32685e-05 309.329L1.31448e-05 306.494C135.814 314.667 255.63 344.779 363.577 403.093C431.503 439.805 490.413 486.9 565.448 516.864C615.643 536.898 694.641 550.91 748 528.902C798.546 508.054 821.954 463.163 844.097 427.61C867.602 389.854 891.526 344.915 941.77 320.18C997.175 292.909 1077.01 305.076 1139.43 311.54C1212.97 319.156 1285.36 331.391 1356.91 345.281C1410.65 355.719 1464.13 369.107 1519 376.561Z" fill="white"/>
<path d="M1519 389.047V391.17C1400.21 360.229 1269.93 342.765 1144.65 331.276C1081.02 325.443 1001.26 312.856 943.533 338.608C894.292 360.568 869.871 401.682 846.628 437.214C822.84 473.6 798.449 514.965 749.763 538.77C692.46 566.767 618.817 559.198 560.472 536.953C484.035 507.823 424.054 460.565 356.147 423.324C250.382 365.329 133.886 333.27 1.40366e-05 323.551L1.39292e-05 321.089C134.626 330.584 251.979 362.393 358.241 420.787C425.992 458.042 485.632 505.49 561.835 534.654C619.82 556.818 693.881 564.217 750.737 536.342C799.422 512.483 823.415 470.82 846.774 434.318C869.579 398.677 893.571 357.286 942.812 335.298C1000.26 309.661 1080.75 322.256 1144.08 328.109C1270.09 339.781 1399.37 358.574 1519 389.047Z" fill="white"/>
<path d="M1519 399.647V401.167C1471.29 388.036 1418.91 381.424 1368.86 374.363C1295.89 364.068 1222.38 355.886 1148.32 349.819C1083.08 344.481 1006.85 332.321 947.457 357.957C897.846 379.396 870.533 418.319 844.077 453.01C817.183 488.365 789.88 527.593 740.688 550.565C681.096 578.412 609.547 570.491 549.177 548.096C472.36 519.611 410.909 473.878 342.632 437.065C240.207 381.851 128.852 349.134 1.48014e-05 338.37L1.46829e-05 335.657C129.826 346.278 242.125 378.948 345.193 434.677C413.47 471.613 474.697 517.671 551.514 546.319C611.573 568.7 683.443 576.662 742.645 548.672C791.711 525.477 818.4 485.849 844.71 450.276C870.514 415.389 897.291 376.052 946.765 354.451C1005.85 328.678 1082.64 340.975 1147.6 346.441C1221.72 352.672 1295.38 361.19 1368.56 371.996C1418.78 379.416 1471.06 386.483 1519 399.647Z" fill="white"/>
<path d="M1519 407.06V408.078C1472.46 395.829 1419.77 392.044 1370.88 387.053C1298.5 379.64 1225.73 373.997 1152.87 369.351C1086.25 365.099 1012.66 353.969 951.41 378.372C900.952 398.481 869.53 434.664 839.228 467.863C808.517 501.536 777.183 538.011 727.046 559.375C665.254 585.717 595.399 578.365 533.276 556.323C456.82 529.194 394.589 485.591 326.643 449.842C228.288 398.094 122.688 365.614 1.55839e-05 354.458L1.54571e-05 351.555C123.857 362.684 230.489 395.259 329.642 447.658C397.686 483.604 459.829 527.641 536.392 555.054C598.204 577.185 668.321 584.706 729.743 558.011C779.675 536.308 810.25 499.318 840.231 465.306C869.783 431.781 900.446 395.103 950.719 374.709C1011.62 350.015 1085.62 361.362 1152.02 365.845C1225.04 370.769 1298 376.907 1370.5 384.876C1419.61 390.267 1472.26 394.595 1519 407.06Z" fill="white"/>
<path d="M1519 411.855V412.466C1473.24 402.035 1420.85 401.512 1373.25 398.901C1301.62 395.029 1229.84 392.384 1158.06 389.603C1090.34 386.978 1018.38 377.3 955.295 399.518C903.61 417.796 867.456 450.717 832.529 481.854C797.271 513.276 761.262 546.509 709.714 565.723C645.926 589.461 577.22 583.357 513.773 562.128C438.319 536.885 375.855 495.975 308.805 461.854C215.016 414.114 115.678 382.59 1.63793e-05 371.555L1.62452e-05 368.483C116.973 379.579 217.431 411.313 312.067 459.771C379.312 494.211 441.766 535.623 517.424 561.233C580.657 582.631 649.518 589.04 712.976 564.739C764.252 545.139 799.422 511.316 833.814 479.44C867.894 447.896 903.133 414.331 954.653 395.768C1017.42 373.115 1089.59 383.072 1157.19 386.015C1229.11 389.155 1301.07 392.35 1372.85 396.867C1420.65 399.919 1473.1 401.051 1519 411.855Z" fill="white"/>
<path d="M1519 414.602V414.914C1473.31 407.338 1422.4 410.126 1375.86 410.234C1305.16 410.404 1234.48 411.13 1163.78 410.56C1095.27 410.004 1023.99 401.967 959.171 421.411C905.665 437.39 864.486 466.771 824.359 495.235C784.008 523.856 742.927 553.474 689.548 570.192C624.143 590.681 555.915 586.096 491.445 566.123C417.501 543.179 355.222 505.388 289.467 473.282C200.742 429.93 107.995 399.932 1.71857e-05 389.433L1.70465e-05 386.246C109.387 396.86 203.312 427.169 292.953 471.301C358.961 503.781 421.289 542.155 495.486 565.519C559.8 585.764 628.068 590.613 693.219 569.534C746.248 552.362 786.414 522.059 825.839 492.896C865.022 463.929 905.285 433.891 958.47 417.491C1022.99 397.552 1094.32 405.873 1162.73 406.823C1233.59 407.806 1304.47 407.691 1375.35 408.267C1422.14 408.668 1473.24 406.518 1519 414.602Z" fill="white"/>
<path d="M1519 415.863V415.979C1473.44 411.591 1423.96 418.129 1378.58 421.106C1309.06 425.671 1239.48 430.018 1169.68 431.903C1100.63 433.768 1029.21 427.339 962.871 443.657C907.232 457.35 860.767 482.892 815.187 508.169C769.607 533.446 723.063 559.232 667.493 573.326C600.988 590.2 532.39 587.175 467.248 568.754C395.193 548.374 333.382 514.022 269.145 484.235C185.844 445.617 99.8645 417.518 1.80002e-05 407.874L1.78572e-05 404.598C101.315 414.412 188.492 442.87 272.768 482.329C337.276 512.544 399.224 547.519 471.601 568.361C536.635 587.08 605.127 590.369 671.466 572.851C726.627 558.276 772.061 531.873 816.852 505.89C861.487 480.03 906.999 453.776 962.228 439.696C1028.34 422.842 1099.66 429.523 1168.66 428.105C1238.6 426.661 1308.37 422.964 1378.11 419.194C1423.66 416.752 1473.42 410.892 1519 415.863Z" fill="white"/>
<path d="M1519 416.23C1473.4 415.484 1425.73 425.725 1381.3 431.72C1313.14 440.863 1244.7 448.995 1175.58 453.498C1106.02 458.022 1034.22 453.01 966.376 466.181C908.226 477.48 856.541 499.142 805.401 520.831C692.45 568.734 574.552 604.13 442.097 570.64C372.106 552.938 310.967 522.235 248.327 494.957C170.683 461.169 91.5295 435.234 1.8813e-05 426.634L1.86685e-05 423.324C92.9803 432.141 173.322 458.442 251.988 493.092C314.92 520.811 376.186 552.179 446.547 570.321C579.245 604.592 695.595 568.286 807.144 518.6C857.329 496.26 908.099 473.919 965.772 462.199C1033.34 448.472 1105.09 453.722 1174.56 449.673C1243.78 445.644 1312.44 438.184 1380.83 429.848C1425.41 424.443 1473.41 414.826 1519 416.23Z" fill="white"/>
<path d="M1519 416.257C1473.33 419.39 1427.62 433.267 1383.91 442.273C1317.36 455.994 1249.95 467.991 1181.26 475.181C1111.02 482.526 1039.09 478.572 969.628 488.806C908.654 497.765 851.886 515.562 795.459 533.433C675.361 571.474 548.573 601.519 416.888 572.322C269.623 539.679 157.879 459.738 1.96388e-05 445.495L1.94943e-05 442.185C84.5772 449.863 158.249 473.919 231.112 503.761C292.515 528.902 353.07 556.533 421.289 572.03C553.072 601.947 678.272 570.959 797.202 531.222C852.704 512.672 908.615 494.205 969.073 484.838C1038.21 474.123 1110.18 478.219 1180.28 471.376C1249.04 464.661 1316.6 453.349 1383.46 440.429C1427.28 431.964 1473.34 418.692 1519 416.257Z" fill="white"/>
<path d="M1519 416.515V416.63C1473.32 423.548 1429.42 440.876 1386.27 452.935C1321.42 471.05 1255 486.893 1186.48 496.755C1115.39 506.982 1043.88 503.781 972.588 511.316C908.586 518.098 847.037 532.07 785.79 546.149C659.782 575.069 524.552 599.485 392.535 574.316C254.793 548.076 144.441 476.618 2.04636e-05 464.207L2.03208e-05 460.938C146.7 473.641 257.334 546.583 396.712 573.916C528.554 599.742 662.45 574.39 787.426 543.871C847.884 529.126 908.635 514.477 972.092 507.348C1043.07 499.373 1114.66 502.676 1185.6 492.95C1254.14 483.557 1320.72 468.385 1385.87 451.022C1429.13 439.52 1473.32 422.788 1519 416.515Z" fill="white"/>
<path d="M1519 417.579V417.898C1473.3 428.248 1431.01 448.866 1388.28 463.875C1325.11 486.046 1259.61 505.612 1191.01 518.037C1119.03 531.079 1048.33 528.326 975.188 533.521C908.119 538.268 842.354 548.754 776.725 559.144C645.429 579.945 503.724 598.718 369.945 577.164C240.976 556.384 132.572 493.601 2.12845e-05 482.56L2.11453e-05 479.372C134.529 490.61 243.313 554.919 373.752 576.574C507.151 598.725 647.844 578.975 778.244 556.831C843.162 545.81 908.216 534.742 974.76 529.648C1047.59 524.073 1118.43 526.888 1190.28 514.327C1258.85 502.336 1324.5 483.414 1387.95 461.921C1430.76 447.428 1473.31 427.366 1519 417.579Z" fill="white"/>
<path d="M1519 420.028V420.645C1473.15 433.714 1432.11 457.56 1389.82 475.262C1328.21 501.034 1263.55 524.094 1194.66 538.865C1122.05 554.424 1052.07 551.975 977.379 555.258C907.427 558.33 838.137 565.587 768.789 572.627C632.634 586.449 486.596 599.912 350.013 581.444C287.305 572.953 228.016 556.35 169.485 538.96C115.22 522.832 59.4552 504.371 2.20994e-05 500.349L2.19652e-05 497.277C60.6724 501.278 117.382 520.133 172.543 536.871C231.112 554.641 290.363 571.766 353.284 580.549C489.323 599.539 634.757 585.174 770.084 570.213C838.8 562.617 907.554 554.824 977.029 551.48C1051.49 547.892 1121.56 550.395 1194.1 535.244C1262.92 520.865 1327.71 498.41 1389.58 473.221C1431.96 455.967 1473.24 432.69 1519 420.028Z" fill="white"/>
<path d="M1519 424.416V425.433C1472.68 439.676 1432.22 467.442 1390.75 487.287C1330.48 516.131 1266.53 542.297 1197.18 559.042C1124.48 576.595 1054.7 574.458 979.064 576.323C906.668 578.1 834.496 582.604 762.324 586.761C690.152 590.919 617.98 594.703 545.594 595.09C475.622 595.463 402.788 595.598 333.625 587.629C271.541 580.474 211.91 566.516 153.244 551.08C103.711 538.024 53.1455 521.584 2.28863e-05 517.257L2.27593e-05 514.348C54.1972 518.56 105.619 535.373 155.98 548.876C214.617 564.617 274.102 579.009 336.244 586.361C405.213 594.5 478.096 594.35 547.901 593.733C619.956 593.102 691.71 588.836 763.375 584.238C835.041 579.64 906.833 574.669 978.84 572.708C1054.34 570.64 1124.1 572.837 1196.83 555.583C1266.09 539.157 1330.15 513.5 1390.6 485.15C1432.52 465.489 1472.83 439.038 1519 424.416Z" fill="white"/>
<path d="M1519 431.327V432.846C1471.97 447.489 1431.67 478.646 1390.99 500.112C1331.72 531.391 1268.3 560.161 1198.34 578.399C1126.29 597.179 1055.91 595.49 980.329 596.534C906.152 597.565 832.032 599.871 757.903 601.743C614.328 605.358 464.405 610.98 321.804 596.317C259.554 589.908 198.96 578.005 139.446 564.014C93.7009 553.223 47.829 538.852 2.36884e-05 533.128L2.35699e-05 530.415C48.6859 535.807 95.3465 550.537 141.695 561.654C201.014 575.896 261.375 588.104 323.518 594.567C465.681 609.42 615.438 603.337 758.526 599.03C832.393 596.812 906.23 594.161 980.154 593.042C1055.81 591.902 1126.01 593.686 1198.27 575.055C1268.12 557.042 1331.6 528.685 1391.06 497.786C1431.84 476.557 1472.11 446.004 1519 431.327Z" fill="white"/>
<path d="M1519 441.331V443.447C1471.13 456.862 1429.89 491.715 1390.39 513.934C1331.73 546.929 1268.68 577.687 1197.94 596.751C1127.2 615.816 1055.48 614.758 980.962 615.741C905.918 616.705 830.864 617.484 755.8 617.776C610.229 618.339 459.79 622.415 315.319 608.044C205.454 597.084 105.473 569.541 2.44568e-05 547.716L2.43481e-05 545.227C106.457 565.079 205.776 594.737 316.03 605.69C460.228 620.028 610.667 615.823 755.975 614.826C830.951 614.31 905.928 613.313 980.904 612.398C1055.69 611.489 1127.19 612.656 1198.14 593.577C1268.73 574.587 1331.83 544.142 1390.57 511.397C1430.31 489.26 1471.29 455.105 1519 441.331Z" fill="white"/>
<path d="M1519 454.637V457.187C1470.17 471.735 1428.44 502.818 1386.72 525.009C1327.63 556.499 1265.2 585.798 1196.41 606.036C1126.59 626.613 1057.07 630.683 982.335 633.47C908.261 636.233 834.116 637.725 759.899 637.946C613.257 638.428 462.623 637.851 317.938 619.634C253.916 611.577 190.975 600.047 128.657 587.08C86.5051 578.378 43.72 566.428 2.52825e-05 562.101L2.5164e-05 559.388C43.4765 565.289 85.6872 576.988 128.005 585.839C190.157 598.874 253.108 610.146 317.12 617.837C461.747 635.227 612.371 634.752 758.76 634.413C833.146 634.25 907.502 633.013 981.829 630.703C1056.44 628.37 1126.62 625.426 1196.5 605.236C1265.83 585.201 1328.45 555.4 1387.43 523.409C1428.61 501.068 1470.26 468.907 1519 454.637Z" fill="white"/>
<path d="M1519 469.762V472.563C1470.42 487.483 1427.47 512.625 1383.65 533.175C1324.26 561.036 1263.07 587.154 1197.84 607.854C1064.17 650.27 912.753 653.45 767.699 655.282C618.963 657.154 468.417 650.948 322.807 628.831C258.756 619.105 195.776 606.518 132.484 594.696C91.8508 587.1 42.7268 574.275 2.62172e-05 579.396L2.60753e-05 576.147C43.1357 572.688 90.9258 585.513 131.802 593.333C194.919 605.405 257.87 617.851 321.931 627.339C467.297 648.872 617.883 654.129 766.17 652.555C910.602 651.022 1063.87 649.795 1197.36 607.881C1263.25 587.188 1324.73 560.467 1384.07 531.873C1427.57 510.923 1470.31 484.743 1519 469.762Z" fill="white"/>
<path d="M1519 486.222V489.24C1409.41 521.198 1309.59 569.711 1202.13 605.216C1170.86 615.552 1139.21 625.334 1107.2 634.562C1072.15 644.64 1032.58 648.282 995.227 652.704C923.208 661.208 850.47 666.433 777.475 668.344C625.828 672.407 475.398 661.203 327.997 636.346C264.014 625.549 200.761 612.534 136.476 602.618C96.2326 596.405 39.309 584.984 2.72245e-05 599.288L2.70646e-05 595.626C39.8543 582.814 95.7457 594.771 135.766 601.207C199.885 611.509 263.06 624.484 327.062 635.118C473.895 659.507 624.777 670.001 775.635 666.316C848.665 664.602 921.474 659.757 993.65 651.809C1031.03 647.686 1070.57 644.437 1105.92 634.738C1138.13 625.894 1169.89 616.298 1201.2 605.948C1263.14 585.601 1323.08 562.542 1382.31 538.56C1427.01 520.499 1471.29 500.349 1519 486.222Z" fill="white"/>
<path d="M1519 503.808V506.996C1414.88 534.172 1312.57 564.217 1212.28 597.735C1145.5 620.055 1083.88 641.961 1011.52 654.305C941.244 666.248 869.638 674.001 797.475 677.48C643.725 684.94 493.909 670.609 345.056 644.396C281.161 633.145 217.499 620.279 152.601 612.16C106.291 606.416 39.494 597.511 2.829e-05 621.283L2.81153e-05 617.281C39.9225 594.9 106.33 604.842 151.773 610.838C216.565 619.383 280.109 632.283 344.024 643.453C492.399 669.382 642.196 683.021 795.313 676.123C867.479 672.893 939.145 665.566 1009.6 654.217C1046.99 648.174 1084.65 642.056 1119.2 630.215C1149.74 619.752 1180.36 609.38 1211.05 599.098C1312.22 565.234 1414.15 531.805 1519 503.808Z" fill="white"/>
<path d="M1519 522.222V525.559C1475.18 535.25 1429.56 540.296 1385.01 547.994C1329.56 557.492 1275.57 570.706 1223.78 587.453C1157.86 608.871 1099 635.844 1029.4 651.741C955.417 668.598 878.95 679.601 801.438 684.54C645.507 694.537 497.18 675.649 346.887 648.54C283.81 637.166 220.158 624.938 155.269 619.77C103.497 615.647 36.8358 614.066 2.93995e-05 644.864L2.92144e-05 640.625C37.2058 611.014 103.857 613.944 154.461 618.38C219.252 624.063 282.758 636.4 345.845 647.767C495.622 674.767 643.881 692.923 799.16 683.536C876.574 678.889 953.033 668.387 1027.18 652.216C1097.12 636.922 1156.41 610.75 1222.31 589.203C1318.3 557.822 1419.23 545.057 1519 522.222Z" fill="white"/>
<path d="M1519 541.226V544.617C1476.36 552.165 1431.98 549.798 1388.44 551.189C1331.87 552.999 1277.53 561.626 1226.01 578.216C1161 599.159 1105.45 629.692 1038.57 648.533C966.838 668.721 891.621 682.279 814.836 688.86C737.597 695.36 659.492 695.084 582.352 688.04C501.718 680.789 424.035 664.75 345.475 650.819C247.461 633.396 70.1077 595.11 3.05401e-05 669.517L3.03483e-05 665.123C70.4583 593.055 248.425 633.145 344.375 650.236C500.053 677.975 650.57 701.475 812.441 688.216C889.094 681.948 964.286 668.9 1036.2 649.388C1103.39 631.13 1159.42 601.404 1224.35 580.352C1276.36 563.485 1331.22 553.901 1388.29 550.578C1431.88 548.062 1476.4 549.093 1519 541.226Z" fill="white"/>
<path d="M1519 560.568V563.959C1475.85 569.622 1433.75 560.026 1391.73 554.512C1340.3 547.77 1290.54 549.344 1241.7 563.329C1208.11 572.959 1177.51 586.999 1148.84 602.408C1118 618.983 1083.49 632.039 1048.4 643.813C978.924 667.188 904.868 683.281 828.634 691.573C751.944 699.861 673.647 700.003 596.685 693.079C515.623 685.788 438.173 668.534 359.156 654.793C241.667 634.365 75.6092 608.139 3.16878e-05 694.747L3.14933e-05 690.291C75.95 605.778 242.933 634.25 357.997 654.386C436.761 668.168 514.123 685.123 594.942 692.346C671.68 699.203 749.695 699.128 826.248 691.187C902.314 683.218 976.328 667.636 1046 644.925C1081.05 633.511 1115.75 620.896 1146.65 604.619C1175.64 589.352 1206.45 575.455 1240.13 565.662C1289.11 551.419 1339.45 548.645 1391.63 553.935C1433.8 558.249 1476.16 566.523 1519 560.568Z" fill="white"/>
<path d="M1519 579.986V583.377C1470.41 587.622 1428.21 568.212 1385.54 555.427C1339.1 541.51 1292.66 537.794 1244.89 551.358C1211.36 560.907 1183.05 576.527 1155.71 592.729C1125.87 610.397 1092.41 625.236 1058.26 638.543C991.128 664.716 918.226 683.489 842.568 693.33C759.967 704.079 675.088 704.086 592.069 695.364C512.555 686.988 436.81 668.303 358.727 655.587C228.532 634.359 72.0552 624.396 3.30182e-05 720.058L3.28245e-05 715.623C72.396 621.683 229.856 634.237 357.51 655.261C435.359 668.059 511.017 686.459 590.336 694.761C673.102 703.422 757.708 703.483 840.143 693.079C915.691 683.426 988.536 665.42 1055.92 639.744C1090.06 626.783 1123.69 612.357 1153.6 594.981C1181.26 578.935 1209.76 563.505 1243.29 553.82C1291 540.052 1337.97 542.467 1385.38 555.109C1428.44 566.618 1471.02 584.523 1519 579.986Z" fill="white"/>
<path d="M1519 599.227V602.57C1419.18 607.393 1368.07 512.618 1261.38 535.535C1230.22 542.229 1203.05 556.689 1179.3 571.806C1149.48 590.797 1119.9 608.83 1086.42 624.748C1019.02 656.801 943.805 680.701 864.194 693.533C783.824 706.494 700.415 707.972 618.817 700.227C533.325 692.089 453.09 670.677 369.273 657.574C305.407 647.591 237.714 640.714 172.582 648.635C90.8771 658.557 34.5281 693.33 3.43582e-05 744.922L3.41695e-05 740.602C34.5962 689.844 91.0621 656.625 171.618 647.503C236.779 640.13 304.258 647.299 367.997 657.35C451.562 670.528 531.708 691.627 616.996 699.664C698.419 707.335 781.555 705.924 861.847 693.303C941.313 680.803 1016.59 657.472 1084.3 626.037C1142.82 598.867 1191.71 552.986 1260.04 537.868C1365.92 514.504 1419.92 604.632 1519 599.227Z" fill="white"/>
<path d="M1519 618.041V621.282C1413.47 623.032 1377.02 500.634 1265.37 523.09C1234.99 529.194 1209.23 544.793 1187.47 560.06C1154.91 582.922 1122.76 604.985 1085.53 624.26C1020.75 657.811 947.428 683.116 868.975 696.599C789.685 710.224 706.919 711.465 626.295 703.191C541.747 694.51 463.032 671.837 379.945 659.161C312.515 648.886 240.265 643.331 172.543 655.594C87.5081 670.989 33.3986 713.968 3.56477e-05 768.849L3.5468e-05 764.733C33.3888 710.651 87.547 669.104 171.618 654.536C239.33 642.802 311.356 648.676 378.601 658.991C461.474 671.708 540.151 694.035 624.504 702.601C705.02 710.78 787.524 709.566 866.784 696.226C945.159 683.041 1018.58 658.245 1083.68 625.243C1120.98 606.341 1153.35 584.699 1185.98 562.169C1208.02 546.929 1233.91 531.608 1264.3 525.335C1375.45 502.37 1414.4 620.279 1519 618.041Z" fill="white"/>
<path d="M1519 636.169V639.269C1456.68 638.923 1418.43 592.39 1385.73 561.952C1357.84 535.996 1320.85 501.339 1267.62 511.832C1237.81 517.705 1213.26 534.654 1193.16 550.178C1162.01 574.248 1131.82 597.952 1096.05 618.875C1035.14 654.529 964.984 682.458 888.362 697.914C805.664 714.585 718.38 716.138 633.676 706.562C550.151 697.148 473.042 673.092 390.734 660.524C324.053 650.351 252.894 646.234 186.399 659.337C91.8801 677.995 34.6936 729.818 3.6859e-05 791.326L3.6692e-05 787.5C34.6741 726.732 91.8411 676.422 185.406 658.49C251.842 645.773 322.875 650.222 389.351 660.368C471.455 672.922 548.544 696.585 631.943 705.87C716.569 715.29 803.736 713.737 886.424 697.338C962.997 682.146 1033.36 654.698 1094.66 619.526C1130.51 598.956 1160.97 575.638 1192.21 551.867C1212.53 536.403 1237.19 519.753 1266.96 513.771C1381.17 490.827 1408.58 635.912 1519 636.169Z" fill="white"/>
<path d="M1519 653.362V656.272C1453.17 655.227 1415.85 602.503 1386.39 568.782C1362.47 541.402 1326.85 491.709 1269.66 502.072C1240.89 507.281 1217.61 524.928 1199.23 540.107C1169.18 564.889 1141.78 590.369 1108.01 612.94C1048.31 652.874 977.613 684.94 898.313 702.303C818.799 719.712 734.252 721.503 652.333 712.164C564.474 702.147 484.853 674.747 398.484 661.487C328.513 650.744 253.4 648.208 185.036 665.38C89.1342 689.477 34.0802 747.804 3.79651e-05 811.849L3.78135e-05 808.376C34.1873 744.623 89.7963 687.28 185.766 664.2C250.577 648.601 321.249 650.507 387.627 659.88C473.47 672.054 552.624 699.149 639.148 709.905C722.138 720.214 808.059 719.495 889.297 702.933C969.56 686.568 1041.66 655.417 1102.79 616.006C1137.06 593.91 1165.57 569.1 1195.36 544.203C1214.27 528.4 1237.88 510.17 1267.27 504.066C1324.72 492.136 1361.22 539.496 1386.18 567.174C1416.18 600.441 1453.64 652.386 1519 653.362Z" fill="white"/>
<path d="M1519 669.341V672.054C1448.66 671.084 1411.09 612.018 1383.49 575.272C1363.15 548.191 1330 487.578 1272.65 494.361C1239.28 498.328 1213.09 522.168 1194.27 539.625C1166.12 565.75 1139.99 592.221 1107.6 616.013C1051.62 657.133 984.039 690.888 906.463 709.024C822.977 728.543 733.385 728.624 647.707 716.287C562.332 703.991 485.408 674.631 400.549 661.732C330.188 651.029 254.793 650.432 187.363 669.911C88.7349 698.403 34.1775 762.657 3.89385e-05 829.909L3.88085e-05 826.932C34.0802 760.372 88.511 697.209 186.34 669.341C253.712 650.154 328.883 650.934 399.049 661.487C483.763 674.231 560.823 703.103 646.091 715.134C731.924 727.254 821.536 726.99 905.168 707.647C982.851 689.681 1050.87 656.367 1107.43 615.579C1139.98 592.099 1166.43 565.967 1194.69 540.086C1213.68 522.71 1239.89 499.393 1273.15 495.385C1330.33 488.501 1363.54 547.336 1384.41 574.37C1412.34 610.533 1449.55 668.317 1519 669.341Z" fill="white"/>
<path d="M1519 683.916V686.297C1439.86 686.358 1400.8 615.823 1372.84 574.763C1354.84 548.313 1322.7 482.383 1265.32 491.173C1231.64 496.341 1206.15 522.676 1188.13 540.907C1161.55 567.791 1137.72 595.402 1107.31 620.387C1053.18 664.831 985.597 701.848 905.519 720.364C824.165 739.164 736.822 737.278 654.192 723.504C570.199 709.498 495.72 678.11 412.224 663.82C343.041 651.999 268.6 651.165 201.686 669.924C93.8957 700.078 35.901 772.023 3.97518e-05 845L3.96463e-05 842.585C35.755 770.226 93.6133 699.291 200.586 669.606C267.383 651.07 341.59 651.931 410.656 663.502C494.065 677.48 568.739 708.366 652.644 722.025C735.566 735.529 823.045 737.129 904.603 718.417C984.916 699.983 1053.04 663.325 1107.89 619.133C1138.54 594.432 1162.72 567.133 1189.44 540.459C1207.55 522.378 1233.03 496.585 1266.53 491.512C1323.69 482.865 1355.88 547.316 1374.15 573.787C1402.15 614.324 1440.92 683.706 1519 683.916Z" fill="white"/>
</g>
</g>
<defs>
<clipPath id="clip0_124_64">
<rect width="845" height="1519" fill="white" transform="translate(0 845) rotate(-90)"/>
</clipPath>
</defs>
</svg>
