<svg width="51" height="70" viewBox="0 0 51 70" fill="none" xmlns="http://www.w3.org/2000/svg">
<path fill-rule="evenodd" clip-rule="evenodd" d="M21.7888 0.201914C13.6047 1.42833 6.44432 6.75395 2.72043 14.3845C-0.36805 20.7128 -0.845862 27.9361 1.38462 34.5775C4.25777 43.1322 10.9124 49.348 19.6051 51.5965C23.1299 52.5082 28.2447 52.4522 31.8678 51.4622C37.9874 49.7899 43.1345 46.0603 46.5801 40.8018C52.4729 31.8081 52.4733 20.426 46.5812 11.4235C42.6047 5.34798 36.2554 1.2701 29.1091 0.2022C27.306 -0.0672808 23.5863 -0.067424 21.7888 0.201914ZM28.7783 4.63217C33.3329 5.39924 37.2559 7.44798 40.4237 10.7137C41.2292 11.544 42.2867 12.8032 42.7737 13.512C43.7962 14.9998 45.136 17.7288 45.6515 19.3735C48.6079 28.8063 45.0582 39.0021 36.9371 44.4039C35.526 45.3425 34.9562 45.6456 33.3429 46.3156C31.992 46.8767 30.0237 47.415 28.4296 47.6593C27.1128 47.861 23.9468 47.8647 22.5721 47.6661C17.9478 46.998 13.7376 44.8147 10.4385 41.374C8.76266 39.6262 7.56437 37.8911 6.52437 35.7063C5.6018 33.7685 5.1311 32.3723 4.69318 30.2744C4.25651 28.182 4.25498 24.0168 4.69039 21.9509C5.13445 19.8433 5.60459 18.4509 6.52437 16.519C7.59966 14.26 8.78623 12.5607 10.578 10.7137C13.7309 7.46345 17.5852 5.4389 22.1537 4.63332C23.6224 4.37443 27.2442 4.37372 28.7783 4.63217ZM22.5023 7.62582C19.8143 8.15462 17.1981 9.25417 15.0753 10.7475C13.6201 11.771 11.3846 14.0949 10.4033 15.6044C8.29183 18.8521 7.31375 22.1788 7.31375 26.1126C7.31375 30.3417 8.49921 34.0261 10.9229 37.3293C13.4094 40.7183 16.9516 43.158 20.9845 44.259C22.588 44.6968 22.7345 44.7114 25.5008 44.7114C28.2672 44.7114 28.4137 44.6968 30.0172 44.259C31.9279 43.7373 34.5285 42.5002 36.0306 41.3985C39.5235 38.8364 42.0729 35.0536 43.1348 30.8579C44.757 24.4478 42.9991 17.6996 38.4888 13.0219C36.8488 11.321 35.6572 10.4405 33.5202 9.35068C30.8255 7.97649 29.1108 7.55609 25.9192 7.48679C24.2553 7.45056 23.1679 7.4948 22.5023 7.62582ZM27.0461 18.3089L28.4606 22.7477H32.9778C35.4622 22.7477 37.4949 22.8015 37.4949 22.8674C37.4949 22.9331 35.9729 24.1203 34.1129 25.5055C32.2528 26.8907 30.6219 28.1094 30.4889 28.2138C30.2639 28.3903 30.3451 28.7151 31.6422 32.8278C32.4096 35.2611 33.0112 37.2789 32.9792 37.3119C32.9471 37.3448 31.3015 36.1684 29.3222 34.6978C27.3431 33.2271 25.6579 32.0013 25.5774 31.9738C25.4969 31.9463 23.7994 33.1426 21.805 34.6324C19.8106 36.1221 18.1621 37.263 18.1418 37.168C18.1214 37.0729 18.7338 35.0619 19.503 32.6993C20.8093 28.6859 20.8851 28.3911 20.6558 28.2126C20.5208 28.1077 18.8885 26.8913 17.0283 25.5097C15.1681 24.128 13.6462 22.9423 13.6462 22.8747C13.6462 22.807 15.6678 22.7347 18.1384 22.7139L22.6308 22.6761L24.0231 18.2731C24.7887 15.8514 25.464 13.87 25.5234 13.87C25.583 13.87 26.2682 15.8675 27.0461 18.3089ZM9.42109 51.8508C6.80888 56.8152 3.59725 63.1672 3.66448 63.2362C3.70952 63.2823 5.39316 63.1718 7.40622 62.9905C9.41913 62.8092 11.2134 62.653 11.3933 62.6432C11.6871 62.6276 11.8973 62.9996 13.4461 66.2755C14.395 68.283 15.2275 69.9446 15.296 69.9679C15.4536 70.0219 23.0331 55.4383 22.9336 55.2727C22.893 55.2054 22.4131 55.1077 21.8671 55.0555C18.6445 54.7481 13.703 53.0003 10.9569 51.1967C10.5153 50.9068 10.129 50.6695 10.0985 50.6695C10.0678 50.6695 9.76292 51.201 9.42109 51.8508ZM40.0751 51.1927C38.649 52.0831 36.2455 53.2094 34.4964 53.8071C32.7556 54.4019 29.6652 55.1084 28.8038 55.1084C28.5303 55.1084 28.2683 55.1719 28.2216 55.2497C28.1301 55.4018 35.6453 70 35.8151 70C35.871 70 36.7127 68.3221 37.6856 66.2712L39.4546 62.5426L39.9042 62.6172C40.8347 62.7717 47.4075 63.3071 47.4785 63.2343C47.5724 63.1378 41.2148 50.773 41.0409 50.714C40.9699 50.69 40.5353 50.9053 40.0751 51.1927Z" fill="white"/>
</svg>
