<svg width="22" height="22" viewBox="0 0 22 22" fill="none" xmlns="http://www.w3.org/2000/svg">
<g clip-path="url(#clip0_312_111)">
<path d="M18.7576 9.065C18.1185 9.065 17.5562 9.32395 17.143 9.72908C15.6221 8.69746 13.573 8.03338 11.3023 7.96238L12.4824 2.74998L16.2398 3.57694C16.2398 4.47909 16.9896 5.21417 17.9098 5.21417C18.847 5.21417 19.6011 4.45821 19.6011 3.55606C19.6011 2.65391 18.8513 1.89795 17.9098 1.89795C17.2537 1.89795 16.6871 2.28637 16.406 2.8168L12.2566 1.91466C12.0478 1.86036 11.8434 2.00654 11.788 2.21119L10.4929 7.9582C8.23928 8.05009 6.21145 8.71417 4.68633 9.74579C4.27309 9.32395 3.68945 9.065 3.05043 9.065C0.681798 9.065 -0.0935466 12.1808 2.07486 13.2458C1.99818 13.5757 1.9641 13.9266 1.9641 14.2774C1.9641 17.7774 5.98567 20.6133 10.9232 20.6133C15.882 20.6133 19.9035 17.7774 19.9035 14.2774C19.9035 13.9266 19.8652 13.559 19.7715 13.2291C21.8973 12.1599 21.1134 9.065 18.7576 9.065ZM5.51279 13.4671C5.51279 12.5483 6.26258 11.809 7.20407 11.809C8.12426 11.809 8.87404 12.5441 8.87404 13.4671C8.87404 14.3693 8.12426 15.1044 7.20407 15.1044C6.26684 15.1086 5.51279 14.3693 5.51279 13.4671ZM14.6423 17.3723C13.0916 18.8926 8.71641 18.8926 7.16572 17.3723C6.99532 17.2261 6.99532 16.9671 7.16572 16.8001C7.31483 16.6539 7.57896 16.6539 7.72806 16.8001C8.91238 17.9904 12.8402 18.0113 14.0757 16.8001C14.2248 16.6539 14.4889 16.6539 14.638 16.8001C14.8127 16.9671 14.8127 17.2261 14.6423 17.3723ZM14.6082 15.1086C13.688 15.1086 12.9382 14.3735 12.9382 13.4713C12.9382 12.5525 13.688 11.8132 14.6082 11.8132C15.5454 11.8132 16.2995 12.5483 16.2995 13.4713C16.2952 14.3693 15.5454 15.1086 14.6082 15.1086Z" fill="white"/>
</g>
<defs>
<clipPath id="clip0_312_111">
<rect width="21.8119" height="21.3842" fill="white" transform="translate(0 0.565918)"/>
</clipPath>
</defs>
</svg>
