<svg width="19" height="15" viewBox="0 0 19 15" fill="none" xmlns="http://www.w3.org/2000/svg">
<path d="M18.0791 1.926C17.4068 2.22092 16.6904 2.4164 15.9435 2.51131C16.7119 2.05255 17.2984 1.33165 17.5741 0.462719C16.8577 0.889839 16.0667 1.19153 15.2238 1.3599C14.5435 0.635601 13.574 0.187012 12.5164 0.187012C10.4644 0.187012 8.81245 1.85255 8.81245 3.89437C8.81245 4.18815 8.83731 4.47064 8.89833 4.73957C5.81697 4.58928 3.0904 3.11244 1.25876 0.86272C0.938986 1.41752 0.751415 2.05255 0.751415 2.73617C0.751415 4.01979 1.41243 5.15765 2.39775 5.81641C1.80226 5.80511 1.21808 5.63223 0.723166 5.35991C0.723166 5.37121 0.723166 5.3859 0.723166 5.40059C0.723166 7.20172 2.00792 8.69777 3.69267 9.04241C3.39097 9.12489 3.06216 9.16444 2.72091 9.16444C2.48362 9.16444 2.24407 9.15088 2.01921 9.10116C2.49944 10.569 3.86216 11.6481 5.4825 11.6831C4.22148 12.6695 2.62035 13.2639 0.887008 13.2639C0.583053 13.2639 0.291526 13.2503 0 13.213C1.64181 14.2718 3.58758 14.8763 5.68589 14.8763C12.5063 14.8763 16.2351 9.22659 16.2351 4.3294C16.2351 4.16555 16.2294 4.00736 16.2215 3.8503C16.9571 3.32826 17.5752 2.67628 18.0791 1.926Z" fill="white"/>
</svg>
