<?xml version="1.0" standalone="no"?>
<!DOCTYPE svg PUBLIC "-//W3C//DTD SVG 20010904//EN"
 "http://www.w3.org/TR/2001/REC-SVG-20010904/DTD/svg10.dtd">
<svg version="1.0" xmlns="http://www.w3.org/2000/svg"
 width="420.000000pt" height="420.000000pt" viewBox="0 0 420.000000 420.000000"
 preserveAspectRatio="xMidYMid meet">
<metadata>
Created by potrace 1.14, written by Peter Selinger 2001-2017
</metadata>
<g transform="translate(0.000000,420.000000) scale(0.100000,-0.100000)"
fill="#000000" stroke="none">
<path d="M1841 4184 c-709 -89 -1318 -525 -1631 -1169 -53 -109 -133 -322
-143 -385 -3 -14 -10 -43 -15 -65 -45 -168 -62 -519 -36 -725 21 -165 64 -331
126 -495 36 -95 119 -262 159 -323 16 -24 29 -45 29 -48 0 -8 71 -107 129
-179 134 -168 296 -316 481 -439 109 -73 343 -196 372 -196 8 0 18 -4 24 -9
11 -11 196 -71 239 -78 17 -3 38 -9 48 -14 9 -5 17 -8 17 -5 0 2 17 0 38 -5
213 -50 526 -56 768 -14 587 103 1080 427 1412 930 140 212 281 573 308 791 2
23 6 50 8 60 18 93 25 362 12 479 -40 363 -151 677 -341 964 -34 53 -71 106
-81 118 -11 12 -32 39 -49 60 -16 21 -81 90 -145 153 -233 233 -498 397 -812
504 -60 20 -194 56 -233 62 -16 3 -68 12 -115 21 -114 20 -434 24 -569 7z"/>
</g>
</svg>
