<svg xmlns="http://www.w3.org/2000/svg" viewBox="0 0 543.2 462"><path d="M486.5 95h-84.9c-6.7 0-12.1 5.4-12.1 12.1v82.2h-60.8V50c0-6.7-5.4-12.1-12.1-12.1h-84.9c-6.7 0-12.1 5.4-12.1 12.1v228.9h-60.8V176.1c0-6.7-5.4-12.1-12.1-12.1h-85c-6.7 0-12.1 5.4-12.1 12.1v231.6c0 6.7 5.4 12.1 12.1 12.1h424.5c6.7 0 12.1-5.4 12.1-12.1V107.1c.3-6.7-5.1-12.1-11.8-12.1zM134.6 395.6H73.8V188.2h60.8v207.4zm84.9 0h-60.8v-92.5h60.8v92.5zm85-194.1v194.1h-60.8V62.1h60.8v139.4zm84.9 194.1h-60.8v-182h60.8v182zm85 0h-60.8V119.3h60.8v276.3z"/></svg>