<?xml version="1.0" encoding="utf-8"?>
<!-- Generator: Adobe Illustrator 23.0.0, SVG Export Plug-In . SVG Version: 6.00 Build 0)  -->
<svg version="1.1" id="Layer_1" xmlns="http://www.w3.org/2000/svg" xmlns:xlink="http://www.w3.org/1999/xlink" x="0px" y="0px"
	 viewBox="0 0 543.2 462" style="enable-background:new 0 0 543.2 462;" xml:space="preserve">
<g>
	<g>
		<path d="M486.5,95h-84.9c-6.7,0-12.1,5.4-12.1,12.1v82.2h-60.8V50c0-6.7-5.4-12.1-12.1-12.1h-84.9c-6.7,0-12.1,5.4-12.1,12.1
			v228.9h-60.8V176.1c0-6.7-5.4-12.1-12.1-12.1H61.7c-6.7,0-12.1,5.4-12.1,12.1v231.6c0,6.7,5.4,12.1,12.1,12.1h84.9h84.9h84.9h84.9
			h84.9c6.7,0,12.1-5.4,12.1-12.1V107.1C498.6,100.4,493.2,95,486.5,95z M134.6,395.6H73.8V188.2h60.8
			C134.6,188.2,134.6,395.6,134.6,395.6z M219.5,395.6h-60.8v-92.5h60.8V395.6z M304.5,201.5v194.1h-60.8V62.1h60.8V201.5z
			 M389.4,395.6h-60.8v-182h60.8V395.6z M474.4,395.6h-60.8V201.5v-82.2h60.8L474.4,395.6L474.4,395.6z"/>
	</g>
</g>
</svg>
