<svg height="512" viewBox="0 0 465.294 465.294" width="512" xmlns="http://www.w3.org/2000/svg"><path d="M453.999 209.603c5.144-10.305 11.295-25.689 11.295-40.408 0-41.544-27.344-69.473-68.045-69.489h-.032c-13.619 0-29.984 6.112-47.197 15.565 9.449-17.212 15.565-33.574 15.569-47.193.016-19.036-6.069-35.556-17.559-47.776C335.534 7.011 317.569 0 296.099 0c-14.719 0-30.103 6.15-40.392 11.295-14.443 7.205-31.694 7.205-46.104 0C199.298 6.151 183.914 0 169.195 0c-41.544 0-69.473 27.344-69.489 68.045-.008 13.626 6.11 30.002 15.569 47.232-17.214-9.451-33.576-15.567-47.198-15.571h-.065c-19.003 0-35.507 6.069-47.711 17.559C7.011 129.76 0 147.725 0 169.195c0 14.719 6.15 30.103 11.295 40.392 7.189 14.443 7.189 31.677 0 46.104C6.15 265.996 0 281.38 0 296.099c0 41.544 27.344 69.473 68.045 69.489h.032c13.619 0 29.984-6.112 47.197-15.565-9.449 17.212-15.565 33.574-15.569 47.193-.016 19.036 6.069 35.556 17.559 47.776 12.496 13.291 30.46 20.301 51.93 20.301 14.719 0 30.103-6.15 40.392-11.295 14.443-7.205 31.694-7.205 46.104 0 10.305 5.144 25.689 11.295 40.408 11.295 41.544 0 69.473-27.344 69.489-68.045.008-13.626-6.108-30.002-15.567-47.23 17.214 9.451 33.574 15.565 47.195 15.569h.065c19.003 0 35.507-6.069 47.711-17.559 13.291-12.496 20.301-30.46 20.301-51.93 0-14.719-6.15-30.103-11.295-40.392-7.187-14.442-7.187-31.676.002-46.103zM132.941 68.077c0-13.015 4.722-34.842 36.254-34.842 6.329 0 15.644 2.84 25.559 7.79 23.726 11.847 52.044 11.847 75.802 0 9.899-4.95 19.214-7.79 25.543-7.79 12.252 0 21.583 3.311 27.718 9.834 7.059 7.497 8.536 17.721 8.536 24.991-.016 29.306-56.066 96.468-98.606 139.968-.351.345-.759.738-1.097 1.073-.337-.331-.74-.722-1.087-1.061-44.576-45.61-98.638-112.078-98.622-139.963zM68.077 332.353c-13.015 0-34.842-4.722-34.842-36.254 0-6.329 2.84-15.644 7.79-25.559 11.847-23.726 11.847-52.06 0-75.802-4.95-9.899-7.79-19.214-7.79-25.543 0-12.252 3.311-21.583 9.834-27.718 7.497-7.059 17.705-8.536 24.959-8.536h.032c29.3.016 96.438 56.042 139.939 98.58.353.361.755.777 1.099 1.126-.333.337-.724.744-1.065 1.091-45.591 44.573-112.039 98.615-139.956 98.615zm264.276 64.864c0 13.015-4.722 34.842-36.254 34.842-6.329 0-15.644-2.84-25.559-7.79-11.863-5.923-24.878-8.877-37.893-8.877s-26.03 2.954-37.909 8.877c-9.899 4.95-19.214 7.79-25.543 7.79-12.252 0-21.583-3.311-27.718-9.834-7.059-7.497-8.536-17.721-8.536-24.991.016-29.302 56.046-96.446 98.586-139.948.357-.351.773-.751 1.12-1.091.335.331.74.72 1.085 1.059 44.575 45.61 98.637 112.079 98.621 139.963zm91.916-126.661c4.95 9.899 7.79 19.214 7.79 25.543 0 12.252-3.311 21.583-9.834 27.718-7.497 7.059-17.705 8.536-24.959 8.536h-.032c-29.3-.016-96.438-56.042-139.939-98.58-.353-.361-.755-.777-1.099-1.126.333-.337.724-.744 1.065-1.091 45.593-44.573 112.041-98.614 139.958-98.614 13.015 0 34.842 4.722 34.842 36.254 0 6.329-2.84 15.644-7.79 25.559-11.849 23.725-11.849 52.059-.002 75.801z"/></svg>