<svg xmlns="http://www.w3.org/2000/svg" viewBox="0 0 490 490"><path d="M383.2 232.35l-106.5-106.6c-7-7-18.4-7-25.5 0-7 7-7 18.4 0 25.5l75.8 75.8H130.9c-9.9 0-18 8.1-18 18s8 18 18 18h196.2l-75.8 75.8c-7 7-7 18.4 0 25.5 3.5 3.5 8.1 5.3 12.7 5.3s9.2-1.8 12.7-5.3l106.5-106.5c7-7 7-18.4 0-25.5zm-324-5.3H18c-9.9 0-18 8.1-18 18s8.1 18 18 18h41.2c9.9 0 18-8.1 18-18s-8.1-18-18-18z"/><path d="M472 33.85H352.9c-9.9 0-18 8.1-18 18s8.1 18 18 18H454v350.3H352.9c-9.9 0-18 8.1-18 18s8.1 18 18 18H472c9.9 0 18-8.1 18-18V51.85c0-9.9-8.1-18-18-18z"/></svg>