<svg xmlns="http://www.w3.org/2000/svg" viewBox="0 0 743.3 439.4"><path d="M335.9 232.6c-4.4 0-8-3.6-8-8h-16c0 10.4 6.7 19.2 16 22.5v17.5h16v-17.5c9.3-3.3 16-12.1 16-22.5 0-13.2-10.8-24-24-24-4.4 0-8-3.6-8-8s3.6-8 8-8 8 3.6 8 8h16c0-10.4-6.7-19.2-16-22.5v-17.5h-16v17.5c-9.3 3.3-16 12.1-16 22.5 0 13.2 10.8 24 24 24 4.4 0 8 3.6 8 8s-3.6 8-8 8z"/><path d="M455.9 328.6h128v-240h-496v240h128m52.2-16H103.9v-208h464v208h-288v-36.1c15.6 12.9 35.1 20.1 56 20.1h184v-8c0-13.3 10.7-24 24-24h8v-112h-8c-13.3 0-24-10.7-24-24v-8h-368v8c0 13.3-10.7 24-24 24h-8v112h8c13.3 0 24 10.7 24 24v8h115.9m-4.6-87.3c0-41 35.2-74.8 76.7-72.5 36.5 1.9 66 31.5 68 68 2.2 41.5-30.9 75.9-71.9 75.9-22 0-43.5-7.5-57.3-24.6l-8.6-9.9c-5.2-8.4-6.9-20.1-6.9-36.9zm-15.3-.7c0 36.9 16 54.3 16 72h-96.8c-3.2-15.6-15.5-28-31.2-31.2v-81.6c15.6-3.2 28-15.5 31.2-31.2h118.4c-22.7 16-37.6 42.3-37.6 72zm138.5-72h118.4c3.2 15.6 15.5 28 31.2 31.2v81.6c-15.6 3.2-28 15.5-31.2 31.2H386.4c22.7-15.9 37.6-42.2 37.6-72s-14.9-56-37.6-72z"/><path d="M119.9 120.6h16v16h-16v-16zm0 160h16v16h-16v-16zm416-160h16v16h-16v-16zm0 160h16v16h-16v-16z"/><circle cx="210.7" cy="312.6" r="78.6"/><circle cx="210.7" cy="312.6" r="65.8" fill="#fff"/><path d="M190.6 312.6l-27.3 27.3 20.1 20.1 27.3-27.3L238 360l20.1-20.1-27.3-27.3 27.3-27.3-20.1-20-27.3 27.3-27.3-27.3-20.1 20.1 27.3 27.2zm20.1-7.2l27.3-27.3 7.2 7.2-27.3 27.3 27.3 27.3-7.2 7.2-27.3-27.3-27.3 27.3-7.2-7.2 27.3-27.3-27.3-27.3 7.2-7.2 27.3 27.3zM112.8 47.6h512.3v18H112.8z"/><path d="M130.784 65.482v23.1h-18v-23.1zM583.9 282.7H607v18h-23.1zm41.132-217.008v235h-18v-235zM509.8 214.7h-54c-5 0-9-4-9-9s4-9 9-9h54c5 0 9 4 9 9s-4 9-9 9zm-291.9 0h-54c-5 0-9-4-9-9s4-9 9-9h54c5 0 9 4 9 9s-4 9-9 9z"/></svg>