<?xml version="1.0" encoding="utf-8"?>
<!-- Generator: Adobe Illustrator 23.0.0, SVG Export Plug-In . SVG Version: 6.00 Build 0)  -->
<svg version="1.1" id="Слой_1" xmlns="http://www.w3.org/2000/svg" xmlns:xlink="http://www.w3.org/1999/xlink" x="0px" y="0px"
	 viewBox="0 0 743.3 439.4" style="enable-background:new 0 0 743.3 439.4;" xml:space="preserve">
<style type="text/css">
	.st0{fill:#FFFFFF;}
</style>
<path d="M335.9,232.6c-4.4,0-8-3.6-8-8h-16c0,10.4,6.7,19.2,16,22.5v17.5h16v-17.5c9.3-3.3,16-12.1,16-22.5c0-13.2-10.8-24-24-24
	c-4.4,0-8-3.6-8-8s3.6-8,8-8s8,3.6,8,8h16c0-10.4-6.7-19.2-16-22.5v-17.5h-16v17.5c-9.3,3.3-16,12.1-16,22.5c0,13.2,10.8,24,24,24
	c4.4,0,8,3.6,8,8S340.3,232.6,335.9,232.6z"/>
<g>
	<path d="M231.9,456.6 M455.9,328.6h128v-240h-496v240h128 M279.9,328.6 M268.1,312.6H103.9v-208h464v208h-288v-36.1
		c15.6,12.9,35.1,20.1,56,20.1h184v-8c0-13.3,10.7-24,24-24h8v-112h-8c-13.3,0-24-10.7-24-24v-8h-368v8c0,13.3-10.7,24-24,24h-8v112
		h8c13.3,0,24,10.7,24,24v8h113h2.9 M263.2,209.3c0-41,35.2-74.8,76.7-72.5c36.5,1.9,66,31.5,68,68c2.2,41.5-30.9,75.9-71.9,75.9
		c-22,0-43.5-7.5-57.3-24.6l-8.6-9.9C264.9,237.8,263.2,226.1,263.2,209.3z M247.9,208.6c0,36.9,16,54.3,16,72l-48,0h-48.8
		c-3.2-15.6-15.5-28-31.2-31.2v-81.6c15.6-3.2,28-15.5,31.2-31.2h118.4C262.8,152.6,247.9,178.9,247.9,208.6z M386.4,136.6h118.4
		c3.2,15.6,15.5,28,31.2,31.2v81.6c-15.6,3.2-28,15.5-31.2,31.2H386.4c22.7-15.9,37.6-42.2,37.6-72S409.1,152.6,386.4,136.6z"/>
</g>
<g id="Слой_3">
</g>
<g id="Слой_2">
</g>
<g id="Слой_2__x28_копия_x29_">
</g>
<path d="M119.9,120.6h16v16h-16V120.6z"/>
<path d="M119.9,280.6h16v16h-16V280.6z"/>
<path d="M535.9,120.6h16v16h-16V120.6z"/>
<path d="M535.9,280.6h16v16h-16V280.6z"/>
<circle cx="210.7" cy="312.6" r="78.6"/>
<circle class="st0" cx="210.7" cy="312.6" r="65.8"/>
<path d="M190.6,312.6l-27.3,27.3l20.1,20.1l27.3-27.3L238,360l20.1-20.1l-27.3-27.3l27.3-27.3L238,265.3l-27.3,27.3l-27.3-27.3
	l-20.1,20.1L190.6,312.6z M210.7,305.4l27.3-27.3l7.2,7.2l-27.3,27.3l27.3,27.3l-7.2,7.2l-27.3-27.3l-27.3,27.3l-7.2-7.2l27.3-27.3
	l-27.3-27.3l7.2-7.2L210.7,305.4z"/>
<rect x="112.8" y="47.6" width="512.3" height="18"/>
<rect x="110.2" y="68.1" transform="matrix(-1.836970e-16 1 -1 -1.836970e-16 198.8835 -44.7183)" width="23.1" height="18"/>
<rect x="583.9" y="282.7" width="23.1" height="18"/>
<rect x="498.6" y="174.2" transform="matrix(-1.836970e-16 1 -1 -1.836970e-16 799.2319 -432.9084)" width="235" height="18"/>
<path d="M509.8,214.7h-54c-5,0-9-4-9-9v0c0-5,4-9,9-9h54c5,0,9,4,9,9v0C518.8,210.7,514.8,214.7,509.8,214.7z"/>
<path d="M217.9,214.7h-54c-5,0-9-4-9-9v0c0-5,4-9,9-9h54c5,0,9,4,9,9v0C226.9,210.7,222.9,214.7,217.9,214.7z"/>
</svg>
