<svg xmlns="http://www.w3.org/2000/svg" viewBox="0 0 470 470" width="512" height="512"><path d="M40.409 51.622l62.223 150.218a7.5 7.5 0 1013.858-5.74L60.239 60.299l51.309 14.867a7.497 7.497 0 008.656-3.586l25.769-46.793 60.357 145.716c-69.663 13.434-122.447 74.853-122.447 148.378C83.882 402.208 151.673 470 235 470s151.119-67.792 151.119-151.119c0-33.751-11.124-64.951-29.896-90.133l73.368-177.126a7.5 7.5 0 00-9.017-10.074l-60.533 17.541-30.4-55.207a7.502 7.502 0 00-13.499.748l-58.136 140.353a7.5 7.5 0 1013.858 5.74l52.165-125.936 25.767 46.793a7.5 7.5 0 008.657 3.586l51.308-14.867-64.397 155.469c-27.598-29.52-66.86-48.005-110.364-48.005-4.491 0-8.933.209-13.325.594L153.857 4.63a7.498 7.498 0 00-13.498-.748l-30.401 55.207-60.533-17.541a7.499 7.499 0 00-9.016 10.074zm330.71 267.259C371.119 393.937 310.056 455 235 455S98.882 393.937 98.882 318.881 159.944 182.763 235 182.763s136.119 61.062 136.119 136.118z" data-original="#000000" class="active-path"/><path d="M148.341 347.039a7.5 7.5 0 005.892 5.079l50.467 8.469 23.649 45.379a7.5 7.5 0 0013.302 0l23.65-45.379 50.466-8.469a7.499 7.499 0 004.111-12.651l-35.85-36.515 7.54-50.614a7.5 7.5 0 00-10.761-7.819L235 267.331l-45.806-22.812a7.496 7.496 0 00-7.752.645 7.5 7.5 0 00-3.01 7.173l7.539 50.614-35.85 36.516a7.5 7.5 0 00-1.78 7.572zm50.951-36.244a7.498 7.498 0 002.066-6.359l-5.97-40.074 36.268 18.061a7.506 7.506 0 006.687 0l36.268-18.061-5.97 40.074a7.497 7.497 0 002.066 6.359l28.385 28.912-39.957 6.706a7.499 7.499 0 00-5.41 3.93L235 386.272l-18.725-35.93a7.5 7.5 0 00-5.41-3.93l-39.958-6.706 28.385-28.911z" data-original="#000000" class="active-path"/><path d="M121.388 311.316c4.107.549 7.877-2.343 8.42-6.45 6.957-52.507 52.18-92.104 105.192-92.104 58.514 0 106.119 47.604 106.119 106.119S293.514 425 235 425c-53.013 0-98.235-39.596-105.192-92.104-.543-4.107-4.32-7.001-8.42-6.45a7.5 7.5 0 00-6.449 8.42C122.879 394.802 174.494 440 235 440c66.785 0 121.119-54.333 121.119-121.119S301.785 197.763 235 197.763c-60.506 0-112.121 45.198-120.062 105.134a7.5 7.5 0 006.45 8.419z" data-original="#000000" class="active-path"/></svg>