<svg id="Layer_3" enable-background="new 0 0 64 64" height="512" viewBox="0 0 64 64" width="512" xmlns="http://www.w3.org/2000/svg"><path d="m23 39h2c0-2.206-1.794-4-4-4s-4 1.794-4 4h2c0-1.103.897-2 2-2s2 .897 2 2z"/><path d="m19 25c0-1.654-1.346-3-3-3s-3 1.346-3 3 1.346 3 3 3 3-1.346 3-3zm-3 1c-.551 0-1-.448-1-1s.449-1 1-1 1 .448 1 1-.449 1-1 1z"/><path d="m26 28c1.654 0 3-1.346 3-3s-1.346-3-3-3-3 1.346-3 3 1.346 3 3 3zm0-4c.551 0 1 .448 1 1s-.449 1-1 1-1-.448-1-1 .449-1 1-1z"/><path d="m45 23h2v16h-2z"/><path d="m53 23h2v16h-2z"/><path d="m49 27h2v10h-2z"/><path d="m49 21h2v4h-2z"/><path d="m60 57h-8c-.551 0-1-.448-1-1s.449-1 1-1h2c1.654 0 3-1.346 3-3s-1.346-3-3-3h-15.616c-1.437-1.288-3.268-2-5.213-2h-6.171v-3.37c3.556-1.697 6.289-4.839 7.421-8.673 2.558-.218 4.579-2.344 4.579-4.957 0-2.234-1.483-4.108-3.508-4.747l3.403-6.805c.024-.048.021-.104.037-.156.947.462 1.995.708 3.068.708h14c3.86 0 7-3.141 7-7 0-4.079-3.55-7.365-7.661-6.968-1.139-2.443-3.589-4.032-6.339-4.032s-5.2 1.589-6.339 4.032c-3.351-.321-6.327 1.801-7.314 4.805-1.95-1.757-4.522-2.837-7.347-2.837h-14c-6.065 0-11 4.935-11 11v1c0 .174.045.345.132.496l3.303 5.78c-1.988.661-3.435 2.517-3.435 4.724 0 2.613 2.021 4.739 4.579 4.957 1.132 3.833 3.865 6.976 7.421 8.673v3.37h-6.171c-2.091 0-4.057.814-5.536 2.293-1.479 1.478-2.293 3.443-2.293 5.535v7.172c0 .553.448 1 1 1h38 20c1.654 0 3-1.346 3-3s-1.346-3-3-3zm-23-27c0 1.353-.905 2.486-2.138 2.859.081-.61.138-1.227.138-1.859v-3.816c1.161.414 2 1.514 2 2.816zm6.079-22.879c.501.104 1.009-.178 1.168-.667.672-2.066 2.582-3.454 4.753-3.454s4.081 1.388 4.753 3.454c.16.49.662.772 1.168.667 3.163-.702 6.079 1.767 6.079 4.879 0 2.757-2.243 5-5 5h-14c-1.184 0-2.319-.427-3.22-1.189-.304-1.498-.917-2.883-1.763-4.094.171-2.976 2.998-5.277 6.062-4.596zm-38.079 10.879c0-4.963 4.038-9 9-9h14c4.886 0 8.875 3.913 8.997 8.77l-2.274 4.548c-.007-.007-.009-.017-.016-.024l-1.707-1.708v-2.586c0-.266-.105-.52-.293-.707l-2-2c-.187-.188-.442-.293-.707-.293h-18c-.265 0-.52.105-.707.293l-2 2c-.188.187-.293.441-.293.707v2.586l-1.707 1.707c-.061.061-.097.137-.14.209l-2.153-3.768zm0 12c0-1.302.839-2.402 2-2.816v3.816c0 .632.057 1.249.138 1.859-1.232-.373-2.138-1.506-2.138-2.859zm4 1v-7.586l1.707-1.707c.188-.187.293-.441.293-.707v-2.586l1.414-1.414h17.172l1.414 1.414v2.586c0 .266.105.52.293.707l1.707 1.707v7.586c0 6.617-5.383 12-12 12s-12-5.383-12-12zm12 14c1.39 0 2.731-.21 4-.59v3.023l-4 2.4-4-2.4v-3.023c1.269.38 2.61.59 4 .59zm18 16h-36v-6.172c0-1.557.606-3.021 1.707-4.121 1.101-1.101 2.565-1.707 4.122-1.707h6.894l4.762 2.857c.159.095.337.143.515.143s.356-.048.515-.143l4.762-2.857h6.894c1.557 0 3.021.606 4.122 1.707s1.707 2.564 1.707 4.121zm21 0h-19v-6.172c0-1.364-.352-2.672-1.003-3.828h14.003c.551 0 1 .448 1 1s-.449 1-1 1h-2c-1.654 0-3 1.346-3 3s1.346 3 3 3h8c.551 0 1 .448 1 1s-.449 1-1 1z"/></svg>