<?xml version="1.0" standalone="no"?>
<!DOCTYPE svg PUBLIC "-//W3C//DTD SVG 20010904//EN"
 "http://www.w3.org/TR/2001/REC-SVG-20010904/DTD/svg10.dtd">
<svg version="1.0" xmlns="http://www.w3.org/2000/svg"
 width="70.000000pt" height="70.000000pt" viewBox="0 0 70.000000 70.000000"
 preserveAspectRatio="xMidYMid meet">
<metadata>
Created by potrace 1.14, written by Peter Selinger 2001-2017
</metadata>
<g transform="translate(0.000000,70.000000) scale(0.100000,-0.100000)"
fill="#000000" stroke="none">
<path d="M253 686 c-63 -20 -126 -61 -162 -103 -49 -59 -51 -61 -51 -73 0 -6
-8 -23 -17 -37 -14 -21 -18 -48 -18 -118 0 -82 3 -97 33 -157 37 -76 92 -129
172 -167 46 -22 69 -26 140 -26 72 0 94 4 145 28 72 34 139 101 174 177 22 46
26 69 26 140 0 76 -4 93 -32 151 -62 125 -171 194 -313 197 -30 1 -74 -5 -97
-12z"/>
</g>
</svg>
