<svg width="116" height="116" viewBox="0 0 116 116" fill="none" xmlns="http://www.w3.org/2000/svg">
<mask id="mask0" mask-type="alpha" maskUnits="userSpaceOnUse" x="0" y="0" width="116" height="116">
<circle cx="58" cy="58" r="58" fill="white"/>
</mask>
<g mask="url(#mask0)">
<path d="M114.151 50.6199C112.319 55.4718 111.029 60.4935 109.435 65.4133C108.586 68.0259 107.84 70.7063 106.992 73.3189C106.72 74.1332 106.788 74.5743 107.501 75.1511C110.724 77.8316 111.877 81.2246 111.233 85.3979C110.045 93.4393 109.027 101.481 108.043 109.556C107.568 113.39 106.347 116.681 102.954 118.819C100.884 120.922 98.2377 120.821 95.659 120.481C86.8033 119.26 78.0155 117.801 69.1937 116.444C60.6434 115.12 52.127 113.695 43.5767 112.508C37.7408 111.694 33.1263 105.654 34.2121 99.9199C35.3996 93.7107 36.4175 87.4677 37.5033 81.2246C37.7408 79.8335 37.5033 78.578 36.9265 77.2887C33.5335 69.892 30.2084 62.4614 26.8493 55.0647C26.544 54.3861 26.4082 53.6736 26.3404 52.9271C22.8795 45.2929 19.4526 37.6248 15.9918 29.9905C13.9899 25.5797 14.9739 22.7974 19.3508 20.8295C26.9511 17.4026 34.5514 13.9757 42.1517 10.5148C43.1696 10.0737 44.1535 9.66658 45.2393 9.70051C45.9857 9.73444 46.4947 9.42907 47.0715 9.02191C52.5003 5.35749 59.5916 6.81647 62.8828 12.2452C66.2419 17.7419 64.3078 24.6975 58.5058 27.7851C57.488 28.328 57.3522 28.7691 57.8951 29.6512C58.2683 30.2959 58.5398 30.9745 58.8791 31.6192C60.1006 32.5014 60.1684 34.0282 60.8809 35.2157C61.0845 35.6568 61.1524 36.1997 61.6274 36.6069C62.6792 34.8086 62.7131 32.6031 63.9346 30.9406C64.0364 30.7031 64.2061 30.4316 64.2739 30.1941C65.4275 26.7333 67.4294 25.6475 70.8902 26.6654C81.5103 29.8209 92.1642 32.9764 102.784 36.1318C106.008 37.0819 109.265 38.0319 112.488 39.0498C115.406 39.9659 116.56 42.1714 115.745 45.0893C115.237 46.9555 114.422 48.6859 114.151 50.6199Z" fill="#6D4C41"/>
<path d="M73.4352 72.6741C74.3173 71.5884 74.9959 70.4008 74.9959 69.0097C74.9959 67.7543 75.4709 67.8561 76.421 68.0936C82.189 69.6883 87.9571 71.2491 93.7252 72.8098C93.9966 72.8777 94.2681 72.9795 94.5395 73.0134C95.0145 73.1152 95.6253 73.5224 95.7949 72.742C95.8967 72.1652 95.286 72.0973 94.8449 71.9955C90.6715 70.8419 86.4642 69.7222 82.2908 68.5686C80.0515 67.9579 77.8121 67.3471 75.6067 66.7364C75.0977 66.6007 74.5888 66.5328 74.3173 65.8542C73.5369 63.9202 72.6208 62.0541 71.6369 59.8486C74.2834 60.5951 76.6246 61.2737 78.9657 61.9523C84.6659 63.6149 90.3322 65.2435 96.0324 66.9061C96.3039 66.9739 96.5753 67.1096 96.8467 67.1775C97.2539 67.2793 97.695 67.2793 97.7968 66.7703C97.8646 66.3632 97.4914 66.2275 97.1521 66.1257C94.9467 65.481 92.7073 64.8363 90.5019 64.1917C84.4284 62.4273 78.3889 60.629 72.3155 58.8986C71.3994 58.6272 70.8565 58.2539 70.4833 57.3718C69.8047 55.6753 68.9903 53.9788 68.1082 52.0109C72.7905 53.4698 77.1674 54.827 81.5783 56.1842C87.1089 57.9146 92.6734 59.679 98.2039 61.3755C98.6789 61.5112 99.3915 62.088 99.6629 61.3076C99.9343 60.5612 99.0861 60.5272 98.5772 60.3576C88.4661 57.2021 78.355 54.0466 68.21 50.9251C67.701 50.7555 67.4635 50.5858 67.2599 50.1447C65.8688 47.0571 64.4777 43.9695 63.0526 40.9158C62.7812 40.3051 62.8151 39.7283 63.0187 39.1175C64.0027 36.1317 64.9527 33.1119 65.9367 30.1261C66.6153 28.1243 68.0064 27.3778 70.0422 27.9885C84.0552 32.128 98.0343 36.3014 112.013 40.4747C114.049 41.0855 114.897 42.5444 114.287 44.5124C110.894 55.5056 107.501 66.4989 104.108 77.4582C104.074 77.56 104.006 77.6618 103.938 77.7636C102.649 79.494 100.647 80.3083 98.8825 81.3262C95.1842 83.4977 91.5537 85.7371 87.8553 87.9086C84.9374 89.6051 83.3766 89.5712 80.8658 87.3657C77.0317 84.0067 72.7905 83.4638 68.1082 85.2621C67.9385 85.3299 67.8028 85.3978 67.6332 85.4317C64.0027 86.8568 62.374 86.3139 60.3722 82.9209C60.1686 81.8691 60.949 81.5637 61.6954 81.2923C63.6634 80.5798 65.4616 79.5279 67.3956 78.7476C70.3136 77.5939 72.0101 75.2867 73.4352 72.6741Z" fill="#FDFDFD"/>
<path d="M100.308 117.564C98.4081 118.65 96.4402 118.073 94.5062 117.767C83.1397 116.037 71.8071 114.239 60.4746 112.474C55.0119 111.626 49.5492 110.846 44.1204 109.997C42.6614 109.76 41.2364 109.455 40.1167 108.369C41.8132 106.503 44.1204 105.485 46.1562 104.128C51.11 100.904 56.1316 97.7487 61.0853 94.5254C62.6122 93.5414 62.9175 93.5414 63.9015 95.1022C68.2106 101.82 74.4537 106.062 81.7147 109.013C86.2273 110.846 90.9096 111.999 95.7277 112.712C96.067 112.78 96.3723 112.949 96.6438 113.153C98.001 114.476 99.2903 115.901 100.308 117.564Z" fill="#2A9ED7"/>
<path d="M71.7388 67.9581C65.9028 70.6386 60.0669 73.3191 54.231 75.9656C51.0416 77.3906 47.8522 78.7818 44.6628 80.2068C43.5092 80.4782 43.0002 79.9014 42.8306 78.8157C42.9663 78.6121 43.102 78.4085 43.3056 78.3746C45.5789 78.2049 46.3932 76.3727 47.3093 74.7102C48.904 71.8261 50.3969 68.8403 51.4487 65.6848C51.8559 64.4634 52.8059 63.4794 53.1113 62.224C53.8917 60.7311 54.3667 59.1364 54.9774 57.5756C55.8257 56.4899 57.2168 56.3541 58.3365 55.7773C59.049 55.4041 59.8633 55.1666 60.8812 54.488C59.4901 54.7934 58.6419 55.3362 57.7258 55.7434C57.1829 55.9809 56.6739 56.4899 56.0293 56.0488C56.0293 54.4201 57.0132 53.0969 57.624 51.6718C57.9633 50.8914 58.3026 50.145 58.5061 49.3307C58.6079 48.9914 58.7776 48.686 58.9133 48.3806C59.3544 47.5324 59.7615 46.6502 60.1008 45.768C60.3044 45.2252 60.6098 44.7162 61.2884 44.7501C61.8652 44.7841 62.1366 45.2591 62.3402 45.7341C63.6295 49.0592 65.3939 52.1468 66.785 55.4041C68.1422 58.6274 69.6691 61.7829 71.0602 64.9723C71.4334 65.8884 72.2477 66.7706 71.7388 67.9581Z" fill="#80DEEA"/>
<path d="M95.8283 113.017C92.4353 112.847 89.212 111.897 85.9886 110.981C81.2385 109.624 76.7597 107.554 72.7221 104.738C70.2452 103.042 67.7683 101.209 66.004 98.6308C65.1557 97.3754 64.1718 96.2218 63.3575 94.9325C62.7806 94.0503 62.3056 94.0503 61.4913 94.6271C58.0983 96.9004 54.7393 99.1398 51.3124 101.311C47.5801 103.686 43.8139 105.994 40.0816 108.335C38.9958 107.419 40.3191 107.351 40.5905 107.181C44.1532 104.84 47.7837 102.533 51.3802 100.226C56.5036 96.9343 61.5931 93.6771 66.7165 90.3859C67.1915 90.0805 67.7005 89.843 68.1755 89.5715C72.6542 88.3161 75.7418 89.4019 78.7616 92.9306C82.0867 96.7986 85.5476 100.599 88.9745 104.399C90.9763 106.604 92.8764 108.878 94.8783 111.117C95.3533 111.66 95.9979 112.169 95.8283 113.017Z" fill="#18B4FD"/>
<path d="M87.2773 93.3041C93.8936 88.5539 100.578 83.9055 107.364 79.4268C108.823 79.9018 108.721 81.225 108.823 82.3447C109.06 84.7198 108.416 87.027 108.144 89.3682C107.533 94.4916 106.787 99.615 106.176 104.772C106.108 105.451 106.007 106.13 105.633 106.706C104.785 107.69 103.665 107.385 102.647 107.215C99.7634 106.74 97.4223 105.078 95.2508 103.279C92.2989 100.803 89.822 97.8846 87.6166 94.6952C87.3451 94.288 87.0397 93.8469 87.2773 93.3041Z" fill="#18B4FD"/>
<path d="M38.1478 20.0827C38.8264 19.5059 39.4032 18.8951 39.6746 18.013C39.9121 17.3004 40.3532 16.7576 41.2015 16.6897C41.5068 16.9951 41.6086 17.3683 41.5747 17.7755C40.8961 23.2382 43.1694 27.0383 48.0553 29.3794C48.3267 29.5152 48.5642 29.6509 48.7339 29.8545C49.0392 30.9063 48.6321 31.7545 47.8856 32.4671C45.5105 33.7225 42.9658 34.6386 40.6586 35.9958C42.0497 35.419 43.4408 34.8761 44.798 34.2314C45.4088 33.96 45.9856 33.5528 46.6981 33.7564C47.4785 34.435 47.1052 35.2832 46.7659 35.9279C45.8498 37.6583 45.273 39.5923 44.1873 41.2549C43.1355 42.3746 41.6765 42.6799 40.3532 43.2907C37.7406 44.4782 35.1619 45.7336 32.4815 46.7515C31.1922 47.1926 29.9028 47.7016 28.5456 47.023C27.901 46.5479 27.5956 45.8354 27.3242 45.1229C27.2224 44.7836 27.2563 44.4443 27.3581 44.105C30.5814 36.7083 33.7708 29.2777 36.8584 21.847C37.1977 21.1684 37.4692 20.4898 38.1478 20.0827Z" fill="#ACE8F1"/>
<path d="M38.1476 20.0842C35.5011 26.3612 32.9224 32.7061 30.1741 38.9492C29.3937 40.7136 28.9526 42.6476 27.6293 44.1744C26.6793 44.1744 26.5436 43.3262 26.2722 42.7154C24.2024 38.067 21.9631 33.5544 20.063 28.8381C19.7916 28.1935 19.3165 27.4809 20.1648 26.8702C22.2684 25.7505 24.2703 24.3933 26.9168 24.8683C28.0365 25.0719 29.0205 24.2237 30.0384 23.7826C32.7527 22.5611 35.4332 21.3057 38.1476 20.0842Z" fill="#80DEEA"/>
<path d="M37.4366 94.0171C37.9795 90.7259 38.5224 87.4347 39.0653 84.1435C39.8796 83.906 40.2867 84.5846 40.7618 85.0257C43.7476 87.5705 47.0048 87.8419 50.5335 86.3151C51.5175 85.874 52.4336 85.2972 53.5533 85.2632C54.0283 85.2972 54.4015 85.5686 54.673 85.9079C55.9962 87.6383 57.7267 89.0634 58.6428 91.0652C58.6428 91.2688 58.5749 91.4045 58.4731 91.5742C53.7908 95.3065 48.6674 97.7833 42.4582 97.2065C40.8975 97.0708 39.5063 96.494 38.1492 95.8154C37.4366 95.4761 37.0634 94.8654 37.4366 94.0171Z" fill="#18B4FD"/>
<path d="M60.5423 82.8536C60.9495 83.0233 61.0852 83.3965 61.3227 83.7019C63.0871 86.0091 64.3764 86.3823 67.0229 85.1948C72.6214 82.7179 77.643 83.3965 82.0199 87.8413C83.1735 88.9949 85.345 88.9271 87.1772 87.8413C90.6042 85.7716 94.0311 83.7358 97.458 81.6661C99.6295 80.3768 101.767 79.0535 103.939 77.7642C103.803 79.4607 102.955 80.5464 101.496 81.5304C95.7954 85.3644 90.1631 89.3003 84.5307 93.2701C83.6825 93.8808 83.1396 93.9148 82.4949 93.0326C81.8163 92.1165 81.036 91.3022 80.2556 90.4878C76.5233 86.5181 71.2642 85.8055 66.5479 88.6217C65.1568 89.436 63.8335 91.2343 62.4085 90.895C61.1531 90.5896 60.2709 88.7235 59.253 87.502C58.4048 86.5181 57.6244 85.5002 56.8101 84.4823C57.1494 82.684 58.8459 82.9215 59.9995 82.3447C60.3048 82.4125 60.3727 82.6501 60.5423 82.8536Z" fill="#E2DAD8"/>
<path d="M62.2707 21.8471C61.8636 23.0347 61.2868 24.0865 60.201 24.799C56.1973 26.3937 52.2954 26.0205 49.072 23.1704C45.9844 20.4221 44.4236 16.8255 45.5773 12.5164C45.8826 11.295 47.0702 10.9217 47.8506 10.1753C49.072 9.56454 50.2935 9.02166 51.6507 8.81808C53.2454 8.58058 54.6704 8.68237 55.8919 9.86991C56.5705 10.5485 57.4866 10.9217 58.4706 11.0575C59.8278 11.2271 60.71 12.0753 61.3207 13.229C62.9154 16.0112 63.4583 18.8274 62.2707 21.8471Z" fill="#F65B4C"/>
<path d="M71.7375 67.9572C70.1768 63.5803 68.0053 59.4408 66.1731 55.1657C64.8159 52.0441 63.323 48.9565 61.9318 45.835C61.7622 45.4618 61.7283 45.0207 61.2532 44.9867C60.6425 44.9528 60.6425 45.4957 60.4728 45.9368C60.1335 46.8868 59.7603 47.8029 59.1496 48.6172C56.7066 49.0922 54.603 50.3816 52.3297 51.3316C51.685 51.6031 51.0743 52.0781 50.2939 51.8745C49.8528 51.6709 49.7171 51.2977 49.9207 50.9245C50.8707 49.0244 51.1761 46.8868 52.3636 45.1225C53.1779 44.1385 54.4673 44.1046 55.6887 43.2224C54.8405 43.3581 54.2637 43.6974 53.6869 43.392C53.144 43.0188 53.4494 42.6117 53.619 42.2045C54.2637 40.7116 54.7387 39.1169 55.553 37.6918C56.5031 36.0632 56.6048 34.4346 55.587 32.7381C55.1459 31.9916 54.6708 31.1773 54.6369 30.2273C54.9423 29.5487 55.4173 29.2094 56.1638 29.5826C56.8084 30.9398 57.4531 32.297 58.0978 33.6542C57.6906 34.4346 57.5888 35.2489 58.0299 36.0632C59.0817 38.0651 59.896 40.1687 60.7782 42.2384C61.2193 43.3242 61.5586 42.7474 61.9997 42.3741C65.6302 50.3816 69.2946 58.389 72.959 66.3625C73.5019 67.7197 72.5519 67.7537 71.7375 67.9572Z" fill="#AEE9F1"/>
<path d="M37.4349 94.0155C37.401 94.7958 37.7403 95.2709 38.4528 95.5762C42.4226 97.2727 46.3584 97.1709 50.43 95.7459C53.3819 94.6941 55.7909 92.794 58.5053 91.335C59.4214 91.2671 59.8286 91.7422 59.8286 92.6243C52.8051 97.2388 45.7816 101.887 38.7921 106.536C38.0456 107.045 37.7063 106.773 37.2992 106.162C36.4849 104.907 36.0098 103.482 36.1456 101.989C36.3491 99.3085 36.7902 96.6281 37.4349 94.0155Z" fill="#2A9ED7"/>
<path d="M87.277 93.304C90.5681 98.4274 94.4701 102.94 99.8988 105.892C101.561 106.808 103.394 107.079 105.294 106.944C105.362 107.012 105.395 107.079 105.463 107.147C105.599 109.624 105.294 112.033 104.174 114.307C103.869 114.883 103.665 115.562 102.919 115.765C99.1185 111.524 95.3523 107.317 91.5521 103.076C89.5842 100.836 87.718 98.4952 85.6483 96.3576C84.5626 95.238 84.7322 94.6612 85.9876 94.0843C86.4287 93.8468 86.8359 93.5415 87.277 93.304Z" fill="#2A9ED7"/>
<path d="M72.383 71.3521C71.908 72.0647 71.1955 72.37 70.483 72.6754C62.713 76.1702 54.977 79.6989 47.2071 83.1937C45.4088 84.008 43.6784 84.2794 41.8462 82.6508C52.1269 78.0702 62.238 73.5237 72.3491 69.011C73.0616 69.7914 72.7563 70.5718 72.383 71.3521Z" fill="#FBD636"/>
<path d="M43.5772 12.5853C43.4415 14.1121 42.6272 15.0282 41.1682 15.4354C39.9128 15.7747 38.9627 16.5211 38.5556 17.8444C38.2842 18.6926 37.6056 19.0658 36.8591 19.3712C33.9411 20.7284 31.0232 22.0517 28.1391 23.4089C27.7998 23.5785 27.3588 23.85 27.0534 23.7821C23.6604 23.0696 21.2175 25.275 18.4013 26.4286C17.8245 26.6661 17.2137 27.4465 16.6369 26.9036C16.1619 26.4286 16.5691 25.6143 16.8066 25.0036C16.9084 24.6982 17.1459 24.4268 17.3155 24.1553C19.7245 22.4928 22.4729 21.4749 25.1533 20.2873C30.7517 17.8104 36.2823 15.1639 41.9146 12.7888C42.4236 12.5513 42.9325 12.0763 43.5772 12.5853Z" fill="#FBD637"/>
<path d="M20.1654 26.8359C19.6904 27.8538 20.5047 28.4985 20.8101 29.3128C22.4726 33.7916 24.7459 38.0328 26.6121 42.4097C26.8835 43.0205 27.0871 43.6991 27.6299 44.1401C27.6299 44.4794 27.6299 44.8187 27.6299 45.158C27.596 46.4813 26.9514 47.5671 26.2049 48.6189C23.728 43.224 21.2511 37.7953 18.7743 32.4004C18.6046 32.0272 18.4689 31.6879 18.2992 31.3147C16.8742 28.261 16.8742 28.261 20.1654 26.8359Z" fill="#7BC0C7"/>
<path d="M42.8978 78.7815C43.3049 79.4601 43.746 80.0708 44.6282 80.1726C41.1673 82.0048 41.2013 82.0048 39.6405 78.51C37.469 73.6241 35.2635 68.7382 33.0581 63.8524C33.3974 62.6987 33.6688 61.4773 35.1957 61.3076C36.4172 62.1219 36.6207 63.547 37.1636 64.7345C38.5208 67.6864 39.878 70.6383 41.1673 73.5902C41.6423 74.7099 42.2531 75.7617 42.7281 76.8814C42.9656 77.4921 43.3388 78.1029 42.8978 78.7815Z" fill="#7DC0C7"/>
<path d="M45.5795 12.55C45.6134 15.7055 45.9527 18.6913 48.0224 21.3718C50.6011 24.7309 53.9941 25.5112 57.896 25.0362C58.6764 24.9344 59.4568 24.8326 60.2371 24.7987C56.0298 29.6167 47.3099 28.1578 44.7312 22.1861C43.2383 18.861 43.2722 15.6037 45.5795 12.55Z" fill="#DB584A"/>
<path d="M95.8281 113.017C92.9101 109.216 89.585 105.823 86.4635 102.193C83.7491 99.0375 80.899 96.0178 78.1846 92.8623C75.5041 89.7408 72.1451 88.7568 68.1753 89.5711C71.9076 87.4675 76.2506 88.2818 79.3382 91.7087C84.1223 97.0357 88.8725 102.397 93.6566 107.757C95.1834 109.488 96.7103 111.252 98.2032 112.983C97.8639 114.17 97.1514 113.593 96.4728 113.356C96.2692 113.254 96.0656 113.152 95.8281 113.017Z" fill="#74D1FB"/>
<path d="M35.0938 61.4782C33.9402 61.8514 33.9741 63.2426 33.0919 63.8533C30.7168 58.8317 28.3417 53.8101 26.2381 48.6527C26.1702 47.2616 27.1881 46.3455 27.6292 45.1919C27.9685 45.7687 28.3078 46.3116 28.6471 46.8884C29.0203 47.1259 29.3596 47.4313 29.5632 47.8384C31.2936 52.0118 33.4312 56.0494 35.1277 60.2228C35.2634 60.6639 35.4331 61.0711 35.0938 61.4782Z" fill="#92C5CB"/>
<path d="M60.5404 82.8538C60.4386 82.718 60.3029 82.6162 60.2011 82.4805C59.2171 81.9037 58.1653 81.3948 58.1313 80.0376C62.2708 78.1375 66.4102 76.2035 70.5497 74.3374C71.5676 73.8623 72.5855 73.3534 73.4676 72.6748C72.7212 76.1696 70.1764 78.0018 67.1906 79.325C65.2905 80.1733 63.3905 80.9876 61.4904 81.768C60.9136 82.0055 60.5404 82.243 60.5404 82.8538Z" fill="#E8E3E2"/>
<path d="M105.296 106.942C106.11 100.767 106.891 94.5919 107.705 88.4166C107.976 86.4827 108.417 84.5486 108.35 82.5468C108.316 81.3932 108.078 80.3074 107.332 79.3913C108.112 78.4413 108.621 78.6449 109.164 79.6967C110.216 81.8003 109.91 83.9718 109.605 86.1434C108.723 92.7257 107.841 99.3081 106.958 105.891C106.653 106.569 106.551 107.587 105.364 106.908C105.364 106.942 105.296 106.942 105.296 106.942Z" fill="#74D0FA"/>
<path d="M53.7209 85.5671C53.2459 85.7028 52.703 85.7367 52.2959 86.0082C47.41 88.8583 43.033 88.1797 39.0972 84.176C39.2668 83.5992 39.0293 82.9206 39.5722 82.3777C40.0811 82.9545 40.4883 83.6331 41.099 84.1081C42.8973 85.4992 44.9331 85.9064 47.0707 84.9564C48.5975 84.2778 50.1583 83.6331 51.6851 82.9545C52.7709 83.4974 53.5513 84.2778 53.7209 85.5671Z" fill="#27A4E0"/>
<path d="M48.6322 29.9235C44.5946 28.6341 42.1856 25.9198 41.1677 21.8482C40.7266 20.0838 41.1337 18.4213 41.1677 16.6908C41.7105 16.5551 42.5927 15.4354 42.4909 17.1319C42.2195 22.3911 44.6964 25.9876 49.3108 28.2609C49.7519 28.8716 49.4126 29.3806 49.1072 29.8895C48.9715 30.0592 48.8019 30.0592 48.6322 29.9235Z" fill="#A5CACF"/>
<path d="M62.2708 21.8471C62.9494 18.9291 62.5422 16.1469 61.0154 13.5343C60.3707 12.4146 59.6242 11.5324 58.1313 11.5324C57.2831 11.5324 56.4688 11.0574 55.858 10.4806C53.8222 8.47873 51.5489 9.08947 49.2756 9.76806C48.8006 9.90378 48.3935 10.277 47.8506 10.2092C51.2096 7.46084 56.1973 7.59656 59.6582 10.4806C63.1529 13.4664 64.2387 18.2166 62.2708 21.8471Z" fill="#F59A91"/>
<path d="M43.5761 12.5853C39.9796 13.8407 36.5866 15.5711 33.1257 17.0979C27.8666 19.473 22.5736 21.7802 17.3145 24.1214C17.6198 23.3749 18.2306 23.0017 18.9092 22.6963C27.1202 18.9641 35.2973 15.2657 43.5083 11.5674C43.8136 11.4317 44.0851 11.1941 44.4583 11.3638C44.3904 11.9745 43.8815 12.212 43.5761 12.5853Z" fill="#FAE381"/>
<path d="M61.9332 42.3743C61.7296 42.9171 61.5599 43.4939 61.2546 44.3422C59.8295 41.1867 58.5063 38.4045 57.2848 35.5544C56.9455 34.774 57.1151 33.9936 58.0312 33.6204C59.3545 36.5723 60.6438 39.4563 61.9332 42.3743Z" fill="#CEEFF4"/>
<path d="M53.7218 85.5667C53.0432 84.6845 52.3646 83.8024 51.686 82.9202C52.3646 82.3773 52.9075 82.3095 53.5522 83.0898C55.5201 85.4989 57.5559 87.9079 59.5578 90.283C59.5917 91.0294 59.2524 91.3009 58.5399 90.9955C56.9112 89.1633 55.3165 87.365 53.7218 85.5667Z" fill="#76CDF5"/>
<path d="M105.363 106.943C106.211 107.113 106.55 106.434 106.957 105.925C106.516 108.64 106.584 111.456 105.363 114.001C105.023 114.713 104.616 115.392 104.039 115.969C103.53 116.477 103.191 116.41 102.886 115.765C104.209 113.56 105.057 111.218 104.989 108.572C104.989 108.029 105.261 107.486 105.363 106.943Z" fill="#71B5D6"/>
<path d="M58.098 80.0374C58.7766 80.8517 59.4891 81.666 60.1677 82.4803C59.1498 83.3285 57.5551 83.1928 56.8087 84.4822C56.0283 83.6 55.2479 82.7178 54.2979 81.6321C55.689 81.0552 56.8765 80.5463 58.098 80.0374Z" fill="#CFC4C2"/>
<path d="M48.9717 29.9218C49.0735 29.379 49.2092 28.8361 49.311 28.2593C51.1093 28.87 52.9754 29.0736 54.8415 28.9039C55.3844 28.87 55.9952 28.7004 56.0969 29.5486C55.588 29.6504 55.079 29.7861 54.7397 30.2611C53.179 31.1094 51.5503 31.2112 49.8539 30.7362C49.4806 30.6004 48.9717 30.5326 48.9717 29.9218Z" fill="#7EBFC5"/>
<path d="M96.5078 113.389C97.0846 113.288 97.7632 113.627 98.2382 113.016C99.1204 114 100.003 114.984 100.953 115.934C102.072 117.02 101.462 117.359 100.342 117.563C98.7472 116.409 97.7293 114.78 96.5078 113.389Z" fill="#71B5D7"/>
<path d="M105.533 78.5429C105.736 77.7286 105.567 76.7446 106.449 76.3035C106.585 76.2357 107.263 76.7446 107.263 77.0161C107.331 78.0679 106.177 78.0339 105.533 78.5429Z" fill="#25A3DC"/>
<path d="M58.5388 90.996C59.0478 90.996 59.3531 90.7245 59.5567 90.2834C59.9299 91.0299 61.9997 91.5728 59.8281 92.6246C59.4889 92.1157 59.0478 91.6746 58.5049 91.3353C58.5049 91.1996 58.5049 91.0978 58.5388 90.996Z" fill="#70B2D0"/>
<path d="M72.3835 71.3502C72.3835 70.5698 72.3835 69.7894 72.3496 69.043C73.13 68.534 73.6389 68.534 73.3675 69.6876C73.2318 70.2984 73.0282 70.977 72.3835 71.3502Z" fill="#F1DB80"/>
<path d="M71.6698 39.0499C74.7235 40 77.8451 40.95 80.9666 41.934C88.024 44.1394 95.0814 46.3448 102.105 48.5503C102.173 48.5503 102.207 48.5503 102.275 48.5842C102.75 48.8557 103.767 48.7199 103.462 49.6021C103.225 50.3146 102.478 49.8057 101.969 49.636C95.1832 47.5324 88.3972 45.3948 81.6113 43.2912C78.2183 42.2393 74.8253 41.1875 71.4323 40.1357C70.9912 40 70.4823 39.8643 70.6859 39.2535C70.8216 38.8464 71.2627 38.9821 71.6698 39.0499Z" fill="#6E4F45"/>
<path d="M85.2768 49.9069C86.9393 50.4158 88.8733 51.0265 90.8073 51.6033C94.0646 52.6212 97.3558 53.6391 100.613 54.657C101.054 54.7927 101.767 54.8606 101.563 55.5392C101.326 56.3196 100.715 55.8106 100.274 55.6749C95.1843 54.1141 90.0609 52.5194 84.9714 50.9587C84.5642 50.823 83.9874 50.789 84.0553 50.2122C84.1231 49.7033 84.5642 49.7372 85.2768 49.9069Z" fill="#705147"/>
<path d="M80.1533 49.2283C79.305 48.9568 78.4568 48.6854 77.6085 48.414C74.9281 47.5657 72.2476 46.7175 69.5672 45.8353C69.1261 45.6996 68.4135 45.6317 68.685 44.8853C68.9225 44.2406 69.4314 44.6478 69.8386 44.7495C73.2655 45.8353 76.7264 46.921 80.1533 48.0068C80.5604 48.1425 81.1033 48.2443 80.8997 48.889C80.764 49.2622 80.4586 49.2622 80.1533 49.2283Z" fill="#715248"/>
<path d="M92.9105 79.4267C89.8908 78.5785 86.905 77.7642 83.9191 76.9159C83.5459 76.8141 83.0709 76.7123 83.1727 76.1695C83.2745 75.6605 83.7155 75.6945 84.1227 75.7962C87.1085 76.6445 90.0944 77.4927 93.0462 78.341C93.4195 78.4428 93.8945 78.5106 93.7927 79.0535C93.6909 79.5964 93.2498 79.4607 92.9105 79.4267Z" fill="#715349"/>
<path d="M42.8986 78.7806C42.5593 76.9484 41.3039 75.4894 40.8289 73.6912C40.286 71.859 41.0664 70.4339 42.2879 69.1446C44.9344 68.7713 47.1738 67.3124 49.5828 66.2945C50.0917 66.0909 50.431 65.7516 50.2274 65.1408C51.3132 64.1569 51.89 62.6979 53.3829 62.155C52.2293 64.9373 51.0757 67.7195 49.8881 70.4678C48.8363 72.9447 47.3773 75.2519 46.0201 77.5592C45.2737 78.9503 43.8826 78.1699 42.8986 78.7806Z" fill="#93E2EC"/>
<path d="M58.8442 49.2301C58.4031 51.6391 57.012 53.6749 56.1298 55.9142C55.9262 56.6946 55.1798 56.8303 54.603 57.1018C52.4314 58.1536 50.1921 59.0697 48.0206 60.0537C47.5795 60.2572 47.1045 60.4608 46.5955 60.1555C46.0526 59.2394 46.5616 58.425 46.9009 57.6447C47.5456 56.2875 48.1563 54.9303 48.7331 53.5391C51.4136 51.6391 54.5351 50.723 57.4531 49.2979C57.8602 49.1283 58.3352 48.8568 58.8442 49.2301Z" fill="#A4E6EF"/>
<path d="M53.4155 62.1569C52.3636 63.1408 51.8208 64.5998 50.3618 65.1427C50.3278 65.3123 50.2939 65.5159 50.1582 65.5838C47.8849 66.7035 45.7812 68.1964 43.1686 68.4678C42.4901 68.1285 42.5579 67.5856 42.8293 67.0428C43.6437 65.4141 44.1865 63.6498 44.933 61.9872C47.6135 60.0871 50.7689 59.205 53.6869 57.8138C54.128 57.6103 54.603 57.3388 55.1119 57.7121C54.8405 59.3068 54.4333 60.8675 53.4155 62.1569Z" fill="#9DE4EE"/>
<path d="M55.1124 57.7103C51.7873 59.0675 48.4622 60.4587 45.2728 62.1212C44.1191 63.3088 42.5584 63.682 41.1333 64.2927C40.6244 64.4963 40.1154 64.4285 39.8101 63.8856C39.5047 63.3088 39.7761 62.8338 40.2851 62.6302C42.3548 61.6801 44.3227 60.3908 46.6639 60.0854C49.8194 58.6943 53.0088 57.2693 56.1642 55.8781C57.5554 55.2674 58.9465 54.6567 60.3376 54.0459C60.7108 53.8763 61.1519 53.6388 61.3894 54.0799C61.7287 54.6567 61.1858 54.8602 60.7787 55.0299C58.8786 55.946 56.9785 56.8282 55.1124 57.7103Z" fill="#6E4F45"/>
<path d="M58.8454 49.2283C55.5542 50.7212 52.2969 52.1802 49.0058 53.6731C47.9879 54.8267 46.4949 55.0981 45.1717 55.7428C43.2377 56.6589 41.2698 57.5411 39.3018 58.3554C38.6572 58.6268 37.8428 59.1697 37.3678 58.2876C36.8928 57.3714 37.775 56.9643 38.4197 56.6929C41.9484 55.0981 45.511 53.5034 49.0397 51.9087C49.4808 51.7052 49.9219 51.8409 50.3629 51.7052C52.738 50.6873 55.1131 49.6354 57.4882 48.6176C58.065 48.38 58.6079 47.9729 59.1508 48.6515C59.049 48.7872 58.9472 48.9908 58.8454 49.2283Z" fill="#6C4F45"/>
<path d="M48.9722 29.9216C50.8383 31.0413 52.8062 30.227 54.7402 30.2609C56.5724 33.0432 57.4885 35.8254 55.351 38.9809C54.5367 40.2024 53.9938 41.6614 53.8241 43.2221C53.6205 44.0704 52.8402 44.2739 52.1955 44.5454C48.9722 45.9365 45.8167 47.3955 42.6273 48.8545C42.1183 49.092 41.6094 49.3295 40.9987 49.1259C40.3201 48.4812 40.7272 47.7687 40.9647 47.1241C41.4737 45.699 42.2201 44.3418 42.763 42.9168C43.9166 41.7631 45.5113 41.4578 46.9024 40.7792C48.9043 39.7952 51.0079 39.0488 52.908 37.8951C50.5329 38.7773 48.2257 39.7952 45.9524 40.881C45.3077 41.1863 44.697 41.6953 43.9166 41.2203C44.7309 38.913 46.2238 36.9112 46.6989 34.4682C46.7328 34.3325 46.6649 34.1629 46.631 33.9932C46.5292 33.2468 47.5132 33.0771 47.5132 32.3646C48.3275 31.7538 48.3954 30.8038 48.6329 29.9556C48.7686 29.9216 48.8704 29.9216 48.9722 29.9216Z" fill="#80DEEA"/>
<path d="M42.8636 43.1206C42.9993 44.4778 41.9475 45.3939 41.6082 46.6154C41.3707 47.3958 40.9974 48.1422 40.8278 48.9566C40.4885 49.9405 39.5384 50.178 38.7241 50.5173C37.7402 50.9584 36.7562 51.2977 35.7383 51.9763C37.0276 51.7727 37.9777 50.7548 39.267 51.0941C39.9117 51.5013 39.776 52.0442 39.5384 52.587C38.5545 55.0979 37.1294 57.4051 36.0437 59.848C35.8062 60.357 35.4669 60.8999 34.7543 60.4248C32.7186 55.9122 30.6828 51.3656 28.647 46.8529C29.9363 47.3619 31.1238 46.4797 32.4132 46.5136C33.1257 46.9208 33.7364 46.5136 34.3472 46.2761C36.5526 45.3939 38.6563 44.3421 40.8278 43.426C41.4385 43.1885 42.0832 42.6456 42.8636 43.1206Z" fill="#9DE4EE"/>
<path d="M42.8654 43.1221C39.8796 44.4115 36.8938 45.7008 33.874 46.9901C33.2972 47.2276 32.5508 47.8044 32.415 46.549C36.2491 44.7508 40.1171 42.9864 43.9512 41.1881C46.7334 39.9666 49.5157 38.7452 52.3318 37.5576C52.8408 37.3541 53.5194 36.6076 53.8926 37.4898C54.198 38.2023 53.2819 38.2702 52.8408 38.5077C49.5157 40.0684 46.1905 41.5953 42.8654 43.1221Z" fill="#6D4F45"/>
<path d="M47.545 32.3665C48.4611 33.554 47.07 33.4861 46.6628 33.9951C44.7288 34.8433 42.7609 35.6916 40.8269 36.5398C40.3858 36.7434 39.809 37.1166 39.5376 36.438C39.3 35.8952 39.9447 35.7255 40.3179 35.5559C42.727 34.4701 45.136 33.4183 47.545 32.3665Z" fill="#6F5249"/>
<path d="M50.7024 20.7266C51.415 19.4712 50.7364 18.2497 50.2274 16.9943C49.8542 16.0104 49.8203 14.9246 50.5667 14.3139C51.381 13.6353 50.8382 12.1424 51.7203 12.0406C52.4668 11.9727 53.1793 12.9227 54.1972 13.0585C55.283 13.1942 55.8598 14.1442 56.1991 15.1621C56.5723 16.2818 57.1152 17.164 58.167 17.7747C59.3545 18.4533 59.0152 19.0301 57.8956 19.4712C55.8937 20.2516 53.8918 20.998 51.9239 21.8124C50.8721 22.2534 50.5667 21.8802 50.7024 20.7266Z" fill="#F3F3F3"/>
<path d="M54.0938 21.78C54.5009 21.5764 54.7723 21.4067 55.0777 21.3049C55.5188 21.1692 55.9599 20.6942 56.4349 21.0674C56.7403 21.3049 56.5367 21.746 56.367 21.9835C55.9938 22.5264 55.4849 22.8318 54.8063 22.5943C54.5348 22.4586 54.2295 22.2889 54.0938 21.78Z" fill="#F4E4E2"/>
<path d="M34.7554 60.4589C35.1965 60.4589 35.5018 60.2553 35.7054 59.8821C36.9269 57.3373 38.1144 54.8265 39.3359 52.2818C39.5395 51.8746 39.5055 51.5353 39.0984 51.2639C39.1662 50.5853 39.7431 50.3817 40.2181 50.1442C43.7128 48.6513 47.1737 46.9887 50.6685 45.4958C51.3131 45.2244 51.9578 44.7155 52.7042 45.1565C51.7203 47.2602 50.7363 49.3299 50.3292 51.6371C46.6987 53.2997 43.0682 54.9283 39.4377 56.5909C39.1323 56.7266 38.793 56.8284 38.5216 56.998C38.0805 57.2695 37.1983 57.3034 37.5715 58.0838C37.8769 58.6945 38.4877 58.1856 38.8948 58.0159C42.2539 56.557 45.579 55.098 48.938 53.639C48.6327 55.3355 47.6148 56.7266 47.004 58.2874C46.7665 58.8642 46.6987 59.4749 46.5629 60.0857C44.6289 60.9678 42.7289 61.8839 40.7949 62.7661C40.3877 62.9697 39.6752 63.0376 40.0145 63.7501C40.2859 64.3269 40.7949 63.9537 41.202 63.784C42.5592 63.2411 43.8825 62.6643 45.2058 62.0875C44.5611 63.8858 44.0521 65.7519 43.0003 67.3806C42.7967 67.7199 42.8985 68.0252 43.2378 68.2288C43.3735 68.7717 43.0003 69.0092 42.5932 69.1789C41.5074 70.4682 40.8967 71.9272 40.7949 73.6237C38.8948 69.9592 37.334 66.1591 35.6715 62.3929C35.5018 62.0536 35.2643 61.7482 35.0607 61.4089C34.9929 61.1375 34.8572 60.7982 34.7554 60.4589Z" fill="#80DEEA"/>
<path d="M52.7033 45.1574C48.0889 47.0236 43.5423 49.0594 39.0635 51.2309C38.0456 51.672 36.9938 52.0791 35.9759 52.5202C35.6027 52.6898 35.1616 52.8256 34.958 52.3505C34.7205 51.8416 35.2295 51.7059 35.5688 51.5023C37.2992 50.5862 39.2332 50.0773 40.8618 48.9236C45.3066 47.295 49.5818 45.2253 53.8569 43.1895C54.0266 43.1556 54.1962 43.0877 54.3659 43.0877C55.0445 43.0538 55.8588 41.7984 56.3338 42.8841C56.6731 43.6984 55.3838 43.7324 54.8409 44.0717C54.1284 44.5128 53.4158 44.8181 52.7033 45.1574Z" fill="#6D4F44"/>
<path d="M27.7319 21.3048C29.0552 20.0494 30.7178 19.5065 32.2785 18.794C32.4482 18.7261 32.7535 18.794 32.8893 18.9297C33.0589 19.0993 32.9911 19.3708 32.7535 19.4726C31.1249 20.1851 29.5641 21.1351 27.7319 21.3048Z" fill="#77543F"/>
<path d="M34.1426 18.0142C34.2444 17.5731 34.5158 17.3016 34.9569 17.3695C35.4319 17.4373 35.6694 17.7088 35.6016 18.1838C35.5337 18.5231 35.2623 18.7606 34.889 18.7606C34.4479 18.6927 34.2104 18.4552 34.1426 18.0142Z" fill="#7A5840"/>
<path d="M42.6265 69.2486C42.6604 68.8075 43.0336 68.6039 43.2711 68.2985C45.6462 67.2467 47.9874 66.1949 50.3625 65.1431C51.1768 65.2788 51.4143 65.7877 50.7018 66.161C48.3267 67.3824 45.8498 68.4343 43.4068 69.52C43.2033 69.5879 42.8979 69.3504 42.6265 69.2486Z" fill="#6E5249"/>
</g>
</svg>
