<svg width="130" height="64" viewBox="0 0 130 64" fill="none" xmlns="http://www.w3.org/2000/svg">
<g clip-path="url(#clip0)">
<path fill-rule="evenodd" clip-rule="evenodd" d="M104.66 27.0944L104.434 27.1992C104.139 27.5483 103.617 27.5833 103.147 28.6307C102.817 29.3639 102.904 30.167 102.904 31.197C102.904 32.646 102.817 39.3498 102.956 40.6416C103.06 41.532 102.973 57.3661 102.973 58.8326C102.973 60.4911 103.008 61.9052 104.73 62.6908C105.791 63.1621 108.591 62.9352 110.121 62.9352C110.382 62.813 113.443 62.8304 113.86 62.9002C114.295 62.9701 114.817 62.9526 115.234 62.9002L116.417 62.8479C117.373 62.8479 118.539 62.7955 119.46 62.8653L123.217 62.8304C124.226 62.8653 125.321 62.8304 126.33 62.8479C127.512 62.8479 128.156 62.778 128.852 62.2543C130.312 61.137 129.93 59.1119 129.93 56.9821C129.93 52.7573 129.93 48.5151 129.93 44.2903C129.93 40.0481 129.843 36.3121 129.843 31.9302C129.843 30.9526 129.982 29.7306 129.739 28.91C129.373 27.6706 128.347 26.8675 127.043 26.8675H122.243L119.443 26.885L112.939 26.8675C112.73 26.9897 110.434 27.0072 110.226 26.8675L106.539 26.9024C105.339 26.9722 105.878 26.8326 104.66 27.0944ZM119.582 42.3525C119.547 39.5767 119.565 36.7835 119.547 34.0077C119.547 33.0126 119.321 30.778 119.791 30.0797C120.434 29.1021 121.965 29.2767 122.278 30.5336C122.434 31.1446 122.382 46.2456 122.382 47.2581C122.399 50.0339 122.417 52.8271 122.417 55.6029C122.417 56.6678 122.643 58.6231 122.208 59.4087C121.617 60.4562 120.017 60.2641 119.686 59.077C119.495 58.3438 119.599 44.43 119.582 42.3525ZM111.582 29.5036C112.191 29.3465 112.695 29.6782 112.973 30.0797C113.286 30.5336 113.234 31.197 113.252 31.8255L113.356 57.0344C113.356 58.4136 113.512 59.8102 112.226 60.0896C111.547 60.2292 111.06 59.8451 110.799 59.4785C110.469 58.9723 110.556 58.3612 110.556 57.6804L110.452 32.5413C110.434 31.0399 110.191 29.8877 111.582 29.5036ZM114.991 31.0399C114.991 28.9275 117.791 28.91 117.791 31.1272L117.895 58.1168C117.895 58.6755 117.93 59.077 117.652 59.496C116.834 60.7355 115.147 60.1245 115.095 58.6056C114.973 54.4332 115.06 50.0863 115.043 45.9139L114.991 31.0399ZM124.139 50.8719C124.069 45.2854 124.139 39.6815 124.069 34.095C124.052 33.1872 123.895 30.7431 124.278 30.1146C124.921 29.0497 126.417 29.3116 126.782 30.4289C127.008 31.1796 126.904 37.4469 126.904 38.7562C126.921 44.3252 126.956 49.8942 126.956 55.4633C126.956 56.3885 127.147 58.7278 126.747 59.4087C126.139 60.4562 124.66 60.2467 124.26 59.1468C124.052 58.5184 124.156 52.0939 124.139 50.8719ZM105.912 38.1103C105.912 36.8708 105.739 31.2668 105.965 30.4987C106.26 29.4862 107.53 29.1195 108.312 29.9575C108.904 30.6034 108.695 32.2619 108.712 33.2919L108.799 56.0219C108.799 56.9821 109.008 58.7802 108.556 59.5134C108.034 60.3863 106.765 60.4038 106.208 59.4611C105.86 58.85 105.999 56.7202 105.999 55.8648L105.912 38.1103Z" fill="#FF5F5F"/>
<path fill-rule="evenodd" clip-rule="evenodd" d="M49.3916 1.1699V26.9549C49.3916 27.339 50.0873 27.1994 50.8351 27.1994C51.3916 27.1994 51.9481 27.1994 52.522 27.1994C52.7307 26.3265 53.0786 25.4885 53.3394 24.6331L58.2264 9.28774C58.2959 9.0957 58.3481 8.90367 58.4351 8.69417L58.8699 7.36739C58.9046 7.26264 58.922 7.21027 58.9742 7.07061L59.1133 26.0821C59.1133 27.4787 58.6264 27.1994 61.8264 27.1994V1.1699C61.8264 0.977862 61.7742 0.925489 61.5829 0.925489C58.0003 0.925489 58.609 0.628708 58.1568 1.97295L52.3307 19.483C52.2786 19.6402 52.2786 19.6925 52.2438 19.7973C52.1742 20.0068 52.1742 19.9719 52.0699 20.1115V0.925489H49.6699C49.4438 0.925489 49.3916 0.977862 49.3916 1.1699Z" fill="#F05F5F"/>
<path fill-rule="evenodd" clip-rule="evenodd" d="M104.434 27.1993L104.66 27.0946L104.678 0.907985H101.391C101.2 1.7285 97.8431 11.3302 97.3562 12.7618C96.8344 14.3679 95.6344 18.4181 95.1127 19.7449L94.9735 20.0067C94.9735 19.3259 95.0431 1.18731 94.9388 1.01273C94.7996 0.785781 92.817 0.890528 92.3301 0.890528V27.1469H95.3736L101.147 9.16549C101.252 8.85125 101.843 6.82615 102.017 6.58174V27.1469L104.434 27.1993Z" fill="#313131"/>
<path fill-rule="evenodd" clip-rule="evenodd" d="M34.1909 1.1697V26.9548C34.1909 27.1468 34.2431 27.1992 34.4344 27.1992H36.9909C37.1822 27.1992 37.2344 27.1468 37.2344 26.9548V3.6487H43.5474V27.1817H46.504V1.1697C46.504 0.977666 46.4518 0.925293 46.2605 0.925293H34.4344C34.2605 0.925293 34.1909 0.977666 34.1909 1.1697Z" fill="#F05F5F"/>
<path fill-rule="evenodd" clip-rule="evenodd" d="M3.47852 26.169L4.55678 26.2214C5.56547 26.3436 5.73939 26.6928 6.43504 26.9721V19.1685C6.43504 18.0337 6.52199 18.2432 7.33939 16.8641L7.94808 15.869L12.7655 25.7151C13.009 26.2214 13.2176 26.7102 13.4611 27.1816H16.522L10.9568 15.4325C10.6785 14.8739 10.3655 14.3153 10.122 13.7741C10.0872 13.7042 9.77417 12.971 9.77417 12.9535C9.75678 12.7266 10.4003 11.6791 10.5568 11.3824L11.9133 8.95573C12.7307 7.61149 13.722 5.58639 14.5742 4.15486C14.835 3.71841 16.2263 1.23942 16.2959 0.907722H13.3394L8.20895 10.2301C7.98286 10.6491 6.62634 13.2329 6.43504 13.3725V1.81552C6.45243 0.645856 6.81765 0.92518 3.47852 0.92518V26.169Z" fill="#F05F5F"/>
<path fill-rule="evenodd" clip-rule="evenodd" d="M78.5039 27.1817H81.4604V16.8991C85.0257 16.8991 88.0344 17.1435 89.5996 13.6694C90.3474 12.0109 90.1039 8.92093 90.1039 6.87837C90.1039 2.9853 87.9126 0.942749 84.017 0.942749H78.5039V27.1817ZM83.9474 14.1757H81.4604V3.6487C84.1213 3.6487 87.1474 3.03768 87.1474 6.77363V11.1031C87.1474 13.2155 86.0517 14.1757 83.9474 14.1757Z" fill="#313131"/>
<path fill-rule="evenodd" clip-rule="evenodd" d="M20.1215 24.5283H19.565V27.1819C19.6519 27.1994 19.7911 27.2692 19.8085 27.2692C25.3041 27.2692 25.8606 24.4585 27.0258 19.902C27.1824 19.2735 27.3737 18.6974 27.5302 17.9991L29.0954 12.2555C29.4606 11.016 29.8258 9.74163 30.1563 8.4323C30.4867 7.0706 30.8867 5.91839 31.2172 4.5916L31.9824 1.746C32.278 0.71599 32.7128 0.925483 29.3215 0.925483C28.9911 0.925483 28.8172 2.09515 28.6606 2.67125C28.0867 4.62652 27.2172 8.29264 26.6954 10.405L25.5476 15.3456C25.4606 15.6773 25.3389 16.0788 25.3389 16.4279C25.078 16.2359 25.2172 16.3406 25.0258 15.5376L23.1128 8.62434C22.7128 7.33247 22.3824 6.00568 21.965 4.71381L21.1302 1.78091C20.8172 0.681075 21.3563 0.925483 18.1389 0.925483C17.7737 0.925483 17.9998 1.23972 18.0867 1.5365C18.1737 1.83328 18.2258 2.04278 18.3128 2.35702L19.8085 7.12297C20.6085 9.6718 21.478 12.7444 22.2954 15.1535L23.8258 19.9719C23.9824 20.4607 23.6172 21.0368 23.4606 21.5081C22.9041 23.0444 22.7128 24.5283 20.1215 24.5283Z" fill="#F05F5F"/>
<path fill-rule="evenodd" clip-rule="evenodd" d="M63.791 1.1697V3.42175C63.791 3.61378 63.8432 3.66615 64.0345 3.66615H68.591V26.9548C68.591 27.1468 68.6432 27.1992 68.8345 27.1992H71.391C71.5823 27.1992 71.6345 27.1468 71.6345 26.9548V3.6487H76.4345V1.1697C76.4345 0.977666 76.3823 0.925293 76.191 0.925293H64.0345C63.8432 0.925293 63.791 0.977666 63.791 1.1697Z" fill="#313131"/>
<path fill-rule="evenodd" clip-rule="evenodd" d="M119.583 42.3526C119.6 44.4126 119.496 58.3264 119.704 59.0596C120.035 60.2467 121.635 60.4562 122.226 59.3913C122.661 58.6057 122.435 56.6504 122.435 55.5855C122.435 52.8097 122.417 50.0165 122.4 47.2407C122.4 46.2107 122.435 31.1272 122.296 30.5162C121.983 29.2593 120.452 29.0672 119.809 30.0623C119.339 30.7781 119.565 32.9952 119.565 33.9903C119.548 36.7835 119.548 39.5768 119.583 42.3526Z" fill="#FF5151"/>
<path fill-rule="evenodd" clip-rule="evenodd" d="M124.139 50.8719C124.156 52.0765 124.034 58.5184 124.261 59.1468C124.661 60.2467 126.139 60.4562 126.748 59.4087C127.148 58.7279 126.956 56.3885 126.956 55.4633C126.939 49.8943 126.921 44.3252 126.904 38.7562C126.904 37.4469 127.026 31.1796 126.782 30.4289C126.434 29.3116 124.921 29.0497 124.278 30.1147C123.895 30.7606 124.052 33.1872 124.069 34.095C124.156 39.6815 124.087 45.2854 124.139 50.8719Z" fill="#FF5151"/>
<path fill-rule="evenodd" clip-rule="evenodd" d="M114.991 31.0399L115.043 45.8964C115.061 50.0688 114.974 54.4158 115.096 58.5882C115.148 60.107 116.817 60.718 117.652 59.4785C117.93 59.0596 117.913 58.658 117.896 58.0994L117.791 31.1097C117.791 28.8926 114.991 28.9275 114.991 31.0399Z" fill="#FF5151"/>
<path fill-rule="evenodd" clip-rule="evenodd" d="M105.913 38.1104L105.982 55.8649C105.982 56.7203 105.843 58.8502 106.191 59.4612C106.748 60.4214 108.017 60.3864 108.539 59.5136C108.991 58.7803 108.782 56.9822 108.782 56.022L108.695 33.2921C108.695 32.2621 108.887 30.6036 108.295 29.9576C107.53 29.1371 106.243 29.5037 105.948 30.4988C105.756 31.2495 105.913 36.8709 105.913 38.1104Z" fill="#FF5151"/>
<path fill-rule="evenodd" clip-rule="evenodd" d="M111.582 29.5037C110.208 29.8703 110.434 31.0225 110.452 32.5588L110.556 57.6979C110.556 58.3788 110.469 58.9898 110.8 59.4961C111.043 59.8802 111.548 60.2642 112.226 60.1071C113.513 59.8278 113.356 58.4137 113.356 57.052L113.252 31.8431C113.252 31.2146 113.304 30.5512 112.974 30.0973C112.695 29.6783 112.174 29.3466 111.582 29.5037Z" fill="#FF5151"/>
<path fill-rule="evenodd" clip-rule="evenodd" d="M119.461 26.885L122.261 26.8675C122.261 23.0443 122.261 19.2036 122.261 15.3803C122.261 13.4775 122.261 11.5746 122.261 9.67167C122.261 8.62421 122.4 4.60893 122.209 3.89316C122.017 3.80588 119.687 3.80588 119.513 3.89316C119.322 4.85334 119.478 8.36234 119.478 9.60184C119.478 11.5222 119.478 13.46 119.478 15.3803C119.461 19.221 119.461 23.0443 119.461 26.885Z" fill="#313131"/>
<path fill-rule="evenodd" clip-rule="evenodd" d="M110.243 26.8676C110.452 27.0073 112.765 26.9898 112.956 26.8676L112.991 3.85834L110.191 3.89325C110.191 7.71649 110.191 11.5572 110.191 15.3804C110.191 17.2833 110.191 19.1862 110.191 21.0891C110.191 22.2064 110.035 26.0471 110.243 26.8676Z" fill="#313131"/>
<path fill-rule="evenodd" clip-rule="evenodd" d="M106.834 2.07757C110 2.18231 113.339 2.07757 116.521 2.07757C118.156 2.07757 119.774 2.07757 121.408 2.07757C122.591 2.07757 125.287 2.21723 126.295 2.02519C126.295 1.13485 125.843 0.541287 125.234 0.227048C124.591 -0.104649 123.356 0.0350131 122.452 0.0350131H110.765C109.217 0.0350131 106.834 -0.453803 106.834 2.07757Z" fill="#00A9AF"/>
<path fill-rule="evenodd" clip-rule="evenodd" d="M110.191 3.89324L112.991 3.85833L119.512 3.89324C119.686 3.80595 122.017 3.80595 122.208 3.89324C123.112 3.89324 124.33 3.99799 124.991 3.75358C125.773 3.4568 126.069 2.91561 126.26 2.04272C125.252 2.23476 122.556 2.0951 121.373 2.0951C119.738 2.0951 118.121 2.0951 116.486 2.0951C113.304 2.0951 109.965 2.19984 106.799 2.0951C106.799 2.8807 107.251 3.38697 107.756 3.66629C108.365 3.98053 109.286 3.9107 110.191 3.89324Z" fill="#00B2C0"/>
<path fill-rule="evenodd" clip-rule="evenodd" d="M3.59935 27.6532H3.68631C7.33848 27.5135 7.54718 32.4017 4.31239 32.8382L3.52979 32.8032L3.87761 32.9254C3.99935 32.9429 4.17326 32.9254 4.31239 32.9254L4.92109 38.1104C4.9037 38.2151 4.71239 38.1977 5.00805 38.1977C5.12979 37.9533 5.18196 37.8136 5.3037 37.5343C5.51239 37.0455 5.96457 36.2948 6.26022 35.5266C7.35587 32.7159 9.04283 29.9402 6.97326 27.4612C6.78196 27.2168 6.59065 27.1469 6.43413 26.9724C5.75587 26.693 5.58196 26.3613 4.55587 26.2217L3.52979 26.2042C3.56457 26.6581 3.73848 27.2168 3.59935 27.6532Z" fill="#FE5454"/>
<path fill-rule="evenodd" clip-rule="evenodd" d="M4.92146 38.1102L4.31276 32.9253C4.17363 32.9253 4.01711 32.9427 3.87798 32.9253L3.53015 32.8031C2.34754 32.6459 1.37363 31.5112 1.39102 30.1669C1.4258 28.7878 2.39972 27.9149 3.58233 27.653C3.73885 27.2166 3.54754 26.6754 3.51276 26.204L4.53885 26.2215L3.46059 26.1691C2.92146 26.3437 2.4345 26.2913 1.68667 26.85C-0.174196 28.2291 -0.452457 30.1495 0.556239 32.192C1.37363 33.8331 3.37363 36.3819 4.48667 37.796C4.67798 38.0229 4.66059 38.0055 4.92146 38.1102Z" fill="#FE5F5F"/>
<path fill-rule="evenodd" clip-rule="evenodd" d="M3.53015 32.803L4.31276 32.838L4.15623 31.389C2.53884 31.4064 2.59102 29.5035 3.58232 29.2417C3.72145 29.0671 3.56493 29.1544 3.89537 29.0846L3.70406 27.653H3.6171C2.43449 27.9149 1.44319 28.7878 1.4258 30.1669C1.37362 31.4937 2.36493 32.6459 3.53015 32.803Z" fill="#FC4444"/>
<path fill-rule="evenodd" clip-rule="evenodd" d="M3.87813 29.0673C4.55639 29.1895 5.04335 29.3467 5.1303 30.0973C5.21726 30.848 4.74769 31.2321 4.139 31.3718L4.29552 32.8208C7.5303 32.3843 7.32161 27.4961 3.66943 27.6358L3.87813 29.0673Z" fill="#F93C3C"/>
<path fill-rule="evenodd" clip-rule="evenodd" d="M51.1475 31.0049C51.5822 32.419 52.904 31.8254 54.0518 31.5461C54.5214 31.4239 55.3214 31.2842 55.704 31.1096C55.9127 31.0223 56.1561 30.8478 56.2779 30.6383C56.3127 30.5684 56.417 30.2891 56.4344 30.2193C56.4518 30.1495 56.4518 30.0796 56.4518 30.0098L56.3648 29.7479L51.1475 31.0049Z" fill="#313131"/>
<path fill-rule="evenodd" clip-rule="evenodd" d="M65.2344 29.8527L59.8779 29.5908C59.8779 31.162 61.3562 30.7954 62.4518 30.9351C62.7475 30.97 64.0518 30.9874 64.3301 30.9351C64.7997 30.8652 65.2171 30.4113 65.2344 29.8527Z" fill="#323232"/>
<path fill-rule="evenodd" clip-rule="evenodd" d="M92.8345 47.5722C93.4606 47.9737 94.4866 48.4451 95.2171 48.8117C95.8779 49.1434 96.9736 49.7719 97.6345 50.0163C98.2258 48.5847 96.5736 48.1658 95.0779 47.4325C94.104 46.9437 93.6171 46.5247 92.8345 47.5722Z" fill="#454545"/>
<path fill-rule="evenodd" clip-rule="evenodd" d="M73.9478 32.6808C73.6174 32.6459 69.1652 30.8303 69.0609 30.7255C68.9391 30.7954 68.6609 30.8652 68.9044 31.5286C69.2 32.3491 69.8261 32.3316 70.9044 32.8204C72.0522 33.3093 73.4087 34.025 73.9478 32.6808Z" fill="#313131"/>
<path fill-rule="evenodd" clip-rule="evenodd" d="M16.8 47.904L16.7652 48.3928L11.5479 47.293C11.5479 48.8642 12.4 48.6721 14.1565 49.0562C14.6261 49.1609 15.5478 49.4577 16.0522 49.3006C16.5044 49.1435 17.0087 48.515 16.8 47.904Z" fill="#323232"/>
<path fill-rule="evenodd" clip-rule="evenodd" d="M35.3218 38.9483C35.4957 39.4371 36.1913 39.7165 36.8348 39.4721C37.0261 39.4022 37.3566 39.1753 37.5479 39.0531C39.1305 38.0231 40.6957 37.7437 39.9305 36.1725C39.7566 36.417 37.8783 37.4644 37.6348 37.6041C36.9218 38.0056 36.0522 38.6166 35.3218 38.9483Z" fill="#323232"/>
<path fill-rule="evenodd" clip-rule="evenodd" d="M80.8347 38.8436C80.4695 38.669 80.0521 38.2849 79.7217 38.0231C79.3391 37.7263 79.0608 37.4993 78.6782 37.22C78.313 36.9407 76.7999 35.8408 76.626 35.5441C75.6347 36.7137 77.2347 37.5692 77.9652 38.1802C78.1913 38.3722 78.3652 38.4944 78.5913 38.669C78.8 38.8261 79.0608 39.0705 79.2695 39.1927C79.513 39.3324 79.7913 39.4546 80.1217 39.3673C80.4174 39.28 80.7478 39.1055 80.8347 38.8436Z" fill="#313131"/>
<path fill-rule="evenodd" clip-rule="evenodd" d="M26.9912 43.9761C27.9825 45.2505 28.7477 44.3602 29.9303 43.6968L31.339 42.8588C31.739 42.5097 31.9651 41.986 31.7564 41.5146C31.6695 41.3226 31.7043 41.3924 31.6347 41.3226C30.9564 41.6194 29.9999 42.2653 29.3216 42.6668C28.8695 42.9461 27.4086 43.8888 26.9912 43.9761Z" fill="#323232"/>
<path fill-rule="evenodd" clip-rule="evenodd" d="M42.9907 34.7234C43.1125 35.2471 43.7559 35.5614 44.3472 35.3868L47.2516 33.9552C47.7386 33.6759 48.069 33.0823 47.7907 32.3666L42.9907 34.7234Z" fill="#313131"/>
<path fill-rule="evenodd" clip-rule="evenodd" d="M19.7212 47.7121C20.2603 49.1436 21.9821 47.9739 22.6081 47.6597C23.356 47.2756 24.3994 47.0312 24.6429 46.3155C24.6951 46.1583 24.7125 46.0012 24.7125 45.8092C24.7125 45.6695 24.7125 45.6346 24.6603 45.5299C24.5734 45.3029 24.6081 45.4251 24.5212 45.3378C24.3647 45.6172 22.5386 46.3853 22.156 46.5599C21.4603 46.8916 20.3995 47.52 19.7212 47.7121Z" fill="#323232"/>
<path fill-rule="evenodd" clip-rule="evenodd" d="M19.7213 47.712C20.3996 47.52 21.4604 46.8915 22.1561 46.5598C22.5387 46.3853 24.3648 45.6171 24.5213 45.3378C24.3126 44.849 23.7213 44.622 23.1822 44.7792L21.7039 45.46C21.2343 45.687 20.7126 45.9314 20.2604 46.1758C19.8256 46.4202 19.3735 46.9788 19.7213 47.712Z" fill="#454545"/>
<path fill-rule="evenodd" clip-rule="evenodd" d="M97.6342 50.0163C96.9733 49.7894 95.8777 49.1435 95.2168 48.8118C94.4864 48.4452 93.4777 47.9738 92.8342 47.5723C92.2255 48.9863 93.6342 49.3529 94.6951 49.8941C95.9298 50.5052 96.8342 51.2908 97.6342 50.0163Z" fill="#313131"/>
<path fill-rule="evenodd" clip-rule="evenodd" d="M88.5388 45.2505C87.9649 44.7443 87.0083 44.1856 86.3475 43.7317C85.9823 43.4873 85.617 43.2254 85.2518 42.981C84.904 42.7541 84.4518 42.4922 84.191 42.1954C83.8605 42.4573 83.7388 43.1905 84.3649 43.7841L87.0083 45.6171C87.5475 45.9139 88.3127 45.7917 88.5388 45.2505Z" fill="#313131"/>
<path fill-rule="evenodd" clip-rule="evenodd" d="M8.92173 45.2854C8.60869 45.1807 8.88695 45.3553 8.62608 45.0759L5.56521 41.1479C5.11304 41.3051 4.86956 42.1256 5.26956 42.7191L7.33912 45.3029C7.80869 45.7568 8.50434 45.7393 8.92173 45.2854Z" fill="#313131"/>
<path fill-rule="evenodd" clip-rule="evenodd" d="M76.626 35.5265C76.8173 35.8233 78.3129 36.9231 78.6782 37.2024C79.0434 37.4817 79.339 37.7087 79.7217 38.0055C80.0521 38.2673 80.4695 38.6514 80.8347 38.826C81.3217 38.4245 81.0608 37.5865 80.6956 37.2722C80.5564 37.15 80.5564 37.1675 80.4173 37.0628L79.4608 36.3295C79.0434 36.0153 78.6956 35.6836 78.2434 35.3868C77.6347 34.9678 77.1303 35.0377 76.626 35.5265Z" fill="#454545"/>
<path fill-rule="evenodd" clip-rule="evenodd" d="M35.3213 38.9482C36.0517 38.634 36.9213 38.0229 37.617 37.604C37.8604 37.4643 39.7561 36.4168 39.9126 36.1724C38.9039 35.1773 38.5561 35.7185 37.0604 36.574C36.6256 36.8358 36.1039 37.0977 35.7039 37.377C35.2517 37.7087 34.9387 38.2324 35.3213 38.9482Z" fill="#454545"/>
<path fill-rule="evenodd" clip-rule="evenodd" d="M59.8779 29.5908L65.2344 29.8527C65.2344 28.5259 63.9475 28.5433 62.591 28.5608C62.0171 28.5608 61.2345 28.4037 60.7823 28.5084C60.3127 28.6132 59.8953 29.0147 59.8779 29.5908Z" fill="#454545"/>
<path fill-rule="evenodd" clip-rule="evenodd" d="M51.1474 31.005L56.3474 29.7481C56.2256 28.2816 54.1213 29.0847 53.4952 29.2243C52.643 29.4164 51.7039 29.4862 51.3039 30.0798C51.0952 30.4289 51.1474 30.4638 51.1474 31.005Z" fill="#454545"/>
<path fill-rule="evenodd" clip-rule="evenodd" d="M42.9915 34.7236L47.7914 32.3843C47.6349 32.1573 47.5654 32.0177 47.3045 31.8605C47.0262 31.7034 46.7306 31.651 46.4175 31.7558C46.0001 31.8955 45.3045 32.297 44.9045 32.489C43.9306 32.9778 43.1828 33.1349 42.9045 33.8507C42.8349 34.0078 42.8002 34.0427 42.8349 34.3221C42.8697 34.5839 42.9393 34.6363 42.9915 34.7236Z" fill="#454545"/>
<path fill-rule="evenodd" clip-rule="evenodd" d="M11.5649 47.2931L16.7823 48.3929L16.8171 47.9041C16.678 47.3803 16.3823 47.101 15.8606 46.9788C15.3041 46.8566 13.0432 46.3504 12.6258 46.3678C12.3475 46.3853 12.1041 46.49 11.9302 46.6471C11.7041 46.8392 11.6693 47.0312 11.5649 47.2931Z" fill="#454545"/>
<path fill-rule="evenodd" clip-rule="evenodd" d="M69.0778 30.7084C69.1647 30.8306 73.6343 32.6462 73.9647 32.6637C74.156 32.0352 73.9125 31.5114 73.4778 31.267C73.2865 31.1623 72.9734 31.075 72.7299 30.9703C72.4517 30.8481 72.1908 30.7433 71.9473 30.6386L70.7821 30.2021C70.3125 30.0275 69.6343 29.8006 69.1647 30.3418C68.9734 30.5862 69.0604 30.6386 69.0778 30.7084Z" fill="#454545"/>
<path fill-rule="evenodd" clip-rule="evenodd" d="M26.9911 43.976C27.4085 43.8888 28.8694 42.9286 29.3041 42.6667C29.9824 42.2652 30.9389 41.6193 31.6172 41.3225C31.5476 41.0257 31.3737 40.9035 31.0954 40.7813C30.4172 40.4845 30.0694 40.8511 29.4954 41.1828L27.3911 42.4398C26.9215 42.7715 26.7476 43.3825 26.9911 43.976Z" fill="#454545"/>
<path fill-rule="evenodd" clip-rule="evenodd" d="M5.56543 41.1479L8.6263 45.0584C8.88717 45.3552 8.60891 45.1631 8.92195 45.2679C9.86108 44.2903 8.83499 43.4348 8.06978 42.4747C7.75673 42.0731 7.16543 41.1828 6.74804 40.9908C6.67847 40.9558 6.43499 40.8686 6.33065 40.8686C6.0176 40.8336 5.72195 40.9384 5.56543 41.1479Z" fill="#454545"/>
<path fill-rule="evenodd" clip-rule="evenodd" d="M84.1909 42.1955C84.4518 42.4923 84.904 42.7367 85.2518 42.9811C85.617 43.2255 85.9822 43.4874 86.3474 43.7318C86.9909 44.1857 87.9648 44.7443 88.5387 45.2506C88.8866 44.9364 88.8866 44.1508 88.3822 43.6969L87.0605 42.7891C86.5909 42.5097 86.2431 42.213 85.7735 41.9162C85.4083 41.6892 84.8518 41.5845 84.4518 41.8987C84.2431 42.0384 84.3127 41.986 84.1909 42.1955Z" fill="#454545"/>
<path fill-rule="evenodd" clip-rule="evenodd" d="M123.217 62.8303L119.461 62.8652C119.461 63.4239 119.548 63.7556 119.948 63.8778C120.139 63.9302 120.313 63.9302 120.47 63.9476C122.365 63.9825 123.217 64.3491 123.217 62.8303Z" fill="#2E2E2E"/>
<path fill-rule="evenodd" clip-rule="evenodd" d="M113.861 62.8829C113.461 62.8131 110.383 62.7956 110.122 62.9178C110.035 63.4939 110.191 63.7732 110.626 63.8954C110.748 63.9304 111.287 63.9653 111.774 63.9653C113.078 63.9653 113.861 64.2446 113.861 62.8829Z" fill="#2F2F2F"/>
<path fill-rule="evenodd" clip-rule="evenodd" d="M4.13934 31.3715C4.73065 31.2318 5.2176 30.8478 5.13065 30.0971C5.04369 29.3464 4.55673 29.1893 3.87847 29.0671C3.56543 29.1369 3.70456 29.0322 3.56543 29.2242L3.86108 29.1893L4.13934 31.3715Z" fill="#FE5454"/>
<path fill-rule="evenodd" clip-rule="evenodd" d="M4.13886 31.3716L3.8606 29.1894L3.56495 29.2243C2.57365 29.4862 2.52147 31.3891 4.13886 31.3716Z" fill="#FE5F5F"/>
<path fill-rule="evenodd" clip-rule="evenodd" d="M104.66 27.0944L104.434 27.1992C104.139 27.5483 103.617 27.5833 103.147 28.6307C102.817 29.3639 102.904 30.167 102.904 31.197C102.904 32.646 102.817 39.3498 102.956 40.6416C103.06 41.532 102.973 57.3661 102.973 58.8326C102.973 60.4911 103.008 61.9052 104.73 62.6908C105.791 63.1621 108.591 62.9352 110.121 62.9352C110.382 62.813 113.443 62.8304 113.86 62.9002C114.295 62.9701 114.817 62.9526 115.234 62.9002L116.417 62.8479C117.373 62.8479 118.539 62.7955 119.46 62.8653L123.217 62.8304C124.226 62.8653 125.321 62.8304 126.33 62.8479C127.512 62.8479 128.156 62.778 128.852 62.2543C130.312 61.137 129.93 59.1119 129.93 56.9821C129.93 52.7573 129.93 48.5151 129.93 44.2903C129.93 40.0481 129.843 36.3121 129.843 31.9302C129.843 30.9526 129.982 29.7306 129.739 28.91C129.373 27.6706 128.347 26.8675 127.043 26.8675H122.243L119.443 26.885L112.939 26.8675C112.73 26.9897 110.434 27.0072 110.226 26.8675L106.539 26.9024C105.339 26.9722 105.878 26.8326 104.66 27.0944ZM119.582 42.3525C119.547 39.5767 119.565 36.7835 119.547 34.0077C119.547 33.0126 119.321 30.778 119.791 30.0797C120.434 29.1021 121.965 29.2767 122.278 30.5336C122.434 31.1446 122.382 46.2456 122.382 47.2581C122.399 50.0339 122.417 52.8271 122.417 55.6029C122.417 56.6678 122.643 58.6231 122.208 59.4087C121.617 60.4562 120.017 60.2641 119.686 59.077C119.495 58.3438 119.599 44.43 119.582 42.3525ZM111.582 29.5036C112.191 29.3465 112.695 29.6782 112.973 30.0797C113.286 30.5336 113.234 31.197 113.252 31.8255L113.356 57.0344C113.356 58.4136 113.512 59.8102 112.226 60.0896C111.547 60.2292 111.06 59.8451 110.799 59.4785C110.469 58.9723 110.556 58.3612 110.556 57.6804L110.452 32.5413C110.434 31.0399 110.191 29.8877 111.582 29.5036ZM114.991 31.0399C114.991 28.9275 117.791 28.91 117.791 31.1272L117.895 58.1168C117.895 58.6755 117.93 59.077 117.652 59.496C116.834 60.7355 115.147 60.1245 115.095 58.6056C114.973 54.4332 115.06 50.0863 115.043 45.9139L114.991 31.0399ZM124.139 50.8719C124.069 45.2854 124.139 39.6815 124.069 34.095C124.052 33.1872 123.895 30.7431 124.278 30.1146C124.921 29.0497 126.417 29.3116 126.782 30.4289C127.008 31.1796 126.904 37.4469 126.904 38.7562C126.921 44.3252 126.956 49.8942 126.956 55.4633C126.956 56.3885 127.147 58.7278 126.747 59.4087C126.139 60.4562 124.66 60.2467 124.26 59.1468C124.052 58.5184 124.156 52.0939 124.139 50.8719ZM105.912 38.1103C105.912 36.8708 105.739 31.2668 105.965 30.4987C106.26 29.4862 107.53 29.1195 108.312 29.9575C108.904 30.6034 108.695 32.2619 108.712 33.2919L108.799 56.0219C108.799 56.9821 109.008 58.7802 108.556 59.5134C108.034 60.3863 106.765 60.4038 106.208 59.4611C105.86 58.85 105.999 56.7202 105.999 55.8648L105.912 38.1103Z" fill="#FF5F5F"/>
<path fill-rule="evenodd" clip-rule="evenodd" d="M49.3916 1.1699V26.9549C49.3916 27.339 50.0873 27.1994 50.8351 27.1994C51.3916 27.1994 51.9481 27.1994 52.522 27.1994C52.7307 26.3265 53.0786 25.4885 53.3394 24.6331L58.2264 9.28774C58.2959 9.0957 58.3481 8.90367 58.4351 8.69417L58.8699 7.36739C58.9046 7.26264 58.922 7.21027 58.9742 7.07061L59.1133 26.0821C59.1133 27.4787 58.6264 27.1994 61.8264 27.1994V1.1699C61.8264 0.977862 61.7742 0.925489 61.5829 0.925489C58.0003 0.925489 58.609 0.628708 58.1568 1.97295L52.3307 19.483C52.2786 19.6402 52.2786 19.6925 52.2438 19.7973C52.1742 20.0068 52.1742 19.9719 52.0699 20.1115V0.925489H49.6699C49.4438 0.925489 49.3916 0.977862 49.3916 1.1699Z" fill="#F05F5F"/>
<path fill-rule="evenodd" clip-rule="evenodd" d="M104.434 27.1993L104.66 27.0946L104.678 0.907985H101.391C101.2 1.7285 97.8431 11.3302 97.3562 12.7618C96.8344 14.3679 95.6344 18.4181 95.1127 19.7449L94.9735 20.0067C94.9735 19.3259 95.0431 1.18731 94.9388 1.01273C94.7996 0.785781 92.817 0.890528 92.3301 0.890528V27.1469H95.3736L101.147 9.16549C101.252 8.85125 101.843 6.82615 102.017 6.58174V27.1469L104.434 27.1993Z" fill="#313131"/>
<path fill-rule="evenodd" clip-rule="evenodd" d="M34.1909 1.1697V26.9548C34.1909 27.1468 34.2431 27.1992 34.4344 27.1992H36.9909C37.1822 27.1992 37.2344 27.1468 37.2344 26.9548V3.6487H43.5474V27.1817H46.504V1.1697C46.504 0.977666 46.4518 0.925293 46.2605 0.925293H34.4344C34.2605 0.925293 34.1909 0.977666 34.1909 1.1697Z" fill="#F05F5F"/>
<path fill-rule="evenodd" clip-rule="evenodd" d="M3.47852 26.169L4.55678 26.2214C5.56547 26.3436 5.73939 26.6928 6.43504 26.9721V19.1685C6.43504 18.0337 6.52199 18.2432 7.33939 16.8641L7.94808 15.869L12.7655 25.7151C13.009 26.2214 13.2176 26.7102 13.4611 27.1816H16.522L10.9568 15.4325C10.6785 14.8739 10.3655 14.3153 10.122 13.7741C10.0872 13.7042 9.77417 12.971 9.77417 12.9535C9.75678 12.7266 10.4003 11.6791 10.5568 11.3824L11.9133 8.95573C12.7307 7.61149 13.722 5.58639 14.5742 4.15486C14.835 3.71841 16.2263 1.23942 16.2959 0.907722H13.3394L8.20895 10.2301C7.98286 10.6491 6.62634 13.2329 6.43504 13.3725V1.81552C6.45243 0.645856 6.81765 0.92518 3.47852 0.92518V26.169Z" fill="#F05F5F"/>
<path fill-rule="evenodd" clip-rule="evenodd" d="M78.5039 27.1817H81.4604V16.8991C85.0257 16.8991 88.0344 17.1435 89.5996 13.6694C90.3474 12.0109 90.1039 8.92093 90.1039 6.87837C90.1039 2.9853 87.9126 0.942749 84.017 0.942749H78.5039V27.1817ZM83.9474 14.1757H81.4604V3.6487C84.1213 3.6487 87.1474 3.03768 87.1474 6.77363V11.1031C87.1474 13.2155 86.0517 14.1757 83.9474 14.1757Z" fill="#313131"/>
<path fill-rule="evenodd" clip-rule="evenodd" d="M20.1215 24.5283H19.565V27.1819C19.6519 27.1994 19.7911 27.2692 19.8085 27.2692C25.3041 27.2692 25.8606 24.4585 27.0258 19.902C27.1824 19.2735 27.3737 18.6974 27.5302 17.9991L29.0954 12.2555C29.4606 11.016 29.8258 9.74163 30.1563 8.4323C30.4867 7.0706 30.8867 5.91839 31.2172 4.5916L31.9824 1.746C32.278 0.71599 32.7128 0.925483 29.3215 0.925483C28.9911 0.925483 28.8172 2.09515 28.6606 2.67125C28.0867 4.62652 27.2172 8.29264 26.6954 10.405L25.5476 15.3456C25.4606 15.6773 25.3389 16.0788 25.3389 16.4279C25.078 16.2359 25.2172 16.3406 25.0258 15.5376L23.1128 8.62434C22.7128 7.33247 22.3824 6.00568 21.965 4.71381L21.1302 1.78091C20.8172 0.681075 21.3563 0.925483 18.1389 0.925483C17.7737 0.925483 17.9998 1.23972 18.0867 1.5365C18.1737 1.83328 18.2258 2.04278 18.3128 2.35702L19.8085 7.12297C20.6085 9.6718 21.478 12.7444 22.2954 15.1535L23.8258 19.9719C23.9824 20.4607 23.6172 21.0368 23.4606 21.5081C22.9041 23.0444 22.7128 24.5283 20.1215 24.5283Z" fill="#F05F5F"/>
<path fill-rule="evenodd" clip-rule="evenodd" d="M63.791 1.1697V3.42175C63.791 3.61378 63.8432 3.66615 64.0345 3.66615H68.591V26.9548C68.591 27.1468 68.6432 27.1992 68.8345 27.1992H71.391C71.5823 27.1992 71.6345 27.1468 71.6345 26.9548V3.6487H76.4345V1.1697C76.4345 0.977666 76.3823 0.925293 76.191 0.925293H64.0345C63.8432 0.925293 63.791 0.977666 63.791 1.1697Z" fill="#313131"/>
<path fill-rule="evenodd" clip-rule="evenodd" d="M119.583 42.3526C119.6 44.4126 119.496 58.3264 119.704 59.0596C120.035 60.2467 121.635 60.4562 122.226 59.3913C122.661 58.6057 122.435 56.6504 122.435 55.5855C122.435 52.8097 122.417 50.0165 122.4 47.2407C122.4 46.2107 122.435 31.1272 122.296 30.5162C121.983 29.2593 120.452 29.0672 119.809 30.0623C119.339 30.7781 119.565 32.9952 119.565 33.9903C119.548 36.7835 119.548 39.5768 119.583 42.3526Z" fill="#FF5151"/>
<path fill-rule="evenodd" clip-rule="evenodd" d="M124.139 50.8719C124.156 52.0765 124.034 58.5184 124.261 59.1468C124.661 60.2467 126.139 60.4562 126.748 59.4087C127.148 58.7279 126.956 56.3885 126.956 55.4633C126.939 49.8943 126.921 44.3252 126.904 38.7562C126.904 37.4469 127.026 31.1796 126.782 30.4289C126.434 29.3116 124.921 29.0497 124.278 30.1147C123.895 30.7606 124.052 33.1872 124.069 34.095C124.156 39.6815 124.087 45.2854 124.139 50.8719Z" fill="#FF5151"/>
<path fill-rule="evenodd" clip-rule="evenodd" d="M114.991 31.0399L115.043 45.8964C115.061 50.0688 114.974 54.4158 115.096 58.5882C115.148 60.107 116.817 60.718 117.652 59.4785C117.93 59.0596 117.913 58.658 117.896 58.0994L117.791 31.1097C117.791 28.8926 114.991 28.9275 114.991 31.0399Z" fill="#FF5151"/>
<path fill-rule="evenodd" clip-rule="evenodd" d="M105.913 38.1104L105.982 55.8649C105.982 56.7203 105.843 58.8502 106.191 59.4612C106.748 60.4214 108.017 60.3864 108.539 59.5136C108.991 58.7803 108.782 56.9822 108.782 56.022L108.695 33.2921C108.695 32.2621 108.887 30.6036 108.295 29.9576C107.53 29.1371 106.243 29.5037 105.948 30.4988C105.756 31.2495 105.913 36.8709 105.913 38.1104Z" fill="#FF5151"/>
<path fill-rule="evenodd" clip-rule="evenodd" d="M111.582 29.5037C110.208 29.8703 110.434 31.0225 110.452 32.5588L110.556 57.6979C110.556 58.3788 110.469 58.9898 110.8 59.4961C111.043 59.8802 111.548 60.2642 112.226 60.1071C113.513 59.8278 113.356 58.4137 113.356 57.052L113.252 31.8431C113.252 31.2146 113.304 30.5512 112.974 30.0973C112.695 29.6783 112.174 29.3466 111.582 29.5037Z" fill="#FF5151"/>
<path fill-rule="evenodd" clip-rule="evenodd" d="M119.461 26.885L122.261 26.8675C122.261 23.0443 122.261 19.2036 122.261 15.3803C122.261 13.4775 122.261 11.5746 122.261 9.67167C122.261 8.62421 122.4 4.60893 122.209 3.89316C122.017 3.80588 119.687 3.80588 119.513 3.89316C119.322 4.85334 119.478 8.36234 119.478 9.60184C119.478 11.5222 119.478 13.46 119.478 15.3803C119.461 19.221 119.461 23.0443 119.461 26.885Z" fill="#313131"/>
<path fill-rule="evenodd" clip-rule="evenodd" d="M110.243 26.8676C110.452 27.0073 112.765 26.9898 112.956 26.8676L112.991 3.85834L110.191 3.89325C110.191 7.71649 110.191 11.5572 110.191 15.3804C110.191 17.2833 110.191 19.1862 110.191 21.0891C110.191 22.2064 110.035 26.0471 110.243 26.8676Z" fill="#313131"/>
<path fill-rule="evenodd" clip-rule="evenodd" d="M106.834 2.07757C110 2.18231 113.339 2.07757 116.521 2.07757C118.156 2.07757 119.774 2.07757 121.408 2.07757C122.591 2.07757 125.287 2.21723 126.295 2.02519C126.295 1.13485 125.843 0.541287 125.234 0.227048C124.591 -0.104649 123.356 0.0350131 122.452 0.0350131H110.765C109.217 0.0350131 106.834 -0.453803 106.834 2.07757Z" fill="#00A9AF"/>
<path fill-rule="evenodd" clip-rule="evenodd" d="M110.191 3.89324L112.991 3.85833L119.512 3.89324C119.686 3.80595 122.017 3.80595 122.208 3.89324C123.112 3.89324 124.33 3.99799 124.991 3.75358C125.773 3.4568 126.069 2.91561 126.26 2.04272C125.252 2.23476 122.556 2.0951 121.373 2.0951C119.738 2.0951 118.121 2.0951 116.486 2.0951C113.304 2.0951 109.965 2.19984 106.799 2.0951C106.799 2.8807 107.251 3.38697 107.756 3.66629C108.365 3.98053 109.286 3.9107 110.191 3.89324Z" fill="#00B2C0"/>
<path fill-rule="evenodd" clip-rule="evenodd" d="M3.59935 27.6532H3.68631C7.33848 27.5135 7.54718 32.4017 4.31239 32.8382L3.52979 32.8032L3.87761 32.9254C3.99935 32.9429 4.17326 32.9254 4.31239 32.9254L4.92109 38.1104C4.9037 38.2151 4.71239 38.1977 5.00805 38.1977C5.12979 37.9533 5.18196 37.8136 5.3037 37.5343C5.51239 37.0455 5.96457 36.2948 6.26022 35.5266C7.35587 32.7159 9.04283 29.9402 6.97326 27.4612C6.78196 27.2168 6.59065 27.1469 6.43413 26.9724C5.75587 26.693 5.58196 26.3613 4.55587 26.2217L3.52979 26.2042C3.56457 26.6581 3.73848 27.2168 3.59935 27.6532Z" fill="#FE5454"/>
<path fill-rule="evenodd" clip-rule="evenodd" d="M4.92146 38.1102L4.31276 32.9253C4.17363 32.9253 4.01711 32.9427 3.87798 32.9253L3.53015 32.8031C2.34754 32.6459 1.37363 31.5112 1.39102 30.1669C1.4258 28.7878 2.39972 27.9149 3.58233 27.653C3.73885 27.2166 3.54754 26.6754 3.51276 26.204L4.53885 26.2215L3.46059 26.1691C2.92146 26.3437 2.4345 26.2913 1.68667 26.85C-0.174196 28.2291 -0.452457 30.1495 0.556239 32.192C1.37363 33.8331 3.37363 36.3819 4.48667 37.796C4.67798 38.0229 4.66059 38.0055 4.92146 38.1102Z" fill="#FE5F5F"/>
<path fill-rule="evenodd" clip-rule="evenodd" d="M3.53015 32.803L4.31276 32.838L4.15623 31.389C2.53884 31.4064 2.59102 29.5035 3.58232 29.2417C3.72145 29.0671 3.56493 29.1544 3.89537 29.0846L3.70406 27.653H3.6171C2.43449 27.9149 1.44319 28.7878 1.4258 30.1669C1.37362 31.4937 2.36493 32.6459 3.53015 32.803Z" fill="#FC4444"/>
<path fill-rule="evenodd" clip-rule="evenodd" d="M3.87813 29.0673C4.55639 29.1895 5.04335 29.3467 5.1303 30.0973C5.21726 30.848 4.74769 31.2321 4.139 31.3718L4.29552 32.8208C7.5303 32.3843 7.32161 27.4961 3.66943 27.6358L3.87813 29.0673Z" fill="#F93C3C"/>
<path fill-rule="evenodd" clip-rule="evenodd" d="M51.1475 31.0049C51.5822 32.419 52.904 31.8254 54.0518 31.5461C54.5214 31.4239 55.3214 31.2842 55.704 31.1096C55.9127 31.0223 56.1561 30.8478 56.2779 30.6383C56.3127 30.5684 56.417 30.2891 56.4344 30.2193C56.4518 30.1495 56.4518 30.0796 56.4518 30.0098L56.3648 29.7479L51.1475 31.0049Z" fill="#313131"/>
<path fill-rule="evenodd" clip-rule="evenodd" d="M65.2344 29.8527L59.8779 29.5908C59.8779 31.162 61.3562 30.7954 62.4518 30.9351C62.7475 30.97 64.0518 30.9874 64.3301 30.9351C64.7997 30.8652 65.2171 30.4113 65.2344 29.8527Z" fill="#323232"/>
<path fill-rule="evenodd" clip-rule="evenodd" d="M92.8345 47.5722C93.4606 47.9737 94.4866 48.4451 95.2171 48.8117C95.8779 49.1434 96.9736 49.7719 97.6345 50.0163C98.2258 48.5847 96.5736 48.1658 95.0779 47.4325C94.104 46.9437 93.6171 46.5247 92.8345 47.5722Z" fill="#454545"/>
<path fill-rule="evenodd" clip-rule="evenodd" d="M73.9478 32.6808C73.6174 32.6459 69.1652 30.8303 69.0609 30.7255C68.9391 30.7954 68.6609 30.8652 68.9044 31.5286C69.2 32.3491 69.8261 32.3316 70.9044 32.8204C72.0522 33.3093 73.4087 34.025 73.9478 32.6808Z" fill="#313131"/>
<path fill-rule="evenodd" clip-rule="evenodd" d="M16.8 47.904L16.7652 48.3928L11.5479 47.293C11.5479 48.8642 12.4 48.6721 14.1565 49.0562C14.6261 49.1609 15.5478 49.4577 16.0522 49.3006C16.5044 49.1435 17.0087 48.515 16.8 47.904Z" fill="#323232"/>
<path fill-rule="evenodd" clip-rule="evenodd" d="M35.3218 38.9483C35.4957 39.4371 36.1913 39.7165 36.8348 39.4721C37.0261 39.4022 37.3566 39.1753 37.5479 39.0531C39.1305 38.0231 40.6957 37.7437 39.9305 36.1725C39.7566 36.417 37.8783 37.4644 37.6348 37.6041C36.9218 38.0056 36.0522 38.6166 35.3218 38.9483Z" fill="#323232"/>
<path fill-rule="evenodd" clip-rule="evenodd" d="M80.8347 38.8436C80.4695 38.669 80.0521 38.2849 79.7217 38.0231C79.3391 37.7263 79.0608 37.4993 78.6782 37.22C78.313 36.9407 76.7999 35.8408 76.626 35.5441C75.6347 36.7137 77.2347 37.5692 77.9652 38.1802C78.1913 38.3722 78.3652 38.4944 78.5913 38.669C78.8 38.8261 79.0608 39.0705 79.2695 39.1927C79.513 39.3324 79.7913 39.4546 80.1217 39.3673C80.4174 39.28 80.7478 39.1055 80.8347 38.8436Z" fill="#313131"/>
<path fill-rule="evenodd" clip-rule="evenodd" d="M26.9912 43.9761C27.9825 45.2505 28.7477 44.3602 29.9303 43.6968L31.339 42.8588C31.739 42.5097 31.9651 41.986 31.7564 41.5146C31.6695 41.3226 31.7043 41.3924 31.6347 41.3226C30.9564 41.6194 29.9999 42.2653 29.3216 42.6668C28.8695 42.9461 27.4086 43.8888 26.9912 43.9761Z" fill="#323232"/>
<path fill-rule="evenodd" clip-rule="evenodd" d="M42.9907 34.7234C43.1125 35.2471 43.7559 35.5614 44.3472 35.3868L47.2516 33.9552C47.7386 33.6759 48.069 33.0823 47.7907 32.3666L42.9907 34.7234Z" fill="#313131"/>
<path fill-rule="evenodd" clip-rule="evenodd" d="M19.7212 47.7121C20.2603 49.1436 21.9821 47.9739 22.6081 47.6597C23.356 47.2756 24.3994 47.0312 24.6429 46.3155C24.6951 46.1583 24.7125 46.0012 24.7125 45.8092C24.7125 45.6695 24.7125 45.6346 24.6603 45.5299C24.5734 45.3029 24.6081 45.4251 24.5212 45.3378C24.3647 45.6172 22.5386 46.3853 22.156 46.5599C21.4603 46.8916 20.3995 47.52 19.7212 47.7121Z" fill="#323232"/>
<path fill-rule="evenodd" clip-rule="evenodd" d="M19.7213 47.712C20.3996 47.52 21.4604 46.8915 22.1561 46.5598C22.5387 46.3853 24.3648 45.6171 24.5213 45.3378C24.3126 44.849 23.7213 44.622 23.1822 44.7792L21.7039 45.46C21.2343 45.687 20.7126 45.9314 20.2604 46.1758C19.8256 46.4202 19.3735 46.9788 19.7213 47.712Z" fill="#454545"/>
<path fill-rule="evenodd" clip-rule="evenodd" d="M97.6342 50.0163C96.9733 49.7894 95.8777 49.1435 95.2168 48.8118C94.4864 48.4452 93.4777 47.9738 92.8342 47.5723C92.2255 48.9863 93.6342 49.3529 94.6951 49.8941C95.9298 50.5052 96.8342 51.2908 97.6342 50.0163Z" fill="#313131"/>
<path fill-rule="evenodd" clip-rule="evenodd" d="M88.5388 45.2505C87.9649 44.7443 87.0083 44.1856 86.3475 43.7317C85.9823 43.4873 85.617 43.2254 85.2518 42.981C84.904 42.7541 84.4518 42.4922 84.191 42.1954C83.8605 42.4573 83.7388 43.1905 84.3649 43.7841L87.0083 45.6171C87.5475 45.9139 88.3127 45.7917 88.5388 45.2505Z" fill="#313131"/>
<path fill-rule="evenodd" clip-rule="evenodd" d="M8.92173 45.2854C8.60869 45.1807 8.88695 45.3553 8.62608 45.0759L5.56521 41.1479C5.11304 41.3051 4.86956 42.1256 5.26956 42.7191L7.33912 45.3029C7.80869 45.7568 8.50434 45.7393 8.92173 45.2854Z" fill="#313131"/>
<path fill-rule="evenodd" clip-rule="evenodd" d="M76.626 35.5265C76.8173 35.8233 78.3129 36.9231 78.6782 37.2024C79.0434 37.4817 79.339 37.7087 79.7217 38.0055C80.0521 38.2673 80.4695 38.6514 80.8347 38.826C81.3217 38.4245 81.0608 37.5865 80.6956 37.2722C80.5564 37.15 80.5564 37.1675 80.4173 37.0628L79.4608 36.3295C79.0434 36.0153 78.6956 35.6836 78.2434 35.3868C77.6347 34.9678 77.1303 35.0377 76.626 35.5265Z" fill="#454545"/>
<path fill-rule="evenodd" clip-rule="evenodd" d="M35.3213 38.9482C36.0517 38.634 36.9213 38.0229 37.617 37.604C37.8604 37.4643 39.7561 36.4168 39.9126 36.1724C38.9039 35.1773 38.5561 35.7185 37.0604 36.574C36.6256 36.8358 36.1039 37.0977 35.7039 37.377C35.2517 37.7087 34.9387 38.2324 35.3213 38.9482Z" fill="#454545"/>
<path fill-rule="evenodd" clip-rule="evenodd" d="M59.8779 29.5908L65.2344 29.8527C65.2344 28.5259 63.9475 28.5433 62.591 28.5608C62.0171 28.5608 61.2345 28.4037 60.7823 28.5084C60.3127 28.6132 59.8953 29.0147 59.8779 29.5908Z" fill="#454545"/>
<path fill-rule="evenodd" clip-rule="evenodd" d="M51.1474 31.005L56.3474 29.7481C56.2256 28.2816 54.1213 29.0847 53.4952 29.2243C52.643 29.4164 51.7039 29.4862 51.3039 30.0798C51.0952 30.4289 51.1474 30.4638 51.1474 31.005Z" fill="#454545"/>
<path fill-rule="evenodd" clip-rule="evenodd" d="M42.9915 34.7236L47.7914 32.3843C47.6349 32.1573 47.5654 32.0177 47.3045 31.8605C47.0262 31.7034 46.7306 31.651 46.4175 31.7558C46.0001 31.8955 45.3045 32.297 44.9045 32.489C43.9306 32.9778 43.1828 33.1349 42.9045 33.8507C42.8349 34.0078 42.8002 34.0427 42.8349 34.3221C42.8697 34.5839 42.9393 34.6363 42.9915 34.7236Z" fill="#454545"/>
<path fill-rule="evenodd" clip-rule="evenodd" d="M11.5649 47.2931L16.7823 48.3929L16.8171 47.9041C16.678 47.3803 16.3823 47.101 15.8606 46.9788C15.3041 46.8566 13.0432 46.3504 12.6258 46.3678C12.3475 46.3853 12.1041 46.49 11.9302 46.6471C11.7041 46.8392 11.6693 47.0312 11.5649 47.2931Z" fill="#454545"/>
<path fill-rule="evenodd" clip-rule="evenodd" d="M69.0778 30.7084C69.1647 30.8306 73.6343 32.6462 73.9647 32.6637C74.156 32.0352 73.9125 31.5114 73.4778 31.267C73.2865 31.1623 72.9734 31.075 72.7299 30.9703C72.4517 30.8481 72.1908 30.7433 71.9473 30.6386L70.7821 30.2021C70.3125 30.0275 69.6343 29.8006 69.1647 30.3418C68.9734 30.5862 69.0604 30.6386 69.0778 30.7084Z" fill="#454545"/>
<path fill-rule="evenodd" clip-rule="evenodd" d="M26.9911 43.976C27.4085 43.8888 28.8694 42.9286 29.3041 42.6667C29.9824 42.2652 30.9389 41.6193 31.6172 41.3225C31.5476 41.0257 31.3737 40.9035 31.0954 40.7813C30.4172 40.4845 30.0694 40.8511 29.4954 41.1828L27.3911 42.4398C26.9215 42.7715 26.7476 43.3825 26.9911 43.976Z" fill="#454545"/>
<path fill-rule="evenodd" clip-rule="evenodd" d="M5.56543 41.1479L8.6263 45.0584C8.88717 45.3552 8.60891 45.1631 8.92195 45.2679C9.86108 44.2903 8.83499 43.4348 8.06978 42.4747C7.75673 42.0731 7.16543 41.1828 6.74804 40.9908C6.67847 40.9558 6.43499 40.8686 6.33065 40.8686C6.0176 40.8336 5.72195 40.9384 5.56543 41.1479Z" fill="#454545"/>
<path fill-rule="evenodd" clip-rule="evenodd" d="M84.1909 42.1955C84.4518 42.4923 84.904 42.7367 85.2518 42.9811C85.617 43.2255 85.9822 43.4874 86.3474 43.7318C86.9909 44.1857 87.9648 44.7443 88.5387 45.2506C88.8866 44.9364 88.8866 44.1508 88.3822 43.6969L87.0605 42.7891C86.5909 42.5097 86.2431 42.213 85.7735 41.9162C85.4083 41.6892 84.8518 41.5845 84.4518 41.8987C84.2431 42.0384 84.3127 41.986 84.1909 42.1955Z" fill="#454545"/>
<path fill-rule="evenodd" clip-rule="evenodd" d="M123.217 62.8303L119.461 62.8652C119.461 63.4239 119.548 63.7556 119.948 63.8778C120.139 63.9302 120.313 63.9302 120.47 63.9476C122.365 63.9825 123.217 64.3491 123.217 62.8303Z" fill="#2E2E2E"/>
<path fill-rule="evenodd" clip-rule="evenodd" d="M113.861 62.8829C113.461 62.8131 110.383 62.7956 110.122 62.9178C110.035 63.4939 110.191 63.7732 110.626 63.8954C110.748 63.9304 111.287 63.9653 111.774 63.9653C113.078 63.9653 113.861 64.2446 113.861 62.8829Z" fill="#2F2F2F"/>
<path fill-rule="evenodd" clip-rule="evenodd" d="M4.13934 31.3715C4.73065 31.2318 5.2176 30.8478 5.13065 30.0971C5.04369 29.3464 4.55673 29.1893 3.87847 29.0671C3.56543 29.1369 3.70456 29.0322 3.56543 29.2242L3.86108 29.1893L4.13934 31.3715Z" fill="#FE5454"/>
<path fill-rule="evenodd" clip-rule="evenodd" d="M4.13886 31.3716L3.8606 29.1894L3.56495 29.2243C2.57365 29.4862 2.52147 31.3891 4.13886 31.3716Z" fill="#FE5F5F"/>
<path fill-rule="evenodd" clip-rule="evenodd" d="M104.66 27.0944L104.434 27.1992C104.139 27.5483 103.617 27.5833 103.147 28.6307C102.817 29.3639 102.904 30.167 102.904 31.197C102.904 32.646 102.817 39.3498 102.956 40.6416C103.06 41.532 102.973 57.3661 102.973 58.8326C102.973 60.4911 103.008 61.9052 104.73 62.6908C105.791 63.1621 108.591 62.9352 110.121 62.9352C110.382 62.813 113.443 62.8304 113.86 62.9002C114.295 62.9701 114.817 62.9526 115.234 62.9002L116.417 62.8479C117.373 62.8479 118.539 62.7955 119.46 62.8653L123.217 62.8304C124.226 62.8653 125.321 62.8304 126.33 62.8479C127.512 62.8479 128.156 62.778 128.852 62.2543C130.312 61.137 129.93 59.1119 129.93 56.9821C129.93 52.7573 129.93 48.5151 129.93 44.2903C129.93 40.0481 129.843 36.3121 129.843 31.9302C129.843 30.9526 129.982 29.7306 129.739 28.91C129.373 27.6706 128.347 26.8675 127.043 26.8675H122.243L119.443 26.885L112.939 26.8675C112.73 26.9897 110.434 27.0072 110.226 26.8675L106.539 26.9024C105.339 26.9722 105.878 26.8326 104.66 27.0944ZM119.582 42.3525C119.547 39.5767 119.565 36.7835 119.547 34.0077C119.547 33.0126 119.321 30.778 119.791 30.0797C120.434 29.1021 121.965 29.2767 122.278 30.5336C122.434 31.1446 122.382 46.2456 122.382 47.2581C122.399 50.0339 122.417 52.8271 122.417 55.6029C122.417 56.6678 122.643 58.6231 122.208 59.4087C121.617 60.4562 120.017 60.2641 119.686 59.077C119.495 58.3438 119.599 44.43 119.582 42.3525ZM111.582 29.5036C112.191 29.3465 112.695 29.6782 112.973 30.0797C113.286 30.5336 113.234 31.197 113.252 31.8255L113.356 57.0344C113.356 58.4136 113.512 59.8102 112.226 60.0896C111.547 60.2292 111.06 59.8451 110.799 59.4785C110.469 58.9723 110.556 58.3612 110.556 57.6804L110.452 32.5413C110.434 31.0399 110.191 29.8877 111.582 29.5036ZM114.991 31.0399C114.991 28.9275 117.791 28.91 117.791 31.1272L117.895 58.1168C117.895 58.6755 117.93 59.077 117.652 59.496C116.834 60.7355 115.147 60.1245 115.095 58.6056C114.973 54.4332 115.06 50.0863 115.043 45.9139L114.991 31.0399ZM124.139 50.8719C124.069 45.2854 124.139 39.6815 124.069 34.095C124.052 33.1872 123.895 30.7431 124.278 30.1146C124.921 29.0497 126.417 29.3116 126.782 30.4289C127.008 31.1796 126.904 37.4469 126.904 38.7562C126.921 44.3252 126.956 49.8942 126.956 55.4633C126.956 56.3885 127.147 58.7278 126.747 59.4087C126.139 60.4562 124.66 60.2467 124.26 59.1468C124.052 58.5184 124.156 52.0939 124.139 50.8719ZM105.912 38.1103C105.912 36.8708 105.739 31.2668 105.965 30.4987C106.26 29.4862 107.53 29.1195 108.312 29.9575C108.904 30.6034 108.695 32.2619 108.712 33.2919L108.799 56.0219C108.799 56.9821 109.008 58.7802 108.556 59.5134C108.034 60.3863 106.765 60.4038 106.208 59.4611C105.86 58.85 105.999 56.7202 105.999 55.8648L105.912 38.1103Z" fill="#FF5F5F"/>
<path fill-rule="evenodd" clip-rule="evenodd" d="M49.3916 1.1699V26.9549C49.3916 27.339 50.0873 27.1994 50.8351 27.1994C51.3916 27.1994 51.9481 27.1994 52.522 27.1994C52.7307 26.3265 53.0786 25.4885 53.3394 24.6331L58.2264 9.28774C58.2959 9.0957 58.3481 8.90367 58.4351 8.69417L58.8699 7.36739C58.9046 7.26264 58.922 7.21027 58.9742 7.07061L59.1133 26.0821C59.1133 27.4787 58.6264 27.1994 61.8264 27.1994V1.1699C61.8264 0.977862 61.7742 0.925489 61.5829 0.925489C58.0003 0.925489 58.609 0.628708 58.1568 1.97295L52.3307 19.483C52.2786 19.6402 52.2786 19.6925 52.2438 19.7973C52.1742 20.0068 52.1742 19.9719 52.0699 20.1115V0.925489H49.6699C49.4438 0.925489 49.3916 0.977862 49.3916 1.1699Z" fill="#F05F5F"/>
<path fill-rule="evenodd" clip-rule="evenodd" d="M104.434 27.1993L104.66 27.0946L104.678 0.907985H101.391C101.2 1.7285 97.8431 11.3302 97.3562 12.7618C96.8344 14.3679 95.6344 18.4181 95.1127 19.7449L94.9735 20.0067C94.9735 19.3259 95.0431 1.18731 94.9388 1.01273C94.7996 0.785781 92.817 0.890528 92.3301 0.890528V27.1469H95.3736L101.147 9.16549C101.252 8.85125 101.843 6.82615 102.017 6.58174V27.1469L104.434 27.1993Z" fill="white"/>
<path fill-rule="evenodd" clip-rule="evenodd" d="M34.1909 1.1697V26.9548C34.1909 27.1468 34.2431 27.1992 34.4344 27.1992H36.9909C37.1822 27.1992 37.2344 27.1468 37.2344 26.9548V3.6487H43.5474V27.1817H46.504V1.1697C46.504 0.977666 46.4518 0.925293 46.2605 0.925293H34.4344C34.2605 0.925293 34.1909 0.977666 34.1909 1.1697Z" fill="#F05F5F"/>
<path fill-rule="evenodd" clip-rule="evenodd" d="M3.47852 26.169L4.55678 26.2214C5.56547 26.3436 5.73939 26.6928 6.43504 26.9721V19.1685C6.43504 18.0337 6.52199 18.2432 7.33939 16.8641L7.94808 15.869L12.7655 25.7151C13.009 26.2214 13.2176 26.7102 13.4611 27.1816H16.522L10.9568 15.4325C10.6785 14.8739 10.3655 14.3153 10.122 13.7741C10.0872 13.7042 9.77417 12.971 9.77417 12.9535C9.75678 12.7266 10.4003 11.6791 10.5568 11.3824L11.9133 8.95573C12.7307 7.61149 13.722 5.58639 14.5742 4.15486C14.835 3.71841 16.2263 1.23942 16.2959 0.907722H13.3394L8.20895 10.2301C7.98286 10.6491 6.62634 13.2329 6.43504 13.3725V1.81552C6.45243 0.645856 6.81765 0.92518 3.47852 0.92518V26.169Z" fill="#F05F5F"/>
<path fill-rule="evenodd" clip-rule="evenodd" d="M78.5039 27.1817H81.4604V16.8991C85.0257 16.8991 88.0344 17.1435 89.5996 13.6694C90.3474 12.0109 90.1039 8.92093 90.1039 6.87837C90.1039 2.9853 87.9126 0.942749 84.017 0.942749H78.5039V27.1817ZM83.9474 14.1757H81.4604V3.6487C84.1213 3.6487 87.1474 3.03768 87.1474 6.77363V11.1031C87.1474 13.2155 86.0517 14.1757 83.9474 14.1757Z" fill="white"/>
<path fill-rule="evenodd" clip-rule="evenodd" d="M20.1215 24.5283H19.565V27.1819C19.6519 27.1994 19.7911 27.2692 19.8085 27.2692C25.3041 27.2692 25.8606 24.4585 27.0258 19.902C27.1824 19.2735 27.3737 18.6974 27.5302 17.9991L29.0954 12.2555C29.4606 11.016 29.8258 9.74163 30.1563 8.4323C30.4867 7.0706 30.8867 5.91839 31.2172 4.5916L31.9824 1.746C32.278 0.71599 32.7128 0.925483 29.3215 0.925483C28.9911 0.925483 28.8172 2.09515 28.6606 2.67125C28.0867 4.62652 27.2172 8.29264 26.6954 10.405L25.5476 15.3456C25.4606 15.6773 25.3389 16.0788 25.3389 16.4279C25.078 16.2359 25.2172 16.3406 25.0258 15.5376L23.1128 8.62434C22.7128 7.33247 22.3824 6.00568 21.965 4.71381L21.1302 1.78091C20.8172 0.681075 21.3563 0.925483 18.1389 0.925483C17.7737 0.925483 17.9998 1.23972 18.0867 1.5365C18.1737 1.83328 18.2258 2.04278 18.3128 2.35702L19.8085 7.12297C20.6085 9.6718 21.478 12.7444 22.2954 15.1535L23.8258 19.9719C23.9824 20.4607 23.6172 21.0368 23.4606 21.5081C22.9041 23.0444 22.7128 24.5283 20.1215 24.5283Z" fill="#F05F5F"/>
<path fill-rule="evenodd" clip-rule="evenodd" d="M63.791 1.1697V3.42175C63.791 3.61378 63.8432 3.66615 64.0345 3.66615H68.591V26.9548C68.591 27.1468 68.6432 27.1992 68.8345 27.1992H71.391C71.5823 27.1992 71.6345 27.1468 71.6345 26.9548V3.6487H76.4345V1.1697C76.4345 0.977666 76.3823 0.925293 76.191 0.925293H64.0345C63.8432 0.925293 63.791 0.977666 63.791 1.1697Z" fill="white"/>
<path fill-rule="evenodd" clip-rule="evenodd" d="M119.583 42.3526C119.6 44.4126 119.496 58.3264 119.704 59.0596C120.035 60.2467 121.635 60.4562 122.226 59.3913C122.661 58.6057 122.435 56.6504 122.435 55.5855C122.435 52.8097 122.417 50.0165 122.4 47.2407C122.4 46.2107 122.435 31.1272 122.296 30.5162C121.983 29.2593 120.452 29.0672 119.809 30.0623C119.339 30.7781 119.565 32.9952 119.565 33.9903C119.548 36.7835 119.548 39.5768 119.583 42.3526Z" fill="#FF5151"/>
<path fill-rule="evenodd" clip-rule="evenodd" d="M124.139 50.8719C124.156 52.0765 124.034 58.5184 124.261 59.1468C124.661 60.2467 126.139 60.4562 126.748 59.4087C127.148 58.7279 126.956 56.3885 126.956 55.4633C126.939 49.8943 126.921 44.3252 126.904 38.7562C126.904 37.4469 127.026 31.1796 126.782 30.4289C126.434 29.3116 124.921 29.0497 124.278 30.1147C123.895 30.7606 124.052 33.1872 124.069 34.095C124.156 39.6815 124.087 45.2854 124.139 50.8719Z" fill="#FF5151"/>
<path fill-rule="evenodd" clip-rule="evenodd" d="M114.991 31.0399L115.043 45.8964C115.061 50.0688 114.974 54.4158 115.096 58.5882C115.148 60.107 116.817 60.718 117.652 59.4785C117.93 59.0596 117.913 58.658 117.896 58.0994L117.791 31.1097C117.791 28.8926 114.991 28.9275 114.991 31.0399Z" fill="#FF5151"/>
<path fill-rule="evenodd" clip-rule="evenodd" d="M105.913 38.1104L105.982 55.8649C105.982 56.7203 105.843 58.8502 106.191 59.4612C106.748 60.4214 108.017 60.3864 108.539 59.5136C108.991 58.7803 108.782 56.9822 108.782 56.022L108.695 33.2921C108.695 32.2621 108.887 30.6036 108.295 29.9576C107.53 29.1371 106.243 29.5037 105.948 30.4988C105.756 31.2495 105.913 36.8709 105.913 38.1104Z" fill="#FF5151"/>
<path fill-rule="evenodd" clip-rule="evenodd" d="M111.582 29.5037C110.208 29.8703 110.434 31.0225 110.452 32.5588L110.556 57.6979C110.556 58.3788 110.469 58.9898 110.8 59.4961C111.043 59.8802 111.548 60.2642 112.226 60.1071C113.513 59.8278 113.356 58.4137 113.356 57.052L113.252 31.8431C113.252 31.2146 113.304 30.5512 112.974 30.0973C112.695 29.6783 112.174 29.3466 111.582 29.5037Z" fill="#FF5151"/>
<path fill-rule="evenodd" clip-rule="evenodd" d="M119.461 26.885L122.261 26.8675C122.261 23.0443 122.261 19.2036 122.261 15.3803C122.261 13.4775 122.261 11.5746 122.261 9.67167C122.261 8.62421 122.4 4.60893 122.209 3.89316C122.017 3.80588 119.687 3.80588 119.513 3.89316C119.322 4.85334 119.478 8.36234 119.478 9.60184C119.478 11.5222 119.478 13.46 119.478 15.3803C119.461 19.221 119.461 23.0443 119.461 26.885Z" fill="white"/>
<path fill-rule="evenodd" clip-rule="evenodd" d="M110.243 26.8676C110.452 27.0073 112.765 26.9898 112.956 26.8676L112.991 3.85834L110.191 3.89325C110.191 7.71649 110.191 11.5572 110.191 15.3804C110.191 17.2833 110.191 19.1862 110.191 21.0891C110.191 22.2064 110.035 26.0471 110.243 26.8676Z" fill="white"/>
<path fill-rule="evenodd" clip-rule="evenodd" d="M106.834 2.07757C110 2.18231 113.339 2.07757 116.521 2.07757C118.156 2.07757 119.774 2.07757 121.408 2.07757C122.591 2.07757 125.287 2.21723 126.295 2.02519C126.295 1.13485 125.843 0.541287 125.234 0.227048C124.591 -0.104649 123.356 0.0350131 122.452 0.0350131H110.765C109.217 0.0350131 106.834 -0.453803 106.834 2.07757Z" fill="#00A9AF"/>
<path fill-rule="evenodd" clip-rule="evenodd" d="M110.191 3.89324L112.991 3.85833L119.512 3.89324C119.686 3.80595 122.017 3.80595 122.208 3.89324C123.112 3.89324 124.33 3.99799 124.991 3.75358C125.773 3.4568 126.069 2.91561 126.26 2.04272C125.252 2.23476 122.556 2.0951 121.373 2.0951C119.738 2.0951 118.121 2.0951 116.486 2.0951C113.304 2.0951 109.965 2.19984 106.799 2.0951C106.799 2.8807 107.251 3.38697 107.756 3.66629C108.365 3.98053 109.286 3.9107 110.191 3.89324Z" fill="#00B2C0"/>
<path fill-rule="evenodd" clip-rule="evenodd" d="M3.59935 27.6532H3.68631C7.33848 27.5135 7.54718 32.4017 4.31239 32.8382L3.52979 32.8032L3.87761 32.9254C3.99935 32.9429 4.17326 32.9254 4.31239 32.9254L4.92109 38.1104C4.9037 38.2151 4.71239 38.1977 5.00805 38.1977C5.12979 37.9533 5.18196 37.8136 5.3037 37.5343C5.51239 37.0455 5.96457 36.2948 6.26022 35.5266C7.35587 32.7159 9.04283 29.9402 6.97326 27.4612C6.78196 27.2168 6.59065 27.1469 6.43413 26.9724C5.75587 26.693 5.58196 26.3613 4.55587 26.2217L3.52979 26.2042C3.56457 26.6581 3.73848 27.2168 3.59935 27.6532Z" fill="#FE5454"/>
<path fill-rule="evenodd" clip-rule="evenodd" d="M4.92146 38.1102L4.31276 32.9253C4.17363 32.9253 4.01711 32.9427 3.87798 32.9253L3.53015 32.8031C2.34754 32.6459 1.37363 31.5112 1.39102 30.1669C1.4258 28.7878 2.39972 27.9149 3.58233 27.653C3.73885 27.2166 3.54754 26.6754 3.51276 26.204L4.53885 26.2215L3.46059 26.1691C2.92146 26.3437 2.4345 26.2913 1.68667 26.85C-0.174196 28.2291 -0.452457 30.1495 0.556239 32.192C1.37363 33.8331 3.37363 36.3819 4.48667 37.796C4.67798 38.0229 4.66059 38.0055 4.92146 38.1102Z" fill="#FE5F5F"/>
<path fill-rule="evenodd" clip-rule="evenodd" d="M3.53015 32.803L4.31276 32.838L4.15623 31.389C2.53884 31.4064 2.59102 29.5035 3.58232 29.2417C3.72145 29.0671 3.56493 29.1544 3.89537 29.0846L3.70406 27.653H3.6171C2.43449 27.9149 1.44319 28.7878 1.4258 30.1669C1.37362 31.4937 2.36493 32.6459 3.53015 32.803Z" fill="#FC4444"/>
<path fill-rule="evenodd" clip-rule="evenodd" d="M3.87813 29.0673C4.55639 29.1895 5.04335 29.3467 5.1303 30.0973C5.21726 30.848 4.74769 31.2321 4.139 31.3718L4.29552 32.8208C7.5303 32.3843 7.32161 27.4961 3.66943 27.6358L3.87813 29.0673Z" fill="#F93C3C"/>
<path fill-rule="evenodd" clip-rule="evenodd" d="M92.835 47.5723C93.461 47.9739 94.4871 48.4452 95.2176 48.8118C95.8784 49.1435 96.9741 49.772 97.635 50.0164C98.2263 48.5849 96.5741 48.1659 95.0784 47.4327C94.1045 46.9438 93.6176 46.5249 92.835 47.5723Z" fill="#B1B0B0"/>
<path fill-rule="evenodd" clip-rule="evenodd" d="M19.7218 47.7118C20.4 47.5197 21.4609 46.8912 22.1566 46.5596C22.5392 46.385 24.3653 45.6168 24.5218 45.3375C24.3131 44.8487 23.7218 44.6217 23.1827 44.7789L21.7044 45.4597C21.2348 45.6867 20.7131 45.9311 20.2609 46.1755C19.8261 46.4199 19.374 46.9785 19.7218 47.7118Z" fill="#B1B0B0"/>
<path fill-rule="evenodd" clip-rule="evenodd" d="M76.626 35.5264C76.8173 35.8232 78.3129 36.923 78.6782 37.2024C79.0434 37.4817 79.339 37.7086 79.7216 38.0054C80.0521 38.2673 80.4695 38.6513 80.8347 38.8259C81.3217 38.4244 81.0608 37.5864 80.6956 37.2722C80.5564 37.15 80.5564 37.1674 80.4173 37.0627L79.4608 36.3295C79.0434 36.0152 78.6956 35.6835 78.2434 35.3867C77.6347 34.9678 77.1303 35.0376 76.626 35.5264Z" fill="#B1B0B0"/>
<path fill-rule="evenodd" clip-rule="evenodd" d="M35.3218 38.9482C36.0522 38.634 36.9218 38.0229 37.6174 37.604C37.8609 37.4643 39.7566 36.4168 39.9131 36.1724C38.9044 35.1773 38.5566 35.7185 37.0609 36.574C36.6261 36.8358 36.1044 37.0977 35.7044 37.377C35.2522 37.7087 34.9392 38.2324 35.3218 38.9482Z" fill="#B1B0B0"/>
<path fill-rule="evenodd" clip-rule="evenodd" d="M59.8789 29.5908L65.2354 29.8527C65.2354 28.5259 63.9485 28.5433 62.5919 28.5608C62.018 28.5608 61.2354 28.4037 60.7833 28.5084C60.3137 28.6132 59.8963 29.0147 59.8789 29.5908Z" fill="#B1B0B0"/>
<path fill-rule="evenodd" clip-rule="evenodd" d="M51.1479 31.0048L56.3479 29.7478C56.2261 28.2814 54.1218 29.0844 53.4957 29.2241C52.6435 29.4161 51.7044 29.486 51.3044 30.0795C51.0957 30.4287 51.1479 30.4636 51.1479 31.0048Z" fill="#B1B0B0"/>
<path fill-rule="evenodd" clip-rule="evenodd" d="M42.9915 34.7234L47.7914 32.3841C47.6349 32.1571 47.5654 32.0175 47.3045 31.8604C47.0262 31.7032 46.7306 31.6509 46.4175 31.7556C46.0001 31.8953 45.3045 32.2968 44.9045 32.4888C43.9306 32.9776 43.1828 33.1348 42.9045 33.8505C42.8349 34.0077 42.8002 34.0426 42.8349 34.3219C42.8697 34.5838 42.9393 34.6361 42.9915 34.7234Z" fill="#B1B0B0"/>
<path fill-rule="evenodd" clip-rule="evenodd" d="M11.5654 47.2928L16.7828 48.3927L16.8176 47.9038C16.6785 47.3801 16.3828 47.1008 15.8611 46.9786C15.3046 46.8564 13.0437 46.3501 12.6263 46.3676C12.348 46.385 12.1046 46.4898 11.9306 46.6469C11.7046 46.8389 11.6698 47.031 11.5654 47.2928Z" fill="#B1B0B0"/>
<path fill-rule="evenodd" clip-rule="evenodd" d="M69.0787 30.7081C69.1657 30.8303 73.6352 32.6459 73.9657 32.6634C74.157 32.0349 73.9135 31.5111 73.4787 31.2667C73.2874 31.162 72.9744 31.0747 72.7309 30.97C72.4526 30.8478 72.1918 30.743 71.9483 30.6383L70.7831 30.2018C70.3135 30.0272 69.6352 29.8003 69.1657 30.3415C68.9744 30.5859 69.0613 30.6383 69.0787 30.7081Z" fill="#B1B0B0"/>
<path fill-rule="evenodd" clip-rule="evenodd" d="M26.9916 43.9761C27.409 43.8888 28.8699 42.9286 29.3046 42.6668C29.9829 42.2652 30.9394 41.6193 31.6177 41.3225C31.5481 41.0258 31.3742 40.9036 31.0959 40.7813C30.4177 40.4846 30.0699 40.8512 29.4959 41.1829L27.3916 42.4398C26.922 42.7715 26.7481 43.3825 26.9916 43.9761Z" fill="#B1B0B0"/>
<path fill-rule="evenodd" clip-rule="evenodd" d="M5.56543 41.1479L8.6263 45.0584C8.88717 45.3552 8.60891 45.1632 8.92195 45.2679C9.86108 44.2903 8.83499 43.4348 8.06978 42.4747C7.75673 42.0731 7.16543 41.1828 6.74804 40.9908C6.67847 40.9558 6.435 40.8686 6.33065 40.8686C6.0176 40.8336 5.72195 40.9384 5.56543 41.1479Z" fill="#B1B0B0"/>
<path fill-rule="evenodd" clip-rule="evenodd" d="M84.1919 42.1953C84.4528 42.492 84.9049 42.7364 85.2528 42.9809C85.618 43.2253 85.9832 43.4871 86.3484 43.7315C86.9919 44.1854 87.9658 44.7441 88.5397 45.2504C88.8875 44.9361 88.8875 44.1505 88.3832 43.6966L87.0615 42.7888C86.5919 42.5095 86.2441 42.2127 85.7745 41.9159C85.4093 41.689 84.8528 41.5842 84.4528 41.8985C84.2441 42.0381 84.3136 41.9858 84.1919 42.1953Z" fill="#B1B0B0"/>
<path fill-rule="evenodd" clip-rule="evenodd" d="M51.1475 31.0049C51.5822 32.419 52.904 31.8254 54.0518 31.5461C54.5214 31.4239 55.3214 31.2842 55.704 31.1096C55.9127 31.0223 56.1562 30.8478 56.2779 30.6383C56.3127 30.5684 56.417 30.2891 56.4344 30.2193C56.4518 30.1495 56.4518 30.0796 56.4518 30.0098L56.3649 29.7479L51.1475 31.0049Z" fill="white"/>
<path fill-rule="evenodd" clip-rule="evenodd" d="M65.2344 29.8527L59.8779 29.5908C59.8779 31.162 61.3562 30.7954 62.4518 30.9351C62.7475 30.97 64.0518 30.9874 64.3301 30.9351C64.7997 30.8652 65.2171 30.4113 65.2344 29.8527Z" fill="white"/>
<path fill-rule="evenodd" clip-rule="evenodd" d="M73.9478 32.6808C73.6174 32.6459 69.1652 30.8303 69.0609 30.7255C68.9391 30.7954 68.6609 30.8652 68.9044 31.5286C69.2 32.3491 69.8261 32.3316 70.9044 32.8204C72.0522 33.3093 73.4087 34.025 73.9478 32.6808Z" fill="white"/>
<path fill-rule="evenodd" clip-rule="evenodd" d="M16.8 47.904L16.7652 48.3928L11.5479 47.293C11.5479 48.8642 12.4 48.6721 14.1565 49.0562C14.6261 49.1609 15.5479 49.4577 16.0522 49.3006C16.5044 49.1435 17.0087 48.515 16.8 47.904Z" fill="white"/>
<path fill-rule="evenodd" clip-rule="evenodd" d="M35.3218 38.948C35.4957 39.4368 36.1913 39.7162 36.8348 39.4718C37.0261 39.4019 37.3566 39.175 37.5479 39.0528C39.1305 38.0228 40.6957 37.7434 39.9305 36.1722C39.7566 36.4166 37.8783 37.4641 37.6348 37.6038C36.9218 38.0053 36.0522 38.6163 35.3218 38.948Z" fill="white"/>
<path fill-rule="evenodd" clip-rule="evenodd" d="M80.8347 38.8434C80.4695 38.6688 80.0521 38.2847 79.7217 38.0229C79.3391 37.7261 79.0608 37.4992 78.6782 37.2198C78.313 36.9405 76.7999 35.8407 76.626 35.5439C75.6347 36.7136 77.2347 37.569 77.9652 38.18C78.1913 38.372 78.3652 38.4942 78.5913 38.6688C78.8 38.8259 79.0608 39.0703 79.2695 39.1926C79.513 39.3322 79.7913 39.4544 80.1217 39.3671C80.4174 39.2798 80.7478 39.1053 80.8347 38.8434Z" fill="white"/>
<path fill-rule="evenodd" clip-rule="evenodd" d="M26.9912 43.9759C27.9825 45.2503 28.7477 44.36 29.9303 43.6966L31.339 42.8586C31.739 42.5094 31.9651 41.9857 31.7564 41.5144C31.6695 41.3223 31.7043 41.3922 31.6347 41.3223C30.9564 41.6191 29.9999 42.265 29.3216 42.6666C28.8695 42.9459 27.4086 43.8886 26.9912 43.9759Z" fill="white"/>
<path fill-rule="evenodd" clip-rule="evenodd" d="M42.9917 34.7234C43.1134 35.2472 43.7569 35.5614 44.3482 35.3868L47.2526 33.9553C47.7395 33.676 48.07 33.0824 47.7917 32.3666L42.9917 34.7234Z" fill="white"/>
<path fill-rule="evenodd" clip-rule="evenodd" d="M19.7217 47.7118C20.2608 49.1434 21.9825 47.9737 22.6086 47.6595C23.3565 47.2754 24.3999 47.031 24.6434 46.3152C24.6956 46.1581 24.713 46.001 24.713 45.8089C24.713 45.6693 24.713 45.6344 24.6608 45.5296C24.5739 45.3027 24.6086 45.4249 24.5217 45.3376C24.3652 45.6169 22.5391 46.385 22.1565 46.5596C21.4608 46.8913 20.3999 47.5198 19.7217 47.7118Z" fill="white"/>
<path fill-rule="evenodd" clip-rule="evenodd" d="M97.6347 50.0164C96.9738 49.7894 95.8781 49.1435 95.2173 48.8118C94.4868 48.4452 93.4782 47.9738 92.8347 47.5723C92.226 48.9863 93.6347 49.353 94.6955 49.8941C95.9303 50.5052 96.8347 51.2908 97.6347 50.0164Z" fill="white"/>
<path fill-rule="evenodd" clip-rule="evenodd" d="M88.5393 45.2503C87.9654 44.744 87.0088 44.1853 86.348 43.7314C85.9827 43.487 85.6175 43.2251 85.2523 42.9807C84.9045 42.7538 84.4523 42.4919 84.1914 42.1951C83.861 42.457 83.7393 43.1902 84.3654 43.7838L87.0088 45.6169C87.548 45.9136 88.3132 45.7914 88.5393 45.2503Z" fill="white"/>
<path fill-rule="evenodd" clip-rule="evenodd" d="M8.92173 45.2852C8.60869 45.1804 8.88695 45.355 8.62608 45.0757L5.56521 41.1477C5.11304 41.3048 4.86956 42.1253 5.26956 42.7189L7.33912 45.3026C7.80869 45.7565 8.50434 45.7391 8.92173 45.2852Z" fill="white"/>
<path fill-rule="evenodd" clip-rule="evenodd" d="M123.217 62.8304L119.461 62.8653C119.461 63.424 119.548 63.7556 119.948 63.8779C120.139 63.9302 120.313 63.9302 120.47 63.9477C122.365 63.9826 123.217 64.3492 123.217 62.8304Z" fill="white"/>
<path fill-rule="evenodd" clip-rule="evenodd" d="M113.861 62.8826C113.461 62.8128 110.383 62.7954 110.122 62.9176C110.035 63.4937 110.191 63.773 110.626 63.8952C110.748 63.9301 111.287 63.965 111.774 63.965C113.078 63.965 113.861 64.2443 113.861 62.8826Z" fill="white"/>
<path fill-rule="evenodd" clip-rule="evenodd" d="M4.13934 31.3715C4.73065 31.2318 5.2176 30.8478 5.13065 30.0971C5.04369 29.3464 4.55673 29.1893 3.87847 29.0671C3.56543 29.1369 3.70456 29.0322 3.56543 29.2242L3.86108 29.1893L4.13934 31.3715Z" fill="#FE5454"/>
<path fill-rule="evenodd" clip-rule="evenodd" d="M4.13886 31.3716L3.8606 29.1894L3.56495 29.2243C2.57365 29.4862 2.52147 31.3891 4.13886 31.3716Z" fill="#FE5F5F"/>
</g>
<defs>
<clipPath id="clip0">
<rect width="130" height="64" fill="white"/>
</clipPath>
</defs>
</svg>
