<svg width="178" height="87" viewBox="0 0 178 87" fill="none" xmlns="http://www.w3.org/2000/svg">
<g clip-path="url(#clip0)">
<path fill-rule="evenodd" clip-rule="evenodd" d="M143.305 36.8315L142.996 36.9739C142.591 37.4485 141.876 37.4959 141.233 38.9198C140.781 39.9166 140.9 41.0082 140.9 42.4084C140.9 44.3781 140.781 53.491 140.971 55.2472C141.114 56.4575 140.995 77.982 140.995 79.9755C140.995 82.23 141.043 84.1522 143.4 85.2202C144.853 85.8609 148.687 85.5524 150.782 85.5524C151.139 85.3863 155.331 85.41 155.902 85.5049C156.497 85.5999 157.212 85.5761 157.783 85.5049L159.403 85.4337C160.712 85.4337 162.308 85.3625 163.57 85.4575L168.713 85.41C170.094 85.4575 171.595 85.41 172.976 85.4337C174.595 85.4337 175.476 85.3388 176.429 84.6269C178.429 83.108 177.905 80.3552 177.905 77.4599C177.905 71.7169 177.905 65.9501 177.905 60.2071C177.905 54.4403 177.786 49.3617 177.786 43.4051C177.786 42.0761 177.976 40.4149 177.643 39.2995C177.143 37.6146 175.738 36.5229 173.952 36.5229H167.38L163.546 36.5467L154.64 36.5229C154.354 36.6891 151.211 36.7128 150.925 36.5229L145.877 36.5704C144.234 36.6653 144.972 36.4755 143.305 36.8315ZM163.736 57.5729C163.689 53.7995 163.713 50.0025 163.689 46.2292C163.689 44.8765 163.379 41.8388 164.022 40.8896C164.903 39.5606 166.999 39.7979 167.427 41.5066C167.642 42.3372 167.57 62.865 167.57 64.2414C167.594 68.0148 167.618 71.8118 167.618 75.5851C167.618 77.0328 167.927 79.6907 167.332 80.7586C166.523 82.1825 164.332 81.9215 163.879 80.3077C163.617 79.311 163.76 60.3969 163.736 57.5729ZM152.783 40.1064C153.616 39.8928 154.307 40.3437 154.688 40.8896C155.116 41.5066 155.045 42.4084 155.069 43.2627L155.211 77.5311C155.211 79.4059 155.426 81.3044 153.664 81.6842C152.735 81.874 152.068 81.3519 151.711 80.8535C151.259 80.1653 151.378 79.3347 151.378 78.4092L151.235 44.2357C151.211 42.1948 150.878 40.6285 152.783 40.1064ZM157.45 42.1948C157.45 39.3233 161.284 39.2995 161.284 42.3135L161.427 79.0025C161.427 79.7619 161.474 80.3077 161.093 80.8773C159.974 82.5622 157.664 81.7316 157.593 79.667C157.426 73.9951 157.545 68.086 157.521 62.4141L157.45 42.1948ZM169.975 69.1539C169.88 61.5598 169.975 53.9419 169.88 46.3478C169.856 45.1138 169.642 41.7914 170.166 40.937C171.047 39.4894 173.095 39.8454 173.595 41.3642C173.904 42.3847 173.762 50.9043 173.762 52.6842C173.785 60.2545 173.833 67.8249 173.833 75.3953C173.833 76.6531 174.095 79.8331 173.547 80.7586C172.714 82.1825 170.69 81.8977 170.142 80.4026C169.856 79.5483 169.999 70.8151 169.975 69.1539ZM145.02 51.8061C145.02 50.1211 144.781 42.5033 145.091 41.4591C145.496 40.0827 147.234 39.5843 148.306 40.7234C149.115 41.6015 148.83 43.856 148.853 45.2562L148.973 76.1547C148.973 77.4599 149.258 79.9043 148.639 80.901C147.925 82.0876 146.186 82.1113 145.424 80.8298C144.948 79.9992 145.139 77.104 145.139 75.9411L145.02 51.8061Z" fill="#FF5F5F"/>
<path fill-rule="evenodd" clip-rule="evenodd" d="M67.6279 1.58982V36.6414C67.6279 37.1635 68.5804 36.9736 69.6044 36.9736C70.3664 36.9736 71.1284 36.9736 71.9142 36.9736C72.2 35.787 72.6762 34.6479 73.0334 33.4851L79.7248 12.625C79.82 12.364 79.8915 12.1029 80.0105 11.8181L80.6059 10.0145C80.6535 9.87214 80.6773 9.80095 80.7487 9.6111L80.9392 35.4548C80.9392 37.3533 80.2725 36.9736 84.654 36.9736V1.58982C84.654 1.32877 84.5826 1.25758 84.3206 1.25758C79.4152 1.25758 80.2487 0.854142 79.6295 2.68147L71.6523 26.4843C71.5808 26.6978 71.5808 26.769 71.5332 26.9114C71.438 27.1962 71.438 27.1487 71.2951 27.3386V1.25758H68.0089C67.6994 1.25758 67.6279 1.32877 67.6279 1.58982Z" fill="#F05F5F"/>
<path fill-rule="evenodd" clip-rule="evenodd" d="M142.996 36.9736L143.305 36.8312L143.329 1.23378H138.828C138.566 2.34917 133.97 15.4015 133.304 17.3475C132.589 19.5308 130.946 25.0366 130.232 26.8402L130.041 27.1961C130.041 26.2706 130.137 1.61349 129.994 1.37617C129.803 1.06766 127.089 1.21005 126.422 1.21005V36.9024H130.589L138.495 12.4588C138.638 12.0317 139.447 9.27879 139.686 8.94655V36.9024L142.996 36.9736Z" fill="#313131"/>
<path fill-rule="evenodd" clip-rule="evenodd" d="M46.8159 1.59005V36.6416C46.8159 36.9027 46.8874 36.9739 47.1493 36.9739H50.6498C50.9117 36.9739 50.9831 36.9027 50.9831 36.6416V4.95994H59.6271V36.9501H63.6753V1.59005C63.6753 1.32901 63.6039 1.25781 63.3419 1.25781H47.1493C46.9112 1.25781 46.8159 1.32901 46.8159 1.59005Z" fill="#F05F5F"/>
<path fill-rule="evenodd" clip-rule="evenodd" d="M4.7627 35.5738L6.23908 35.645C7.62022 35.8111 7.85835 36.2858 8.81086 36.6655V26.0574C8.81086 24.5149 8.92992 24.7997 10.0491 22.9249L10.8826 21.5722L17.4787 34.9568C17.8121 35.645 18.0978 36.3095 18.4312 36.9502H22.6222L15.0022 20.9789C14.6212 20.2195 14.1925 19.4601 13.8591 18.7244C13.8115 18.6295 13.3829 17.6327 13.3829 17.609C13.3591 17.3005 14.2402 15.8766 14.4545 15.4732L16.3119 12.1745C17.4311 10.3471 18.7884 7.59427 19.9552 5.64828C20.3124 5.05499 22.2174 1.6851 22.3127 1.2342H18.2645L11.2398 13.9069C10.9302 14.4764 9.0728 17.9887 8.81086 18.1786V2.46824C8.83467 0.878228 9.33474 1.25793 4.7627 1.25793V35.5738Z" fill="#F05F5F"/>
<path fill-rule="evenodd" clip-rule="evenodd" d="M107.491 36.9498H111.539V22.9719C116.42 22.9719 120.54 23.3042 122.683 18.5816C123.707 16.3271 123.374 12.1266 123.374 9.34999C123.374 4.05785 120.373 1.28125 115.039 1.28125H107.491V36.9498ZM114.944 19.2698H111.539V4.95965C115.182 4.95965 119.326 4.12904 119.326 9.2076V15.093C119.326 17.9646 117.825 19.2698 114.944 19.2698Z" fill="#313131"/>
<path fill-rule="evenodd" clip-rule="evenodd" d="M27.5514 33.3426H26.7894V36.9498C26.9085 36.9736 27.099 37.0685 27.1228 37.0685C34.6476 37.0685 35.4096 33.2477 37.0051 27.0538C37.2194 26.1994 37.4813 25.4163 37.6956 24.467L39.8388 16.6593C40.3389 14.9744 40.8389 13.242 41.2914 11.4621C41.7438 9.61105 42.2915 8.04476 42.7439 6.24116L43.7917 2.37291C44.1965 0.97275 44.7918 1.25753 40.1484 1.25753C39.6959 1.25753 39.4578 2.84755 39.2435 3.63069C38.4577 6.28863 37.267 11.2723 36.5526 14.1438L34.981 20.8598C34.8619 21.3107 34.6952 21.8565 34.6952 22.3312C34.3381 22.0701 34.5286 22.2125 34.2666 21.1209L31.6472 11.7232C31.0995 9.96702 30.6471 8.16342 30.0756 6.40728L28.9326 2.42038C28.5039 0.925287 29.2421 1.25753 24.8368 1.25753C24.3367 1.25753 24.6463 1.6847 24.7653 2.08813C24.8844 2.49157 24.9558 2.77635 25.0749 3.20352L27.1228 9.68224C28.2182 13.1471 29.4088 17.3238 30.528 20.5988L32.6235 27.1487C32.8379 27.8132 32.3378 28.5963 32.1235 29.2371C31.3615 31.3254 31.0995 33.3426 27.5514 33.3426Z" fill="#F05F5F"/>
<path fill-rule="evenodd" clip-rule="evenodd" d="M87.3447 1.59005V4.65143C87.3447 4.91248 87.4162 4.98367 87.6781 4.98367H93.917V36.6416C93.917 36.9027 93.9885 36.9739 94.2504 36.9739H97.7509C98.0128 36.9739 98.0843 36.9027 98.0843 36.6416V4.95994H104.657V1.59005C104.657 1.32901 104.585 1.25781 104.323 1.25781H87.6781C87.4162 1.25781 87.3447 1.32901 87.3447 1.59005Z" fill="#313131"/>
<path fill-rule="evenodd" clip-rule="evenodd" d="M163.736 57.573C163.76 60.3734 163.617 79.2874 163.903 80.2841C164.356 81.8979 166.546 82.1827 167.356 80.7351C167.951 79.6671 167.642 77.0092 167.642 75.5616C167.642 71.7882 167.618 67.9912 167.594 64.2179C167.594 62.8177 167.642 42.3136 167.451 41.483C167.023 39.7743 164.927 39.5133 164.046 40.866C163.403 41.839 163.713 44.8529 163.713 46.2056C163.689 50.0026 163.689 53.7997 163.736 57.573Z" fill="#FF5151"/>
<path fill-rule="evenodd" clip-rule="evenodd" d="M169.975 69.1539C169.999 70.7914 169.832 79.5484 170.142 80.4027C170.689 81.8978 172.714 82.1826 173.547 80.7587C174.095 79.8332 173.833 76.6531 173.833 75.3954C173.809 67.825 173.785 60.2546 173.761 52.6842C173.761 50.9043 173.928 42.3847 173.595 41.3642C173.118 39.8454 171.047 39.4895 170.166 40.9371C169.642 41.8151 169.856 45.1138 169.88 46.3479C169.999 53.942 169.904 61.5598 169.975 69.1539Z" fill="#FF5151"/>
<path fill-rule="evenodd" clip-rule="evenodd" d="M157.45 42.1948L157.521 62.3903C157.545 68.0622 157.426 73.9714 157.593 79.6432C157.664 81.7079 159.95 82.5385 161.093 80.8535C161.474 80.284 161.45 79.7381 161.426 78.9787L161.284 42.2897C161.284 39.2758 157.45 39.3232 157.45 42.1948Z" fill="#FF5151"/>
<path fill-rule="evenodd" clip-rule="evenodd" d="M145.02 51.8062L145.115 75.9412C145.115 77.104 144.924 79.9993 145.401 80.8299C146.163 82.1351 147.901 82.0877 148.615 80.9011C149.234 79.9044 148.949 77.46 148.949 76.1548L148.83 45.2562C148.83 43.8561 149.092 41.6016 148.282 40.7235C147.234 39.6081 145.472 40.1065 145.067 41.4592C144.805 42.4796 145.02 50.1212 145.02 51.8062Z" fill="#FF5151"/>
<path fill-rule="evenodd" clip-rule="evenodd" d="M152.783 40.1063C150.901 40.6046 151.211 42.1709 151.235 44.2593L151.378 78.4328C151.378 79.3583 151.259 80.1889 151.711 80.8771C152.044 81.3992 152.735 81.9213 153.664 81.7077C155.426 81.328 155.211 79.4058 155.211 77.5547L155.069 43.2863C155.069 42.432 155.14 41.5302 154.688 40.9131C154.307 40.3436 153.592 39.8927 152.783 40.1063Z" fill="#FF5151"/>
<path fill-rule="evenodd" clip-rule="evenodd" d="M163.569 36.5466L167.403 36.5229C167.403 31.3257 167.403 26.1047 167.403 20.9075C167.403 18.3208 167.403 15.734 167.403 13.1473C167.403 11.7234 167.594 6.26511 167.332 5.29212C167.07 5.17346 163.879 5.17346 163.641 5.29212C163.379 6.59736 163.593 11.3674 163.593 13.0523C163.593 15.6628 163.593 18.297 163.593 20.9075C163.569 26.1285 163.569 31.3257 163.569 36.5466Z" fill="#313131"/>
<path fill-rule="evenodd" clip-rule="evenodd" d="M150.949 36.5229C151.235 36.7127 154.402 36.689 154.664 36.5229L154.711 5.24463L150.877 5.29209C150.877 10.4893 150.877 15.7103 150.877 20.9075C150.877 23.4942 150.877 26.081 150.877 28.6677C150.877 30.1865 150.663 35.4075 150.949 36.5229Z" fill="#313131"/>
<path fill-rule="evenodd" clip-rule="evenodd" d="M146.281 2.82427C150.615 2.96666 155.187 2.82427 159.545 2.82427C161.783 2.82427 163.998 2.82427 166.236 2.82427C167.856 2.82427 171.547 3.01412 172.928 2.75307C172.928 1.54276 172.309 0.735888 171.475 0.30872C170.594 -0.14218 168.903 0.0476723 167.665 0.0476723H151.663C149.544 0.0476723 146.281 -0.616812 146.281 2.82427Z" fill="#00A9AF"/>
<path fill-rule="evenodd" clip-rule="evenodd" d="M150.877 5.2924L154.711 5.24494L163.641 5.2924C163.879 5.17375 167.07 5.17375 167.332 5.2924C168.57 5.2924 170.237 5.43479 171.142 5.10255C172.214 4.69911 172.618 3.96344 172.88 2.77686C171.499 3.0379 167.808 2.84805 166.189 2.84805C163.951 2.84805 161.736 2.84805 159.498 2.84805C155.14 2.84805 150.568 2.99044 146.234 2.84805C146.234 3.91597 146.853 4.60419 147.544 4.98389C148.377 5.41106 149.639 5.31614 150.877 5.2924Z" fill="#00B2C0"/>
<path fill-rule="evenodd" clip-rule="evenodd" d="M4.92924 37.5908H5.0483C10.049 37.401 10.3347 44.0458 5.90556 44.6391L4.83398 44.5916L5.31024 44.7578C5.47693 44.7815 5.71505 44.7578 5.90556 44.7578L6.739 51.806C6.71519 51.9484 6.45325 51.9247 6.85806 51.9247C7.02475 51.5925 7.09619 51.4026 7.26288 51.0229C7.54863 50.3584 8.16776 49.338 8.57258 48.2938C10.0728 44.473 12.3826 40.6997 9.5489 37.3298C9.28696 36.9975 9.02502 36.9026 8.81071 36.6653C7.88201 36.2856 7.64388 35.8347 6.23893 35.6448L4.83398 35.6211C4.88161 36.2381 5.11974 36.9975 4.92924 37.5908Z" fill="#FE5454"/>
<path fill-rule="evenodd" clip-rule="evenodd" d="M6.73917 51.8061L5.90572 44.7579C5.71522 44.7579 5.5009 44.7816 5.3104 44.7579L4.83415 44.5917C3.21488 44.3781 1.88137 42.8356 1.90519 41.0083C1.95281 39.1335 3.28632 37.9469 4.90559 37.5909C5.1199 36.9976 4.85796 36.2619 4.81034 35.6212L6.21529 35.6449L4.7389 35.5737C4.0007 35.811 3.33395 35.7399 2.31 36.4993C-0.237958 38.3741 -0.618961 40.9845 0.762176 43.7611C1.88137 45.9919 4.61983 49.4567 6.14385 51.379C6.40579 51.6875 6.38197 51.6637 6.73917 51.8061Z" fill="#FE5F5F"/>
<path fill-rule="evenodd" clip-rule="evenodd" d="M4.83374 44.5917L5.90531 44.6391L5.691 42.6694C3.47642 42.6931 3.54786 40.1064 4.90518 39.7504C5.09568 39.5131 4.88137 39.6317 5.33381 39.5368L5.07187 37.5908H4.95281C3.33354 37.9468 1.97622 39.1334 1.9524 41.0082C1.88097 42.8118 3.23829 44.3781 4.83374 44.5917Z" fill="#FC4444"/>
<path fill-rule="evenodd" clip-rule="evenodd" d="M5.31017 39.513C6.23886 39.6791 6.90562 39.8927 7.02468 40.9131C7.14374 41.9336 6.5008 42.4557 5.66736 42.6455L5.88167 44.6153C10.3108 44.022 10.0251 37.3771 5.02441 37.567L5.31017 39.513Z" fill="#F93C3C"/>
<path fill-rule="evenodd" clip-rule="evenodd" d="M70.0332 42.1472C70.6285 44.0694 72.4383 43.2625 74.0099 42.8828C74.6529 42.7167 75.7482 42.5269 76.2721 42.2895C76.5579 42.1709 76.8913 41.9336 77.0579 41.6488C77.1056 41.5539 77.2484 41.1742 77.2723 41.0792C77.2961 40.9843 77.2961 40.8894 77.2961 40.7945L77.177 40.4385L70.0332 42.1472Z" fill="#313131"/>
<path fill-rule="evenodd" clip-rule="evenodd" d="M89.3216 40.5811L81.9873 40.2251C81.9873 42.3609 84.0114 41.8626 85.5116 42.0524C85.9164 42.0999 87.7024 42.1236 88.0834 42.0524C88.7263 41.9575 89.2978 41.3405 89.3216 40.5811Z" fill="#323232"/>
<path fill-rule="evenodd" clip-rule="evenodd" d="M127.112 64.6686C127.97 65.2144 129.375 65.8551 130.375 66.3535C131.28 66.8044 132.78 67.6587 133.685 67.991C134.494 66.045 132.232 65.4754 130.184 64.4787C128.851 63.8142 128.184 63.2447 127.112 64.6686Z" fill="#454545"/>
<path fill-rule="evenodd" clip-rule="evenodd" d="M101.252 44.4255C100.799 44.3781 94.703 41.91 94.5602 41.7676C94.3935 41.8625 94.0125 41.9574 94.3458 42.8592C94.7507 43.9746 95.6079 43.9509 97.0843 44.6154C98.6559 45.2799 100.513 46.2528 101.252 44.4255Z" fill="#313131"/>
<path fill-rule="evenodd" clip-rule="evenodd" d="M23.003 65.1197L22.9553 65.7842L15.8115 64.2891C15.8115 66.4249 16.9783 66.1639 19.3834 66.686C20.0264 66.8283 21.2884 67.2318 21.979 67.0182C22.5981 66.8046 23.2887 65.9503 23.003 65.1197Z" fill="#323232"/>
<path fill-rule="evenodd" clip-rule="evenodd" d="M48.3638 52.9452C48.6019 53.6097 49.5544 53.9894 50.4355 53.6571C50.6974 53.5622 51.1499 53.2537 51.4118 53.0876C53.5788 51.6874 55.7219 51.3077 54.6741 49.1719C54.436 49.5041 51.8642 50.928 51.5309 51.1179C50.5545 51.6637 49.3639 52.4943 48.3638 52.9452Z" fill="#323232"/>
<path fill-rule="evenodd" clip-rule="evenodd" d="M110.681 52.8026C110.181 52.5653 109.61 52.0432 109.157 51.6873C108.633 51.2838 108.252 50.9753 107.729 50.5956C107.228 50.2159 105.157 48.7208 104.919 48.3174C103.561 49.9074 105.752 51.0702 106.752 51.9008C107.062 52.1619 107.3 52.328 107.609 52.5653C107.895 52.7789 108.252 53.1112 108.538 53.2773C108.872 53.4671 109.253 53.6332 109.705 53.5146C110.11 53.3959 110.562 53.1586 110.681 52.8026Z" fill="#313131"/>
<path fill-rule="evenodd" clip-rule="evenodd" d="M36.9575 59.7801C38.3148 61.5125 39.3626 60.3022 40.9819 59.4004L42.9107 58.2612C43.4584 57.7866 43.7679 57.0747 43.4822 56.4339C43.3631 56.1729 43.4108 56.2678 43.3155 56.1729C42.3868 56.5763 41.0771 57.4544 40.1484 58.0002C39.5293 58.3799 37.529 59.6614 36.9575 59.7801Z" fill="#323232"/>
<path fill-rule="evenodd" clip-rule="evenodd" d="M58.8652 47.2023C59.0319 47.9142 59.913 48.3414 60.7226 48.1041L64.6994 46.1581C65.3661 45.7784 65.8186 44.9715 65.4376 43.9985L58.8652 47.2023Z" fill="#313131"/>
<path fill-rule="evenodd" clip-rule="evenodd" d="M27.0039 64.8583C27.7421 66.8043 30.0996 65.2143 30.9568 64.7872C31.9808 64.2651 33.4095 63.9328 33.7429 62.9598C33.8143 62.7462 33.8382 62.5327 33.8382 62.2716C33.8382 62.0818 33.8382 62.0343 33.7667 61.8919C33.6477 61.5834 33.6953 61.7495 33.5762 61.6309C33.3619 62.0106 30.8616 63.0548 30.3377 63.2921C29.3852 63.743 27.9326 64.5973 27.0039 64.8583Z" fill="#323232"/>
<path fill-rule="evenodd" clip-rule="evenodd" d="M27.0038 64.8586C27.9325 64.5976 29.385 63.7432 30.3375 63.2923C30.8614 63.055 33.3618 62.0108 33.5761 61.6311C33.2903 60.9666 32.4807 60.6581 31.7425 60.8717L29.7184 61.7972C29.0755 62.1058 28.3611 62.438 27.742 62.7702C27.1466 63.1025 26.5275 63.8619 27.0038 64.8586Z" fill="#454545"/>
<path fill-rule="evenodd" clip-rule="evenodd" d="M133.684 67.9909C132.78 67.6824 131.279 66.8043 130.375 66.3534C129.374 65.855 127.993 65.2143 127.112 64.6685C126.279 66.5907 128.208 67.0891 129.66 67.8248C131.351 68.6554 132.589 69.7233 133.684 67.9909Z" fill="#313131"/>
<path fill-rule="evenodd" clip-rule="evenodd" d="M121.23 61.5124C120.445 60.8242 119.135 60.0648 118.23 59.4478C117.73 59.1155 117.23 58.7595 116.73 58.4273C116.254 58.1188 115.634 57.7628 115.277 57.3594C114.825 57.7153 114.658 58.7121 115.515 59.5189L119.135 62.0108C119.873 62.4142 120.921 62.2481 121.23 61.5124Z" fill="#313131"/>
<path fill-rule="evenodd" clip-rule="evenodd" d="M12.216 61.5599C11.7873 61.4176 12.1683 61.6549 11.8112 61.2752L7.62012 55.9355C7.00099 56.1491 6.66761 57.2645 7.2153 58.0714L10.049 61.5837C10.692 62.2007 11.6445 62.177 12.216 61.5599Z" fill="#313131"/>
<path fill-rule="evenodd" clip-rule="evenodd" d="M104.919 48.2938C105.181 48.6973 107.229 50.1923 107.729 50.5721C108.229 50.9518 108.634 51.2603 109.158 51.6637C109.61 52.0197 110.182 52.5418 110.682 52.7791C111.348 52.2333 110.991 51.0941 110.491 50.667C110.301 50.5009 110.301 50.5246 110.11 50.3822L108.8 49.3855C108.229 48.9583 107.753 48.5074 107.134 48.104C106.3 47.5344 105.61 47.6293 104.919 48.2938Z" fill="#454545"/>
<path fill-rule="evenodd" clip-rule="evenodd" d="M48.3638 52.9452C49.3639 52.5181 50.5545 51.6875 51.5071 51.1179C51.8404 50.9281 54.436 49.5042 54.6503 49.1719C53.2692 47.8192 52.7929 48.5549 50.745 49.7177C50.1497 50.0737 49.4353 50.4297 48.8876 50.8094C48.2685 51.2603 47.8399 51.9722 48.3638 52.9452Z" fill="#454545"/>
<path fill-rule="evenodd" clip-rule="evenodd" d="M81.9873 40.2249L89.3216 40.5809C89.3216 38.7773 87.5595 38.801 85.7021 38.8247C84.9163 38.8247 83.8447 38.6111 83.2256 38.7535C82.5826 38.8959 82.0111 39.4418 81.9873 40.2249Z" fill="#454545"/>
<path fill-rule="evenodd" clip-rule="evenodd" d="M70.0333 42.1471L77.1533 40.4384C76.9866 38.445 74.1053 39.5366 73.248 39.7265C72.0812 39.9875 70.7953 40.0825 70.2476 40.8893C69.9619 41.364 70.0333 41.4114 70.0333 42.1471Z" fill="#454545"/>
<path fill-rule="evenodd" clip-rule="evenodd" d="M58.8653 47.2022L65.4376 44.0222C65.2233 43.7137 65.1281 43.5238 64.7709 43.3102C64.3899 43.0966 63.985 43.0254 63.5564 43.1678C62.9849 43.3577 62.0324 43.9035 61.4847 44.1646C60.1512 44.829 59.1273 45.0426 58.7463 46.0156C58.651 46.2292 58.6034 46.2767 58.651 46.6564C58.6986 47.0124 58.7939 47.0835 58.8653 47.2022Z" fill="#454545"/>
<path fill-rule="evenodd" clip-rule="evenodd" d="M15.8354 64.2891L22.9793 65.7842L23.0269 65.1197C22.8364 64.4078 22.4316 64.0281 21.7172 63.862C20.9552 63.6958 17.8595 63.0076 17.288 63.0314C16.907 63.0551 16.5736 63.1975 16.3355 63.4111C16.026 63.6721 15.9783 63.9332 15.8354 64.2891Z" fill="#454545"/>
<path fill-rule="evenodd" clip-rule="evenodd" d="M94.5842 41.7437C94.7033 41.9098 100.823 44.3779 101.276 44.4016C101.538 43.5473 101.204 42.8353 100.609 42.5031C100.347 42.3607 99.9183 42.242 99.5849 42.0996C99.2039 41.9335 98.8467 41.7911 98.5134 41.6487L96.9179 41.0555C96.2749 40.8181 95.3463 40.5096 94.7033 41.2453C94.4414 41.5775 94.5604 41.6487 94.5842 41.7437Z" fill="#454545"/>
<path fill-rule="evenodd" clip-rule="evenodd" d="M36.9574 59.7799C37.5289 59.6613 39.5292 58.356 40.1245 58.0001C41.0532 57.4542 42.3629 56.5762 43.2916 56.1727C43.1963 55.7693 42.9582 55.6032 42.5772 55.4371C41.6485 55.0336 41.1723 55.532 40.3864 55.9829L37.5051 57.6916C36.8622 58.1425 36.624 58.9731 36.9574 59.7799Z" fill="#454545"/>
<path fill-rule="evenodd" clip-rule="evenodd" d="M7.62012 55.9351L11.8112 61.251C12.1683 61.6544 11.7873 61.3934 12.216 61.5357C13.5019 60.2068 12.0969 59.0439 11.0491 57.7387C10.6205 57.1929 9.81089 55.9825 9.23938 55.7215C9.14413 55.674 8.81075 55.5554 8.66788 55.5554C8.23925 55.5079 7.83443 55.6503 7.62012 55.9351Z" fill="#454545"/>
<path fill-rule="evenodd" clip-rule="evenodd" d="M115.277 57.3594C115.635 57.7628 116.254 58.0951 116.73 58.4273C117.23 58.7595 117.73 59.1155 118.23 59.4478C119.111 60.0648 120.445 60.8242 121.231 61.5124C121.707 61.0852 121.707 60.0173 121.016 59.4003L119.206 58.1662C118.564 57.7865 118.087 57.3831 117.444 56.9797C116.944 56.6712 116.182 56.5288 115.635 56.9559C115.349 57.1458 115.444 57.0746 115.277 57.3594Z" fill="#454545"/>
<path fill-rule="evenodd" clip-rule="evenodd" d="M168.713 85.4102L163.57 85.4576C163.57 86.217 163.689 86.6679 164.237 86.8341C164.499 86.9053 164.737 86.9053 164.951 86.929C167.547 86.9765 168.713 87.4748 168.713 85.4102Z" fill="#2E2E2E"/>
<path fill-rule="evenodd" clip-rule="evenodd" d="M155.902 85.4811C155.354 85.3862 151.139 85.3624 150.782 85.5286C150.663 86.3117 150.877 86.6914 151.473 86.8576C151.639 86.905 152.378 86.9525 153.044 86.9525C154.83 86.9525 155.902 87.3322 155.902 85.4811Z" fill="#2F2F2F"/>
<path fill-rule="evenodd" clip-rule="evenodd" d="M5.66766 42.6458C6.47729 42.4559 7.14404 41.9338 7.02498 40.9133C6.90592 39.8929 6.23916 39.6793 5.31046 39.5132C4.88184 39.6081 5.07234 39.4657 4.88184 39.7268L5.28665 39.6793L5.66766 42.6458Z" fill="#FE5454"/>
<path fill-rule="evenodd" clip-rule="evenodd" d="M5.66728 42.6456L5.28628 39.6792L4.88146 39.7267C3.52414 40.0826 3.4527 42.6694 5.66728 42.6456Z" fill="#FE5F5F"/>
<path fill-rule="evenodd" clip-rule="evenodd" d="M143.305 36.8315L142.996 36.9739C142.591 37.4485 141.876 37.4959 141.233 38.9198C140.781 39.9166 140.9 41.0082 140.9 42.4084C140.9 44.3781 140.781 53.491 140.971 55.2472C141.114 56.4575 140.995 77.982 140.995 79.9755C140.995 82.23 141.043 84.1522 143.4 85.2202C144.853 85.8609 148.687 85.5524 150.782 85.5524C151.139 85.3863 155.331 85.41 155.902 85.5049C156.497 85.5999 157.212 85.5761 157.783 85.5049L159.403 85.4337C160.712 85.4337 162.308 85.3625 163.57 85.4575L168.713 85.41C170.094 85.4575 171.595 85.41 172.976 85.4337C174.595 85.4337 175.476 85.3388 176.429 84.6269C178.429 83.108 177.905 80.3552 177.905 77.4599C177.905 71.7169 177.905 65.9501 177.905 60.2071C177.905 54.4403 177.786 49.3617 177.786 43.4051C177.786 42.0761 177.976 40.4149 177.643 39.2995C177.143 37.6146 175.738 36.5229 173.952 36.5229H167.38L163.546 36.5467L154.64 36.5229C154.354 36.6891 151.211 36.7128 150.925 36.5229L145.877 36.5704C144.234 36.6653 144.972 36.4755 143.305 36.8315ZM163.736 57.5729C163.689 53.7995 163.713 50.0025 163.689 46.2292C163.689 44.8765 163.379 41.8388 164.022 40.8896C164.903 39.5606 166.999 39.7979 167.427 41.5066C167.642 42.3372 167.57 62.865 167.57 64.2414C167.594 68.0148 167.618 71.8118 167.618 75.5851C167.618 77.0328 167.927 79.6907 167.332 80.7586C166.523 82.1825 164.332 81.9215 163.879 80.3077C163.617 79.311 163.76 60.3969 163.736 57.5729ZM152.783 40.1064C153.616 39.8928 154.307 40.3437 154.688 40.8896C155.116 41.5066 155.045 42.4084 155.069 43.2627L155.211 77.5311C155.211 79.4059 155.426 81.3044 153.664 81.6842C152.735 81.874 152.068 81.3519 151.711 80.8535C151.259 80.1653 151.378 79.3347 151.378 78.4092L151.235 44.2357C151.211 42.1948 150.878 40.6285 152.783 40.1064ZM157.45 42.1948C157.45 39.3233 161.284 39.2995 161.284 42.3135L161.427 79.0025C161.427 79.7619 161.474 80.3077 161.093 80.8773C159.974 82.5622 157.664 81.7316 157.593 79.667C157.426 73.9951 157.545 68.086 157.521 62.4141L157.45 42.1948ZM169.975 69.1539C169.88 61.5598 169.975 53.9419 169.88 46.3478C169.856 45.1138 169.642 41.7914 170.166 40.937C171.047 39.4894 173.095 39.8454 173.595 41.3642C173.904 42.3847 173.762 50.9043 173.762 52.6842C173.785 60.2545 173.833 67.8249 173.833 75.3953C173.833 76.6531 174.095 79.8331 173.547 80.7586C172.714 82.1825 170.69 81.8977 170.142 80.4026C169.856 79.5483 169.999 70.8151 169.975 69.1539ZM145.02 51.8061C145.02 50.1211 144.781 42.5033 145.091 41.4591C145.496 40.0827 147.234 39.5843 148.306 40.7234C149.115 41.6015 148.83 43.856 148.853 45.2562L148.973 76.1547C148.973 77.4599 149.258 79.9043 148.639 80.901C147.925 82.0876 146.186 82.1113 145.424 80.8298C144.948 79.9992 145.139 77.104 145.139 75.9411L145.02 51.8061Z" fill="#FF5F5F"/>
<path fill-rule="evenodd" clip-rule="evenodd" d="M67.6279 1.58982V36.6414C67.6279 37.1635 68.5804 36.9736 69.6044 36.9736C70.3664 36.9736 71.1284 36.9736 71.9142 36.9736C72.2 35.787 72.6762 34.6479 73.0334 33.4851L79.7248 12.625C79.82 12.364 79.8915 12.1029 80.0105 11.8181L80.6059 10.0145C80.6535 9.87214 80.6773 9.80095 80.7487 9.6111L80.9392 35.4548C80.9392 37.3533 80.2725 36.9736 84.654 36.9736V1.58982C84.654 1.32877 84.5826 1.25758 84.3206 1.25758C79.4152 1.25758 80.2487 0.854142 79.6295 2.68147L71.6523 26.4843C71.5808 26.6978 71.5808 26.769 71.5332 26.9114C71.438 27.1962 71.438 27.1487 71.2951 27.3386V1.25758H68.0089C67.6994 1.25758 67.6279 1.32877 67.6279 1.58982Z" fill="#F05F5F"/>
<path fill-rule="evenodd" clip-rule="evenodd" d="M142.996 36.9736L143.305 36.8312L143.329 1.23378H138.828C138.566 2.34917 133.97 15.4015 133.304 17.3475C132.589 19.5308 130.946 25.0366 130.232 26.8402L130.041 27.1961C130.041 26.2706 130.137 1.61349 129.994 1.37617C129.803 1.06766 127.089 1.21005 126.422 1.21005V36.9024H130.589L138.495 12.4588C138.638 12.0317 139.447 9.27879 139.686 8.94655V36.9024L142.996 36.9736Z" fill="#313131"/>
<path fill-rule="evenodd" clip-rule="evenodd" d="M46.8159 1.59005V36.6416C46.8159 36.9027 46.8874 36.9739 47.1493 36.9739H50.6498C50.9117 36.9739 50.9831 36.9027 50.9831 36.6416V4.95994H59.6271V36.9501H63.6753V1.59005C63.6753 1.32901 63.6039 1.25781 63.3419 1.25781H47.1493C46.9112 1.25781 46.8159 1.32901 46.8159 1.59005Z" fill="#F05F5F"/>
<path fill-rule="evenodd" clip-rule="evenodd" d="M4.7627 35.5738L6.23908 35.645C7.62022 35.8111 7.85835 36.2858 8.81086 36.6655V26.0574C8.81086 24.5149 8.92992 24.7997 10.0491 22.9249L10.8826 21.5722L17.4787 34.9568C17.8121 35.645 18.0978 36.3095 18.4312 36.9502H22.6222L15.0022 20.9789C14.6212 20.2195 14.1925 19.4601 13.8591 18.7244C13.8115 18.6295 13.3829 17.6327 13.3829 17.609C13.3591 17.3005 14.2402 15.8766 14.4545 15.4732L16.3119 12.1745C17.4311 10.3471 18.7884 7.59427 19.9552 5.64828C20.3124 5.05499 22.2174 1.6851 22.3127 1.2342H18.2645L11.2398 13.9069C10.9302 14.4764 9.0728 17.9887 8.81086 18.1786V2.46824C8.83467 0.878228 9.33474 1.25793 4.7627 1.25793V35.5738Z" fill="#F05F5F"/>
<path fill-rule="evenodd" clip-rule="evenodd" d="M107.491 36.9498H111.539V22.9719C116.42 22.9719 120.54 23.3042 122.683 18.5816C123.707 16.3271 123.374 12.1266 123.374 9.34999C123.374 4.05785 120.373 1.28125 115.039 1.28125H107.491V36.9498ZM114.944 19.2698H111.539V4.95965C115.182 4.95965 119.326 4.12904 119.326 9.2076V15.093C119.326 17.9646 117.825 19.2698 114.944 19.2698Z" fill="#313131"/>
<path fill-rule="evenodd" clip-rule="evenodd" d="M27.5514 33.3426H26.7894V36.9498C26.9085 36.9736 27.099 37.0685 27.1228 37.0685C34.6476 37.0685 35.4096 33.2477 37.0051 27.0538C37.2194 26.1994 37.4813 25.4163 37.6956 24.467L39.8388 16.6593C40.3389 14.9744 40.8389 13.242 41.2914 11.4621C41.7438 9.61105 42.2915 8.04476 42.7439 6.24116L43.7917 2.37291C44.1965 0.97275 44.7918 1.25753 40.1484 1.25753C39.6959 1.25753 39.4578 2.84755 39.2435 3.63069C38.4577 6.28863 37.267 11.2723 36.5526 14.1438L34.981 20.8598C34.8619 21.3107 34.6952 21.8565 34.6952 22.3312C34.3381 22.0701 34.5286 22.2125 34.2666 21.1209L31.6472 11.7232C31.0995 9.96702 30.6471 8.16342 30.0756 6.40728L28.9326 2.42038C28.5039 0.925287 29.2421 1.25753 24.8368 1.25753C24.3367 1.25753 24.6463 1.6847 24.7653 2.08813C24.8844 2.49157 24.9558 2.77635 25.0749 3.20352L27.1228 9.68224C28.2182 13.1471 29.4088 17.3238 30.528 20.5988L32.6235 27.1487C32.8379 27.8132 32.3378 28.5963 32.1235 29.2371C31.3615 31.3254 31.0995 33.3426 27.5514 33.3426Z" fill="#F05F5F"/>
<path fill-rule="evenodd" clip-rule="evenodd" d="M87.3447 1.59005V4.65143C87.3447 4.91248 87.4162 4.98367 87.6781 4.98367H93.917V36.6416C93.917 36.9027 93.9885 36.9739 94.2504 36.9739H97.7509C98.0128 36.9739 98.0843 36.9027 98.0843 36.6416V4.95994H104.657V1.59005C104.657 1.32901 104.585 1.25781 104.323 1.25781H87.6781C87.4162 1.25781 87.3447 1.32901 87.3447 1.59005Z" fill="#313131"/>
<path fill-rule="evenodd" clip-rule="evenodd" d="M163.736 57.573C163.76 60.3734 163.617 79.2874 163.903 80.2841C164.356 81.8979 166.546 82.1827 167.356 80.7351C167.951 79.6671 167.642 77.0092 167.642 75.5616C167.642 71.7882 167.618 67.9912 167.594 64.2179C167.594 62.8177 167.642 42.3136 167.451 41.483C167.023 39.7743 164.927 39.5133 164.046 40.866C163.403 41.839 163.713 44.8529 163.713 46.2056C163.689 50.0026 163.689 53.7997 163.736 57.573Z" fill="#FF5151"/>
<path fill-rule="evenodd" clip-rule="evenodd" d="M169.975 69.1539C169.999 70.7914 169.832 79.5484 170.142 80.4027C170.689 81.8978 172.714 82.1826 173.547 80.7587C174.095 79.8332 173.833 76.6531 173.833 75.3954C173.809 67.825 173.785 60.2546 173.761 52.6842C173.761 50.9043 173.928 42.3847 173.595 41.3642C173.118 39.8454 171.047 39.4895 170.166 40.9371C169.642 41.8151 169.856 45.1138 169.88 46.3479C169.999 53.942 169.904 61.5598 169.975 69.1539Z" fill="#FF5151"/>
<path fill-rule="evenodd" clip-rule="evenodd" d="M157.45 42.1948L157.521 62.3903C157.545 68.0622 157.426 73.9714 157.593 79.6432C157.664 81.7079 159.95 82.5385 161.093 80.8535C161.474 80.284 161.45 79.7381 161.426 78.9787L161.284 42.2897C161.284 39.2758 157.45 39.3232 157.45 42.1948Z" fill="#FF5151"/>
<path fill-rule="evenodd" clip-rule="evenodd" d="M145.02 51.8062L145.115 75.9412C145.115 77.104 144.924 79.9993 145.401 80.8299C146.163 82.1351 147.901 82.0877 148.615 80.9011C149.234 79.9044 148.949 77.46 148.949 76.1548L148.83 45.2562C148.83 43.8561 149.092 41.6016 148.282 40.7235C147.234 39.6081 145.472 40.1065 145.067 41.4592C144.805 42.4796 145.02 50.1212 145.02 51.8062Z" fill="#FF5151"/>
<path fill-rule="evenodd" clip-rule="evenodd" d="M152.783 40.1063C150.901 40.6046 151.211 42.1709 151.235 44.2593L151.378 78.4328C151.378 79.3583 151.259 80.1889 151.711 80.8771C152.044 81.3992 152.735 81.9213 153.664 81.7077C155.426 81.328 155.211 79.4058 155.211 77.5547L155.069 43.2863C155.069 42.432 155.14 41.5302 154.688 40.9131C154.307 40.3436 153.592 39.8927 152.783 40.1063Z" fill="#FF5151"/>
<path fill-rule="evenodd" clip-rule="evenodd" d="M163.569 36.5466L167.403 36.5229C167.403 31.3257 167.403 26.1047 167.403 20.9075C167.403 18.3208 167.403 15.734 167.403 13.1473C167.403 11.7234 167.594 6.26511 167.332 5.29212C167.07 5.17346 163.879 5.17346 163.641 5.29212C163.379 6.59736 163.593 11.3674 163.593 13.0523C163.593 15.6628 163.593 18.297 163.593 20.9075C163.569 26.1285 163.569 31.3257 163.569 36.5466Z" fill="#313131"/>
<path fill-rule="evenodd" clip-rule="evenodd" d="M150.949 36.5229C151.235 36.7127 154.402 36.689 154.664 36.5229L154.711 5.24463L150.877 5.29209C150.877 10.4893 150.877 15.7103 150.877 20.9075C150.877 23.4942 150.877 26.081 150.877 28.6677C150.877 30.1865 150.663 35.4075 150.949 36.5229Z" fill="#313131"/>
<path fill-rule="evenodd" clip-rule="evenodd" d="M146.281 2.82427C150.615 2.96666 155.187 2.82427 159.545 2.82427C161.783 2.82427 163.998 2.82427 166.236 2.82427C167.856 2.82427 171.547 3.01412 172.928 2.75307C172.928 1.54276 172.309 0.735888 171.475 0.30872C170.594 -0.14218 168.903 0.0476723 167.665 0.0476723H151.663C149.544 0.0476723 146.281 -0.616812 146.281 2.82427Z" fill="#00A9AF"/>
<path fill-rule="evenodd" clip-rule="evenodd" d="M150.877 5.2924L154.711 5.24494L163.641 5.2924C163.879 5.17375 167.07 5.17375 167.332 5.2924C168.57 5.2924 170.237 5.43479 171.142 5.10255C172.214 4.69911 172.618 3.96344 172.88 2.77686C171.499 3.0379 167.808 2.84805 166.189 2.84805C163.951 2.84805 161.736 2.84805 159.498 2.84805C155.14 2.84805 150.568 2.99044 146.234 2.84805C146.234 3.91597 146.853 4.60419 147.544 4.98389C148.377 5.41106 149.639 5.31614 150.877 5.2924Z" fill="#00B2C0"/>
<path fill-rule="evenodd" clip-rule="evenodd" d="M4.92924 37.5908H5.0483C10.049 37.401 10.3347 44.0458 5.90556 44.6391L4.83398 44.5916L5.31024 44.7578C5.47693 44.7815 5.71505 44.7578 5.90556 44.7578L6.739 51.806C6.71519 51.9484 6.45325 51.9247 6.85806 51.9247C7.02475 51.5925 7.09619 51.4026 7.26288 51.0229C7.54863 50.3584 8.16776 49.338 8.57258 48.2938C10.0728 44.473 12.3826 40.6997 9.5489 37.3298C9.28696 36.9975 9.02502 36.9026 8.81071 36.6653C7.88201 36.2856 7.64388 35.8347 6.23893 35.6448L4.83398 35.6211C4.88161 36.2381 5.11974 36.9975 4.92924 37.5908Z" fill="#FE5454"/>
<path fill-rule="evenodd" clip-rule="evenodd" d="M6.73917 51.8061L5.90572 44.7579C5.71522 44.7579 5.5009 44.7816 5.3104 44.7579L4.83415 44.5917C3.21488 44.3781 1.88137 42.8356 1.90519 41.0083C1.95281 39.1335 3.28632 37.9469 4.90559 37.5909C5.1199 36.9976 4.85796 36.2619 4.81034 35.6212L6.21529 35.6449L4.7389 35.5737C4.0007 35.811 3.33395 35.7399 2.31 36.4993C-0.237958 38.3741 -0.618961 40.9845 0.762176 43.7611C1.88137 45.9919 4.61983 49.4567 6.14385 51.379C6.40579 51.6875 6.38197 51.6637 6.73917 51.8061Z" fill="#FE5F5F"/>
<path fill-rule="evenodd" clip-rule="evenodd" d="M4.83374 44.5917L5.90531 44.6391L5.691 42.6694C3.47642 42.6931 3.54786 40.1064 4.90518 39.7504C5.09568 39.5131 4.88137 39.6317 5.33381 39.5368L5.07187 37.5908H4.95281C3.33354 37.9468 1.97622 39.1334 1.9524 41.0082C1.88097 42.8118 3.23829 44.3781 4.83374 44.5917Z" fill="#FC4444"/>
<path fill-rule="evenodd" clip-rule="evenodd" d="M5.31017 39.513C6.23886 39.6791 6.90562 39.8927 7.02468 40.9131C7.14374 41.9336 6.5008 42.4557 5.66736 42.6455L5.88167 44.6153C10.3108 44.022 10.0251 37.3771 5.02441 37.567L5.31017 39.513Z" fill="#F93C3C"/>
<path fill-rule="evenodd" clip-rule="evenodd" d="M70.0332 42.1472C70.6285 44.0694 72.4383 43.2625 74.0099 42.8828C74.6529 42.7167 75.7482 42.5269 76.2721 42.2895C76.5579 42.1709 76.8913 41.9336 77.0579 41.6488C77.1056 41.5539 77.2484 41.1742 77.2723 41.0792C77.2961 40.9843 77.2961 40.8894 77.2961 40.7945L77.177 40.4385L70.0332 42.1472Z" fill="#313131"/>
<path fill-rule="evenodd" clip-rule="evenodd" d="M89.3216 40.5811L81.9873 40.2251C81.9873 42.3609 84.0114 41.8626 85.5116 42.0524C85.9164 42.0999 87.7024 42.1236 88.0834 42.0524C88.7263 41.9575 89.2978 41.3405 89.3216 40.5811Z" fill="#323232"/>
<path fill-rule="evenodd" clip-rule="evenodd" d="M127.112 64.6686C127.97 65.2144 129.375 65.8551 130.375 66.3535C131.28 66.8044 132.78 67.6587 133.685 67.991C134.494 66.045 132.232 65.4754 130.184 64.4787C128.851 63.8142 128.184 63.2447 127.112 64.6686Z" fill="#454545"/>
<path fill-rule="evenodd" clip-rule="evenodd" d="M101.252 44.4255C100.799 44.3781 94.703 41.91 94.5602 41.7676C94.3935 41.8625 94.0125 41.9574 94.3458 42.8592C94.7507 43.9746 95.6079 43.9509 97.0843 44.6154C98.6559 45.2799 100.513 46.2528 101.252 44.4255Z" fill="#313131"/>
<path fill-rule="evenodd" clip-rule="evenodd" d="M23.003 65.1197L22.9553 65.7842L15.8115 64.2891C15.8115 66.4249 16.9783 66.1639 19.3834 66.686C20.0264 66.8283 21.2884 67.2318 21.979 67.0182C22.5981 66.8046 23.2887 65.9503 23.003 65.1197Z" fill="#323232"/>
<path fill-rule="evenodd" clip-rule="evenodd" d="M48.3638 52.9452C48.6019 53.6097 49.5544 53.9894 50.4355 53.6571C50.6974 53.5622 51.1499 53.2537 51.4118 53.0876C53.5788 51.6874 55.7219 51.3077 54.6741 49.1719C54.436 49.5041 51.8642 50.928 51.5309 51.1179C50.5545 51.6637 49.3639 52.4943 48.3638 52.9452Z" fill="#323232"/>
<path fill-rule="evenodd" clip-rule="evenodd" d="M110.681 52.8026C110.181 52.5653 109.61 52.0432 109.157 51.6873C108.633 51.2838 108.252 50.9753 107.729 50.5956C107.228 50.2159 105.157 48.7208 104.919 48.3174C103.561 49.9074 105.752 51.0702 106.752 51.9008C107.062 52.1619 107.3 52.328 107.609 52.5653C107.895 52.7789 108.252 53.1112 108.538 53.2773C108.872 53.4671 109.253 53.6332 109.705 53.5146C110.11 53.3959 110.562 53.1586 110.681 52.8026Z" fill="#313131"/>
<path fill-rule="evenodd" clip-rule="evenodd" d="M36.9575 59.7801C38.3148 61.5125 39.3626 60.3022 40.9819 59.4004L42.9107 58.2612C43.4584 57.7866 43.7679 57.0747 43.4822 56.4339C43.3631 56.1729 43.4108 56.2678 43.3155 56.1729C42.3868 56.5763 41.0771 57.4544 40.1484 58.0002C39.5293 58.3799 37.529 59.6614 36.9575 59.7801Z" fill="#323232"/>
<path fill-rule="evenodd" clip-rule="evenodd" d="M58.8652 47.2023C59.0319 47.9142 59.913 48.3414 60.7226 48.1041L64.6994 46.1581C65.3661 45.7784 65.8186 44.9715 65.4376 43.9985L58.8652 47.2023Z" fill="#313131"/>
<path fill-rule="evenodd" clip-rule="evenodd" d="M27.0039 64.8583C27.7421 66.8043 30.0996 65.2143 30.9568 64.7872C31.9808 64.2651 33.4095 63.9328 33.7429 62.9598C33.8143 62.7462 33.8382 62.5327 33.8382 62.2716C33.8382 62.0818 33.8382 62.0343 33.7667 61.8919C33.6477 61.5834 33.6953 61.7495 33.5762 61.6309C33.3619 62.0106 30.8616 63.0548 30.3377 63.2921C29.3852 63.743 27.9326 64.5973 27.0039 64.8583Z" fill="#323232"/>
<path fill-rule="evenodd" clip-rule="evenodd" d="M27.0038 64.8586C27.9325 64.5976 29.385 63.7432 30.3375 63.2923C30.8614 63.055 33.3618 62.0108 33.5761 61.6311C33.2903 60.9666 32.4807 60.6581 31.7425 60.8717L29.7184 61.7972C29.0755 62.1058 28.3611 62.438 27.742 62.7702C27.1466 63.1025 26.5275 63.8619 27.0038 64.8586Z" fill="#454545"/>
<path fill-rule="evenodd" clip-rule="evenodd" d="M133.684 67.9909C132.78 67.6824 131.279 66.8043 130.375 66.3534C129.374 65.855 127.993 65.2143 127.112 64.6685C126.279 66.5907 128.208 67.0891 129.66 67.8248C131.351 68.6554 132.589 69.7233 133.684 67.9909Z" fill="#313131"/>
<path fill-rule="evenodd" clip-rule="evenodd" d="M121.23 61.5124C120.445 60.8242 119.135 60.0648 118.23 59.4478C117.73 59.1155 117.23 58.7595 116.73 58.4273C116.254 58.1188 115.634 57.7628 115.277 57.3594C114.825 57.7153 114.658 58.7121 115.515 59.5189L119.135 62.0108C119.873 62.4142 120.921 62.2481 121.23 61.5124Z" fill="#313131"/>
<path fill-rule="evenodd" clip-rule="evenodd" d="M12.216 61.5599C11.7873 61.4176 12.1683 61.6549 11.8112 61.2752L7.62012 55.9355C7.00099 56.1491 6.66761 57.2645 7.2153 58.0714L10.049 61.5837C10.692 62.2007 11.6445 62.177 12.216 61.5599Z" fill="#313131"/>
<path fill-rule="evenodd" clip-rule="evenodd" d="M104.919 48.2938C105.181 48.6973 107.229 50.1923 107.729 50.5721C108.229 50.9518 108.634 51.2603 109.158 51.6637C109.61 52.0197 110.182 52.5418 110.682 52.7791C111.348 52.2333 110.991 51.0941 110.491 50.667C110.301 50.5009 110.301 50.5246 110.11 50.3822L108.8 49.3855C108.229 48.9583 107.753 48.5074 107.134 48.104C106.3 47.5344 105.61 47.6293 104.919 48.2938Z" fill="#454545"/>
<path fill-rule="evenodd" clip-rule="evenodd" d="M48.3638 52.9452C49.3639 52.5181 50.5545 51.6875 51.5071 51.1179C51.8404 50.9281 54.436 49.5042 54.6503 49.1719C53.2692 47.8192 52.7929 48.5549 50.745 49.7177C50.1497 50.0737 49.4353 50.4297 48.8876 50.8094C48.2685 51.2603 47.8399 51.9722 48.3638 52.9452Z" fill="#454545"/>
<path fill-rule="evenodd" clip-rule="evenodd" d="M81.9873 40.2249L89.3216 40.5809C89.3216 38.7773 87.5595 38.801 85.7021 38.8247C84.9163 38.8247 83.8447 38.6111 83.2256 38.7535C82.5826 38.8959 82.0111 39.4418 81.9873 40.2249Z" fill="#454545"/>
<path fill-rule="evenodd" clip-rule="evenodd" d="M70.0333 42.1471L77.1533 40.4384C76.9866 38.445 74.1053 39.5366 73.248 39.7265C72.0812 39.9875 70.7953 40.0825 70.2476 40.8893C69.9619 41.364 70.0333 41.4114 70.0333 42.1471Z" fill="#454545"/>
<path fill-rule="evenodd" clip-rule="evenodd" d="M58.8653 47.2022L65.4376 44.0222C65.2233 43.7137 65.1281 43.5238 64.7709 43.3102C64.3899 43.0966 63.985 43.0254 63.5564 43.1678C62.9849 43.3577 62.0324 43.9035 61.4847 44.1646C60.1512 44.829 59.1273 45.0426 58.7463 46.0156C58.651 46.2292 58.6034 46.2767 58.651 46.6564C58.6986 47.0124 58.7939 47.0835 58.8653 47.2022Z" fill="#454545"/>
<path fill-rule="evenodd" clip-rule="evenodd" d="M15.8354 64.2891L22.9793 65.7842L23.0269 65.1197C22.8364 64.4078 22.4316 64.0281 21.7172 63.862C20.9552 63.6958 17.8595 63.0076 17.288 63.0314C16.907 63.0551 16.5736 63.1975 16.3355 63.4111C16.026 63.6721 15.9783 63.9332 15.8354 64.2891Z" fill="#454545"/>
<path fill-rule="evenodd" clip-rule="evenodd" d="M94.5842 41.7437C94.7033 41.9098 100.823 44.3779 101.276 44.4016C101.538 43.5473 101.204 42.8353 100.609 42.5031C100.347 42.3607 99.9183 42.242 99.5849 42.0996C99.2039 41.9335 98.8467 41.7911 98.5134 41.6487L96.9179 41.0555C96.2749 40.8181 95.3463 40.5096 94.7033 41.2453C94.4414 41.5775 94.5604 41.6487 94.5842 41.7437Z" fill="#454545"/>
<path fill-rule="evenodd" clip-rule="evenodd" d="M36.9574 59.7799C37.5289 59.6613 39.5292 58.356 40.1245 58.0001C41.0532 57.4542 42.3629 56.5762 43.2916 56.1727C43.1963 55.7693 42.9582 55.6032 42.5772 55.4371C41.6485 55.0336 41.1723 55.532 40.3864 55.9829L37.5051 57.6916C36.8622 58.1425 36.624 58.9731 36.9574 59.7799Z" fill="#454545"/>
<path fill-rule="evenodd" clip-rule="evenodd" d="M7.62012 55.9351L11.8112 61.251C12.1683 61.6544 11.7873 61.3934 12.216 61.5357C13.5019 60.2068 12.0969 59.0439 11.0491 57.7387C10.6205 57.1929 9.81089 55.9825 9.23938 55.7215C9.14413 55.674 8.81075 55.5554 8.66788 55.5554C8.23925 55.5079 7.83443 55.6503 7.62012 55.9351Z" fill="#454545"/>
<path fill-rule="evenodd" clip-rule="evenodd" d="M115.277 57.3594C115.635 57.7628 116.254 58.0951 116.73 58.4273C117.23 58.7595 117.73 59.1155 118.23 59.4478C119.111 60.0648 120.445 60.8242 121.231 61.5124C121.707 61.0852 121.707 60.0173 121.016 59.4003L119.206 58.1662C118.564 57.7865 118.087 57.3831 117.444 56.9797C116.944 56.6712 116.182 56.5288 115.635 56.9559C115.349 57.1458 115.444 57.0746 115.277 57.3594Z" fill="#454545"/>
<path fill-rule="evenodd" clip-rule="evenodd" d="M168.713 85.4102L163.57 85.4576C163.57 86.217 163.689 86.6679 164.237 86.8341C164.499 86.9053 164.737 86.9053 164.951 86.929C167.547 86.9765 168.713 87.4748 168.713 85.4102Z" fill="#2E2E2E"/>
<path fill-rule="evenodd" clip-rule="evenodd" d="M155.902 85.4811C155.354 85.3862 151.139 85.3624 150.782 85.5286C150.663 86.3117 150.877 86.6914 151.473 86.8576C151.639 86.905 152.378 86.9525 153.044 86.9525C154.83 86.9525 155.902 87.3322 155.902 85.4811Z" fill="#2F2F2F"/>
<path fill-rule="evenodd" clip-rule="evenodd" d="M5.66766 42.6458C6.47729 42.4559 7.14404 41.9338 7.02498 40.9133C6.90592 39.8929 6.23916 39.6793 5.31046 39.5132C4.88184 39.6081 5.07234 39.4657 4.88184 39.7268L5.28665 39.6793L5.66766 42.6458Z" fill="#FE5454"/>
<path fill-rule="evenodd" clip-rule="evenodd" d="M5.66728 42.6456L5.28628 39.6792L4.88146 39.7267C3.52414 40.0826 3.4527 42.6694 5.66728 42.6456Z" fill="#FE5F5F"/>
<path fill-rule="evenodd" clip-rule="evenodd" d="M143.305 36.8315L142.996 36.9739C142.591 37.4485 141.876 37.4959 141.233 38.9198C140.781 39.9166 140.9 41.0082 140.9 42.4084C140.9 44.3781 140.781 53.491 140.971 55.2472C141.114 56.4575 140.995 77.982 140.995 79.9755C140.995 82.23 141.043 84.1522 143.4 85.2202C144.853 85.8609 148.687 85.5524 150.782 85.5524C151.139 85.3863 155.331 85.41 155.902 85.5049C156.497 85.5999 157.212 85.5761 157.783 85.5049L159.403 85.4337C160.712 85.4337 162.308 85.3625 163.57 85.4575L168.713 85.41C170.094 85.4575 171.595 85.41 172.976 85.4337C174.595 85.4337 175.476 85.3388 176.429 84.6269C178.429 83.108 177.905 80.3552 177.905 77.4599C177.905 71.7169 177.905 65.9501 177.905 60.2071C177.905 54.4403 177.786 49.3617 177.786 43.4051C177.786 42.0761 177.976 40.4149 177.643 39.2995C177.143 37.6146 175.738 36.5229 173.952 36.5229H167.38L163.546 36.5467L154.64 36.5229C154.354 36.6891 151.211 36.7128 150.925 36.5229L145.877 36.5704C144.234 36.6653 144.972 36.4755 143.305 36.8315ZM163.736 57.5729C163.689 53.7995 163.713 50.0025 163.689 46.2292C163.689 44.8765 163.379 41.8388 164.022 40.8896C164.903 39.5606 166.999 39.7979 167.427 41.5066C167.642 42.3372 167.57 62.865 167.57 64.2414C167.594 68.0148 167.618 71.8118 167.618 75.5851C167.618 77.0328 167.927 79.6907 167.332 80.7586C166.523 82.1825 164.332 81.9215 163.879 80.3077C163.617 79.311 163.76 60.3969 163.736 57.5729ZM152.783 40.1064C153.616 39.8928 154.307 40.3437 154.688 40.8896C155.116 41.5066 155.045 42.4084 155.069 43.2627L155.211 77.5311C155.211 79.4059 155.426 81.3044 153.664 81.6842C152.735 81.874 152.068 81.3519 151.711 80.8535C151.259 80.1653 151.378 79.3347 151.378 78.4092L151.235 44.2357C151.211 42.1948 150.878 40.6285 152.783 40.1064ZM157.45 42.1948C157.45 39.3233 161.284 39.2995 161.284 42.3135L161.427 79.0025C161.427 79.7619 161.474 80.3077 161.093 80.8773C159.974 82.5622 157.664 81.7316 157.593 79.667C157.426 73.9951 157.545 68.086 157.521 62.4141L157.45 42.1948ZM169.975 69.1539C169.88 61.5598 169.975 53.9419 169.88 46.3478C169.856 45.1138 169.642 41.7914 170.166 40.937C171.047 39.4894 173.095 39.8454 173.595 41.3642C173.904 42.3847 173.762 50.9043 173.762 52.6842C173.785 60.2545 173.833 67.8249 173.833 75.3953C173.833 76.6531 174.095 79.8331 173.547 80.7586C172.714 82.1825 170.69 81.8977 170.142 80.4026C169.856 79.5483 169.999 70.8151 169.975 69.1539ZM145.02 51.8061C145.02 50.1211 144.781 42.5033 145.091 41.4591C145.496 40.0827 147.234 39.5843 148.306 40.7234C149.115 41.6015 148.83 43.856 148.853 45.2562L148.973 76.1547C148.973 77.4599 149.258 79.9043 148.639 80.901C147.925 82.0876 146.186 82.1113 145.424 80.8298C144.948 79.9992 145.139 77.104 145.139 75.9411L145.02 51.8061Z" fill="#FF5F5F"/>
<path fill-rule="evenodd" clip-rule="evenodd" d="M67.6279 1.58982V36.6414C67.6279 37.1635 68.5804 36.9736 69.6044 36.9736C70.3664 36.9736 71.1284 36.9736 71.9142 36.9736C72.2 35.787 72.6762 34.6479 73.0334 33.4851L79.7248 12.625C79.82 12.364 79.8915 12.1029 80.0105 11.8181L80.6059 10.0145C80.6535 9.87214 80.6773 9.80095 80.7487 9.6111L80.9392 35.4548C80.9392 37.3533 80.2725 36.9736 84.654 36.9736V1.58982C84.654 1.32877 84.5826 1.25758 84.3206 1.25758C79.4152 1.25758 80.2487 0.854142 79.6295 2.68147L71.6523 26.4843C71.5808 26.6978 71.5808 26.769 71.5332 26.9114C71.438 27.1962 71.438 27.1487 71.2951 27.3386V1.25758H68.0089C67.6994 1.25758 67.6279 1.32877 67.6279 1.58982Z" fill="#F05F5F"/>
<path fill-rule="evenodd" clip-rule="evenodd" d="M142.996 36.9736L143.305 36.8312L143.329 1.23378H138.828C138.566 2.34917 133.97 15.4015 133.304 17.3475C132.589 19.5308 130.946 25.0366 130.232 26.8402L130.041 27.1961C130.041 26.2706 130.137 1.61349 129.994 1.37617C129.803 1.06766 127.089 1.21005 126.422 1.21005V36.9024H130.589L138.495 12.4588C138.638 12.0317 139.447 9.27879 139.686 8.94655V36.9024L142.996 36.9736Z" fill="#313131"/>
<path fill-rule="evenodd" clip-rule="evenodd" d="M46.8159 1.59005V36.6416C46.8159 36.9027 46.8874 36.9739 47.1493 36.9739H50.6498C50.9117 36.9739 50.9831 36.9027 50.9831 36.6416V4.95994H59.6271V36.9501H63.6753V1.59005C63.6753 1.32901 63.6039 1.25781 63.3419 1.25781H47.1493C46.9112 1.25781 46.8159 1.32901 46.8159 1.59005Z" fill="#F05F5F"/>
<path fill-rule="evenodd" clip-rule="evenodd" d="M4.7627 35.5738L6.23908 35.645C7.62022 35.8111 7.85835 36.2858 8.81086 36.6655V26.0574C8.81086 24.5149 8.92992 24.7997 10.0491 22.9249L10.8826 21.5722L17.4787 34.9568C17.8121 35.645 18.0978 36.3095 18.4312 36.9502H22.6222L15.0022 20.9789C14.6212 20.2195 14.1925 19.4601 13.8591 18.7244C13.8115 18.6295 13.3829 17.6327 13.3829 17.609C13.3591 17.3005 14.2402 15.8766 14.4545 15.4732L16.3119 12.1745C17.4311 10.3471 18.7884 7.59427 19.9552 5.64828C20.3124 5.05499 22.2174 1.6851 22.3127 1.2342H18.2645L11.2398 13.9069C10.9302 14.4764 9.0728 17.9887 8.81086 18.1786V2.46824C8.83467 0.878228 9.33474 1.25793 4.7627 1.25793V35.5738Z" fill="#F05F5F"/>
<path fill-rule="evenodd" clip-rule="evenodd" d="M107.491 36.9498H111.539V22.9719C116.42 22.9719 120.54 23.3042 122.683 18.5816C123.707 16.3271 123.374 12.1266 123.374 9.34999C123.374 4.05785 120.373 1.28125 115.039 1.28125H107.491V36.9498ZM114.944 19.2698H111.539V4.95965C115.182 4.95965 119.326 4.12904 119.326 9.2076V15.093C119.326 17.9646 117.825 19.2698 114.944 19.2698Z" fill="#313131"/>
<path fill-rule="evenodd" clip-rule="evenodd" d="M27.5514 33.3426H26.7894V36.9498C26.9085 36.9736 27.099 37.0685 27.1228 37.0685C34.6476 37.0685 35.4096 33.2477 37.0051 27.0538C37.2194 26.1994 37.4813 25.4163 37.6956 24.467L39.8388 16.6593C40.3389 14.9744 40.8389 13.242 41.2914 11.4621C41.7438 9.61105 42.2915 8.04476 42.7439 6.24116L43.7917 2.37291C44.1965 0.97275 44.7918 1.25753 40.1484 1.25753C39.6959 1.25753 39.4578 2.84755 39.2435 3.63069C38.4577 6.28863 37.267 11.2723 36.5526 14.1438L34.981 20.8598C34.8619 21.3107 34.6952 21.8565 34.6952 22.3312C34.3381 22.0701 34.5286 22.2125 34.2666 21.1209L31.6472 11.7232C31.0995 9.96702 30.6471 8.16342 30.0756 6.40728L28.9326 2.42038C28.5039 0.925287 29.2421 1.25753 24.8368 1.25753C24.3367 1.25753 24.6463 1.6847 24.7653 2.08813C24.8844 2.49157 24.9558 2.77635 25.0749 3.20352L27.1228 9.68224C28.2182 13.1471 29.4088 17.3238 30.528 20.5988L32.6235 27.1487C32.8379 27.8132 32.3378 28.5963 32.1235 29.2371C31.3615 31.3254 31.0995 33.3426 27.5514 33.3426Z" fill="#F05F5F"/>
<path fill-rule="evenodd" clip-rule="evenodd" d="M87.3447 1.59005V4.65143C87.3447 4.91248 87.4162 4.98367 87.6781 4.98367H93.917V36.6416C93.917 36.9027 93.9885 36.9739 94.2504 36.9739H97.7509C98.0128 36.9739 98.0843 36.9027 98.0843 36.6416V4.95994H104.657V1.59005C104.657 1.32901 104.585 1.25781 104.323 1.25781H87.6781C87.4162 1.25781 87.3447 1.32901 87.3447 1.59005Z" fill="#313131"/>
<path fill-rule="evenodd" clip-rule="evenodd" d="M163.736 57.573C163.76 60.3734 163.617 79.2874 163.903 80.2841C164.356 81.8979 166.546 82.1827 167.356 80.7351C167.951 79.6671 167.642 77.0092 167.642 75.5616C167.642 71.7882 167.618 67.9912 167.594 64.2179C167.594 62.8177 167.642 42.3136 167.451 41.483C167.023 39.7743 164.927 39.5133 164.046 40.866C163.403 41.839 163.713 44.8529 163.713 46.2056C163.689 50.0026 163.689 53.7997 163.736 57.573Z" fill="#FF5151"/>
<path fill-rule="evenodd" clip-rule="evenodd" d="M169.975 69.1539C169.999 70.7914 169.832 79.5484 170.142 80.4027C170.689 81.8978 172.714 82.1826 173.547 80.7587C174.095 79.8332 173.833 76.6531 173.833 75.3954C173.809 67.825 173.785 60.2546 173.761 52.6842C173.761 50.9043 173.928 42.3847 173.595 41.3642C173.118 39.8454 171.047 39.4895 170.166 40.9371C169.642 41.8151 169.856 45.1138 169.88 46.3479C169.999 53.942 169.904 61.5598 169.975 69.1539Z" fill="#FF5151"/>
<path fill-rule="evenodd" clip-rule="evenodd" d="M157.45 42.1948L157.521 62.3903C157.545 68.0622 157.426 73.9714 157.593 79.6432C157.664 81.7079 159.95 82.5385 161.093 80.8535C161.474 80.284 161.45 79.7381 161.426 78.9787L161.284 42.2897C161.284 39.2758 157.45 39.3232 157.45 42.1948Z" fill="#FF5151"/>
<path fill-rule="evenodd" clip-rule="evenodd" d="M145.02 51.8062L145.115 75.9412C145.115 77.104 144.924 79.9993 145.401 80.8299C146.163 82.1351 147.901 82.0877 148.615 80.9011C149.234 79.9044 148.949 77.46 148.949 76.1548L148.83 45.2562C148.83 43.8561 149.092 41.6016 148.282 40.7235C147.234 39.6081 145.472 40.1065 145.067 41.4592C144.805 42.4796 145.02 50.1212 145.02 51.8062Z" fill="#FF5151"/>
<path fill-rule="evenodd" clip-rule="evenodd" d="M152.783 40.1063C150.901 40.6046 151.211 42.1709 151.235 44.2593L151.378 78.4328C151.378 79.3583 151.259 80.1889 151.711 80.8771C152.044 81.3992 152.735 81.9213 153.664 81.7077C155.426 81.328 155.211 79.4058 155.211 77.5547L155.069 43.2863C155.069 42.432 155.14 41.5302 154.688 40.9131C154.307 40.3436 153.592 39.8927 152.783 40.1063Z" fill="#FF5151"/>
<path fill-rule="evenodd" clip-rule="evenodd" d="M163.569 36.5466L167.403 36.5229C167.403 31.3257 167.403 26.1047 167.403 20.9075C167.403 18.3208 167.403 15.734 167.403 13.1473C167.403 11.7234 167.594 6.26511 167.332 5.29212C167.07 5.17346 163.879 5.17346 163.641 5.29212C163.379 6.59736 163.593 11.3674 163.593 13.0523C163.593 15.6628 163.593 18.297 163.593 20.9075C163.569 26.1285 163.569 31.3257 163.569 36.5466Z" fill="#313131"/>
<path fill-rule="evenodd" clip-rule="evenodd" d="M150.949 36.5229C151.235 36.7127 154.402 36.689 154.664 36.5229L154.711 5.24463L150.877 5.29209C150.877 10.4893 150.877 15.7103 150.877 20.9075C150.877 23.4942 150.877 26.081 150.877 28.6677C150.877 30.1865 150.663 35.4075 150.949 36.5229Z" fill="#313131"/>
<path fill-rule="evenodd" clip-rule="evenodd" d="M146.281 2.82427C150.615 2.96666 155.187 2.82427 159.545 2.82427C161.783 2.82427 163.998 2.82427 166.236 2.82427C167.856 2.82427 171.547 3.01412 172.928 2.75307C172.928 1.54276 172.309 0.735888 171.475 0.30872C170.594 -0.14218 168.903 0.0476723 167.665 0.0476723H151.663C149.544 0.0476723 146.281 -0.616812 146.281 2.82427Z" fill="#00A9AF"/>
<path fill-rule="evenodd" clip-rule="evenodd" d="M150.877 5.2924L154.711 5.24494L163.641 5.2924C163.879 5.17375 167.07 5.17375 167.332 5.2924C168.57 5.2924 170.237 5.43479 171.142 5.10255C172.214 4.69911 172.618 3.96344 172.88 2.77686C171.499 3.0379 167.808 2.84805 166.189 2.84805C163.951 2.84805 161.736 2.84805 159.498 2.84805C155.14 2.84805 150.568 2.99044 146.234 2.84805C146.234 3.91597 146.853 4.60419 147.544 4.98389C148.377 5.41106 149.639 5.31614 150.877 5.2924Z" fill="#00B2C0"/>
<path fill-rule="evenodd" clip-rule="evenodd" d="M4.92924 37.5908H5.0483C10.049 37.401 10.3347 44.0458 5.90556 44.6391L4.83398 44.5916L5.31024 44.7578C5.47693 44.7815 5.71505 44.7578 5.90556 44.7578L6.739 51.806C6.71519 51.9484 6.45325 51.9247 6.85806 51.9247C7.02475 51.5925 7.09619 51.4026 7.26288 51.0229C7.54863 50.3584 8.16776 49.338 8.57258 48.2938C10.0728 44.473 12.3826 40.6997 9.5489 37.3298C9.28696 36.9975 9.02502 36.9026 8.81071 36.6653C7.88201 36.2856 7.64388 35.8347 6.23893 35.6448L4.83398 35.6211C4.88161 36.2381 5.11974 36.9975 4.92924 37.5908Z" fill="#FE5454"/>
<path fill-rule="evenodd" clip-rule="evenodd" d="M6.73917 51.8061L5.90572 44.7579C5.71522 44.7579 5.5009 44.7816 5.3104 44.7579L4.83415 44.5917C3.21488 44.3781 1.88137 42.8356 1.90519 41.0083C1.95281 39.1335 3.28632 37.9469 4.90559 37.5909C5.1199 36.9976 4.85796 36.2619 4.81034 35.6212L6.21529 35.6449L4.7389 35.5737C4.0007 35.811 3.33395 35.7399 2.31 36.4993C-0.237958 38.3741 -0.618961 40.9845 0.762176 43.7611C1.88137 45.9919 4.61983 49.4567 6.14385 51.379C6.40579 51.6875 6.38197 51.6637 6.73917 51.8061Z" fill="#FE5F5F"/>
<path fill-rule="evenodd" clip-rule="evenodd" d="M4.83374 44.5917L5.90531 44.6391L5.691 42.6694C3.47642 42.6931 3.54786 40.1064 4.90518 39.7504C5.09568 39.5131 4.88137 39.6317 5.33381 39.5368L5.07187 37.5908H4.95281C3.33354 37.9468 1.97622 39.1334 1.9524 41.0082C1.88097 42.8118 3.23829 44.3781 4.83374 44.5917Z" fill="#FC4444"/>
<path fill-rule="evenodd" clip-rule="evenodd" d="M5.31017 39.513C6.23886 39.6791 6.90562 39.8927 7.02468 40.9131C7.14374 41.9336 6.5008 42.4557 5.66736 42.6455L5.88167 44.6153C10.3108 44.022 10.0251 37.3771 5.02441 37.567L5.31017 39.513Z" fill="#F93C3C"/>
<path fill-rule="evenodd" clip-rule="evenodd" d="M70.0332 42.1472C70.6285 44.0694 72.4383 43.2625 74.0099 42.8828C74.6529 42.7167 75.7482 42.5269 76.2721 42.2895C76.5579 42.1709 76.8913 41.9336 77.0579 41.6488C77.1056 41.5539 77.2484 41.1742 77.2723 41.0792C77.2961 40.9843 77.2961 40.8894 77.2961 40.7945L77.177 40.4385L70.0332 42.1472Z" fill="#313131"/>
<path fill-rule="evenodd" clip-rule="evenodd" d="M89.3216 40.5811L81.9873 40.2251C81.9873 42.3609 84.0114 41.8626 85.5116 42.0524C85.9164 42.0999 87.7024 42.1236 88.0834 42.0524C88.7263 41.9575 89.2978 41.3405 89.3216 40.5811Z" fill="#323232"/>
<path fill-rule="evenodd" clip-rule="evenodd" d="M127.112 64.6686C127.97 65.2144 129.375 65.8551 130.375 66.3535C131.28 66.8044 132.78 67.6587 133.685 67.991C134.494 66.045 132.232 65.4754 130.184 64.4787C128.851 63.8142 128.184 63.2447 127.112 64.6686Z" fill="#454545"/>
<path fill-rule="evenodd" clip-rule="evenodd" d="M101.252 44.4255C100.799 44.3781 94.703 41.91 94.5602 41.7676C94.3935 41.8625 94.0125 41.9574 94.3458 42.8592C94.7507 43.9746 95.6079 43.9509 97.0843 44.6154C98.6559 45.2799 100.513 46.2528 101.252 44.4255Z" fill="#313131"/>
<path fill-rule="evenodd" clip-rule="evenodd" d="M23.003 65.1197L22.9553 65.7842L15.8115 64.2891C15.8115 66.4249 16.9783 66.1639 19.3834 66.686C20.0264 66.8283 21.2884 67.2318 21.979 67.0182C22.5981 66.8046 23.2887 65.9503 23.003 65.1197Z" fill="#323232"/>
<path fill-rule="evenodd" clip-rule="evenodd" d="M48.3638 52.9452C48.6019 53.6097 49.5544 53.9894 50.4355 53.6571C50.6974 53.5622 51.1499 53.2537 51.4118 53.0876C53.5788 51.6874 55.7219 51.3077 54.6741 49.1719C54.436 49.5041 51.8642 50.928 51.5309 51.1179C50.5545 51.6637 49.3639 52.4943 48.3638 52.9452Z" fill="#323232"/>
<path fill-rule="evenodd" clip-rule="evenodd" d="M110.681 52.8026C110.181 52.5653 109.61 52.0432 109.157 51.6873C108.633 51.2838 108.252 50.9753 107.729 50.5956C107.228 50.2159 105.157 48.7208 104.919 48.3174C103.561 49.9074 105.752 51.0702 106.752 51.9008C107.062 52.1619 107.3 52.328 107.609 52.5653C107.895 52.7789 108.252 53.1112 108.538 53.2773C108.872 53.4671 109.253 53.6332 109.705 53.5146C110.11 53.3959 110.562 53.1586 110.681 52.8026Z" fill="#313131"/>
<path fill-rule="evenodd" clip-rule="evenodd" d="M36.9575 59.7801C38.3148 61.5125 39.3626 60.3022 40.9819 59.4004L42.9107 58.2612C43.4584 57.7866 43.7679 57.0747 43.4822 56.4339C43.3631 56.1729 43.4108 56.2678 43.3155 56.1729C42.3868 56.5763 41.0771 57.4544 40.1484 58.0002C39.5293 58.3799 37.529 59.6614 36.9575 59.7801Z" fill="#323232"/>
<path fill-rule="evenodd" clip-rule="evenodd" d="M58.8652 47.2023C59.0319 47.9142 59.913 48.3414 60.7226 48.1041L64.6994 46.1581C65.3661 45.7784 65.8186 44.9715 65.4376 43.9985L58.8652 47.2023Z" fill="#313131"/>
<path fill-rule="evenodd" clip-rule="evenodd" d="M27.0039 64.8583C27.7421 66.8043 30.0996 65.2143 30.9568 64.7872C31.9808 64.2651 33.4095 63.9328 33.7429 62.9598C33.8143 62.7462 33.8382 62.5327 33.8382 62.2716C33.8382 62.0818 33.8382 62.0343 33.7667 61.8919C33.6477 61.5834 33.6953 61.7495 33.5762 61.6309C33.3619 62.0106 30.8616 63.0548 30.3377 63.2921C29.3852 63.743 27.9326 64.5973 27.0039 64.8583Z" fill="#323232"/>
<path fill-rule="evenodd" clip-rule="evenodd" d="M27.0038 64.8586C27.9325 64.5976 29.385 63.7432 30.3375 63.2923C30.8614 63.055 33.3618 62.0108 33.5761 61.6311C33.2903 60.9666 32.4807 60.6581 31.7425 60.8717L29.7184 61.7972C29.0755 62.1058 28.3611 62.438 27.742 62.7702C27.1466 63.1025 26.5275 63.8619 27.0038 64.8586Z" fill="#454545"/>
<path fill-rule="evenodd" clip-rule="evenodd" d="M133.684 67.9909C132.78 67.6824 131.279 66.8043 130.375 66.3534C129.374 65.855 127.993 65.2143 127.112 64.6685C126.279 66.5907 128.208 67.0891 129.66 67.8248C131.351 68.6554 132.589 69.7233 133.684 67.9909Z" fill="#313131"/>
<path fill-rule="evenodd" clip-rule="evenodd" d="M121.23 61.5124C120.445 60.8242 119.135 60.0648 118.23 59.4478C117.73 59.1155 117.23 58.7595 116.73 58.4273C116.254 58.1188 115.634 57.7628 115.277 57.3594C114.825 57.7153 114.658 58.7121 115.515 59.5189L119.135 62.0108C119.873 62.4142 120.921 62.2481 121.23 61.5124Z" fill="#313131"/>
<path fill-rule="evenodd" clip-rule="evenodd" d="M12.216 61.5599C11.7873 61.4176 12.1683 61.6549 11.8112 61.2752L7.62012 55.9355C7.00099 56.1491 6.66761 57.2645 7.2153 58.0714L10.049 61.5837C10.692 62.2007 11.6445 62.177 12.216 61.5599Z" fill="#313131"/>
<path fill-rule="evenodd" clip-rule="evenodd" d="M104.919 48.2938C105.181 48.6973 107.229 50.1923 107.729 50.5721C108.229 50.9518 108.634 51.2603 109.158 51.6637C109.61 52.0197 110.182 52.5418 110.682 52.7791C111.348 52.2333 110.991 51.0941 110.491 50.667C110.301 50.5009 110.301 50.5246 110.11 50.3822L108.8 49.3855C108.229 48.9583 107.753 48.5074 107.134 48.104C106.3 47.5344 105.61 47.6293 104.919 48.2938Z" fill="#454545"/>
<path fill-rule="evenodd" clip-rule="evenodd" d="M48.3638 52.9452C49.3639 52.5181 50.5545 51.6875 51.5071 51.1179C51.8404 50.9281 54.436 49.5042 54.6503 49.1719C53.2692 47.8192 52.7929 48.5549 50.745 49.7177C50.1497 50.0737 49.4353 50.4297 48.8876 50.8094C48.2685 51.2603 47.8399 51.9722 48.3638 52.9452Z" fill="#454545"/>
<path fill-rule="evenodd" clip-rule="evenodd" d="M81.9873 40.2249L89.3216 40.5809C89.3216 38.7773 87.5595 38.801 85.7021 38.8247C84.9163 38.8247 83.8447 38.6111 83.2256 38.7535C82.5826 38.8959 82.0111 39.4418 81.9873 40.2249Z" fill="#454545"/>
<path fill-rule="evenodd" clip-rule="evenodd" d="M70.0333 42.1471L77.1533 40.4384C76.9866 38.445 74.1053 39.5366 73.248 39.7265C72.0812 39.9875 70.7953 40.0825 70.2476 40.8893C69.9619 41.364 70.0333 41.4114 70.0333 42.1471Z" fill="#454545"/>
<path fill-rule="evenodd" clip-rule="evenodd" d="M58.8653 47.2022L65.4376 44.0222C65.2233 43.7137 65.1281 43.5238 64.7709 43.3102C64.3899 43.0966 63.985 43.0254 63.5564 43.1678C62.9849 43.3577 62.0324 43.9035 61.4847 44.1646C60.1512 44.829 59.1273 45.0426 58.7463 46.0156C58.651 46.2292 58.6034 46.2767 58.651 46.6564C58.6986 47.0124 58.7939 47.0835 58.8653 47.2022Z" fill="#454545"/>
<path fill-rule="evenodd" clip-rule="evenodd" d="M15.8354 64.2891L22.9793 65.7842L23.0269 65.1197C22.8364 64.4078 22.4316 64.0281 21.7172 63.862C20.9552 63.6958 17.8595 63.0076 17.288 63.0314C16.907 63.0551 16.5736 63.1975 16.3355 63.4111C16.026 63.6721 15.9783 63.9332 15.8354 64.2891Z" fill="#454545"/>
<path fill-rule="evenodd" clip-rule="evenodd" d="M94.5842 41.7437C94.7033 41.9098 100.823 44.3779 101.276 44.4016C101.538 43.5473 101.204 42.8353 100.609 42.5031C100.347 42.3607 99.9183 42.242 99.5849 42.0996C99.2039 41.9335 98.8467 41.7911 98.5134 41.6487L96.9179 41.0555C96.2749 40.8181 95.3463 40.5096 94.7033 41.2453C94.4414 41.5775 94.5604 41.6487 94.5842 41.7437Z" fill="#454545"/>
<path fill-rule="evenodd" clip-rule="evenodd" d="M36.9574 59.7799C37.5289 59.6613 39.5292 58.356 40.1245 58.0001C41.0532 57.4542 42.3629 56.5762 43.2916 56.1727C43.1963 55.7693 42.9582 55.6032 42.5772 55.4371C41.6485 55.0336 41.1723 55.532 40.3864 55.9829L37.5051 57.6916C36.8622 58.1425 36.624 58.9731 36.9574 59.7799Z" fill="#454545"/>
<path fill-rule="evenodd" clip-rule="evenodd" d="M7.62012 55.9351L11.8112 61.251C12.1683 61.6544 11.7873 61.3934 12.216 61.5357C13.5019 60.2068 12.0969 59.0439 11.0491 57.7387C10.6205 57.1929 9.81089 55.9825 9.23938 55.7215C9.14413 55.674 8.81075 55.5554 8.66788 55.5554C8.23925 55.5079 7.83443 55.6503 7.62012 55.9351Z" fill="#454545"/>
<path fill-rule="evenodd" clip-rule="evenodd" d="M115.277 57.3594C115.635 57.7628 116.254 58.0951 116.73 58.4273C117.23 58.7595 117.73 59.1155 118.23 59.4478C119.111 60.0648 120.445 60.8242 121.231 61.5124C121.707 61.0852 121.707 60.0173 121.016 59.4003L119.206 58.1662C118.564 57.7865 118.087 57.3831 117.444 56.9797C116.944 56.6712 116.182 56.5288 115.635 56.9559C115.349 57.1458 115.444 57.0746 115.277 57.3594Z" fill="#454545"/>
<path fill-rule="evenodd" clip-rule="evenodd" d="M168.713 85.4102L163.57 85.4576C163.57 86.217 163.689 86.6679 164.237 86.8341C164.499 86.9053 164.737 86.9053 164.951 86.929C167.547 86.9765 168.713 87.4748 168.713 85.4102Z" fill="#2E2E2E"/>
<path fill-rule="evenodd" clip-rule="evenodd" d="M155.902 85.4811C155.354 85.3862 151.139 85.3624 150.782 85.5286C150.663 86.3117 150.877 86.6914 151.473 86.8576C151.639 86.905 152.378 86.9525 153.044 86.9525C154.83 86.9525 155.902 87.3322 155.902 85.4811Z" fill="#2F2F2F"/>
<path fill-rule="evenodd" clip-rule="evenodd" d="M5.66766 42.6458C6.47729 42.4559 7.14404 41.9338 7.02498 40.9133C6.90592 39.8929 6.23916 39.6793 5.31046 39.5132C4.88184 39.6081 5.07234 39.4657 4.88184 39.7268L5.28665 39.6793L5.66766 42.6458Z" fill="#FE5454"/>
<path fill-rule="evenodd" clip-rule="evenodd" d="M5.66728 42.6456L5.28628 39.6792L4.88146 39.7267C3.52414 40.0826 3.4527 42.6694 5.66728 42.6456Z" fill="#FE5F5F"/>
</g>
<defs>
<clipPath id="clip0">
<rect width="178" height="87" fill="white"/>
</clipPath>
</defs>
</svg>
