<svg width="46" height="70" viewBox="0 0 46 70" fill="none" xmlns="http://www.w3.org/2000/svg">
<path d="M23.0318 69.2608C26.4776 64.4334 45.5 37.1867 45.5 24C45.5 11.122 35.6336 0.171143 22.8016 0.00198621C22.6359 -0.000197734 22.5 0.134315 22.5 0.3V69.0804C22.5 69.3706 22.8632 69.4971 23.0318 69.2608Z" fill="#FE5454"/>
<path d="M22.4682 69.2608C19.0224 64.4334 0 37.1867 0 24C0 11.122 9.8664 0.171143 22.6984 0.00198621C22.8641 -0.000197734 23 0.134315 23 0.3V69.0804C23 69.3706 22.6368 69.4971 22.4682 69.2608Z" fill="#FE5F5F"/>
<path d="M7 23C7 31.8366 14.1634 39 23 39V7C14.1634 7 7 14.1634 7 23Z" fill="white"/>
<path d="M39 23C39 14.1634 31.8366 7.00001 23 7L23 39C31.8366 39 39 31.8366 39 23Z" fill="white"/>
<path d="M16 23C16 26.866 19.134 30 23 30V16C19.134 16 16 19.134 16 23Z" fill="#FE5F5F"/>
<path d="M30 23C30 19.134 26.866 16 23 16L23 30C26.866 30 30 26.866 30 23Z" fill="#FE5454"/>
</svg>
