<svg width="594" height="415" viewBox="0 0 594 415" fill="none" xmlns="http://www.w3.org/2000/svg">
<circle cx="276" cy="229" r="164" fill="#80DEEA"/>
<g clip-path="url(#clip0)">
<path d="M181.443 298.87C186.742 300.137 192.04 301.403 197.339 302.67C204.362 304.349 211.369 306.092 218.407 307.707C220.386 308.18 221.365 308.886 221.071 311.244C220.204 318.256 223.429 323.682 230.047 326.208C232.396 327.108 232.806 328.217 232.096 330.341C231.617 331.779 231.315 333.326 231.028 334.809C230.713 336.69 230.155 338.176 227.766 338.009C226.698 337.956 225.974 338.728 225.715 339.813C225.425 341.025 225.85 342.071 226.953 342.537C228.92 343.345 228.727 344.716 228.282 346.296C227.467 349.137 227.757 352.444 223.338 353.142C221.446 353.432 221.617 356.104 223.587 357.182C225.252 358.12 225.391 359.233 224.849 360.655C223.889 363.259 224.771 366.91 220.124 367.149C218.343 367.263 218.133 370.114 219.96 371.225C221.786 372.336 221.959 373.592 221.34 375.333C221.093 376.083 220.989 376.801 220.806 377.566C220.318 379.609 220.246 381.885 219.117 383.504C217.737 385.603 215.267 383.798 213.311 384.073C207.652 384.879 203.478 387.659 201.497 393.122C200.647 395.55 199.521 396.023 197.095 395.443C154.145 385.108 111.179 374.837 68.1986 364.629C65.7088 364.034 64.9037 363.167 65.21 360.474C65.8876 353.687 62.6019 348.516 56.2245 346.115C53.811 345.2 53.2251 343.981 53.9811 341.665C54.5055 340.037 54.8536 338.298 55.2016 336.56C55.6413 334.439 55.9865 332.43 58.9662 332.67C60.0334 332.723 60.7244 331.808 60.7923 330.678C60.9087 329.626 60.6601 328.69 59.6358 328.175C58.42 327.614 57.4567 326.844 57.9353 325.407C58.7676 322.773 57.5241 322.61 55.541 323.283C52.9071 324.138 51.5178 323.738 50.5625 320.676C48.7006 314.632 42.8989 310.951 36.6011 311.604C33.9768 311.854 33.0136 311.084 32.7176 308.652C32.4758 306.84 32.0425 304.982 31.594 303.188C31.1274 301.188 30.8399 299.567 33.2461 298.254C35.2569 297.183 34.4779 294.23 32.1033 294C28.3423 293.641 29.4091 290.59 28.7357 288.607C28.0804 286.831 27.7748 285.004 30.2324 284.04C31.1997 283.664 31.6353 282.689 31.3534 281.61C31.0715 280.53 30.458 279.709 29.3908 279.656C25.8879 279.628 26.3524 276.838 25.901 274.774C25.4344 272.773 24.3142 270.684 27.3074 269.173C29.2239 268.215 28.7307 265.196 26.6115 265.027C23.7748 264.753 23.2957 263.087 23.0817 260.877C23.0275 260.257 22.9247 259.558 22.6637 258.955C21.3378 255.468 22.0508 253.614 26.0017 252.332C31.4917 250.541 34.6161 244.812 34.1073 238.753C33.8571 236.13 34.7729 235.404 37.1877 234.902C80.5306 226.374 123.919 217.654 167.259 208.855C169.595 208.401 170.729 208.739 171.536 211.294C173.577 217.718 179.187 221.353 185.962 220.679C188.252 220.417 189.167 221.108 189.46 223.269C189.683 224.875 190.035 226.51 190.401 228.082C190.899 229.955 191.01 231.466 188.774 232.348C187.743 232.709 187.42 233.779 187.638 234.843C187.889 236.05 188.758 236.932 189.92 236.872C192.863 236.699 192.728 238.96 192.872 240.614C193.038 242.745 195.404 245.267 192.046 246.893C190.905 247.43 190.518 248.484 190.721 249.612C190.893 250.868 191.823 251.495 193.018 251.578C196.235 251.673 195.673 254.304 196.043 256.147C196.412 257.989 197.837 260.219 194.856 261.395C193.746 261.804 193.279 262.907 193.659 264.145C194.004 265.24 194.794 266.17 196.035 266.062C198.039 265.867 198.418 267.104 198.657 268.646C198.808 269.424 198.975 270.138 199.126 270.917C199.562 273.045 200.381 275.265 200.164 277.304C199.906 280.076 196.714 279.313 194.959 280.445C190.404 283.404 187.74 287.49 188.241 292.737C188.551 296.521 187.142 297.331 184.104 297.617C183.277 297.689 182.468 297.968 181.61 298.168C181.486 298.408 181.425 298.663 181.443 298.87Z" fill="#6A184D"/>
<path d="M78.1637 352.304C76.7876 347.05 74.4623 342.379 70.1595 338.921C69.02 338.042 68.9144 337.072 69.2195 335.796C70.0919 332.429 70.9644 329.062 71.8368 325.694C75.5126 322.458 80.2895 322.52 84.6901 321.616C89.7902 320.609 92.1507 319.487 90.1131 327.163C88.6859 332.286 87.2586 337.41 86.5974 342.716C87.2471 343.951 88.1894 344.244 89.3426 343.372C91.2513 337.082 92.6492 330.67 94.0319 324.321C94.7614 320.988 96.3349 319.205 99.7197 318.597C113.861 315.906 128 312.945 142.108 310.11C147.986 308.952 153.78 307.301 159.898 307.684C175.363 311.314 190.892 314.959 206.357 318.588C207.378 318.833 208.035 319.192 208.271 320.463C209.33 325.911 212.273 330.258 216.403 333.876C216.988 335.095 216.443 336.247 216.169 337.396C213.804 347.287 211.375 357.164 209.138 367.086C208.619 369.256 207.643 370.237 205.453 370.927C201.374 372.179 197.59 374.175 194.759 377.546C193.155 379.457 191.409 379.984 188.999 379.34C181.56 377.427 174.139 375.72 166.654 373.998C164.994 373.601 163.76 372.834 162.694 371.365C159.949 367.605 155.352 366.506 151.042 368.444C149.22 369.291 147.517 369.356 145.665 368.913C124.215 363.785 102.7 358.642 81.249 353.514C80.0846 353.303 78.9688 353.171 78.1637 352.304Z" fill="#FEDF81"/>
<path d="M30.2068 263.255C29.5656 262.832 28.9243 262.409 28.2831 261.985C26.7673 260.139 25.7442 258.208 27.072 255.759C28.9703 254.594 30.7896 253.477 32.688 252.312C35.8406 249.287 37.7441 245.559 38.3194 241.177C38.5551 239.344 39.3918 238.667 41.1709 238.283C47.6699 237.07 54.1841 235.794 60.665 234.375C64.43 233.589 66.6384 236.208 69.1118 238.283C69.0123 240.958 66.7501 240.822 65.0501 241.158C60.0139 242.18 55.0443 243.488 49.9567 244.161C46.6815 244.593 44.7221 246.013 44.0746 249.569C43.2897 253.699 40.6478 256.846 37.2827 259.347C35.6397 260.573 35.2555 261.898 35.6735 263.82C37.7777 274.78 40.1678 285.673 42.1443 296.603C42.6499 299.287 43.8922 300.866 46.6832 301.331C51.1645 302.065 54.2695 305.168 57.0734 308.402C58.3949 309.933 59.6259 310.429 61.5966 310.091C72.2436 308.183 82.8545 305.863 93.4043 303.797C117.284 299.049 141.194 294.173 165.058 289.488C168.172 288.883 171.219 287.993 174.367 287.531C176.179 287.289 177.029 286.278 177.489 284.634C178.779 280.085 181.175 276.273 184.918 273.322C186.655 271.983 187.164 270.418 186.68 268.211C184.575 257.251 182.106 246.406 180.145 235.413C179.773 233.3 178.913 231.812 176.6 231.327C171.814 230.453 168.25 227.577 165.441 223.802C164.101 222.065 162.712 221.665 160.662 222.052C144.79 225.207 129 228.583 113.08 231.658C104.595 233.273 96.1584 234.967 87.6916 236.788C86.1346 237.091 84.4526 237.633 83.0521 236.151C84.3353 232.478 86.2777 229.434 90.4716 228.547C115.239 223.472 140.025 218.603 164.777 213.591C166.127 213.306 167.505 212.624 168.76 213.868C172.246 219.896 177.111 223.825 184.405 224.085C186.284 224.129 187.68 228.174 186.55 229.793C183.302 234.346 183.392 235.379 186.983 239.274C189.995 241.073 190.231 242.344 187.918 244.962C186.533 246.52 186.456 248.255 187.16 250.11C187.943 251.917 189.057 253.465 190.772 254.482C192.637 256.277 193.292 258.053 190.892 259.908C188.902 261.456 189.159 263.204 190.261 265.087C190.816 266.434 191.782 267.474 192.828 268.466C196.708 271.148 196.459 274.732 192.565 276.904C187.975 279.45 184.749 283.064 184.233 288.608C183.7 293.945 183.554 293.707 177.946 294.863C168.445 296.775 158.945 298.686 149.395 300.519C138.432 302.62 127.456 305.056 116.444 307.079C109.595 308.342 102.78 309.749 95.9646 311.156C82.4616 313.999 68.8128 316.606 55.325 319.386C53.3917 318.721 53.1472 316.639 51.9076 315.331C50.8291 314.196 49.7811 312.933 48.4501 312.008C45.1953 309.813 41.5535 308.673 37.6162 308.204C35.8728 305.898 35.1938 303.374 36.008 300.533C36.1481 300.229 36.3521 299.94 36.4769 299.7C39.2979 296.934 39.2048 295.63 35.9387 292.353C35.2975 291.93 34.7354 291.458 34.0941 291.035C32.9004 289.535 31.7857 287.987 33.3259 286.061L33.3107 286.125C36.3244 281.988 36.334 281.383 33.2109 278.073C32.5697 277.65 31.8798 277.148 31.2386 276.725C29.6771 275.069 29.3076 273.227 30.2094 271.149L30.1303 271.197C33.4412 268.076 33.4576 266.596 30.2068 263.255Z" fill="#E65656"/>
<path d="M64.0402 329.228C63.8097 328.498 63.5792 327.768 63.2849 327.023C64.8126 325.432 66.4002 325.002 68.0437 326.879C67.3447 330.085 66.6457 333.291 65.8191 336.467C65.3128 338.303 65.5642 339.51 67.1839 340.639C71.6573 343.665 74.1713 348.111 75.0062 353.371C75.2965 355.262 76.1626 355.873 77.8863 356.286C115.936 365.382 154.05 374.493 192.099 383.589C193.823 384.002 194.903 383.72 196.05 382.308C199.255 378.216 203.414 375.5 208.578 374.508C210.278 374.173 211.258 373.462 211.685 371.675C214.551 359.407 217.464 347.218 220.458 334.98C220.808 333.512 220.432 332.545 219.15 331.699C214.676 328.673 212.083 324.275 211.248 319.016C210.94 316.918 209.992 316.084 207.998 315.675C195.214 312.687 182.476 309.506 169.708 306.454C169.861 304.399 171.643 304.286 173.058 304.017C175.506 303.657 177.954 303.298 180.335 302.653C181.116 302.772 181.867 303.019 182.633 303.202C193.04 305.69 203.446 308.178 213.916 310.681C215.257 311.001 216.786 311.097 217.581 312.569C218.007 319.822 221.058 325.409 227.779 328.635C228.172 331.225 228.179 333.453 225.168 334.757C223.06 335.67 221.805 337.529 222.421 340.037C222.723 341.594 223.248 343.069 224.153 344.364C224.668 346.444 224.591 348.18 222.164 349.016C219.816 349.804 218.72 351.566 219 354.062C218.956 355.94 219.721 357.54 220.644 359.042C221.08 361.171 220.906 362.748 218.4 363.633C216.115 364.436 215.019 366.198 215.491 368.74C215.794 370.296 216.161 371.868 217.194 373.195C217.645 378.362 216.875 379.325 211.897 379.822C206.141 380.47 201.745 383.332 199.235 388.466C198.035 390.945 196.7 391.166 194.338 390.601C153.303 380.724 112.237 370.974 71.202 361.097C69.5268 360.764 69.4489 359.396 69.2128 358.125C68.8405 356.012 68.7541 353.833 67.3508 352.08C65.5904 348.151 62.5063 345.525 58.9171 343.318C58.1381 340.365 58.8122 337.828 60.827 335.611L60.8117 335.675C64.5225 334.268 65.1621 333.004 64.0402 329.228Z" fill="#22A9BF"/>
<path d="M168.775 213.804C149.853 217.579 130.931 221.354 112.008 225.128C105.272 226.486 98.5845 227.923 91.7997 229.202C89.5432 229.607 87.6849 230.04 86.8193 232.532C86.2464 234.082 84.6311 234.91 83.4322 235.972C81.4078 238.794 71.9862 240.657 69.1173 238.825C67.1049 238.208 65.1563 237.608 63.7377 235.919C62.9479 234.988 62.0264 235.173 61.0411 235.342C54.5269 236.618 47.9821 238.022 41.4832 239.235C39.8623 239.522 39.4086 240.29 39.1854 241.789C38.5462 246.156 36.5941 249.805 32.7669 252.263C35.2727 248.274 37.6356 244.319 37.4086 239.34C37.3098 237.495 39.0488 237.843 40.0493 237.61C53.2359 234.96 66.3435 232.359 79.5301 229.71C108.175 223.942 136.884 218.189 165.514 212.485C166.8 212.185 168.699 211.02 168.775 213.804Z" fill="#F69F9E"/>
<path d="M159.882 307.748C154.331 309.794 148.462 310.348 142.711 311.537C127.794 314.65 112.844 317.62 97.8932 320.59C95.8435 320.977 95.0276 322.131 94.5852 323.982C93.3522 329.421 92.0707 334.782 90.7101 340.191C90.4355 341.34 90.401 342.614 89.3269 343.436C91.3865 334.821 93.51 326.221 95.5696 317.605C95.9815 315.882 96.8002 314.999 98.564 314.678C114.643 311.506 130.703 308.126 146.8 305.161C151.249 304.335 155.556 306.647 159.882 307.748Z" fill="#D29333"/>
<path d="M78.1636 352.304C94.8416 356.223 111.583 360.158 128.246 364.142C133.8 365.469 139.306 366.718 144.845 368.11C146.76 368.568 148.351 368.408 150.091 367.34C154.758 364.475 161.494 366.221 164.011 370.938C164.855 372.489 165.834 373.195 167.445 373.513C174.483 375.128 181.505 376.806 188.513 378.549C190.732 379.147 192.207 378.623 193.702 376.889C196.736 373.229 200.773 371.023 205.25 369.799C207.488 369.188 208.161 368.067 208.634 366.088C211.133 355.352 213.76 344.646 216.339 333.861C217.715 334.594 217.106 335.731 216.862 336.752C214.299 347.473 211.736 358.194 209.237 368.931C208.81 370.718 207.894 371.444 206.242 371.858C201.781 373.018 197.984 375.349 194.947 378.738C193.562 380.296 192.291 380.532 190.375 380.074C153.937 371.295 117.468 362.645 81.0297 353.866C79.9777 353.749 78.515 353.94 78.1636 352.304Z" fill="#D09133"/>
<path d="M55.1609 318.942C60.0734 316.743 65.5316 316.496 70.7261 315.377C85.6737 312.136 100.658 309.309 115.623 306.275C136.802 302.096 157.996 297.852 179.16 293.737C181.988 293.198 183.184 291.865 183.138 288.953C182.963 282.907 186.281 278.91 191.267 276.122C195.794 273.561 196.071 272.683 192.873 268.275C196.762 268.665 195.81 272.08 196.486 274.333C197.081 276.365 195.174 276.718 193.796 277.401C188.603 280.207 185.273 284.539 185.095 290.365C185.007 294.122 183.005 294.588 180.384 295.109C168.484 297.459 156.599 299.745 144.684 302.158C120.074 307.137 95.4648 312.116 70.7916 317.079C65.5485 318.12 60.3055 319.16 55.0625 320.2C54.6281 319.759 54.7196 319.376 55.1609 318.942Z" fill="#C62B37"/>
<path d="M70.2545 360.263C101.282 367.68 132.357 375.177 163.384 382.594C173.599 385.036 183.829 387.414 194.028 389.92C196.135 390.424 197.248 390.285 198.211 387.951C200.463 382.485 204.905 379.432 210.74 378.736C215.892 378.078 215.925 378.221 217.036 373.292C219.028 376.534 217.258 380.833 213.773 381.012C207.408 381.38 202.52 384.326 199.49 389.944C198.646 391.496 197.891 392.395 195.784 391.891C154.366 381.922 112.933 372.017 71.4997 362.112C70.9889 361.99 70.5087 361.74 69.9494 361.539C69.7217 361.08 69.8285 360.633 70.2545 360.263Z" fill="#387DC1"/>
<path d="M86.5973 342.716C86.3149 338.533 88.1699 334.726 88.8756 330.645C89.2209 328.636 89.773 326.609 90.3097 324.646C90.9714 322.443 90.1386 321.974 88.0736 322.425C82.6724 323.562 77.2226 324.621 71.8367 325.694C72.8267 319.859 72.8267 319.859 78.3556 318.752C82.4065 317.899 86.506 317.125 90.5569 316.272C92.4789 315.854 92.8981 316.359 92.4557 318.21C90.4391 326.364 88.5501 334.547 86.5973 342.716Z" fill="#D19332"/>
<path d="M217.439 312.602C205.5 309.748 193.577 306.83 181.639 303.976C182.331 301.646 184.053 303.474 185.243 303.017C195.33 305.428 205.368 307.76 215.455 310.172C216.796 310.492 218.246 310.636 217.439 312.602Z" fill="#98CDF0"/>
<path d="M179.742 303.725C176.623 305.476 172.811 304.767 169.629 306.503C165.415 305.495 161.266 304.503 157.052 303.496C157.034 303.289 157.016 303.083 156.998 302.876C160.811 302.168 164.61 301.525 168.36 300.802C171.382 300.58 174.286 301.139 177.192 301.969C178.262 302.292 179.362 302.488 179.742 303.725Z" fill="#397BBF"/>
<path d="M68.0438 326.879C66.4296 326.291 64.9324 327.755 63.285 327.023C62.9477 326.74 62.6742 326.473 62.337 326.19C62.1438 324.457 62.2546 322.864 63.9309 321.781C65.6128 321.238 68.1468 319.955 68.9547 321.093C70.0693 322.641 68.5653 324.98 68.0438 326.879Z" fill="#397BBE"/>
<path d="M179.742 303.725C175.99 302.761 172.239 301.797 168.424 300.817C171.417 299.306 174.356 300.279 177.342 301.06C180.008 301.765 182.625 302.391 185.307 303.032C184.166 303.569 182.662 302.804 181.703 303.992C180.985 303.888 180.395 303.814 179.742 303.725Z" fill="#8A95BD"/>
<path d="M222.278 340.07C220.948 337.729 221.561 335.446 223.83 334.707C227.066 333.592 227.169 331.187 227.7 328.683C229.216 330.53 228.757 333.861 226.713 334.789C224.225 335.881 222.809 337.566 222.278 340.07Z" fill="#387CC1"/>
<path d="M187.175 250.046C185.23 248.3 185.208 246.135 186.976 244.669C189.565 242.589 188.992 241.036 187.014 239.146C190.482 240.447 191.14 242.494 188.955 245.142C187.713 246.667 187.635 248.402 187.175 250.046Z" fill="#C52938"/>
<path d="M218.842 354.159C217.476 351.404 218.427 349.404 221.125 348.565C223.314 347.874 223.808 346.373 223.995 344.461C225.69 346.688 225.12 348.508 222.823 349.646C220.764 350.638 219.537 352.099 218.842 354.159Z" fill="#387BBE"/>
<path d="M190.276 265.023C188.207 263.516 187.722 261.309 189.681 259.888C192.194 258.128 191.907 256.507 190.787 254.418C193.188 255.667 193.828 257.506 192.16 259.401C190.745 261.087 190.062 262.813 190.276 265.023Z" fill="#C52A36"/>
<path d="M215.333 368.837C213.985 366.288 214.76 364.18 217.187 363.343C219.471 362.54 220.141 361.148 220.407 359.188C222.276 361.254 221.56 362.837 219.421 363.877C217.283 364.918 215.962 366.491 215.333 368.837Z" fill="#387BBD"/>
<path d="M60.6539 335.772C60.0436 338.325 59.4181 340.941 58.744 343.479C58.361 343.387 57.7559 343.377 57.5615 343.061C56.4136 341.37 58.5584 336.35 60.6539 335.772Z" fill="#91CCEF"/>
<path d="M36.0565 300.612C36.5926 303.169 37.1286 305.726 37.6647 308.283C37.4427 308.364 37.2054 308.51 37.0777 308.48C34.7918 307.596 34.1304 302.175 36.0565 300.612Z" fill="#EE9092"/>
<path d="M55.1612 318.942C55.1335 319.34 55.1544 319.817 55.1267 320.216C53.9013 320.26 53.4307 319.405 53.0392 318.502C51.9466 316.015 50.0478 314.076 48.3862 311.993C51.7907 313.279 53.5703 315.998 55.1612 318.942Z" fill="#E4858A"/>
<path d="M30.2065 263.255C32.3619 263.838 33.4918 265.322 33.4505 267.471C33.4245 269.556 32.1798 270.81 30.1786 271.276C32.2363 268.598 31.8585 265.944 30.2065 263.255Z" fill="#F09093"/>
<path d="M33.2593 278.152C35.1745 278.61 36.2864 279.888 36.3852 281.733C36.5354 283.928 35.3088 285.389 33.359 286.204C34.5563 283.455 35.118 280.823 33.2593 278.152Z" fill="#EB8F93"/>
<path d="M64.0405 329.228C65.7851 330.117 65.8325 331.613 65.2748 333.099C64.5008 335.207 62.7731 335.941 60.59 335.757C62.9143 334.221 64.1658 332.091 64.0405 329.228Z" fill="#8ECAF0"/>
<path d="M70.2542 360.263C70.1474 360.71 70.0559 361.093 69.9491 361.539C68.596 361.553 68.396 360.696 68.4638 359.565C68.5329 357.018 67.8872 354.637 67.1929 352.177C69.794 354.283 69.4294 357.502 70.2542 360.263Z" fill="#8CBAE2"/>
<path d="M35.9873 292.432C38.1579 292.951 39.3517 294.451 39.3104 296.6C39.312 298.287 38.6266 299.742 36.5255 299.78C38.0267 297.17 37.524 294.756 35.9873 292.432Z" fill="#EE9092"/>
<path d="M27.136 255.774C27.5235 257.823 27.8958 259.936 28.3471 262.001C25.5284 261.934 26.2359 259.539 25.7416 257.937C25.2501 256.605 25.7038 255.837 27.136 255.774Z" fill="#F19998"/>
<path d="M30.2577 271.228C30.6271 273.07 30.9175 274.961 31.2869 276.804C28.4903 275.798 28.0028 273.32 30.2577 271.228Z" fill="#EC9293"/>
<path d="M63.9797 321.86C63.4859 323.361 63.6305 325.015 62.3858 326.269C60.6729 323.835 61.1848 322.541 63.9797 321.86Z" fill="#8792BD"/>
<path d="M33.3746 286.141C33.6469 287.825 33.8706 289.43 34.1428 291.114C32.5191 291.131 32.0943 290.085 31.8248 288.671C31.5554 287.257 32.0729 286.504 33.3746 286.141Z" fill="#EE9696"/>
<path d="M153.427 348.303C149.072 349.016 148.643 346.012 147.818 343.251C147.521 342.236 147.756 340.403 146.355 340.338C144.731 340.355 144.83 342.2 144.476 343.397C144.028 344.707 144.303 346.662 141.765 345.987C139.147 345.361 140.42 343.709 140.661 342.418C141.482 338.701 142.367 334.999 143.331 331.249C143.621 330.037 143.622 328.62 145.729 329.124C147.899 329.643 147.466 330.889 147.131 332.293C146.856 333.442 146.581 334.59 146.215 336.122C149.975 334.794 151.552 328.762 156.697 332.084C156.358 333.217 155.312 333.642 154.475 334.319C150.182 337.88 150.118 337.864 151.911 343.353C152.454 345.034 152.933 346.701 153.427 348.303Z" fill="#6B184D"/>
<path d="M194.671 347.706C193.283 353.513 191.879 359.384 190.491 365.192C190.201 366.404 190.108 368.204 188.257 367.761C186.326 367.367 187.137 365.672 187.411 364.523C190.279 352.525 193.132 340.592 196 328.594C196.26 327.509 196.371 325.916 198.094 326.328C199.754 326.725 199.355 328.114 199.08 329.263C197.616 335.389 196.151 341.516 194.671 347.706Z" fill="#6F1C4D"/>
<path d="M157.265 340.72C157.31 340.528 157.371 340.273 157.417 340.082C159.4 331.785 160.082 331.476 168.043 334.594C169.034 334.965 169.483 335.343 169.224 336.428C168.934 337.64 168.35 338.108 167.152 337.754C166.082 337.431 165.03 337.314 163.96 336.991C162.762 336.637 162.193 337.041 161.904 338.253C161.614 339.466 161.939 340.083 163.152 340.373C164.237 340.633 165.258 340.877 166.328 341.2C167.462 341.539 167.471 342.35 167.178 343.292C166.885 344.234 166.298 344.431 165.468 344.233C164.511 344.004 163.538 343.839 162.596 343.546C160.966 343.022 160.546 343.933 160.225 345.273C159.841 346.598 160.136 347.343 161.571 347.551C162.735 347.762 163.933 348.116 165.067 348.454C166.088 348.699 166.571 349.219 166.312 350.304C166.037 351.453 165.371 351.698 164.413 351.469C161.86 350.859 159.306 350.248 156.752 349.638C155.412 349.317 155.403 348.506 155.663 347.421C156.276 345.139 156.731 342.953 157.265 340.72Z" fill="#6B184D"/>
<path d="M137.767 330.527C133.648 329.407 131.132 330.897 130.344 334.756C129.618 338.361 131.331 340.794 135.237 341.391C136.609 341.584 137.992 341.442 137.647 343.451C137.381 345.411 135.749 344.616 134.809 344.594C130.747 344.365 127.234 341.839 126.276 338.506C125.269 335.095 126.735 330.655 129.483 328.479C132.23 326.302 136.798 326.112 140.08 327.909C140.977 328.393 141.396 328.898 140.945 329.937C140.104 331.76 138.837 330.85 137.767 330.527Z" fill="#6B194D"/>
<path d="M109.16 330.772C109.419 329.687 109.6 328.65 109.923 327.581C110.618 325.52 110.838 323.752 107.859 323.512C106.6 323.413 106.321 322.604 106.611 321.392C106.946 319.988 107.791 320.122 108.877 320.382C111.941 321.114 115.005 321.847 118.07 322.579C119.155 322.839 119.796 323.262 119.54 324.617C119.235 325.894 118.538 326.267 117.435 325.801C114.62 324.588 114.129 326.36 113.753 328.496C113.225 331.271 112.441 333.985 111.834 336.808C111.529 338.084 111.106 338.725 109.637 338.374C108.233 338.038 107.573 337.409 108.003 335.892C108.415 334.169 108.763 332.431 109.16 330.772Z" fill="#6B184D"/>
<path d="M177.953 336.895C179.422 337.246 180.954 337.613 182.422 337.964C183.507 338.223 184.243 338.534 183.907 339.938C183.618 341.15 183.082 341.697 181.851 341.2C179.1 340.003 178.56 341.695 178.121 343.817C177.592 346.591 176.73 349.354 176.201 352.128C175.884 353.739 175.09 353.954 173.685 353.618C172.281 353.282 172.05 352.553 172.356 351.276C173.152 348.228 173.772 345.071 174.632 342.038C175.092 340.394 175.017 339.297 172.977 339.079C171.797 338.932 170.554 338.769 171.06 336.934C171.597 334.971 172.767 335.723 173.852 335.982C175.208 336.239 176.613 336.575 177.953 336.895Z" fill="#6B184D"/>
<path d="M123.848 333.136C123.359 335.178 122.823 337.141 122.398 339.199C122.126 340.618 121.496 341.277 119.9 340.895C118.368 340.529 117.931 339.817 118.282 338.349C119.368 334.089 120.375 329.877 121.333 325.586C121.669 324.182 122.235 323.508 123.816 323.953C125.284 324.304 125.879 324.919 125.449 326.435C124.852 328.653 124.382 330.902 123.848 333.136Z" fill="#7A2B49"/>
<path d="M69.1171 238.825C73.9522 238.361 78.6844 237.199 83.432 235.972C96.1745 233.487 108.917 231.001 121.675 228.451C134.989 225.832 148.24 223.198 161.521 220.436C163.506 220.033 164.783 220.339 165.916 222.094C168.746 226.346 172.566 229.283 177.765 230.121C179.902 230.497 180.805 231.522 181.225 233.714C183.514 245.596 185.931 257.508 188.363 269.355C188.732 271.198 188.299 272.444 186.751 273.558C182.516 276.593 179.773 280.727 178.616 285.848C178.158 287.763 177.099 288.521 175.336 288.842C137.427 296.376 99.5035 303.973 61.6284 311.65C59.0707 312.186 57.5385 311.819 55.9533 309.416C53.3019 305.544 49.4698 302.942 44.654 302.195C42.4376 301.868 41.5658 300.715 41.1297 298.587C38.8075 286.562 36.4062 274.587 33.941 262.596C33.5563 260.817 34.0072 259.778 35.5253 258.792C39.9548 256.073 42.6188 251.987 43.5534 246.948C43.9749 244.62 45.2072 243.701 47.3998 243.28C54.5982 241.965 61.8577 240.395 69.1171 238.825Z" fill="#6B184D"/>
<path d="M89.009 231.841C89.6514 230.848 90.57 230.393 91.7192 230.667C92.613 230.881 93.0017 231.514 92.6757 232.313C92.24 233.288 91.1604 233.57 90.1875 233.405C89.4547 233.364 88.844 232.814 89.009 231.841Z" fill="#F79999"/>
<path d="M58.8873 308.147C55.2146 304.031 51.1491 300.428 45.47 299.34C44.0502 299.068 43.896 298.019 43.678 296.955C41.4613 285.901 39.2933 274.926 36.9976 263.92C36.6948 262.363 37.2276 261.546 38.3807 260.675C42.3453 257.642 45.0273 253.763 46.123 248.898C46.471 247.159 47.4688 246.656 49.0259 246.353C85.9642 238.925 123.03 231.527 160.048 224.05C161.541 223.732 162.639 223.657 163.705 225.127C166.903 229.534 171.419 232.098 176.593 233.605C178.49 238.376 178.72 243.626 179.965 248.579C181.393 254.182 182.185 259.904 183.469 265.54C184.054 268.176 184.076 270.341 181.438 272.341C178.043 274.97 176.03 278.874 174.719 282.946C174.07 284.815 172.947 285.558 171.262 285.83C163.301 287.232 155.439 289.064 147.511 290.609C146.303 290.86 145.203 290.664 144.051 290.119C138.786 287.579 135.386 288.25 131.433 292.365C130.346 293.522 129.16 294.25 127.524 294.601C115.116 297.1 102.738 299.47 90.3149 302.033C81.021 303.926 71.6937 305.677 62.4331 307.713C61.2744 308.043 60.067 308.294 58.8873 308.147Z" fill="#FEDF81"/>
<path d="M59.1871 308.031C67.7731 305.428 76.6286 304.239 85.366 302.415C99.3616 299.487 113.391 296.701 127.42 293.916C128.913 293.598 129.652 292.763 130.389 291.657C134.015 286.655 140.276 285.588 145.361 289.165C146.403 289.886 147.248 290.021 148.376 289.818C155.764 288.278 163.087 286.723 170.522 285.262C172.572 284.875 173.613 283.91 174.244 281.834C175.692 277.188 178.292 273.087 182.29 270.198C184.313 268.792 183.5 267.113 183.212 265.493C181.214 255.503 179.151 245.497 177.104 235.428C176.986 234.792 176.947 234.108 176.893 233.488C178.377 233.775 178.199 235.082 178.369 236.067C180.534 246.772 182.635 257.462 184.88 268.118C185.216 269.817 184.941 270.966 183.52 272.111C180.158 274.883 177.646 278.33 176.384 282.481C175.552 285.115 174.016 285.895 171.537 286.382C137.95 293.06 104.348 299.802 70.7307 306.607C67.8233 307.194 64.9645 307.86 62.0877 308.319C61.1509 308.568 60.013 309.375 59.1871 308.031Z" fill="#D19333"/>
<path d="M114.174 264.91C116.882 262.05 115.817 256.061 121.956 256.921C121.626 258.866 120.527 260.357 119.668 261.973C118.59 263.942 118.494 265.471 120.326 267.123C122.271 268.87 123.869 270.939 125.913 273.114C123.693 273.932 121.937 275.064 120.273 272.71C119.095 271.147 117.679 269.729 116.406 268.277C114.191 269.637 115.436 271.486 115.675 273.028C115.881 274.426 116.242 275.457 114.256 275.859C112.191 276.31 112.116 275.213 111.831 273.863C111.056 269.765 110.202 265.715 109.348 261.665C109.063 260.315 108.717 259.221 110.719 258.755C113.006 258.222 112.925 259.687 113.21 261.037C113.446 262.308 113.777 263.466 114.174 264.91Z" fill="#6B194D"/>
<path d="M133.756 254.142C135.018 254.511 135.041 255.259 135.129 256.022C135.265 256.864 134.839 257.235 134.124 257.401C132.981 257.667 131.773 257.918 130.581 258.106C129.246 258.326 128.741 258.745 129.044 260.302C129.347 261.858 130.143 261.914 131.351 261.663C132.287 261.415 133.273 261.245 134.209 260.997C135.289 260.715 135.787 261.172 135.942 262.221C136.111 263.206 136.071 263.938 134.879 264.125C133.894 264.295 132.942 264.607 131.971 264.712C130.381 264.872 130.07 265.607 130.388 267.1C130.722 268.529 131.223 269.256 132.762 268.747C133.921 268.417 135.097 268.293 136.241 268.027C137.321 267.745 137.849 268.074 138.052 269.202C138.222 270.187 138.309 270.95 137.102 271.201C134.337 271.754 131.509 272.293 128.793 272.925C127.714 273.207 127.468 272.541 127.253 271.747C126.28 267.062 125.372 262.392 124.415 257.644C124.33 257.151 123.972 256.391 124.623 256.209C127.847 255.428 130.976 254.759 133.756 254.142Z" fill="#6C194D"/>
<path d="M166.557 274.465C166.328 275.422 166.063 275.966 165.3 276.053C164.537 276.14 163.944 275.796 163.762 275.146C163.45 274.194 163.265 273.273 163.032 272.272C160.766 261.139 158.565 250.021 156.3 238.887C156.148 238.109 156.046 237.41 155.894 236.631C155.691 235.504 155.504 234.312 156.982 234.058C158.445 233.868 158.711 235.011 158.914 236.139C159.45 238.696 159.922 241.238 160.443 243.858C162.309 253.277 164.253 262.647 166.118 272.066C166.367 273.002 166.424 273.893 166.557 274.465Z" fill="#6C194C"/>
<path d="M55.9382 254.429C57.358 254.701 57.558 255.558 57.758 256.416C60.3079 268.899 62.7787 281.431 65.3286 293.914C65.5467 294.979 65.6371 296.012 64.4144 296.327C62.9059 296.709 62.5602 295.614 62.2936 294.471C59.7437 281.987 57.209 269.44 54.7229 256.972C54.4868 255.701 54.5546 254.571 55.9382 254.429Z" fill="#6C194D"/>
<path d="M102.715 274.449C104.104 274.849 105.439 274.628 106.644 274.107C107.769 273.634 108.627 273.434 109.136 274.973C109.694 276.59 108.536 276.92 107.52 277.217C103.949 278.32 100.373 278.882 97.365 275.936C94.6306 273.259 93.8946 269.845 94.9557 266.253C96.1875 262.23 99.4333 260.509 103.457 260.054C104.57 259.916 106.282 259.246 106.527 261.328C106.786 263.347 105.288 263.123 103.968 263.28C99.3089 263.853 97.2805 267.821 99.4725 271.92C100.298 273.265 101.295 274.177 102.715 274.449Z" fill="#6C1A4C"/>
<path d="M83.328 281.014C83.1048 282.512 81.8918 282.222 81.0189 282.486C79.8449 282.88 79.4382 282.04 79.2534 281.119C78.6479 278.006 77.8994 274.926 77.4215 271.843C77.1464 269.889 76.6092 268.748 74.3402 269.488C73.0232 269.915 72.178 269.78 71.8572 268.017C71.5516 266.19 72.8589 266.367 73.8443 266.198C76.6878 265.596 79.5952 265.009 82.5026 264.423C83.7099 264.172 84.7258 263.875 85.0952 265.717C85.416 267.48 84.303 267.619 83.2844 267.645C81.025 267.78 80.7657 268.865 81.2323 270.865C82.0475 274.231 82.6406 277.679 83.328 281.014Z" fill="#6C194D"/>
<path d="M148.215 268.191C147.846 269.452 146.712 269.113 145.839 269.377C144.586 269.819 144.37 269.026 144.186 268.105C143.58 264.991 142.895 261.927 142.354 258.829C142.015 256.859 141.523 255.527 139.129 256.506C137.94 256.964 137.125 256.702 136.807 255.209C136.52 253.589 137.505 253.419 138.634 253.217C141.605 252.645 144.591 252.01 147.562 251.438C148.484 251.254 149.482 250.75 149.784 252.307C150.021 253.578 149.919 254.566 148.423 254.613C145.367 254.692 145.752 256.47 146.188 258.598C147.049 261.773 147.56 264.998 148.215 268.191Z" fill="#6C194D"/>
<path d="M93.7682 279.125C93.4783 280.337 92.393 280.078 91.5992 280.293C90.5195 280.574 89.9727 280.039 89.7394 279.039C88.8158 274.433 87.8922 269.827 86.9533 265.284C86.7172 264.014 87.1737 263.515 88.3658 263.328C89.5579 263.141 90.5585 262.908 90.8613 264.464C91.7849 269.07 92.7085 273.676 93.6473 278.219C93.7778 278.52 93.7654 278.854 93.7682 279.125Z" fill="#6C1A4C"/>
</g>
<g clip-path="url(#clip1)">
<path d="M545.519 245.155C548.866 240.184 552.127 235.19 555.536 230.328C563.411 219.052 561.479 207.808 550.328 199.869C549.713 199.429 549.207 198.927 548.7 198.424C546.723 194.869 543.015 193.325 539.941 191.127C535.405 187.894 530.891 184.576 526.115 181.554C523.291 179.789 522.343 177.518 523.447 174.422C527 164.922 520.867 154.66 515.055 150.719C507.079 145.282 496.977 145.05 488.939 150.781C486.464 152.502 484.617 152.557 482.244 150.821C474.081 145.058 465.81 139.358 457.647 133.595C446.388 125.719 435.616 126.958 426.729 137.229C429.17 119.914 430.968 102.609 433.814 85.4941C437.115 65.6584 426.461 48.6849 406.648 45.3928C396.12 43.6721 385.507 41.9284 374.822 41.8161C360.112 39.9831 345.317 38.1273 330.629 36.2089C315.321 34.2157 300.019 31.8575 284.681 30.3149C268.102 28.6229 253.45 40.9246 251.277 57.5785C249.173 73.9757 246.898 90.3272 244.731 106.616C244.604 107.774 244.198 108.948 243.9 110.06C241.051 117.274 241.285 124.946 240.02 132.4C239.141 137.39 238.883 142.455 237.803 147.85C233.558 143.87 232.154 138.176 227.463 135.178C224.356 132.42 221.271 129.576 218.712 126.14C215.88 122.356 210.735 122.077 206.805 124.783C202.789 127.466 201.197 132.724 203.961 136.765C206.178 140.109 206.97 143.989 208.714 147.39C209.481 148.971 208.552 149.364 207.679 150.23C204.495 153.227 204.353 156.49 206.695 160.051C209.373 164.069 212.051 168.087 214.706 172.191C215.313 174.371 215.936 176.83 218.951 176.171C221.664 175.614 221.383 173.247 221.312 171.119C221.279 170.56 221.268 169.915 221.629 168.912C225.343 173.849 228.714 178.695 231.761 183.729C233.034 185.812 232.649 188.276 232.372 190.677C229.68 211.317 226.476 231.82 224.149 252.467C222.428 267.775 229.111 279.743 242.15 286.445C247.149 288.977 252.613 289.432 258.009 290.144C274.986 292.401 291.878 294.636 308.856 296.893C309.927 296.996 310.867 297.248 311.938 297.352C314.336 297.628 315.093 298.564 314.576 301.176C312.67 311.025 316.162 318.837 324.348 324.514C348.82 341.523 373.229 358.424 397.569 375.581C399.499 376.923 401.429 378.265 403.89 378.649C409.235 382.282 414.58 385.915 419.925 389.547C430.087 396.396 441.406 394.478 448.573 384.479C448.704 384.331 448.812 384.269 448.835 384.183C452.769 378.728 455.339 371.532 460.911 368.166C466.289 364.839 473.527 364.487 479.905 362.895C487.276 361.02 494.755 359.081 502.126 357.206C510.574 355.069 514.627 350.195 514.016 343.247C513.343 336.191 508.368 332.199 499.793 331.735C495.025 330.732 490.849 334.014 486.154 333.765C485.9 332.321 486.75 331.541 487.321 330.777C504.806 305.849 522.058 280.767 539.52 255.924C541.446 252.498 543.907 249.123 545.519 245.155Z" fill="#112771"/>
<path d="M461.874 161.223C461.384 157.241 458.19 155.835 455.366 154.07C451.842 151.842 448.726 147.065 444.742 147.923C441.145 148.701 439.639 153.981 437.286 157.293C405.942 202.161 374.768 247.075 343.446 291.858C341.356 294.874 341.2 296.482 344.615 298.772C371.444 317.238 398.204 335.96 424.855 354.745C427.166 356.373 428.812 356.722 430.571 354.259C435.276 347.636 442.533 346.188 449.789 344.74C452.502 344.183 454.219 342.901 455.715 340.735C483.811 300.131 512.055 259.657 540.322 219.099C542.52 216.021 542.551 214.195 539.044 212.247C535.685 210.43 532.657 208.06 529.475 205.924C501.517 203.292 481.511 187.388 464.55 166.616C463.31 165.091 462.224 163.334 461.874 161.223Z" fill="#FDFDFD"/>
<path d="M307.344 256.055C317.941 257.519 328.537 258.983 339.197 260.556C341.23 260.826 342.524 260.439 343.712 258.741C357.024 239.479 370.312 220.302 383.6 201.126C383.834 197.521 380.708 195.858 379.076 193.404C375.671 187.999 372.374 182.532 368.969 177.127C363.198 175.764 357.405 174.487 351.41 174.989C349.213 176.693 350.812 178.588 351.408 180.123C353.429 184.882 355.691 189.43 357.604 194.252C359.579 199.182 359.121 200.893 354.609 203.718C352.853 204.806 351.369 206.242 349.55 207.221C343.898 210.199 340.589 209.221 336.859 204.004C329.188 193.33 323.769 181.427 317.615 169.876C317.286 169.055 316.934 168.319 316.496 167.559C314.706 164.329 312.785 161.247 311.08 158.04C309.421 154.662 307.014 152.367 303.248 151.724C296.686 150.241 289.957 149.722 283.281 148.666C278.808 147.926 276.72 145.808 277.2 141.627C278.348 132.217 279.604 122.744 280.946 113.293C281.119 111.964 281.804 110.773 282.296 109.621C282.988 108.064 283.144 106.456 282.354 104.961C279.945 100.281 278.163 95.3115 275.127 90.9223C274.331 89.7922 273.593 87.7609 271.442 89.2933C270.015 91.2029 270.063 93.4161 269.746 95.6233C266.796 117.57 264.102 139.585 260.617 161.48C259.771 163.27 260.429 164.913 261.39 166.454C269.694 180.231 276.265 195.011 284.353 208.913C288.098 215.784 291.541 222.758 295.286 229.629C300.077 238.064 304.954 246.522 307.344 256.055Z" fill="#22A6F0"/>
<path d="M445.703 371.608C440.049 372.202 435.119 369.414 429.923 368.297C428.363 367.97 426.762 367.449 425.224 367.037C420.206 365.601 420.15 365.128 423.353 361.035C423.311 358.457 420.942 357.73 419.479 356.696C405.737 347.147 392.104 337.535 378.34 328.07C366.762 320.017 355.183 311.964 343.69 303.934C342.609 303.186 341.55 302.352 340.971 301.096C336.874 297.248 336.626 295.44 339.772 290.874C373.099 243.053 406.316 195.294 439.643 147.473C443.075 142.525 445.075 142.236 450.187 145.714C453.198 147.805 456.21 149.895 459.306 152.008C460.198 150.047 461.021 148.342 461.759 146.615C457.112 141.06 451.625 136.931 444.281 135.972C438.35 135.208 434.277 138.792 431.045 143.336C426.933 149.11 422.993 154.93 418.967 160.728C400.225 187.611 381.483 214.494 362.742 241.378C349.476 260.468 336.233 279.474 322.968 298.565C321.78 300.263 321.316 302.339 320.128 304.038C319.246 306.644 319.784 309.08 320.857 311.568C325.83 316.934 332.229 320.391 338.081 324.526C352.881 334.909 367.898 345.167 382.698 355.551C395.272 364.329 407.824 373.193 420.313 381.949C431.464 389.888 440.725 385.401 446.428 374.369C446.937 373.497 447.474 372.174 445.703 371.608Z" fill="#FD5521"/>
<path d="M404.954 72.9011C413.036 75.8916 415.714 79.9097 414.647 88.3336C411.12 115.168 407.507 141.979 403.917 168.705C403.819 169.413 403.744 170.034 404.54 171.164C407.887 166.193 411.256 161.137 414.603 156.166C417.535 150.351 417.089 143.813 418.095 137.665C420.799 120.054 422.627 102.299 425.331 84.687C426.977 73.7595 425.23 64.215 417.407 56.1595C416.94 55.8511 416.451 55.6282 415.984 55.3198C397.806 51.7326 379.295 50.073 360.95 47.4496C337.21 44.1141 313.425 40.9496 289.639 37.7851C279.749 36.4186 270.953 38.8291 263.853 46.1866C258.283 51.937 256.956 59.2826 256.119 66.8511C254.698 79.6725 252.548 92.4819 250.956 105.257C249.087 120.434 246.512 135.513 245.008 150.696C244.741 153.742 243.66 156.753 244.014 159.873C245.742 162.995 247.771 166.014 250.172 168.674C252.468 168.648 251.902 166.662 252.137 165.442C253.693 157.241 254.481 148.834 255.696 140.541C257.606 127.943 259.004 115.207 260.744 102.563C262.144 92.2111 263.8 81.9282 264.836 71.5705C265.148 68.3537 266.082 65.2116 267.186 62.1154C268.897 57.4396 274.138 54.6265 279.835 55.2363C292.836 56.6114 305.809 58.437 318.804 60.1771C335.952 62.48 353.186 64.8057 370.335 67.1086C379.177 68.2859 388.058 69.6573 396.969 70.578C399.795 70.9684 402.076 73.0467 404.954 72.9011Z" fill="#DCE5EE"/>
<path d="M230.293 263.372C229.909 264.461 231.43 264.594 231.372 265.495C235.984 271.865 243.105 273.315 249.975 274.33C267.995 277.142 286.158 279.075 304.223 281.715C305.38 281.841 306.559 281.882 307.745 281.558C309.643 280.967 309.264 279.307 309.46 277.892C309.904 274.527 311.758 272.732 314.561 273.208C317.62 273.753 318.637 275.767 318.223 278.682C318.096 279.839 317.775 281.037 318.206 282.161C320.551 284.348 323.297 284.35 326.188 283.475C330.453 277.466 334.61 271.521 339.293 264.982C330.536 263.828 322.423 262.663 314.288 261.583C294.764 258.919 275.194 256.425 255.693 253.675C247.216 252.504 243.837 248.023 243.833 239.496C242.624 232.387 244.908 225.573 245.306 218.62C245.649 213.578 247.817 208.566 246.274 203.386C244.307 200.475 242.34 197.564 240.287 194.63C237.645 197.314 238.055 200.908 237.658 204.102C235.774 221.384 232.905 238.585 230.765 255.798C230.505 258.478 231.105 261.023 230.293 263.372Z" fill="#DCE5EE"/>
<path d="M369.298 177.949C368.902 179.768 370.125 181.013 370.876 182.314C374.604 188.905 378.92 195.013 383.452 200.995C387.849 194.838 392.183 188.573 396.58 182.417C398.493 179.721 398.162 176.515 398.599 173.515C400.499 160.272 402.12 147.045 403.827 133.842C403.308 130.311 401.101 127.611 399.761 124.41C399.267 123.177 398.34 122.195 396.72 122.77C396.412 123.237 396.251 123.836 396.37 124.418C397.692 128.714 395.301 130.458 391.761 131.709C389.84 132.386 387.395 132.281 386.218 134.625C384.157 140.949 384.107 147.628 383.009 154.118C382.101 159.559 380.292 161.183 374.743 160.705C365.678 160.018 356.832 157.831 347.789 157.058C345.647 156.851 343.465 156.45 341.225 156.95C339.471 160.422 340.742 163.88 344.789 166.889C353.435 169.481 362.45 169.329 371.177 170.934C373.359 171.336 375.501 171.543 377.569 172.372C379.038 173.041 380.051 174.046 379.592 175.756C379.094 177.273 377.761 177.466 376.41 177.379C374.051 177.297 371.603 176.183 369.298 177.949Z" fill="#34ADEF"/>
<path d="M396.954 122.924C400.194 124.159 399.488 127.82 401.297 129.955C402.349 131.154 403.054 132.626 403.912 133.865C406.073 117.941 408.342 101.955 410.502 86.0311C410.675 84.7022 410.569 83.3902 409.773 82.2601C408.066 80.4275 405.867 79.7468 403.492 79.3853C393.75 78.1501 383.991 76.6353 374.226 75.4857C373.753 75.5423 373.257 75.6845 372.846 75.8495C371.99 76.9952 372.506 78.1422 373.177 79.0555C375.537 82.8964 377.029 87.2386 379.302 91.0566C384.708 99.9313 389.333 109.33 393.98 118.643C394.616 120.372 395.166 122.078 396.954 122.924Z" fill="#23A6F0"/>
<path d="M464.831 153.947C465.098 154.66 465.364 155.374 465.716 156.11C469.564 163.283 475.374 168.599 481.555 173.556C490.974 181.122 501.341 187.201 512.595 191.683C517.071 193.432 521.697 193.938 526.438 194.017C527.982 194.064 529.805 194.094 530.293 191.933C526.223 189.008 522.262 186.022 518.037 183.331C515.128 181.543 514.88 179.735 516.474 176.861C519.708 170.944 519.273 165.051 515.184 159.463C507.094 154.453 499.127 154.794 491.336 159.949C488.102 162.108 485.303 162.641 481.963 159.729C479.595 157.628 476.88 155.8 474.119 154.144C471.147 152.247 468.054 151.144 464.831 153.947Z" fill="#C5DFEE"/>
<path d="M537.104 198.983C536.172 200.751 534.547 201.69 532.761 203.229C535.858 205.342 538.738 207.581 541.818 209.415C545.832 211.865 547.194 214.981 545.017 219.348C544.729 221.105 543.696 222.57 542.748 224.058C516.377 261.641 490.388 299.509 463.955 336.984C463.075 338.215 462.219 339.361 462.963 341.027C465.312 340.464 467.575 339.879 469.838 339.293C473.693 337.209 475.329 333.155 477.596 329.82C498.965 298.599 521.143 267.777 542.45 236.447C546.853 229.925 552.469 224.004 555.153 216.38C555.447 214.258 554.965 212.296 553.709 210.492C548.963 205.645 543.67 201.476 537.104 198.983Z" fill="#FB5522"/>
<path d="M243.991 159.959C246.254 155.614 246.079 150.8 246.781 146.129C248.704 132.8 250.433 119.511 252.186 106.137C253.931 93.1277 255.506 80.0726 257.361 67.0006C258.138 61.7079 258.596 56.2382 261.532 51.4323C267.227 42.1399 277.263 37.4945 289.039 38.9996C304.262 40.9699 319.4 42.9173 334.6 44.9731C347.315 46.73 360.071 48.681 372.787 50.4379C386.659 52.3214 400.555 54.1194 414.427 56.0029C414.963 56.0547 415.528 55.6559 416.047 55.4282C410.924 51.3053 404.616 51.2653 398.623 50.3929C367.26 46.115 335.96 41.9455 304.575 37.7531C297.852 36.8686 291.175 35.813 284.407 35.0995C269.969 33.6148 257.685 44.2588 255.6 59.5609C251.324 91.2373 247.135 122.937 242.859 154.613C242.611 156.564 242.193 158.468 243.991 159.959Z" fill="#FBFBFB"/>
<path d="M308.937 280.869C298.038 279.508 287.248 278.083 276.349 276.721C269.797 275.883 263.354 274.981 256.779 274.228C247.72 273.176 238.914 271.183 231.434 265.603C233.268 273.796 238.828 278.678 246.289 281.594C253.749 284.51 261.904 284.494 269.737 285.676C284.441 287.874 299.18 289.257 313.838 291.626C318.675 292.372 321.713 291.627 323.806 287.237C324.429 285.937 325.37 284.814 326.25 283.583C323.801 282.468 320.911 283.344 318.646 281.545C315.328 282.307 312.092 282.081 308.937 280.869Z" fill="#9DABC8"/>
<path d="M404.954 72.9011C397.246 68.1768 388.248 68.6079 379.816 67.2655C366.998 65.2061 354.02 63.7456 341.087 62.1139C326.314 60.1725 311.433 58.2938 296.66 56.3525C291.265 55.6403 285.893 54.8426 280.606 54.0677C272.75 52.9711 267.171 56.7022 265.194 64.4237C262.919 73.2572 262.569 82.4233 261.171 91.4002C259.289 103.548 258.029 115.771 256.404 127.987C254.635 141.082 252.781 154.154 251.012 167.249C250.96 167.785 250.566 168.23 250.343 168.72C250.187 170.329 251.725 170.741 252.994 171.814C253.794 166.436 254.617 160.972 255.331 155.571C259.1 127.151 262.807 98.623 266.661 70.2261C268.165 58.8022 273.373 55.4301 284.955 56.975C308.974 60.2937 333.062 63.3558 357.104 66.589C372.389 68.6677 387.652 70.8319 403 73.0191C403.535 73.0709 404.202 72.9745 404.954 72.9011Z" fill="#9DABC8"/>
<path d="M296.136 228.848C292.477 222 288.88 215.26 285.22 208.412C281.844 210.075 278.656 212.062 275.382 214.027C274.632 216.485 275.449 218.904 275.428 221.374C275.491 225.242 274.339 226.125 270.74 224.519C267.374 223.067 264.14 221.467 260.906 219.867C259.728 222.21 261.133 224.145 262.087 226.051C264.605 230.668 267.099 235.37 270.05 239.736C273.924 244.075 274.437 244.212 279.29 241.479C283.819 238.933 288.324 236.473 292.642 233.688C294.461 232.708 296.816 231.781 296.136 228.848Z" fill="#5EBEF2"/>
<path d="M296.136 228.848C295.392 230.941 293.721 232.052 291.964 233.14C288.063 235.395 284.037 237.433 280.238 239.991C276.679 242.338 273.458 243.766 270.507 239.4C270.344 245.133 275.064 251.44 280.072 252.232C289.095 254.099 298.285 255.003 307.344 256.055C307.613 251.635 306.114 247.658 304.291 243.869C301.825 238.716 298.904 233.899 296.136 228.848Z" fill="#3DB1EF"/>
<path d="M445.703 371.608C444.63 376.638 441.837 380.565 437.418 383.048C432.325 385.993 427.038 385.218 422.416 381.962C394.466 362.555 366.562 342.976 338.721 323.505C332.869 319.37 327.326 314.768 320.903 311.397C321.82 315.493 324.98 317.715 328.162 319.851C352.167 336.551 376.063 353.314 400.068 370.015C407.172 374.944 414.253 379.958 421.466 384.825C430.522 391.011 438.918 389.41 445.057 380.511C447.301 377.262 449.437 374.075 451.99 370.358C449.22 370.442 447.43 370.97 445.703 371.608Z" fill="#B64839"/>
<path d="M226.301 146.692C223.673 147.272 221.716 148.764 220.01 150.691C219.078 152.458 220.649 153.429 221.36 154.537C229.756 167.971 238.849 180.859 248.027 193.77C250.54 197.378 252.272 201.509 255.241 204.78C256.317 205.893 256.929 207.708 259.022 207.076C260.801 205.903 262.666 204.752 264.446 203.579C263.946 198.953 260.674 195.784 258.223 192.285C249.16 178.947 239.988 165.671 231.033 152.269C229.846 150.209 228.595 148.04 226.301 146.692Z" fill="#FB5622"/>
<path d="M555.107 216.551C546.639 228.676 538.147 240.886 529.678 253.011C519.143 268.066 508.63 283.035 498.18 298.113C488.632 311.874 479.255 325.681 469.707 339.442C472.624 339.49 474.558 338.083 476.185 335.768C501.42 299.348 526.849 262.888 552.169 226.491C554.368 223.412 555.666 220.276 555.107 216.551Z" fill="#B64839"/>
<path d="M280.095 252.146C276.579 251.938 275.598 249.107 274.354 246.574C273.172 244.148 271.882 241.786 270.615 239.338C267.918 232.656 262.689 227.221 261.053 219.998C259.226 218.958 257.398 217.918 255.656 216.901C254.141 216.404 253.82 217.601 253.676 218.48C252.353 226.835 250.945 235.167 250.437 243.557C250.395 244.738 250.935 245.8 251.172 246.963C251.775 248.133 252.971 248.454 254.104 248.666C262.598 250.117 271.263 251.613 280.095 252.146Z" fill="#23A6EF"/>
<path d="M275.359 214.113C279.446 213.558 282.611 211.655 285.197 208.498C277.713 194.39 270.144 180.26 262.661 166.153C262.058 164.983 261.542 163.836 260.962 162.581C261.454 161.429 261.125 160.607 259.991 160.395C259.199 160.275 258.97 161.13 258.958 161.86C258.687 163.896 258.758 166.024 258.06 167.946C255.324 176.106 258.043 182.702 263.345 188.89C264.733 190.545 265.835 192.583 267.115 194.301C271.477 200.237 275.645 206.213 275.359 214.113Z" fill="#89CEF6"/>
<path d="M320.128 304.038C331.697 287.518 343.243 271.084 354.813 254.564C375.776 224.517 396.739 194.47 417.702 164.423C422.322 157.776 427.089 151.261 431.476 144.46C436.702 136.233 446.488 134.913 452.725 140.343C455.388 142.707 458.662 144.501 461.673 146.592C462.826 145.709 463.288 145.008 461.74 143.951C458.091 141.506 454.642 138.657 450.816 136.531C443.397 132.435 435.695 134.864 430.196 142.742C410.683 170.793 391.194 198.76 371.681 226.812C355.6 249.916 339.542 272.934 323.485 295.953C321.897 298.461 320.223 300.946 320.128 304.038Z" fill="#F8A98F"/>
<path d="M445.075 353.103C445.84 356.059 446.69 359.037 447.478 361.907C448.251 363.122 449.476 362.992 450.662 362.668C462.217 359.53 474.056 357.385 485.492 353.665C487.282 353.136 489.306 352.761 489.116 350.051C488.864 347.233 488.138 344.472 486.375 342.166C482.804 341.484 479.473 342.975 476.071 343.714C466.699 345.879 457.362 348.602 448.007 351.047C446.821 351.371 445.277 351.324 445.075 353.103Z" fill="#F6C515"/>
<path d="M530.293 191.933C524.375 194.198 518.565 192.641 513.257 190.577C495.29 183.47 479.658 172.773 467.236 157.617C466.752 157.029 466.223 156.612 465.717 156.11C465.923 159.099 467.686 161.405 469.324 163.494C483.151 180.585 500.171 192.938 521.639 198.599C523.946 199.217 526.328 199.213 528.608 198.907C530.585 198.704 532.421 198.004 533.017 195.78C533.636 193.47 531.694 192.858 530.293 191.933Z" fill="#8EA7C7"/>
<path d="M417.492 56.1824C417.83 59.0234 420.381 60.4403 421.585 62.78C425.824 70.8836 424.951 79.2678 423.776 87.7543C422.013 100.484 420.764 113.351 418.722 126.098C417.134 136.124 416.082 146.202 414.688 156.189C418.887 152.822 419.122 147.842 419.762 143.063C422.533 122.81 425.219 102.535 427.904 82.2594C429.288 71.6283 425.961 62.8524 417.492 56.1824Z" fill="#9DABC8"/>
<path d="M462.854 341.09C467.876 332.259 474.236 324.244 479.935 315.962C499.563 287.482 519.423 259.156 539.222 230.723C540.872 228.323 542.545 225.837 544.281 223.46C545.269 222.166 545.613 220.883 545.017 219.348C536.023 232.066 527.029 244.783 518.121 257.524C499.556 284.088 481.077 310.675 462.621 337.176C462.158 337.878 461.587 338.641 461.125 339.343C460.771 339.981 459.641 340.779 460.939 341.402C461.298 341.773 462.165 341.271 462.854 341.09Z" fill="#F8A98F"/>
<path d="M258.957 161.86C260.316 160.207 260.416 161.884 260.962 162.581C263.838 160.051 262.76 156.553 263.221 153.468C265.363 138.639 267.077 123.696 269.413 108.828C270.494 102.058 270.613 95.1221 272.486 88.4729C273.188 87.5609 272.99 86.591 272.598 85.6609C271.802 84.5308 271.029 83.3151 269.531 83.097C266.881 102.557 264.339 121.954 261.689 141.414C260.755 148.315 259.868 155.045 258.957 161.86Z" fill="#1E7FC8"/>
<path d="M259.107 207.099C256.494 205.574 255.187 202.932 253.555 200.478C244.094 186.574 234.633 172.67 225.257 158.79C223.5 156.119 221.766 153.362 220.118 150.628C217.015 152.639 218.932 154.711 220.166 156.6C228.894 169.482 237.621 182.364 246.434 195.269C249.05 199.179 251.882 202.963 254.28 206.998C256.071 210.228 257.473 209.779 259.107 207.099Z" fill="#B5483A"/>
<path d="M372.633 76.9844C372.702 76.7278 372.771 76.4711 372.84 76.2145C372.667 73.7844 371.112 73.0929 368.987 73.1651C355.479 71.2876 342.079 69.3475 328.571 67.47C322.299 66.6144 316.112 65.7818 309.839 64.9262C306.999 66.6405 309.037 67.9201 310.237 69.2502C310.727 69.4731 311.131 69.6731 311.644 69.8105C329.516 72.4905 347.331 74.697 365.186 77.0974C367.67 77.3963 370.21 78.1686 372.633 76.9844Z" fill="#4B91CB"/>
<path d="M340.886 301.073C341.102 304.707 344.435 305.6 346.66 307.205C371.638 324.716 396.639 342.142 421.725 359.59C422.34 360.03 422.847 360.533 423.353 361.035C426.525 358.768 423.186 358.24 422.19 357.515C406.946 346.737 391.656 336.131 376.367 325.525C364.555 317.317 352.72 309.195 340.886 301.073Z" fill="#F7A78D"/>
<path d="M461.874 161.223C461.885 165.626 464.775 168.51 467.278 171.472C480.776 187.741 497.506 199.467 517.828 205.645C521.65 206.761 525.57 207.17 529.537 206.032C528.468 204.554 526.97 204.336 525.324 203.987C498.435 199.074 478.24 184.219 462.693 162.267C462.443 161.834 462.147 161.571 461.874 161.223Z" fill="#B6BDD3"/>
<path d="M464.831 153.947C468.993 152.77 472.41 153.686 475.642 156.661C478.072 158.87 481.221 160.447 483.759 162.595C486.087 164.502 487.867 163.328 489.732 162.178C494.723 158.931 499.911 156.654 506.128 157.036C509.449 157.285 511.735 160.372 515.184 159.463C508.359 150.758 496.998 150.098 489.692 158.225C487.352 160.807 485.739 161.016 483.092 158.932C479.154 155.86 475.038 153.106 470.837 150.331C469.584 149.537 468.584 147.802 466.634 148.929C464.746 150.165 464.373 151.899 464.831 153.947Z" fill="#E0EBF5"/>
<path d="M230.292 263.372C232.997 260.796 231.857 257.19 232.295 254.19C234.614 239.043 236.397 223.843 238.374 208.604C238.968 203.995 239.585 199.301 240.179 194.693C239.656 193.911 239.155 193.044 238.007 191.177C236.786 199.835 235.778 207.358 234.792 214.795C233.063 228.084 231.271 241.264 229.542 254.553C229.252 257.684 229.396 260.565 230.292 263.372Z" fill="#F8F8F9"/>
<path d="M226.301 146.692C234.545 158.986 242.789 171.28 251.056 183.489C255.577 190.201 260.011 196.89 264.531 203.602C267.649 203.245 266.665 201.79 265.471 200.095C257.517 188.429 249.647 176.785 241.693 165.119C237.883 159.514 234.074 153.909 230.35 148.327C229.452 146.895 228.583 145.012 226.301 146.692Z" fill="#F8A990"/>
<path d="M489.093 350.137C487.595 353.678 483.783 353.207 481.195 353.98C470.478 357.068 459.665 359.488 448.806 362.079C448.418 362.159 447.905 362.021 447.478 361.907C446.828 366.042 448.212 366.687 452.179 365.55C462.982 362.486 473.802 359.7 484.7 357.303C489.352 356.349 490.46 354.262 489.093 350.137Z" fill="#B0962F"/>
<path d="M269.508 83.1825C270.373 84.056 270.736 85.4367 272.08 85.8886C273.636 85.2055 273.77 83.6826 274.074 82.2056C274.149 81.5839 274.201 81.0478 274.276 80.4261C275.455 69.1902 277.508 64.606 291.203 66.8087C291.676 66.7521 292.087 66.5871 292.372 66.2052C292.985 64.2607 291.561 63.4209 290.378 62.3702C286.931 61.9051 283.53 61.2689 280.015 61.0603C275.234 60.7879 272.473 62.8902 271.6 67.5154C270.652 72.7623 270.239 78.061 269.508 83.1825Z" fill="#60A4D8"/>
<path d="M369.009 73.0796C370.849 73.3893 371.724 74.9073 372.862 76.129C381.856 78.4473 391.161 78.9235 400.299 80.3635C403.466 80.8455 406.542 81.6697 409.687 82.2372C408.28 77.918 404.594 77.6637 400.891 77.1298C390.248 75.8368 379.629 74.4582 369.009 73.0796Z" fill="#1D7FC7"/>
<path d="M445.075 353.103C456.693 350.073 468.419 346.981 480.036 343.951C482.191 343.429 484.283 342.797 486.375 342.166C485.979 340.226 484.823 340.1 483.164 340.48C470.771 343.669 458.378 346.858 446.009 349.961C443.66 350.524 443.322 351.442 445.075 353.103Z" fill="#F5DF88"/>
<path d="M250.979 247.003C252.173 237.421 253.281 227.817 254.475 218.235C254.504 217.785 255.069 217.386 255.462 216.941C254.518 215.68 253.574 214.418 252.255 212.506C250.559 222.595 249.109 232.108 248.388 241.633C248.265 243.801 249.328 245.644 250.979 247.003Z" fill="#1D7EC7"/>
<path d="M508.679 341.633C508.491 341.308 508.304 340.982 508.116 340.657C503.142 336.665 500.658 336.367 496.528 339.477C497.48 342.758 498.433 346.039 499.385 349.319C504.226 351.075 508.533 347.645 508.679 341.633Z" fill="#F75B98"/>
<path d="M246.228 203.557C244.926 213.201 243.538 222.823 242.236 232.467C241.936 234.954 242.559 237.413 243.702 239.644C245.072 229.743 246.42 219.928 247.791 210.027C248.154 207.648 248.431 205.247 246.228 203.557Z" fill="#9AA8C4"/>
<path d="M219.774 136.875C217.129 137.175 215.195 138.582 213.551 140.617C213.124 144.262 215.281 146.123 218.219 147.461C220.13 146.139 222.018 144.903 223.844 143.558C223.42 140.695 222.301 138.378 219.774 136.875Z" fill="#F85522"/>
<path d="M290.355 62.4558C290.98 63.5402 291.628 64.539 292.254 65.6233C297.661 69.3644 303.713 69.3356 309.823 68.4057C309.756 67.2876 308.339 66.0828 309.839 64.9262C303.373 64.1104 296.907 63.2946 290.355 62.4558Z" fill="#1E7FC6"/>
<path d="M443.94 361.784C443.602 358.943 442.962 356.204 441.285 353.921C436.754 354.082 432.776 358.334 433.637 361.957C435.737 363.345 438.153 363.9 440.66 364.114C442.352 364.292 443.942 364.168 443.94 361.784Z" fill="#F5BD72"/>
<path d="M269.234 217.148C272.123 213.887 269.501 210.343 269.688 206.909C269.799 205.472 268.071 206.109 267.25 206.439C264.679 207.492 262.107 208.545 260.605 211.076C262.589 214.267 266.286 215.166 269.234 217.148Z" fill="#F8F9F9"/>
<path d="M443.94 361.784C443.156 363.682 441.704 363.293 440.251 362.904C437.859 362.263 435.466 361.622 433.074 360.981C432.528 360.285 431.93 360.124 431.234 360.671C431.986 364.357 439.609 369.058 443.025 367.59C445.557 366.343 444.227 363.786 443.94 361.784Z" fill="#A98B72"/>
<path d="M508.679 341.633C507.133 346.72 504.458 348.845 499.323 349.211C498.479 353.385 500.559 353.484 503.603 352.375C508.352 350.714 510.09 346.962 508.679 341.633Z" fill="#B04A8C"/>
<path d="M495.784 349.088C495.561 345.819 494.517 342.881 492.914 339.976C492.101 338.566 491.037 338.098 489.736 338.849C488.305 339.749 489.62 340.652 489.972 341.388C491.318 344.224 491.997 347.156 492.654 350.174C494.344 351.728 495.649 351.985 495.784 349.088Z" fill="#F2EFCD"/>
<path d="M209.443 128.606C207.778 129.352 207.816 130.921 207.535 132.312C207.053 134.109 207.929 135.627 209.112 136.677C210.529 137.882 211.25 135.875 212.226 135.311C213.395 134.708 214.439 133.887 215.545 133.175C214.872 129.878 212.246 129.082 209.443 128.606Z" fill="#239CE4"/>
<path d="M537.104 198.983C542.66 202.856 548.13 206.705 553.663 210.663C550.71 203.913 543.772 201.779 538.519 197.804C537.927 197.279 537.31 198.213 537.104 198.983Z" fill="#EFA28B"/>
<path d="M269.235 217.148C267.474 213.467 263.6 212.887 260.605 211.076C259.459 211.594 258.317 213.122 259.273 213.653C262.445 215.145 265.004 218.581 269.235 217.148Z" fill="#B6BDD3"/>
<path d="M431.171 360.563C431.792 360.638 432.391 360.798 433.012 360.873C435.671 358.468 437.658 355.15 441.284 353.921C440.876 352.711 440.24 350.983 438.779 352.333C436.098 354.823 432.63 356.828 431.171 360.563Z" fill="#ECD5B1"/>
<path d="M218.134 147.438C216.542 145.178 214.254 143.464 213.466 140.594C211.53 143.376 212.316 147.621 215.123 149.106C216.888 150.038 217.221 148.11 218.134 147.438Z" fill="#B3473B"/>
<path d="M496.528 339.477C500.564 338.083 504.53 338.321 508.116 340.657C505.336 336.337 500.575 334.969 496.503 337.178C494.9 338.033 495.919 338.672 496.528 339.477Z" fill="#EDA0C4"/>
<path d="M219.773 136.875C221.109 139.067 222.507 141.367 223.843 143.558C224.704 143.422 225.821 143.355 225.988 142.391C226.321 140.463 222.007 136.74 219.773 136.875Z" fill="#F4A38C"/>
<path d="M209.443 128.607C211.498 130.166 213.49 131.616 215.545 133.175C216.91 131.157 215.774 128.561 213.103 127.937C211.821 127.593 210.51 127.701 209.443 128.607Z" fill="#81C4ED"/>
<path d="M495.785 349.088C495.116 350.559 494.015 350.906 492.546 350.237C492.534 350.967 492.521 351.697 492.617 352.365C492.815 353.335 491.821 354.994 493.97 354.836C495.28 354.729 496.108 354.034 495.962 352.528C495.895 351.41 496.581 350.218 495.785 349.088Z" fill="#A3A9AB"/>
<path d="M476.817 290.005C477.882 290.474 478.726 290.058 479.274 289.38C479.953 288.554 479.562 287.623 478.907 286.99C478.253 286.356 477.553 285.893 476.767 285.408C454.692 270.05 432.702 254.714 410.65 239.271C410.183 238.962 409.74 238.568 409.187 238.237C408.02 237.466 406.637 236.82 405.689 238.308C404.74 239.796 405.97 240.675 407.137 241.446C412.926 245.473 418.715 249.499 424.504 253.526C441.024 265.012 457.52 276.583 473.954 288.046C474.973 288.686 475.969 289.411 476.817 290.005Z" fill="#122972"/>
<path d="M468.732 301.041C470.139 301.601 471.085 301.488 471.514 300.228C471.989 298.797 471.078 298.094 470.082 297.369C464.122 293.296 458.271 289.161 452.396 285.112C436.047 273.672 419.676 262.317 403.328 250.877C402.713 250.438 402.075 250.083 401.546 249.666C400.402 248.81 399.127 248.101 398.116 249.481C396.997 250.923 398.203 251.888 399.348 252.745C404.055 256.023 408.763 259.301 413.385 262.557C431.048 274.899 448.797 287.265 466.483 299.522C467.269 300.007 468.117 300.601 468.732 301.041Z" fill="#122872"/>
<path d="M413.471 227.374C413.184 229.131 414.311 229.708 415.245 230.325C437.849 246.1 460.454 261.875 483.058 277.65C484.225 278.421 485.705 279.735 486.869 278.121C488.32 276.126 486.253 275.297 485.023 274.418C462.567 258.774 440.025 243.107 417.506 227.355C416.066 226.236 414.711 225.14 413.471 227.374Z" fill="#122872"/>
<path d="M403.97 271.036C403.824 273.289 405.681 273.878 406.91 274.758C419.952 283.845 432.907 292.909 445.949 301.996C450.508 305.143 455.13 308.398 459.69 311.545C460.92 312.425 462.251 313.607 463.439 311.908C464.65 310.124 462.947 309.301 461.803 308.444C443.992 295.97 426.157 283.582 408.261 271.086C406.883 270.075 405.381 268.847 403.97 271.036Z" fill="#132972"/>
<path d="M479.86 224.993C481.119 225.422 481.98 225.286 482.426 224.305C483.072 222.92 482.355 222.178 481.273 221.43C477.624 218.985 474.021 216.369 470.395 213.839C460.746 207.128 451.121 200.332 441.472 193.62C440.243 192.741 438.792 190.977 437.342 192.972C436 194.905 437.982 195.711 439.211 196.59C452.104 205.546 464.975 214.587 477.868 223.543C478.693 224.222 479.394 224.685 479.86 224.993Z" fill="#142A72"/>
<path d="M443.411 184.33C442.999 185.87 443.91 186.572 444.906 187.298C458.266 196.562 471.603 205.911 484.94 215.261C486.022 216.009 487.314 216.997 488.433 215.555C489.706 213.879 488.305 212.954 487.076 212.074C473.801 202.833 460.612 193.615 447.337 184.374C446.193 183.517 444.714 182.204 443.411 184.33Z" fill="#132972"/>
<path d="M512.757 236.192C511.571 236.516 510.066 236.663 508.812 237.243C505.699 238.609 504.754 237.348 504.44 234.422C504.069 231.022 503.395 227.724 502.808 224.449C502.593 223.2 501.968 222.116 500.526 222.371C499.084 222.626 498.871 223.761 499.063 225.096C499.865 229.62 500.582 234.121 501.408 238.56C501.837 241.059 503.556 242.161 505.836 241.855C508.31 241.509 510.642 240.667 513.036 239.934C514.028 239.649 514.428 238.84 514.401 237.916C514.459 237.015 513.821 236.66 512.757 236.192Z" fill="#162B73"/>
<path d="M292.047 66.3932C289.461 65.7919 287.075 64.7859 284.345 65.0629C278.093 65.4964 274.601 68.9613 273.936 75.201C273.618 78.7828 272.74 82.3984 272.057 85.9742C272.192 86.8356 272.305 87.7826 272.44 88.644C276.45 93.8441 278.555 100.001 281.721 105.616C282.283 106.592 281.923 107.596 281.648 108.622C282.006 108.993 282.433 109.108 282.929 108.966C289.15 106.598 295.112 109.296 301.243 109.655C305.573 109.899 309.901 111.517 314.375 110.882C316.628 109.652 315.302 108.105 314.661 106.741C308.275 93.6618 301.046 80.998 294.335 68.1065C293.944 67.1764 293.381 66.2005 292.047 66.3932Z" fill="#65C1F4"/>
<path d="M316.669 169.99C322.686 182.053 328.617 194.094 336.344 205.241C340.176 210.761 345.913 211.564 351.761 207.172C353.021 206.226 354.22 205.172 355.651 204.272C360.14 201.532 360.959 198.818 358.852 194.036C356.103 187.89 353.44 181.768 350.691 175.622C349.901 174.127 348.448 173.737 347.036 173.542C337.573 172.29 328.149 171.232 318.715 169.529C318.009 169.432 317.319 169.614 316.669 169.99Z" fill="#3BB0F0"/>
<path d="M282.525 108.766C282.269 108.697 282.012 108.628 281.756 108.56C278.566 111.922 279.585 116.321 278.81 120.239C277.512 127.134 276.726 134.166 275.878 141.09C275.209 146.32 277.906 149.243 283.239 149.847C290.07 150.669 296.809 151.833 303.594 152.826C304.176 152.706 304.82 152.696 305.259 152.08C306.203 149.582 304.451 147.921 303.473 146.1C300.212 139.817 295.913 133.99 294.037 126.978C291.942 121.466 288.57 116.62 286.151 111.296C285.595 109.955 284.525 108.476 282.525 108.766Z" fill="#A0D8F9"/>
<path d="M316.669 169.989C325.907 173.107 335.628 173.053 345.193 174.607C347.033 174.917 348.982 175.164 350.776 175.645C357.061 175.77 363.196 177.139 369.383 177.972C371.611 178.202 373.799 178.238 375.958 178.725C378.971 179.441 381.086 178.724 381.632 175.661C382.195 172.878 380.676 171.371 377.81 170.786C369.3 169.056 360.662 168.484 352.122 167.204C349.832 166.865 347.502 166.333 345.235 165.908C337.768 163.358 329.906 162.626 322.191 162.026C317.433 161.668 315.858 163.446 316.056 168.175C316.26 168.78 316.465 169.385 316.669 169.989Z" fill="#A0D8F8"/>
<path d="M316.056 168.175C316.621 164.017 318.703 162.742 323.135 163.287C330.502 164.161 337.81 165.936 345.297 166.017C342.046 164.137 341.784 160.675 341.065 157.548C339.66 155.613 337.403 155.834 335.455 155.587C326.488 154.193 317.406 153.226 308.393 152.003C307.237 151.876 306.057 151.835 304.911 152.353C304.501 152.518 304.09 152.683 303.765 152.871C306.762 153.308 308.577 155.078 309.969 157.743C311.667 161.315 313.97 164.682 316.056 168.175Z" fill="#43B3F0"/>
<path d="M326.664 54.7654C338.161 56.2874 349.658 57.8094 361.155 59.3314C362.824 59.5953 364.118 59.2086 364.343 57.3436C364.522 55.6496 363.201 55.1122 361.788 54.917C350.035 53.3264 338.196 51.7128 326.443 50.1221C325.03 49.9269 323.651 50.2907 323.472 51.9846C323.24 54.2147 325.149 54.2678 326.664 54.7654Z" fill="#142973"/>
<path d="M308.937 280.869C311.952 283.969 315.166 284.28 318.56 281.523C320.379 276.784 319.763 273.96 316.397 272.508C313.202 271.102 310.716 272.178 308.866 274.983C307.632 276.852 308.37 278.884 308.937 280.869Z" fill="#142972"/>
<path d="M304.825 152.331C316.754 154.977 328.907 155.758 340.979 157.525C352.732 159.116 364.485 160.707 376.261 162.212C380.865 162.804 383.832 159.931 384.409 155.044C385.28 148.034 386.407 141.093 387.449 134.13C387.582 132.607 388.61 131.507 388.914 130.03C390.377 123.546 387.073 118.443 380.545 117.519C370.654 116.152 360.702 114.677 350.782 113.761C347.119 113.422 343.508 112.546 339.867 112.12C337.912 112.238 335.97 111.626 333.976 111.55C328.21 111.197 322.662 109.344 316.861 109.806C315.567 110.193 315.4 111.157 315.769 112.173C317.415 116.281 318.52 120.703 322.442 123.495C322.846 123.695 323.296 123.724 323.746 123.753C325.878 123.316 327.704 121.971 330.023 121.859C336.377 121.728 341.482 125.572 342.858 131.716C344.194 137.667 340.835 143.368 334.592 145.821C329.101 148.2 324.974 144.802 320.704 142.283C317.462 142.423 314.253 143.121 311.583 144.881C308.349 147.04 306.482 145.807 304.834 143.073C302.201 138.884 299.136 134.945 296.829 130.568C296.016 129.158 295.535 127.196 293.347 127.16C294.38 133.212 298.248 137.916 300.753 143.263C302.054 146.27 304.802 148.657 304.825 152.331Z" fill="#A4D9F8"/>
<path d="M339.188 112.947C350.209 115.9 361.669 115.853 372.88 117.757C375.854 118.279 378.942 118.373 381.978 119.003C386.513 119.851 388.764 123.755 387.987 129.048C387.722 130.719 386.643 132.355 387.534 134.152C389.022 133.726 390.596 133.322 392.106 132.81C398.646 130.62 399.246 129.406 397.039 122.947C391.71 112.076 386.706 101.017 379.992 90.8747C376.22 94.3564 371.125 94.9165 366.813 97.3368C358.84 101.802 350.345 105.484 341.855 108.802C340.15 109.354 337.5 110.019 339.188 112.947Z" fill="#4EB8F2"/>
<path d="M339.188 112.947C338.706 110.984 340.371 110.238 341.557 109.914C344.641 108.999 347.379 106.982 350.27 106.106C358.12 103.809 364.617 99.0404 371.967 95.8756C373.113 95.3576 374.499 94.6287 375.678 94.6697C378.573 94.8035 379.544 93.2301 380.015 90.7892C377.799 86.0699 376.018 81.1001 372.742 76.9217C364.373 75.6878 356.027 74.3683 347.72 73.2428C337.038 71.7557 326.419 70.3771 315.714 68.9756C314.13 68.7346 312.477 68.7503 310.956 68.6177C310.145 69.5923 310.685 70.6538 311.1 71.4984C317.873 84.4983 324.515 97.6465 331.938 110.271C332.438 111.138 333.024 112.028 334.003 112.474C335.61 112.63 337.26 113.989 339.188 112.947Z" fill="#65C1F4"/>
<path d="M509.189 167.483C509.742 164.055 508.816 161.699 505.438 160.977C502.339 160.238 500.103 161.748 499.347 164.571C498.522 167.65 499.897 170.036 503.167 170.82C506.266 171.559 508.2 170.152 509.189 167.483Z" fill="#132972"/>
<path d="M333.832 112.428C329.946 105.061 326.059 97.6935 322.172 90.3261C318.348 83.0671 314.609 75.8309 310.762 68.6574C310.506 68.5888 310.164 68.4972 309.931 68.343C304.138 67.0657 298.103 67.374 292.361 65.5606C292.293 65.8172 292.224 66.0738 292.155 66.3304C298.457 78.0123 304.759 89.6942 311.061 101.376C312.601 104.173 313.925 107.094 315.356 109.953C315.436 110.341 315.669 110.495 316.079 110.33C322.016 110.729 327.82 112.651 333.832 112.428Z" fill="#23A6F0"/>
<path d="M316.034 110.501C315.801 110.347 315.567 110.193 315.311 110.124C306.361 109.01 297.496 107.918 288.568 106.718C286.17 106.442 283.817 105.995 282.61 108.788C287.908 113.967 289.544 121.19 293.324 127.245C296.877 132.781 300.454 138.232 303.921 143.745C306.678 148.151 307.75 148.255 312.061 145.834C314.53 144.479 317.437 143.883 320.265 142.899C320.586 141.701 320.069 140.554 319.7 139.538C317.958 134.763 318.506 130.325 321.709 126.233C322.411 125.321 323.37 124.477 322.813 123.136C319.423 119.386 318.108 114.724 316.034 110.501Z" fill="#B6E1F9"/>
<path d="M311.981 276.001C311.798 276.685 311.631 277.649 312.508 277.792C313.556 277.981 314.532 277.418 315.063 276.46C315.394 275.907 314.996 275.342 314.421 275.096C313.356 274.627 312.496 274.763 311.981 276.001Z" fill="#4E5A90"/>
<path d="M334.682 146.853C340.456 145.467 343.248 141.539 344.094 135.99C344.94 130.44 342.548 126.04 338.221 123.048C333.514 119.769 328.3 119.747 323.372 123.103C321.673 127.048 324.747 129.247 326.566 132.027C327.819 132.821 329.028 132.411 330.345 131.939C333.97 130.71 334.562 131.235 333.873 135.176C333.614 136.482 333.271 137.765 332.693 138.894C330.124 142.331 332.554 144.541 334.682 146.853Z" fill="#112772"/>
<path d="M326.806 131.816C326.366 128.672 323.076 126.599 323.371 123.103C323.115 123.034 322.921 123.074 322.665 123.005C316.334 130.569 315.701 134.983 320.094 142.853C324.322 146.553 328.694 149.375 334.681 146.853C334.667 145.199 333.637 143.915 332.779 142.676C331.647 141.089 332.622 140.525 333.729 139.813C331.762 136.903 327.204 136.14 326.806 131.816Z" fill="#435993"/>
<path d="M326.806 131.816C325.522 132.847 324.774 133.93 326.533 135.227C328.821 136.94 330.801 139.121 333.729 139.813C334.902 136.461 336.561 132.321 334.672 129.798C333.182 127.84 329.723 131.864 326.806 131.816Z" fill="#9ED4F5"/>
</g>
<defs>
<clipPath id="clip0">
<rect width="221.603" height="175.194" fill="white" transform="translate(40.7344 178) rotate(13.4449)"/>
</clipPath>
<clipPath id="clip1">
<rect width="368.5" height="330.674" fill="white" transform="matrix(-0.965926 -0.258819 -0.258819 0.965926 593.528 95.3748)"/>
</clipPath>
</defs>
</svg>
