<svg width="43" height="40" viewBox="0 0 43 40" fill="none" xmlns="http://www.w3.org/2000/svg">
<g filter="url(#filter0_d)">
<path d="M30.6175 6.00205C30.3425 6.02205 30.0726 6.08656 29.8183 6.19306H29.8149C29.5707 6.28986 28.4101 6.77811 26.6455 7.51819L20.3223 10.1813C15.785 12.0914 11.3248 13.9725 11.3248 13.9725L11.3779 13.9519C11.3779 13.9519 11.0704 14.053 10.7492 14.2731C10.5507 14.3994 10.38 14.5646 10.2472 14.7588C10.0896 14.9901 9.96285 15.3439 10.01 15.7096C10.0871 16.3281 10.4879 16.699 10.7757 16.9037C11.067 17.111 11.3445 17.2078 11.3445 17.2078H11.3514L15.534 18.6168C15.7216 19.219 16.8086 22.7926 17.0699 23.6158C17.224 24.1075 17.3739 24.415 17.5615 24.6497C17.6523 24.7696 17.7585 24.8698 17.8862 24.9504C17.9525 24.989 18.0233 25.0194 18.0969 25.0412L18.0541 25.0309C18.0669 25.0343 18.0772 25.0446 18.0866 25.048C18.1209 25.0574 18.144 25.0609 18.1877 25.0677C18.8498 25.2682 19.3818 24.857 19.3818 24.857L19.4117 24.833L21.8812 22.5845L26.0202 25.7598L26.1144 25.8001C26.977 26.1787 27.8507 25.968 28.3124 25.5962C28.7775 25.2219 28.9583 24.7431 28.9583 24.7431L28.9883 24.666L32.1867 8.28054C32.2775 7.87624 32.3006 7.49763 32.2004 7.13016C32.097 6.75825 31.8585 6.43839 31.5314 6.23332C31.2568 6.06639 30.9384 5.98581 30.6175 6.00205V6.00205ZM30.531 7.75803C30.5275 7.81199 30.5378 7.806 30.5138 7.90964V7.91906L27.3453 24.134C27.3316 24.1572 27.3085 24.2077 27.2451 24.2583C27.1783 24.3114 27.1252 24.3448 26.8468 24.2343L21.7845 20.3531L18.7265 23.1404L19.3689 19.0374L27.64 11.3282C27.9809 11.0113 27.867 10.9445 27.867 10.9445C27.891 10.5556 27.3522 10.8306 27.3522 10.8306L16.9225 17.2917L16.9191 17.2746L11.9201 15.5914V15.588L11.9073 15.5854C11.916 15.5825 11.9246 15.5791 11.933 15.5751L11.9604 15.5614L11.9869 15.552C11.9869 15.552 16.4506 13.671 20.9878 11.7608C23.2595 10.804 25.5482 9.84036 27.3085 9.09686C29.0688 8.35763 30.3699 7.81542 30.4436 7.7863C30.5138 7.75888 30.4804 7.75888 30.531 7.75888V7.75803Z" fill="url(#paint0_linear)"/>
</g>
<defs>
<filter id="filter0_d" x="0" y="0" width="42.2659" height="40" filterUnits="userSpaceOnUse" color-interpolation-filters="sRGB">
<feFlood flood-opacity="0" result="BackgroundImageFix"/>
<feColorMatrix in="SourceAlpha" type="matrix" values="0 0 0 0 0 0 0 0 0 0 0 0 0 0 0 0 0 0 127 0" result="hardAlpha"/>
<feOffset dy="4"/>
<feGaussianBlur stdDeviation="5"/>
<feComposite in2="hardAlpha" operator="out"/>
<feColorMatrix type="matrix" values="0 0 0 0 0.992157 0 0 0 0 0.27451 0 0 0 0 0.14902 0 0 0 0.71 0"/>
<feBlend mode="normal" in2="BackgroundImageFix" result="effect1_dropShadow"/>
<feBlend mode="normal" in="SourceGraphic" in2="effect1_dropShadow" result="shape"/>
</filter>
<linearGradient id="paint0_linear" x1="21.1329" y1="6" x2="21.1329" y2="26" gradientUnits="userSpaceOnUse">
<stop stop-color="#FD4626"/>
<stop offset="1" stop-color="#FE7736"/>
</linearGradient>
</defs>
</svg>
