<svg width="14" height="11" viewBox="0 0 14 11" fill="none" xmlns="http://www.w3.org/2000/svg">
<path d="M7.5764 0.316817C7.51217 0.219114 7.42624 0.139227 7.32599 0.0840391C7.22575 0.0288509 7.1142 1.55819e-05 7.00095 1.55715e-05C6.8877 1.55612e-05 6.77615 0.0288508 6.67591 0.084039C6.57566 0.139227 6.48973 0.219114 6.42551 0.316817L0.125013 9.84949C0.052085 9.95944 0.00931938 10.0882 0.00136 10.2218C-0.00659937 10.3555 0.0205546 10.4888 0.0798703 10.6074C0.139186 10.726 0.228395 10.8253 0.337805 10.8945C0.447215 10.9637 0.572642 11.0002 0.700459 11L13.3014 11C13.429 10.9995 13.5539 10.9625 13.6629 10.8931C13.7719 10.8237 13.8607 10.7246 13.9199 10.6062C13.9791 10.4879 14.0063 10.3549 13.9988 10.2216C13.9912 10.0883 13.949 9.95962 13.8769 9.84949L7.5764 0.316817Z" fill="#37923B"/>
</svg>
