<svg width="9" height="16" viewBox="0 0 9 16" fill="none" xmlns="http://www.w3.org/2000/svg">
<path d="M2.01761 0.416662C2.17945 0.416111 2.33936 0.451831 2.48559 0.521196C2.63182 0.59056 2.76065 0.691807 2.86261 0.817497L8.09511 7.3175C8.25445 7.51134 8.34155 7.75449 8.34155 8.00541C8.34155 8.25634 8.25445 8.49949 8.09511 8.69333L2.67844 15.1933C2.49456 15.4146 2.23032 15.5537 1.94386 15.5801C1.65739 15.6065 1.37217 15.518 1.15094 15.3342C0.929704 15.1503 0.790578 14.886 0.764167 14.5996C0.737755 14.3131 0.826222 14.0279 1.01011 13.8067L5.85261 8L1.17261 2.19333C1.04013 2.03431 0.955984 1.84068 0.930114 1.63533C0.904245 1.42999 0.937738 1.22153 1.02663 1.03462C1.11553 0.847718 1.2561 0.690189 1.43172 0.580675C1.60734 0.471159 1.81065 0.414244 2.01761 0.416662Z" fill="#055D08"/>
</svg>
