<svg width="12" height="12" viewBox="0 0 12 12" fill="none" xmlns="http://www.w3.org/2000/svg">
<path d="M0.75 2.49999V10.6667C0.75 10.9761 0.872916 11.2728 1.09171 11.4916C1.3105 11.7104 1.60725 11.8333 1.91667 11.8333H10.0833C10.3928 11.8333 10.6895 11.7104 10.9083 11.4916C11.1271 11.2728 11.25 10.9761 11.25 10.6667V2.49999C11.25 2.19057 11.1271 1.89382 10.9083 1.67503C10.6895 1.45624 10.3928 1.33332 10.0833 1.33332H8.91667V0.166656H7.75V1.33332H4.25V0.166656H3.08333V1.33332H1.91667C1.60725 1.33332 1.3105 1.45624 1.09171 1.67503C0.872916 1.89382 0.75 2.19057 0.75 2.49999ZM10.0833 10.6667H1.91667V3.66666H10.0833V10.6667Z" fill="black"/>
</svg>
