<svg width="21" height="21" viewBox="0 0 21 21" fill="none" xmlns="http://www.w3.org/2000/svg">
<path fill-rule="evenodd" clip-rule="evenodd" d="M9.69874 0.0123209C7.53211 0.234674 5.78951 0.899801 4.13233 2.13689C3.62815 2.51329 2.50745 3.63363 2.13093 4.13765C1.02519 5.61797 0.36511 7.2015 0.0768598 9.0656C-0.0256199 9.72818 -0.0256199 11.2784 0.0768598 11.941C0.36511 13.8051 1.02519 15.3887 2.13093 16.869C2.50745 17.373 3.62815 18.4933 4.13233 18.8697C5.61311 19.9751 7.19714 20.635 9.06183 20.9232C9.72462 21.0256 11.2754 21.0256 11.9382 20.9232C13.8029 20.635 15.3869 19.9751 16.8677 18.8697C17.3719 18.4933 18.4926 17.373 18.8691 16.869C19.9748 15.3887 20.6349 13.8051 20.9231 11.941C21.0256 11.2784 21.0256 9.72818 20.9231 9.0656C20.6349 7.2015 19.9748 5.61797 18.8691 4.13765C18.4926 3.63363 17.3719 2.51329 16.8677 2.13689C15.3991 1.04057 13.7955 0.369326 11.9793 0.0906557C11.5658 0.027191 10.0583 -0.0245667 9.69874 0.0123209ZM16.0235 6.00134C16.232 6.08843 16.5024 6.35264 16.595 6.55987C16.7113 6.81985 16.704 7.18894 16.5774 7.4421C16.4399 7.71752 9.60197 14.493 9.3431 14.6104C9.07058 14.7341 8.71334 14.7219 8.45184 14.5803C8.18377 14.435 4.68479 11.2509 4.4977 10.982C4.25108 10.6274 4.28576 10.059 4.57504 9.71537C4.81377 9.43173 5.29835 9.32098 5.70088 9.4581C5.88463 9.52066 6.09765 9.70732 8.4788 11.8922L8.86143 12.2433L11.9304 9.17754C14.2964 6.81402 15.0418 6.0927 15.1843 6.02862C15.4051 5.92942 15.819 5.91594 16.0235 6.00134Z" fill="#37923B"/>
</svg>
