<svg width="12" height="10" viewBox="0 0 12 10" fill="none" xmlns="http://www.w3.org/2000/svg">
<path d="M10.0837 0.83367C10.2774 0.649268 10.5351 0.547322 10.8025 0.549346C11.07 0.551369 11.3261 0.657204 11.517 0.844516C11.7079 1.03183 11.8186 1.28597 11.8256 1.55331C11.8327 1.82065 11.7356 2.08028 11.5549 2.27742L6.06866 9.13867C5.97432 9.24028 5.86047 9.32182 5.73389 9.37842C5.60732 9.43503 5.47063 9.46552 5.33201 9.46809C5.19338 9.47066 5.05566 9.44524 4.92708 9.39336C4.7985 9.34149 4.6817 9.26422 4.58366 9.16617L0.945412 5.52792C0.844092 5.43351 0.762827 5.31966 0.706463 5.19316C0.650099 5.06666 0.619791 4.93011 0.617348 4.79164C0.614905 4.65317 0.640377 4.51563 0.692243 4.38722C0.744109 4.25882 0.821308 4.14217 0.919234 4.04424C1.01716 3.94632 1.13381 3.86912 1.26221 3.81725C1.39062 3.76539 1.52816 3.73991 1.66663 3.74236C1.8051 3.7448 1.94165 3.77511 2.06815 3.83147C2.19465 3.88784 2.3085 3.9691 2.40291 4.07042L5.28216 6.9483L10.0575 0.863921C10.0661 0.853335 10.0753 0.843235 10.085 0.83367H10.0837Z" fill="#37923B"/>
</svg>
