<svg width="128" height="128" viewBox="0 0 128 128" fill="none" xmlns="http://www.w3.org/2000/svg">
<path d="M64 128C99.3462 128 128 99.3462 128 64C128 28.6538 99.3462 0 64 0C28.6538 0 0 28.6538 0 64C0 99.3462 28.6538 128 64 128Z" fill="url(#paint0_linear_101_474)"/>
<g clip-path="url(#clip0_101_474)">
<path fill-rule="evenodd" clip-rule="evenodd" d="M83.5667 44.4033C83.3122 44.1495 83.1595 43.8956 83.1595 43.5402C83.1595 43.1849 83.3122 42.931 83.5667 42.6772C84.0755 42.2202 84.8898 42.2202 85.4495 42.6772C85.704 42.931 85.8566 43.1849 85.8566 43.5402C85.8566 43.8956 85.704 44.1495 85.4495 44.4033C85.1951 44.6064 84.8389 44.7587 84.5335 44.7587C84.1773 44.8095 83.8211 44.7079 83.5667 44.4033Z" fill="white"/>
<path fill-rule="evenodd" clip-rule="evenodd" d="M80.3097 47.9062C80.1062 47.6524 79.9535 47.3986 79.9535 47.0432C79.9535 46.6878 80.1062 46.4339 80.3097 46.1801C80.7677 45.7232 81.5819 45.7232 82.0399 46.1801C82.2435 46.4339 82.3961 46.6878 82.3961 47.0432C82.3961 47.3986 82.2435 47.6524 82.0399 47.9062C81.7855 48.1093 81.531 48.2616 81.1748 48.2616C80.8186 48.2616 80.5642 48.1093 80.3097 47.9062Z" fill="white"/>
<path fill-rule="evenodd" clip-rule="evenodd" d="M76.7476 51.2573C76.544 51.0542 76.3914 50.7496 76.3914 50.3942C76.3914 50.0389 76.544 49.785 76.7476 49.5312C77.2056 49.0742 78.0198 49.0742 78.4778 49.5312C78.6813 49.7342 78.834 50.0389 78.834 50.3942C78.834 50.7496 78.6813 51.0035 78.4778 51.2573C78.2233 51.5112 77.9689 51.6127 77.6127 51.6127C77.2565 51.6127 76.9511 51.4604 76.7476 51.2573Z" fill="white"/>
<path fill-rule="evenodd" clip-rule="evenodd" d="M73.338 54.6587C73.0836 54.4556 72.9309 54.151 72.9309 53.7956C72.9309 53.4402 73.0836 53.1864 73.338 52.9325C73.8469 52.4756 74.6611 52.4756 75.2209 52.9325C75.4753 53.1356 75.628 53.4402 75.628 53.7956C75.628 54.151 75.4753 54.4556 75.2209 54.6587C74.9664 54.9125 74.6102 55.0141 74.3049 55.0141C73.9487 55.0141 73.6433 54.9633 73.338 54.6587Z" fill="white"/>
<path fill-rule="evenodd" clip-rule="evenodd" d="M70.0812 58.0601C69.8268 57.857 69.725 57.5524 69.725 57.197C69.725 56.8416 69.8776 56.5877 70.0812 56.3339C70.5392 55.877 71.3534 55.877 71.8114 56.3339C72.0658 56.537 72.1676 56.8416 72.1676 57.197C72.1676 57.5524 72.015 57.857 71.8114 58.0601C71.6078 58.3139 71.3025 58.4154 70.9463 58.4154C70.641 58.4662 70.2848 58.3647 70.0812 58.0601Z" fill="white"/>
<path fill-rule="evenodd" clip-rule="evenodd" d="M66.1628 60.5983C66.1628 60.243 66.3155 59.9891 66.5191 59.7353C66.9771 59.2783 67.7913 59.2783 68.2493 59.7353C68.5037 59.9891 68.6055 60.243 68.6055 60.5983C68.6055 60.9537 68.4528 61.2076 68.2493 61.4614C68.0457 61.6645 67.7404 61.8168 67.3842 61.8168C67.0279 61.8168 66.7735 61.6645 66.5191 61.4614C66.2646 61.2584 66.1628 60.9537 66.1628 60.5983Z" fill="white"/>
<path fill-rule="evenodd" clip-rule="evenodd" d="M59.8018 68.1123C59.5982 67.9092 59.4456 67.6046 59.4456 67.2492C59.4456 66.8938 59.5982 66.64 59.8018 66.3861C60.2598 65.9292 61.074 65.9292 61.532 66.3861C61.7864 66.64 61.8882 66.8938 61.8882 67.2492C61.8882 67.6046 61.7355 67.8585 61.532 68.1123C61.3284 68.3661 61.0231 68.4677 60.6669 68.4677C60.3616 68.5185 60.0562 68.4169 59.8018 68.1123Z" fill="white"/>
<path fill-rule="evenodd" clip-rule="evenodd" d="M56.2904 71.5142C56.036 71.3111 55.8833 71.0065 55.8833 70.6511C55.8833 70.2957 56.036 70.0418 56.2904 69.788C56.7993 69.3311 57.6135 69.3311 58.1733 69.788C58.4277 70.0418 58.5804 70.2957 58.5804 70.6511C58.5804 71.0065 58.4277 71.2603 58.1733 71.5142C57.9188 71.768 57.5626 71.8695 57.2573 71.8695C56.8502 71.9203 56.5448 71.768 56.2904 71.5142Z" fill="white"/>
<path fill-rule="evenodd" clip-rule="evenodd" d="M52.9827 74.9663C52.7791 74.7632 52.6265 74.4586 52.6265 74.1032C52.6265 73.7478 52.7791 73.4432 52.9827 73.2402C53.4407 72.7832 54.2549 72.7832 54.7129 73.2402C54.9164 73.4432 55.0691 73.7478 55.0691 74.1032C55.0691 74.4586 54.9164 74.7125 54.7129 74.9663C54.4584 75.2202 54.204 75.3217 53.8478 75.3217C53.4916 75.3217 53.288 75.1694 52.9827 74.9663Z" fill="white"/>
<path fill-rule="evenodd" clip-rule="evenodd" d="M49.573 78.3677C49.3186 78.1646 49.2168 77.86 49.2168 77.5046C49.2168 77.1492 49.3695 76.8954 49.573 76.6415C50.031 76.1846 50.8452 76.1846 51.3032 76.6415C51.5068 76.8954 51.6594 77.1492 51.6594 77.5046C51.6594 77.86 51.5068 78.1646 51.3032 78.3677C51.0488 78.6215 50.7943 78.7231 50.4381 78.7231C50.1328 78.7231 49.7766 78.6215 49.573 78.3677Z" fill="white"/>
<path fill-rule="evenodd" clip-rule="evenodd" d="M46.0618 81.769C45.8073 81.566 45.6547 81.2613 45.6547 80.906C45.6547 80.5506 45.8073 80.2967 46.0618 80.0429C46.5707 79.586 47.3849 79.586 47.8429 80.0429C48.0973 80.2967 48.25 80.5506 48.25 80.906C48.25 81.2613 48.0973 81.566 47.8429 81.769C47.5884 81.9721 47.2322 82.1244 46.9269 82.1244C46.5707 82.1244 46.2653 82.0229 46.0618 81.769Z" fill="white"/>
<path fill-rule="evenodd" clip-rule="evenodd" d="M42.703 85.1709C42.4486 84.9171 42.3468 84.6632 42.3468 84.3078C42.3468 83.9524 42.4995 83.6986 42.703 83.4447C43.161 82.9878 43.9752 82.9878 44.4332 83.4447C44.6877 83.6986 44.7894 83.9524 44.7894 84.3078C44.7894 84.6632 44.6368 84.9171 44.4332 85.1709C44.2297 85.374 43.9243 85.5263 43.5681 85.5263C43.3137 85.5771 43.0084 85.4247 42.703 85.1709Z" fill="white"/>
<path fill-rule="evenodd" clip-rule="evenodd" d="M44.4332 44.4033C44.6368 44.1495 44.7894 43.8956 44.7894 43.5402C44.7894 43.1849 44.6368 42.931 44.4332 42.6772C43.9752 42.2202 43.161 42.2202 42.703 42.6772C42.4486 42.931 42.3468 43.1849 42.3468 43.5402C42.3468 43.8956 42.4995 44.1495 42.703 44.4033C42.9066 44.6064 43.2119 44.7587 43.5681 44.7587C43.9243 44.8095 44.2297 44.7079 44.4332 44.4033Z" fill="white"/>
<path fill-rule="evenodd" clip-rule="evenodd" d="M47.8428 47.9062C48.0973 47.6524 48.2499 47.3986 48.2499 47.0432C48.2499 46.6878 48.0973 46.4339 47.8428 46.1801C47.334 45.7232 46.5197 45.7232 45.96 46.1801C45.7055 46.4339 45.5529 46.6878 45.5529 47.0432C45.5529 47.3986 45.7055 47.6524 45.96 47.9062C46.2144 48.1093 46.5706 48.2616 46.876 48.2616C47.2322 48.2109 47.5884 48.1093 47.8428 47.9062Z" fill="white"/>
<path fill-rule="evenodd" clip-rule="evenodd" d="M51.3032 51.2573C51.5068 51.0542 51.6594 50.7496 51.6594 50.3942C51.6594 50.0389 51.5068 49.785 51.3032 49.5312C50.8452 49.0742 50.031 49.0742 49.573 49.5312C49.3695 49.7342 49.2168 50.0389 49.2168 50.3942C49.2168 50.7496 49.3695 51.0035 49.573 51.2573C49.8275 51.5112 50.0819 51.6127 50.4381 51.6127C50.7435 51.6127 51.0488 51.4604 51.3032 51.2573Z" fill="white"/>
<path fill-rule="evenodd" clip-rule="evenodd" d="M54.7129 54.6587C54.9164 54.4556 55.0691 54.151 55.0691 53.7956C55.0691 53.4402 54.9164 53.1864 54.7129 52.9325C54.2549 52.4756 53.4407 52.4756 52.9827 52.9325C52.7791 53.1356 52.6265 53.4402 52.6265 53.7956C52.6265 54.151 52.7791 54.4556 52.9827 54.6587C53.2371 54.9125 53.4916 55.0141 53.8478 55.0141C54.1531 55.0141 54.4584 54.9633 54.7129 54.6587Z" fill="white"/>
<path fill-rule="evenodd" clip-rule="evenodd" d="M58.0715 58.0601C58.3259 57.857 58.4786 57.5524 58.4786 57.197C58.4786 56.8416 58.3259 56.5877 58.0715 56.3339C57.6135 55.877 56.7484 55.877 56.2904 56.3339C56.036 56.537 55.8833 56.8416 55.8833 57.197C55.8833 57.5524 56.036 57.857 56.2904 58.0601C56.5448 58.3139 56.9011 58.4154 57.2064 58.4154C57.5117 58.4662 57.8679 58.3647 58.0715 58.0601Z" fill="white"/>
<path fill-rule="evenodd" clip-rule="evenodd" d="M61.8882 60.5983C61.8882 60.243 61.7355 59.9891 61.532 59.7353C61.074 59.2783 60.2598 59.2783 59.8018 59.7353C59.5473 59.9891 59.4456 60.243 59.4456 60.5983C59.4456 60.9537 59.5982 61.2076 59.8018 61.4614C60.0053 61.6645 60.3107 61.8168 60.6669 61.8168C61.0231 61.8168 61.2775 61.6645 61.532 61.4614C61.7864 61.2584 61.8882 60.9537 61.8882 60.5983Z" fill="white"/>
<path fill-rule="evenodd" clip-rule="evenodd" d="M64.9414 64.9141C65.1958 64.6602 65.2976 64.4064 65.2976 64.051C65.2976 63.6956 65.145 63.4418 64.9414 63.1879C64.4834 62.731 63.6692 62.731 63.2112 63.1879C62.9568 63.4418 62.855 63.6956 62.855 64.051C62.855 64.4064 63.0076 64.6602 63.2112 64.9141C63.4148 65.1171 63.7201 65.2694 64.0763 65.2694C64.4325 65.2694 64.7379 65.1171 64.9414 64.9141Z" fill="white"/>
<path fill-rule="evenodd" clip-rule="evenodd" d="M68.3511 68.1123C68.6055 67.9092 68.7582 67.6046 68.7582 67.2492C68.7582 66.8938 68.6055 66.64 68.3511 66.3861C67.8422 65.9292 67.028 65.9292 66.57 66.3861C66.3155 66.64 66.1628 66.8938 66.1628 67.2492C66.1628 67.6046 66.3155 67.8585 66.57 68.1123C66.8244 68.3661 67.1806 68.4677 67.4859 68.4677C67.7404 68.5185 68.0966 68.4169 68.3511 68.1123Z" fill="white"/>
<path fill-rule="evenodd" clip-rule="evenodd" d="M71.8114 71.5142C72.015 71.3111 72.1676 71.0065 72.1676 70.6511C72.1676 70.2957 72.015 70.0418 71.8114 69.788C71.3534 69.3311 70.5392 69.3311 70.0812 69.788C69.8776 70.0418 69.725 70.2957 69.725 70.6511C69.725 71.0065 69.8776 71.2603 70.0812 71.5142C70.3356 71.768 70.5901 71.8695 70.9463 71.8695C71.2007 71.9203 71.557 71.768 71.8114 71.5142Z" fill="white"/>
<path fill-rule="evenodd" clip-rule="evenodd" d="M75.221 74.9663C75.4245 74.7632 75.5772 74.4586 75.5772 74.1032C75.5772 73.7478 75.4245 73.4432 75.221 73.2402C74.763 72.7832 73.9487 72.7832 73.4907 73.2402C73.2872 73.4432 73.1345 73.7478 73.1345 74.1032C73.1345 74.4586 73.2872 74.7125 73.4907 74.9663C73.7452 75.2202 73.9996 75.3217 74.3558 75.3217C74.7121 75.3217 74.9665 75.1694 75.221 74.9663Z" fill="white"/>
<path fill-rule="evenodd" clip-rule="evenodd" d="M78.4269 78.3677C78.6813 78.1646 78.7831 77.86 78.7831 77.5046C78.7831 77.1492 78.6304 76.8954 78.4269 76.6415C77.9689 76.1846 77.1547 76.1846 76.6967 76.6415C76.4931 76.8954 76.3405 77.1492 76.3405 77.5046C76.3405 77.86 76.4931 78.1646 76.6967 78.3677C76.9511 78.6215 77.2056 78.7231 77.5618 78.7231C77.8671 78.7231 78.2233 78.6215 78.4269 78.3677Z" fill="white"/>
<path fill-rule="evenodd" clip-rule="evenodd" d="M82.0399 81.769C82.2944 81.566 82.3961 81.2613 82.3961 80.906C82.3961 80.5506 82.2435 80.2967 82.0399 80.0429C81.5819 79.586 80.7677 79.586 80.3097 80.0429C80.0553 80.2967 79.9535 80.5506 79.9535 80.906C79.9535 81.2613 80.1062 81.566 80.3097 81.769C80.5133 81.9721 80.8186 82.1244 81.1748 82.1244C81.531 82.1244 81.8364 82.0229 82.0399 81.769Z" fill="white"/>
<path fill-rule="evenodd" clip-rule="evenodd" d="M85.4497 85.1709C85.7041 84.9171 85.8568 84.6632 85.8568 84.3078C85.8568 83.9524 85.7041 83.6986 85.4497 83.4447C84.9408 82.9878 84.1266 82.9878 83.6686 83.4447C83.4141 83.6986 83.2615 83.9524 83.2615 84.3078C83.2615 84.6632 83.4141 84.9171 83.6686 85.1709C83.923 85.374 84.2792 85.5263 84.5846 85.5263C84.839 85.5771 85.1444 85.4247 85.4497 85.1709Z" fill="white"/>
<path fill-rule="evenodd" clip-rule="evenodd" d="M52.5246 45.3678C55.985 43.0832 59.8017 42.017 64.0254 41.9663C68.1474 41.9663 71.964 43.0832 75.5262 45.3678L82.8542 38.057C77.1038 33.6909 70.8954 31.5078 64.0254 31.5078C57.1555 31.5078 50.8453 33.6909 45.2476 38.057L52.5246 45.3678Z" fill="white"/>
<path fill-rule="evenodd" clip-rule="evenodd" d="M45.1967 75.3723C42.8558 71.8184 41.7363 68.0615 41.7363 64C41.7363 59.8877 42.8558 56.08 45.1967 52.6277L37.9196 45.3677C33.645 50.9523 31.5077 57.1461 31.5077 64.0508C31.5077 70.8538 33.645 77.0984 37.9705 82.7846L45.1967 75.3723Z" fill="white"/>
<path fill-rule="evenodd" clip-rule="evenodd" d="M75.4753 82.6328C72.0149 84.9682 68.1983 86.1867 64.0763 86.2374C59.8525 86.2374 55.985 85.1205 52.5246 82.6836L45.1967 89.9436C50.8453 94.3605 57.1555 96.5436 64.0763 96.4928C70.9462 96.442 77.1546 94.2082 82.7524 89.9436L75.4753 82.6328Z" fill="white"/>
<path fill-rule="evenodd" clip-rule="evenodd" d="M82.6506 52.5261C84.9915 56.0799 86.2128 59.9384 86.1111 64.1015C86.0602 68.163 84.8897 71.8692 82.6506 75.2707L89.9786 82.5307C94.3041 76.9461 96.5432 70.7522 96.5432 63.9492C96.5941 57.0445 94.4059 50.7492 89.9786 45.1138L82.6506 52.5261Z" fill="white"/>
<path fill-rule="evenodd" clip-rule="evenodd" d="M90.2839 84.917C93.0828 84.917 95.4236 87.2016 95.4236 90.0447C95.4236 92.837 93.1337 95.1724 90.2839 95.1724C87.485 95.1724 85.1442 92.8878 85.1442 90.0447C85.1442 87.2016 87.4341 84.917 90.2839 84.917Z" fill="white"/>
<path fill-rule="evenodd" clip-rule="evenodd" d="M37.8688 84.917C40.6676 84.917 42.9576 87.2016 42.9576 90.0447C42.9576 92.837 40.6676 95.1724 37.8688 95.1724C35.0699 95.1724 32.7799 92.8878 32.7799 90.0447C32.7799 87.2016 35.0699 84.917 37.8688 84.917Z" fill="white"/>
<path fill-rule="evenodd" clip-rule="evenodd" d="M90.3858 32.625C93.1847 32.625 95.4747 34.9096 95.4747 37.7527C95.4747 40.5958 93.1847 42.8804 90.3858 42.8804C87.587 42.8804 85.297 40.5958 85.297 37.7527C85.297 34.9096 87.587 32.625 90.3858 32.625Z" fill="white"/>
<path fill-rule="evenodd" clip-rule="evenodd" d="M37.7671 32.625C40.5659 32.625 42.9068 34.9096 42.9068 37.7019C42.9068 40.4942 40.6168 42.7788 37.7671 42.7788C34.9682 42.7788 32.6273 40.4942 32.6273 37.7019C32.6273 34.9096 34.9173 32.625 37.7671 32.625Z" fill="white"/>
</g>
<defs>
<linearGradient id="paint0_linear_101_474" x1="45.7143" y1="-6.96762e-07" x2="106.338" y2="167.385" gradientUnits="userSpaceOnUse">
<stop stop-color="#161616"/>
<stop offset="1" stop-color="#4C5966"/>
</linearGradient>
<clipPath id="clip0_101_474">
<rect width="64.9846" height="64.9846" fill="white" transform="translate(31.5077 31.5078)"/>
</clipPath>
</defs>
</svg>
