<svg width="128" height="128" viewBox="0 0 128 128" fill="none" xmlns="http://www.w3.org/2000/svg">
<path d="M64 128C99.3462 128 128 99.3462 128 64C128 28.6538 99.3462 0 64 0C28.6538 0 0 28.6538 0 64C0 99.3462 28.6538 128 64 128Z" fill="url(#paint0_linear_101_358)"/>
<path d="M63.7856 31.9455C64.1679 31.9654 64.533 31.8894 64.8577 31.7388C65.5759 31.4062 66.0944 30.7104 66.1535 29.8851C66.2401 28.6868 65.2708 27.6563 64.0436 27.5725C62.8164 27.5092 61.7615 28.4133 61.6758 29.6118C61.6561 29.9783 61.728 30.3274 61.8712 30.6387C62.2053 31.3648 62.9269 31.8868 63.7856 31.9455Z" fill="white"/>
<path d="M84.6901 32.2404C84.5308 32.4765 84.3252 32.6632 84.0928 32.7951C83.8118 32.9548 83.492 33.035 83.1699 33.0267C83.0543 33.0237 82.9385 33.0094 82.8237 32.9834C82.7173 32.9593 82.6128 32.9249 82.51 32.8802L82.456 32.8554L82.3763 32.8154C82.3361 32.7933 82.2967 32.7703 82.2571 32.7451C81.4602 32.2193 81.2237 31.1471 81.7404 30.3479C81.8424 30.201 81.9633 30.0736 82.0978 29.9673C82.1397 29.9346 82.1827 29.9037 82.2264 29.8747C82.2888 29.8342 82.3532 29.7973 82.4192 29.7647C82.4621 29.744 82.5048 29.7249 82.5486 29.7076C82.5974 29.6881 82.6472 29.6707 82.6968 29.6558C82.851 29.6099 83.0113 29.5847 83.1724 29.5809C83.5145 29.574 83.8622 29.6646 84.1734 29.8643C84.991 30.3901 85.2283 31.4413 84.6901 32.2404Z" fill="white"/>
<path d="M45.4206 32.9124C46.2819 32.4918 46.6264 31.4406 46.1953 30.5997C45.7652 29.7583 44.6888 29.4221 43.8275 29.8428C42.9661 30.263 42.6217 31.2935 43.052 32.1344C43.2284 32.4869 43.5087 32.7549 43.8395 32.9187C43.9878 32.9924 44.1463 33.0449 44.3109 33.0743C44.3846 33.0875 44.46 33.0961 44.5354 33.0999C44.5886 33.1028 44.6416 33.1028 44.6947 33.1007C44.7839 33.0969 44.8739 33.0867 44.9629 33.0692C45.1181 33.0386 45.2715 32.9869 45.4206 32.9124Z" fill="white"/>
<path d="M50.8899 69.3305C47.8972 69.1622 45.5936 66.6601 45.7659 63.7375C45.916 60.9201 48.306 58.712 51.1905 58.712C54.2047 58.6914 56.6376 61.0671 56.6376 64.011C56.6591 66.9545 54.2269 69.3305 51.212 69.3305H50.8899Z" fill="white"/>
<path d="M23.6325 63.9893C23.6755 63.0433 24.5153 62.3076 25.4844 62.3704C26.4529 62.4337 27.2061 63.2324 27.1419 64.179C27.0777 65.125 26.2593 65.8607 25.2908 65.7975C24.3216 65.7558 23.5896 64.9354 23.6325 63.9893Z" fill="white"/>
<path d="M52.1375 38.7581C52.8043 40.0616 52.2661 41.6594 50.9317 42.3114C49.5966 42.9632 47.9606 42.4374 47.293 41.134C46.6254 39.8302 47.1644 38.2323 48.4988 37.5803C49.8339 36.9289 51.4699 37.4543 52.1375 38.7581Z" fill="white"/>
<path d="M32.373 48.7664C33.4065 49.4184 34.7837 49.1449 35.4728 48.1357C36.1404 47.1266 35.8609 45.7806 34.8275 45.1082C33.7938 44.4561 32.4158 44.7297 31.7269 45.7389C31.4569 46.1339 31.3396 46.5835 31.3575 47.0236C31.3858 47.7083 31.744 48.3698 32.373 48.7664Z" fill="white"/>
<path d="M32.8033 63.926C32.8897 62.4538 34.1599 61.3395 35.6673 61.4239C37.1738 61.5078 38.3154 62.7695 38.2287 64.2202C38.1431 65.6918 36.8721 66.8062 35.3656 66.7223C34.4212 66.6698 33.6207 66.1631 33.1761 65.4301C32.9104 64.9934 32.7716 64.4758 32.8033 63.926Z" fill="white"/>
<path d="M32.6754 79.2335C31.5775 79.7803 31.126 81.0837 31.6856 82.1771C32.2451 83.2495 33.5804 83.691 34.6995 83.1445C34.8222 83.0833 34.937 83.0126 35.0432 82.934L35.116 82.8769L35.1641 82.8379L35.2027 82.8033L35.2755 82.7353C35.3663 82.6461 35.4494 82.55 35.5223 82.4484C35.9799 81.811 36.0768 80.9559 35.6903 80.2005C35.1298 79.1283 33.774 78.687 32.6754 79.2335Z" fill="white"/>
<path d="M47.6385 55.0323C46.6907 56.4832 44.7102 56.8823 43.225 55.9363C41.739 54.9903 41.3302 53.0557 42.2985 51.6261C43.2465 50.1751 45.227 49.776 46.7121 50.722C48.1981 51.6473 48.6069 53.5815 47.6385 55.0323Z" fill="white"/>
<path d="M76.7032 42.1019C77.9518 42.9011 79.6521 42.5643 80.4705 41.3448C81.2889 40.1254 80.9443 38.4642 79.6958 37.6655C78.4471 36.8664 76.7459 37.2025 75.9275 38.4224C75.0886 39.6631 75.433 41.3026 76.7032 42.1019Z" fill="white"/>
<path d="M77.1119 58.6695C74.1193 58.5015 71.5354 60.7513 71.3854 63.6739C71.2133 66.5966 73.5169 69.1196 76.5093 69.2669H76.8102C79.8029 69.2669 82.2358 66.8908 82.2358 63.9472C82.2571 61.1505 79.9964 58.8168 77.1119 58.6695Z" fill="white"/>
<path d="M57.5846 58.4805C55.5175 58.4805 53.6442 57.3451 52.7186 55.5576C51.362 52.9503 52.4384 49.7545 55.1301 48.4089C57.7996 47.0844 61.0717 48.1356 62.4283 50.7639C62.5756 51.0518 62.6947 51.3492 62.7865 51.652C62.8448 51.846 62.8919 52.0419 62.9269 52.2398C62.9819 52.5447 63.0092 52.8529 63.0092 53.161C63.0092 56.1045 60.5772 58.4805 57.5846 58.4805Z" fill="white"/>
<path d="M95.3253 48.7663C96.4232 48.2198 96.8542 46.8953 96.2946 45.8227C95.7341 44.7506 94.3783 44.3298 93.2797 44.8767C92.182 45.4231 91.7518 46.727 92.2899 47.7992C92.8709 48.8718 94.2062 49.3131 95.3253 48.7663Z" fill="white"/>
<path d="M80.1258 54.6329C79.3289 53.0977 79.975 51.2263 81.5468 50.4483C83.1185 49.6917 85.0347 50.3014 85.8309 51.8362C86.6278 53.3712 85.9817 55.2426 84.4099 56.0206C82.8382 56.7983 80.922 56.1675 80.1258 54.6329Z" fill="white"/>
<path d="M67.1221 42.732C67.0354 44.456 65.529 45.7805 63.7636 45.6756C61.9981 45.5915 60.663 44.1197 60.7495 42.3952C60.8353 40.6712 62.3426 39.3467 64.108 39.4516C65.8734 39.5357 67.2292 41.0079 67.1221 42.732Z" fill="white"/>
<path d="M46.4542 77.5512C48.0258 76.7732 48.6719 74.9018 47.875 73.3672C47.0788 71.832 45.1625 71.2012 43.5909 71.9793C42.0193 72.7569 41.373 74.6283 42.1701 76.1633C42.9661 77.6985 44.8823 78.3289 46.4542 77.5512Z" fill="white"/>
<path d="M67.4015 57.5766C64.8827 55.9784 64.1938 52.6984 65.8297 50.2385C66.8419 48.7456 68.5429 47.8413 70.3727 47.8413C71.4276 47.8413 72.4611 48.1359 73.3439 48.7034C75.8625 50.3013 76.5515 53.5816 74.9155 56.0416C73.2795 58.5015 69.9209 59.1746 67.4015 57.5766Z" fill="white"/>
<path d="M75.2815 72.4421C73.9248 69.8138 70.653 68.7626 67.9835 70.0871C65.2915 71.4116 64.2152 74.6079 65.5718 77.2152C66.9284 79.8431 70.2004 80.8947 72.8699 79.5702C75.5402 78.2663 76.6381 75.1126 75.3029 72.4843L75.3011 72.4656L75.296 72.4569L75.2815 72.4421Z" fill="white"/>
<path d="M80.3615 72.9679C81.3093 71.5169 83.2898 71.1178 84.775 72.0638C86.2609 73.0098 86.6697 74.9444 85.7015 76.374C84.7535 77.825 82.773 78.2241 81.2878 77.2781C79.8019 76.3528 79.3931 74.4186 80.3615 72.9679Z" fill="white"/>
<path d="M95.196 64.0942C95.2827 62.6224 94.1411 61.382 92.6344 61.2979C91.127 61.2137 89.857 62.328 89.7704 63.8C89.6847 65.2718 90.8255 66.5125 92.3328 66.5963C93.8179 66.6804 95.1104 65.5454 95.196 64.0942Z" fill="white"/>
<path d="M100.858 63.8216C100.901 62.8756 101.741 62.1397 102.71 62.2025C103.678 62.2657 104.41 63.0646 104.367 64.011C104.303 64.957 103.485 65.6929 102.516 65.6299C101.547 65.5878 100.815 64.7676 100.858 63.8216Z" fill="white"/>
<path d="M95.6271 79.2332C94.5937 78.5811 93.2156 78.8547 92.5266 79.8639C91.859 80.8733 92.1392 82.2189 93.1727 82.8914C94.2053 83.5434 95.5834 83.2699 96.2724 82.261C96.9615 81.2518 96.6598 79.885 95.6271 79.2332Z" fill="white"/>
<path d="M43.2884 95.739C43.8274 94.961 44.9038 94.7298 45.7214 95.2556C46.5398 95.7812 46.7763 96.8534 46.2167 97.6315C45.6785 98.4091 44.6021 98.6409 43.7837 98.1151C42.9875 97.5893 42.7503 96.5381 43.2884 95.739Z" fill="white"/>
<path d="M82.5803 95.0869C81.7189 95.5072 81.3745 96.5586 81.8048 97.3996C82.0027 97.7864 82.3369 98.0664 82.7242 98.2153L82.8125 98.2468C82.8682 98.2649 82.9257 98.2806 82.983 98.2934C83.2555 98.3543 83.5436 98.3539 83.8213 98.2848C83.9412 98.255 84.0594 98.2125 84.1734 98.1566C85.0347 97.736 85.3792 96.7059 84.9481 95.8646C84.518 95.0025 83.4631 94.6451 82.5803 95.0869Z" fill="white"/>
<path d="M60.5977 70.4024C63.1164 72.0213 63.8054 75.3013 62.1694 77.7616C61.1574 79.2752 59.4572 80.1794 57.6051 80.1584C57.0454 80.1584 56.4919 80.0757 55.9631 79.913C55.4953 79.7691 55.0478 79.5627 54.6339 79.2962C52.1153 77.6773 51.4048 74.3974 53.0623 71.9374C54.7206 69.4771 58.0791 68.8044 60.5977 70.4024Z" fill="white"/>
<path d="M51.2977 85.8988C50.0492 85.0997 48.348 85.436 47.5305 86.656C46.7121 87.8753 47.0565 89.5362 48.3052 90.3353C48.6 90.5235 48.9196 90.6488 49.2461 90.7146C49.7424 90.814 50.2565 90.7754 50.727 90.6112C51.2618 90.4243 51.7408 90.0744 52.0734 89.5783C52.9122 88.359 52.5678 86.6977 51.2977 85.8988Z" fill="white"/>
<path d="M61.6099 98.1151C61.6964 96.9162 62.7513 95.9913 63.9785 96.0543C65.2057 96.1386 66.1527 97.1687 66.0885 98.3884C66.0328 99.1649 65.57 99.8177 64.9178 100.164C64.6744 100.293 64.4044 100.38 64.1191 100.414C63.9887 100.43 63.8552 100.435 63.7197 100.428C62.4925 100.344 61.5241 99.3134 61.6099 98.1151Z" fill="white"/>
<path d="M64.0008 82.3242C62.2354 82.2192 60.7281 83.5437 60.6422 85.2678C60.5343 86.9923 61.8909 88.4641 63.6564 88.5482C65.4218 88.632 66.9292 87.3286 67.0149 85.6045C67.1228 83.9012 65.7662 82.4083 64.0008 82.3242Z" fill="white"/>
<path d="M75.8856 89.2634C75.1965 87.9595 75.7347 86.3615 77.0691 85.689C78.4257 85.0159 80.0617 85.5628 80.7507 86.8662C81.4183 88.17 80.8801 89.7679 79.545 90.4195C78.2106 91.0924 76.5738 90.5668 75.8856 89.2634Z" fill="white"/>
<defs>
<linearGradient id="paint0_linear_101_358" x1="25.6" y1="5.8673e-06" x2="187.077" y2="270.769" gradientUnits="userSpaceOnUse">
<stop stop-color="#0033AD"/>
<stop offset="0.454252" stop-color="#496EC5"/>
<stop offset="1" stop-color="white"/>
</linearGradient>
</defs>
</svg>
