<svg width="128" height="128" viewBox="0 0 128 128" fill="none" xmlns="http://www.w3.org/2000/svg">
<path d="M64 128C99.3462 128 128 99.3462 128 64C128 28.6538 99.3462 0 64 0C28.6538 0 0 28.6538 0 64C0 99.3462 28.6538 128 64 128Z" fill="url(#paint0_linear_101_257)"/>
<path d="M65.3016 33.4771C52.0977 33.5298 41.4067 44.1869 41.3538 57.3489C41.3538 59.9849 41.7805 62.6032 42.6166 65.1031C43.2405 66.8049 45.0916 67.7214 46.8292 67.1952C48.5088 66.5532 49.4002 64.7228 48.8648 63.011C48.1553 61.0624 47.8394 58.9953 47.933 56.9259C48.2209 47.4194 56.184 39.9448 65.7208 40.2317C75.2574 40.5188 82.7559 48.4568 82.4679 57.9633C82.1978 66.8628 75.1664 74.0909 66.2486 74.6322C66.2486 74.6322 62.8871 74.836 61.215 75.04C60.5989 75.1281 59.9876 75.249 59.384 75.4026C59.2982 75.4906 59.1591 75.4906 59.0709 75.4051L59.0684 75.4026C59.0077 75.3246 59.0077 75.2137 59.0684 75.1357L59.5886 72.3059L62.7455 58.1519C63.1244 56.3847 61.9954 54.6449 60.2225 54.2674C58.4496 53.8897 56.7043 55.0151 56.3254 56.7825C56.3254 56.7825 48.8169 91.427 48.8169 91.7417C48.3875 93.4259 49.4079 95.138 51.0975 95.5659C51.1152 95.571 51.1353 95.5759 51.153 95.5785H51.3273C53.0144 96.0141 54.7369 95.0019 55.1713 93.3202C55.1789 93.2926 55.1864 93.2649 55.1915 93.2347C55.1864 93.1818 55.1864 93.129 55.1915 93.0786C55.2849 92.6707 56.2321 88.061 56.2321 88.061C56.9493 84.5817 59.7629 81.9156 63.2835 81.3768C64.0084 81.2659 67.0542 81.0621 67.0542 81.0621C80.2077 79.7555 89.8075 68.0662 88.494 54.9547C87.2969 42.9961 77.3588 33.7892 65.3016 33.4771Z" fill="white"/>
<path d="M66.7535 88.5199C64.594 88.0717 62.4826 89.4539 62.0331 91.6041C62.0279 91.6242 62.0256 91.6443 62.0205 91.6644C61.5532 93.802 62.9119 95.9142 65.0588 96.3801L65.0665 96.3825H65.1775C67.2789 96.8886 69.3927 95.5995 69.898 93.5074C69.9029 93.4922 69.9055 93.4747 69.9106 93.4595V93.2406C70.2818 91.0803 68.8978 89.0083 66.7535 88.5199Z" fill="white"/>
<defs>
<linearGradient id="paint0_linear_101_257" x1="-10.8308" y1="4.93315e-07" x2="116.185" y2="233.354" gradientUnits="userSpaceOnUse">
<stop stop-color="#E6007A"/>
<stop offset="0.801772" stop-color="#ED6DB1"/>
</linearGradient>
</defs>
</svg>
