<svg width="130" height="128" viewBox="0 0 130 128" fill="none" xmlns="http://www.w3.org/2000/svg">
<path d="M65 128C100.899 128 130 99.3462 130 64C130 28.6538 100.899 0 65 0C29.1015 0 0 28.6538 0 64C0 99.3462 29.1015 128 65 128Z" fill="url(#paint0_linear_101_459)"/>
<path d="M58.1388 55.6175C58.0092 56.1098 57.7826 56.5722 57.4724 56.9782C56.895 57.7188 56.1308 58.2964 55.2564 58.6531C54.4698 58.988 53.637 59.2046 52.7856 59.2954C52.61 59.3173 52.4284 59.3311 52.2522 59.3443L52.2244 59.3462C51.685 59.3665 51.1666 59.5569 50.7446 59.8893C50.3228 60.2219 50.0196 60.6792 49.8798 61.1945C49.8156 61.4507 49.768 61.7107 49.737 61.973C49.688 62.3684 49.6628 62.7731 49.6356 63.2108C49.616 63.5253 49.5954 63.8567 49.5642 64.214C49.381 65.6684 48.9552 67.0829 48.3042 68.4C48.171 68.6768 48.0354 68.9454 47.9022 69.2091C47.1882 70.6216 46.5434 71.8979 46.7286 73.6074C46.8734 74.9242 47.556 75.8066 48.463 76.7168C48.8938 77.1524 49.465 77.5244 50.058 77.9106C51.7174 78.9913 53.5472 80.183 52.9444 83.1855C52.4512 85.6181 48.3696 88.171 42.633 89.0627C43.1892 88.9794 41.9646 86.9143 41.8276 86.6833L41.8194 86.6693C41.6612 86.4245 41.4992 86.1833 41.3374 85.9426C40.8704 85.2475 40.4056 84.5555 40.0428 83.7885C39.0842 81.7854 38.6402 79.4684 39.0328 77.2737C39.3886 75.2871 40.7174 73.7003 41.997 72.1726C42.2054 71.9235 42.4128 71.676 42.6142 71.4286C44.3254 69.3286 46.1208 66.5772 46.518 63.8512C46.5516 63.6143 46.5816 63.3562 46.613 63.0844C46.6694 62.5982 46.7306 62.0685 46.8266 61.5409C46.9694 60.6298 47.2582 59.747 47.6822 58.9258C47.9718 58.3872 48.3528 57.9018 48.809 57.491C49.0468 57.273 49.2036 56.9824 49.2546 56.6657C49.3054 56.3491 49.2474 56.0247 49.0896 55.7445L39.9446 39.4897L53.08 55.509C53.2296 55.6945 53.4186 55.8453 53.6338 55.9507C53.849 56.056 54.085 56.1131 54.325 56.1183C54.565 56.1234 54.8034 56.0761 55.0228 55.98C55.2424 55.8839 55.4378 55.7413 55.5952 55.5621C55.7618 55.3703 55.8562 55.1277 55.8624 54.8751C55.8688 54.6226 55.787 54.3757 55.6304 54.1758C55.0186 53.4033 54.3818 52.6199 53.7478 51.8401C53.493 51.5268 53.2386 51.2137 52.9864 50.9024L49.681 46.8595L43.0466 38.7875L34 27.5693L43.8976 38.0644L50.9596 45.7806L54.4826 49.648C54.807 50.0089 55.1314 50.3665 55.4556 50.7243C56.3 51.6556 57.1448 52.5872 57.9892 53.5752L58.1808 53.8064L58.223 54.1644C58.28 54.65 58.2514 55.1415 58.1388 55.6175Z" fill="white"/>
<path d="M91.8994 61.0532L91.9134 61.0738C91.911 59.3504 90.8312 56.5064 88.6454 53.7712L88.594 53.7042C87.9208 52.8818 87.187 52.1097 86.3988 51.3941C86.2516 51.2531 86.0926 51.1145 85.9314 50.9758C84.9216 50.1054 83.8178 49.3477 82.6398 48.7163L82.5558 48.6748C78.8552 46.6833 74.0396 45.6575 68.1018 46.8127C67.3042 45.856 66.4454 44.9508 65.5304 44.103C64.129 42.7832 62.4794 41.7478 60.675 41.0556C58.8868 40.4087 56.9718 40.1779 55.0786 40.3812C56.9034 40.5434 58.6808 41.045 60.3172 41.8597C61.8978 42.6964 63.321 43.795 64.5252 45.1079C65.7456 46.4478 66.8926 47.8514 67.9616 49.3124L68.231 49.6588C69.2764 51.0046 70.3408 52.3744 71.6668 53.5933C72.397 54.2723 73.2116 54.8568 74.091 55.333C74.3248 55.4507 74.5608 55.5616 74.7922 55.6587C75.0236 55.7557 75.2412 55.8457 75.4748 55.929C75.926 56.1021 76.3936 56.2455 76.861 56.3772C78.7312 56.9038 80.6458 57.0932 82.516 57.1949C82.7772 57.2084 83.0376 57.2212 83.2972 57.2338C83.9642 57.2663 84.6256 57.2986 85.2768 57.3451C86.1702 57.3975 87.0564 57.5353 87.923 57.7563C89.225 58.0916 90.371 58.8583 91.1702 59.9279C91.4416 60.2842 91.6856 60.6603 91.8994 61.0532Z" fill="white"/>
<path d="M86.4046 51.3878C86.3114 51.3025 86.2164 51.2182 86.1218 51.1342L86.1198 51.1326C86.0586 51.0782 85.9974 51.0239 85.937 50.9697C85.9828 51.0107 86.0286 51.0524 86.0742 51.0942L86.0758 51.0958C86.1858 51.196 86.2962 51.297 86.4046 51.3878Z" fill="white"/>
<path d="M84.1225 68.4133C78.1085 66.0016 71.8177 63.479 72.7543 56.3984C74.7623 58.5171 77.9141 58.9614 81.3423 59.4446C84.4519 59.8832 87.7889 60.3534 90.7055 62.1348C97.5877 66.3348 96.5823 74.4945 94.2447 77.4978C94.4555 72.5568 89.3955 70.5277 84.1225 68.4133Z" fill="white"/>
<path d="M59.8532 64.8639C61.4406 64.7138 64.8232 63.8982 63.3106 61.2669C62.9852 60.7317 62.5136 60.2978 61.95 60.0155C61.3864 59.7331 60.7538 59.6135 60.1244 59.6706C59.4858 59.7384 58.8838 59.9985 58.3998 60.4158C57.9162 60.8333 57.5738 61.3876 57.4198 62.004C56.9498 63.7251 57.4478 65.0949 59.8532 64.8639Z" fill="white"/>
<path d="M59.4354 44.0412C58.4396 42.9046 56.8944 42.3085 55.3796 42.0913C55.323 42.4643 55.287 42.8398 55.2722 43.2165C55.2042 46.319 56.3194 49.7268 58.477 52.0948C59.1672 52.8602 59.9998 53.4876 60.9292 53.9429C61.467 54.2017 62.893 54.844 63.4212 54.2663C63.4614 54.2133 63.4868 54.1509 63.4946 54.0851C63.5024 54.0193 63.4924 53.9528 63.4656 53.8919C63.378 53.6448 63.209 53.4203 63.0412 53.1976C62.9222 53.0396 62.8034 52.8823 62.7152 52.7185C62.626 52.5532 62.5304 52.3922 62.435 52.2311C62.2556 51.9286 62.0764 51.6263 61.9392 51.2977C61.577 50.4373 61.3882 49.5224 61.2002 48.6104C61.1626 48.4281 61.1248 48.245 61.0858 48.0634C60.7984 46.6564 60.4314 45.1779 59.4354 44.0412Z" fill="white"/>
<path d="M80.7158 68.7979C79.171 73.0583 81.6626 76.6569 84.1394 80.234C86.91 84.2354 89.6622 88.2103 86.726 93.0554C92.4322 90.7266 95.1416 83.6919 92.7736 78.1103C91.2812 74.5801 87.6848 72.6662 84.3466 70.8898C83.0516 70.2007 81.7952 69.5322 80.7158 68.7979Z" fill="white"/>
<path d="M63.9847 78.969C62.9507 79.3859 61.9755 79.9333 61.0837 80.5978C63.1115 79.8709 65.2401 79.4556 67.3953 79.3664C67.7867 79.3434 68.1805 79.3254 68.5777 79.3075C69.2623 79.2762 69.9583 79.2447 70.6681 79.1862C71.8329 79.108 72.9817 78.8749 74.0835 78.493C75.2379 78.0939 76.2887 77.447 77.1599 76.5986C78.0401 75.7231 78.6575 74.6235 78.9435 73.4221C79.1951 72.287 79.1599 71.1084 78.8405 69.9901C78.5213 68.872 77.9279 67.8487 77.1131 67.0112C77.5063 67.9966 77.7483 69.0346 77.8309 70.0907C77.9019 71.074 77.7667 72.0611 77.4335 72.99C77.1081 73.8707 76.5761 74.6623 75.8811 75.3003C75.1633 75.9445 74.3321 76.4535 73.4289 76.8021C72.1735 77.3017 70.7539 77.5063 69.2751 77.7193C68.6005 77.8164 67.9139 77.9153 67.2247 78.0448C66.1163 78.2455 65.0309 78.5551 63.9847 78.969Z" fill="white"/>
<path fill-rule="evenodd" clip-rule="evenodd" d="M82.0201 96.4653C81.9513 96.5195 81.8825 96.574 81.8135 96.629C81.5515 96.8373 81.2853 97.0492 80.9985 97.2394C80.6339 97.4769 80.2519 97.6869 79.8553 97.8678C79.0301 98.2656 78.1227 98.4688 77.2043 98.4616C74.7171 98.4153 72.9591 96.5857 71.9307 94.518C71.6609 93.9758 71.4233 93.4172 71.1857 92.8585C70.8057 91.9643 70.4253 91.07 69.9133 90.244C68.7233 88.3241 66.6873 86.7787 64.3027 87.0652C63.3303 87.1851 62.4185 87.6172 61.8785 88.4514C60.4573 90.6297 62.4981 93.6816 65.0999 93.2496C65.3213 93.2163 65.5379 93.1574 65.7451 93.0741C65.9517 92.9871 66.1447 92.8711 66.3179 92.7297C66.6813 92.4308 66.9553 92.0393 67.1103 91.5978C67.2813 91.1374 67.3193 90.6392 67.2203 90.1585C67.1133 89.6563 66.8135 89.2148 66.3833 88.9271C66.8833 89.1585 67.2729 89.5726 67.4703 90.0823C67.6749 90.6067 67.7275 91.1772 67.6223 91.7295C67.5201 92.3049 67.2633 92.8427 66.8789 93.2866C66.6747 93.5148 66.4385 93.7133 66.1775 93.8756C65.9189 94.0363 65.6421 94.1657 65.3525 94.2616C64.7651 94.4599 64.1401 94.5239 63.5243 94.4487C62.6597 94.327 61.8441 93.9774 61.1633 93.4369C61.0675 93.3618 60.9745 93.2842 60.8841 93.2045C60.3741 92.7811 59.9143 92.3018 59.5133 91.7752C59.3575 91.6063 59.1989 91.4397 59.0337 91.279C58.2001 90.4147 57.2169 89.7052 56.1303 89.1837C55.3809 88.8584 54.5967 88.6182 53.7925 88.4675C53.3881 88.3844 52.9791 88.3241 52.5699 88.2733C52.5257 88.269 52.4403 88.2544 52.3343 88.2361C51.9927 88.1774 51.4359 88.0819 51.3379 88.1717C52.6023 87.0213 53.9809 85.9997 55.4523 85.1222C56.9631 84.2362 58.5855 83.5503 60.2773 83.0823C62.0315 82.5943 63.8661 82.4552 65.6749 82.6734C66.6061 82.7839 67.5181 83.0171 68.3867 83.3664C69.2967 83.7256 70.1369 84.2386 70.8693 84.8819C71.5943 85.5568 72.1801 86.3642 72.5945 87.2592C72.9687 88.0971 73.2477 88.9734 73.4267 89.872C73.5227 90.3556 73.5949 90.8871 73.6697 91.4371C74.0107 93.9432 74.4041 96.8348 77.3237 97.3387C77.5093 97.3743 77.6965 97.4005 77.8847 97.4173L78.4667 97.4311C78.8669 97.4031 79.2645 97.3466 79.6567 97.2625C80.4689 97.0736 81.2605 96.8068 82.0201 96.4653ZM59.5651 91.8315C59.7317 92.0247 59.9033 92.2138 60.0797 92.3983C59.9939 92.3049 59.9089 92.2108 59.8239 92.1167C59.7379 92.0216 59.6519 91.9261 59.5651 91.8315Z" fill="white"/>
<defs>
<linearGradient id="paint0_linear_101_459" x1="-21" y1="11.8154" x2="135.001" y2="210.113" gradientUnits="userSpaceOnUse">
<stop stop-color="#FF007A"/>
<stop offset="0.951042" stop-color="#F967AC"/>
<stop offset="1" stop-color="#F59BC6"/>
</linearGradient>
</defs>
</svg>
