<svg width="128" height="128" viewBox="0 0 128 128" fill="none" xmlns="http://www.w3.org/2000/svg">
<path d="M64 128C99.3462 128 128 99.3462 128 64C128 28.6538 99.3462 0 64 0C28.6538 0 0 28.6538 0 64C0 99.3462 28.6538 128 64 128Z" fill="url(#paint0_linear_101_333)"/>
<path d="M43.3823 88.6155L51.6705 74.3134L59.9587 60.0617L68.1964 45.7596L69.5609 43.4934L70.1674 45.7596L72.6942 55.1768L69.8641 60.0617L61.5759 74.3134L53.3383 88.6155H63.2437L71.5319 74.3134L75.8276 66.9105L77.8491 74.3134L81.69 88.6155H90.5846L86.7438 74.3134L82.9029 60.0617L81.8921 56.3854L88.0577 45.7596H79.062L78.7588 44.702L75.6254 33.0186L75.2211 31.5078H66.5792L66.377 31.81L58.291 45.7596L50.0028 60.0617L41.7651 74.3134L33.4769 88.6155H43.3823Z" fill="url(#paint1_linear_101_333)"/>
<defs>
<linearGradient id="paint0_linear_101_333" x1="45.7143" y1="-6.96762e-07" x2="106.338" y2="167.385" gradientUnits="userSpaceOnUse">
<stop stop-color="#161616"/>
<stop offset="1" stop-color="#4C5966"/>
</linearGradient>
<linearGradient id="paint1_linear_101_333" x1="65.9692" y1="64.9847" x2="142.769" y2="236.308" gradientUnits="userSpaceOnUse">
<stop stop-color="white"/>
<stop offset="1" stop-color="white" stop-opacity="0"/>
</linearGradient>
</defs>
</svg>
