<svg width="128" height="128" viewBox="0 0 128 128" fill="none" xmlns="http://www.w3.org/2000/svg">
<path d="M64 128C99.3462 128 128 99.3462 128 64C128 28.6538 99.3462 0 64 0C28.6538 0 0 28.6538 0 64C0 99.3462 28.6538 128 64 128Z" fill="url(#paint0_linear_101_315)"/>
<path d="M49.8497 58.1863L64 44.036L78.157 58.1925L86.3903 49.9591L64 27.5693L41.6169 49.9524L49.85 58.1858L49.8497 58.1863ZM27.5692 64.0001L35.8029 55.7653L44.0359 63.9984L35.8023 72.232L27.5692 64.0001ZM49.8497 69.8147L64 83.9642L78.1567 69.808L86.3944 78.037L86.3903 78.0414L64 100.431L41.6169 78.0478L41.6053 78.0361L49.8506 69.8139L49.8497 69.8147ZM83.964 64.0036L92.1977 55.77L100.431 64.003L92.1974 72.2367L83.964 64.0036Z" fill="white"/>
<path d="M71.8442 63.9962H71.8475L63.9998 56.1479L58.1992 61.9469L57.5328 62.6136L56.1584 63.9883L56.1475 63.9989L56.1584 64.0102L63.9998 71.8527L71.848 64.0044L71.8518 64L71.8447 63.9962" fill="white"/>
<defs>
<linearGradient id="paint0_linear_101_315" x1="25.6" y1="-6.15803e-07" x2="91.4286" y2="128" gradientUnits="userSpaceOnUse">
<stop stop-color="#F2AA0D"/>
<stop offset="1" stop-color="#FBCD37"/>
</linearGradient>
</defs>
</svg>
