<svg width="130" height="128" viewBox="0 0 130 128" fill="none" xmlns="http://www.w3.org/2000/svg">
<g clip-path="url(#clip0_101_308)">
<path d="M128.055 79.4838C128.056 79.4838 128.056 79.4842 128.056 79.4848C119.373 113.77 84.099 134.633 49.2696 126.085C14.4562 117.538 -6.73826 82.8098 1.94631 48.5259C10.6248 14.2361 45.8974 -6.63179 80.7168 1.91616C115.544 10.464 136.737 45.1953 128.055 79.4828C128.055 79.4832 128.055 79.4838 128.055 79.4838Z" fill="url(#paint0_linear_101_308)"/>
<path fill-rule="evenodd" clip-rule="evenodd" d="M80.4324 47.5659C78.0607 41.6386 72.1205 41.1042 65.2028 42.4277L62.7404 33.9718L57.5113 35.4492L59.9091 43.6822C58.5361 44.0696 57.1389 44.4931 55.7512 44.9147L53.3387 36.6269L48.1137 38.1022L50.5733 46.5562C49.4481 46.8985 48.3426 47.233 47.2591 47.5397L47.2507 47.5138L40.0395 49.5473L41.6416 55.0441C41.6416 55.0441 45.4811 53.8815 45.4373 53.9696C47.5551 53.3723 48.5979 54.3873 49.1012 55.3759L51.9067 65.0087C52.0532 64.9681 52.2455 64.9202 52.4697 64.8885L51.9191 65.0443L55.8461 78.5403C55.9441 79.2226 55.857 80.3794 54.3784 80.7996C54.4622 80.8391 50.5778 81.8717 50.5778 81.8717L51.3298 88.313L58.1343 86.3911C58.903 86.1749 59.6663 85.9682 60.4213 85.7639C60.9101 85.6314 61.3955 85.5 61.8765 85.3677L64.3698 93.9204L69.5924 92.4465L67.1294 83.9842C68.5705 83.6094 69.9615 83.2286 71.3157 82.8449L73.7661 91.2682L78.9939 89.7916L76.5095 81.2541C85.1541 78.2761 90.6722 74.3583 89.0679 66.0194C87.7794 59.3022 83.8042 57.2647 78.4709 57.4926C81.0579 55.1146 82.1732 51.9021 80.431 47.5667L80.4324 47.5659ZM78.4424 67.9193C80.1523 73.7854 70.7531 76.2991 66.4564 77.4483C66.0717 77.5512 65.728 77.6432 65.4365 77.7255L62.1376 66.3931C62.4939 66.2928 62.9235 66.1604 63.4103 66.0107C67.7667 64.6705 76.6942 61.9238 78.4437 67.9186L78.4424 67.9193ZM61.4921 60.9763C65.082 60.025 72.9066 57.9518 71.3556 52.6213C69.7685 47.1686 62.3329 49.4799 58.7017 50.6088C58.2935 50.7357 57.9332 50.8477 57.6348 50.932L60.6278 61.2097C60.874 61.1402 61.1656 61.0629 61.4921 60.9763Z" fill="white"/>
</g>
<defs>
<linearGradient id="paint0_linear_101_308" x1="72.3346" y1="179.614" x2="-11.1003" y2="-75.8071" gradientUnits="userSpaceOnUse">
<stop stop-color="#89FA87"/>
<stop offset="1" stop-color="#21B942"/>
</linearGradient>
<clipPath id="clip0_101_308">
<rect width="130" height="128" fill="white"/>
</clipPath>
</defs>
</svg>
