<svg width="128" height="128" viewBox="0 0 128 128" fill="none" xmlns="http://www.w3.org/2000/svg">
<path d="M64 128C99.3462 128 128 99.3462 128 64C128 28.6538 99.3462 0 64 0C28.6538 0 0 28.6538 0 64C0 99.3462 28.6538 128 64 128Z" fill="url(#paint0_linear_101_394)"/>
<path d="M78.7031 65.3412C80.2438 62.7254 82.73 62.7254 84.2708 65.3412L93.8655 81.8965C95.4062 84.5123 94.1456 86.6463 91.0641 86.6463H71.7346C68.6882 86.6463 67.4275 84.5123 68.9333 81.8965L78.7031 65.3412ZM60.144 33.4697C61.6847 30.8539 64.1359 30.8539 65.6767 33.4697L67.8127 37.2557L72.8552 45.9636C74.0808 48.4417 74.0808 51.3673 72.8552 53.8454L55.9419 82.6537C54.4012 84.9942 51.8449 86.4742 49.0085 86.6463H34.9666C31.8851 86.6463 30.6245 84.5467 32.1653 81.8965L60.144 33.4697Z" fill="white"/>
<defs>
<linearGradient id="paint0_linear_101_394" x1="-20.6769" y1="11.8154" x2="135.877" y2="207.754" gradientUnits="userSpaceOnUse">
<stop stop-color="#FF007A"/>
<stop offset="0.951042" stop-color="#F967AC"/>
<stop offset="1" stop-color="#F59BC6"/>
</linearGradient>
</defs>
</svg>
