<svg width="127" height="128" viewBox="0 0 127 128" fill="none" xmlns="http://www.w3.org/2000/svg">
<path d="M63.5 128C98.5701 128 127 99.3462 127 64C127 28.6538 98.5701 0 63.5 0C28.4299 0 0 28.6538 0 64C0 99.3462 28.4299 128 63.5 128Z" fill="url(#paint0_linear_101_273)"/>
<path d="M62.5193 28.6147L55.9814 32.3689L38.1654 42.652L31.6274 46.4062V81.9892L38.1654 85.7433L56.1447 96.0266L62.6827 99.7808L69.2206 96.0266L86.8732 85.7433L93.4112 81.9892V46.4062L86.8732 42.652L69.0573 32.3689L62.5193 28.6147ZM44.7034 74.4809V53.9146L62.5193 43.6313L80.3353 53.9146V74.4809L62.5193 84.764L44.7034 74.4809Z" fill="white"/>
<defs>
<linearGradient id="paint0_linear_101_273" x1="11.7231" y1="3.80422e-06" x2="97.0784" y2="127.383" gradientUnits="userSpaceOnUse">
<stop offset="0.0001" stop-color="#2A5ADA"/>
<stop offset="1" stop-color="#5078E2"/>
</linearGradient>
</defs>
</svg>
