<svg width="128" height="128" viewBox="0 0 128 128" fill="none" xmlns="http://www.w3.org/2000/svg">
<path d="M64 128C99.3462 128 128 99.3462 128 64C128 28.6538 99.3462 0 64 0C28.6538 0 0 28.6538 0 64C0 99.3462 28.6538 128 64 128Z" fill="url(#paint0_linear_101_301)"/>
<path d="M63.9276 25.6001L98.4617 45.2476V84.6645L63.9675 104.369L63.6881 104.301L29.5386 84.6645V45.2476L63.6881 25.6001H63.9276ZM63.8151 29.678L33.1661 47.308V82.604L63.8115 100.231L67.5551 98.0913L94.8341 82.5933V47.3152L67.5551 31.7276L63.8151 29.678ZM37.9145 67.6973L46.987 60.9964L55.0075 66.0561V75.1578L61.0763 80.9342L61.0727 83.6432L55.2251 89.0541H50.288L37.9182 67.6973H37.9145ZM66.5829 83.6504L66.572 80.927L72.6191 75.1578V66.0561L80.5525 60.9319L89.6069 67.7009L77.2986 88.9932H72.4232L66.5829 83.6504ZM57.9857 66.0561L55.0329 58.42H72.5828L69.6881 66.0561L70.5442 74.5917L63.7716 74.606L57.0788 74.6168L57.9857 66.0561ZM63.7716 56.3273L47.0922 56.3202L50.1937 42.6318H77.2696L80.5344 56.3381L63.7716 56.3273Z" fill="white"/>
<defs>
<linearGradient id="paint0_linear_101_301" x1="-8.86154" y1="6.30441e-07" x2="136.862" y2="124.062" gradientUnits="userSpaceOnUse">
<stop stop-color="#103F68"/>
<stop offset="1" stop-color="#44729B"/>
</linearGradient>
</defs>
</svg>
