<svg width="128" height="128" viewBox="0 0 128 128" fill="none" xmlns="http://www.w3.org/2000/svg">
<g clip-path="url(#clip0_101_401)">
<path d="M126.085 79.4832C126.086 79.4832 126.086 79.4838 126.086 79.4842C117.537 113.769 82.8052 134.633 48.5116 126.085C14.2338 117.537 -6.6346 82.8092 1.91636 48.5253C10.4613 14.2356 45.1913 -6.63228 79.475 1.91567C113.767 10.4635 134.633 45.1948 126.085 79.4822C126.085 79.4828 126.085 79.4832 126.085 79.4832Z" fill="url(#paint0_linear_101_401)"/>
<path d="M61.9524 78.5498L65.3226 66.0277L73.3011 63.1512L75.2857 55.792L75.218 55.6095L67.3641 58.4408L73.0229 37.4146H56.9746L49.5742 64.8542L43.3956 67.0816L41.3539 74.6687L47.5278 72.443L43.1664 88.6146H85.8772L88.6154 78.5498H61.9524Z" fill="white"/>
</g>
<defs>
<linearGradient id="paint0_linear_101_401" x1="71.2218" y1="179.613" x2="-13.2602" y2="-75.0344" gradientUnits="userSpaceOnUse">
<stop stop-color="#4EB1FC"/>
<stop offset="1" stop-color="#476CFB"/>
</linearGradient>
<clipPath id="clip0_101_401">
<rect width="128" height="128" fill="white"/>
</clipPath>
</defs>
</svg>
