<svg width="128" height="128" viewBox="0 0 128 128" fill="none" xmlns="http://www.w3.org/2000/svg">
<g clip-path="url(#clip0_101_415)">
<path d="M126.085 79.4838C126.086 79.4838 126.086 79.4842 126.086 79.4848C117.537 113.77 82.8052 134.633 48.5116 126.085C14.2338 117.538 -6.6346 82.8098 1.91636 48.5259C10.4613 14.2361 45.1913 -6.63179 79.475 1.91616C113.767 10.464 134.633 45.1953 126.085 79.4828C126.085 79.4832 126.085 79.4838 126.085 79.4838Z" fill="url(#paint0_linear_101_415)"/>
<path fill-rule="evenodd" clip-rule="evenodd" d="M90.4409 54.8903C91.5865 47.2347 85.7474 43.1191 77.7634 40.3739L80.3534 30.0032L74.0281 28.4299L71.5066 38.5273C69.8461 38.1137 68.1385 37.7236 66.4419 37.3371L68.9814 27.1731L62.6616 25.6001L60.0698 35.9671C58.694 35.6542 57.3432 35.345 56.0321 35.0196L56.0392 34.9872L47.3186 32.8134L45.6364 39.5558C45.6364 39.5558 50.3281 40.6291 50.2291 40.6956C52.7903 41.3339 53.2547 43.0257 53.1755 44.367L50.2254 56.1813C50.4021 56.2262 50.6308 56.2909 50.8827 56.3916L50.2165 56.2262L46.0794 72.7763C45.7661 73.5529 44.9717 74.718 43.1816 74.2757C43.2446 74.3673 38.5853 73.1304 38.5853 73.1304L35.4462 80.3581L43.6769 82.4061C44.6061 82.6383 45.524 82.8773 46.4318 83.114C47.0196 83.267 47.6033 83.4191 48.183 83.5676L45.5661 94.0585L51.8825 95.6316L54.4759 85.2539C56.1994 85.7215 57.8745 86.1529 59.5134 86.5592L56.9307 96.8883L63.2542 98.4616L65.8711 87.9921C76.6539 90.0294 84.7641 89.2076 88.1735 79.4734C90.9237 71.6346 88.0383 67.1127 82.3652 64.1624C86.4967 63.2075 89.6089 60.4944 90.4391 54.8903H90.4409ZM75.991 75.1168C74.1959 82.3121 62.9126 79.3349 57.7546 77.974C57.2927 77.8521 56.88 77.7433 56.5274 77.6556L59.9998 63.7579C60.4305 63.8654 60.9569 63.9831 61.5531 64.1167C66.8894 65.3124 77.8251 67.7623 75.9928 75.1168H75.991ZM62.6261 57.6719C66.9302 58.8182 76.3115 61.3172 77.9456 54.7805C79.6166 48.0935 70.494 46.0778 66.0389 45.0935C65.5381 44.9829 65.0961 44.8853 64.7351 44.7955L61.5871 57.4005C61.8848 57.4746 62.2346 57.5677 62.6261 57.6719Z" fill="white"/>
</g>
<defs>
<linearGradient id="paint0_linear_101_415" x1="71.2218" y1="179.614" x2="-13.2603" y2="-75.0339" gradientUnits="userSpaceOnUse">
<stop stop-color="#FFC300"/>
<stop offset="1" stop-color="#FF541E"/>
</linearGradient>
<clipPath id="clip0_101_415">
<rect width="128" height="128" fill="white"/>
</clipPath>
</defs>
</svg>
