<svg width="128" height="128" viewBox="0 0 128 128" fill="none" xmlns="http://www.w3.org/2000/svg">
<path d="M64 128C99.3463 128 128 99.3463 128 64C128 28.6537 99.3463 0 64 0C28.6537 0 0 28.6537 0 64C0 99.3463 28.6537 128 64 128Z" fill="url(#paint0_linear_101_265)"/>
<path d="M80.3782 53.1429C79.1653 52.4498 77.6059 52.4498 76.2197 53.1429L66.5165 58.8609L59.9321 62.4996L50.4022 68.2175C49.1893 68.9106 47.6298 68.9106 46.2437 68.2175L38.793 63.7125C37.5801 63.0194 36.7137 61.6332 36.7137 60.0738V51.4102C36.7137 50.024 37.4068 48.6378 38.793 47.7715L46.2437 43.4397C47.4566 42.7466 49.016 42.7466 50.4022 43.4397L57.8529 47.9447C59.0658 48.6378 59.9321 50.024 59.9321 51.5834V57.3014L66.5165 53.4894V47.5982C66.5165 46.212 65.8234 44.8258 64.4372 43.9595L50.5755 35.8157C49.3626 35.1226 47.8031 35.1226 46.4169 35.8157L32.2087 44.1328C30.8225 44.8258 30.1294 46.212 30.1294 47.5982V63.8857C30.1294 65.2719 30.8225 66.6581 32.2087 67.5244L46.2437 75.6682C47.4566 76.3613 49.016 76.3613 50.4022 75.6682L59.9321 70.1235L66.5165 66.3115L76.0464 60.7668C77.2593 60.0738 78.8188 60.0738 80.2049 60.7668L87.6556 65.0986C88.8685 65.7917 89.7349 67.1779 89.7349 68.7373V77.4009C89.7349 78.7871 89.0418 80.1733 87.6556 81.0396L80.3782 85.3714C79.1653 86.0645 77.6059 86.0645 76.2197 85.3714L68.769 81.0396C67.5561 80.3465 66.6897 78.9604 66.6897 77.4009V71.8562L60.1054 75.6682V81.3862C60.1054 82.7724 60.7985 84.1585 62.1847 85.0249L76.2197 93.1687C77.4326 93.8617 78.992 93.8617 80.3782 93.1687L94.4132 85.0249C95.6261 84.3318 96.4925 82.9456 96.4925 81.3862V64.9254C96.4925 63.5392 95.7994 62.153 94.4132 61.2867L80.3782 53.1429Z" fill="white"/>
<defs>
<linearGradient id="paint0_linear_101_265" x1="15.7538" y1="7.70185e-06" x2="303.262" y2="297.354" gradientUnits="userSpaceOnUse">
<stop stop-color="#824BE0"/>
<stop offset="1" stop-color="#A67CEE"/>
</linearGradient>
</defs>
</svg>
