<svg width="128" height="128" viewBox="0 0 128 128" fill="none" xmlns="http://www.w3.org/2000/svg">
<path d="M64 128C99.3463 128 128 99.3463 128 64C128 28.6537 99.3463 0 64 0C28.6537 0 0 28.6537 0 64C0 99.3463 28.6537 128 64 128Z" fill="url(#paint0_linear_101_408)"/>
<path d="M36.4461 43.7529C36.4461 43.7529 30.1511 38.909 29.718 50.8722C29.2852 60.1434 29.2968 78.1447 33.755 86.6498C35.6387 89.849 38.1544 88.8689 42.8349 85.681C46.9069 82.786 61.6385 69.7186 67.875 63.9848C74.1118 58.2508 86.7606 41.8039 89.3932 52.9789C90.4345 57.6763 91.7218 61.664 90.7388 72.0842C90.4345 75.2946 89.007 77.728 82.5013 73.3798C77.5869 70.3381 72.9182 67.0713 72.9182 67.0713C72.9182 67.0713 72.0173 65.5168 69.8876 68.04C68.2143 70.0565 67.3719 70.5521 70.0514 72.0842C72.7428 73.6163 86.3509 82.6507 91.5696 84.0589C95.8755 85.2643 98.3327 85.2416 98.4615 77.0971C98.4381 70.6311 98.0519 52.1227 95.6065 44.2373C93.7576 39.3257 91.043 37.0953 85.1808 42.6151C79.3186 48.1348 60.8311 65.3928 50.7215 73.2106C44.0166 78.0547 41.15 82.4254 38.6225 74.3484C36.8439 68.2316 34.5389 49.1939 41.817 52.8212C46.3687 54.9165 48.6386 54.9052 46.86 56.223C45.0816 57.5298 39.9681 62.047 39.9681 62.047C39.9681 62.047 38.3886 63.2751 39.1256 65.9335C39.8629 67.7923 39.8629 68.716 43.8295 65.1224C47.7962 61.5289 50.7215 58.8142 50.7215 58.8142C50.7215 58.8142 51.3532 57.8565 53.2372 59.6251C55.1209 61.3938 55.4252 61.8895 55.4252 61.8895C55.4252 61.8895 55.9283 63.2075 57.9409 60.9206C59.9652 58.6338 61.2639 57.237 57.4377 55.0966C53.6233 52.9338 36.4461 43.7529 36.4461 43.7529Z" fill="white"/>
<defs>
<linearGradient id="paint0_linear_101_408" x1="15.7538" y1="7.70185e-06" x2="303.262" y2="297.354" gradientUnits="userSpaceOnUse">
<stop stop-color="#0055D5"/>
<stop offset="0.343142" stop-color="#2C72DC"/>
<stop offset="1" stop-color="white"/>
</linearGradient>
</defs>
</svg>
