<svg width="128" height="128" viewBox="0 0 128 128" fill="none" xmlns="http://www.w3.org/2000/svg">
<path d="M64 128C99.3463 128 128 99.3463 128 64C128 28.6537 99.3463 0 64 0C28.6537 0 0 28.6537 0 64C0 99.3463 28.6537 128 64 128Z" fill="url(#paint0_linear_101_290)"/>
<path d="M52.5019 31.5539C59.4529 28.9539 67.2766 28.948 74.3582 31.0849C83.5768 33.9461 91.3589 40.903 95.425 49.6349C96.5469 52.1221 97.6214 54.7161 97.7282 57.4823C92.5461 54.4787 86.8653 52.5316 81.1727 50.7568C72.0669 47.4742 62.5337 45.1948 53.9147 40.6834C51.9083 39.4843 49.3499 38.2556 48.8038 35.7565C48.5842 33.5958 50.8695 32.3908 52.5019 31.5539Z" fill="#FFD83D"/>
<path d="M31.5183 52.5672C33.5306 47.1061 36.831 42.0368 41.3127 38.2793C42.4524 47.6522 46.4414 56.7106 53.0303 63.5251C60.9311 71.7346 72.1858 76.7742 83.6363 76.5843C88.1833 76.7267 92.6293 75.6761 97.0635 74.8272C92.7005 90.5932 75.4209 101.058 59.4115 98.5415C49.7477 97.3068 40.8259 91.5845 35.442 83.5056C29.3695 74.5779 27.838 62.7237 31.5183 52.5672Z" fill="#FFD83D"/>
<path d="M81.2737 51.6484C87.0572 53.4125 92.8287 55.3476 98.0936 58.3329L98.4494 58.5158C98.9379 62.1088 99.2937 65.7726 98.6424 69.3715C95.9949 68.2741 93.8479 66.3449 91.6044 64.6398C87.2864 61.1236 82.8779 57.0999 81.2737 51.6484Z" fill="#FF6F03"/>
<defs>
<linearGradient id="paint0_linear_101_290" x1="15.7538" y1="-4.48605e-06" x2="200.862" y2="243.2" gradientUnits="userSpaceOnUse">
<stop stop-color="#172852"/>
<stop offset="1" stop-color="#3F5B9F"/>
</linearGradient>
</defs>
</svg>
