<svg width="127" height="128" viewBox="0 0 127 128" fill="none" xmlns="http://www.w3.org/2000/svg">
<path d="M63.5 128C98.5701 128 127 99.3462 127 64C127 28.6538 98.5701 0 63.5 0C28.4299 0 0 28.6538 0 64C0 99.3462 28.4299 128 63.5 128Z" fill="url(#paint0_linear_101_422)"/>
<g clip-path="url(#clip0_101_422)">
<path d="M81.1935 32.3567C79.2104 34.3329 77.3936 36.4748 75.7786 38.7587L75.268 38.593C72.3231 37.6345 69.2713 37.0428 66.1957 36.8416C65.2695 36.7706 61.814 36.7706 60.6859 36.8416C57.2778 37.0665 54.6654 37.5753 51.6967 38.6048C51.578 38.6522 51.4711 38.6877 51.3642 38.7232C49.6899 36.4511 47.8256 34.3211 45.7712 32.3685C55.6272 27.3393 67.1576 26.7357 77.4767 30.7C78.581 31.1142 79.6616 31.5993 80.7185 32.12L81.1935 32.3567Z" fill="#F00500"/>
<path d="M99.5753 77.2418C98.0791 81.4901 95.8348 85.4307 92.9255 88.8624C91.3462 90.7085 89.6006 92.4007 87.7244 93.9391C83.3307 97.4655 78.2009 99.986 72.7266 101.311C66.6705 102.767 60.3532 102.767 54.2971 101.311C48.8109 99.986 43.693 97.4655 39.2993 93.9391C37.4231 92.4007 35.6775 90.7085 34.0982 88.8624C25.7265 79.005 23.1853 65.4674 27.4483 53.2669C28.2558 51.0067 29.2652 48.8293 30.4764 46.7585C31.0345 45.8118 31.7232 44.7468 32.0557 44.3089C33.1957 49.1962 34.5969 53.4918 35.1194 55.042C35.0838 55.1248 35.0363 55.2195 34.9888 55.3023C32.222 60.8878 30.7258 66.2721 30.3695 71.9995C30.3695 72.0705 30.3576 72.1534 30.3576 72.2244C30.2627 73.9403 30.3102 74.7568 30.5951 75.8336C31.4857 79.2062 34.2288 82.922 38.5275 86.5667C45.5692 92.5309 55.1164 96.8383 62.3481 97.3353C69.8886 97.8442 81.0152 93.4539 88.425 87.0401C89.5887 86.0105 90.6812 84.9218 91.7024 83.7622C92.4386 82.9101 93.5311 81.4428 93.448 81.4428C93.4242 81.4428 93.448 81.4191 93.4955 81.3954C93.5311 81.3718 93.5667 81.3363 93.543 81.3126C93.5311 81.3008 93.5549 81.2653 93.5905 81.2534C93.6261 81.2416 93.6499 81.2179 93.638 81.1943C93.6261 81.1706 93.638 81.1469 93.6855 81.1351C93.7211 81.1233 93.733 81.0878 93.7211 81.0641C93.7092 81.0404 93.7211 81.0168 93.7449 81.0168C93.7686 81.0168 93.7924 80.9813 93.7924 80.9576C93.7924 80.9339 93.8161 80.8984 93.8398 80.8984C93.8636 80.8984 93.8873 80.8748 93.8873 80.8511C93.923 80.7564 93.9824 80.6617 94.0417 80.5789C94.2198 80.3067 94.9323 79.0405 95.0273 78.8275C95.7042 77.301 96.1317 75.9401 96.3335 74.5793C96.4285 73.9284 96.4879 72.7332 96.4404 72.4492C96.4285 72.4019 96.4285 72.3191 96.4167 72.1889C96.3929 71.9522 96.381 71.5972 96.3573 71.2422C96.3335 70.7097 96.286 69.9642 96.2504 69.5973C95.7398 64.2249 94.3623 59.8346 91.7499 55.184C91.643 55.0065 91.548 54.829 91.4887 54.687C91.4649 54.6515 91.453 54.616 91.4412 54.5923C91.8093 53.4918 93.3174 48.8885 94.5167 43.6226L94.5405 43.6462L94.7186 43.8829C95.0273 44.2971 95.8467 45.5278 96.2148 46.1195C97.8891 48.8412 99.1953 51.7641 100.122 54.8172C102.271 62.1658 102.093 69.9997 99.5753 77.2418Z" fill="#F00500"/>
<path d="M84.1619 63.1005C84.1263 63.2899 83.5682 63.8579 83.0101 64.272C81.3714 65.4672 78.4383 66.5796 75.4578 67.1121C73.7597 67.4198 72.0616 67.4671 71.551 67.2186C71.2185 67.053 71.171 66.9228 71.2897 66.4968C71.5391 65.6092 72.3466 64.6389 73.6053 63.7277C74.2466 63.2662 76.8471 61.6923 78.0583 61.0296C80.0533 59.9409 81.6683 59.2901 82.7607 59.1363C83.1051 59.0889 83.5207 59.0771 83.6513 59.1363C83.8651 59.2191 84.1026 59.8463 84.1976 60.6036C84.2451 61.006 84.2213 62.781 84.1619 63.1005Z" fill="black"/>
<path d="M56.1848 67.0171C56.1136 67.1591 55.7573 67.3129 55.3536 67.3721C54.9498 67.4313 53.7149 67.3958 53.0143 67.3129C50.4968 66.9816 47.825 66.2124 45.8776 65.2657C44.7851 64.7332 44.0014 64.2007 43.4195 63.6208L43.0871 63.2777L43.0514 62.828C42.9921 62.047 43.0039 60.8163 43.0989 60.3784C43.1583 60.0116 43.2889 59.6566 43.467 59.3371C43.562 59.2188 43.562 59.2188 43.9895 59.2188C44.512 59.2188 44.9514 59.3016 45.6639 59.5264C47.1244 59.9761 49.2975 61.0648 51.9456 62.6505C54.1305 63.9522 54.9498 64.5912 55.5792 65.4669C56.0067 66.0112 56.2917 66.7804 56.1848 67.0171Z" fill="black"/>
<path d="M72.9997 83.4897C72.9997 83.5252 72.8572 84.0932 72.6791 84.7677C72.5009 85.4422 72.3584 85.9866 72.3584 86.0102C72.2278 86.0221 72.1091 86.0339 71.9784 86.0221H71.5985L71.076 87.2528C70.791 87.9273 70.5297 88.5545 70.4941 88.6491L70.4229 88.8148L70.1735 88.4124L69.9241 88.0101V84.7322L69.8291 84.7559C69.6273 84.8032 68.1904 84.9925 67.5611 85.0517C64.9605 85.3121 62.3481 85.2529 59.7594 84.886C59.3438 84.8269 58.9875 84.7795 58.9756 84.7914C58.9638 84.8032 58.9757 85.5606 58.9994 86.4954L59.035 88.1758L58.8332 88.4835C58.7263 88.6491 58.6194 88.7911 58.6194 88.803C58.5838 88.8385 58.465 88.6491 58.1919 88.1048C57.895 87.5368 57.6813 86.9332 57.5269 86.3061L57.4438 85.9629L57.0757 85.9866L56.7076 86.0221L56.6126 85.5842C56.5651 85.3476 56.5057 84.9807 56.482 84.7795L56.4463 84.4009L56.1376 84.1287C55.9595 83.9748 55.7814 83.821 55.7457 83.7973C55.6864 83.75 55.6626 83.6672 55.6626 83.5962V83.4542L57.1469 83.466L58.6313 83.4778L58.6788 83.6317L58.7263 83.7855L59.2369 83.8092C59.5219 83.821 60.4244 83.8447 61.2318 83.8684L62.7162 83.9039L63.0962 83.3122L63.488 82.7205H63.9868L63.9749 81.4898L63.963 80.2591L63.3099 79.9751C61.2081 79.0521 59.9731 77.9989 59.51 76.7209C59.415 76.4605 59.415 76.3659 59.3913 75.1825C59.3794 74.011 59.3794 73.9045 59.4625 73.6441C59.6287 73.0524 60.0919 72.5909 60.6856 72.4371C60.8875 72.3779 61.4218 72.3779 64.2243 72.3779L67.5254 72.3898L67.8935 72.5673C68.3329 72.7803 68.5348 72.9341 68.7841 73.2654C69.0691 73.6441 69.1523 73.94 69.1523 74.6618C69.1523 75.6913 69.081 76.5789 68.9742 76.9339C68.8198 77.419 68.5823 77.8806 68.2854 78.2947C67.6917 79.0521 66.6111 79.8094 65.6255 80.1526L65.3405 80.2591L65.3524 81.5016L65.3642 82.7442L65.6255 82.7678L65.8867 82.7915L66.243 83.324L66.5873 83.8565H68.1785C69.0573 83.8565 69.8291 83.8683 69.9004 83.8802C70.0191 83.9039 70.0429 83.892 70.1616 83.6908L70.3041 83.4778H71.6697C72.6909 83.4305 72.9997 83.4542 72.9997 83.4897Z" fill="black"/>
<path d="M66.7298 86.8858C66.5042 87.016 66.3498 87.0751 66.3142 87.0515C66.2786 87.0396 66.1123 86.8976 65.9342 86.7674L65.6136 86.5071L65.2811 86.8621C64.5568 87.6432 64.533 87.6787 64.3193 87.6905C63.9868 87.726 63.9155 87.6668 63.5118 87.0633C63.2981 86.7556 63.1318 86.4952 63.1318 86.4952C63.1318 86.4952 62.9775 86.4716 62.7993 86.4597L62.4668 86.4242L62.3125 86.7438L62.1581 87.0633L61.885 86.9804C61.6712 86.9094 61.4575 86.8266 61.2556 86.7319L60.8994 86.5544V85.8799L64.058 85.8917L67.2167 85.9035L67.2285 86.2231C67.2404 86.6018 67.2523 86.5899 66.7298 86.8858Z" fill="black"/>
<path d="M96.4167 72.4491C96.4048 72.4017 96.4048 72.3189 96.3929 72.1887C93.543 71.881 85.4088 71.6917 77.8565 77.9043C77.8565 77.9043 75.4222 66.7808 64.0225 66.7808C52.6228 66.7808 48.3954 77.9043 48.3954 77.9043C42.0068 71.0527 33.457 71.5497 30.3696 71.9994C30.3696 72.0704 30.3577 72.1532 30.3577 72.2242C30.2627 73.9401 30.3102 74.7566 30.5952 75.8335C31.4858 79.206 34.2289 82.9218 38.5275 86.5665C45.5692 92.5307 55.1165 96.8381 62.3482 97.3351C69.8886 97.8439 81.0152 93.4537 88.425 87.0399C89.5887 86.0104 90.6812 84.9217 91.7024 83.762C92.4387 82.9099 93.5311 81.4426 93.448 81.4426C93.4243 81.4426 93.448 81.4189 93.4955 81.3952C93.5312 81.3716 93.5668 81.3361 93.543 81.3124C93.5311 81.3006 93.5549 81.2651 93.5905 81.2532C93.6261 81.2414 93.6499 81.2177 93.638 81.1941C93.6261 81.1704 93.638 81.1467 93.6855 81.1349C93.7211 81.1231 93.733 81.0876 93.7211 81.0639C93.7093 81.0402 93.7211 81.0166 93.7449 81.0166C93.7686 81.0166 93.7924 80.9811 93.7924 80.9574C93.7924 80.9337 93.8161 80.8982 93.8399 80.8982C93.8636 80.8982 93.8874 80.8746 93.8874 80.8509C93.923 80.7562 93.9824 80.6616 94.0418 80.5787C94.2199 80.3066 94.9324 79.0404 95.0274 78.8274C95.7042 77.3008 96.1317 75.94 96.3336 74.5791C96.4048 73.9283 96.4642 72.7331 96.4167 72.4491ZM66.7299 86.886C66.5043 87.0162 66.3499 87.0754 66.3143 87.0517C66.2787 87.0399 66.1124 86.8979 65.9343 86.7677L65.6137 86.5074L65.2812 86.8624C64.5569 87.6434 64.5331 87.6789 64.3194 87.6907C63.9869 87.7262 63.9156 87.6671 63.5119 87.0635C63.2981 86.7559 63.1319 86.4955 63.1319 86.4955C63.1319 86.4955 62.9775 86.4719 62.7994 86.46L62.4669 86.4245L62.3125 86.744L62.1582 87.0635L61.885 86.9807C61.6713 86.9097 61.4576 86.8269 61.2557 86.7322L60.8995 86.5547V85.8802L64.0581 85.892L67.2168 85.9038L67.2287 86.2234C67.2405 86.602 67.2524 86.5902 66.7299 86.886ZM72.6673 84.756C72.4892 85.4305 72.3467 85.9749 72.3467 85.9985C72.216 86.0104 72.0973 86.0222 71.9667 86.0103H71.5867L71.0761 87.2529C70.7911 87.9274 70.5298 88.5546 70.4942 88.6492L70.423 88.8149L70.1736 88.4126L69.9242 88.0102V84.7323L69.8292 84.756C69.6274 84.8033 68.1905 84.9927 67.5612 85.0518C64.9606 85.3122 62.3482 85.253 59.7595 84.8862C59.3439 84.827 58.9876 84.7797 58.9757 84.7915C58.9639 84.8033 58.9757 85.5607 58.9995 86.4955L59.0351 88.1759L58.8333 88.4836C58.7264 88.6492 58.6195 88.7912 58.6195 88.8031C58.5839 88.8386 58.4651 88.6492 58.192 88.1049C57.8951 87.5369 57.6814 86.9334 57.527 86.3062L57.4439 85.963L57.0758 85.9867L56.7077 86.0222L56.6127 85.5843C56.5652 85.3477 56.5058 84.9808 56.4821 84.7797L56.4464 84.401L56.1377 84.1288C55.9596 83.975 55.7815 83.8211 55.7458 83.7975C55.6865 83.7501 55.6627 83.6673 55.6627 83.5963V83.4543L57.147 83.4661L58.6314 83.478L58.6789 83.6318L58.7264 83.7856L59.237 83.8093C59.522 83.8211 60.4245 83.8448 61.2319 83.8685L62.7163 83.904L63.0963 83.3123L63.4881 82.7206H63.9869L63.975 81.4899L63.9631 80.2592L63.31 79.9752C61.2082 79.0522 59.9732 77.999 59.5101 76.721C59.4151 76.4606 59.4151 76.366 59.3914 75.1826C59.3795 74.0111 59.3795 73.9046 59.4626 73.6442C59.6288 73.0526 60.092 72.5911 60.6857 72.4372C60.8876 72.378 61.4219 72.378 64.2244 72.378L67.5255 72.3899L67.8936 72.5674C68.333 72.7804 68.5349 72.9342 68.7842 73.2656C69.0692 73.6442 69.1524 73.9401 69.1524 74.6619C69.1524 75.6915 69.0811 76.579 68.9743 76.934C68.8199 77.4192 68.5824 77.8807 68.2855 78.2948C67.6918 79.0522 66.6112 79.8095 65.6256 80.1527L65.3406 80.2592L65.3525 81.5018L65.3643 82.7443L65.6256 82.7679L65.8868 82.7916L66.2431 83.3241L66.5874 83.8566H68.1786C69.0574 83.8566 69.8292 83.8685 69.9005 83.8803C70.0192 83.904 70.043 83.8921 70.1617 83.691L70.3042 83.478H71.6698C72.7267 83.478 73.0354 83.4898 73.0354 83.5253C72.9998 83.5135 72.8454 84.0933 72.6673 84.756Z" fill="white"/>
<path d="M96.3214 71.2418C96.2977 70.7093 96.2502 69.9638 96.2146 69.5969C95.704 64.2245 94.3265 59.8342 91.7141 55.1836C91.6072 55.0061 91.5122 54.8286 91.4528 54.6866C91.4291 54.6511 91.4172 54.6156 91.4053 54.5919C91.7734 53.4914 93.2815 48.8881 94.4809 43.6222C96.1077 36.4747 97.1408 28.1202 93.9821 25.6115C93.9821 25.6115 88.5198 25.2091 81.205 32.3566C79.2219 34.3328 77.405 36.4747 75.7901 38.7586L75.2795 38.5929C72.3345 37.6344 69.2827 37.0427 66.2072 36.8416C65.281 36.7705 61.8254 36.7705 60.6973 36.8416C57.2893 37.0664 54.6769 37.5752 51.7082 38.6048C51.5894 38.6521 51.4826 38.6876 51.3757 38.7231C49.7013 36.451 47.837 34.321 45.7827 32.3685C38.171 25.1855 32.5068 25.5996 32.5068 25.5996C29.1581 28.1912 30.2981 36.9244 32.0318 44.3085C33.1718 49.1958 34.573 53.4914 35.0955 55.0416C35.0598 55.1244 35.0123 55.2191 34.9648 55.302C32.198 60.8874 30.7018 66.2717 30.3456 71.9991C33.4449 71.5495 41.9828 71.0406 48.3833 77.9041C48.3833 77.9041 52.6107 66.7805 64.0104 66.7805C75.4101 66.7805 77.8444 77.9041 77.8444 77.9041C85.3967 71.6915 93.5309 71.8926 96.3808 72.1885C96.3689 71.9518 96.3452 71.5968 96.3214 71.2418ZM37.3398 50.5803C37.3398 50.5803 32.8986 39.5159 34.0386 33.1968C34.2286 32.1318 34.5849 31.1969 35.143 30.4869C35.143 30.4869 40.1778 30.9839 48.3001 39.9775C48.3001 39.9775 46.7564 40.723 44.6902 42.3087C44.6902 42.3087 44.6783 42.3205 44.6665 42.3205C42.4222 44.0364 39.5485 46.7581 37.3398 50.5803ZM56.1849 67.0172C56.1137 67.1592 55.7575 67.313 55.3537 67.3722C54.95 67.4314 53.715 67.3959 53.0144 67.313C50.497 66.9817 47.8252 66.2125 45.8777 65.2658C44.7852 64.7333 44.0015 64.2008 43.4196 63.621L43.0871 63.2778L43.0515 62.8281C42.9921 62.0471 43.004 60.8164 43.099 60.3786C43.1584 60.0117 43.289 59.6567 43.4671 59.3372C43.5621 59.2189 43.5621 59.2189 43.9896 59.2189C44.5121 59.2189 44.9515 59.3017 45.664 59.5265C47.1245 59.9762 49.2976 61.0649 51.9457 62.6506C54.1306 63.9523 54.95 64.5913 55.5793 65.467C56.0068 66.0114 56.2918 66.7805 56.1849 67.0172ZM84.1617 63.1003C84.1261 63.2896 83.568 63.8576 83.0099 64.2718C81.3712 65.467 78.4381 66.5794 75.4576 67.1119C73.7595 67.4195 72.0614 67.4669 71.5508 67.2184C71.2183 67.0527 71.1708 66.9225 71.2896 66.4965C71.5389 65.609 72.3464 64.6387 73.6051 63.7275C74.2464 63.266 76.8469 61.6921 78.0582 61.0294C80.0531 59.9407 81.6681 59.2899 82.7605 59.136C83.1049 59.0887 83.5205 59.0769 83.6511 59.136C83.8649 59.2189 84.1024 59.846 84.1974 60.6034C84.2449 61.0057 84.2211 62.7808 84.1617 63.1003ZM82.1905 42.3087L82.1668 42.2968C80.1719 40.7111 78.6756 39.9656 78.6756 39.9656C86.5248 30.9721 91.3816 30.4751 91.3816 30.4751C91.9159 31.1969 92.2603 32.12 92.4503 33.185C93.5546 39.5041 89.2679 50.5803 89.2679 50.5803C87.4748 47.3971 85.0642 44.5807 82.1905 42.3087Z" fill="#FFA409"/>
<path d="M92.4622 33.185C91.536 33.0666 87.1542 33.043 82.1906 42.3087L82.1668 42.2968C80.1719 40.7111 78.6757 39.9656 78.6757 39.9656C86.5248 30.9721 91.3816 30.4751 91.3816 30.4751C91.9278 31.1969 92.2722 32.12 92.4622 33.185Z" fill="#FF9300"/>
<path d="M89.2799 50.5805C87.4749 47.3854 85.0762 44.5809 82.1907 42.3088C87.1543 33.0431 91.5242 33.0668 92.4622 33.1851C93.5666 39.5161 89.2799 50.5805 89.2799 50.5805Z" fill="#FF8300"/>
<path d="M92.6403 33.2206C92.5809 33.2087 92.5215 33.1969 92.4622 33.1851L92.6403 33.2206Z" fill="#FF8300"/>
<path d="M48.3 39.9656C48.3 39.9656 46.7563 40.7111 44.6901 42.2968C44.6901 42.2968 44.6782 42.3087 44.6663 42.3087C39.5246 33.0311 35.0003 33.0666 34.0266 33.185C34.2166 32.12 34.5729 31.1851 35.131 30.4751C35.1428 30.4751 40.1777 30.9721 48.3 39.9656Z" fill="#FF9300"/>
<path d="M44.6782 42.3088C42.422 44.0365 39.5483 46.7464 37.3396 50.5805C37.3396 50.5805 32.8985 39.5161 34.0384 33.1851C35.0003 33.0668 39.5364 33.0431 44.6782 42.3088Z" fill="#FF8300"/>
<path d="M34.0385 33.1851C33.9791 33.1969 33.9079 33.2087 33.8485 33.2206L34.0385 33.1851Z" fill="#FF8300"/>
<path d="M77.2627 56.7221C77.2627 56.7221 73.4628 56.9587 73.9378 54.0004C74.4128 51.042 77.3815 50.687 78.2127 50.8053C79.0439 50.9236 82.3688 52.107 81.7751 54.592C81.1814 57.0771 80.3501 56.6037 79.8752 56.7221C79.4002 56.8404 77.2627 56.7221 77.2627 56.7221Z" fill="white"/>
<path d="M49.2383 56.7221C49.2383 56.7221 45.4384 56.9587 45.9134 54.0004C46.3884 51.042 49.357 50.687 50.1883 50.8053C51.0195 50.9236 54.3444 52.107 53.7506 54.592C53.1569 57.0771 52.3257 56.6037 51.8507 56.7221C51.3757 56.8404 49.2383 56.7221 49.2383 56.7221Z" fill="white"/>
</g>
<defs>
<linearGradient id="paint0_linear_101_422" x1="11.7231" y1="3.80422e-06" x2="97.0784" y2="127.383" gradientUnits="userSpaceOnUse">
<stop offset="0.0001" stop-color="#F89B2B"/>
<stop offset="1" stop-color="#FAB96B"/>
</linearGradient>
<clipPath id="clip0_101_422">
<rect width="76.2" height="76.8" fill="white" transform="translate(25.4 25.6001)"/>
</clipPath>
</defs>
</svg>
