<svg width="73" height="73" viewBox="0 0 73 73" fill="none" xmlns="http://www.w3.org/2000/svg">
<path d="M36.4997 66.9167C53.2983 66.9167 66.9163 53.2987 66.9163 36.5C66.9163 19.7013 53.2983 6.08334 36.4997 6.08334C19.701 6.08334 6.08301 19.7013 6.08301 36.5C6.08301 53.2987 19.701 66.9167 36.4997 66.9167Z" stroke="white" stroke-width="2"/>
<path d="M38.4389 37.5L44.3514 31.6012C44.6103 31.3423 44.7558 30.9911 44.7558 30.625C44.7558 30.2588 44.6103 29.9076 44.3514 29.6487C44.0925 29.3898 43.7413 29.2444 43.3752 29.2444C43.009 29.2444 42.6578 29.3898 42.3989 29.6487L36.5002 35.5612L30.6014 29.6487C30.3425 29.3898 29.9913 29.2444 29.6252 29.2444C29.259 29.2444 28.9078 29.3898 28.6489 29.6487C28.39 29.9076 28.2445 30.2588 28.2445 30.625C28.2445 30.9911 28.39 31.3423 28.6489 31.6012L34.5614 37.5L28.6489 43.3987C28.52 43.5266 28.4177 43.6786 28.3479 43.8462C28.2781 44.0137 28.2422 44.1935 28.2422 44.375C28.2422 44.5565 28.2781 44.7362 28.3479 44.9038C28.4177 45.0713 28.52 45.2234 28.6489 45.3512C28.7767 45.4801 28.9288 45.5824 29.0964 45.6522C29.2639 45.722 29.4436 45.758 29.6252 45.758C29.8067 45.758 29.9864 45.722 30.154 45.6522C30.3215 45.5824 30.4736 45.4801 30.6014 45.3512L36.5002 39.4387L42.3989 45.3512C42.5267 45.4801 42.6788 45.5824 42.8464 45.6522C43.0139 45.722 43.1936 45.758 43.3752 45.758C43.5567 45.758 43.7364 45.722 43.904 45.6522C44.0715 45.5824 44.2236 45.4801 44.3514 45.3512C44.4803 45.2234 44.5826 45.0713 44.6524 44.9038C44.7222 44.7362 44.7581 44.5565 44.7581 44.375C44.7581 44.1935 44.7222 44.0137 44.6524 43.8462C44.5826 43.6786 44.4803 43.5266 44.3514 43.3987L38.4389 37.5Z" fill="white"/>
</svg>
