<svg width="17" height="17" viewBox="0 0 17 17" fill="none" xmlns="http://www.w3.org/2000/svg">
<path d="M10.4389 8.49998L16.3514 2.60123C16.6103 2.34231 16.7558 1.99115 16.7558 1.62498C16.7558 1.25882 16.6103 0.907648 16.3514 0.64873C16.0925 0.389813 15.7413 0.244354 15.3752 0.244354C15.009 0.244354 14.6578 0.389813 14.3989 0.64873L8.50016 6.56123L2.60141 0.64873C2.34249 0.389813 1.99133 0.244354 1.62516 0.244354C1.259 0.244354 0.907828 0.389813 0.64891 0.64873C0.389993 0.907648 0.244534 1.25882 0.244534 1.62498C0.244534 1.99115 0.389993 2.34231 0.64891 2.60123L6.56141 8.49998L0.64891 14.3987C0.520034 14.5266 0.417742 14.6786 0.347935 14.8462C0.278128 15.0137 0.242188 15.1935 0.242188 15.375C0.242188 15.5565 0.278128 15.7362 0.347935 15.9038C0.417742 16.0713 0.520034 16.2234 0.64891 16.3512C0.776734 16.4801 0.928811 16.5824 1.09637 16.6522C1.26392 16.722 1.44364 16.758 1.62516 16.758C1.80668 16.758 1.9864 16.722 2.15395 16.6522C2.32151 16.5824 2.47359 16.4801 2.60141 16.3512L8.50016 10.4387L14.3989 16.3512C14.5267 16.4801 14.6788 16.5824 14.8464 16.6522C15.0139 16.722 15.1936 16.758 15.3752 16.758C15.5567 16.758 15.7364 16.722 15.904 16.6522C16.0715 16.5824 16.2236 16.4801 16.3514 16.3512C16.4803 16.2234 16.5826 16.0713 16.6524 15.9038C16.7222 15.7362 16.7581 15.5565 16.7581 15.375C16.7581 15.1935 16.7222 15.0137 16.6524 14.8462C16.5826 14.6786 16.4803 14.5266 16.3514 14.3987L10.4389 8.49998Z" fill="white"/>
</svg>
