<svg width="76" height="76" viewBox="0 0 76 76" fill="none" xmlns="http://www.w3.org/2000/svg">
<path fill-rule="evenodd" clip-rule="evenodd" d="M15.6955 4.21682C15.7511 4.21682 16.2061 3.40243 16.7067 2.40706C17.2073 1.41168 17.6721 0.59729 17.7394 0.59729C18.0676 0.59729 24.7608 2.30661 24.7608 2.39047C24.7608 2.44355 23.9 5.02383 22.8477 8.12426C21.7956 11.2248 20.979 13.8366 21.033 13.9283C21.0872 14.02 22.5311 16.0661 24.2419 18.4752C28.6941 24.7445 29.2483 26.0239 29.2701 30.0814C29.2802 31.9865 29.2273 32.5421 28.9346 33.6009C27.5458 38.6251 23.7186 42.3917 18.614 43.7584C17.4949 44.058 16.9581 44.1048 14.6356 44.1048C12.3214 44.1048 11.7744 44.0574 10.672 43.7622C5.55677 42.3919 1.72579 38.6294 0.340491 33.6154C0.0434874 32.5406 -0.00897915 31.9934 0.00114597 30.0814C0.0229303 26.0145 0.57567 24.7424 5.05558 18.4482C6.78084 16.0243 8.19237 13.9104 8.19237 13.7507C8.19237 13.5908 7.36763 11.2956 6.35972 8.64999C5.35181 6.00442 4.50621 3.74342 4.48044 3.62578C4.44377 3.45747 5.36899 3.2578 8.80601 2.69164C11.2107 2.2956 13.3614 1.93682 13.5852 1.89444C13.9531 1.82461 14.0692 1.9326 14.7935 3.01695C15.2342 3.67691 15.6402 4.21682 15.6955 4.21682ZM31.8177 3.88925V0.70482L33.7736 0.793046C37.7922 0.974626 41.1636 2.27736 44.2065 4.82475C47.837 7.8641 49.957 12.1558 50.1823 16.9229L50.2733 18.8458H52.628C53.9231 18.8458 54.9827 18.8904 54.9827 18.9451C54.9827 19.0761 45.4174 31.6523 45.3178 31.6523C45.2182 31.6523 35.6529 19.0761 35.6529 18.9451C35.6529 18.8904 36.723 18.8458 38.0308 18.8458H40.4087V17.5747C40.4087 11.9531 37.5773 7.05559 32.8128 4.43626L31.8177 3.88925ZM21.5391 4.13327C21.5391 4.04369 21.0387 3.85532 20.4269 3.71461C19.8151 3.5739 19.2281 3.45974 19.1224 3.46079C19.0166 3.46185 18.2926 4.71828 17.5135 6.25281C16.7343 7.78734 16.0541 9.04286 16.0018 9.04286C15.9304 9.04286 13.9448 6.19369 12.9295 4.63442C12.8208 4.46747 7.69639 5.25457 7.76589 5.42755C7.78951 5.48637 8.43016 7.17247 9.18954 9.17452L10.5702 12.8143L18.6749 12.7378L20.107 8.51697C20.8946 6.19565 21.5391 4.223 21.5391 4.13327ZM46.2479 11.3805C44.6611 8.18292 42.4286 6.02915 39.1341 4.51709C37.8668 3.93555 36.0558 3.38463 36.1428 3.60723C36.1687 3.67329 36.5507 4.02876 36.9917 4.39704C39.8731 6.80358 41.9408 10.4486 42.615 14.3102C42.7821 15.2668 42.8632 16.6357 42.8632 18.4953V21.2588H41.7127C41.0798 21.2588 40.5621 21.3027 40.5621 21.3564C40.5621 21.4907 45.2153 27.593 45.3178 27.593C45.4203 27.593 50.0736 21.4907 50.0736 21.3564C50.0736 21.3027 49.5639 21.2588 48.9412 21.2588H47.8088L47.7304 18.3556C47.6366 14.8875 47.3732 13.6481 46.2479 11.3805ZM26.4427 26.9897C25.9741 25.3339 25.2974 24.2073 21.9328 19.4822L18.9021 15.2262H10.3865L7.34799 19.4867C3.96268 24.2333 3.29365 25.3443 2.82974 26.9897C0.999084 33.4819 5.10267 40.1141 11.7975 41.4832C14.2734 41.9895 17.202 41.7835 19.3628 40.951C24.9843 38.7853 28.0628 32.7146 26.4427 26.9897ZM13.4083 22.4653V20.0523H15.8629V21.2588C15.8629 22.3069 15.8982 22.4654 16.1314 22.4662C17.3238 22.4698 18.888 23.6406 19.3039 24.8406C19.7283 26.0648 19.7126 26.0848 18.3361 26.0848C17.1499 26.0848 17.1241 26.0768 16.9451 25.652C16.672 25.0041 16.2081 24.8783 14.0915 24.8783H12.1811V25.5499C12.1811 26.3931 12.4152 26.9087 12.8955 27.1239C13.1012 27.2159 13.9737 27.2918 14.8346 27.2922C16.8369 27.2933 17.4196 27.4605 18.3272 28.295C19.3633 29.2478 19.5448 29.8666 19.5448 32.4458V34.5304H15.8629V36.9434H13.4083V34.569L12.7786 34.4699C12.4322 34.4155 11.9626 34.2763 11.7351 34.1606C11.0808 33.828 10.0721 32.6562 9.89232 32.0201C9.58074 30.9166 9.58611 30.9109 10.9352 30.9109C12.1214 30.9109 12.1472 30.9189 12.3262 31.3437C12.5993 31.9916 13.0632 32.1174 15.1798 32.1174H17.0902V31.4458C17.0902 30.6026 16.8561 30.087 16.3758 29.8718C16.17 29.7798 15.2976 29.7039 14.4367 29.7034C12.3426 29.7024 11.817 29.5397 10.8556 28.5944C9.85473 27.6106 9.72847 27.1564 9.7274 24.539L9.72648 22.4653H13.4083ZM32.2441 44.4405C33.7499 39.2815 37.8222 35.6328 43.1441 34.6746C44.373 34.4533 47.5608 34.6228 48.8196 34.9762C53.5486 36.3043 57.018 39.7348 58.3915 44.4405C58.8893 46.1465 58.8861 49.465 58.3847 51.1953C57.9587 52.6657 57.0416 54.5692 56.3 55.5222C55.9974 55.9113 55.7498 56.2608 55.7498 56.2993C55.7498 56.3376 56.221 56.5097 56.7969 56.6818C57.4009 56.862 58.391 57.3458 59.1365 57.8248L60.4288 58.655L63.7271 58.6606V56.2476H76V75.5517H63.7271V73.1472L33.5819 73.0633L32.3546 72.6398C30.7795 72.0964 29.3013 71.2344 28.1544 70.1905C27.1928 69.3153 21.7763 61.89 21.174 60.6212C20.9258 60.0985 20.852 59.6478 20.8525 58.6606C20.8529 57.5568 20.9114 57.2693 21.2728 56.5919C22.1919 54.8691 23.6241 53.9747 25.6387 53.8655C27.0631 53.7883 28.0539 54.0297 29.0968 54.7084C29.5008 54.9711 30.5196 56.1597 31.9987 58.0935C33.2524 59.7326 34.2997 61.0736 34.3261 61.0736C34.3526 61.0736 34.3433 60.7079 34.3057 60.261C34.2228 59.2797 34.4618 58.4728 35.056 57.7269C35.2999 57.4206 35.4995 57.1306 35.4995 57.0823C35.4995 57.0339 35.1161 56.504 34.6475 55.9046C33.6213 54.5923 32.7246 52.8301 32.2509 51.1953C31.7495 49.465 31.7463 46.1465 32.2441 44.4405ZM0.0615899 57.3547C0.0615899 57.3001 2.21901 54.4187 4.85568 50.9514C7.49251 47.4844 9.68429 44.6476 9.72648 44.6476C9.82604 44.6476 19.3914 57.2238 19.3914 57.3547C19.3914 57.4094 18.3213 57.4541 17.0135 57.4541H14.6356V58.7251C14.6356 64.3467 17.467 69.2443 22.2315 71.8636L23.2266 72.4106V75.5973L21.2707 75.5083C14.4844 75.1996 8.63926 71.1477 6.06717 64.9688C5.33294 63.2051 4.97043 61.5184 4.86535 59.377L4.771 57.4541H2.41629C1.1212 57.4541 0.0615899 57.4094 0.0615899 57.3547ZM14.4822 54.9435C14.4822 54.8899 13.4307 53.4648 12.1456 51.7764C10.8605 50.0882 9.77189 48.7069 9.72648 48.7069C9.624 48.7069 4.97074 54.8091 4.97074 54.9435C4.97074 54.9972 5.48037 55.0411 6.10307 55.0411H7.23555L7.31394 57.9442C7.40599 61.3493 7.66326 62.5967 8.73084 64.8123C10.2436 67.9515 12.5546 70.2242 15.7299 71.6956C17.1358 72.3469 18.9948 72.9315 18.9015 72.6926C18.8756 72.6265 18.4936 72.2711 18.0525 71.9028C15.1712 69.4963 13.1035 65.8512 12.4293 61.9897C12.2622 61.033 12.1811 59.6641 12.1811 57.8046V55.0411H13.3316C13.9645 55.0411 14.4822 54.9972 14.4822 54.9435ZM30.7103 60.4266C28.3796 57.3769 27.8601 56.7816 27.3183 56.5399C26.4997 56.1744 25.473 56.1759 24.6489 56.5438C23.6088 57.008 23.0111 58.2858 23.3406 59.3412C23.5915 60.1451 29.011 67.6358 29.979 68.5169C30.4511 68.9465 31.297 69.5205 31.8588 69.7923C32.1339 69.9255 32.3644 70.0396 32.6019 70.1373C34.0467 70.7318 35.7498 70.7207 49.3449 70.7231L63.7271 70.7257V61.0736H59.6769L58.2887 60.1746C57.6502 59.7612 57.2448 59.4667 56.7983 59.256C55.5826 58.6824 54.0629 58.7308 46.7063 58.6935C40.4329 58.6616 37.7731 58.6977 37.4765 58.8185C36.0475 59.4003 36.8724 62.0643 38.7978 63.0858C39.3823 63.3958 39.6554 63.4149 44.5508 63.4866L49.69 63.562L50.7269 64.0448C51.7298 64.5119 53.4486 65.9149 53.4486 66.2666C53.4486 66.4782 52.0407 67.8602 51.8254 67.8602C51.7399 67.8602 51.397 67.583 51.0635 67.2442C50.73 66.9054 50.1809 66.4812 49.8434 66.3016C49.2496 65.9856 49.0251 65.9726 42.8632 65.8997L36.4967 65.8242L35.4995 65.3582C34.9511 65.1019 34.2684 64.6977 33.9826 64.46C33.6966 64.2225 32.2242 62.4074 30.7103 60.4266ZM68.6363 61.0736V58.6606H66.1817V73.1387H68.6363V63.4866H71.0909V73.1387H73.5454V58.6606H71.0909V61.0736H68.6363ZM56.1193 45.723C55.1932 41.3148 51.9168 38.0938 47.4326 37.1834C39.8871 35.6511 33.0359 42.3278 34.4895 49.7965C34.9061 51.937 35.856 53.7187 37.467 55.3804L38.3075 56.2476H52.3281L53.1686 55.3804C55.784 52.6825 56.8491 49.1964 56.1193 45.723Z" fill="#37923B"/>
<path fill-rule="evenodd" clip-rule="evenodd" d="M51.3273 45.3668C51.1612 43.5662 49.5809 42.955 47.5822 42.7734L47.5969 40.2768L46.0473 40.2695L46.033 42.7003C45.6262 42.6982 45.2098 42.704 44.7962 42.7101L44.8108 40.2632L43.2625 40.2556L43.2472 42.7515C42.9118 42.7565 42.5823 42.761 42.2612 42.7597L42.261 42.7519L40.1243 42.7407L40.1152 44.3637C40.1152 44.3637 41.2593 44.3479 41.2401 44.3685C41.8677 44.3718 42.0701 44.73 42.1273 45.0388L42.1106 47.8829C42.154 47.8833 42.2104 47.8854 42.2743 47.8943L42.1111 47.8936L42.0867 51.878C42.0581 52.0715 41.9401 52.3799 41.5017 52.3785C41.5214 52.3958 40.3756 52.3726 40.3756 52.3726L40.0572 54.1863L42.0736 54.1961C42.3013 54.1974 42.5268 54.2009 42.7498 54.2045C42.8942 54.2067 43.0376 54.2089 43.1799 54.2106L43.1657 56.736L44.7132 56.7438L44.7283 54.2454C45.1527 54.2562 45.564 54.2615 45.9654 54.2631L45.95 56.7499L47.4992 56.7574L47.5146 54.2369C50.1199 54.1031 51.947 53.4683 52.1868 51.0708C52.381 49.1399 51.4601 48.2733 49.9837 47.9174C50.8843 47.4723 51.4509 46.6845 51.3273 45.3668ZM49.1277 50.7556C49.1179 52.4877 46.3441 52.4358 45.076 52.4121C44.9625 52.41 44.861 52.4081 44.7747 52.4077L44.7947 49.0619C44.9003 49.0625 45.0285 49.0601 45.1737 49.0575C46.4736 49.0338 49.1371 48.9854 49.1277 50.7556ZM45.0589 47.5356C46.1176 47.5579 48.4252 47.6063 48.4349 46.0326C48.4446 44.4228 46.224 44.4697 45.1395 44.4926C45.0176 44.4952 44.91 44.4974 44.8216 44.497L44.8037 47.5315C44.8766 47.5318 44.9626 47.5337 45.0589 47.5356Z" fill="#37923B"/>
</svg>
