<svg width="76" height="77" viewBox="0 0 76 77" fill="none" xmlns="http://www.w3.org/2000/svg">
<g clip-path="url(#clip0_101_198)">
<path fill-rule="evenodd" clip-rule="evenodd" d="M52.8477 0.812081C49.1832 1.38242 45.4894 3.22724 42.6215 5.91952C42.1616 6.3513 41.7662 6.7046 41.7429 6.7046C41.7196 6.7046 41.7447 6.38334 41.7985 5.99064L41.8964 5.27684L41.2207 5.36605C40.849 5.4151 37.5439 5.7828 33.8761 6.18316C30.2082 6.58351 27.1405 6.96931 27.0588 7.04043C26.9697 7.11814 27.6725 7.93341 28.8206 9.08405L30.7306 10.9983L26.402 15.3259L22.0734 19.6536L20.2317 17.8171L18.3898 15.9804L11.3788 22.99L4.36771 29.9994L5.70747 31.3452C6.44442 32.0853 7.046 32.7585 7.04462 32.8411C7.04324 32.9237 6.62425 33.5086 6.11358 34.1409C5.04426 35.4651 3.53541 38.4302 3.12853 40.0069C2.87634 40.9839 2.82375 41.0613 2.23275 41.3245C1.42221 41.6853 0.370371 42.8351 0.1608 43.5896C-0.0564373 44.372 -0.0524514 49.9801 0.166012 50.7713C0.393674 51.5956 1.70016 52.9018 2.52465 53.1294C2.86193 53.2225 3.6044 53.299 4.1747 53.2994L5.21137 53.3003L5.59096 54.1584C6.85038 57.0056 9.56254 59.6262 12.5453 60.8775C13.6776 61.3527 14.524 61.5755 16.0025 61.788L17.2157 61.9622L17.4082 62.881C18.1288 66.3176 20.4808 69.252 23.6937 70.7225L24.5243 71.1028L24.5252 72.2794C24.5264 73.9695 24.7311 74.5488 25.6526 75.4701C26.6309 76.4483 27.1293 76.5962 29.4492 76.5973C31.5861 76.5984 32.306 76.3873 33.2191 75.4922C33.9845 74.7422 34.336 73.8271 34.336 72.5858V71.6934H39.2418H44.1477L44.1486 72.5747C44.1498 73.9602 44.3948 74.5892 45.276 75.4701C46.2537 76.4477 46.753 76.5962 49.0646 76.5973C51.2273 76.5984 51.9736 76.3786 52.8531 75.4816C53.6359 74.6835 53.9594 73.8025 53.9594 72.4687V71.4432L54.8409 71.0849C56.921 70.2394 59.1959 68.589 60.423 67.0349C60.7889 66.5717 61.1398 66.1888 61.2032 66.1841C61.2665 66.1793 61.3186 67.2617 61.3191 68.5896C61.3195 69.9174 61.396 71.2795 61.4891 71.6168C61.7167 72.4411 63.0232 73.7473 63.8477 73.9749C64.2077 74.0742 65.8381 74.1444 67.7954 74.1449L71.1298 74.1458V72.9196V71.6934H67.9942C66.0227 71.6934 64.7199 71.6302 64.485 71.5233C63.995 71.2999 63.7711 70.7776 63.7711 69.8579V69.1099L64.5932 69.1947C65.7417 69.3132 66.7652 68.9459 67.568 68.1271C69.0815 66.5838 69.0349 64.3766 67.4578 62.9018C66.5973 62.097 65.7504 61.8122 64.5759 61.9325L63.7711 62.0148L63.7704 58.3091C63.7697 53.2692 63.3737 51.0955 61.9985 48.5819C61.7086 48.052 61.4714 47.5524 61.4714 47.4716C61.4714 47.3906 64.1615 43.2885 67.4494 38.3557C70.7372 33.4228 73.6947 28.8529 74.0214 28.2003C75.2727 25.7013 75.8568 23.3833 75.9812 20.4228C76.2114 14.9531 74.3231 10.1643 70.3831 6.225C67.3433 3.18586 63.882 1.41246 59.7857 0.795067C57.9911 0.524536 54.6425 0.532813 52.8477 0.812081ZM60.8696 3.5364C62.9066 4.06091 64.4217 4.72352 66.0766 5.81346C72.9988 10.3728 75.4713 19.2902 71.9123 26.8596C71.0976 28.5919 57.2854 49.2732 56.7931 49.4974C56.5096 49.6266 56.3149 49.6266 56.0315 49.4974C55.5392 49.2732 41.7269 28.5919 40.9123 26.8596C40.5949 26.1845 40.1555 25.0121 39.9359 24.254C39.5215 22.8243 39.1083 19.9688 39.2897 19.7874C39.3467 19.7304 39.5333 19.8106 39.7044 19.9654C39.8894 20.1328 40.0669 20.1893 40.1422 20.1049C40.212 20.0268 40.4619 18.1696 40.6978 15.9778L41.1268 11.9926L41.7306 10.9972C43.8821 7.45044 47.2517 4.88614 51.3027 3.71236C53.2275 3.15474 54.342 3.03565 57.0255 3.10079C58.9163 3.14662 59.7017 3.23567 60.8696 3.5364ZM53.4994 5.77698C50.5832 6.39667 47.9052 7.86551 45.8877 9.95174C40.1802 15.8539 40.3409 25.1404 46.2485 30.7833C50.3623 34.7128 56.1463 35.9244 61.5165 33.9817C65.3639 32.5898 68.8118 29.1426 70.204 25.296C73.2985 16.7457 68.1793 7.62119 59.2485 5.7687C57.5003 5.40605 55.2294 5.40927 53.4994 5.77698ZM58.5586 8.14968C61.1286 8.61487 63.3495 9.81701 65.1821 11.7349C67.1438 13.7878 68.2138 16.0337 68.5685 18.8436C68.8791 21.3036 68.2671 24.1749 66.9609 26.3856C66.1171 27.8137 64.2811 29.7007 62.8947 30.5645C60.6068 31.9903 57.6217 32.6695 55.0627 32.3465C52.294 31.997 50.0217 30.9287 48.0359 29.0428C43.7583 24.9804 42.9454 18.6733 46.0562 13.6832C46.8658 12.3844 48.746 10.532 50.0718 9.72673C52.5903 8.1972 55.6649 7.62579 58.5586 8.14968ZM39.0201 8.58223C38.9749 8.85628 38.798 10.3519 38.6271 11.9062C38.4561 13.4602 38.2811 14.7669 38.2383 14.8098C38.1954 14.8526 37.7129 14.4444 37.1662 13.9026L36.172 12.9175L30.048 19.0387L23.9239 25.1599L21.1963 25.1164C18.7311 25.0768 18.3854 25.1038 17.6035 25.3965C16.6516 25.7531 15.4683 26.8652 15.0979 27.7518C14.922 28.1724 14.7439 28.2987 13.9954 28.5336C12.8703 28.8869 10.8727 29.8786 9.92144 30.5564C9.52069 30.8418 9.13758 31.0754 9.06997 31.0754C9.00236 31.0754 8.71123 30.8321 8.42301 30.5349L7.899 29.9943L13.1444 24.75L18.3898 19.5057L20.2317 21.3424L22.0735 23.1791L28.1641 17.0898L34.2546 11.0005L33.2691 10.0063C32.727 9.45957 32.3201 8.97553 32.3648 8.93077C32.4258 8.86992 37.45 8.23306 38.9038 8.10201C39.0444 8.08929 39.0784 8.22969 39.0201 8.58223ZM55.4512 19.3911L48.1291 26.7129L48.941 27.5147C49.3876 27.9556 49.8202 28.3164 49.9021 28.3164C50.1031 28.3164 64.5376 13.8733 64.5376 13.6723C64.5376 13.4729 63.1229 12.0692 62.922 12.0692C62.8402 12.0692 59.4784 15.3641 55.4512 19.3911ZM50.2033 13.0661C49.4043 13.3491 48.2123 14.5964 47.9959 15.3763C47.587 16.8485 47.8852 17.9949 48.9554 19.0647C50.4653 20.5745 52.5422 20.5834 54.069 19.0868C55.5895 17.5965 55.5461 15.3306 53.969 13.8557C52.9043 12.86 51.5736 12.581 50.2033 13.0661ZM52.0254 15.4612C52.9138 15.8659 52.8681 17.2138 51.9532 17.5927C50.9892 17.9918 50.0272 17.0348 50.4256 16.073C50.7069 15.3939 51.3435 15.1505 52.0254 15.4612ZM36.5631 16.8254C36.8111 17.0994 36.8469 17.4425 36.8623 19.6993C36.881 22.4399 37.0736 23.6825 37.8171 25.864C38.4888 27.8347 39.2825 29.2102 42.7645 34.439C44.6214 37.2273 46.1407 39.577 46.1407 39.6604C46.1407 39.7574 44.3217 39.8121 41.0938 39.8121H36.0471L35.7867 39.0074C35.4117 37.8476 34.2737 35.7287 33.3982 34.5598C32.2352 33.0071 29.9747 30.9592 28.3875 30.0202C27.2061 29.3213 26.9778 29.1219 26.8964 28.7174C26.8437 28.4547 26.6202 27.8739 26.3997 27.4268L25.999 26.614L31.0482 21.564C33.8252 18.7867 36.1387 16.5142 36.1893 16.5142C36.2401 16.5142 36.4082 16.6543 36.5631 16.8254ZM58.7886 21.6496C57.9895 21.9325 56.7976 23.1799 56.5811 23.9597C56.1722 25.4319 56.4704 26.5783 57.5406 27.6482C59.0506 29.1579 61.1274 29.1668 62.6542 27.6702C64.1747 26.1799 64.1313 23.9141 62.5542 22.4391C61.4895 21.4434 60.1588 21.1645 58.7886 21.6496ZM60.6106 24.0447C61.499 24.4493 61.4534 25.7972 60.5384 26.1761C59.5744 26.5752 58.6124 25.6182 59.0109 24.6564C59.2922 23.9774 59.9287 23.734 60.6106 24.0447ZM23.4416 27.8301C23.987 28.1225 24.5243 28.9334 24.5243 29.4637C24.5243 30.0362 22.6884 36.2063 22.403 36.5933C22.2475 36.8041 21.8333 37.0778 21.4825 37.2017C20.9217 37.3997 20.7681 37.3997 20.2073 37.2017C19.8565 37.0778 19.4423 36.8041 19.2868 36.5933C19.0014 36.2063 17.1655 30.0362 17.1655 29.4637C17.1655 28.9334 17.7029 28.1225 18.2482 27.8301C19.0137 27.4196 22.6762 27.4196 23.4416 27.8301ZM15.7925 34.0083C16.7182 37.2374 17.1366 38.1403 18.0191 38.8134C19.7242 40.1136 21.9656 40.1136 23.6707 38.8134C24.5263 38.1609 24.9626 37.2591 25.7577 34.5002C26.1576 33.1121 26.5202 31.9411 26.5633 31.898C26.6786 31.7826 27.8272 32.5304 29.0131 33.4929C31.408 35.4365 33.2357 38.4266 33.98 41.6186C34.4102 43.4636 34.3446 46.5053 33.8328 48.428C32.4578 53.5954 28.4732 57.5789 23.3389 58.9188C21.4873 59.4019 17.85 59.5823 15.9748 59.2839C13.6042 58.9067 11.5471 57.837 9.88342 56.1166C8.73223 54.9261 8.05798 53.8183 7.4958 52.1932L7.05688 50.9246L5.17411 50.8433C4.13852 50.7987 3.17973 50.7088 3.0436 50.6433C2.5524 50.4074 2.448 49.7989 2.448 47.1693C2.448 43.7802 2.49491 43.6779 4.12457 43.5033L4.95795 43.4141L5.15556 42.2414C5.72786 38.8422 7.73849 35.4502 10.4625 33.2876C11.7521 32.2639 14.2743 30.8743 14.6956 30.9554C14.8592 30.987 15.1912 31.9111 15.7925 34.0083ZM26.9282 36.5199L26.1892 37.3623L26.8547 38.123C28.2494 39.7169 29.0047 41.37 29.317 43.5122L29.4925 44.7169H30.7098H31.9271L31.8243 43.6123C31.6733 41.9875 31.3371 40.8229 30.572 39.2756C29.891 37.8981 28.2109 35.672 27.8551 35.6757C27.7517 35.6767 27.3346 36.0565 26.9282 36.5199ZM10.9566 37.5902C10.1575 37.8732 8.96556 39.1205 8.74909 39.9004C8.34022 41.3726 8.63841 42.5189 9.70865 43.5888C11.2186 45.0986 13.2954 45.1075 14.8222 43.6109C16.3427 42.1206 16.2993 39.8547 14.7223 38.3797C13.6575 37.3841 12.3268 37.1051 10.9566 37.5902ZM12.7786 39.9853C13.667 40.3899 13.6214 41.7379 12.7064 42.1167C11.7424 42.5159 10.7804 41.5588 11.1789 40.597C11.4602 39.918 12.0967 39.6746 12.7786 39.9853ZM50.884 46.6191C52.5836 49.1656 54.0005 51.1297 54.2963 51.3494C55.7166 52.404 57.5526 52.2949 58.7988 51.082C59.1476 50.7425 59.5079 50.3268 59.5996 50.1582C59.8266 49.7401 59.9949 49.9415 60.4671 51.1956C61.5763 54.1417 61.622 58.9524 60.5692 61.9469C59.3619 65.3814 56.291 68.1728 52.567 69.2209L51.5831 69.4979L51.5018 71.4003C51.4572 72.4467 51.3672 73.4142 51.3018 73.5503C51.0962 73.9783 50.4636 74.1458 49.0535 74.1458C47.5358 74.1458 47.0231 73.9855 46.7708 73.432C46.6751 73.2222 46.6006 72.2222 46.6006 71.1497V69.241H39.2418H31.8831V71.1497C31.8831 73.2062 31.7563 73.7082 31.1691 73.9757C30.685 74.1962 28.1753 74.1962 27.6912 73.9757C27.1009 73.7067 26.9772 73.2081 26.9772 71.0975V69.1365L26.1385 68.9488C24.2703 68.5309 22.0984 66.9697 20.9965 65.2532C20.5168 64.5057 19.7813 62.6511 19.775 62.1731C19.7724 61.9728 20.022 61.9057 21.0924 61.8188C28.3041 61.2337 34.3758 56.064 36.2874 48.8814C36.6318 47.5875 36.6837 47.0732 36.6971 44.832L36.7123 42.2647H42.3449L47.9778 42.2645L50.884 46.6191ZM41.6948 48.3955V49.6217H39.8551H38.0154L38.0163 51.7293C38.0174 54.3894 38.1435 54.851 39.1437 55.8508C40.1045 56.8116 40.6297 56.977 42.7224 56.978C43.5827 56.9785 44.4546 57.0556 44.6602 57.1491C45.1402 57.3678 45.3741 57.8919 45.3741 58.7488V59.4314H43.465C41.3498 59.4314 40.8862 59.3035 40.6133 58.6451C40.4344 58.2133 40.4087 58.2052 39.2233 58.2052C37.8751 58.2052 37.8697 58.211 38.1811 59.3325C38.3608 59.979 39.3688 61.17 40.0226 61.5079C40.25 61.6255 40.7193 61.767 41.0654 61.8223L41.6948 61.923V63.1296V64.3362H42.9212H44.1477V63.11V61.8838H45.9874H47.8271V59.7652C47.8271 57.1439 47.6457 56.515 46.6103 55.5466C45.7033 54.6985 45.121 54.5285 43.1201 54.5275C42.2597 54.527 41.3878 54.4499 41.1822 54.3564C40.7022 54.1377 40.4683 53.6136 40.4683 52.7567V52.0741H42.3774C44.4926 52.0741 44.9562 52.202 45.2291 52.8604C45.408 53.2922 45.4338 53.3003 46.6191 53.3003C47.9948 53.3003 48.0104 53.28 47.5864 52.0358C47.1707 50.8162 45.6076 49.6263 44.416 49.6226C44.1829 49.6219 44.1477 49.4608 44.1477 48.3955V47.1693H42.9212H41.6948V48.3955ZM56.4123 57.7898C56.4123 60.1019 55.1964 62.3621 53.2897 63.5943C52.7832 63.9216 52.3455 64.2125 52.3173 64.2407C52.1917 64.3662 53.2023 66.3288 53.3926 66.3288C53.7837 66.3288 55.536 65.0848 56.3755 64.2113C57.8643 62.6621 58.8652 60.113 58.8652 57.8704V56.9789H57.6387H56.4123V57.7898ZM65.5165 64.5094C66.4049 64.914 66.3592 66.2619 65.4443 66.6408C64.4803 67.0399 63.5183 66.0829 63.9167 65.1211C64.198 64.4421 64.8345 64.1987 65.5165 64.5094Z" fill="#37923B"/>
</g>
<defs>
<clipPath id="clip0_101_198">
<rect width="76" height="76" fill="white" transform="translate(0 0.59729)"/>
</clipPath>
</defs>
</svg>
