<svg width="76" height="77" viewBox="0 0 76 77" fill="none" xmlns="http://www.w3.org/2000/svg">
<g clip-path="url(#clip0_101_212)">
<path fill-rule="evenodd" clip-rule="evenodd" d="M2.38276 0.820485C1.58423 1.10337 0.393025 2.35044 0.176693 3.13013C-0.0603227 3.98398 -0.0581777 46.2393 0.178838 47.0985C0.406354 47.9226 1.71201 49.2285 2.53597 49.4561C2.96618 49.5749 8.29589 49.6256 20.4232 49.626C34.1413 49.6268 37.6971 49.6663 37.6953 49.8185C37.6939 49.9239 37.6015 50.3204 37.4898 50.6996L37.2867 51.3892L35.8068 51.9041L34.327 52.4189V55.7566V59.0943L35.7987 59.6091L37.2704 60.1239L37.6889 61.4265C37.919 62.1429 38.4023 63.3126 38.7632 64.0257L39.4189 65.3225L38.7881 66.5948C38.4411 67.2945 38.1572 67.9531 38.1572 68.0583C38.1572 68.1634 39.1825 69.2733 40.4356 70.5245C43.0084 73.0936 42.6743 72.9695 44.4963 72.0327L45.5497 71.4912L46.871 72.1522C47.5978 72.5159 48.7785 73.0023 49.4947 73.2332L50.797 73.6532L51.3118 75.1253L51.8264 76.5973H55.1635H58.5006L59.0152 75.1253L59.53 73.6532L60.8322 73.236C61.5485 73.0066 62.7365 72.5179 63.472 72.1499L64.8097 71.4812L66.0942 72.1237C66.8007 72.4771 67.4406 72.7663 67.5163 72.7663C67.592 72.7663 68.6849 71.7334 69.945 70.4709L72.2359 68.1757L71.5572 66.7905L70.8785 65.4054L71.5476 64.0673C71.9157 63.3313 72.4057 62.1429 72.6366 61.4265L73.0565 60.1239L74.5283 59.6091L76 59.0943V55.7566V52.4189L74.5283 51.9041L73.0565 51.3892L72.6366 50.0867C72.4057 49.3703 71.9223 48.1954 71.5624 47.4758L70.9081 46.1674L71.5388 44.9124C71.8859 44.2222 72.1698 43.5686 72.1698 43.46C72.1698 43.3513 71.3769 42.4717 70.4079 41.5052L68.6459 39.748V21.7286C68.6459 5.75866 68.6185 3.62908 68.4054 3.00355C68.1074 2.1287 66.9387 0.989815 66.0999 0.75689C65.6833 0.641193 56.1397 0.593535 34.2504 0.59752C7.68718 0.602577 2.90367 0.635983 2.38276 0.820485ZM65.4811 3.21196C65.6864 3.30559 65.9309 3.55016 66.0245 3.7555C66.146 4.02229 66.1946 9.1606 66.1946 21.7436V39.3583L65.4872 39.6909L64.78 40.0234L63.4572 39.3615C62.7297 38.9976 61.5485 38.5109 60.8322 38.28L59.53 37.8599L59.0152 36.3879L58.5006 34.9159H55.1635H51.8264L51.3118 36.3879L50.797 37.8599L49.4947 38.2784C48.7785 38.5086 47.609 38.9921 46.896 39.353L45.5995 40.0088L44.3274 39.3779C43.6279 39.0308 42.9694 38.7469 42.8643 38.7469C42.7592 38.7469 41.6421 39.7797 40.382 41.0423L38.091 43.3375L38.7668 44.7167L39.4428 46.096L39.1854 46.6356L38.9282 47.1751H21.2372C8.59817 47.1751 3.4396 47.1265 3.17286 47.005C2.96756 46.9114 2.72304 46.6668 2.62943 46.4615C2.38736 45.9299 2.38781 4.28587 2.63004 3.75427C2.72396 3.54817 2.94795 3.30819 3.12797 3.22115C3.60675 2.9893 64.9726 2.98026 65.4811 3.21196ZM15.6489 5.808C14.4552 6.12061 13.2637 6.72009 12.1116 7.58758C11.7324 7.87307 10.976 8.39792 10.4306 8.75405C8.64857 9.91745 7.57457 11.6762 7.40237 13.7126C7.21254 15.9599 8.45676 17.9698 10.4839 18.6902C10.8105 18.8062 11.112 19.0048 11.154 19.1315C11.4293 19.9624 12.0485 21.1259 12.5245 21.707C13.3858 22.7584 13.0347 23.0672 9.96664 23.9552C7.64873 24.6261 6.69714 25.1356 5.9625 26.099C5.10974 27.2172 4.91072 28.0339 4.91072 30.4129V32.464H17.1675H29.4243V30.4129C29.4243 28.0339 29.2252 27.2172 28.3725 26.099C27.6328 25.1289 26.6712 24.6177 24.2614 23.9131C22.262 23.3284 21.5147 22.9844 21.3581 22.5762C21.3126 22.4574 21.5212 22.0602 21.8218 21.6932C22.2885 21.1235 22.9072 19.9573 23.1813 19.1306C23.2234 19.0034 23.5839 18.8121 23.9823 18.7056C24.9634 18.4431 26.3535 17.0683 26.7161 16.0017C27.2243 14.5072 26.8718 12.0982 25.8667 10.196C25.2193 8.97089 23.4964 7.2477 22.2715 6.6001C20.2502 5.53171 17.8157 5.24055 15.6489 5.808ZM31.8756 9.17148V12.8492H47.8094H63.7432V9.17148V5.49371H47.8094H31.8756V9.17148ZM19.5369 8.18047C22.0754 8.84186 23.9148 10.8274 24.3984 13.4283C24.4905 13.9233 24.5197 14.5732 24.4636 14.8726C24.3616 15.4159 23.7604 16.2205 23.4564 16.2205C23.3544 16.2205 23.2959 15.6136 23.2959 14.5542V12.8879L20.653 12.8165C18.1534 12.7489 17.9354 12.7181 16.6313 12.2501C15.8729 11.9779 15.0409 11.7194 14.7826 11.6757C13.9184 11.5297 13.0147 11.9008 12.1667 12.7501C11.3248 13.5932 11.0414 14.2664 11.04 15.4272C11.0393 15.9715 10.9919 16.0806 10.7751 16.039C10.4198 15.9705 9.8191 14.878 9.81588 14.2946C9.80791 12.8068 10.8464 11.1944 12.2389 10.5323C12.6323 10.3453 13.2041 9.97047 13.5096 9.69954C15.2274 8.17572 17.4086 7.62605 19.5369 8.18047ZM39.2297 9.17148V10.3974H36.7783H34.327V9.17148V7.94555H36.7783H39.2297V9.17148ZM46.5837 9.17148V10.3974H44.1324H41.681V9.17148V7.94555H44.1324H46.5837V9.17148ZM53.9378 9.17148V10.3974H51.4865H49.0351V9.17148V7.94555H51.4865H53.9378V9.17148ZM61.2919 9.17148V10.3974H58.8405H56.3892V9.17148V7.94555H58.8405H61.2919V9.17148ZM15.573 14.5449C16.8723 14.9992 18.5603 15.3011 19.8021 15.3011H20.8776L20.8163 17.0251C20.7509 18.8693 20.5804 19.4081 19.7929 20.2572C18.4214 21.736 15.9136 21.736 14.5421 20.2572C13.7459 19.3984 13.5827 18.8745 13.519 16.9708C13.4712 15.5429 13.5085 15.0976 13.7088 14.7105C14.0088 14.13 14.3104 14.1032 15.573 14.5449ZM31.8756 16.527V17.7529H47.8094H63.7432V16.527V15.3011H47.8094H31.8756V16.527ZM31.8756 21.4307V22.6566H45.3581H58.8405V21.4307V20.2048H45.3581H31.8756V21.4307ZM61.2919 21.4307V22.6566H62.5176H63.7432V21.4307V20.2048H62.5176H61.2919V21.4307ZM16.7371 23.8335C17.2257 23.8839 17.9245 23.8441 18.3265 23.7428C19.0033 23.5724 19.0576 23.5821 19.2859 23.9138C20.0642 25.0454 21.0815 25.6105 23.6313 26.3281C24.6161 26.6052 25.6371 26.9629 25.9 27.1227C26.4843 27.4782 26.9649 28.4839 26.9695 29.3609L26.9729 30.0122H17.1675H7.36207L7.36544 29.3609C7.37004 28.4839 7.85066 27.4782 8.435 27.1227C8.69791 26.9629 9.7189 26.6052 10.7037 26.3281C11.6887 26.0509 12.8245 25.6608 13.2276 25.4611C13.9498 25.1033 15.1758 23.9908 15.1758 23.693C15.1758 23.6067 15.3258 23.5845 15.5205 23.642C15.71 23.6979 16.2576 23.7842 16.7371 23.8335ZM31.8756 26.3344V27.5603H33.1013H34.327V26.3344V25.1085H33.1013H31.8756V26.3344ZM36.7783 26.3344V27.5603H38.004H39.2297V26.3344V25.1085H38.004H36.7783V26.3344ZM41.681 26.3344V27.5603H52.7121H63.7432V26.3344V25.1085H52.7121H41.681V26.3344ZM31.8756 31.2381V32.464H47.8094H63.7432V31.2381V30.0122H47.8094H31.8756V31.2381ZM4.91072 39.8196V44.7233H17.1675H29.4243V39.8196V34.9159H17.1675H4.91072V39.8196ZM26.9729 39.8196V42.2714H17.1675H7.36207V39.8196V37.3677H17.1675H26.9729V39.8196ZM57.1427 38.6212C57.3602 39.2685 57.5897 39.8487 57.6527 39.9106C57.7157 39.9725 58.4037 40.184 59.1816 40.3806C60.6564 40.7536 62.2569 41.445 63.7616 42.3592L64.6459 42.8965L65.7228 42.3542C66.3152 42.0558 66.8859 41.8117 66.991 41.8117C67.2462 41.8117 69.1056 43.6639 69.1056 43.9181C69.1056 44.028 68.8615 44.6027 68.5632 45.1951L68.021 46.2722L68.5582 47.1567C69.4722 48.6617 70.1635 50.2626 70.5364 51.7377C70.733 52.5157 70.9444 53.2039 71.0063 53.2669C71.0682 53.3299 71.6482 53.5596 72.2954 53.7775L73.472 54.1735V55.7566V57.3397L72.2954 57.7357C71.6482 57.9536 71.0682 58.1833 71.0063 58.2463C70.9444 58.3093 70.733 58.9975 70.5364 59.7755C70.1635 61.2506 69.4722 62.8515 68.5582 64.3564L68.021 65.2409L68.5632 66.3181C68.8615 66.9105 69.1056 67.4813 69.1056 67.5864C69.1056 67.8417 67.2537 69.7015 66.9995 69.7015C66.8897 69.7015 66.3152 69.4574 65.7228 69.159L64.6459 68.6167L63.7616 69.1539C62.2569 70.0682 60.6564 70.7596 59.1816 71.1326C58.4037 71.3292 57.7157 71.5407 57.6527 71.6026C57.5897 71.6645 57.3601 72.2447 57.1422 72.8919L56.7463 74.0688H55.1635H53.5807L53.1848 72.8919C52.9669 72.2447 52.7373 71.6645 52.6743 71.6026C52.6113 71.5407 51.9233 71.3292 51.1454 71.1326C49.6706 70.7596 48.07 70.0682 46.5654 69.1539L45.681 68.6167L44.6041 69.159C44.0118 69.4574 43.4411 69.7015 43.336 69.7015C43.0808 69.7015 41.2214 67.8493 41.2214 67.595C41.2214 67.4851 41.4655 66.9105 41.7638 66.3181L42.306 65.2409L41.7688 64.3564C40.8548 62.8515 40.1635 61.2506 39.7906 59.7755C39.594 58.9975 39.3826 58.3093 39.3207 58.2463C39.2588 58.1833 38.6787 57.9536 38.0316 57.7357L36.8549 57.3397V55.7566V54.1735L38.0316 53.7775C38.6787 53.5596 39.2588 53.3299 39.3207 53.2669C39.3826 53.2039 39.594 52.5157 39.7906 51.7377C40.1635 50.2626 40.8548 48.6617 41.7688 47.1567L42.306 46.2722L41.7638 45.1951C41.4655 44.6027 41.2214 44.0318 41.2214 43.9267C41.2214 43.6714 43.0733 41.8117 43.3274 41.8117C43.4373 41.8117 44.0118 42.0558 44.6041 42.3542L45.681 42.8965L46.5654 42.3592C48.0719 41.4439 49.6712 40.7534 51.1523 40.3789C51.9338 40.1814 52.6306 39.9573 52.7005 39.8813C52.7702 39.8052 52.983 39.2603 53.1733 38.6703C53.3636 38.0803 53.55 37.5435 53.5876 37.4775C53.6251 37.4114 54.3515 37.3769 55.2015 37.4008L56.7469 37.4443L57.1427 38.6212ZM52.9927 42.4179C47.6777 43.3916 43.6107 47.099 42.107 52.341C41.6132 54.0628 41.6132 57.4504 42.107 59.1722C42.8378 61.7198 43.9456 63.583 45.8165 65.4107C48.5497 68.0811 52.0883 69.404 55.9295 69.1915C61.7661 68.8686 66.5594 64.9608 68.22 59.1722C68.7138 57.4504 68.7138 54.0628 68.22 52.341C66.8483 47.5596 63.3835 44.0738 58.6607 42.7244C57.4036 42.3654 54.2199 42.1931 52.9927 42.4179ZM57.2755 44.9671C63.2929 46.2102 67.1684 51.9738 65.9508 57.869C65.0305 62.326 61.7219 65.6362 57.2766 66.5478C51.3556 67.7619 45.4986 63.7908 44.3493 57.7832C42.8977 50.1943 49.7399 43.4102 57.2755 44.9671ZM53.9378 48.401V49.627H52.0993H50.2608L50.2617 51.734C50.2628 54.3935 50.3889 54.8551 51.3884 55.8547C52.3486 56.8152 52.8735 56.9805 54.9648 56.9816C55.8246 56.982 56.6959 57.0591 56.9013 57.1526C57.381 57.3713 57.6148 57.8952 57.6148 58.752V59.4344H55.7069C53.5931 59.4344 53.1298 59.3066 52.8571 58.6482C52.6783 58.2166 52.6525 58.2084 51.4679 58.2084C50.1206 58.2084 50.1152 58.2143 50.4264 59.3355C50.606 59.9819 51.6133 61.1726 52.2667 61.5105C52.494 61.628 52.9629 61.7694 53.3089 61.8248L53.9378 61.9254V63.1317V64.3381H55.1635H56.3892V63.1121V61.8862H58.2277H60.0662V59.7681C60.0662 57.1474 59.8849 56.5187 58.8502 55.5505C57.9438 54.7026 57.3619 54.5327 55.3622 54.5316C54.5024 54.5311 53.6311 54.454 53.4256 54.3606C52.9459 54.1419 52.7121 53.618 52.7121 52.7612V52.0788H54.6201C56.7339 52.0788 57.1972 52.2066 57.4699 52.8649C57.6487 53.2966 57.6744 53.3047 58.8591 53.3047C60.2338 53.3047 60.2494 53.2844 59.8257 52.0405C59.4103 50.8212 57.8482 49.6316 56.6573 49.6279C56.4244 49.6271 56.3892 49.4661 56.3892 48.401V47.1751H55.1635H53.9378V48.401Z" fill="#37923B"/>
</g>
<defs>
<clipPath id="clip0_101_212">
<rect width="76" height="76" fill="white" transform="translate(0 0.59729)"/>
</clipPath>
</defs>
</svg>
