<svg width="76" height="77" viewBox="0 0 76 77" fill="none" xmlns="http://www.w3.org/2000/svg">
<g clip-path="url(#clip0_101_228)">
<path fill-rule="evenodd" clip-rule="evenodd" d="M53.2909 0.760975C52.5533 0.881567 51.2318 1.22079 50.3544 1.51475C47.0287 2.62877 44.6758 4.11914 42.1738 6.69637C38.8062 10.1656 36.7788 15.2001 36.7788 20.0944C36.7788 21.3208 37.0749 23.8384 37.3213 24.708C37.405 25.0035 37.3031 25.0435 35.8635 25.28C33.0298 25.7456 30.5243 27.0322 28.4949 29.0639C26.4654 31.0954 25.1801 33.6036 24.715 36.4403C24.4788 37.8814 24.4388 37.9834 24.1436 37.8996C23.969 37.8501 23.171 37.7076 22.3702 37.583C14.2538 36.3204 5.97069 40.6153 2.16945 48.0574C-3.32458 58.8131 2.0309 71.7837 13.5603 75.6457C15.8329 76.407 17.8445 76.6813 20.3778 76.5755C22.5972 76.4828 23.8763 76.2574 25.8186 75.6172C34.7131 72.6849 40.4268 63.4156 39.0011 54.2314C38.8767 53.4298 38.733 52.6258 38.6819 52.4449C38.5973 52.1459 38.6635 52.1066 39.4071 52.013C45.8258 51.206 50.6002 46.4259 51.4187 39.9876C51.5132 39.2433 51.5528 39.1771 51.8513 39.2617C53.1378 39.6267 55.402 39.8331 57.2376 39.7527C60.231 39.6217 62.606 39.0124 65.1307 37.7283C77.1416 31.619 79.7212 15.7503 70.2354 6.32585C67.4135 3.52216 64.1849 1.76054 60.3029 0.906882C58.7637 0.568273 54.9526 0.489106 53.2909 0.760975ZM58.505 3.14551C62.2337 3.61361 65.8236 5.37707 68.4983 8.05464C74.2951 13.8576 75.175 22.8988 70.6069 29.7218C70.1691 30.3758 69.766 30.9108 69.7113 30.9108C69.6565 30.9108 69.5298 30.5851 69.4297 30.1871C68.5127 26.542 65.3848 22.8557 61.9627 21.3873C61.559 21.2141 61.1996 21.0433 61.1641 21.0077C61.1285 20.9721 61.4145 20.6059 61.7995 20.1938C64.498 17.3059 64.3481 12.7459 61.4643 9.99225C58.5515 7.21096 54.2378 7.21096 51.325 9.99225C48.4412 12.7459 48.2913 17.3059 50.9898 20.1938C51.3748 20.6059 51.6622 20.9661 51.6283 20.9945C51.5946 21.0229 51.1759 21.2225 50.6982 21.4382C48.8996 22.25 46.9437 23.8209 45.7465 25.4151C45.3614 25.928 44.9868 26.454 44.9142 26.5839C44.8003 26.7877 44.6064 26.745 43.5 26.2729C42.7948 25.9719 41.7266 25.6078 41.1261 25.4639C39.9051 25.171 39.9697 25.2632 39.5135 23.1629C39.2591 21.9919 39.2601 18.2391 39.515 17.0259C41.4147 7.98714 49.5725 2.02428 58.505 3.14551ZM25.1959 4.45407C17.4334 5.76033 11.2964 11.9552 10.0319 19.7611C9.90635 20.5352 9.8035 21.2202 9.8032 21.2834C9.80289 21.3466 8.73357 21.3985 7.427 21.3985C6.12043 21.3985 5.05142 21.4439 5.05142 21.4996C5.05142 21.6328 14.6075 34.4267 14.707 34.4267C14.8065 34.4267 24.3626 21.6328 24.3626 21.4996C24.3626 21.4439 23.3281 21.3985 22.0637 21.3985H19.7647V20.9627C19.7647 20.2088 20.3611 18.1454 20.9208 16.9628C22.2675 14.1172 24.7839 11.6288 27.5617 10.3958C28.036 10.1851 30.2862 9.47689 32.5622 8.82192L36.7003 7.63088L36.7437 5.9228L36.7871 4.21488L31.6094 4.23053C28.0297 4.24127 26.0503 4.31031 25.1959 4.45407ZM30.2556 6.79932C30.1756 6.87051 29.3858 7.15465 28.5007 7.43051C25.7829 8.27742 24.0207 9.31641 22.0276 11.2468C18.9423 14.2354 17.1592 18.3821 17.1592 22.5693V23.8533H18.3087C18.9409 23.8533 19.4582 23.8979 19.4582 23.9525C19.4582 24.0892 14.8094 30.2971 14.707 30.2971C14.6046 30.2971 9.95585 24.0892 9.95585 23.9525C9.95585 23.8979 10.4625 23.8533 11.0819 23.8533H12.2081L12.3008 22.0505C12.457 19.0207 13.3722 16.1788 14.9711 13.7598C15.7322 12.6081 17.4552 10.7971 18.6609 9.88117C20.6199 8.3931 23.495 7.197 25.9719 6.83983C27.1862 6.66461 30.4415 6.63378 30.2556 6.79932ZM58.4217 10.8499C59.4849 11.3372 60.3115 12.1657 60.82 13.2538C61.647 15.0235 61.2355 17.3095 59.838 18.7085C57.9745 20.5738 54.8148 20.5738 52.9513 18.7085C51.7566 17.5125 51.2406 15.5858 51.6955 14.0195C52.5596 11.044 55.6587 9.58352 58.4217 10.8499ZM58.5856 22.9166C59.0371 23.3686 58.0709 24.6265 57.0333 24.9377C56.2248 25.1802 55.3096 24.9386 54.691 24.3194C54.2687 23.8967 53.9722 23.1586 54.1523 22.9784C54.4945 22.6358 58.2528 22.5835 58.5856 22.9166ZM51.9355 24.6212C52.3782 25.6017 53.3653 26.5893 54.3762 27.0631L55.1686 27.4345V31.1672V34.8999H56.3947H57.6208V31.1522V27.4046L58.4386 27.0296C59.4523 26.5652 60.2568 25.7755 60.7811 24.7304C61.0021 24.2901 61.2042 23.9059 61.2306 23.8764C61.3909 23.6969 63.0852 24.8725 64.0716 25.8478C65.9454 27.7004 67.0115 29.8766 67.3535 32.5473L67.4549 33.3398L66.331 34.1398C62.5272 36.8471 57.4735 37.9322 53.0995 36.9805C51.279 36.5843 51.3995 36.6745 51.1123 35.4918C50.552 33.1837 49.4023 31.0514 47.763 29.2793C47.2841 28.7618 46.8923 28.2715 46.8923 28.1898C46.8923 27.919 48.3851 26.0624 49.1389 25.396C49.7944 24.8162 51.2622 23.8586 51.5013 23.8547C51.5494 23.8539 51.7448 24.1988 51.9355 24.6212ZM40.03 27.7527C46.0385 28.9036 50.0157 34.7777 48.7942 40.697C47.872 45.1669 44.5713 48.472 40.1169 49.3863C34.1938 50.6018 28.3347 46.626 27.1851 40.6111C25.7401 33.0508 32.4776 26.3062 40.03 27.7527ZM36.777 31.2177V32.4451H34.9378H33.0986L33.0995 34.5547C33.1006 37.2174 33.2268 37.6795 34.2266 38.6803C35.1871 39.6419 35.7122 39.8075 37.8043 39.8085C38.6644 39.809 39.536 39.8862 39.7415 39.9798C40.2214 40.1987 40.4553 40.7233 40.4553 41.5811V42.2643H38.5467C36.4321 42.2643 35.9686 42.1363 35.6958 41.4772C35.517 41.045 35.4912 41.0369 34.3062 41.0369C32.9584 41.0369 32.953 41.0427 33.2643 42.1653C33.4439 42.8125 34.4516 44.0046 35.1053 44.3429C35.3326 44.4605 35.8017 44.6022 36.1478 44.6575L36.777 44.7584V45.9661V47.1739H38.0031H39.2292V45.9465V44.7191H41.0683H42.9075V42.5984C42.9075 39.9746 42.7262 39.3451 41.691 38.3757C40.7843 37.5268 40.2022 37.3567 38.2018 37.3556C37.3417 37.3551 36.4701 37.278 36.2646 37.1844C35.7847 36.9654 35.5508 36.4409 35.5508 35.5831V34.8999H37.4594C39.574 34.8999 40.0375 35.0278 40.3103 35.6869C40.4891 36.1191 40.5149 36.1273 41.6999 36.1273C43.0752 36.1273 43.0908 36.1069 42.6669 34.8615C42.2514 33.6407 40.6887 32.4497 39.4974 32.446C39.2644 32.4452 39.2292 32.284 39.2292 31.2177V29.9903H38.0031H36.777V31.2177ZM22.6767 40.1145C24.73 40.5778 24.6072 40.4921 24.8912 41.6621C25.8373 45.5585 28.4336 48.8465 31.9492 50.6002C32.991 51.12 34.5134 51.6571 35.4969 51.852C36.0221 51.956 36.0284 51.9689 36.4031 53.6944C37.1299 57.0422 36.6643 60.9662 35.1559 64.204C34.6221 65.3498 33.1176 67.7328 32.928 67.7328C32.8733 67.7328 32.7466 67.4071 32.6465 67.0091C31.7295 63.364 28.6016 59.6777 25.1795 58.2093C24.7758 58.036 24.4164 57.8653 24.3808 57.8297C24.3453 57.7941 24.6313 57.4279 25.0163 57.0158C28.7841 52.9835 26.7696 46.3626 21.3444 44.948C17.5332 43.9542 13.5119 46.3963 12.4894 50.3255C11.8874 52.6396 12.5486 55.2413 14.1835 56.9909C14.5557 57.3894 14.8603 57.7516 14.8603 57.7958C14.8603 57.8401 14.6361 57.9653 14.3622 58.0741C13.3721 58.4672 11.7493 59.494 10.7292 60.3729C8.87519 61.9703 7.27558 64.4768 6.64413 66.7739C6.49914 67.3014 6.33883 67.7328 6.28795 67.7328C6.23691 67.7328 5.83705 67.1977 5.39917 66.5438C0.801423 59.6766 1.71257 50.5862 7.57889 44.7958C10.15 42.2578 13.7638 40.464 17.3056 39.9673C18.4799 39.8027 21.6839 39.8905 22.6767 40.1145ZM56.433 49.1504C53.7988 52.6777 51.6435 55.609 51.6435 55.6646C51.6435 55.7203 52.678 55.7657 53.9425 55.7657H56.2414V56.2014C56.2414 56.9553 55.6451 59.0187 55.0853 60.2013C53.7386 63.0469 51.2222 65.5353 48.4444 66.7684C47.9701 66.979 45.7199 67.6872 43.4439 68.3422L39.3058 69.5333L39.2624 71.2413L39.219 72.9493L44.2435 72.9486C47.9563 72.9482 49.6348 72.8885 50.6736 72.7197C56.4328 71.7848 61.449 68.1656 64.0957 63.0359C64.9472 61.3853 65.6596 59.3256 65.8939 57.8369C65.9868 57.2462 66.0976 56.5386 66.1401 56.2643L66.2175 55.7657H68.586C69.8887 55.7657 70.9547 55.7203 70.9547 55.6646C70.9547 55.5314 61.3986 42.7374 61.2991 42.7374C61.257 42.7374 59.0673 45.6234 56.433 49.1504ZM63.7159 49.9897C64.9998 51.7073 66.0503 53.1571 66.0503 53.2116C66.0503 53.2662 65.5436 53.3109 64.9242 53.3109H63.7981L63.7053 55.1136C63.4981 59.1341 62.0435 62.6014 59.3833 65.415C57.9365 66.9453 56.6194 67.9202 54.7819 68.8209C52.5545 69.9127 50.7198 70.3458 47.8885 70.448C46.3936 70.502 45.6432 70.4788 45.7429 70.3815C45.8272 70.2992 46.5168 70.0419 47.2755 69.8097C50.0316 68.9663 51.9433 67.8617 53.9227 65.9686C57.0365 62.9905 58.8469 58.8092 58.8469 54.5949V53.3109H57.6974C57.0652 53.3109 56.5479 53.2662 56.5479 53.2116C56.5479 53.0749 61.1967 46.867 61.2991 46.867C61.3445 46.867 62.432 48.2722 63.7159 49.9897ZM21.6385 47.6719C24.692 49.0713 25.4279 53.1548 23.0548 55.5305C21.1913 57.3958 18.0316 57.3958 16.1681 55.5305C14.9734 54.3345 14.4573 52.4078 14.9122 50.8415C15.7763 47.866 18.8755 46.4055 21.6385 47.6719ZM21.046 59.5454C21.4371 59.5991 21.7571 59.6877 21.7571 59.7424C21.7571 59.8968 19.7417 62.2862 19.6114 62.2862C19.4753 62.2862 17.4658 59.8933 17.4658 59.7312C17.4658 59.5049 19.8492 59.3811 21.046 59.5454ZM16.4591 62.5041C17.097 63.2568 17.619 63.9734 17.619 64.0966C17.619 64.3162 16.0773 65.5849 15.8105 65.5849C15.7359 65.5849 15.5923 64.7736 15.4916 63.7821C15.3909 62.7907 15.271 61.7894 15.2254 61.5575C15.1798 61.3255 15.1777 61.1355 15.2209 61.1355C15.264 61.1355 15.8212 61.7514 16.4591 62.5041ZM23.7842 63.3986C23.6525 64.601 23.4902 65.5849 23.4236 65.5849C23.1681 65.5849 21.6039 64.3024 21.6039 64.093C21.6039 63.8837 23.8901 61.0679 23.9807 61.1658C24.0044 61.1912 23.916 62.1962 23.7842 63.3986ZM13.2446 66.1286C13.5859 69.2876 13.7297 70.1838 13.8849 70.1241C13.9951 70.0817 15.3287 69.1107 16.8484 67.9662L19.6114 65.8853L22.3745 67.9662C23.8942 69.1107 25.2278 70.0817 25.338 70.1241C25.4932 70.1838 25.637 69.2876 25.9783 66.1286C26.2709 63.4219 26.4775 62.0561 26.5944 62.0561C26.86 62.0561 28.2498 63.585 28.8785 64.5689C29.8091 66.0252 30.3289 67.5004 30.5695 69.3692L30.6717 70.1618L29.5478 70.9618C26.2347 73.3198 21.9099 74.4765 17.9639 74.0596C15.0025 73.7468 12.0238 72.6335 9.67507 70.9618L8.55119 70.1618L8.65342 69.3692C8.89404 67.5004 9.41376 66.0252 10.3444 64.5689C10.9731 63.585 12.3629 62.0561 12.6285 62.0561C12.7454 62.0561 12.952 63.4219 13.2446 66.1286Z" fill="#37923B"/>
</g>
<defs>
<clipPath id="clip0_101_228">
<rect width="76" height="76" fill="white" transform="translate(0 0.59729)"/>
</clipPath>
</defs>
</svg>
