<svg width="76" height="77" viewBox="0 0 76 77" fill="none" xmlns="http://www.w3.org/2000/svg">
<g clip-path="url(#clip0_101_219)">
<path fill-rule="evenodd" clip-rule="evenodd" d="M18.9732 39.4892C20.7287 39.628 22.1224 40.1551 22.2896 41.7604L22.2892 41.7605C22.4133 42.9352 21.9259 43.645 21.1412 44.0528C22.4406 44.3532 23.2588 45.116 23.1114 46.8418L21.8428 46.8418L18.0874 47.0246L16.1713 46.5962L14.2149 46.3351L14.2341 44.114L14.2149 41.5751C14.161 41.3002 13.9792 40.9828 13.4286 40.9872C13.4452 40.9686 12.4417 40.9961 12.4417 40.9961L12.4304 39.5472L14.3049 39.5323L14.3052 39.5392C14.5869 39.5366 14.8759 39.5288 15.1701 39.5203L15.1538 37.2923L16.5122 37.281L16.5284 39.4653C16.8912 39.4551 17.2564 39.445 17.6133 39.442L17.5969 37.2721L18.9564 37.2606L18.9732 39.4892ZM16.8089 43.7695L16.8164 43.7696C17.7454 43.777 19.7703 43.7934 19.76 42.3885C19.7494 40.9514 17.8019 41.0192 16.8508 41.0523L16.8492 41.0524C16.7429 41.0561 16.6492 41.0594 16.572 41.06L16.5924 43.7689C16.6545 43.7683 16.7274 43.7689 16.8089 43.7695ZM16.926 45.127C16.8024 45.1309 16.6931 45.1344 16.6028 45.1351L16.6028 46.5961L20.4244 46.5961C20.4116 45.016 18.0756 45.0904 16.9354 45.1267L16.9352 45.1267L16.926 45.127Z" fill="#37923B"/>
<path fill-rule="evenodd" clip-rule="evenodd" d="M11.2891 0.743774C5.97158 1.71737 1.90271 5.42436 0.398244 10.6659C-0.0957837 12.3876 -0.0957837 15.7748 0.398244 17.4964C1.1294 20.0438 2.23778 21.9069 4.10951 23.7344C6.84406 26.4045 10.3843 27.7273 14.2273 27.5148C20.0666 27.1919 24.8622 23.2845 26.5236 17.4964C27.0177 15.7748 27.0177 12.3876 26.5236 10.6659C25.1513 5.88496 21.6848 2.39953 16.9598 1.05023C15.7021 0.691217 12.5169 0.518992 11.2891 0.743774ZM43.121 0.813645C41.6043 1.48753 41.2755 3.05994 42.197 5.23237C42.3031 5.48259 42.1067 5.50052 39.267 5.50144C37.5219 5.50189 35.9617 5.57437 35.6102 5.67136C35.2155 5.78031 34.7159 6.12123 34.2081 6.62826C33.2955 7.53934 33.0016 8.34898 33.1298 9.59931C33.2066 10.3486 33.1893 10.4037 32.8784 10.4047C32.049 10.4067 31.2921 10.77 30.5304 11.5315C29.0618 12.9995 29.002 14.9208 30.3764 16.4816C30.9851 17.1728 30.9884 17.1838 30.8092 17.8537C30.3995 19.3849 30.6742 20.4521 31.7567 21.5341C32.5183 22.2956 33.2752 22.6589 34.1047 22.6609C34.4155 22.6618 34.4328 22.717 34.356 23.4662C34.2279 24.7166 34.5217 25.5262 35.4344 26.4373C36.2267 27.2284 36.9543 27.5624 37.889 27.5641C38.2745 27.5649 38.315 27.6073 38.2198 27.9098C37.9687 28.7069 37.9571 31.7728 38.2008 32.9226C38.4959 34.3149 39.2563 35.95 40.1053 37.0177C40.4533 37.4551 42.5485 39.3513 44.7616 41.2314L48.7851 44.6497L41.2156 44.6895C37.0523 44.7113 33.6181 44.7013 33.5841 44.6673C33.5501 44.6333 33.6816 44.0982 33.8764 43.4784C34.1816 42.5075 34.2291 42.0435 34.2196 40.1295C34.2097 38.1413 34.1666 37.7896 33.8088 36.7839C33.2569 35.2312 32.5665 34.1404 31.3814 32.948C29.5614 31.117 27.508 30.1933 24.9641 30.0618C22.368 29.9276 20.139 30.6561 18.0977 32.3057L17.1397 33.0799L16.1817 32.3057C14.1404 30.6561 11.9114 29.9276 9.31527 30.0618C6.77769 30.193 4.72647 31.1134 2.89781 32.9413C0.946534 34.892 0.121877 36.8367 0.0119736 39.7465C-0.110039 42.9841 0.695612 45.3351 2.65057 47.4461C3.2007 48.04 3.65089 48.6271 3.65089 48.7506C3.65089 48.8743 2.99561 50.7178 2.19471 52.8473C1.39381 54.9768 0.73853 56.7789 0.73853 56.8518C0.73853 56.9248 1.66972 56.9844 2.80784 56.9844H4.87714V66.7908V76.5973H37.9861H71.095V66.7908V56.9844H73.1643C74.3024 56.9844 75.2345 56.9328 75.2354 56.8695C75.2365 56.8062 74.2245 54.0492 72.9866 50.7426L70.7358 44.7308L66.1253 44.6902L61.5149 44.6497L65.4505 41.3163C67.6152 39.4829 69.6698 37.6557 70.0163 37.2558C70.8753 36.2644 71.8172 34.3159 72.108 32.9279C72.3502 31.7731 72.3376 28.7037 72.0875 27.9098L71.979 27.565H73.9894H76V14.0812V0.59729H69.8687H63.7374V1.8231V3.0489H62.675C61.6793 3.0489 61.4842 2.98639 59.5711 2.05416C59.5211 2.02979 59.4719 2.00582 59.4236 1.98226C58.4805 1.52246 57.8502 1.21518 57.1883 1.01007C55.8546 0.596835 54.3923 0.59835 49.984 0.602918L49.6416 0.603266C44.9336 0.608016 43.4782 0.654903 43.121 0.813645ZM15.5739 3.29269C21.5942 4.53565 25.4715 10.2988 24.2534 16.1934C23.3326 20.65 20.0225 23.9598 15.575 24.8713C9.65127 26.0853 3.79145 22.1146 2.64168 16.1076C1.18933 8.51937 8.03475 1.73591 15.5739 3.29269ZM56.1143 3.27583C56.5937 3.40071 57.8833 3.95232 58.98 4.50164L60.9739 5.50052H62.3558H63.7374V12.8554V20.2102L62.5495 20.2128C60.1332 20.2183 57.9943 20.9779 56.1117 22.4992L55.1536 23.2735L54.1956 22.4992C53.6688 22.0734 52.7548 21.4867 52.1646 21.1954C50.2713 20.2611 49.7836 20.2159 41.5571 20.2128C36.3974 20.211 34.0538 20.1579 33.7884 20.037C32.9371 19.6494 32.9371 18.3194 33.7884 17.9317C34.0527 17.8113 36.2446 17.7586 40.9823 17.7586H47.7961V16.5328V15.307H40.3691C35.1758 15.307 32.8278 15.2549 32.5622 15.1338C31.7108 14.7462 31.7108 13.4162 32.5622 13.0285C32.8278 12.9075 35.1758 12.8554 40.3691 12.8554H47.7961V11.6295V10.4037H42.2085C38.3821 10.4037 36.5012 10.3492 36.2409 10.2306C35.3896 9.84294 35.3896 8.51294 36.2409 8.12527C36.508 8.00361 39.012 7.95213 44.661 7.95213H52.7011V6.72632V5.50052H49.3904C46.6388 5.50052 45.9901 5.45807 45.5498 5.24907C44.9097 4.94553 44.3082 4.19457 44.176 3.53402L44.079 3.0489H49.6608C54.0965 3.0489 55.4214 3.09548 56.1143 3.27583ZM73.5475 14.0812V25.1134H72.265H70.9825L70.5743 24.4968C69.9142 23.4998 68.4329 22.1569 67.2747 21.5057L66.197 20.8997L66.1935 11.9743L66.1899 3.0489H69.8687H73.5475V14.0812ZM12.2347 6.72632V7.95213H10.3953H8.55591L8.55683 10.059C8.55791 12.7182 8.68406 13.1797 9.68407 14.1792C10.6447 15.1396 11.1698 15.305 13.2621 15.306C14.1223 15.3065 14.9941 15.3836 15.1996 15.477C15.6795 15.6957 15.9135 16.2196 15.9135 17.0763V17.7586H14.0046C11.8898 17.7586 11.4263 17.6308 11.1534 16.9725C10.9746 16.5409 10.9488 16.5328 9.76362 16.5328C8.41566 16.5328 8.4103 16.5386 8.72161 17.6597C8.90126 18.3061 9.90909 19.4966 10.5628 19.8345C10.7902 19.952 11.2593 20.0934 11.6055 20.1488L12.2347 20.2494V21.4556V22.6618H13.4609H14.6872V21.436V20.2102H16.5266H18.366V18.0923C18.366 15.4718 18.1846 14.8432 17.1494 13.8751C16.2425 13.0273 15.6604 12.8573 13.6597 12.8563C12.7995 12.8558 11.9278 12.7787 11.7223 12.6853C11.2423 12.4666 11.0084 11.9427 11.0084 11.0861V10.4037H12.9172C15.0321 10.4037 15.4956 10.5315 15.7684 11.1898C15.9473 11.6214 15.9731 11.6295 17.1583 11.6295C18.5337 11.6295 18.5493 11.6092 18.1253 10.3654C17.7098 9.14622 16.1469 7.95673 14.9554 7.95305C14.7224 7.95228 14.6872 7.79124 14.6872 6.72632V5.50052H13.4609H12.2347V6.72632ZM40.5589 23.4662C40.1832 23.9086 39.7529 24.4604 39.603 24.692C39.3674 25.0561 39.2295 25.1134 38.5888 25.1134C37.6372 25.1134 37.133 24.8781 36.9048 24.3274C36.679 23.7823 36.9218 23.0858 37.4221 22.844C37.6059 22.7551 38.5405 22.6779 39.4991 22.6722L41.2422 22.6618L40.5589 23.4662ZM32.4336 47.3695C32.3966 47.4749 31.7857 49.1288 31.076 51.0449L29.7855 54.5289L17.0083 54.5308C6.85234 54.5323 4.24501 54.4935 4.29835 54.3412C4.33529 54.236 4.94628 52.5819 5.65597 50.6658L6.94645 47.1818L19.7236 47.1799C29.8796 47.1784 32.4869 47.2172 32.4336 47.3695ZM70.3162 50.6658C71.0258 52.5819 71.6368 54.236 71.6738 54.3412C71.7271 54.4937 68.6293 54.5323 56.5113 54.5308L41.2816 54.5289L39.9911 51.0449C39.2814 49.1288 38.6705 47.4749 38.6335 47.3695C38.5802 47.217 41.678 47.1784 53.796 47.1799L69.0257 47.1818L70.3162 50.6658ZM34.3073 62.0408V74.1457H20.8185H7.32966V65.565V56.9844H19.4133H31.4972L32.6236 53.9582C33.9511 50.3923 34.1336 49.936 34.2326 49.936C34.2737 49.936 34.3073 55.3832 34.3073 62.0408ZM38.3012 53.5751L39.5715 56.9844H54.1069H68.6425V65.565V74.1457H52.7011H36.7598V62.0102C36.7598 54.9655 36.8167 49.9358 36.8955 50.0203C36.97 50.1003 37.6027 51.6999 38.3012 53.5751ZM19.5922 65.565V66.7908H25.7235H31.8548V65.565V64.3392H25.7235H19.5922V65.565ZM53.9274 68.0166V71.6941H60.0587H66.1899V68.0166V64.3392H60.0587H53.9274V68.0166ZM63.7374 68.0166V69.2425H60.0587H56.3799V68.0166V66.7908H60.0587H63.7374V68.0166ZM19.5922 70.4683V71.6941H20.8185H22.0447V70.4683V69.2425H20.8185H19.5922V70.4683ZM24.4972 70.4683V71.6941H25.7235H26.9498V70.4683V69.2425H25.7235H24.4972V70.4683ZM29.4023 70.4683V71.6941H30.6285H31.8548V70.4683V69.2425H30.6285H29.4023V70.4683ZM49.3597 22.8311C50.9122 23.1547 52.0451 23.8298 53.653 25.3895L55.1536 26.8452L56.6543 25.3895C58.2956 23.7975 59.4068 23.1463 61.0538 22.8115C62.8239 22.4516 64.9566 22.8984 66.5663 23.9664C68.5519 25.2838 69.6465 27.2753 69.823 29.8912C69.9746 32.1384 69.365 34.1769 68.1006 35.6517C67.7916 36.0121 65.2994 38.2012 62.5624 40.5166C57.8877 44.471 57.5494 44.7263 56.9829 44.7263H56.3799H53.9274H53.3244C52.7579 44.7263 52.4196 44.471 47.7449 40.5166C45.0079 38.2012 42.5112 36.0121 42.197 35.6517C40.737 33.9778 40.0883 31.103 40.6075 28.6068C41.4262 24.6698 45.4483 22.0158 49.3597 22.8311ZM15.6391 35.196C14.0311 33.6363 12.8982 32.9612 11.3458 32.6376C7.759 31.8898 4.08636 33.9904 2.86731 37.4866C2.46571 38.6382 2.32623 40.7481 2.56902 41.996C2.67249 42.5286 2.95514 43.3779 3.19687 43.8836C3.6302 44.7898 4.48091 45.9521 4.71083 45.9521C4.77552 45.9521 4.91133 45.6763 5.01234 45.3392L5.19597 44.7263L8.75365 44.7265L12.3113 44.7266L23.189 44.7263H30.6035L30.9037 44.2283C31.5674 43.1274 31.7789 42.1373 31.7631 40.2062C31.7512 38.7623 31.6805 38.183 31.434 37.5085C30.3891 34.6494 27.997 32.8064 24.9655 32.5248C22.6592 32.3104 20.81 33.0914 18.6403 35.196L17.1397 36.6516L15.6391 35.196Z" fill="#37923B"/>
<path fill-rule="evenodd" clip-rule="evenodd" d="M59.8436 32.2605C59.6764 30.6551 58.2828 30.1281 56.5273 29.9893L56.5105 27.7606L55.151 27.7722L55.1674 29.9421C54.8105 29.945 54.4453 29.9551 54.0825 29.9654L54.0662 27.7811L52.7079 27.7924L52.7241 30.0204C52.4299 30.0288 52.141 30.0367 51.8593 30.0392L51.859 30.0323L49.9845 30.0473L49.9957 31.4961C49.9957 31.4961 50.9992 31.4687 50.9827 31.4872C51.5332 31.4828 51.7151 31.8002 51.7689 32.0752L51.7882 34.6141C51.8262 34.6139 51.8757 34.6151 51.9319 34.6223L51.7887 34.6236L51.8147 38.1804C51.7919 38.3535 51.6921 38.6301 51.3075 38.634C51.325 38.6492 50.3195 38.6419 50.3195 38.6419L50.0618 40.2646L51.8308 40.2498C52.0306 40.2483 52.2284 40.2488 52.4241 40.2493C52.5508 40.2496 52.6766 40.25 52.8014 40.2498L52.8191 42.5041L54.1767 42.493L54.1602 40.2627C54.5327 40.2675 54.8935 40.2674 55.2457 40.2641L55.2618 42.484L56.6209 42.4726L56.6044 40.2226C58.8883 40.0727 60.4837 39.4847 60.6655 37.3419C60.8129 35.6161 59.9947 34.8533 58.6952 34.5528C59.48 34.145 59.9673 33.4352 59.8432 32.2606L59.8436 32.2605ZM57.9781 37.0963C57.9901 38.6425 55.5561 38.6286 54.4435 38.6223C54.3438 38.6217 54.2548 38.6212 54.179 38.6218L54.1568 35.6351C54.2494 35.6344 54.3619 35.6308 54.4892 35.6267C55.6293 35.5904 57.9656 35.5159 57.9784 37.0962L57.9781 37.0963ZM54.3704 34.2696C55.2994 34.2771 57.3244 34.2934 57.3141 32.8886C57.3035 31.4515 55.356 31.5193 54.4049 31.5524C54.298 31.5561 54.2036 31.5594 54.126 31.5601L54.1465 34.2689C54.2104 34.2684 54.2859 34.269 54.3704 34.2696Z" fill="#37923B"/>
</g>
<defs>
<clipPath id="clip0_101_219">
<rect width="76" height="76" fill="white" transform="translate(0 0.59729)"/>
</clipPath>
</defs>
</svg>
