<svg width="954" height="324" viewBox="0 0 954 324" fill="none" xmlns="http://www.w3.org/2000/svg">
<line opacity="0.15" x1="1" y1="299.267" x2="893.292" y2="299.267" stroke="black"/>
<line opacity="0.1" x1="1" y1="254.392" x2="893.292" y2="254.392" stroke="black"/>
<line opacity="0.1" x1="1" y1="211.312" x2="893.292" y2="211.312" stroke="black"/>
<line opacity="0.1" x1="1" y1="168.231" x2="893.292" y2="168.231" stroke="black"/>
<line opacity="0.1" x1="1" y1="125.151" x2="893.292" y2="125.151" stroke="black"/>
<line opacity="0.1" x1="1" y1="82.0706" x2="893.292" y2="82.0707" stroke="black"/>
<line opacity="0.1" x1="1" y1="38.9903" x2="893.292" y2="38.9904" stroke="black"/>
<path opacity="0.48" d="M917.796 298.11C918.026 299.47 918.876 300.09 920.566 300.17V301.02H921.246V300.18C923.076 300.11 923.986 299.43 923.986 298.14C923.986 297.57 923.786 297.13 923.386 296.83C922.986 296.54 922.276 296.29 921.246 296.1V294.03C922.096 294.12 922.606 294.47 922.776 295.1H923.856C923.646 293.75 922.836 293.13 921.246 293.04V292.18H920.566V293.03C918.786 293.08 917.896 293.74 917.896 295.01C917.896 295.57 918.096 295.99 918.486 296.28C918.876 296.57 919.566 296.81 920.566 296.99V299.18C919.596 299.1 919.066 298.78 918.866 298.11H917.796ZM922.966 298.21C922.966 298.84 922.396 299.17 921.246 299.2V297.11C922.496 297.36 922.966 297.66 922.966 298.21ZM920.566 295.97C919.336 295.74 918.916 295.47 918.916 294.95C918.916 294.35 919.466 294.04 920.566 294.01V295.97ZM925.326 295.61L927.156 294.4V300.1H928.136V293.1H927.466L924.786 294.81L925.326 295.61ZM930.069 300.01C930.179 300.12 930.369 300.18 930.619 300.18C930.869 300.18 931.059 300.12 931.169 300.01C931.279 299.9 931.339 299.71 931.339 299.46C931.339 299.21 931.279 299.02 931.169 298.91C931.059 298.8 930.869 298.74 930.619 298.74C930.369 298.74 930.179 298.8 930.069 298.91C929.959 299.02 929.899 299.21 929.899 299.46C929.899 299.71 929.959 299.9 930.069 300.01ZM935.566 293.02C933.406 293.02 932.476 294.09 932.476 296.6C932.476 299.11 933.406 300.18 935.566 300.18C937.736 300.18 938.656 299.11 938.656 296.6C938.656 294.09 937.736 293.02 935.566 293.02ZM933.456 296.6C933.456 294.73 934.096 293.94 935.566 293.94C937.056 293.94 937.676 294.73 937.676 296.6C937.676 298.45 937.046 299.26 935.566 299.26C934.096 299.26 933.456 298.45 933.456 296.6ZM942.871 293.02C940.711 293.02 939.781 294.09 939.781 296.6C939.781 299.11 940.711 300.18 942.871 300.18C945.041 300.18 945.961 299.11 945.961 296.6C945.961 294.09 945.041 293.02 942.871 293.02ZM940.761 296.6C940.761 294.73 941.401 293.94 942.871 293.94C944.361 293.94 944.981 294.73 944.981 296.6C944.981 298.45 944.351 299.26 942.871 299.26C941.401 299.26 940.761 298.45 940.761 296.6Z" fill="black"/>
<path opacity="0.48" d="M819.163 320.742C821.673 320.742 822.743 319.692 822.743 317.242C822.743 314.792 821.673 313.742 819.163 313.742H816.243V320.742H819.163ZM817.283 314.722H819.133C820.943 314.722 821.713 315.482 821.713 317.242C821.713 319.002 820.943 319.762 819.133 319.762H817.283V314.722ZM829.893 319.762H825.183V317.702H829.393V316.782H825.183V314.722H829.893V313.742H824.143V320.742H829.893V319.762ZM831.686 319.972C832.256 320.542 833.166 320.822 834.416 320.822C836.506 320.822 837.586 320.072 837.896 318.382H836.826C836.536 319.392 835.776 319.842 834.416 319.842C832.646 319.842 831.876 319.072 831.876 317.242C831.876 315.412 832.646 314.642 834.416 314.642C835.776 314.642 836.536 315.092 836.826 316.102H837.896C837.586 314.412 836.506 313.662 834.416 313.662C833.166 313.662 832.256 313.942 831.686 314.512C831.116 315.082 830.836 315.992 830.836 317.242C830.836 318.492 831.116 319.402 831.686 319.972Z" fill="black"/>
<path opacity="0.48" d="M685.558 315.252L690.218 320.742H691.258V313.742H690.218V319.232L685.558 313.742H684.518V320.742H685.558V315.252ZM693.506 314.512C692.936 315.082 692.656 315.992 692.656 317.242C692.656 318.492 692.936 319.402 693.506 319.972C694.076 320.542 694.986 320.822 696.236 320.822C697.486 320.822 698.396 320.542 698.966 319.972C699.536 319.402 699.816 318.492 699.816 317.242C699.816 315.992 699.536 315.082 698.966 314.512C698.396 313.942 697.486 313.662 696.236 313.662C694.986 313.662 694.076 313.942 693.506 314.512ZM694.306 315.252C694.706 314.842 695.346 314.642 696.236 314.642C697.126 314.642 697.766 314.842 698.176 315.252C698.576 315.662 698.776 316.332 698.776 317.242C698.776 318.152 698.576 318.812 698.176 319.222C697.766 319.632 697.126 319.842 696.236 319.842C695.346 319.842 694.706 319.632 694.306 319.222C693.896 318.812 693.696 318.152 693.696 317.242C693.696 316.332 693.896 315.662 694.306 315.252ZM704.665 320.742L707.855 313.742H706.745L704.075 319.662L701.395 313.742H700.285L703.475 320.742H704.665Z" fill="black"/>
<path opacity="0.48" d="M555.654 314.512C555.084 315.082 554.804 315.992 554.804 317.242C554.804 318.492 555.084 319.402 555.654 319.972C556.224 320.542 557.134 320.822 558.384 320.822C559.634 320.822 560.544 320.542 561.114 319.972C561.684 319.402 561.964 318.492 561.964 317.242C561.964 315.992 561.684 315.082 561.114 314.512C560.544 313.942 559.634 313.662 558.384 313.662C557.134 313.662 556.224 313.942 555.654 314.512ZM556.454 315.252C556.854 314.842 557.494 314.642 558.384 314.642C559.274 314.642 559.914 314.842 560.324 315.252C560.724 315.662 560.924 316.332 560.924 317.242C560.924 318.152 560.724 318.812 560.324 319.222C559.914 319.632 559.274 319.842 558.384 319.842C557.494 319.842 556.854 319.632 556.454 319.222C556.044 318.812 555.844 318.152 555.844 317.242C555.844 316.332 556.044 315.662 556.454 315.252ZM563.935 319.972C564.505 320.542 565.415 320.822 566.665 320.822C568.755 320.822 569.835 320.072 570.145 318.382H569.075C568.785 319.392 568.025 319.842 566.665 319.842C564.895 319.842 564.125 319.072 564.125 317.242C564.125 315.412 564.895 314.642 566.665 314.642C568.025 314.642 568.785 315.092 569.075 316.102H570.145C569.835 314.412 568.755 313.662 566.665 313.662C565.415 313.662 564.505 313.942 563.935 314.512C563.365 315.082 563.085 315.992 563.085 317.242C563.085 318.492 563.365 319.402 563.935 319.972ZM577.577 313.742H570.657V314.722H573.597V320.742H574.637V314.722H577.577V313.742Z" fill="black"/>
<path opacity="0.48" d="M424.115 318.752C424.365 320.202 425.315 320.822 427.265 320.822C429.295 320.822 430.305 320.142 430.305 318.782C430.305 318.192 430.085 317.742 429.655 317.442C429.225 317.142 428.435 316.892 427.285 316.682C426.515 316.552 425.975 316.412 425.685 316.252C425.385 316.102 425.235 315.882 425.235 315.592C425.235 314.962 425.835 314.642 427.045 314.642C428.275 314.642 428.895 314.972 429.095 315.742H430.175C429.935 314.272 429.005 313.672 427.115 313.672C425.185 313.672 424.215 314.332 424.215 315.652C424.215 316.232 424.425 316.662 424.835 316.952C425.245 317.242 426.005 317.482 427.095 317.672C428.705 317.922 429.285 318.252 429.285 318.852C429.285 319.512 428.645 319.842 427.375 319.842C426.085 319.842 425.415 319.512 425.185 318.752H424.115ZM437.345 319.762H432.635V317.702H436.845V316.782H432.635V314.722H437.345V313.742H431.595V320.742H437.345V319.762ZM439.851 320.742V318.222H442.291C443.971 318.222 444.691 317.552 444.691 315.982C444.691 314.412 443.971 313.742 442.291 313.742H438.811V320.742H439.851ZM439.851 314.722H442.231C443.231 314.722 443.661 315.102 443.661 315.982C443.661 316.862 443.231 317.242 442.231 317.242H439.851V314.722Z" fill="black"/>
<path opacity="0.48" d="M292.824 319.252L296.904 319.242L297.594 320.742H298.694L295.454 313.742H294.264L291.024 320.742H292.134L292.824 319.252ZM296.454 318.262L293.274 318.272L294.864 314.822L296.454 318.262ZM299.464 317.722C299.464 319.892 300.464 320.822 302.784 320.822C305.114 320.822 306.104 319.892 306.104 317.722V313.742H305.064V317.632C305.064 319.182 304.384 319.842 302.784 319.842C301.194 319.842 300.504 319.182 300.504 317.632V313.742H299.464V317.722ZM307.39 317.242C307.39 318.502 307.68 319.412 308.27 319.972C308.85 320.542 309.81 320.822 311.15 320.822C313.43 320.822 314.43 320.072 314.43 318.322V317.002H310.92V317.922H313.38V318.322C313.38 319.372 312.69 319.842 311.16 319.842C309.2 319.842 308.43 319.082 308.43 317.242C308.43 315.412 309.2 314.642 310.97 314.642C312.26 314.642 313.01 315.052 313.33 315.972H314.42C314.09 314.372 313.01 313.662 310.97 313.662C308.46 313.662 307.39 314.732 307.39 317.242Z" fill="black"/>
<path opacity="0.48" d="M166.322 318.642C166.322 320.152 167.192 320.822 169.182 320.822C171.172 320.822 172.032 320.062 172.032 318.312V313.742H170.992V318.242C170.992 319.332 170.432 319.842 169.192 319.842C167.922 319.842 167.372 319.462 167.372 318.652V318.092H166.322V318.642ZM173.508 317.722C173.508 319.892 174.508 320.822 176.828 320.822C179.158 320.822 180.148 319.892 180.148 317.722V313.742H179.108V317.632C179.108 319.182 178.428 319.842 176.828 319.842C175.238 319.842 174.548 319.182 174.548 317.632V313.742H173.508V317.722ZM187.194 320.742V319.762H182.754V313.742H181.714V320.742H187.194Z" fill="black"/>
<path opacity="0.48" d="M35.743 318.642C35.743 320.152 36.613 320.822 38.603 320.822C40.593 320.822 41.453 320.062 41.453 318.312V313.742H40.413V318.242C40.413 319.332 39.853 319.842 38.613 319.842C37.343 319.842 36.793 319.462 36.793 318.652V318.092H35.743V318.642ZM42.9289 317.722C42.9289 319.892 43.9289 320.822 46.2489 320.822C48.5789 320.822 49.5689 319.892 49.5689 317.722V313.742H48.5289V317.632C48.5289 319.182 47.8489 319.842 46.2489 319.842C44.6589 319.842 43.9689 319.182 43.9689 317.632V313.742H42.9289V317.722ZM52.1746 315.252L56.8346 320.742H57.8746V313.742H56.8346V319.232L52.1746 313.742H51.1346V320.742H52.1746V315.252Z" fill="black"/>
<path opacity="0.48" d="M917.796 255.029C918.026 256.389 918.876 257.009 920.566 257.089V257.939H921.246V257.099C923.076 257.029 923.986 256.349 923.986 255.059C923.986 254.489 923.786 254.049 923.386 253.749C922.986 253.459 922.276 253.209 921.246 253.019V250.949C922.096 251.039 922.606 251.389 922.776 252.019H923.856C923.646 250.669 922.836 250.049 921.246 249.959V249.099H920.566V249.949C918.786 249.999 917.896 250.659 917.896 251.929C917.896 252.489 918.096 252.909 918.486 253.199C918.876 253.489 919.566 253.729 920.566 253.909V256.099C919.596 256.019 919.066 255.699 918.866 255.029H917.796ZM922.966 255.129C922.966 255.759 922.396 256.089 921.246 256.119V254.029C922.496 254.279 922.966 254.579 922.966 255.129ZM920.566 252.889C919.336 252.659 918.916 252.389 918.916 251.869C918.916 251.269 919.466 250.959 920.566 250.929V252.889ZM927.636 249.939C925.746 249.939 924.916 250.579 924.916 252.069H925.896C925.896 251.229 926.436 250.859 927.606 250.859C928.806 250.859 929.326 251.239 929.326 252.109C929.326 252.639 929.146 252.909 928.676 253.069L926.276 253.889C925.466 254.159 925.056 254.779 925.056 255.759V257.019H930.356V256.099H926.036V255.669C926.036 255.149 926.226 254.879 926.696 254.719L929.126 253.899C929.956 253.629 930.306 253.079 930.306 252.079C930.306 250.569 929.506 249.939 927.636 249.939ZM931.543 256.929C931.653 257.039 931.843 257.099 932.093 257.099C932.343 257.099 932.533 257.039 932.643 256.929C932.753 256.819 932.813 256.629 932.813 256.379C932.813 256.129 932.753 255.939 932.643 255.829C932.533 255.719 932.343 255.659 932.093 255.659C931.843 255.659 931.653 255.719 931.543 255.829C931.433 255.939 931.373 256.129 931.373 256.379C931.373 256.629 931.433 256.819 931.543 256.929ZM937.041 249.939C934.881 249.939 933.951 251.009 933.951 253.519C933.951 256.029 934.881 257.099 937.041 257.099C939.211 257.099 940.131 256.029 940.131 253.519C940.131 251.009 939.211 249.939 937.041 249.939ZM934.931 253.519C934.931 251.649 935.571 250.859 937.041 250.859C938.531 250.859 939.151 251.649 939.151 253.519C939.151 255.369 938.521 256.179 937.041 256.179C935.571 256.179 934.931 255.369 934.931 253.519ZM944.346 249.939C942.186 249.939 941.256 251.009 941.256 253.519C941.256 256.029 942.186 257.099 944.346 257.099C946.516 257.099 947.436 256.029 947.436 253.519C947.436 251.009 946.516 249.939 944.346 249.939ZM942.236 253.519C942.236 251.649 942.876 250.859 944.346 250.859C945.836 250.859 946.456 251.649 946.456 253.519C946.456 255.369 945.826 256.179 944.346 256.179C942.876 256.179 942.236 255.369 942.236 253.519Z" fill="black"/>
<path opacity="0.48" d="M917.796 211.949C918.026 213.309 918.876 213.929 920.566 214.009V214.859H921.246V214.019C923.076 213.949 923.986 213.269 923.986 211.979C923.986 211.409 923.786 210.969 923.386 210.669C922.986 210.379 922.276 210.129 921.246 209.939V207.869C922.096 207.959 922.606 208.309 922.776 208.939H923.856C923.646 207.589 922.836 206.969 921.246 206.879V206.019H920.566V206.869C918.786 206.919 917.896 207.579 917.896 208.849C917.896 209.409 918.096 209.829 918.486 210.119C918.876 210.409 919.566 210.649 920.566 210.829V213.019C919.596 212.939 919.066 212.619 918.866 211.949H917.796ZM922.966 212.049C922.966 212.679 922.396 213.009 921.246 213.039V210.949C922.496 211.199 922.966 211.499 922.966 212.049ZM920.566 209.809C919.336 209.579 918.916 209.309 918.916 208.789C918.916 208.189 919.466 207.879 920.566 207.849V209.809ZM924.776 211.929C924.776 213.399 925.596 214.019 927.506 214.019C929.416 214.019 930.226 213.419 930.226 212.049C930.226 211.199 929.866 210.629 929.156 210.349C929.806 210.069 930.136 209.529 930.136 208.729C930.136 207.419 929.366 206.859 927.536 206.859C925.706 206.859 924.926 207.459 924.926 208.849H925.906C925.906 208.099 926.386 207.779 927.536 207.779C928.666 207.779 929.156 208.089 929.156 208.839C929.156 209.609 928.636 209.919 927.396 209.919H926.986V210.779H927.346C928.016 210.779 928.496 210.869 928.796 211.049C929.096 211.229 929.246 211.519 929.246 211.929C929.246 212.339 929.106 212.629 928.836 212.819C928.556 213.009 928.116 213.099 927.506 213.099C926.296 213.099 925.756 212.739 925.756 211.929H924.776ZM931.485 213.849C931.595 213.959 931.785 214.019 932.035 214.019C932.285 214.019 932.475 213.959 932.585 213.849C932.695 213.739 932.755 213.549 932.755 213.299C932.755 213.049 932.695 212.859 932.585 212.749C932.475 212.639 932.285 212.579 932.035 212.579C931.785 212.579 931.595 212.639 931.485 212.749C931.375 212.859 931.315 213.049 931.315 213.299C931.315 213.549 931.375 213.739 931.485 213.849ZM936.982 206.859C934.822 206.859 933.892 207.929 933.892 210.439C933.892 212.949 934.822 214.019 936.982 214.019C939.152 214.019 940.072 212.949 940.072 210.439C940.072 207.929 939.152 206.859 936.982 206.859ZM934.872 210.439C934.872 208.569 935.512 207.779 936.982 207.779C938.472 207.779 939.092 208.569 939.092 210.439C939.092 212.289 938.462 213.099 936.982 213.099C935.512 213.099 934.872 212.289 934.872 210.439ZM944.287 206.859C942.127 206.859 941.197 207.929 941.197 210.439C941.197 212.949 942.127 214.019 944.287 214.019C946.457 214.019 947.377 212.949 947.377 210.439C947.377 207.929 946.457 206.859 944.287 206.859ZM942.177 210.439C942.177 208.569 942.817 207.779 944.287 207.779C945.777 207.779 946.397 208.569 946.397 210.439C946.397 212.289 945.767 213.099 944.287 213.099C942.817 213.099 942.177 212.289 942.177 210.439Z" fill="black"/>
<path opacity="0.48" d="M917.796 168.869C918.026 170.229 918.876 170.849 920.566 170.929V171.779H921.246V170.939C923.076 170.869 923.986 170.189 923.986 168.899C923.986 168.329 923.786 167.889 923.386 167.589C922.986 167.299 922.276 167.049 921.246 166.859V164.789C922.096 164.879 922.606 165.229 922.776 165.859H923.856C923.646 164.509 922.836 163.889 921.246 163.799V162.939H920.566V163.789C918.786 163.839 917.896 164.499 917.896 165.769C917.896 166.329 918.096 166.749 918.486 167.039C918.876 167.329 919.566 167.569 920.566 167.749V169.939C919.596 169.859 919.066 169.539 918.866 168.869H917.796ZM922.966 168.969C922.966 169.599 922.396 169.929 921.246 169.959V167.869C922.496 168.119 922.966 168.419 922.966 168.969ZM920.566 166.729C919.336 166.499 918.916 166.229 918.916 165.709C918.916 165.109 919.466 164.799 920.566 164.769V166.729ZM924.826 169.359H928.996V170.859H929.976V169.359H931.216V168.439H929.976V163.859H928.476L924.826 168.439V169.359ZM928.996 164.609V168.439H925.986L928.996 164.609ZM932.178 170.769C932.288 170.879 932.478 170.939 932.728 170.939C932.978 170.939 933.168 170.879 933.278 170.769C933.388 170.659 933.448 170.469 933.448 170.219C933.448 169.969 933.388 169.779 933.278 169.669C933.168 169.559 932.978 169.499 932.728 169.499C932.478 169.499 932.288 169.559 932.178 169.669C932.068 169.779 932.008 169.969 932.008 170.219C932.008 170.469 932.068 170.659 932.178 170.769ZM937.676 163.779C935.516 163.779 934.586 164.849 934.586 167.359C934.586 169.869 935.516 170.939 937.676 170.939C939.846 170.939 940.766 169.869 940.766 167.359C940.766 164.849 939.846 163.779 937.676 163.779ZM935.566 167.359C935.566 165.489 936.206 164.699 937.676 164.699C939.166 164.699 939.786 165.489 939.786 167.359C939.786 169.209 939.156 170.019 937.676 170.019C936.206 170.019 935.566 169.209 935.566 167.359ZM944.981 163.779C942.821 163.779 941.891 164.849 941.891 167.359C941.891 169.869 942.821 170.939 944.981 170.939C947.151 170.939 948.071 169.869 948.071 167.359C948.071 164.849 947.151 163.779 944.981 163.779ZM942.871 167.359C942.871 165.489 943.511 164.699 944.981 164.699C946.471 164.699 947.091 165.489 947.091 167.359C947.091 169.209 946.461 170.019 944.981 170.019C943.511 170.019 942.871 169.209 942.871 167.359Z" fill="black"/>
<path opacity="0.48" d="M917.796 125.788C918.026 127.148 918.876 127.768 920.566 127.848V128.698H921.246V127.858C923.076 127.788 923.986 127.108 923.986 125.818C923.986 125.248 923.786 124.808 923.386 124.508C922.986 124.218 922.276 123.968 921.246 123.778V121.708C922.096 121.798 922.606 122.148 922.776 122.778H923.856C923.646 121.428 922.836 120.808 921.246 120.718V119.858H920.566V120.708C918.786 120.758 917.896 121.418 917.896 122.688C917.896 123.248 918.096 123.668 918.486 123.958C918.876 124.248 919.566 124.488 920.566 124.668V126.858C919.596 126.778 919.066 126.458 918.866 125.788H917.796ZM922.966 125.888C922.966 126.518 922.396 126.848 921.246 126.878V124.788C922.496 125.038 922.966 125.338 922.966 125.888ZM920.566 123.648C919.336 123.418 918.916 123.148 918.916 122.628C918.916 122.028 919.466 121.718 920.566 121.688V123.648ZM925.036 125.768C925.036 127.218 925.866 127.858 927.786 127.858C929.796 127.858 930.676 127.148 930.676 125.498C930.676 123.858 929.816 123.138 927.896 123.138C927.086 123.138 926.516 123.278 926.176 123.548V121.758H930.216V120.778H925.256V124.698H926.176C926.176 124.248 926.596 124.058 927.586 124.058C929.066 124.058 929.696 124.488 929.696 125.518C929.696 126.508 929.106 126.938 927.786 126.938C926.576 126.938 926.016 126.578 926.016 125.768H925.036ZM931.963 127.688C932.073 127.798 932.263 127.858 932.513 127.858C932.763 127.858 932.953 127.798 933.063 127.688C933.173 127.578 933.233 127.388 933.233 127.138C933.233 126.888 933.173 126.698 933.063 126.588C932.953 126.478 932.763 126.418 932.513 126.418C932.263 126.418 932.073 126.478 931.963 126.588C931.853 126.698 931.793 126.888 931.793 127.138C931.793 127.388 931.853 127.578 931.963 127.688ZM937.461 120.698C935.301 120.698 934.371 121.768 934.371 124.278C934.371 126.788 935.301 127.858 937.461 127.858C939.631 127.858 940.551 126.788 940.551 124.278C940.551 121.768 939.631 120.698 937.461 120.698ZM935.351 124.278C935.351 122.408 935.991 121.618 937.461 121.618C938.951 121.618 939.571 122.408 939.571 124.278C939.571 126.128 938.941 126.938 937.461 126.938C935.991 126.938 935.351 126.128 935.351 124.278ZM944.766 120.698C942.606 120.698 941.676 121.768 941.676 124.278C941.676 126.788 942.606 127.858 944.766 127.858C946.936 127.858 947.856 126.788 947.856 124.278C947.856 121.768 946.936 120.698 944.766 120.698ZM942.656 124.278C942.656 122.408 943.296 121.618 944.766 121.618C946.256 121.618 946.876 122.408 946.876 124.278C946.876 126.128 946.246 126.938 944.766 126.938C943.296 126.938 942.656 126.128 942.656 124.278Z" fill="black"/>
<path opacity="0.48" d="M917.796 82.7081C918.026 84.0681 918.876 84.6881 920.566 84.7681V85.6181H921.246V84.7781C923.076 84.7081 923.986 84.0281 923.986 82.7381C923.986 82.1681 923.786 81.7281 923.386 81.4281C922.986 81.1381 922.276 80.8881 921.246 80.6981V78.6281C922.096 78.7181 922.606 79.0681 922.776 79.6981H923.856C923.646 78.3481 922.836 77.7281 921.246 77.6381V76.7781H920.566V77.6281C918.786 77.6781 917.896 78.3381 917.896 79.6081C917.896 80.1681 918.096 80.5881 918.486 80.8781C918.876 81.1681 919.566 81.4081 920.566 81.5881V83.7781C919.596 83.6981 919.066 83.3781 918.866 82.7081H917.796ZM922.966 82.8081C922.966 83.4381 922.396 83.7681 921.246 83.7981V81.7081C922.496 81.9581 922.966 82.2581 922.966 82.8081ZM920.566 80.5681C919.336 80.3381 918.916 80.0681 918.916 79.5481C918.916 78.9481 919.466 78.6381 920.566 78.6081V80.5681ZM924.996 82.6181C924.996 84.1281 925.866 84.7781 927.876 84.7781C929.886 84.7781 930.746 84.0981 930.746 82.5381C930.746 80.9681 929.896 80.2981 927.866 80.2981C926.886 80.2981 926.256 80.5181 925.976 80.9481V80.0581C925.976 78.9881 926.516 78.5381 927.766 78.5381C929.016 78.5381 929.546 78.8481 929.546 79.5981H930.526C930.526 78.2081 929.696 77.6181 927.766 77.6181C925.816 77.6181 924.996 78.3581 924.996 80.1081V82.6181ZM925.976 82.5381C925.976 81.6081 926.546 81.2181 927.876 81.2181C929.206 81.2181 929.766 81.6081 929.766 82.5381C929.766 83.4581 929.206 83.8581 927.876 83.8581C926.546 83.8581 925.976 83.4581 925.976 82.5381ZM931.934 84.6081C932.044 84.7181 932.234 84.7781 932.484 84.7781C932.734 84.7781 932.924 84.7181 933.034 84.6081C933.144 84.4981 933.204 84.3081 933.204 84.0581C933.204 83.8081 933.144 83.6181 933.034 83.5081C932.924 83.3981 932.734 83.3381 932.484 83.3381C932.234 83.3381 932.044 83.3981 931.934 83.5081C931.824 83.6181 931.764 83.8081 931.764 84.0581C931.764 84.3081 931.824 84.4981 931.934 84.6081ZM937.432 77.6181C935.272 77.6181 934.342 78.6881 934.342 81.1981C934.342 83.7081 935.272 84.7781 937.432 84.7781C939.602 84.7781 940.522 83.7081 940.522 81.1981C940.522 78.6881 939.602 77.6181 937.432 77.6181ZM935.322 81.1981C935.322 79.3281 935.962 78.5381 937.432 78.5381C938.922 78.5381 939.542 79.3281 939.542 81.1981C939.542 83.0481 938.912 83.8581 937.432 83.8581C935.962 83.8581 935.322 83.0481 935.322 81.1981ZM944.736 77.6181C942.576 77.6181 941.646 78.6881 941.646 81.1981C941.646 83.7081 942.576 84.7781 944.736 84.7781C946.906 84.7781 947.826 83.7081 947.826 81.1981C947.826 78.6881 946.906 77.6181 944.736 77.6181ZM942.626 81.1981C942.626 79.3281 943.266 78.5381 944.736 78.5381C946.226 78.5381 946.846 79.3281 946.846 81.1981C946.846 83.0481 946.216 83.8581 944.736 83.8581C943.266 83.8581 942.626 83.0481 942.626 81.1981Z" fill="black"/>
<path opacity="0.48" d="M917.796 39.6277C918.026 40.9877 918.876 41.6077 920.566 41.6877V42.5377H921.246V41.6977C923.076 41.6277 923.986 40.9477 923.986 39.6577C923.986 39.0877 923.786 38.6477 923.386 38.3477C922.986 38.0577 922.276 37.8077 921.246 37.6177V35.5477C922.096 35.6377 922.606 35.9877 922.776 36.6177H923.856C923.646 35.2677 922.836 34.6477 921.246 34.5577V33.6977H920.566V34.5477C918.786 34.5977 917.896 35.2577 917.896 36.5277C917.896 37.0877 918.096 37.5077 918.486 37.7977C918.876 38.0877 919.566 38.3277 920.566 38.5077V40.6977C919.596 40.6177 919.066 40.2977 918.866 39.6277H917.796ZM922.966 39.7277C922.966 40.3577 922.396 40.6877 921.246 40.7177V38.6277C922.496 38.8777 922.966 39.1777 922.966 39.7277ZM920.566 37.4877C919.336 37.2577 918.916 36.9877 918.916 36.4677C918.916 35.8677 919.466 35.5577 920.566 35.5277V37.4877ZM929.056 35.5377L925.256 41.6177H926.376L930.176 35.5377V34.6177H924.616V35.5377H929.056ZM931.172 41.5277C931.282 41.6377 931.472 41.6977 931.722 41.6977C931.972 41.6977 932.162 41.6377 932.272 41.5277C932.382 41.4177 932.442 41.2277 932.442 40.9777C932.442 40.7277 932.382 40.5377 932.272 40.4277C932.162 40.3177 931.972 40.2577 931.722 40.2577C931.472 40.2577 931.282 40.3177 931.172 40.4277C931.062 40.5377 931.002 40.7277 931.002 40.9777C931.002 41.2277 931.062 41.4177 931.172 41.5277ZM936.67 34.5377C934.51 34.5377 933.58 35.6077 933.58 38.1177C933.58 40.6277 934.51 41.6977 936.67 41.6977C938.84 41.6977 939.76 40.6277 939.76 38.1177C939.76 35.6077 938.84 34.5377 936.67 34.5377ZM934.56 38.1177C934.56 36.2477 935.2 35.4577 936.67 35.4577C938.16 35.4577 938.78 36.2477 938.78 38.1177C938.78 39.9677 938.15 40.7777 936.67 40.7777C935.2 40.7777 934.56 39.9677 934.56 38.1177ZM943.975 34.5377C941.815 34.5377 940.885 35.6077 940.885 38.1177C940.885 40.6277 941.815 41.6977 943.975 41.6977C946.145 41.6977 947.065 40.6277 947.065 38.1177C947.065 35.6077 946.145 34.5377 943.975 34.5377ZM941.865 38.1177C941.865 36.2477 942.505 35.4577 943.975 35.4577C945.465 35.4577 946.085 36.2477 946.085 38.1177C946.085 39.9677 945.455 40.7777 943.975 40.7777C942.505 40.7777 941.865 39.9677 941.865 38.1177Z" fill="black"/>
<line opacity="0.1" x1="50.899" y1="298.87" x2="50.8991" y2="-1.71251e-08" stroke="url(#paint0_linear_201_210)"/>
<line opacity="0.1" x1="175.751" y1="298.87" x2="175.751" y2="-1.71251e-08" stroke="url(#paint1_linear_201_210)"/>
<line opacity="0.1" x1="305.185" y1="298.87" x2="305.185" y2="-1.71251e-08" stroke="url(#paint2_linear_201_210)"/>
<line opacity="0.1" x1="436.91" y1="298.87" x2="436.91" y2="-1.71251e-08" stroke="url(#paint3_linear_201_210)"/>
<line opacity="0.1" x1="566.344" y1="298.87" x2="566.344" y2="-1.71251e-08" stroke="url(#paint4_linear_201_210)"/>
<line opacity="0.1" x1="696.923" y1="298.87" x2="696.923" y2="-1.71251e-08" stroke="url(#paint5_linear_201_210)"/>
<line opacity="0.1" x1="828.648" y1="298.87" x2="828.648" y2="-1.71251e-08" stroke="url(#paint6_linear_201_210)"/>
<path d="M428.246 144.05L476.927 96.0332H516.445L533.626 128.792L584.025 147.64L617.243 115.778L636.715 86.1607L652.178 65.518L686.541 77.1856L715.75 120.715L734.65 150.781L765.004 115.778L781.04 86.1607L814.83 73.1468L841.175 47.1191L869.238 21.5402V299.767H1V254.443L41.0901 202.837L73.735 180.399L107.525 200.144L142.461 171.873L178.542 174.565L210.041 135.972L244.977 218.094L276.477 234.698L310.84 120.715L327.448 102.765L378.42 181.296L400.183 115.778L428.246 144.05Z" fill="url(#paint7_linear_201_210)"/>
<path d="M0.999981 254.443L41.0901 202.837L73.735 180.399L107.525 200.144L142.461 171.873L178.542 174.565L210.041 135.972L244.977 218.094L276.477 234.698L310.84 120.715L327.448 102.765L378.42 181.296L400.183 115.778L428.246 144.05L476.927 96.0332H516.445L533.626 128.792L584.025 147.64L617.243 115.778L636.715 86.1607L652.178 65.518L686.541 77.1856L715.75 120.715L734.65 150.781L765.004 115.778L781.04 86.1607L814.83 73.1468L841.175 47.1191L869.238 21.5402" stroke="#37923B" stroke-width="2"/>
<line opacity="0.4" x1="869.738" y1="21.5402" x2="869.738" y2="299.077" stroke="black"/>
<path d="M869.238 21.2798L904.746 21.2798" stroke="#37923B"/>
<g filter="url(#filter0_b_201_210)">
<path d="M912.069 10.7613C913.019 9.64392 914.412 9 915.879 9H950C952.209 9 954 10.7909 954 13V28.4432C954 30.6524 952.209 32.4432 950 32.4432H915.879C914.412 32.4432 913.019 31.7993 912.069 30.6819L905.253 22.6648C904.301 21.5445 904.301 19.8988 905.253 18.7784L912.069 10.7613Z" fill="#37923B"/>
<path d="M912.45 11.0851C913.305 10.0795 914.559 9.5 915.879 9.5H950C951.933 9.5 953.5 11.067 953.5 13V28.4432C953.5 30.3762 951.933 31.9432 950 31.9432H915.879C914.559 31.9432 913.305 31.3637 912.45 30.3581L905.634 22.341C904.84 21.4073 904.84 20.0359 905.634 19.1022L912.45 11.0851Z" stroke="#03B279"/>
</g>
<ellipse opacity="0.2" cx="870.383" cy="21.2798" rx="9.16346" ry="8.93075" fill="#37923B"/>
<ellipse cx="870.383" cy="21.2798" rx="4.58173" ry="4.46537" fill="#37923B"/>
<path d="M874.465 21.2798C874.465 23.4578 872.65 25.2452 870.383 25.2452C868.117 25.2452 866.302 23.4578 866.302 21.2798C866.302 19.1018 868.117 17.3144 870.383 17.3144C872.65 17.3144 874.465 19.1018 874.465 21.2798Z" stroke="#020610" stroke-opacity="0.65"/>
<path d="M923.801 24.349H924.741L928.631 18.119V17.349H923.081V18.119H927.691L923.801 24.349ZM929.656 24.269C929.756 24.369 929.916 24.419 930.146 24.419C930.376 24.419 930.536 24.369 930.636 24.269C930.736 24.179 930.786 24.019 930.786 23.789C930.786 23.559 930.736 23.399 930.636 23.299C930.536 23.199 930.376 23.149 930.146 23.149C929.916 23.149 929.756 23.199 929.656 23.299C929.556 23.399 929.506 23.559 929.506 23.789C929.506 24.019 929.556 24.179 929.656 24.269ZM932.047 22.369C932.047 23.809 932.867 24.419 934.747 24.419C936.747 24.419 937.607 23.719 937.607 22.089C937.607 20.449 936.747 19.729 934.797 19.729C933.957 19.729 933.367 19.879 933.037 20.169V18.169H937.177V17.349H932.257V21.219H933.037C933.037 20.729 933.487 20.509 934.537 20.509C936.107 20.509 936.787 20.989 936.787 22.109C936.787 23.179 936.157 23.649 934.747 23.649C933.457 23.649 932.867 23.259 932.867 22.369H932.047ZM939.903 20.749C939.133 21.019 938.743 21.599 938.743 22.469C938.743 23.839 939.613 24.419 941.613 24.419C943.623 24.419 944.483 23.839 944.483 22.469C944.483 21.599 944.103 21.019 943.333 20.749C944.033 20.479 944.383 19.939 944.383 19.129C944.383 17.819 943.553 17.279 941.623 17.279C939.673 17.279 938.843 17.819 938.843 19.129C938.843 19.939 939.193 20.479 939.903 20.749ZM940.053 23.339C939.723 23.139 939.563 22.819 939.563 22.379C939.563 21.499 940.183 21.129 941.613 21.129C943.053 21.129 943.653 21.499 943.653 22.379C943.653 22.819 943.493 23.139 943.173 23.339C942.843 23.549 942.323 23.649 941.613 23.649C940.903 23.649 940.383 23.549 940.053 23.339ZM939.663 19.209C939.663 18.399 940.263 18.049 941.623 18.049C942.983 18.049 943.553 18.399 943.553 19.209C943.553 20.039 942.983 20.379 941.623 20.379C940.253 20.379 939.663 20.039 939.663 19.209Z" fill="white"/>
<defs>
<filter id="filter0_b_201_210" x="884.539" y="-11" width="89.4613" height="63.4432" filterUnits="userSpaceOnUse" color-interpolation-filters="sRGB">
<feFlood flood-opacity="0" result="BackgroundImageFix"/>
<feGaussianBlur in="BackgroundImage" stdDeviation="10"/>
<feComposite in2="SourceAlpha" operator="in" result="effect1_backgroundBlur_201_210"/>
<feBlend mode="normal" in="SourceGraphic" in2="effect1_backgroundBlur_201_210" result="shape"/>
</filter>
<linearGradient id="paint0_linear_201_210" x1="50.901" y1="-1.54586" x2="50.9631" y2="298.389" gradientUnits="userSpaceOnUse">
<stop offset="0.0001"/>
<stop offset="0.131582"/>
<stop offset="1" stop-opacity="0.2"/>
</linearGradient>
<linearGradient id="paint1_linear_201_210" x1="175.753" y1="-1.54586" x2="175.815" y2="298.389" gradientUnits="userSpaceOnUse">
<stop offset="0.0001"/>
<stop offset="0.131582"/>
<stop offset="1" stop-opacity="0.2"/>
</linearGradient>
<linearGradient id="paint2_linear_201_210" x1="305.187" y1="-1.54586" x2="305.249" y2="298.389" gradientUnits="userSpaceOnUse">
<stop offset="0.0001"/>
<stop offset="0.131582"/>
<stop offset="1" stop-opacity="0.2"/>
</linearGradient>
<linearGradient id="paint3_linear_201_210" x1="436.912" y1="-1.54586" x2="436.974" y2="298.389" gradientUnits="userSpaceOnUse">
<stop offset="0.0001"/>
<stop offset="0.131582"/>
<stop offset="1" stop-opacity="0.2"/>
</linearGradient>
<linearGradient id="paint4_linear_201_210" x1="566.346" y1="-1.54586" x2="566.408" y2="298.389" gradientUnits="userSpaceOnUse">
<stop offset="0.0001"/>
<stop offset="0.131582"/>
<stop offset="1" stop-opacity="0.2"/>
</linearGradient>
<linearGradient id="paint5_linear_201_210" x1="696.925" y1="-1.54586" x2="696.987" y2="298.389" gradientUnits="userSpaceOnUse">
<stop offset="0.0001"/>
<stop offset="0.131582"/>
<stop offset="1" stop-opacity="0.2"/>
</linearGradient>
<linearGradient id="paint6_linear_201_210" x1="828.65" y1="-1.54586" x2="828.712" y2="298.389" gradientUnits="userSpaceOnUse">
<stop offset="0.0001"/>
<stop offset="0.131582"/>
<stop offset="1" stop-opacity="0.2"/>
</linearGradient>
<linearGradient id="paint7_linear_201_210" x1="435.119" y1="21.5402" x2="435.119" y2="299.767" gradientUnits="userSpaceOnUse">
<stop stop-color="#37923B" stop-opacity="0.5"/>
<stop offset="1" stop-color="#37923B" stop-opacity="0.01"/>
</linearGradient>
</defs>
</svg>
