<svg width="146" height="53" viewBox="0 0 146 53" fill="none" xmlns="http://www.w3.org/2000/svg">
<path d="M52.0529 1.43555H3.90959C1.75038 1.43555 0 3.18126 0 5.3347V47.8922C0 50.0457 1.75038 51.7914 3.90959 51.7914H52.0529C54.2121 51.7914 55.9625 50.0457 55.9625 47.8922V5.3347C55.9625 3.18126 54.2121 1.43555 52.0529 1.43555Z" fill="#68A75E"/>
<path fill-rule="evenodd" clip-rule="evenodd" d="M20.0726 11.6648C19.5417 11.908 19.4214 12.2058 19.4214 13.2774V13.8367C19.4214 13.9728 19.3114 14.0835 19.1749 14.0847L15.916 14.1131C15.7795 14.1143 15.6694 14.225 15.6694 14.3612V40.5891C15.6694 40.7253 15.7795 40.8359 15.916 40.8372L19.1749 40.8654C19.3114 40.8667 19.4214 40.9773 19.4214 41.1135V41.5801C19.4214 42.5502 19.5554 42.863 20.0726 43.0999C20.2877 43.1984 20.4921 43.2135 21.6095 43.2148C23.2025 43.2165 23.4168 43.152 23.7072 42.5847C23.8029 42.3977 23.8246 42.2193 23.8246 41.62V41.1189C23.8246 40.9875 23.9274 40.8788 24.059 40.8714L24.5223 40.8446C24.906 40.8225 25.4223 40.8044 25.6696 40.8044L25.8705 40.8042C26.0078 40.8042 26.1193 40.915 26.1193 41.0522L26.1195 41.4997C26.12 42.288 26.1809 42.576 26.4025 42.8387C26.6943 43.1845 26.9338 43.2274 28.455 43.2051L29.7372 43.1865C29.7904 43.1858 29.8421 43.1679 29.8844 43.1357L30.0481 43.0111C30.4572 42.6996 30.4881 42.6085 30.5224 41.6111L30.5455 40.9371C30.55 40.8091 30.6515 40.7054 30.7798 40.698L30.8325 40.695C31.3591 40.6645 32.3525 40.4795 32.9718 40.2966C34.8235 39.7497 36.2977 38.4813 37.2011 36.6579C38.6944 33.6435 38.2514 30.352 36.0803 28.3261C35.3016 27.5998 34.4788 27.1366 33.1312 26.6663C33.0785 26.648 33.2514 26.5177 33.5568 26.3456C35.1106 25.4704 36.251 23.9184 36.635 22.1559C36.7621 21.5718 36.7787 20.2491 36.6658 19.6819C36.2119 17.3991 34.5236 15.4721 32.2898 14.6866C32.051 14.6027 31.5906 14.4847 31.2666 14.4246C30.9425 14.3644 30.6425 14.3059 30.6 14.2945C30.5423 14.2791 30.5224 14.0324 30.5224 13.3286C30.5221 12.2544 30.4759 12.0952 30.0672 11.7693L29.8954 11.6324C29.8523 11.598 29.7991 11.5789 29.7439 11.5781L28.4858 11.5591C27.0731 11.5377 26.8256 11.5689 26.5229 11.8065C26.2041 12.0566 26.122 12.3537 26.1205 13.2648L26.1197 13.8367C26.1195 13.9736 26.0081 14.0844 25.871 14.0844H24.0733C23.936 14.0844 23.8246 13.9733 23.8246 13.8363V13.2469C23.8246 12.5472 23.8053 12.3717 23.7072 12.18C23.4168 11.6125 23.2025 11.5481 21.6095 11.5498C20.4921 11.551 20.2877 11.5663 20.0726 11.6648ZM28.6619 18.6652C29.6349 18.7632 30.2854 19.0404 30.7679 19.5626C31.4262 20.2748 31.6675 21.4963 31.3608 22.5637C31.0982 23.4773 30.3799 24.1469 29.3133 24.4721C28.655 24.6728 27.6939 24.7198 24.2122 24.7213L21.2827 24.7226C21.1453 24.7227 21.0339 24.6116 21.0339 24.4746V21.6714C21.0339 19.9932 21.0548 18.5979 21.0804 18.5709C21.1424 18.5053 27.9106 18.5895 28.6619 18.6652ZM28.6619 29.299C30.0792 29.4515 30.9193 29.7708 31.5441 30.3941C32.1896 31.0379 32.4562 31.7359 32.4602 32.7944C32.4644 33.9081 32.2182 34.5893 31.5767 35.2365C31.1673 35.6495 30.6393 35.9385 29.9837 36.1079C29.3626 36.2687 27.3243 36.3463 23.6541 36.3488L21.2828 36.3505C21.1453 36.3508 21.0339 36.2396 21.0339 36.1025V29.4106C21.0339 29.2724 21.1467 29.1611 21.2851 29.1625L24.5223 29.1943C26.4409 29.2131 28.3038 29.2603 28.6619 29.299Z" fill="white"/>
<path d="M44.4371 18.1579C44.5747 18.1579 44.6858 18.2689 44.6858 18.4059V20.4556C44.6858 20.5926 44.5747 20.7037 44.4371 20.7037H36.0736C35.9363 20.7037 35.8249 20.5926 35.8249 20.4556V18.8006C35.8249 18.732 35.8535 18.6663 35.9037 18.6194L40.0847 14.7202C40.4966 14.3311 40.7729 14.0014 40.914 13.7311C41.0547 13.45 41.1254 13.169 41.1254 12.8879C41.1254 12.5204 41.0005 12.2339 40.7513 12.0285C40.5021 11.8231 40.1389 11.7204 39.6619 11.7204C39.2393 11.7204 38.8491 11.8177 38.4914 12.0123C38.2096 12.1616 37.9671 12.3679 37.7641 12.6313C37.6838 12.7355 37.5398 12.773 37.4246 12.709L35.4642 11.6184C35.3413 11.5501 35.2993 11.3934 35.3784 11.2774C35.8107 10.6441 36.3875 10.1378 37.1093 9.75838C37.9114 9.33678 38.8598 9.12598 39.9546 9.12598C40.8217 9.12598 41.586 9.2665 42.2471 9.54758C42.9192 9.82863 43.4395 10.234 43.8079 10.7637C44.1874 11.2826 44.3769 11.888 44.3769 12.5798C44.3769 13.196 44.2416 13.7797 43.9705 14.3311C43.7104 14.8716 43.2776 15.3674 42.5314 16.2356L41.4137 17.7636C41.2938 17.9275 41.4112 18.1579 41.6146 18.1579H44.4371Z" fill="white"/>
<path d="M65.6631 14.5434V17.2016H68.6318C69.1621 17.2016 69.5914 17.1034 69.9194 16.9072C70.253 16.7054 70.4196 16.351 70.4196 15.8439C70.4196 15.2823 70.201 14.9115 69.7635 14.7315C69.3864 14.6061 68.9052 14.5434 68.3202 14.5434H65.6631ZM65.6631 19.1973V22.4116H68.6318C69.1621 22.4116 69.575 22.3408 69.8702 22.199C70.4059 21.9373 70.6738 21.4356 70.6738 20.694C70.6738 20.067 70.4141 19.6362 69.8948 19.4018C69.6051 19.2709 69.1976 19.2027 68.6728 19.1973H65.6631ZM69.124 12.4496C70.6057 12.4714 71.6553 12.8994 72.2731 13.7337C72.6449 14.2463 72.8307 14.8597 72.8307 15.574C72.8307 16.3101 72.6449 16.9017 72.2731 17.3488C72.0654 17.5997 71.7592 17.8287 71.3546 18.0359C71.9724 18.2594 72.437 18.6138 72.7487 19.0991C73.0658 19.5844 73.2245 20.1733 73.2245 20.8658C73.2245 21.5801 73.0439 22.2208 72.6832 22.7879C72.4534 23.1641 72.1664 23.4804 71.8219 23.7366C71.4339 24.0311 70.9745 24.2328 70.4442 24.3419C69.9194 24.451 69.3481 24.5055 68.7303 24.5055H63.2522V12.4496H69.124ZM77.5627 14.5271H75.1926V12.376H77.5627V14.5271ZM75.1926 15.5903H77.5627V24.5055H75.1926V15.5903ZM78.9157 17.3325V15.6721H80.1623V13.1857H82.4749V15.6721H83.9265V17.3325H82.4749V22.0436C82.4749 22.4089 82.5215 22.6379 82.6145 22.7306C82.7075 22.8179 82.9918 22.8615 83.4673 22.8615C83.5385 22.8615 83.6121 22.8615 83.6887 22.8615C83.7708 22.856 83.8501 22.8506 83.9265 22.8451V24.5873L82.8194 24.6281C81.7151 24.6663 80.9605 24.4755 80.556 24.0556C80.2936 23.7884 80.1623 23.3768 80.1623 22.8206V17.3325H78.9157ZM65.6631 33.1479V35.806H68.6318C69.1621 35.806 69.5914 35.7078 69.9194 35.5116C70.253 35.3097 70.4196 34.9555 70.4196 34.4482C70.4196 33.8866 70.201 33.516 69.7635 33.3359C69.3864 33.2106 68.9052 33.1479 68.3202 33.1479H65.6631ZM65.6631 37.8017V41.016H68.6318C69.1621 41.016 69.575 40.9451 69.8702 40.8034C70.4059 40.5417 70.6738 40.0399 70.6738 39.2985C70.6738 38.6714 70.4141 38.2405 69.8948 38.0061C69.6051 37.8754 69.1976 37.8071 68.6728 37.8017H65.6631ZM69.124 31.054C70.6057 31.0758 71.6553 31.5037 72.2731 32.3382C72.6449 32.8507 72.8307 33.4641 72.8307 34.1783C72.8307 34.9145 72.6449 35.5061 72.2731 35.9531C72.0654 36.2039 71.7592 36.4331 71.3546 36.6403C71.9724 36.8638 72.437 37.2182 72.7487 37.7034C73.0658 38.1889 73.2245 38.7778 73.2245 39.4701C73.2245 40.1845 73.0439 40.8253 72.6832 41.3923C72.4534 41.7684 72.1664 42.0847 71.8219 42.3409C71.4339 42.6353 70.9745 42.8373 70.4442 42.9462C69.9194 43.0553 69.3481 43.1099 68.7303 43.1099H63.2522V31.054H69.124Z" fill="#68A75E"/>
<path d="M90.7662 18.7883C90.7224 18.4557 90.6105 18.1558 90.4299 17.8886C90.1675 17.5288 89.7604 17.3488 89.208 17.3488C88.4207 17.3488 87.8823 17.7387 87.5925 18.5184C87.4393 18.9328 87.3629 19.4835 87.3629 20.1706C87.3629 20.8249 87.4393 21.3511 87.5925 21.7491C87.8713 22.4907 88.3961 22.8615 89.1672 22.8615C89.7139 22.8615 90.1019 22.7143 90.3317 22.4198C90.5613 22.1254 90.7005 21.7437 90.7498 21.2748H93.1363C93.0816 21.9836 92.8246 22.6543 92.3655 23.2868C91.6327 24.3064 90.5476 24.8163 89.1097 24.8163C87.6718 24.8163 86.6138 24.391 85.936 23.5404C85.258 22.6897 84.919 21.5856 84.919 20.2278C84.919 18.6956 85.2936 17.5042 86.0425 16.6536C86.7916 15.803 87.8248 15.3777 89.1425 15.3777C90.2633 15.3777 91.1791 15.6285 91.8897 16.1302C92.606 16.6318 93.0298 17.5179 93.1609 18.7883H90.7662ZM98.7867 22.8615C99.4702 22.8615 99.995 22.6188 100.361 22.1335C100.728 21.6483 100.911 20.9585 100.911 20.0643C100.911 19.17 100.728 18.483 100.361 18.0032C99.995 17.5179 99.4702 17.2752 98.7867 17.2752C98.1033 17.2752 97.5757 17.5179 97.2039 18.0032C96.8378 18.483 96.6545 19.17 96.6545 20.0643C96.6545 20.9585 96.8378 21.6483 97.2039 22.1335C97.5757 22.6188 98.1033 22.8615 98.7867 22.8615ZM103.363 20.0643C103.363 21.3729 102.986 22.4934 102.231 23.4258C101.477 24.3528 100.331 24.8163 98.795 24.8163C97.2586 24.8163 96.1132 24.3528 95.3589 23.4258C94.6042 22.4934 94.2269 21.3729 94.2269 20.0643C94.2269 18.7774 94.6042 17.6623 95.3589 16.7191C96.1132 15.7757 97.2586 15.3041 98.795 15.3041C100.331 15.3041 101.477 15.7757 102.231 16.7191C102.986 17.6623 103.363 18.7774 103.363 20.0643ZM107.447 14.5271H105.077V12.376H107.447V14.5271ZM105.077 15.5903H107.447V24.5055H105.077V15.5903ZM114.672 15.3777C115.596 15.3777 116.35 15.6203 116.935 16.1056C117.526 16.5855 117.821 17.3843 117.821 18.5021V24.5055H115.427V19.0828C115.427 18.6138 115.364 18.254 115.238 18.0032C115.008 17.5451 114.571 17.3161 113.926 17.3161C113.133 17.3161 112.589 17.6515 112.294 18.3221C112.141 18.6766 112.064 19.1291 112.064 19.6799V24.5055H109.735V15.6067H111.99V16.9072C112.291 16.4491 112.575 16.1193 112.843 15.9175C113.324 15.5576 113.934 15.3777 114.672 15.3777ZM123.512 17.2752C122.971 17.2752 122.55 17.4443 122.249 17.7823C121.954 18.1204 121.768 18.5784 121.692 19.1564H125.325C125.287 18.5402 125.098 18.074 124.759 17.7578C124.426 17.4361 124.01 17.2752 123.512 17.2752ZM123.512 15.3531C124.256 15.3531 124.926 15.4922 125.522 15.7703C126.118 16.0484 126.61 16.4873 126.998 17.0871C127.348 17.616 127.575 18.2294 127.679 18.9274C127.739 19.3363 127.763 19.9252 127.752 20.694H121.634C121.667 21.5883 121.949 22.2154 122.479 22.5752C122.802 22.7988 123.19 22.9106 123.644 22.9106C124.125 22.9106 124.516 22.7743 124.817 22.5016C124.98 22.3544 125.125 22.1499 125.251 21.8882H127.638C127.577 22.4171 127.301 22.9542 126.809 23.4995C126.044 24.3664 124.972 24.7999 123.595 24.7999C122.457 24.7999 121.454 24.4346 120.585 23.7039C119.715 22.9733 119.281 21.7846 119.281 20.1379C119.281 18.5948 119.672 17.4115 120.453 16.5882C121.241 15.7648 122.26 15.3531 123.512 15.3531ZM134.19 15.3777C134.234 15.3777 134.269 15.3804 134.297 15.3859C134.329 15.3859 134.398 15.3886 134.502 15.3941V17.7823C134.354 17.766 134.223 17.755 134.108 17.7496C133.993 17.7442 133.9 17.7414 133.829 17.7414C132.889 17.7414 132.257 18.0468 131.935 18.6575C131.754 19.001 131.664 19.5299 131.664 20.2442V24.5055H129.31V15.5903H131.541V17.1444C131.902 16.55 132.217 16.1438 132.484 15.9257C132.922 15.5603 133.49 15.3777 134.19 15.3777ZM80.0885 38.7751C79.9411 38.8676 79.7906 38.944 79.6376 39.004C79.4899 39.0586 79.2849 39.1102 79.0225 39.1593L78.4977 39.2575C78.0055 39.3448 77.6531 39.451 77.4397 39.5765C77.079 39.7891 76.8984 40.119 76.8984 40.5663C76.8984 40.9642 77.0079 41.2532 77.2265 41.4332C77.4506 41.6076 77.7212 41.6949 78.0383 41.6949C78.5415 41.6949 79.0034 41.5476 79.4245 41.2532C79.8508 40.9587 80.0721 40.4217 80.0885 39.642V38.7751ZM78.6698 37.6871C79.1019 37.6325 79.4108 37.5645 79.5966 37.4827C79.9301 37.3408 80.0968 37.12 80.0968 36.8201C80.0968 36.455 79.9684 36.2039 79.7115 36.0677C79.46 35.9259 79.0882 35.8552 78.596 35.8552C78.0438 35.8552 77.6531 35.9913 77.4232 36.264C77.2593 36.4656 77.1499 36.7385 77.0954 37.0818H74.84C74.8893 36.3022 75.1079 35.6614 75.4961 35.1599C76.114 34.3747 77.1745 33.9821 78.678 33.9821C79.6568 33.9821 80.526 34.1756 81.2859 34.5628C82.046 34.95 82.4258 35.6805 82.4258 36.7546V40.8444C82.4258 41.1279 82.4313 41.4712 82.4422 41.8748C82.4586 42.1802 82.5051 42.3873 82.5817 42.4964C82.6583 42.6056 82.773 42.6954 82.9262 42.7663V43.1099H80.3838C80.3129 42.9298 80.2636 42.7609 80.2363 42.6028C80.2089 42.4446 80.187 42.2647 80.1706 42.0628C79.848 42.4118 79.4762 42.709 79.0554 42.9543C78.5524 43.2433 77.9839 43.3879 77.3496 43.3879C76.5403 43.3879 75.8707 43.159 75.3404 42.7008C74.8154 42.2375 74.553 41.5831 74.553 40.7379C74.553 39.642 74.9768 38.8485 75.8242 38.3578C76.2888 38.0907 76.9723 37.8999 77.8744 37.7853L78.6698 37.6871ZM89.4624 33.9821C90.3861 33.9821 91.1408 34.2247 91.7258 34.7099C92.3162 35.1899 92.6115 35.9886 92.6115 37.1064V43.1099H90.2168V37.6871C90.2168 37.2182 90.1538 36.8583 90.0282 36.6075C89.7984 36.1496 89.3612 35.9204 88.716 35.9204C87.9233 35.9204 87.3793 36.2558 87.0841 36.9265C86.9309 37.281 86.8543 37.7335 86.8543 38.2841V43.1099H84.5253V34.211H86.7807V35.5116C87.0814 35.0534 87.3657 34.7235 87.6335 34.5218C88.1146 34.1619 88.7242 33.9821 89.4624 33.9821ZM94.752 31.0949H97.0482V37.5891L99.9595 34.2356H102.854L99.7299 37.6461L102.977 43.1099H100.156L98.016 39.2985L97.0482 40.3043V43.1099H94.752V31.0949Z" fill="white"/>
</svg>
