<svg width="162" height="57" viewBox="0 0 162 57" fill="none" xmlns="http://www.w3.org/2000/svg">
<path d="M57.7574 0.50882H4.33804C1.94221 0.50882 0 2.45609 0 4.85817V52.3294C0 54.7315 1.94221 56.6787 4.33804 56.6787H57.7574C60.1532 56.6787 62.0954 54.7315 62.0954 52.3294V4.85817C62.0954 2.45609 60.1532 0.50882 57.7574 0.50882Z" fill="#68A75E"/>
<path fill-rule="evenodd" clip-rule="evenodd" d="M22.2724 11.9186C21.6833 12.1898 21.5499 12.522 21.5499 13.7174V14.3412C21.5499 14.4931 21.4278 14.6166 21.2763 14.6179L17.6603 14.6496C17.5088 14.6509 17.3867 14.7744 17.3867 14.9263V44.1825C17.3867 44.3344 17.5088 44.4578 17.6603 44.4592L21.2763 44.4907C21.4278 44.4921 21.5499 44.6155 21.5499 44.7674V45.2879C21.5499 46.3701 21.6985 46.719 22.2724 46.9832C22.5111 47.0931 22.7379 47.11 23.9778 47.1113C25.7453 47.1133 25.9831 47.0413 26.3053 46.4085C26.4115 46.1999 26.4356 46.0009 26.4356 45.3324V44.7735C26.4356 44.6269 26.5497 44.5057 26.6957 44.4974L27.2098 44.4675C27.6355 44.4429 28.2084 44.4227 28.4828 44.4227L28.7057 44.4224C28.8581 44.4224 28.9817 44.5461 28.9817 44.6991L28.982 45.1982C28.9826 46.0776 29.0502 46.3988 29.2961 46.6919C29.6198 47.0776 29.8856 47.1255 31.5734 47.1005L32.9961 47.0798C33.0552 47.079 33.1126 47.059 33.1595 47.0231L33.3411 46.8842C33.7951 46.5366 33.8293 46.4351 33.8674 45.3225L33.8931 44.5707C33.898 44.4279 34.0106 44.3122 34.153 44.3039L34.2115 44.3006C34.7958 44.2666 35.8981 44.0602 36.5852 43.8563C38.6399 43.2461 40.2756 41.8314 41.278 39.7973C42.935 36.4349 42.4435 32.7634 40.0344 30.5036C39.1703 29.6934 38.2574 29.1768 36.7621 28.6522C36.7036 28.6317 36.8954 28.4865 37.2343 28.2944C38.9584 27.3182 40.2238 25.587 40.6499 23.621C40.7909 22.9695 40.8094 21.494 40.6841 20.8613C40.1804 18.3149 38.3071 16.1654 35.8285 15.2893C35.5636 15.1957 35.0527 15.0641 34.6931 14.997C34.3335 14.9299 34.0007 14.8646 33.9535 14.8519C33.8895 14.8347 33.8674 14.5596 33.8674 13.7745C33.8671 12.5762 33.8158 12.3987 33.3623 12.0352L33.1716 11.8824C33.1239 11.8441 33.0648 11.8228 33.0036 11.8219L31.6077 11.8007C30.0401 11.7768 29.7655 11.8116 29.4296 12.0766C29.0758 12.3556 28.9848 12.687 28.9831 13.7034L28.9823 14.3413C28.982 14.4939 28.8584 14.6175 28.7063 14.6175H26.7116C26.5592 14.6175 26.4356 14.4936 26.4356 14.3408V13.6834C26.4356 12.9028 26.4142 12.7071 26.3053 12.4932C25.9831 11.8603 25.7453 11.7885 23.9778 11.7903C22.7379 11.7916 22.5111 11.8087 22.2724 11.9186ZM31.8031 19.7272C32.8827 19.8366 33.6044 20.1457 34.1398 20.7282C34.8703 21.5227 35.138 22.8852 34.7977 24.0759C34.5063 25.095 33.7093 25.8418 32.5259 26.2046C31.7953 26.4285 30.729 26.4809 26.8657 26.4826L23.6151 26.4841C23.4627 26.4841 23.339 26.3602 23.339 26.2074V23.0806C23.339 21.2085 23.3623 19.6522 23.3907 19.6221C23.4595 19.5489 30.9693 19.6428 31.8031 19.7272ZM31.8031 31.5888C33.3756 31.759 34.3079 32.1151 35.0011 32.8104C35.7173 33.5285 36.0131 34.3071 36.0175 35.4878C36.0222 36.7301 35.749 37.49 35.0373 38.2119C34.583 38.6726 33.9971 38.9949 33.2696 39.1839C32.5805 39.3632 30.3188 39.4498 26.2464 39.4526L23.6152 39.4545C23.4627 39.4548 23.339 39.3308 23.339 39.1778V31.7133C23.339 31.5592 23.4643 31.435 23.6178 31.4366L27.2098 31.472C29.3386 31.4931 31.4057 31.5456 31.8031 31.5888Z" fill="white"/>
<path d="M49.3071 19.1612C49.4597 19.1612 49.583 19.2851 49.583 19.4379V21.7242C49.583 21.8771 49.4597 22.0009 49.3071 22.0009H40.027C39.8746 22.0009 39.751 21.8771 39.751 21.7242V19.8782C39.751 19.8016 39.7827 19.7284 39.8385 19.6761L44.4777 15.3267C44.9347 14.8926 45.2413 14.5248 45.3978 14.2233C45.554 13.9098 45.6324 13.5963 45.6324 13.2828C45.6324 12.8728 45.4939 12.5532 45.2173 12.3241C44.9408 12.095 44.5379 11.9805 44.0085 11.9805C43.5396 11.9805 43.1066 12.089 42.7098 12.306C42.3971 12.4726 42.128 12.7027 41.9028 12.9965C41.8137 13.1127 41.6539 13.1546 41.5261 13.0832L39.3508 11.8667C39.2145 11.7904 39.1679 11.6157 39.2556 11.4863C39.7353 10.7799 40.3753 10.2151 41.1762 9.7919C42.0662 9.32163 43.1185 9.08649 44.3334 9.08649C45.2954 9.08649 46.1435 9.24324 46.8771 9.55676C47.6228 9.87026 48.2001 10.3224 48.6088 10.9133C49.03 11.4921 49.2403 12.1674 49.2403 12.9391C49.2403 13.6264 49.0901 14.2776 48.7893 14.8926C48.5007 15.4955 48.0204 16.0485 47.1925 17.017L45.9523 18.7214C45.8192 18.9043 45.9495 19.1612 46.1752 19.1612H49.3071Z" fill="white"/>
<path d="M72.8592 15.1296V18.0946H76.1532C76.7416 18.0946 77.218 17.9852 77.582 17.7662C77.9521 17.5412 78.137 17.1458 78.137 16.5802C78.137 15.9537 77.8944 15.5401 77.4089 15.3394C76.9906 15.1995 76.4565 15.1296 75.8074 15.1296H72.8592ZM72.8592 20.3207V23.9062H76.1532C76.7416 23.9062 77.1998 23.8272 77.5273 23.669C78.1218 23.3771 78.419 22.8175 78.419 21.9903C78.419 21.2909 78.1309 20.8104 77.5547 20.5488C77.2331 20.4029 76.7811 20.3268 76.1988 20.3207H72.8592ZM76.6994 12.794C78.3434 12.8183 79.508 13.2957 80.1936 14.2263C80.6062 14.7981 80.8123 15.4823 80.8123 16.2791C80.8123 17.1002 80.6062 17.7601 80.1936 18.2589C79.9631 18.5387 79.6234 18.7941 79.1744 19.0252C79.8599 19.2746 80.3754 19.6699 80.7213 20.2113C81.0731 20.7526 81.2492 21.4095 81.2492 22.1819C81.2492 22.9787 81.0488 23.6933 80.6487 24.3259C80.3937 24.7456 80.0752 25.0984 79.693 25.3842C79.2624 25.7127 78.7527 25.9377 78.1643 26.0593C77.582 26.181 76.9481 26.2418 76.2625 26.2418H70.1841V12.794H76.6994ZM86.0628 15.1113H83.433V12.7119H86.0628V15.1113ZM83.433 16.2973H86.0628V26.2418H83.433V16.2973ZM87.5642 18.2406V16.3886H88.9474V13.6151H91.5134V16.3886H93.124V18.2406H91.5134V23.4957C91.5134 23.9032 91.565 24.1586 91.6683 24.262C91.7715 24.3594 92.0869 24.408 92.6146 24.408C92.6935 24.408 92.7752 24.408 92.8602 24.408C92.9513 24.4019 93.0393 24.3959 93.124 24.3898V26.3331L91.8957 26.3787C90.6703 26.4212 89.833 26.2084 89.3843 25.74C89.0931 25.442 88.9474 24.9828 88.9474 24.3624V18.2406H87.5642ZM72.8592 35.882V38.8472H76.1532C76.7416 38.8472 77.218 38.7376 77.582 38.5187C77.9521 38.2935 78.137 37.8984 78.137 37.3325C78.137 36.7061 77.8944 36.2927 77.4089 36.0918C76.9906 35.952 76.4565 35.882 75.8074 35.882H72.8592ZM72.8592 41.0732V44.6587H76.1532C76.7416 44.6587 77.1998 44.5795 77.5273 44.4215C78.1218 44.1296 78.419 43.5698 78.419 42.7428C78.419 42.0433 78.1309 41.5627 77.5547 41.3012C77.2331 41.1554 76.7811 41.0793 76.1988 41.0732H72.8592ZM76.6994 33.5464C78.3434 33.5708 79.508 34.0481 80.1936 34.9789C80.6062 35.5506 80.8123 36.2348 80.8123 37.0315C80.8123 37.8527 80.6062 38.5126 80.1936 39.0112C79.9631 39.291 79.6234 39.5466 79.1744 39.7777C79.8599 40.027 80.3754 40.4224 80.7213 40.9636C81.0731 41.5051 81.2492 42.162 81.2492 42.9343C81.2492 43.7312 81.0488 44.4459 80.6487 45.0784C80.3937 45.4979 80.0752 45.8507 79.693 46.1365C79.2624 46.465 78.7527 46.6902 78.1643 46.8117C77.582 46.9334 76.9481 46.9943 76.2625 46.9943H70.1841V33.5464H76.6994Z" fill="#68A75E"/>
<path d="M100.713 19.8646C100.665 19.4936 100.54 19.1591 100.34 18.861C100.049 18.4596 99.5971 18.2589 98.9841 18.2589C98.1107 18.2589 97.5132 18.6938 97.1917 19.5635C97.0217 20.0258 96.9369 20.6401 96.9369 21.4064C96.9369 22.1363 97.0217 22.7232 97.1917 23.1672C97.501 23.9944 98.0833 24.408 98.9389 24.408C99.5455 24.408 99.976 24.2438 100.231 23.9154C100.486 23.5869 100.64 23.1612 100.695 22.6381H103.343C103.282 23.4288 102.997 24.1769 102.488 24.8824C101.675 26.0198 100.471 26.5885 98.8751 26.5885C97.2797 26.5885 96.1057 26.1141 95.3536 25.1653C94.6013 24.2164 94.2251 22.9848 94.2251 21.4703C94.2251 19.7612 94.6408 18.4322 95.4717 17.4834C96.303 16.5346 97.4494 16.0601 98.9116 16.0601C100.155 16.0601 101.171 16.3399 101.96 16.8995C102.755 17.459 103.225 18.4474 103.37 19.8646H100.713ZM109.613 24.408C110.371 24.408 110.953 24.1374 111.36 23.596C111.766 23.0547 111.97 22.2853 111.97 21.2878C111.97 20.2903 111.766 19.524 111.36 18.9887C110.953 18.4474 110.371 18.1768 109.613 18.1768C108.854 18.1768 108.269 18.4474 107.856 18.9887C107.45 19.524 107.247 20.2903 107.247 21.2878C107.247 22.2853 107.45 23.0547 107.856 23.596C108.269 24.1374 108.854 24.408 109.613 24.408ZM114.69 21.2878C114.69 22.7476 114.272 23.9975 113.434 25.0375C112.597 26.0715 111.326 26.5885 109.622 26.5885C107.917 26.5885 106.646 26.0715 105.809 25.0375C104.972 23.9975 104.553 22.7476 104.553 21.2878C104.553 19.8524 104.972 18.6086 105.809 17.5564C106.646 16.5042 107.917 15.978 109.622 15.978C111.326 15.978 112.597 16.5042 113.434 17.5564C114.272 18.6086 114.69 19.8524 114.69 21.2878ZM119.222 15.1113H116.592V12.7119H119.222V15.1113ZM116.592 16.2973H119.222V26.2418H116.592V16.2973ZM127.239 16.0601C128.264 16.0601 129.101 16.3308 129.75 16.8721C130.405 17.4074 130.733 18.2984 130.733 19.5453V26.2418H128.076V20.193C128.076 19.6699 128.006 19.2685 127.867 18.9887C127.612 18.4778 127.126 18.2224 126.411 18.2224C125.531 18.2224 124.927 18.5964 124.6 19.3446C124.43 19.7399 124.345 20.2447 124.345 20.859V26.2418H121.761V16.3156H124.263V17.7662C124.597 17.2553 124.912 16.8873 125.209 16.6623C125.743 16.2609 126.42 16.0601 127.239 16.0601ZM137.048 18.1768C136.448 18.1768 135.98 18.3653 135.647 18.7424C135.319 19.1195 135.113 19.6304 135.028 20.2751H139.059C139.017 19.5879 138.807 19.0678 138.431 18.715C138.061 18.3562 137.6 18.1768 137.048 18.1768ZM137.048 16.0328C137.873 16.0328 138.616 16.1879 139.277 16.4981C139.939 16.8082 140.485 17.2979 140.915 17.9669C141.304 18.5569 141.555 19.2411 141.671 20.0197C141.738 20.4758 141.765 21.1327 141.753 21.9903H134.964C135.001 22.9878 135.313 23.6873 135.902 24.0887C136.259 24.3381 136.69 24.4628 137.194 24.4628C137.728 24.4628 138.161 24.3107 138.495 24.0066C138.677 23.8424 138.838 23.6143 138.977 23.3223H141.625C141.558 23.9123 141.252 24.5114 140.706 25.1196C139.857 26.0867 138.668 26.5703 137.139 26.5703C135.877 26.5703 134.764 26.1627 133.8 25.3477C132.835 24.5327 132.353 23.2068 132.353 21.3699C132.353 19.6487 132.786 18.3288 133.654 17.4104C134.528 16.492 135.659 16.0328 137.048 16.0328ZM148.896 16.0601C148.944 16.0601 148.984 16.0632 149.014 16.0693C149.05 16.0693 149.126 16.0723 149.242 16.0784V18.7424C149.078 18.7242 148.932 18.712 148.805 18.7059C148.678 18.6998 148.574 18.6968 148.495 18.6968C147.452 18.6968 146.751 19.0374 146.394 19.7186C146.193 20.1018 146.093 20.6918 146.093 21.4886V26.2418H143.481V16.2973H145.957V18.0308C146.357 17.3678 146.706 16.9147 147.003 16.6714C147.488 16.2639 148.119 16.0601 148.896 16.0601ZM88.8653 42.159C88.7017 42.2622 88.5347 42.3474 88.365 42.4144C88.2011 42.4752 87.9737 42.5328 87.6825 42.5876L87.1002 42.6971C86.554 42.7945 86.163 42.913 85.9262 43.053C85.526 43.2901 85.3256 43.6581 85.3256 44.157C85.3256 44.6008 85.4471 44.9232 85.6897 45.1241C85.9383 45.3186 86.2386 45.416 86.5904 45.416C87.1488 45.416 87.6612 45.2516 88.1285 44.9232C88.6015 44.5947 88.8471 43.9957 88.8653 43.126V42.159ZM87.2912 40.9454C87.7705 40.8845 88.1133 40.8087 88.3195 40.7174C88.6896 40.5591 88.8745 40.3128 88.8745 39.9783C88.8745 39.571 88.7321 39.291 88.447 39.1391C88.168 38.9808 87.7554 38.9019 87.2092 38.9019C86.5965 38.9019 86.163 39.0539 85.908 39.3579C85.7261 39.5829 85.6047 39.8873 85.5442 40.2702H83.0416C83.0963 39.4006 83.3389 38.6858 83.7697 38.1264C84.4552 37.2506 85.632 36.8126 87.3003 36.8126C88.3863 36.8126 89.3508 37.0284 90.1939 37.4603C91.0373 37.8923 91.4587 38.7071 91.4587 39.9053V44.4672C91.4587 44.7835 91.4648 45.1664 91.4769 45.6166C91.4952 45.9572 91.5468 46.1883 91.6318 46.31C91.7168 46.4318 91.844 46.5319 92.014 46.6111V46.9943H89.1929C89.1143 46.7934 89.0596 46.605 89.0293 46.4287C88.9989 46.2522 88.9746 46.0516 88.9564 45.8263C88.5985 46.2156 88.1859 46.5471 87.7189 46.8208C87.1609 47.1431 86.53 47.3045 85.8263 47.3045C84.9282 47.3045 84.1853 47.0491 83.5969 46.538C83.0143 46.0211 82.7231 45.2912 82.7231 44.3485C82.7231 43.126 83.1934 42.2409 84.1337 41.6936C84.6492 41.3956 85.4076 41.1828 86.4086 41.0549L87.2912 40.9454ZM99.2665 36.8126C100.291 36.8126 101.129 37.0832 101.778 37.6244C102.433 38.1598 102.761 39.0508 102.761 40.2976V46.9943H100.104V40.9454C100.104 40.4224 100.034 40.0209 99.8943 39.7412C99.6393 39.2304 99.1541 38.9747 98.4383 38.9747C97.5587 38.9747 96.9551 39.3488 96.6276 40.097C96.4575 40.4924 96.3725 40.9971 96.3725 41.6114V46.9943H93.7883V37.068H96.2909V38.5187C96.6245 38.0076 96.94 37.6396 97.2372 37.4147C97.7709 37.0132 98.4474 36.8126 99.2665 36.8126ZM105.136 33.5921H107.684V40.8361L110.914 37.0954H114.126L110.659 40.8997L114.263 46.9943H111.132L108.757 42.7428L107.684 43.8648V46.9943H105.136V33.5921Z" fill="#505050"/>
</svg>
