<svg width="160" height="56" viewBox="0 0 160 56" fill="none" xmlns="http://www.w3.org/2000/svg">
<path d="M57.0443 0.499878H4.28448C1.91823 0.499878 0 2.41299 0 4.77292V51.4113C0 53.7712 1.91823 55.6843 4.28448 55.6843H57.0443C59.4105 55.6843 61.3288 53.7712 61.3288 51.4113V4.77292C61.3288 2.41299 59.4105 0.499878 57.0443 0.499878Z" fill="white"/>
<path fill-rule="evenodd" clip-rule="evenodd" d="M21.9975 11.7095C21.4157 11.976 21.2839 12.3023 21.2839 13.4767V14.0896C21.2839 14.2388 21.1633 14.3601 21.0137 14.3615L17.4423 14.3926C17.2927 14.3939 17.1721 14.5152 17.1721 14.6644V43.4073C17.1721 43.5566 17.2927 43.6778 17.4423 43.6792L21.0137 43.7102C21.1633 43.7115 21.2839 43.8328 21.2839 43.982V44.4934C21.2839 45.5566 21.4307 45.8993 21.9975 46.159C22.2332 46.2669 22.4572 46.2835 23.6818 46.2848C25.4275 46.2867 25.6624 46.216 25.9806 45.5943C26.0855 45.3894 26.1093 45.1939 26.1093 44.5371V43.988C26.1093 43.8439 26.222 43.7249 26.3662 43.7167L26.8739 43.6873C27.2944 43.6632 27.8602 43.6433 28.1312 43.6433L28.3514 43.643C28.5019 43.643 28.624 43.7646 28.624 43.9149L28.6242 44.4053C28.6248 45.2692 28.6916 45.5848 28.9344 45.8727C29.2542 46.2517 29.5166 46.2987 31.1837 46.2742L32.5888 46.2538C32.6471 46.253 32.7038 46.2334 32.7502 46.1981L32.9295 46.0616C33.3779 45.7202 33.4117 45.6204 33.4493 44.5273L33.4747 43.7887C33.4796 43.6485 33.5908 43.5348 33.7314 43.5267L33.7892 43.5234C34.3663 43.49 35.4549 43.2872 36.1336 43.0868C38.1629 42.4874 39.7785 41.0975 40.7684 39.0992C42.405 35.7957 41.9195 32.1886 39.5402 29.9684C38.6868 29.1725 37.7851 28.6649 36.3083 28.1495C36.2505 28.1294 36.44 27.9867 36.7747 27.798C38.4775 26.8389 39.7272 25.1381 40.1481 23.2066C40.2873 22.5665 40.3056 21.117 40.1819 20.4953C39.6844 17.9936 37.8342 15.8818 35.3862 15.0211C35.1246 14.9291 34.62 14.7998 34.2649 14.7339C33.9097 14.668 33.581 14.6039 33.5344 14.5914C33.4711 14.5744 33.4493 14.3041 33.4493 13.5328C33.4491 12.3556 33.3984 12.1812 32.9505 11.8241L32.7622 11.674C32.715 11.6363 32.6567 11.6154 32.5962 11.6145L31.2175 11.5937C29.6693 11.5702 29.3981 11.6044 29.0664 11.8647C28.7169 12.1388 28.627 12.4645 28.6253 13.463L28.6245 14.0897C28.6242 14.2396 28.5021 14.3611 28.3519 14.3611H26.3819C26.2313 14.3611 26.1093 14.2393 26.1093 14.0892V13.4433C26.1093 12.6765 26.0882 12.4842 25.9806 12.2741C25.6624 11.6522 25.4275 11.5817 23.6818 11.5835C22.4572 11.5848 22.2332 11.6015 21.9975 11.7095ZM31.4105 19.3811C32.4768 19.4886 33.1896 19.7923 33.7184 20.3646C34.4399 21.1451 34.7042 22.4837 34.3682 23.6535C34.0803 24.6547 33.2931 25.3885 32.1243 25.7448C31.4029 25.9649 30.3496 26.0163 26.5341 26.018L23.3236 26.0194C23.1731 26.0195 23.051 25.8978 23.051 25.7476V22.6757C23.051 20.8365 23.0739 19.3075 23.1019 19.2778C23.1699 19.206 30.587 19.2982 31.4105 19.3811ZM31.4105 31.0346C32.9636 31.2018 33.8843 31.5517 34.569 32.2348C35.2764 32.9402 35.5686 33.7052 35.5729 34.8652C35.5776 36.0858 35.3077 36.8322 34.6048 37.5415C34.1561 37.9941 33.5774 38.3108 32.8589 38.4965C32.1783 38.6726 29.9446 38.7577 25.9224 38.7604L23.3237 38.7623C23.1731 38.7626 23.051 38.6408 23.051 38.4905V31.1569C23.051 31.0055 23.1746 30.8835 23.3262 30.8851L26.8739 30.9199C28.9764 30.9406 31.018 30.9922 31.4105 31.0346Z" fill="#6CC16F"/>
<path d="M48.6983 18.8251C48.849 18.8251 48.9709 18.9468 48.9709 19.0969V21.3431C48.9709 21.4933 48.849 21.615 48.6983 21.615H39.5328C39.3823 21.615 39.2602 21.4933 39.2602 21.3431V19.5294C39.2602 19.4542 39.2915 19.3823 39.3466 19.3309L43.9286 15.0578C44.3799 14.6313 44.6828 14.27 44.8373 13.9738C44.9916 13.6658 45.069 13.3578 45.069 13.0498C45.069 12.647 44.9322 12.333 44.659 12.1079C44.3859 11.8829 43.988 11.7703 43.4652 11.7703C43.0021 11.7703 42.5744 11.8769 42.1825 12.0902C41.8736 12.2538 41.6079 12.4799 41.3854 12.7685C41.2974 12.8827 41.1396 12.9239 41.0134 12.8537L38.865 11.6585C38.7303 11.5836 38.6843 11.4119 38.7709 11.2848C39.2447 10.5908 39.8768 10.0359 40.6678 9.62013C41.5468 9.15811 42.5861 8.92709 43.786 8.92709C44.7362 8.92709 45.5738 9.08109 46.2983 9.38912C47.0348 9.69712 47.605 10.1414 48.0087 10.7219C48.4246 11.2905 48.6323 11.9539 48.6323 12.7121C48.6323 13.3874 48.4841 14.0271 48.187 14.6313C47.9018 15.2236 47.4276 15.767 46.6099 16.7185L45.3849 18.393C45.2535 18.5726 45.3822 18.8251 45.6051 18.8251H48.6983Z" fill="#6AC06E"/>
<path d="M71.9597 14.8641V17.7772H75.2131C75.7942 17.7772 76.2647 17.6696 76.6242 17.4545C76.9897 17.2334 77.1723 16.845 77.1723 16.2893C77.1723 15.6738 76.9327 15.2675 76.4533 15.0703C76.0401 14.9328 75.5126 14.8641 74.8716 14.8641H71.9597ZM71.9597 19.9642V23.4868H75.2131C75.7942 23.4868 76.2467 23.4091 76.5702 23.2538C77.1573 22.9669 77.4509 22.4172 77.4509 21.6045C77.4509 20.9173 77.1663 20.4453 76.5972 20.1883C76.2797 20.0449 75.8332 19.9702 75.2581 19.9642H71.9597ZM75.7525 12.5695C77.3762 12.5934 78.5265 13.0625 79.2035 13.9767C79.611 14.5385 79.8146 15.2107 79.8146 15.9935C79.8146 16.8002 79.611 17.4485 79.2035 17.9385C78.9759 18.2134 78.6404 18.4644 78.1969 18.6915C78.874 18.9364 79.3832 19.3249 79.7247 19.8567C80.0722 20.3885 80.2461 21.0339 80.2461 21.7927C80.2461 22.5755 80.0482 23.2777 79.653 23.8991C79.4012 24.3114 79.0866 24.658 78.7091 24.9389C78.2839 25.2616 77.7804 25.4827 77.1993 25.6022C76.6242 25.7217 75.9981 25.7814 75.321 25.7814H69.3176V12.5695H75.7525ZM85.0003 14.8462H82.403V12.4888H85.0003V14.8462ZM82.403 16.0114H85.0003V25.7814H82.403V16.0114ZM86.4831 17.9206V16.101H87.8493V13.3762H90.3836V16.101H91.9744V17.9206H90.3836V23.0835C90.3836 23.4838 90.4346 23.7348 90.5365 23.8364C90.6385 23.932 90.95 23.9798 91.4712 23.9798C91.5491 23.9798 91.6298 23.9798 91.7138 23.9798C91.8037 23.9738 91.8907 23.9679 91.9744 23.9619V25.8711L90.7611 25.9159C89.5509 25.9577 88.7239 25.7486 88.2807 25.2884C87.9932 24.9956 87.8493 24.5445 87.8493 23.935V17.9206H86.4831ZM71.9597 35.2525V38.1656H75.2131C75.7942 38.1656 76.2647 38.058 76.6242 37.8429C76.9897 37.6217 77.1723 37.2335 77.1723 36.6775C77.1723 36.0621 76.9327 35.6559 76.4533 35.4586C76.0401 35.3213 75.5126 35.2525 74.8716 35.2525H71.9597ZM71.9597 40.3526V43.8752H75.2131C75.7942 43.8752 76.2467 43.7974 76.5702 43.6422C77.1573 43.3554 77.4509 42.8055 77.4509 41.9929C77.4509 41.3057 77.1663 40.8335 76.5972 40.5766C76.2797 40.4333 75.8332 40.3586 75.2581 40.3526H71.9597ZM75.7525 32.9579C77.3762 32.9818 78.5265 33.4507 79.2035 34.3652C79.611 34.9269 79.8146 35.5991 79.8146 36.3818C79.8146 37.1886 79.611 37.837 79.2035 38.3268C78.9759 38.6017 78.6404 38.8528 78.1969 39.0798C78.874 39.3248 79.3832 39.7132 79.7247 40.245C80.0722 40.777 80.2461 41.4223 80.2461 42.181C80.2461 42.9639 80.0482 43.6661 79.653 44.2876C79.4012 44.6997 79.0866 45.0463 78.7091 45.3271C78.2839 45.6498 77.7804 45.8711 77.1993 45.9904C76.6242 46.11 75.9981 46.1698 75.321 46.1698H69.3176V32.9579H75.7525Z" fill="white"/>
<path d="M99.4698 19.5161C99.4218 19.1516 99.2992 18.8229 99.1013 18.5301C98.8137 18.1357 98.3675 17.9385 97.7622 17.9385C96.8995 17.9385 96.3093 18.3658 95.9918 19.2203C95.8239 19.6744 95.7402 20.2779 95.7402 21.0309C95.7402 21.7479 95.8239 22.3246 95.9918 22.7608C96.2973 23.5735 96.8725 23.9798 97.7174 23.9798C98.3166 23.9798 98.7418 23.8185 98.9936 23.4958C99.2452 23.1731 99.3979 22.7548 99.4518 22.2409H102.067C102.007 23.0177 101.726 23.7527 101.222 24.4459C100.419 25.5633 99.2302 26.122 97.6545 26.122C96.0787 26.122 94.9192 25.656 94.1765 24.7238C93.4334 23.7916 93.0619 22.5815 93.0619 21.0936C93.0619 19.4145 93.4724 18.1088 94.2931 17.1767C95.1141 16.2445 96.2464 15.7784 97.6905 15.7784C98.9187 15.7784 99.9223 16.0533 100.701 16.603C101.486 17.1527 101.951 18.1238 102.094 19.5161H99.4698ZM108.259 23.9798C109.008 23.9798 109.584 23.7139 109.985 23.1821C110.386 22.6502 110.587 21.8943 110.587 20.9144C110.587 19.9344 110.386 19.1815 109.985 18.6556C109.584 18.1238 109.008 17.8579 108.259 17.8579C107.51 17.8579 106.932 18.1238 106.525 18.6556C106.124 19.1815 105.923 19.9344 105.923 20.9144C105.923 21.8943 106.124 22.6502 106.525 23.1821C106.932 23.7139 107.51 23.9798 108.259 23.9798ZM113.274 20.9144C113.274 22.3485 112.861 23.5765 112.034 24.5983C111.207 25.6141 109.952 26.122 108.268 26.122C106.585 26.122 105.33 25.6141 104.503 24.5983C103.676 23.5765 103.262 22.3485 103.262 20.9144C103.262 19.5041 103.676 18.2821 104.503 17.2484C105.33 16.2146 106.585 15.6977 108.268 15.6977C109.952 15.6977 111.207 16.2146 112.034 17.2484C112.861 18.2821 113.274 19.5041 113.274 20.9144ZM117.75 14.8462H115.153V12.4888H117.75V14.8462ZM115.153 16.0114H117.75V25.7814H115.153V16.0114ZM125.668 15.7784C126.68 15.7784 127.507 16.0443 128.148 16.5761C128.795 17.102 129.119 17.9774 129.119 19.2024V25.7814H126.495V19.8387C126.495 19.3249 126.426 18.9305 126.288 18.6556C126.036 18.1536 125.557 17.9027 124.85 17.9027C123.981 17.9027 123.385 18.2702 123.062 19.0052C122.894 19.3936 122.81 19.8896 122.81 20.4931V25.7814H120.258V16.0293H122.729V17.4545C123.059 16.9526 123.37 16.591 123.664 16.37C124.191 15.9756 124.859 15.7784 125.668 15.7784ZM135.356 17.8579C134.763 17.8579 134.302 18.0431 133.972 18.4136C133.648 18.7841 133.445 19.286 133.361 19.9194H137.342C137.3 19.2442 137.094 18.7333 136.722 18.3867C136.357 18.0341 135.901 17.8579 135.356 17.8579ZM135.356 15.7515C136.171 15.7515 136.905 15.9039 137.558 16.2086C138.211 16.5134 138.751 16.9944 139.176 17.6517C139.559 18.2313 139.808 18.9036 139.922 19.6684C139.988 20.1166 140.015 20.762 140.003 21.6045H133.298C133.334 22.5845 133.642 23.2717 134.224 23.6661C134.577 23.9111 135.003 24.0336 135.5 24.0336C136.027 24.0336 136.456 23.8842 136.785 23.5854C136.965 23.4241 137.124 23.2 137.261 22.9132H139.877C139.811 23.4928 139.508 24.0814 138.969 24.6789C138.13 25.629 136.956 26.1041 135.446 26.1041C134.2 26.1041 133.1 25.7037 132.148 24.903C131.195 24.1023 130.719 22.7996 130.719 20.995C130.719 19.3039 131.147 18.0072 132.004 17.1049C132.867 16.2026 133.984 15.7515 135.356 15.7515ZM147.058 15.7784C147.106 15.7784 147.145 15.7814 147.175 15.7873C147.21 15.7873 147.285 15.7903 147.399 15.7963V18.4136C147.237 18.3957 147.094 18.3837 146.968 18.3777C146.842 18.3718 146.74 18.3688 146.662 18.3688C145.632 18.3688 144.94 18.7034 144.586 19.3727C144.388 19.7491 144.289 20.3287 144.289 21.1116V25.7814H141.71V16.0114H144.155V17.7144C144.55 17.0631 144.895 16.6179 145.188 16.3789C145.668 15.9786 146.291 15.7784 147.058 15.7784ZM87.7683 41.4193C87.6066 41.5207 87.4417 41.6045 87.2741 41.6702C87.1122 41.73 86.8876 41.7866 86.6 41.8404L86.0249 41.9481C85.4855 42.0438 85.0993 42.1601 84.8654 42.2977C84.4702 42.5306 84.2723 42.8922 84.2723 43.3823C84.2723 43.8184 84.3922 44.1351 84.6318 44.3324C84.8774 44.5235 85.1739 44.6192 85.5215 44.6192C86.0729 44.6192 86.579 44.4577 87.0405 44.1351C87.5077 43.8124 87.7503 43.2238 87.7683 42.3694V41.4193ZM86.2135 40.227C86.687 40.1672 87.0255 40.0927 87.2291 40.003C87.5947 39.8475 87.7773 39.6056 87.7773 39.2769C87.7773 38.8768 87.6366 38.6017 87.3551 38.4524C87.0795 38.2969 86.672 38.2194 86.1326 38.2194C85.5275 38.2194 85.0992 38.3687 84.8474 38.6674C84.6678 38.8885 84.5478 39.1875 84.4881 39.5637H82.0165C82.0704 38.7093 82.31 38.0071 82.7355 37.4575C83.4126 36.5971 84.5748 36.1667 86.2225 36.1667C87.2951 36.1667 88.2477 36.3788 89.0804 36.8031C89.9134 37.2275 90.3296 38.0281 90.3296 39.2052V43.6871C90.3296 43.9978 90.3356 44.374 90.3476 44.8163C90.3656 45.1509 90.4166 45.3779 90.5005 45.4975C90.5845 45.6172 90.7102 45.7156 90.8781 45.7933V46.1698H88.0918C88.0141 45.9725 87.9602 45.7873 87.9302 45.6142C87.9002 45.4407 87.8762 45.2436 87.8582 45.0224C87.5047 45.4048 87.0972 45.7305 86.636 45.9994C86.0849 46.3161 85.4618 46.4746 84.7667 46.4746C83.8798 46.4746 83.146 46.2236 82.5649 45.7215C81.9895 45.2137 81.7019 44.4966 81.7019 43.5704C81.7019 42.3694 82.1664 41.4998 83.095 40.9621C83.6042 40.6693 84.3532 40.4603 85.3418 40.3347L86.2135 40.227ZM98.041 36.1667C99.0533 36.1667 99.8803 36.4326 100.521 36.9643C101.168 37.4904 101.492 38.3657 101.492 39.5906V46.1698H98.8677V40.227C98.8677 39.7132 98.7987 39.3188 98.6611 39.044C98.4092 38.5421 97.9301 38.2909 97.223 38.2909C96.3543 38.2909 95.7582 38.6585 95.4347 39.3935C95.2668 39.782 95.1828 40.2778 95.1828 40.8813V46.1698H92.6304V36.4177H95.1021V37.8429C95.4317 37.3408 95.7432 36.9793 96.0368 36.7583C96.5639 36.3638 97.232 36.1667 98.041 36.1667ZM103.838 33.0027H106.354V40.1196L109.545 36.4446H112.717L109.293 40.1822L112.852 46.1698H109.76L107.415 41.9929L106.354 43.0953V46.1698H103.838V33.0027Z" fill="white"/>
</svg>
