<svg width="32" height="27" viewBox="0 0 32 27" fill="none" xmlns="http://www.w3.org/2000/svg">
<g clip-path="url(#clip0_101_858)">
<path d="M29.4467 3.95682L32 1.51416V0.979492H23.1547L16.8507 16.6702L9.67867 0.979492H0.404V1.51416L3.38667 5.10482C3.67733 5.37016 3.82933 5.75816 3.79067 6.14882V20.2595C3.88267 20.7675 3.71733 21.2902 3.36 21.6595L0 25.7315V26.2595H9.52667V25.7248L6.16667 21.6595C5.80267 21.2888 5.63067 20.7755 5.704 20.2595V8.05416L14.0667 26.2662H15.0387L22.2293 8.05416V22.5622C22.2293 22.9448 22.2293 23.0235 21.9787 23.2742L19.392 25.7768V26.3128H31.9413V25.7782L29.448 23.3368C29.2293 23.1715 29.116 22.8942 29.1627 22.6248V4.66882C29.116 4.39816 29.228 4.12082 29.4467 3.95682Z" fill="white"/>
</g>
<defs>
<clipPath id="clip0_101_858">
<rect width="32" height="26" fill="white" transform="translate(0 0.979492)"/>
</clipPath>
</defs>
</svg>
