<svg width="24" height="25" viewBox="0 0 24 25" fill="none" xmlns="http://www.w3.org/2000/svg">
<g opacity="0.68">
<path d="M20 4.97949H4C2.9 4.97949 2.01 5.87949 2.01 6.97949L2 18.9795C2 20.0795 2.9 20.9795 4 20.9795H20C21.1 20.9795 22 20.0795 22 18.9795V6.97949C22 5.87949 21.1 4.97949 20 4.97949ZM19.6 9.22949L12.53 13.6495C12.21 13.8495 11.79 13.8495 11.47 13.6495L4.4 9.22949C4.29973 9.1732 4.21192 9.09715 4.14189 9.00595C4.07186 8.91474 4.02106 8.81027 3.99258 8.69886C3.96409 8.58746 3.9585 8.47143 3.97616 8.3578C3.99381 8.24417 4.03434 8.13531 4.09528 8.03779C4.15623 7.94028 4.23632 7.85615 4.33073 7.79049C4.42513 7.72483 4.53187 7.679 4.6445 7.65579C4.75712 7.63258 4.87328 7.63246 4.98595 7.65544C5.09863 7.67842 5.20546 7.72403 5.3 7.78949L12 11.9795L18.7 7.78949C18.7945 7.72403 18.9014 7.67842 19.014 7.65544C19.1267 7.63246 19.2429 7.63258 19.3555 7.65579C19.4681 7.679 19.5749 7.72483 19.6693 7.79049C19.7637 7.85615 19.8438 7.94028 19.9047 8.03779C19.9657 8.13531 20.0062 8.24417 20.0238 8.3578C20.0415 8.47143 20.0359 8.58746 20.0074 8.69886C19.9789 8.81027 19.9281 8.91474 19.8581 9.00595C19.7881 9.09715 19.7003 9.1732 19.6 9.22949Z" fill="white"/>
</g>
</svg>
