<svg width="40" height="40" viewBox="0 0 40 40" fill="none" xmlns="http://www.w3.org/2000/svg">
<path fill-rule="evenodd" clip-rule="evenodd" d="M19.4908 0.133646C19.3189 0.216329 16.3296 2.04716 12.8479 4.20216L6.51768 8.12017L4.75927 8.12291C3.54574 8.12471 2.87981 8.15795 2.61011 8.23015C1.56328 8.51051 0.788955 9.1557 0.320204 10.1382L0.0311221 10.7442V11.8784V13.0127L0.323017 13.6246C0.693767 14.4017 1.24848 14.9609 1.96802 15.2829L2.48867 15.5159L2.49078 24.3981L2.49289 33.2804L2.19982 33.385C1.75412 33.5441 1.11219 33.9964 0.819903 34.3574C-0.64559 36.1667 -0.0832131 38.7127 2.00202 39.7093L2.61011 40H19.9988H37.3874L37.9929 39.7106C40.0829 38.7117 40.6455 36.1696 39.1776 34.3574C38.8853 33.9964 38.2434 33.5441 37.7977 33.385L37.5047 33.2804L37.5068 24.3981L37.5089 15.5159L38.032 15.2817C38.9282 14.8808 39.6267 14.0318 39.8991 13.0127C40.0336 12.5094 40.0336 11.2475 39.8991 10.7442C39.5612 9.48002 38.561 8.48852 37.3394 8.2066C37.1509 8.16311 36.2094 8.12666 35.2472 8.12557L33.4977 8.12369L26.9799 4.08521C19.884 -0.311449 20.1376 -0.177608 19.4908 0.133646ZM24.258 5.34486C26.5361 6.75273 28.4515 7.95402 28.5144 8.01417C28.6126 8.10804 27.3975 8.12369 19.9999 8.12369C13.5181 8.12369 11.3931 8.10139 11.4604 8.03412C11.6435 7.85076 19.9627 2.73491 20.0378 2.75947C20.0808 2.77347 21.9799 3.9369 24.258 5.34486ZM37.2101 10.9217C37.4606 11.1725 37.4656 11.191 37.4656 11.8784C37.4656 12.5659 37.4606 12.5844 37.2101 12.8352L36.9546 13.0909H19.9988H3.04291L2.78744 12.8352C2.5372 12.5847 2.53196 12.5653 2.53196 11.8832C2.53196 11.2489 2.54931 11.1683 2.72734 10.9766C2.8348 10.8609 2.99305 10.7369 3.07902 10.7012C3.16499 10.6654 10.8222 10.6429 20.095 10.6511L36.9546 10.666L37.2101 10.9217ZM11.2458 24.3943V33.1554H8.11978H4.99373V24.3943V15.6332H8.11978H11.2458V24.3943ZM26.2509 24.3943V33.1554H19.9988H13.7467V24.3943V15.6332H19.9988H26.2509V24.3943ZM35.0038 24.3943V33.1554H31.8778H28.7517V24.3943V15.6332H31.8778H35.0038V24.3943ZM19.4908 16.9952C19.0579 17.1878 18.7487 17.6568 18.748 18.1219C18.7478 18.3009 18.6737 18.3703 18.2476 18.5909C16.8844 19.2963 16.0684 20.9123 16.3044 22.4387C16.5779 24.2074 18.1932 25.6459 19.9057 25.6459C21.1753 25.6459 21.7127 27.1383 20.7171 27.8992C20.4415 28.1098 20.4402 28.1099 18.7406 28.1491C16.8781 28.1919 16.8394 28.2016 16.4477 28.7267C16.2218 29.0296 16.2218 29.7717 16.4477 30.0745C16.796 30.5414 16.9725 30.611 17.8797 30.6392L18.7194 30.6653L18.8088 30.9998C18.9723 31.6119 19.6132 31.9936 20.27 31.8703C20.7893 31.7728 21.2492 31.2096 21.2492 30.671C21.2492 30.4804 21.3094 30.4205 21.6891 30.2342C23.0657 29.5584 23.9177 27.9245 23.6962 26.3855C23.4391 24.5994 21.82 23.1427 20.0918 23.1427C18.8222 23.1427 18.2848 21.6503 19.2805 20.8894C19.556 20.6788 19.5574 20.6787 21.2569 20.6395C23.1194 20.5967 23.1581 20.587 23.5498 20.0619C23.7757 19.759 23.7757 19.0169 23.5498 18.7141C23.201 18.2464 23.0256 18.1776 22.1108 18.1492L21.264 18.1229L21.2144 17.8581C21.0776 17.1284 20.1902 16.6841 19.4908 16.9952ZM37.2101 35.9534C37.43 36.1735 37.4656 36.2632 37.4656 36.5973C37.4656 36.9313 37.43 37.021 37.2101 37.2411L36.9546 37.4968H19.9988H3.04291L2.78744 37.2411C2.56838 37.0219 2.53196 36.9306 2.53196 36.602C2.53196 36.1988 2.73516 35.8759 3.07902 35.7329C3.16499 35.6971 10.8222 35.6746 20.095 35.6828L36.9546 35.6977L37.2101 35.9534Z" fill="black"/>
</svg>
