<svg width="40" height="33" viewBox="0 0 40 33" fill="none" xmlns="http://www.w3.org/2000/svg">
<path fill-rule="evenodd" clip-rule="evenodd" d="M18.1162 0.0784342C11.9014 0.681584 6.43565 4.21691 3.92286 9.25884C3.75839 9.58893 3.61807 9.86995 3.61104 9.8833C3.57471 9.95217 3.10724 9.64534 2.89543 9.41368C2.5747 9.06297 2.46883 8.65847 2.53337 8.02996C2.57743 7.60056 2.56048 7.4758 2.42289 7.21684C1.96168 6.34879 0.672818 6.35112 0.210747 7.22081C-0.0179439 7.65127 -0.0694327 8.63311 0.100347 9.32614C0.373808 10.4424 1.18153 11.4345 2.21639 11.9252C2.51719 12.0678 2.7769 12.192 2.79355 12.2011C2.81011 12.2102 2.763 12.5646 2.68877 12.9888C2.0352 16.7249 3.04396 20.6667 5.45885 23.8125C5.74388 24.1838 6.17696 24.6947 6.4212 24.9478L6.86522 25.4079L6.86639 27.3484C6.86725 28.8123 6.89647 29.4067 6.98531 29.7687C7.44074 31.6238 9.25308 33 11.2406 33C12.8774 33 14.4329 32.0692 15.123 30.677C15.412 30.0941 15.4274 30.0779 15.655 30.1196C18.0755 30.5632 19.4672 30.6676 21.255 30.5393C21.9566 30.489 22.9864 30.3659 23.5435 30.2657C24.1006 30.1656 24.5597 30.0905 24.5637 30.0988C25.2752 31.5792 26.1477 32.3794 27.492 32.784C28.1839 32.9923 29.2917 32.9917 29.9922 32.7827C31.0476 32.4677 32.0937 31.659 32.5918 30.773C33.0289 29.9954 33.1175 29.4239 33.1175 27.3798V25.5323L33.5146 25.16C34.0736 24.6361 34.7782 23.7865 35.3634 22.931C35.8214 22.2614 35.8847 22.1995 36.1119 22.1984C36.2483 22.1978 36.5852 22.1464 36.8605 22.084C38.3174 21.7543 39.5293 20.5906 39.8727 19.1918C40.0424 18.5006 40.0424 14.4957 39.8727 13.8045C39.5964 12.6787 38.7775 11.7078 37.6882 11.2142C37.3444 11.0585 37.0163 10.9092 36.9592 10.8825C36.902 10.8558 36.7394 10.5463 36.5978 10.1947C36.4563 9.84316 36.1955 9.27857 36.0182 8.94001C35.8408 8.60146 35.6958 8.28135 35.6958 8.22876C35.6958 8.17617 35.8134 7.9743 35.9571 7.78023C37.0705 6.27663 37.1478 4.27993 36.1703 2.27611C35.7946 1.50574 35.1254 0.501689 34.8274 0.26088C34.5466 0.0340981 34.1158 -0.0527734 33.7456 0.0428754C33.5935 0.0821852 32.6027 0.6446 31.544 1.29261L29.6189 2.47093L29.1219 2.20011C27.8217 1.49156 25.5464 0.681509 23.9979 0.375883C22.2123 0.0233705 19.8923 -0.0939587 18.1162 0.0784342ZM22.5839 2.57618C24.6689 2.88856 26.6213 3.56185 28.4678 4.60529C29.2883 5.06898 29.6126 5.15862 30 5.02892C30.1388 4.98248 30.9976 4.48893 31.9085 3.93214C32.8194 3.37535 33.604 2.91977 33.652 2.91977C33.7738 2.91977 34.0075 3.38398 34.2133 4.03417C34.3477 4.45922 34.379 4.70596 34.351 5.12104C34.303 5.83267 34.1037 6.23732 33.4798 6.8902C32.9393 7.45562 32.7534 7.84984 32.8428 8.24054C32.8688 8.35442 33.0326 8.68075 33.2068 8.96575C33.7801 9.9037 34.127 10.6272 34.4862 11.6341C34.681 12.1803 34.901 12.6915 34.975 12.7699C35.1857 12.9935 35.5211 13.1312 36.0197 13.1989C36.5823 13.2752 36.968 13.4945 37.2441 13.8948L37.4538 14.1987L37.4788 16.3049C37.5056 18.5467 37.4742 18.8167 37.138 19.2445C36.8381 19.6263 36.4692 19.7495 35.4845 19.7972C34.3119 19.854 34.3259 19.8438 33.4869 21.241C32.9579 22.122 32.4179 22.7928 31.4969 23.7129C31.056 24.1534 30.689 24.5247 30.6812 24.5381C30.6733 24.5516 30.647 25.626 30.6226 26.9257C30.5806 29.1602 30.569 29.3052 30.4096 29.5889C30.0473 30.2335 29.4877 30.5591 28.7421 30.5591C27.6543 30.5591 26.9956 29.9084 26.8697 28.7094C26.801 28.0549 26.6802 27.8305 26.2427 27.5446C25.9055 27.3243 25.5111 27.3277 24.6759 27.5581C23.0861 27.9966 21.8772 28.1533 20.0695 28.1554C18.3564 28.1574 17.3583 28.0408 15.8643 27.6642C14.1956 27.2437 14.2784 27.2522 13.8529 27.4569C13.3087 27.7186 13.1842 27.923 13.1132 28.6707C12.9961 29.9035 12.3492 30.5542 11.2406 30.5542C10.4905 30.5542 9.93486 30.2325 9.57311 29.5889C9.41309 29.3041 9.40255 29.1665 9.36543 26.8882C9.34395 25.5679 9.29324 24.437 9.25277 24.3751C9.2123 24.3132 8.8868 23.9588 8.5295 23.5874C7.53379 22.5527 6.99531 21.813 6.37221 20.6242C5.02866 18.0608 4.67339 15.3957 5.31728 12.7097C6.35744 8.3704 9.95345 4.77753 14.8143 3.22104C15.8232 2.89801 17.2977 2.59133 18.3896 2.47746C19.3231 2.38016 21.6393 2.43462 22.5839 2.57618ZM15.1042 6.70033C14.5869 6.91864 14.2894 7.49335 14.4001 8.06012C14.4686 8.41068 14.8586 8.82516 15.213 8.92426C15.4051 8.9779 17.0275 8.99665 20.1614 8.98143C24.7301 8.95922 24.8285 8.95562 25.0399 8.80408C25.4499 8.51016 25.5778 8.2704 25.5778 7.79598C25.5778 7.32156 25.4499 7.0818 25.0399 6.78788C24.8282 6.63604 24.7358 6.63289 20.0833 6.61646C16.2613 6.60296 15.2963 6.61924 15.1042 6.70033Z" fill="black"/>
</svg>
