<svg width="40" height="40" viewBox="0 0 40 40" fill="none" xmlns="http://www.w3.org/2000/svg">
<path fill-rule="evenodd" clip-rule="evenodd" d="M26.997 0.0920712C26.7089 0.221891 26.4486 0.497397 26.338 0.789395C26.2839 0.932345 26.2546 2.14371 26.2546 4.24788V7.48634H25.01H23.7654L23.7403 6.31937C23.7129 5.04938 23.6754 4.93238 23.1771 4.56027C22.9681 4.40411 22.869 4.39911 20.0035 4.39911C17.138 4.39911 17.0389 4.40411 16.8299 4.56027C16.3316 4.93238 16.2941 5.04938 16.2668 6.31937L16.2416 7.48634H9.45081C2.76947 7.48634 2.65195 7.489 2.16163 7.65C1.2303 7.95584 0.46938 8.71694 0.163623 9.6485C0.000703245 10.145 0 10.1923 0 21.2421C0 32.2919 0.000703245 32.3393 0.163623 32.8357C0.445391 33.6944 1.15442 34.4505 2.00926 34.8041C2.37143 34.9539 2.61327 34.9595 9.66968 34.9803C13.9847 34.993 16.9561 35.0308 16.9561 35.073C16.9561 35.1121 16.5254 35.8586 15.9989 36.7319C15.0788 38.258 15.0417 38.3365 15.0417 38.7555C15.0417 39.1085 15.0818 39.244 15.2522 39.4675C15.6684 40.0133 15.5496 40 20.0035 40C24.4574 40 24.3387 40.0133 24.7548 39.4675C24.9253 39.244 24.9653 39.1085 24.9653 38.7555C24.9653 38.3365 24.9282 38.258 24.0081 36.7319C23.4816 35.8586 23.0509 35.1121 23.0509 35.073C23.0509 35.0308 26.0224 34.993 30.3374 34.9803L37.6238 34.9588L38.1458 34.7114C38.8722 34.3672 39.3247 33.9241 39.6761 33.2128L39.968 32.6222L39.9899 21.4025C40.0118 10.192 40.0117 10.1824 39.8477 9.66898C39.5468 8.72624 38.7857 7.95873 37.8454 7.65C37.3982 7.50315 37.163 7.48634 35.5539 7.48634H33.7608L33.7388 4.13119C33.7176 0.882246 33.7118 0.76923 33.5558 0.560314C33.4672 0.441671 33.2976 0.272069 33.179 0.183438C32.9715 0.0283726 32.8554 0.0215729 30.0973 0.00437818C27.8266 -0.00984653 27.1827 0.00836423 26.997 0.0920712ZM31.2555 10.3V18.1158H30.0053H28.7551V10.3V2.48425H30.0053H31.2555V10.3ZM21.2538 12.4884V18.1158H20.0035H18.7533V12.4884V6.86108H20.0035H21.2538V12.4884ZM16.2707 14.9056C16.2915 19.7343 16.2949 19.8278 16.4531 20.0396C16.5417 20.1584 16.7112 20.328 16.8299 20.4166C17.0389 20.5728 17.138 20.5778 20.0035 20.5778C22.869 20.5778 22.9681 20.5728 23.1771 20.4166C23.2958 20.328 23.4654 20.1584 23.554 20.0396C23.7122 19.8278 23.7155 19.7343 23.7364 14.9056L23.7576 9.98739H25.0044H26.2512L26.2725 14.9056C26.2933 19.7343 26.2967 19.8278 26.4548 20.0396C26.5434 20.1584 26.713 20.328 26.8317 20.4166C27.0407 20.5728 27.1398 20.5778 30.0053 20.5778C32.8708 20.5778 32.9699 20.5728 33.1789 20.4166C33.2976 20.328 33.4672 20.1584 33.5558 20.0396C33.7139 19.8278 33.7173 19.7343 33.7381 14.9056L33.7594 9.98739H35.3559C37.0536 9.98739 37.2716 10.0258 37.4199 10.3514C37.5431 10.622 37.5431 31.8623 37.4199 32.1328C37.3722 32.2376 37.2474 32.3623 37.1427 32.4101C36.8714 32.5337 3.13563 32.5337 2.86433 32.4101C2.75963 32.3623 2.63492 32.2376 2.58718 32.1328C2.47278 31.8816 2.46325 10.6425 2.57741 10.3421C2.61976 10.2307 2.73408 10.1075 2.83136 10.0684C2.93247 10.0278 5.84775 9.99521 9.62889 9.99232L16.2494 9.98739L16.2707 14.9056ZM6.98952 11.9717C6.67477 12.1107 6.34667 12.5098 6.28955 12.8229C6.26431 12.9614 6.25415 14.5932 6.26689 16.4493C6.28947 19.7169 6.29525 19.8308 6.4513 20.0397C6.5399 20.1584 6.70947 20.328 6.82816 20.4166C7.03718 20.5728 7.13626 20.5778 10.0018 20.5778C12.8673 20.5778 12.9664 20.5728 13.1754 20.4166C13.2941 20.328 13.4636 20.1584 13.5522 20.0396C13.7095 19.829 13.7134 19.7377 13.7134 16.24C13.7134 12.7423 13.7095 12.651 13.5522 12.4404C13.4636 12.3216 13.2941 12.152 13.1755 12.0634C12.9679 11.9084 12.8519 11.9016 10.0938 11.8844C7.83013 11.8701 7.17775 11.8885 6.98952 11.9717ZM11.252 16.24V18.1158H10.0018H8.75154V16.24V14.3642H10.0018H11.252V16.24ZM6.9531 23.8879C6.14405 24.3179 6.05169 25.4364 6.7794 25.9915L7.05937 26.2051H12.1897H17.3199L17.5999 25.9915C18.3276 25.4364 18.2353 24.3179 17.4262 23.8879C17.1694 23.7514 16.8712 23.7432 12.1897 23.7432C7.50812 23.7432 7.20987 23.7514 6.9531 23.8879ZM20.7487 36.2176C21.134 36.8454 21.4608 37.3906 21.4751 37.429C21.4899 37.4686 20.8535 37.4989 20.01 37.4989C19.19 37.4989 18.5189 37.4784 18.5189 37.4533C18.5189 37.3797 19.9603 35.076 20.0064 35.076C20.0296 35.076 20.3636 35.5898 20.7487 36.2176Z" fill="black"/>
</svg>
