<svg width="22" height="23" viewBox="0 0 22 23" fill="none" xmlns="http://www.w3.org/2000/svg">
<g opacity="0.68">
<path d="M13.9769 15.747L15.5169 14.207C15.7243 14.0022 15.9867 13.862 16.2723 13.8034C16.5579 13.7448 16.8543 13.7704 17.1256 13.877L19.0025 14.6264C19.2767 14.7377 19.5118 14.9276 19.6782 15.1723C19.8446 15.417 19.9348 15.7055 19.9375 16.0014V19.4389C19.9359 19.6402 19.8936 19.8391 19.8131 20.0236C19.7326 20.2081 19.6156 20.3744 19.4692 20.5125C19.3227 20.6506 19.1499 20.7576 18.961 20.8271C18.7721 20.8967 18.571 20.9272 18.37 20.917C5.21813 20.0989 2.56438 8.96139 2.0625 4.6989C2.0392 4.48958 2.06049 4.2777 2.12496 4.0772C2.18943 3.87669 2.29562 3.69212 2.43655 3.5356C2.57747 3.37909 2.74994 3.25419 2.94261 3.16911C3.13527 3.08404 3.34377 3.04073 3.55438 3.04202H6.875C7.17132 3.0429 7.4606 3.1324 7.70563 3.29903C7.95067 3.46565 8.14025 3.70177 8.25 3.97702L8.99938 5.8539C9.10955 6.12413 9.13766 6.42084 9.08019 6.70695C9.02272 6.99307 8.88223 7.25591 8.67625 7.46265L7.13625 9.00265C7.13625 9.00265 8.02313 15.0045 13.9769 15.747Z" fill="white"/>
</g>
</svg>
