<svg width="175" height="177" viewBox="0 0 175 177" fill="none" xmlns="http://www.w3.org/2000/svg">
<path d="M113.85 9.37285C125.44 7.31649 136.831 13.8928 140.845 24.9586L146.267 39.9045C147.653 43.7245 149.978 47.1344 153.027 49.8201L164.959 60.3276C173.793 68.1073 175.754 81.1129 169.605 91.151L161.3 104.709C159.178 108.174 157.961 112.118 157.763 116.176L156.987 132.056C156.413 143.814 147.467 153.455 135.785 154.907L120.008 156.867C115.975 157.368 112.133 158.876 108.836 161.251L95.9372 170.546C86.3867 177.428 73.2709 176.445 64.8528 168.216L53.483 157.103C50.577 154.263 47.0029 152.199 43.0899 151.103L27.7807 146.813C16.4457 143.637 9.03666 132.77 10.2211 121.058L11.8209 105.239C12.2297 101.196 11.6146 97.1155 10.0322 93.3726L3.84103 78.7287C-0.742905 67.8863 3.13388 55.3181 13.029 48.942L26.3936 40.3302C29.8096 38.1291 32.6166 35.1038 34.5563 31.5329L42.1453 17.5621C47.7641 7.21814 60.0075 2.413 71.1621 6.17386L86.2278 11.2534C90.0784 12.5517 94.1939 12.8601 98.1951 12.1502L113.85 9.37285Z" fill="#39A63E"/>
<path d="M31.3016 110.766L32.2456 112.548L37.7347 111.552L33.8279 115.534L34.772 117.316L42.9786 115.963L42.1084 114.32L36.2932 115.375L40.4523 111.195L39.5557 109.503L33.7669 110.607L37.8996 106.378L37.0294 104.736L31.3016 110.766Z" fill="white" fill-opacity="0.75"/>
<path d="M40.3635 125.487L44.8722 121.747L43.7936 120.447L39.285 124.186L40.3635 125.487ZM44.5014 119.977C44.4735 120.19 44.5782 120.44 44.8011 120.709C45.024 120.978 45.2501 121.127 45.4722 121.148C45.687 121.16 45.9281 121.062 46.1969 120.839C46.4657 120.616 46.6061 120.397 46.634 120.184C46.6547 119.962 46.55 119.712 46.3271 119.443C46.1042 119.175 45.8781 119.026 45.6633 119.013C45.4412 118.993 45.2001 119.09 44.9314 119.313C44.6626 119.536 44.5222 119.755 44.5014 119.977Z" fill="white" fill-opacity="0.75"/>
<path d="M49.5986 125.116L48.3732 123.953L47.5046 124.868L46.9328 124.325L45.847 125.469L46.4188 126.012L44.9065 127.605C43.906 128.658 43.9946 129.612 45.2118 130.768L45.8816 131.404L46.9674 130.26L46.3302 129.655C45.9381 129.283 45.9302 128.98 46.2792 128.613L47.6442 127.175L48.747 128.222L49.8328 127.078L48.73 126.031L49.5986 125.116Z" fill="white" fill-opacity="0.75"/>
<path d="M50.4433 135.34L52.0987 132.925C52.6845 132.07 53.2331 131.927 53.9671 132.43C54.6083 132.869 54.7176 133.367 54.2782 134.008L52.4318 136.703L53.8256 137.658L55.672 134.963C56.7417 133.402 56.6147 132.332 55.2767 131.415C54.6169 130.963 54.0191 130.799 53.474 130.917L55.2186 128.371L53.8248 127.416L49.0495 134.385L50.4433 135.34Z" fill="white" fill-opacity="0.75"/>
<path d="M65.5747 143.642L63.6517 145.972L65.3732 146.542L71.2879 139.365L69.5664 138.795L67.1317 141.809L66.9574 137.93L65.2467 137.363L65.5747 143.642Z" fill="white" fill-opacity="0.75"/>
<path d="M74.4028 140.94C73.8525 141.348 73.506 142.071 73.3487 143.129C73.1915 144.188 73.3129 144.98 73.7208 145.53C74.1287 146.081 74.8516 146.427 75.9101 146.584C76.9686 146.742 77.761 146.62 78.3113 146.212C78.8616 145.804 79.2081 145.082 79.3653 144.023C79.5226 142.965 79.4012 142.172 78.9932 141.622C78.5853 141.072 77.8624 140.725 76.804 140.568C75.7455 140.411 74.9531 140.532 74.4028 140.94ZM75.02 143.377C75.1723 142.352 75.6363 141.989 76.5722 142.128C77.5081 142.267 77.8463 142.75 77.6941 143.775C77.5434 144.789 77.0778 145.164 76.1418 145.025C75.2059 144.886 74.8694 144.391 75.02 143.377Z" fill="white" fill-opacity="0.75"/>
<path d="M83.9633 144.911C84.0334 146.802 84.7726 147.586 86.3823 147.527C87.1477 147.498 87.7143 147.274 88.0936 146.866L88.1116 147.35L89.8001 147.287L89.583 141.434L87.8945 141.496L88.0031 144.423C88.0415 145.459 87.6971 145.9 86.8304 145.932C86.0537 145.961 85.6805 145.625 85.6517 144.848L85.5307 141.584L83.8422 141.647L83.9633 144.911Z" fill="white" fill-opacity="0.75"/>
<path d="M95.7966 143.665C95.5948 142.648 95.7988 142.171 96.5501 142.022L97.6439 141.805L97.3369 140.258L96.7513 140.375C96.0663 140.511 95.5821 140.79 95.3097 141.212L95.2264 140.792L93.5691 141.121L94.7095 146.866L96.3668 146.537L95.7966 143.665Z" fill="white" fill-opacity="0.75"/>
<path d="M110.719 142.269C112.426 141.45 112.922 140.375 112.308 138.758L110.805 139.479C110.952 140.071 110.708 140.525 110.068 140.832C109.255 141.222 108.72 140.992 108.277 140.067C107.828 139.133 107.989 138.582 108.801 138.192C109.461 137.875 109.923 137.953 110.318 138.463L111.821 137.742C110.944 136.252 109.795 135.966 108.089 136.785C106.23 137.676 105.832 138.879 106.753 140.798C107.674 142.718 108.861 143.16 110.719 142.269Z" fill="white" fill-opacity="0.75"/>
<path d="M116.984 135.414C116.399 134.559 116.398 134.041 117.03 133.608L117.95 132.978L117.06 131.677L116.567 132.014C115.991 132.409 115.656 132.856 115.571 133.351L115.329 132.998L113.935 133.952L117.245 138.785L118.639 137.831L116.984 135.414Z" fill="white" fill-opacity="0.75"/>
<path d="M125.159 132.976L126.284 135.78L127.609 134.541L124.138 125.913L122.814 127.151L124.295 130.731L120.806 129.028L119.489 130.258L125.159 132.976Z" fill="white" fill-opacity="0.75"/>
<path d="M134.392 127.557L131.713 125.553C132.299 125.484 132.842 125.117 133.341 124.449C134.401 123.034 134.129 121.874 132.425 120.598C130.721 119.322 129.531 119.389 128.472 120.804C127.972 121.472 127.772 122.096 127.872 122.677L127.448 122.36L126.435 123.712L133.379 128.91L134.392 127.557ZM130.895 124.503C130.586 124.54 130.221 124.407 129.806 124.097C128.985 123.482 128.877 122.895 129.437 122.146C129.997 121.398 130.592 121.336 131.413 121.951C131.827 122.261 132.064 122.565 132.116 122.871C132.177 123.184 132.058 123.531 131.782 123.901C131.505 124.271 131.212 124.474 130.895 124.503Z" fill="white" fill-opacity="0.75"/>
<path d="M132.147 113.195L132.852 111.848L134.249 112.579L133.545 113.926L135.301 114.845C135.527 114.963 135.717 114.999 135.869 114.951C136.024 114.897 136.165 114.75 136.29 114.51L136.697 113.732L138.094 114.463L137.666 115.281C137.276 116.026 136.846 116.492 136.376 116.678C135.909 116.858 135.353 116.779 134.708 116.441L132.761 115.423L132.396 116.122L130.999 115.391L131.364 114.692L130.246 114.107L131.029 112.61L132.147 113.195Z" fill="white" fill-opacity="0.75"/>
<path d="M136.398 108.16C136.195 107.511 136.34 106.714 136.835 105.77C137.329 104.825 137.9 104.251 138.549 104.048C139.198 103.845 139.994 103.99 140.939 104.484C141.884 104.979 142.458 105.55 142.661 106.199C142.864 106.847 142.719 107.644 142.224 108.589C141.73 109.534 141.159 110.108 140.51 110.311C139.861 110.514 139.065 110.368 138.12 109.874C137.175 109.38 136.601 108.808 136.398 108.16ZM138.903 108.377C139.355 108.614 139.733 108.693 140.037 108.614C140.344 108.529 140.608 108.277 140.827 107.858C141.046 107.439 141.102 107.082 140.993 106.788C140.887 106.487 140.608 106.218 140.156 105.982C139.697 105.741 139.317 105.666 139.016 105.754C138.713 105.833 138.451 106.081 138.232 106.501C138.013 106.92 137.956 107.28 138.061 107.581C138.163 107.871 138.444 108.137 138.903 108.377Z" fill="white" fill-opacity="0.75"/>
<path d="M38.7171 66.737L37.5984 71.4265L36.174 71.0867L37.162 66.9451L35.6281 66.5791L34.6401 70.7208L33.2157 70.381L34.3344 65.6915L32.6909 65.2994L31.154 71.742L38.8237 73.5717L40.3606 67.1291L38.7171 66.737Z" fill="white" fill-opacity="0.75"/>
<path d="M42.1482 62.2281C42.498 61.4592 42.5849 60.8057 42.4089 60.2677L42.8293 60.459L43.5289 58.921L40.4529 57.5217C38.8022 56.7708 37.7496 57.2077 36.9287 59.0123C36.1777 60.663 36.4226 61.7025 37.7061 62.472L38.3964 60.9545C38.0282 60.6757 37.9771 60.2441 38.2383 59.6699C38.5508 58.9829 38.9461 58.7668 39.5436 58.9767L38.8719 60.4531C38.163 62.0116 38.3464 62.887 39.546 63.4327C40.7354 63.9738 41.5279 63.5918 42.1482 62.2281ZM40.1841 61.8668C39.856 61.7175 39.8599 61.2738 40.191 60.5458L40.6761 59.4795L40.7274 59.5028C41.2717 59.9113 41.3563 60.4324 40.9972 61.2219C40.7407 61.7858 40.4712 61.9974 40.1841 61.8668Z" fill="white" fill-opacity="0.75"/>
<path d="M43.5776 52.8488C42.7144 52.2755 42.5198 51.7947 42.9436 51.1567L43.5605 50.2277L42.2468 49.3553L41.9165 49.8526C41.5302 50.4344 41.3874 50.9751 41.4945 51.4654L41.1379 51.2286L40.2032 52.6361L45.0826 55.8765L46.0173 54.469L43.5776 52.8488Z" fill="white" fill-opacity="0.75"/>
<path d="M49.8392 49.1276L47.683 47.1456C46.92 46.4443 46.8488 45.8893 47.4586 45.2258C47.9999 44.637 48.4933 44.6163 49.0655 45.1422L51.4704 47.3529L52.6139 46.1089L50.2089 43.8983C48.8157 42.6176 47.7383 42.5913 46.6407 43.7854C46.0994 44.3742 45.8523 44.9427 45.8917 45.4991L45.5268 45.1637L44.3834 46.4076L48.6957 50.3715L49.8392 49.1276Z" fill="white" fill-opacity="0.75"/>
<path d="M77.9509 30.6564L73.2572 31.7573L72.9228 30.3317L77.0681 29.3594L76.708 27.8241L72.5627 28.7964L72.2283 27.3707L76.922 26.2698L76.5361 24.6248L70.0878 26.1373L71.8884 33.8139L78.3367 32.3014L77.9509 30.6564Z" fill="white" fill-opacity="0.75"/>
<path d="M83.6119 31.6915C84.4562 31.6618 85.0798 31.4482 85.4829 31.0508L85.4991 31.5124L87.1877 31.4529L87.0688 28.0758C87.005 26.2633 86.1446 25.5159 84.1634 25.5857C82.3509 25.6495 81.5296 26.3321 81.4131 27.824L83.0792 27.7654C83.1646 27.3115 83.5282 27.0733 84.1586 27.0511C84.9128 27.0245 85.2826 27.282 85.361 27.9104L83.74 27.9675C82.0289 28.0278 81.3271 28.5822 81.3734 29.8993C81.4194 31.2051 82.1147 31.7442 83.6119 31.6915ZM83.0596 29.7723C83.047 29.4121 83.4459 29.2177 84.2451 29.1896L85.4159 29.1483L85.4179 29.2046C85.2949 29.874 84.8662 30.1821 83.9994 30.2126C83.3802 30.2344 83.0707 30.0875 83.0596 29.7723Z" fill="white" fill-opacity="0.75"/>
<path d="M92.7431 28.7768C92.8702 27.7483 93.2134 27.3594 93.9736 27.4534L95.0803 27.5901L95.2737 26.0251L94.6812 25.9518C93.9881 25.8662 93.4406 25.9801 93.0498 26.295L93.1023 25.8702L91.4254 25.663L90.7071 31.4762L92.384 31.6834L92.7431 28.7768Z" fill="white" fill-opacity="0.75"/>
<path d="M98.9889 32.731L99.8087 29.9194C100.099 28.9245 100.565 28.6145 101.43 28.8667C102.197 29.0906 102.435 29.5235 102.217 30.2697L101.303 33.4057L102.925 33.8787L103.84 30.7426C104.369 28.9259 103.915 27.9487 102.358 27.4946C101.59 27.2708 100.971 27.3015 100.49 27.5836L100.628 27.1078L99.0064 26.6348L97.3668 32.258L98.9889 32.731Z" fill="white" fill-opacity="0.75"/>
<path d="M127.989 49.7209L124.922 46.0007L126.052 45.0693L128.76 48.3549L129.977 47.3519L127.269 44.0663L128.399 43.1349L131.466 46.8551L132.769 45.7804L128.557 40.6695L122.472 45.6847L126.685 50.7956L127.989 49.7209Z" fill="white" fill-opacity="0.75"/>
<path d="M129.475 55.0362C129.88 55.7778 130.35 56.2399 130.885 56.4224L130.48 56.6436L131.289 58.1269L134.256 56.5088C135.848 55.6404 136.131 54.5364 135.182 52.796C134.313 51.2039 133.335 50.7751 131.949 51.3387L132.747 52.8023C133.191 52.6755 133.567 52.894 133.869 53.4477C134.231 54.1103 134.166 54.5562 133.639 54.9077L132.862 53.4837C132.043 51.9806 131.233 51.6012 130.076 52.2323C128.928 52.8579 128.758 53.721 129.475 55.0362ZM130.944 53.6832C131.26 53.5106 131.613 53.7803 131.996 54.4824L132.557 55.5109L132.507 55.5379C131.854 55.7275 131.386 55.4821 130.971 54.7207C130.674 54.1768 130.667 53.8343 130.944 53.6832Z" fill="white" fill-opacity="0.75"/>
<path d="M136.174 61.8624C137.151 61.5171 137.652 61.6506 137.907 62.3728L138.279 63.4242L139.766 62.8988L139.567 62.3359C139.334 61.6774 138.988 61.2383 138.532 61.0292L138.935 60.8865L138.372 59.2935L132.85 61.2453L133.413 62.8383L136.174 61.8624Z" fill="white" fill-opacity="0.75"/>
<path d="M135.4 69.0356L138.28 68.5085C139.3 68.322 139.786 68.5995 139.948 69.486C140.092 70.2727 139.811 70.679 139.047 70.8189L135.833 71.4067L136.137 73.0688L139.351 72.4809C141.212 72.1404 141.882 71.2964 141.59 69.7008C141.446 68.9141 141.142 68.3744 140.674 68.0706L141.161 67.9815L140.857 66.3194L135.095 67.3735L135.4 69.0356Z" fill="white" fill-opacity="0.75"/>
<path fill-rule="evenodd" clip-rule="evenodd" d="M141.188 84.9634C140.73 85.1141 140.589 85.2677 140.143 86.1021C139.699 86.9323 139.352 87.2827 138.551 87.7075C138.228 87.879 137.873 88.0956 137.764 88.1888C137.398 88.5007 137.266 88.9704 137.404 89.4695C137.496 89.8021 137.769 90.045 138.482 90.4284C139.349 90.895 139.693 91.2325 140.119 92.0331C140.509 92.7668 140.619 92.9109 140.918 93.0875C141.117 93.2053 141.225 93.232 141.5 93.232C141.775 93.232 141.882 93.2053 142.082 93.0875C142.379 92.912 142.485 92.7714 142.879 92.0331C143.305 91.2347 143.649 90.8976 144.528 90.4195C145.412 89.9383 145.65 89.6557 145.65 89.0879C145.65 88.5158 145.4 88.2191 144.52 87.748C143.652 87.2839 143.308 86.9469 142.879 86.1427C142.489 85.4108 142.378 85.2633 142.097 85.0978C141.852 84.9532 141.415 84.8887 141.188 84.9634ZM143.074 88.8472C142.629 88.5863 142.043 88.0027 141.754 87.5314C141.628 87.3271 141.514 87.1601 141.5 87.1601C141.485 87.1601 141.372 87.3258 141.248 87.5284C140.959 87.999 140.416 88.5442 139.947 88.8345C139.746 88.9595 139.581 89.0735 139.581 89.0879C139.581 89.1022 139.746 89.2162 139.947 89.3412C140.416 89.6315 140.959 90.1768 141.248 90.6473C141.372 90.8499 141.485 91.0157 141.5 91.0157C141.514 91.0157 141.63 90.8458 141.757 90.6382C142.049 90.162 142.622 89.591 143.072 89.3286C143.263 89.2173 143.42 89.109 143.42 89.0879C143.42 89.0668 143.264 88.9585 143.074 88.8472Z" fill="white" fill-opacity="0.75"/>
<path fill-rule="evenodd" clip-rule="evenodd" d="M32.335 84.9634C31.8769 85.1141 31.7359 85.2677 31.2899 86.1021C30.846 86.9323 30.4986 87.2827 29.6978 87.7075C29.3745 87.879 29.0205 88.0956 28.911 88.1888C28.5451 88.5007 28.413 88.9704 28.551 89.4695C28.6429 89.8021 28.9159 90.045 29.6285 90.4284C30.4955 90.895 30.84 91.2325 31.266 92.0331C31.6564 92.7668 31.7656 92.9109 32.0647 93.0875C32.2643 93.2053 32.3715 93.232 32.6467 93.232C32.9219 93.232 33.0291 93.2053 33.2287 93.0875C33.5258 92.912 33.6321 92.7714 34.026 92.0331C34.4519 91.2347 34.7963 90.8976 35.6749 90.4195C36.5592 89.9383 36.7974 89.6557 36.7974 89.0879C36.7974 88.5158 36.547 88.2191 35.6667 87.748C34.7994 87.2839 34.4549 86.9469 34.026 86.1427C33.6356 85.4108 33.5252 85.2633 33.2441 85.0978C32.9986 84.9532 32.5621 84.8887 32.335 84.9634ZM34.2212 88.8472C33.7758 88.5863 33.1901 88.0027 32.9007 87.5314C32.7753 87.3271 32.6609 87.1601 32.6467 87.1601C32.6324 87.1601 32.5189 87.3258 32.3945 87.5284C32.1055 87.999 31.5627 88.5442 31.0943 88.8345C30.8926 88.9595 30.7276 89.0735 30.7276 89.0879C30.7276 89.1022 30.8926 89.2162 31.0943 89.3412C31.5627 89.6315 32.1055 90.1768 32.3945 90.6473C32.5189 90.8499 32.6324 91.0157 32.6467 91.0157C32.6609 91.0157 32.7767 90.8458 32.9039 90.6382C33.1956 90.162 33.7692 89.591 34.2194 89.3286C34.4104 89.2173 34.5667 89.109 34.5667 89.0879C34.5667 89.0668 34.4112 88.9585 34.2212 88.8472Z" fill="white" fill-opacity="0.75"/>
</svg>
