<svg width="175" height="177" viewBox="0 0 175 177" fill="none" xmlns="http://www.w3.org/2000/svg">
<path d="M113.85 9.37285C125.44 7.31649 136.83 13.8928 140.845 24.9586L146.267 39.9045C147.653 43.7245 149.977 47.1344 153.027 49.8201L164.959 60.3276C173.793 68.1073 175.754 81.1129 169.605 91.151L161.3 104.709C159.178 108.174 157.961 112.118 157.763 116.176L156.987 132.056C156.413 143.814 147.467 153.455 135.785 154.907L120.008 156.867C115.975 157.368 112.133 158.876 108.836 161.251L95.9371 170.546C86.3866 177.428 73.2709 176.445 64.8527 168.216L53.4829 157.103C50.5769 154.263 47.0028 152.199 43.0899 151.103L27.7806 146.813C16.4457 143.637 9.0366 132.77 10.2211 121.058L11.8208 105.239C12.2297 101.196 11.6146 97.1155 10.0322 93.3726L3.84097 78.7287C-0.742966 67.8863 3.13382 55.3181 13.029 48.942L26.3936 40.3302C29.8095 38.1291 32.6166 35.1038 34.5563 31.5329L42.1452 17.5621C47.7641 7.21814 60.0074 2.413 71.162 6.17386L86.2277 11.2534C90.0784 12.5517 94.1938 12.8601 98.195 12.1502L113.85 9.37285Z" fill="#39A63E"/>
<path d="M33.9844 114.386L35.0426 116.102L40.455 114.75L36.8161 118.979L37.8743 120.695L45.9753 118.81L44.9999 117.228L39.2658 118.659L43.1436 114.217L42.1386 112.587L36.4341 114.067L40.2823 109.577L39.3068 107.994L33.9844 114.386Z" fill="white" fill-opacity="0.75"/>
<path d="M43.9868 128.484L48.2421 124.459L47.081 123.231L42.8257 127.256L43.9868 128.484ZM47.7567 122.716C47.7428 122.931 47.8635 123.173 48.1035 123.427C48.3434 123.681 48.5787 123.815 48.8017 123.821C49.0169 123.819 49.2511 123.706 49.5048 123.466C49.7585 123.226 49.8843 122.999 49.8982 122.784C49.9044 122.561 49.7837 122.318 49.5437 122.065C49.3038 121.811 49.0685 121.677 48.8533 121.679C48.6303 121.673 48.3961 121.786 48.1424 122.026C47.8888 122.266 47.7629 122.493 47.7567 122.716Z" fill="white" fill-opacity="0.75"/>
<path d="M53.1781 127.513L51.8795 126.432L51.0724 127.401L50.4663 126.897L49.4574 128.109L50.0634 128.613L48.6582 130.301C47.7285 131.418 47.879 132.364 49.169 133.438L49.8789 134.029L50.8878 132.817L50.2125 132.255C49.797 131.909 49.7694 131.607 50.0937 131.218L51.362 129.694L52.5308 130.667L53.5397 129.455L52.3709 128.482L53.1781 127.513Z" fill="white" fill-opacity="0.75"/>
<path d="M54.6874 137.66L56.1818 135.141C56.7106 134.25 57.2487 134.071 58.014 134.525C58.6824 134.922 58.8239 135.412 58.4273 136.081L56.7605 138.89L58.2136 139.752L59.8804 136.943C60.8461 135.315 60.6496 134.256 59.2546 133.428C58.5668 133.02 57.9596 132.895 57.4233 133.049L58.9982 130.394L57.5451 129.532L53.2343 136.798L54.6874 137.66Z" fill="white" fill-opacity="0.75"/>
<path d="M70.3279 144.958L68.5609 147.408L70.3159 147.865L75.7501 140.317L73.9951 139.86L71.762 143.026L71.3353 139.167L69.5912 138.713L70.3279 144.958Z" fill="white" fill-opacity="0.75"/>
<path d="M78.9611 141.685C78.4386 142.128 78.1399 142.872 78.052 143.939C77.9641 145.005 78.1369 145.788 78.5798 146.311C79.0227 146.833 79.7667 147.132 80.8332 147.22C81.8996 147.308 82.6824 147.135 83.205 146.692C83.7275 146.249 84.0261 145.505 84.1141 144.438C84.202 143.372 84.0292 142.589 83.5862 142.067C83.1433 141.544 82.3994 141.245 81.3329 141.158C80.2664 141.07 79.4836 141.242 78.9611 141.685ZM79.7359 144.078C79.821 143.045 80.2603 142.651 81.2033 142.729C82.1463 142.807 82.5153 143.267 82.4301 144.3C82.3459 145.321 81.9057 145.726 80.9627 145.648C80.0197 145.57 79.6517 145.099 79.7359 144.078Z" fill="white" fill-opacity="0.75"/>
<path d="M88.7601 145.025C88.9533 146.907 89.7421 147.642 91.3444 147.477C92.1064 147.399 92.6572 147.139 93.0091 146.706L93.0586 147.188L94.7393 147.015L94.1411 141.189L92.4603 141.361L92.7594 144.275C92.8653 145.305 92.5504 145.768 91.6876 145.857C90.9145 145.936 90.5202 145.625 90.4409 144.852L90.1072 141.603L88.4264 141.775L88.7601 145.025Z" fill="white" fill-opacity="0.75"/>
<path d="M100.487 143.01C100.219 142.009 100.392 141.519 101.132 141.322L102.209 141.034L101.802 139.51L101.225 139.664C100.55 139.845 100.086 140.156 99.8413 140.594L99.7307 140.18L98.0984 140.617L99.6109 146.275L101.243 145.839L100.487 143.01Z" fill="white" fill-opacity="0.75"/>
<path d="M115.287 140.644C116.936 139.716 117.361 138.611 116.644 137.037L115.191 137.855C115.376 138.436 115.162 138.905 114.543 139.253C113.758 139.695 113.209 139.5 112.706 138.607C112.198 137.703 112.322 137.143 113.107 136.701C113.745 136.342 114.211 136.389 114.639 136.873L116.091 136.055C115.119 134.625 113.953 134.415 112.304 135.343C110.508 136.354 110.189 137.58 111.233 139.435C112.277 141.291 113.49 141.655 115.287 140.644Z" fill="white" fill-opacity="0.75"/>
<path d="M121.091 133.396C120.451 132.581 120.417 132.063 121.02 131.59L121.897 130.901L120.923 129.661L120.454 130.03C119.904 130.461 119.599 130.93 119.547 131.429L119.283 131.092L117.954 132.136L121.571 136.743L122.9 135.699L121.091 133.396Z" fill="white" fill-opacity="0.75"/>
<path d="M129.09 130.43L130.395 133.154L131.637 131.832L127.611 123.448L126.37 124.77L128.081 128.246L124.489 126.774L123.255 128.088L129.09 130.43Z" fill="white" fill-opacity="0.75"/>
<path d="M137.95 124.421L135.147 122.595C135.727 122.489 136.244 122.086 136.699 121.388C137.664 119.906 137.318 118.766 135.534 117.604C133.75 116.442 132.567 116.586 131.602 118.068C131.147 118.766 130.988 119.402 131.126 119.976L130.682 119.687L129.76 121.103L137.028 125.836L137.95 124.421ZM134.261 121.601C133.956 121.658 133.583 121.549 133.148 121.266C132.29 120.707 132.143 120.127 132.653 119.344C133.163 118.561 133.753 118.461 134.612 119.02C135.046 119.303 135.302 119.591 135.374 119.893C135.455 120.201 135.359 120.555 135.107 120.942C134.855 121.329 134.576 121.551 134.261 121.601Z" fill="white" fill-opacity="0.75"/>
<path d="M134.668 110.352L133.985 111.897L135.138 112.407L134.819 113.128L136.261 113.767L136.58 113.046L138.589 113.935C139.917 114.523 140.786 114.119 141.465 112.584L141.839 111.74L140.397 111.102L140.042 111.905C139.823 112.399 139.54 112.508 139.077 112.303L137.264 111.501L137.88 110.11L136.438 109.472L135.822 110.862L134.668 110.352Z" fill="white" fill-opacity="0.75"/>
<path d="M38.7171 66.737L37.5984 71.4265L36.174 71.0867L37.162 66.945L35.6281 66.5791L34.6401 70.7207L33.2157 70.3809L34.3344 65.6915L32.6909 65.2994L31.154 71.7419L38.8237 73.5716L40.3606 67.1291L38.7171 66.737Z" fill="white" fill-opacity="0.75"/>
<path d="M42.1482 62.2282C42.498 61.4592 42.5849 60.8057 42.4089 60.2678L42.8293 60.459L43.5289 58.921L40.4529 57.5218C38.8022 56.7708 37.7496 57.2077 36.9287 59.0123C36.1777 60.6631 36.4226 61.7026 37.7061 62.472L38.3964 60.9546C38.0282 60.6757 37.9771 60.2441 38.2383 59.6699C38.5508 58.9829 38.9461 58.7668 39.5436 58.9767L38.8719 60.4532C38.163 62.0116 38.3464 62.8871 39.546 63.4328C40.7354 63.9738 41.5279 63.5918 42.1482 62.2282ZM40.1841 61.8668C39.856 61.7176 39.8599 61.2738 40.191 60.5458L40.6761 59.4795L40.7274 59.5028C41.2717 59.9113 41.3563 60.4325 40.9972 61.222C40.7407 61.7859 40.4712 61.9974 40.1841 61.8668Z" fill="white" fill-opacity="0.75"/>
<path d="M43.5777 52.8488C42.7144 52.2755 42.5199 51.7947 42.9436 51.1567L43.5605 50.2277L42.2469 49.3553L41.9166 49.8526C41.5302 50.4344 41.3875 50.9751 41.4946 51.4654L41.138 51.2286L40.2033 52.6361L45.0827 55.8765L46.0174 54.469L43.5777 52.8488Z" fill="white" fill-opacity="0.75"/>
<path d="M49.8392 49.1276L47.683 47.1456C46.92 46.4443 46.8488 45.8893 47.4586 45.2258C47.9999 44.637 48.4933 44.6163 49.0655 45.1422L51.4704 47.3529L52.6139 46.1089L50.2089 43.8983C48.8157 42.6176 47.7383 42.5913 46.6407 43.7854C46.0994 44.3742 45.8523 44.9427 45.8917 45.4991L45.5268 45.1637L44.3834 46.4076L48.6957 50.3715L49.8392 49.1276Z" fill="white" fill-opacity="0.75"/>
<path d="M77.9509 30.6564L73.2572 31.7573L72.9228 30.3317L77.0681 29.3594L76.708 27.8241L72.5627 28.7964L72.2283 27.3707L76.922 26.2698L76.5361 24.6248L70.0878 26.1373L71.8884 33.8139L78.3367 32.3014L77.9509 30.6564Z" fill="white" fill-opacity="0.75"/>
<path d="M83.6118 31.6915C84.4561 31.6618 85.0798 31.4482 85.4828 31.0508L85.4991 31.5124L87.1876 31.4529L87.0687 28.0758C87.0049 26.2633 86.1446 25.5159 84.1633 25.5857C82.3509 25.6495 81.5296 26.3321 81.413 27.824L83.0791 27.7654C83.1646 27.3115 83.5281 27.0733 84.1585 27.0511C84.9128 27.0245 85.2825 27.282 85.361 27.9104L83.7399 27.9675C82.0288 28.0278 81.327 28.5822 81.3734 29.8993C81.4193 31.2051 82.1146 31.7442 83.6118 31.6915ZM83.0596 29.7723C83.0469 29.4121 83.4458 29.2177 84.2451 29.1896L85.4158 29.1483L85.4178 29.2046C85.2948 29.874 84.8661 30.1821 83.9993 30.2126C83.3802 30.2344 83.0707 30.0875 83.0596 29.7723Z" fill="white" fill-opacity="0.75"/>
<path d="M92.7431 28.7768C92.8702 27.7483 93.2133 27.3594 93.9735 27.4534L95.0802 27.5901L95.2736 26.0251L94.6811 25.9518C93.988 25.8662 93.4405 25.9801 93.0497 26.295L93.1022 25.8702L91.4254 25.663L90.707 31.4762L92.3839 31.6834L92.7431 28.7768Z" fill="white" fill-opacity="0.75"/>
<path d="M98.9889 32.731L99.8087 29.9194C100.099 28.9245 100.565 28.6145 101.43 28.8667C102.197 29.0906 102.435 29.5235 102.217 30.2697L101.303 33.4057L102.925 33.8787L103.84 30.7426C104.369 28.9259 103.915 27.9487 102.358 27.4946C101.59 27.2708 100.971 27.3015 100.49 27.5836L100.628 27.1078L99.0064 26.6348L97.3668 32.258L98.9889 32.731Z" fill="white" fill-opacity="0.75"/>
<path d="M127.989 49.7209L124.922 46.0007L126.052 45.0693L128.76 48.3549L129.977 47.3519L127.269 44.0663L128.399 43.1349L131.466 46.8551L132.769 45.7804L128.557 40.6695L122.472 45.6847L126.685 50.7956L127.989 49.7209Z" fill="white" fill-opacity="0.75"/>
<path d="M129.475 55.0362C129.88 55.7779 130.35 56.24 130.885 56.4225L130.48 56.6436L131.289 58.1269L134.256 56.5088C135.848 55.6404 136.131 54.5365 135.182 52.796C134.313 51.2039 133.335 50.7751 131.949 51.3387L132.747 52.8023C133.191 52.6755 133.567 52.894 133.869 53.4478C134.231 54.1103 134.166 54.5562 133.639 54.9077L132.862 53.4837C132.043 51.9806 131.233 51.6012 130.076 52.2323C128.928 52.858 128.758 53.721 129.475 55.0362ZM130.944 53.6833C131.26 53.5107 131.613 53.7804 131.996 54.4825L132.557 55.5109L132.507 55.5379C131.854 55.7276 131.386 55.4821 130.971 54.7207C130.674 54.1768 130.667 53.8343 130.944 53.6833Z" fill="white" fill-opacity="0.75"/>
<path d="M136.174 61.8625C137.151 61.5172 137.652 61.6507 137.907 62.3728L138.279 63.4243L139.766 62.8988L139.567 62.3359C139.334 61.6774 138.988 61.2383 138.532 61.0292L138.935 60.8866L138.372 59.2935L132.85 61.2453L133.413 62.8384L136.174 61.8625Z" fill="white" fill-opacity="0.75"/>
<path d="M135.4 69.0356L138.28 68.5085C139.3 68.322 139.786 68.5995 139.948 69.486C140.092 70.2727 139.811 70.679 139.047 70.8189L135.833 71.4067L136.137 73.0688L139.351 72.4809C141.212 72.1404 141.882 71.2964 141.59 69.7008C141.446 68.9141 141.142 68.3744 140.674 68.0706L141.161 67.9815L140.857 66.3194L135.095 67.3735L135.4 69.0356Z" fill="white" fill-opacity="0.75"/>
<path fill-rule="evenodd" clip-rule="evenodd" d="M141.188 84.9634C140.73 85.1141 140.589 85.2677 140.143 86.1021C139.699 86.9323 139.352 87.2827 138.551 87.7075C138.228 87.879 137.874 88.0956 137.764 88.1888C137.398 88.5007 137.266 88.9704 137.404 89.4695C137.496 89.8021 137.769 90.045 138.482 90.4284C139.349 90.895 139.693 91.2325 140.119 92.0331C140.51 92.7668 140.619 92.9109 140.918 93.0875C141.117 93.2054 141.225 93.232 141.5 93.232C141.775 93.232 141.882 93.2054 142.082 93.0875C142.379 92.912 142.485 92.7714 142.879 92.0331C143.305 91.2347 143.649 90.8976 144.528 90.4195C145.412 89.9383 145.651 89.6557 145.651 89.0879C145.651 88.5158 145.4 88.2191 144.52 87.748C143.652 87.2839 143.308 86.9469 142.879 86.1427C142.489 85.4108 142.378 85.2633 142.097 85.0978C141.852 84.9532 141.415 84.8887 141.188 84.9634ZM143.074 88.8472C142.629 88.5863 142.043 88.0027 141.754 87.5314C141.628 87.3271 141.514 87.1601 141.5 87.1601C141.485 87.1601 141.372 87.3258 141.248 87.5284C140.959 87.999 140.416 88.5442 139.947 88.8345C139.746 88.9595 139.581 89.0735 139.581 89.0879C139.581 89.1022 139.746 89.2162 139.947 89.3412C140.416 89.6315 140.959 90.1768 141.248 90.6473C141.372 90.8499 141.485 91.0157 141.5 91.0157C141.514 91.0157 141.63 90.8458 141.757 90.6382C142.049 90.162 142.622 89.591 143.072 89.3286C143.263 89.2173 143.42 89.109 143.42 89.0879C143.42 89.0668 143.264 88.9585 143.074 88.8472Z" fill="white" fill-opacity="0.75"/>
<path fill-rule="evenodd" clip-rule="evenodd" d="M32.335 84.9634C31.8769 85.1141 31.7359 85.2677 31.2898 86.1021C30.846 86.9323 30.4985 87.2827 29.6977 87.7075C29.3744 87.879 29.0204 88.0956 28.911 88.1888C28.545 88.5007 28.413 88.9704 28.5509 89.4695C28.6429 89.8021 28.9159 90.045 29.6285 90.4284C30.4955 90.895 30.8399 91.2325 31.2659 92.0331C31.6564 92.7668 31.7656 92.9109 32.0646 93.0875C32.2642 93.2054 32.3714 93.232 32.6466 93.232C32.9218 93.232 33.029 93.2054 33.2286 93.0875C33.5258 92.912 33.6321 92.7714 34.0259 92.0331C34.4518 91.2347 34.7962 90.8976 35.6748 90.4195C36.5591 89.9383 36.7974 89.6557 36.7974 89.0879C36.7974 88.5158 36.547 88.2191 35.6666 87.748C34.7993 87.2839 34.4549 86.9469 34.0259 86.1427C33.6356 85.4108 33.5251 85.2633 33.244 85.0978C32.9985 84.9532 32.562 84.8887 32.335 84.9634ZM34.2212 88.8472C33.7757 88.5863 33.1901 88.0027 32.9006 87.5314C32.7752 87.3271 32.6609 87.1601 32.6466 87.1601C32.6323 87.1601 32.5189 87.3258 32.3944 87.5284C32.1054 87.999 31.5627 88.5442 31.0942 88.8345C30.8925 88.9595 30.7275 89.0735 30.7275 89.0879C30.7275 89.1022 30.8925 89.2162 31.0942 89.3412C31.5627 89.6315 32.1054 90.1768 32.3944 90.6473C32.5189 90.8499 32.6323 91.0157 32.6466 91.0157C32.6609 91.0157 32.7766 90.8458 32.9038 90.6382C33.1955 90.162 33.7691 89.591 34.2193 89.3286C34.4103 89.2173 34.5666 89.109 34.5666 89.0879C34.5666 89.0668 34.4111 88.9585 34.2212 88.8472Z" fill="white" fill-opacity="0.75"/>
</svg>
