<svg width="17" height="21" viewBox="0 0 17 21" fill="none" xmlns="http://www.w3.org/2000/svg">
<path fill-rule="evenodd" clip-rule="evenodd" d="M15.0397 7.12711L15.8283 6.34296C16.1347 6.03824 16.1347 5.54416 15.8283 5.23959C15.5219 4.93488 15.0252 4.93488 14.7187 5.23959L13.9302 6.02374C12.6072 4.92755 10.9995 4.26532 9.28464 4.11029V2.54001H10.0431C10.4764 2.54001 10.8277 2.19058 10.8277 1.75967C10.8277 1.32877 10.4764 0.979492 10.0431 0.979492H6.95688C6.52355 0.979492 6.17232 1.32877 6.17232 1.75967C6.17232 2.19058 6.52355 2.54001 6.95688 2.54001H7.71536V4.11029C3.42259 4.49847 0 8.08459 0 12.5269C0 17.1985 3.8016 20.9795 8.50008 20.9795C13.1978 20.9795 17 17.1991 17 12.5269C17 10.5313 16.3089 8.64154 15.0397 7.12711ZM12.1362 8.91211C12.4426 9.21682 12.4426 9.7109 12.1362 10.0155L9.05485 13.0796C8.74842 13.3843 8.25156 13.3843 7.94529 13.0796C7.63886 12.7749 7.63886 12.2808 7.94529 11.9762L11.0265 8.91211C11.3329 8.60739 11.8297 8.60739 12.1362 8.91211Z" fill="black" fill-opacity="0.75"/>
</svg>
