<svg width="33" height="27" viewBox="0 0 33 27" fill="none" xmlns="http://www.w3.org/2000/svg">
<g clip-path="url(#clip0_101_856)">
<path d="M32.3008 4.05749C31.1108 4.57949 29.8428 4.92549 28.5208 5.09349C29.8808 4.28149 30.9188 3.00549 31.4068 1.46749C30.1388 2.22349 28.7388 2.75749 27.2468 3.05549C26.0428 1.77349 24.3268 0.979492 22.4548 0.979492C18.8228 0.979492 15.8988 3.92749 15.8988 7.54149C15.8988 8.06149 15.9428 8.56149 16.0508 9.03749C10.5968 8.77149 5.77078 6.15749 2.52878 2.17549C1.96278 3.15749 1.63078 4.28149 1.63078 5.49149C1.63078 7.76349 2.80078 9.77749 4.54478 10.9435C3.49078 10.9235 2.45678 10.6175 1.58078 10.1355V10.2075C1.58078 13.3955 3.85478 16.0435 6.83678 16.6535C6.30278 16.7995 5.72078 16.8695 5.11678 16.8695C4.69678 16.8695 4.27278 16.8455 3.87478 16.7575C4.72478 19.3555 7.13678 21.2655 10.0048 21.3275C7.77278 23.0735 4.93878 24.1255 1.87078 24.1255C1.33278 24.1255 0.816781 24.1015 0.300781 24.0355C3.20678 25.9095 6.65078 26.9795 10.3648 26.9795C22.4368 26.9795 29.0368 16.9795 29.0368 8.31149C29.0368 8.02149 29.0268 7.74149 29.0128 7.46349C30.3148 6.53949 31.4088 5.38549 32.3008 4.05749Z" fill="white"/>
</g>
<defs>
<clipPath id="clip0_101_856">
<rect width="33" height="26" fill="white" transform="translate(0 0.979492)"/>
</clipPath>
</defs>
</svg>
