<svg width="33" height="31" viewBox="0 0 33 31" fill="none" xmlns="http://www.w3.org/2000/svg">
<g clip-path="url(#clip0_101_235)">
<path d="M33 28.2178C33 28.9978 32.7282 29.5928 32.1846 30.0028C31.6411 30.4128 30.9739 30.6178 30.1833 30.6178H2.81671C2.02606 30.6178 1.35894 30.4078 0.815364 29.9878C0.271788 29.5678 0 28.9778 0 28.2178C0 27.6178 0.177898 27.0078 0.533693 26.3878L14.2022 2.2678C14.8544 1.1678 15.6253 0.617798 16.5148 0.617798C17.4043 0.617798 18.1554 1.1678 18.7682 2.2678L32.4663 26.4178C32.8221 27.0578 33 27.6578 33 28.2178ZM18.5606 12.8878V8.5078H14.4394V12.8878C14.4394 13.1678 14.4591 13.4328 14.4987 13.6828C14.5382 13.9328 14.5925 14.2128 14.6617 14.5228C14.7309 14.8328 14.7853 15.0978 14.8248 15.3178L15.5957 20.1778H17.345L18.1456 15.3178C18.1851 15.1178 18.2444 14.8578 18.3235 14.5378C18.4025 14.2178 18.4618 13.9328 18.5013 13.6828C18.5409 13.4328 18.5606 13.1678 18.5606 12.8878ZM18.5606 24.4978C18.5606 23.9178 18.358 23.4278 17.9528 23.0278C17.5476 22.6278 17.0584 22.4278 16.4852 22.4278C15.9317 22.4278 15.4524 22.6278 15.0472 23.0278C14.642 23.4278 14.4394 23.9178 14.4394 24.4978C14.4394 25.0778 14.642 25.5728 15.0472 25.9828C15.4524 26.3928 15.9317 26.5978 16.4852 26.5978C17.0584 26.5978 17.5476 26.3928 17.9528 25.9828C18.358 25.5728 18.5606 25.0778 18.5606 24.4978Z" fill="black"/>
</g>
<defs>
<clipPath id="clip0_101_235">
<rect width="33" height="30" fill="white" transform="translate(0 0.617798)"/>
</clipPath>
</defs>
</svg>
