<svg width="40" height="25" viewBox="0 0 40 25" fill="none" xmlns="http://www.w3.org/2000/svg">
<path d="M8.18883 4.88456C14.712 -1.62819 25.2881 -1.62819 31.8112 4.88456L32.5963 5.66838C32.9224 5.99402 32.9224 6.52198 32.5963 6.84762L29.9107 9.52891C29.7476 9.69173 29.4832 9.69173 29.3202 9.52891L28.2398 8.45028C23.6891 3.90682 16.3109 3.90682 11.7602 8.45028L10.6033 9.60541C10.4402 9.76823 10.1758 9.76823 10.0127 9.60541L7.32714 6.92412C7.00099 6.59848 7.00099 6.07052 7.32714 5.74488L8.18883 4.88456ZM37.3652 10.4298L39.7554 12.8161C40.0815 13.1418 40.0815 13.6697 39.7554 13.9954L28.978 24.7558C28.6518 25.0814 28.123 25.0814 27.7969 24.7558C27.7969 24.7558 27.7969 24.7558 27.7969 24.7558L20.1477 17.1188C20.0662 17.0374 19.934 17.0374 19.8524 17.1188C19.8524 17.1188 19.8524 17.1188 19.8524 17.1188L12.2034 24.7558C11.8773 25.0814 11.3485 25.0814 11.0223 24.7558C11.0223 24.7558 11.0223 24.7558 11.0223 24.7558L0.244618 13.9952C-0.0815392 13.6696 -0.0815392 13.1416 0.244618 12.816L2.63478 10.4296C2.96094 10.104 3.48975 10.104 3.8159 10.4296L11.4652 18.0667C11.5467 18.1481 11.6789 18.1481 11.7604 18.0667C11.7604 18.0667 11.7604 18.0667 11.7604 18.0667L19.4093 10.4296C19.7355 10.104 20.2643 10.104 20.5904 10.4296C20.5904 10.4296 20.5904 10.4296 20.5905 10.4296L28.2397 18.0667C28.3212 18.1481 28.4534 18.1481 28.535 18.0667L36.1841 10.4298C36.5103 10.1041 37.0391 10.1041 37.3652 10.4298Z" fill="#3B99FC"/>
</svg>
