<svg width="293" height="75" viewBox="0 0 293 75" fill="none" xmlns="http://www.w3.org/2000/svg">
<path opacity="0.2" d="M292.051 31.1718C292.263 35.875 288.611 40.6754 281.444 45.3185C274.311 49.9396 263.851 54.3007 250.812 58.1618C224.744 65.8819 188.479 71.5718 148.202 73.3908C107.924 75.2099 71.2942 72.8122 44.6356 67.4735C31.3024 64.8033 20.4918 61.4029 12.9712 57.4436C5.41492 53.4655 1.34452 49.0139 1.1321 44.3106C0.919692 39.6074 4.57224 34.807 11.7392 30.1639C18.8722 25.5428 29.3323 21.1818 42.3705 17.3206C68.4394 9.60049 104.704 3.91064 144.981 2.09159C185.259 0.272536 221.889 2.67021 248.547 8.00895C261.881 10.6791 272.691 14.0795 280.212 18.0388C287.768 22.0169 291.838 26.4686 292.051 31.1718Z" stroke="#FCF155"/>
</svg>
