<svg width="28" height="23" viewBox="0 0 28 23" fill="none" xmlns="http://www.w3.org/2000/svg">
<path d="M25.7173 9.73313C24.6478 6.05866 23.4417 4.16008 23.4222 4.12602C23.3535 4.04211 21.6492 2.00256 17.5415 0.494003L16.9987 1.97181C18.9529 2.68951 20.3393 3.56507 21.1017 4.1308C18.8254 3.45104 16.1174 3.03472 13.719 3.03472C11.3206 3.03472 8.61268 3.45104 6.33635 4.1308C7.09876 3.56512 8.48515 2.68951 10.4393 1.97181L9.89652 0.494003C5.78894 2.00256 4.08464 4.04211 4.01589 4.12602C3.99642 4.16008 2.79029 6.05866 1.72088 9.73313C0.690191 13.2742 0.298646 18.2696 0.284424 18.4699C0.376262 18.6135 2.48854 22.2199 8.24511 22.2199L9.70424 20.107C8.06952 19.6729 6.51074 18.9729 5.08384 18.0231L5.95619 16.7126C8.25818 18.2448 10.9425 19.0548 13.719 19.0548C16.4955 19.0548 19.1799 18.2448 21.4819 16.7126L22.3542 18.0231C20.9274 18.9729 19.3686 19.6729 17.7338 20.107L19.193 22.2199C24.9495 22.2199 27.0618 18.6135 27.1537 18.4699C27.1394 18.2696 26.7479 13.2742 25.7173 9.73313ZM10.0792 13.8518H8.50483V11.2278H10.0792V13.8518ZM18.9332 13.8518H17.3589V11.2278H18.9332V13.8518Z" fill="white"/>
</svg>
