<svg width="27" height="22" viewBox="0 0 27 22" fill="none" xmlns="http://www.w3.org/2000/svg">
<path d="M25.4328 9.23913C24.3634 5.56466 23.1573 3.66607 23.1378 3.63202C23.0691 3.5481 21.3648 1.50856 17.2571 0L16.7143 1.47781C18.6684 2.19551 20.0548 3.07107 20.8173 3.63679C18.541 2.95703 15.833 2.54072 13.4346 2.54072C11.0362 2.54072 8.32825 2.95703 6.05193 3.63679C6.81434 3.07112 8.20073 2.19551 10.1549 1.47781L9.6121 0C5.50452 1.50856 3.80021 3.5481 3.73146 3.63202C3.71199 3.66607 2.50587 5.56466 1.43645 9.23913C0.405767 12.7802 0.0142218 17.7756 0 17.9759C0.0918382 18.1195 2.20412 21.7259 7.96069 21.7259L9.41982 19.613C7.7851 19.1789 6.22631 18.4789 4.79941 17.5291L5.67177 16.2186C7.97376 17.7508 10.6581 18.5608 13.4346 18.5608C16.2111 18.5608 18.8955 17.7508 21.1975 16.2186L22.0698 17.5291C20.643 18.4789 19.0841 19.1789 17.4494 19.613L18.9085 21.7259C24.6651 21.7259 26.7774 18.1195 26.8692 17.9759C26.855 17.7756 26.4635 12.7802 25.4328 9.23913ZM9.79478 13.3578H8.22041V10.7338H9.79478V13.3578ZM18.6488 13.3578H17.0744V10.7338H18.6488V13.3578Z" fill="#101010"/>
</svg>
