<svg width="24" height="20" viewBox="0 0 24 20" fill="none" xmlns="http://www.w3.org/2000/svg">
<path d="M23.3969 3.23851C22.5269 3.62018 21.5998 3.87316 20.6332 3.99599C21.6275 3.40229 22.3865 2.46934 22.7433 1.34483C21.8162 1.89758 20.7926 2.28801 19.7017 2.5059C18.8214 1.56856 17.5667 0.988022 16.198 0.988022C13.5424 0.988022 11.4045 3.14347 11.4045 5.78586C11.4045 6.16606 11.4367 6.53163 11.5157 6.87966C7.52796 6.68518 3.99941 4.77394 1.62901 1.86248C1.21518 2.58048 0.972435 3.40229 0.972435 4.28699C0.972435 5.94817 1.82789 7.42072 3.10302 8.27324C2.33238 8.25862 1.57637 8.03489 0.935877 7.68247C0.935877 7.69709 0.935877 7.7161 0.935877 7.73511C0.935877 10.066 2.59852 12.0021 4.77882 12.4481C4.38839 12.5549 3.96286 12.6061 3.52124 12.6061C3.21415 12.6061 2.90414 12.5885 2.61315 12.5242C3.23463 14.4237 4.99817 15.8202 7.09512 15.8655C5.46318 17.1421 3.39109 17.9113 1.14791 17.9113C0.754551 17.9113 0.377276 17.8938 0 17.8455C2.12473 19.2157 4.64283 19.998 7.35834 19.998C16.1848 19.998 21.0104 12.6865 21.0104 6.34885C21.0104 6.13681 21.0031 5.93209 20.9929 5.72883C21.9449 5.05324 22.7447 4.20949 23.3969 3.23851Z" fill="white"/>
</svg>
