<svg width="68" height="68" viewBox="0 0 68 68" fill="none" xmlns="http://www.w3.org/2000/svg">
<path d="M34 67.25C52.3334 67.25 67.25 52.3334 67.25 34C67.25 15.6666 52.3334 0.75 34 0.75C15.6666 0.75 0.75 15.6666 0.75 34C0.75 52.3334 15.6666 67.25 34 67.25ZM34 3.3125C50.9209 3.3125 64.6875 17.0791 64.6875 34C64.6875 50.9209 50.9209 64.6875 34 64.6875C17.0791 64.6875 3.3125 50.9209 3.3125 34C3.3125 17.0791 17.0791 3.3125 34 3.3125Z" fill="#FD4626" stroke="#FD4626" stroke-width="0.5"/>
<path d="M44.0129 44.2616L44.0128 44.2615L34.25 34.5008V20.2205C34.25 19.8807 34.115 19.5548 33.8747 19.3145C33.6344 19.0742 33.3086 18.9392 32.9688 18.9392C32.6289 18.9392 32.3031 19.0742 32.0628 19.3145C31.8225 19.5548 31.6875 19.8807 31.6875 20.2205V35.0313C31.6875 35.3722 31.8234 35.6971 32.0609 35.9372L32.0619 35.9382L42.1981 46.0724C42.1983 46.0725 42.1984 46.0727 42.1986 46.0728C42.3172 46.1926 42.4585 46.2878 42.6141 46.3527C42.7699 46.4177 42.9371 46.4512 43.1059 46.4512C43.2748 46.4512 43.442 46.4177 43.5978 46.3527C43.7532 46.2878 43.8943 46.1929 44.0129 46.0733C44.2531 45.833 44.388 45.5072 44.388 45.1674C44.388 44.8277 44.2531 44.5019 44.0129 44.2616Z" fill="#FD4626" stroke="#FD4626" stroke-width="0.5"/>
<path d="M9.25 36.0625C10.3891 36.0625 11.3125 35.1391 11.3125 34C11.3125 32.8609 10.3891 31.9375 9.25 31.9375C8.11091 31.9375 7.1875 32.8609 7.1875 34C7.1875 35.1391 8.11091 36.0625 9.25 36.0625Z" fill="#FD4626"/>
<path d="M58.75 36.0625C59.8891 36.0625 60.8125 35.1391 60.8125 34C60.8125 32.8609 59.8891 31.9375 58.75 31.9375C57.6109 31.9375 56.6875 32.8609 56.6875 34C56.6875 35.1391 57.6109 36.0625 58.75 36.0625Z" fill="#FD4626"/>
<path d="M34 11.3125C35.1391 11.3125 36.0625 10.3891 36.0625 9.25C36.0625 8.11091 35.1391 7.1875 34 7.1875C32.8609 7.1875 31.9375 8.11091 31.9375 9.25C31.9375 10.3891 32.8609 11.3125 34 11.3125Z" fill="#FD4626"/>
<path d="M34 60.8125C35.1391 60.8125 36.0625 59.8891 36.0625 58.75C36.0625 57.6109 35.1391 56.6875 34 56.6875C32.8609 56.6875 31.9375 57.6109 31.9375 58.75C31.9375 59.8891 32.8609 60.8125 34 60.8125Z" fill="#FD4626"/>
<path d="M17.5 19.5625C18.6391 19.5625 19.5625 18.6391 19.5625 17.5C19.5625 16.3609 18.6391 15.4375 17.5 15.4375C16.3609 15.4375 15.4375 16.3609 15.4375 17.5C15.4375 18.6391 16.3609 19.5625 17.5 19.5625Z" fill="#FD4626"/>
<path d="M50.5 52.5625C51.6391 52.5625 52.5625 51.6391 52.5625 50.5C52.5625 49.3609 51.6391 48.4375 50.5 48.4375C49.3609 48.4375 48.4375 49.3609 48.4375 50.5C48.4375 51.6391 49.3609 52.5625 50.5 52.5625Z" fill="#FD4626"/>
<path d="M52.5625 19.5625C53.7016 19.5625 54.625 18.6391 54.625 17.5C54.625 16.3609 53.7016 15.4375 52.5625 15.4375C51.4234 15.4375 50.5 16.3609 50.5 17.5C50.5 18.6391 51.4234 19.5625 52.5625 19.5625Z" fill="#FD4626"/>
<path d="M17.5 52.5625C18.6391 52.5625 19.5625 51.6391 19.5625 50.5C19.5625 49.3609 18.6391 48.4375 17.5 48.4375C16.3609 48.4375 15.4375 49.3609 15.4375 50.5C15.4375 51.6391 16.3609 52.5625 17.5 52.5625Z" fill="#FD4626"/>
</svg>
