<svg width="40" height="40" viewBox="0 0 40 40" fill="none" xmlns="http://www.w3.org/2000/svg">
<g filter="url(#filter0_d)">
<path d="M25.34 9.46C25.1027 9.46 24.8707 9.53038 24.6733 9.66224C24.476 9.79409 24.3222 9.98151 24.2313 10.2008C24.1405 10.4201 24.1168 10.6613 24.1631 10.8941C24.2094 11.1269 24.3236 11.3407 24.4915 11.5085C24.6593 11.6764 24.8731 11.7906 25.1059 11.8369C25.3387 11.8832 25.5799 11.8595 25.7992 11.7687C26.0185 11.6778 26.2059 11.524 26.3378 11.3267C26.4696 11.1293 26.54 10.8973 26.54 10.66C26.54 10.3417 26.4136 10.0365 26.1885 9.81147C25.9635 9.58643 25.6583 9.46 25.34 9.46V9.46ZM29.94 11.88C29.9206 11.0503 29.7652 10.2294 29.48 9.45C29.2257 8.78313 28.83 8.17928 28.32 7.68C27.8248 7.16743 27.2196 6.77418 26.55 6.53C25.7727 6.23616 24.9508 6.07721 24.12 6.06C23.06 6 22.72 6 20 6C17.28 6 16.94 6 15.88 6.06C15.0492 6.07721 14.2273 6.23616 13.45 6.53C12.7817 6.77665 12.1769 7.16956 11.68 7.68C11.1674 8.17518 10.7742 8.78044 10.53 9.45C10.2362 10.2273 10.0772 11.0492 10.06 11.88C10 12.94 10 13.28 10 16C10 18.72 10 19.06 10.06 20.12C10.0772 20.9508 10.2362 21.7727 10.53 22.55C10.7742 23.2196 11.1674 23.8248 11.68 24.32C12.1769 24.8304 12.7817 25.2234 13.45 25.47C14.2273 25.7638 15.0492 25.9228 15.88 25.94C16.94 26 17.28 26 20 26C22.72 26 23.06 26 24.12 25.94C24.9508 25.9228 25.7727 25.7638 26.55 25.47C27.2196 25.2258 27.8248 24.8326 28.32 24.32C28.8322 23.8226 29.2283 23.2182 29.48 22.55C29.7652 21.7706 29.9206 20.9497 29.94 20.12C29.94 19.06 30 18.72 30 16C30 13.28 30 12.94 29.94 11.88V11.88ZM28.14 20C28.1327 20.6348 28.0178 21.2637 27.8 21.86C27.6403 22.2952 27.3839 22.6884 27.05 23.01C26.7256 23.3405 26.3332 23.5964 25.9 23.76C25.3037 23.9778 24.6748 24.0927 24.04 24.1C23.04 24.15 22.67 24.16 20.04 24.16C17.41 24.16 17.04 24.16 16.04 24.1C15.3809 24.1123 14.7246 24.0109 14.1 23.8C13.6858 23.6281 13.3114 23.3728 13 23.05C12.6681 22.7287 12.4148 22.3352 12.26 21.9C12.0159 21.2952 11.8804 20.6519 11.86 20C11.86 19 11.8 18.63 11.8 16C11.8 13.37 11.8 13 11.86 12C11.8645 11.3511 11.983 10.7079 12.21 10.1C12.386 9.67791 12.6563 9.30166 13 9C13.3038 8.65617 13.6793 8.3831 14.1 8.2C14.7096 7.98004 15.352 7.86508 16 7.86C17 7.86 17.37 7.8 20 7.8C22.63 7.8 23 7.8 24 7.86C24.6348 7.86728 25.2637 7.98225 25.86 8.2C26.3144 8.36865 26.7223 8.64285 27.05 9C27.3777 9.30718 27.6338 9.68273 27.8 10.1C28.0223 10.7089 28.1373 11.3518 28.14 12C28.19 13 28.2 13.37 28.2 16C28.2 18.63 28.19 19 28.14 20ZM20 10.87C18.9858 10.872 17.995 11.1745 17.1527 11.7394C16.3103 12.3043 15.6544 13.1062 15.2676 14.0438C14.8809 14.9813 14.7807 16.0125 14.9798 17.0069C15.1789 18.0014 15.6682 18.9145 16.3861 19.631C17.1039 20.3474 18.018 20.835 19.0129 21.0321C20.0077 21.2293 21.0387 21.1271 21.9755 20.7385C22.9123 20.35 23.7129 19.6924 24.2761 18.849C24.8394 18.0056 25.14 17.0142 25.14 16C25.1413 15.3251 25.0092 14.6566 24.7512 14.033C24.4933 13.4093 24.1146 12.8428 23.6369 12.3661C23.1592 11.8893 22.5919 11.5117 21.9678 11.2549C21.3436 10.9982 20.6749 10.8674 20 10.87V10.87ZM20 19.33C19.3414 19.33 18.6976 19.1347 18.15 18.7688C17.6023 18.4029 17.1755 17.8828 16.9235 17.2743C16.6714 16.6659 16.6055 15.9963 16.734 15.3503C16.8625 14.7044 17.1796 14.111 17.6453 13.6453C18.111 13.1796 18.7044 12.8625 19.3503 12.734C19.9963 12.6055 20.6659 12.6714 21.2743 12.9235C21.8828 13.1755 22.4029 13.6023 22.7688 14.15C23.1347 14.6976 23.33 15.3414 23.33 16C23.33 16.4373 23.2439 16.8703 23.0765 17.2743C22.9092 17.6784 22.6639 18.0454 22.3547 18.3547C22.0454 18.6639 21.6784 18.9092 21.2743 19.0765C20.8703 19.2439 20.4373 19.33 20 19.33V19.33Z" fill="url(#paint0_linear)"/>
</g>
<defs>
<filter id="filter0_d" x="0" y="0" width="40" height="40" filterUnits="userSpaceOnUse" color-interpolation-filters="sRGB">
<feFlood flood-opacity="0" result="BackgroundImageFix"/>
<feColorMatrix in="SourceAlpha" type="matrix" values="0 0 0 0 0 0 0 0 0 0 0 0 0 0 0 0 0 0 127 0" result="hardAlpha"/>
<feOffset dy="4"/>
<feGaussianBlur stdDeviation="5"/>
<feComposite in2="hardAlpha" operator="out"/>
<feColorMatrix type="matrix" values="0 0 0 0 0.992157 0 0 0 0 0.27451 0 0 0 0 0.14902 0 0 0 0.71 0"/>
<feBlend mode="normal" in2="BackgroundImageFix" result="effect1_dropShadow"/>
<feBlend mode="normal" in="SourceGraphic" in2="effect1_dropShadow" result="shape"/>
</filter>
<linearGradient id="paint0_linear" x1="20" y1="6" x2="20" y2="26" gradientUnits="userSpaceOnUse">
<stop stop-color="#FD4626"/>
<stop offset="1" stop-color="#FE7736"/>
</linearGradient>
</defs>
</svg>
