<svg width="80" height="50" viewBox="0 0 80 50" fill="none" xmlns="http://www.w3.org/2000/svg">
<path d="M63.3331 14.5835H16.6664C14.8255 14.5835 13.3331 15.5162 13.3331 16.6668V43.7502C13.3331 44.9008 14.8255 45.8335 16.6664 45.8335H63.3331C65.174 45.8335 66.6664 44.9008 66.6664 43.7502V16.6668C66.6664 15.5162 65.174 14.5835 63.3331 14.5835Z" stroke="#FD4626" stroke-width="4" stroke-linecap="round" stroke-linejoin="round"/>
<path d="M28.3331 18.7501V11.4584C28.3331 10.5009 28.6348 9.55268 29.2211 8.66801C29.8074 7.78335 30.6668 6.97952 31.7502 6.30243C32.8335 5.62533 34.1196 5.08823 35.5351 4.72179C36.9506 4.35535 38.4676 4.16675 39.9997 4.16675C41.5318 4.16675 43.0489 4.35535 44.4644 4.72179C45.8798 5.08823 47.166 5.62533 48.2493 6.30243C49.3327 6.97952 50.192 7.78335 50.7783 8.66801C51.3646 9.55268 51.6664 10.5009 51.6664 11.4584V18.7501" stroke="#FD4626" stroke-width="4" stroke-linecap="round" stroke-linejoin="round"/>
</svg>
