<svg width="50" height="50" viewBox="0 0 50 50" fill="none" xmlns="http://www.w3.org/2000/svg">
<path d="M41.6667 12.5H33.3334V8.33335C33.3334 6.02085 31.4792 4.16669 29.1667 4.16669H20.8334C18.5209 4.16669 16.6667 6.02085 16.6667 8.33335V12.5H8.3334C6.0209 12.5 4.18757 14.3542 4.18757 16.6667L4.16673 39.5833C4.16673 41.8958 6.0209 43.75 8.3334 43.75H41.6667C43.9792 43.75 45.8334 41.8958 45.8334 39.5833V16.6667C45.8334 14.3542 43.9792 12.5 41.6667 12.5ZM20.8334 8.33335H29.1667V12.5H20.8334V8.33335ZM41.6667 39.5833H8.3334V16.6667H41.6667V39.5833Z" fill="#FD4626"/>
</svg>
