<svg width="50" height="50" viewBox="0 0 50 50" fill="none" xmlns="http://www.w3.org/2000/svg">
<path d="M41.238 34.375C41.1355 34.5528 40.9989 34.7086 40.8361 34.8336C40.6734 34.9586 40.4875 35.0503 40.2893 35.1034C40.091 35.1565 39.8843 35.17 39.6808 35.1431C39.4773 35.1163 39.2811 35.0496 39.1035 34.9469L26.5624 27.7063V42.1875C26.5624 42.6019 26.3978 42.9993 26.1048 43.2924C25.8118 43.5854 25.4143 43.75 24.9999 43.75C24.5855 43.75 24.1881 43.5854 23.8951 43.2924C23.6021 42.9993 23.4374 42.6019 23.4374 42.1875V27.7063L10.8964 34.9469C10.7187 35.0511 10.522 35.1191 10.3179 35.147C10.1137 35.1749 9.90604 35.1622 9.70682 35.1095C9.50761 35.0569 9.32077 34.9653 9.15708 34.8401C8.99339 34.715 8.85608 34.5587 8.75305 34.3802C8.65001 34.2017 8.5833 34.0047 8.55673 33.8003C8.53017 33.596 8.5443 33.3884 8.59829 33.1895C8.65228 32.9907 8.74507 32.8045 8.87132 32.6416C8.99757 32.4787 9.15479 32.3425 9.33393 32.2406L21.8749 25L9.33393 17.7594C8.97798 17.5507 8.71902 17.2097 8.61356 16.8108C8.50809 16.4119 8.56469 15.9875 8.771 15.6302C8.97731 15.2728 9.31657 15.0116 9.71476 14.9035C10.113 14.7954 10.5377 14.8492 10.8964 15.0531L23.4374 22.2937V7.8125C23.4374 7.3981 23.6021 7.00067 23.8951 6.70765C24.1881 6.41462 24.5855 6.25 24.9999 6.25C25.4143 6.25 25.8118 6.41462 26.1048 6.70765C26.3978 7.00067 26.5624 7.3981 26.5624 7.8125V22.2937L39.1035 15.0531C39.2812 14.9489 39.4778 14.8809 39.682 14.853C39.8862 14.8251 40.0938 14.8378 40.2931 14.8905C40.4923 14.9431 40.6791 15.0347 40.8428 15.1599C41.0065 15.285 41.1438 15.4413 41.2468 15.6198C41.3499 15.7983 41.4166 15.9953 41.4431 16.1997C41.4697 16.404 41.4556 16.6116 41.4016 16.8105C41.3476 17.0093 41.2548 17.1955 41.1286 17.3584C41.0023 17.5213 40.8451 17.6575 40.666 17.7594L28.1249 25L40.666 32.2406C40.8437 32.3432 40.9995 32.4798 41.1244 32.6425C41.2494 32.8053 41.341 32.9911 41.3941 33.1893C41.4473 33.3875 41.4609 33.5942 41.4341 33.7977C41.4074 34.0011 41.3408 34.1973 41.2382 34.375H41.238Z" fill="#FD4626"/>
</svg>
