<svg width="50" height="50" viewBox="0 0 50 50" fill="none" xmlns="http://www.w3.org/2000/svg">
<path d="M34.8938 4.16669H44.3813L44.5896 4.19585L44.7958 4.25419L44.9208 4.30835C45.0875 4.37919 45.2396 4.48544 45.3771 4.62085L45.4604 4.71252L45.5521 4.83127L45.6646 5.01877L45.7458 5.20627L45.7854 5.3396L45.8146 5.47294L45.8333 5.67085V15.1125C45.8332 15.5084 45.6828 15.8895 45.4126 16.1788C45.1423 16.468 44.7723 16.6439 44.3773 16.6709C43.9824 16.6979 43.5919 16.5739 43.2848 16.3241C42.9777 16.0743 42.7769 15.7172 42.7229 15.325L42.7083 15.1125V9.49794L29.2917 22.9146C29.0271 23.1792 28.6764 23.3401 28.3032 23.368C27.9301 23.3959 27.5593 23.289 27.2583 23.0667L27.0833 22.9167L20.7708 16.8542L8.91668 28.7063C8.63787 28.9858 8.26357 29.1495 7.86902 29.1643C7.47447 29.1792 7.08893 29.0441 6.78992 28.7862C6.49091 28.5284 6.3006 28.1669 6.25725 27.7745C6.2139 27.382 6.32073 26.9877 6.55626 26.6709L6.70834 26.4959L19.6667 13.5375C19.9315 13.2732 20.2824 13.1127 20.6555 13.0852C21.0286 13.0577 21.3993 13.1649 21.7 13.3875L21.875 13.5375L28.1875 19.6L40.4958 7.29169H34.8917C34.5145 7.29117 34.1502 7.1542 33.866 6.90607C33.5819 6.65794 33.3971 6.3154 33.3458 5.94169L33.3313 5.72919C33.3313 5.35161 33.468 4.98681 33.7162 4.70225C33.9644 4.41769 34.3072 4.23262 34.6813 4.18127L34.8958 4.16669H34.8938ZM7.81251 35.4167C8.22691 35.4167 8.62434 35.5813 8.91736 35.8743C9.21039 36.1674 9.37501 36.5648 9.37501 36.9792V44.2709C9.37501 44.6853 9.21039 45.0827 8.91736 45.3757C8.62434 45.6687 8.22691 45.8334 7.81251 45.8334C7.39811 45.8334 7.00068 45.6687 6.70766 45.3757C6.41463 45.0827 6.25001 44.6853 6.25001 44.2709V36.9792C6.25001 36.5648 6.41463 36.1674 6.70766 35.8743C7.00068 35.5813 7.39811 35.4167 7.81251 35.4167ZM19.7917 28.6459C19.7917 28.2315 19.6271 27.834 19.334 27.541C19.041 27.248 18.6436 27.0834 18.2292 27.0834C17.8148 27.0834 17.4173 27.248 17.1243 27.541C16.8313 27.834 16.6667 28.2315 16.6667 28.6459V44.2709C16.6667 44.6853 16.8313 45.0827 17.1243 45.3757C17.4173 45.6687 17.8148 45.8334 18.2292 45.8334C18.6436 45.8334 19.041 45.6687 19.334 45.3757C19.6271 45.0827 19.7917 44.6853 19.7917 44.2709V28.6459ZM28.6458 31.25C29.0602 31.25 29.4577 31.4146 29.7507 31.7077C30.0437 32.0007 30.2083 32.3981 30.2083 32.8125V44.2709C30.2083 44.6853 30.0437 45.0827 29.7507 45.3757C29.4577 45.6687 29.0602 45.8334 28.6458 45.8334C28.2314 45.8334 27.834 45.6687 27.541 45.3757C27.248 45.0827 27.0833 44.6853 27.0833 44.2709V32.8125C27.0833 32.3981 27.248 32.0007 27.541 31.7077C27.834 31.4146 28.2314 31.25 28.6458 31.25ZM40.625 22.3959C40.625 21.9815 40.4604 21.584 40.1674 21.291C39.8743 20.998 39.4769 20.8334 39.0625 20.8334C38.6481 20.8334 38.2507 20.998 37.9576 21.291C37.6646 21.584 37.5 21.9815 37.5 22.3959V44.2709C37.5 44.6853 37.6646 45.0827 37.9576 45.3757C38.2507 45.6687 38.6481 45.8334 39.0625 45.8334C39.4769 45.8334 39.8743 45.6687 40.1674 45.3757C40.4604 45.0827 40.625 44.6853 40.625 44.2709V22.3959Z" fill="#FD4626"/>
</svg>
