<svg id="Layer_1_1_" enable-background="new 0 0 64 64" height="512" viewBox="0 0 64 64" width="512" xmlns="http://www.w3.org/2000/svg"><path d="m34.131 49.293 4.525.646 2.647-2.646 6-6 2.646-2.647-.646-4.525z"/><path d="m43.767 45.171h6.485v3.657h-6.485z" transform="matrix(.707 -.707 .707 .707 -19.465 47.007)"/><path d="m58.889 54.293-6.879-6.879-4.586 4.586 6.879 6.879c.377.377 1.037.379 1.414 0l3.172-3.171c.389-.391.389-1.025 0-1.415z"/><path d="m40.571 8.892-7.295 9.284 10.886 13.854 10.947-8.6 4.542-19.08zm4.429 11.108h-9v-2h9zm4-4h-11v-2h11z"/><path d="m6.215 4.791 9.209 9.209h10.586v2h-8.586l2 2h8.586v2h-6.586l19.586 19.586 3.666-3.666-21.238-27.028z"/><path d="m8.901 23.429 27.029 21.237 3.666-3.666-34.795-34.794z"/><path d="m20.185 34.838-.851 1.082 8.746 8.746 2.306-1.813z"/><path d="m25.354 49.939 4.525-.646-15.172-15.172-.646 4.525 2.646 2.647 6 6z"/><path d="m15.171 43.757h3.657v6.485h-3.657z" transform="matrix(.707 -.707 .707 .707 -28.255 25.787)"/><path d="m8.293 58.879c.391.39 1.023.39 1.414 0l6.879-6.879-4.586-4.586-6.879 6.879c-.189.189-.293.44-.293.707s.104.518.293.707z"/></svg>