<svg width="20" height="20" viewBox="0 0 20 20" fill="none" xmlns="http://www.w3.org/2000/svg">
<path fill-rule="evenodd" clip-rule="evenodd" d="M7.07288 0.158607C5.4745 0.637998 4.11118 1.43817 2.95593 2.57504C2.1567 3.36156 1.53958 4.19836 1.0485 5.16157L0.794328 5.66016H2.8664H4.93851L4.95762 5.56787C5.4158 3.35442 6.27549 1.45113 7.30621 0.367992C7.49882 0.16558 7.64049 0.00110742 7.62101 0.00241992C7.60153 0.00373242 7.35486 0.0740332 7.07288 0.158607ZM12.3384 0.370904C13.3636 1.44826 14.2224 3.35077 14.6841 5.56787L14.7033 5.66016H16.7742H18.8451L18.6365 5.24446C17.8633 3.70371 16.6782 2.35844 15.2696 1.4225C14.4025 0.846398 13.4851 0.419262 12.5144 0.13974C12.2476 0.0628769 12.0194 0 12.0073 0C11.9953 0 12.1443 0.166893 12.3384 0.370904ZM9.32779 0.503508C8.18912 0.891762 7.068 2.63599 6.45916 4.96642C6.36831 5.31415 6.29391 5.6125 6.29379 5.62939C6.29366 5.64629 7.88089 5.66016 9.82092 5.66016C11.761 5.66016 13.3482 5.64629 13.3481 5.62939C13.3479 5.6125 13.2735 5.31415 13.1827 4.96642C12.4763 2.26263 11.0992 0.404742 9.80636 0.411223C9.69029 0.411797 9.47496 0.453346 9.32779 0.503508ZM0.33241 7.00342C0.294184 7.06609 0.104446 7.99029 0.0523967 8.36719C0.021594 8.59048 -0.000759536 9.12458 1.97604e-05 9.61816C0.00149632 10.5337 0.0600256 11.0802 0.234957 11.8125L0.328063 12.2021L2.53614 12.2128L4.74426 12.2234L4.72055 12.0897C4.54996 11.1274 4.54992 8.06827 4.72051 7.10596L4.74413 6.97266H2.54762C1.33959 6.97266 0.342705 6.98652 0.33241 7.00342ZM6.01139 7.39307C5.93256 8.0832 5.88416 8.92205 5.88416 9.59766C5.88416 10.2733 5.93256 11.1121 6.01139 11.8022L6.05942 12.2227H9.82092H13.5824L13.6305 11.8022C13.797 10.3444 13.797 8.85093 13.6305 7.39307L13.5824 6.97266H9.82092H6.05942L6.01139 7.39307ZM14.9213 7.10559C15.0907 8.06117 15.0918 10.9721 14.9232 12.0692L14.8995 12.2234L17.1067 12.2128L19.3138 12.2021L19.4069 11.8125C19.5847 11.0681 19.641 10.5358 19.641 9.59766C19.641 8.65955 19.5847 8.12716 19.4069 7.38281L19.3138 6.99316L17.1057 6.98254L14.8976 6.97196L14.9213 7.10559ZM1.00535 13.9508C1.47297 14.8827 2.05019 15.6912 2.7835 16.4415C3.3526 17.0238 3.74848 17.3544 4.38635 17.7802C5.21507 18.3333 6.14949 18.7703 7.06644 19.0335C7.30683 19.1025 7.54046 19.1698 7.58557 19.1831C7.63155 19.1967 7.51002 19.0416 7.30904 18.8304C6.27086 17.7391 5.4494 15.921 4.95828 13.6274L4.93851 13.5352H2.86763H0.796748L1.00535 13.9508ZM6.29379 13.5659C6.29391 13.5829 6.36831 13.8812 6.45916 14.2289C7.16233 16.9204 8.5382 18.7852 9.82092 18.7852C11.1461 18.7852 12.5233 16.8592 13.2431 13.9994C13.301 13.7697 13.3483 13.5713 13.3483 13.5585C13.3483 13.5457 11.761 13.5352 9.82092 13.5352C7.88089 13.5352 6.29366 13.549 6.29379 13.5659ZM14.6836 13.6274C14.1935 15.9161 13.3705 17.7398 12.3384 18.8244C12.1443 19.0284 11.9953 19.1953 12.0073 19.1953C12.0194 19.1953 12.2524 19.1311 12.5252 19.0525C13.6752 18.7215 14.7866 18.1607 15.8092 17.3953C16.19 17.1103 17.0416 16.2881 17.3966 15.8629C17.7784 15.4055 18.3027 14.6037 18.5949 14.0307L18.8475 13.5352H16.7755H14.7033L14.6836 13.6274Z" fill="#3C3C3C"/>
</svg>
