<svg width="21" height="17" viewBox="0 0 21 17" fill="none" xmlns="http://www.w3.org/2000/svg">
<path d="M17.7774 1.93048C16.4387 1.32673 15.0037 0.880477 13.5031 0.626727C13.4897 0.624161 13.4759 0.625815 13.4635 0.631458C13.4511 0.637102 13.4408 0.646457 13.4339 0.658227C13.2502 0.981102 13.0454 1.40198 12.9019 1.73448C11.3104 1.49668 9.69235 1.49668 8.1008 1.73448C7.94097 1.36598 7.76073 1.00667 7.56093 0.658227C7.55416 0.646312 7.54391 0.636745 7.53156 0.630805C7.51921 0.624864 7.50534 0.622831 7.4918 0.624977C5.99205 0.878727 4.55705 1.32498 3.21743 1.9296C3.2059 1.93444 3.19613 1.94268 3.18943 1.95323C0.466429 5.95635 -0.279946 9.8606 0.0866793 13.7159C0.0876995 13.7253 0.0906304 13.7344 0.0952936 13.7427C0.0999569 13.751 0.106255 13.7582 0.113804 13.764C1.70315 14.9211 3.47585 15.8026 5.35768 16.3715C5.3708 16.3755 5.38483 16.3755 5.39794 16.3714C5.41105 16.3674 5.42264 16.3595 5.43118 16.3487C5.83543 15.8062 6.19593 15.2331 6.50393 14.6311C6.5223 14.5961 6.5048 14.5541 6.46805 14.5401C5.90281 14.3272 5.35513 14.0704 4.83005 13.7719C4.82062 13.7665 4.81267 13.7588 4.80692 13.7496C4.80116 13.7404 4.79779 13.7299 4.7971 13.719C4.7964 13.7082 4.79841 13.6974 4.80294 13.6875C4.80747 13.6776 4.81438 13.669 4.82305 13.6625C4.9333 13.5811 5.04355 13.4962 5.14855 13.4114C5.15801 13.4037 5.16939 13.3989 5.18144 13.3973C5.19349 13.3958 5.20573 13.3976 5.2168 13.4026C8.65293 14.9461 12.3743 14.9461 15.7702 13.4026C15.7813 13.3973 15.7936 13.3952 15.8059 13.3966C15.8181 13.398 15.8297 13.4028 15.8393 13.4105C15.9443 13.4962 16.0537 13.5811 16.1648 13.6625C16.1736 13.6689 16.1806 13.6774 16.1853 13.6872C16.1899 13.6969 16.1921 13.7077 16.1916 13.7186C16.1911 13.7294 16.1879 13.7399 16.1823 13.7492C16.1767 13.7585 16.1689 13.7663 16.1596 13.7719C15.6363 14.0729 15.0921 14.3275 14.5207 14.5392C14.5119 14.5424 14.5039 14.5474 14.4972 14.554C14.4905 14.5605 14.4853 14.5683 14.4819 14.577C14.4785 14.5857 14.477 14.5951 14.4775 14.6044C14.478 14.6137 14.4805 14.6228 14.4848 14.6311C14.7998 15.2322 15.1603 15.8045 15.5567 16.3479C15.5649 16.359 15.5764 16.3673 15.5896 16.3717C15.6027 16.3761 15.6169 16.3763 15.6302 16.3724C17.5152 15.805 19.2908 14.9232 20.8819 13.764C20.8897 13.7585 20.8962 13.7515 20.901 13.7434C20.9059 13.7352 20.9089 13.7261 20.9099 13.7167C21.3474 9.25948 20.1767 5.38673 17.8046 1.95498C17.7987 1.94382 17.7891 1.93513 17.7774 1.93048ZM7.01755 11.3682C5.9833 11.3682 5.13018 10.4329 5.13018 9.28573C5.13018 8.13773 5.96668 7.20323 7.01755 7.20323C8.0763 7.20323 8.92155 8.1456 8.90493 9.28573C8.90493 10.4337 8.06843 11.3682 7.01755 11.3682ZM13.9957 11.3682C12.9606 11.3682 12.1083 10.4329 12.1083 9.28573C12.1083 8.13773 12.9439 7.20323 13.9957 7.20323C15.0544 7.20323 15.8997 8.1456 15.8831 9.28573C15.8831 10.4337 15.0553 11.3682 13.9957 11.3682Z" fill="black"/>
</svg>
