<svg width="19" height="20" viewBox="0 0 19 20" fill="none" xmlns="http://www.w3.org/2000/svg">
<path d="M11.0512 9.94495L18.7462 1.84495C18.9191 1.63239 19.0095 1.35898 18.9992 1.07934C18.989 0.799697 18.8788 0.534431 18.6908 0.336549C18.5028 0.138666 18.2508 0.0227402 17.9852 0.011939C17.7195 0.00113767 17.4598 0.096256 17.2579 0.278285L9.56285 8.37829L1.86785 0.267174C1.66592 0.0851447 1.40618 -0.00997263 1.14052 0.00082865C0.87486 0.0116299 0.622858 0.127554 0.434869 0.325437C0.24688 0.52332 0.136751 0.788585 0.12649 1.06823C0.116229 1.34787 0.206591 1.62128 0.379519 1.83384L8.07452 9.94495L0.368963 18.045C0.258466 18.1446 0.168722 18.2671 0.105364 18.405C0.0420061 18.5428 0.0064016 18.693 0.000786578 18.846C-0.00482844 18.999 0.0196667 19.1516 0.0727343 19.2942C0.125802 19.4368 0.206297 19.5663 0.309166 19.6746C0.412035 19.7828 0.535057 19.8676 0.670511 19.9234C0.805965 19.9793 0.950927 20.0051 1.0963 19.9992C1.24167 19.9933 1.38431 19.9558 1.51526 19.8891C1.64622 19.8224 1.76267 19.7279 1.8573 19.6116L9.56285 11.5116L17.2579 19.6116C17.4598 19.7936 17.7195 19.8888 17.9852 19.878C18.2508 19.8672 18.5028 19.7512 18.6908 19.5534C18.8788 19.3555 18.989 19.0902 18.9992 18.8106C19.0095 18.5309 18.9191 18.2575 18.7462 18.045L11.0512 9.94495Z" fill="white"/>
</svg>
