<svg width="37" height="30" viewBox="0 0 37 30" fill="none" xmlns="http://www.w3.org/2000/svg">
<path d="M34.231 12.3682C32.7994 7.44928 31.1848 4.90769 31.1588 4.8621C31.0667 4.74976 28.7852 2.01948 23.2864 0L22.5597 1.97831C25.1757 2.93908 27.0316 4.11117 28.0523 4.86849C25.0051 3.95851 21.38 3.4012 18.1693 3.4012C14.9586 3.4012 11.3335 3.95851 8.28627 4.86849C9.3069 4.11124 11.1628 2.93908 13.7788 1.97831L13.0522 0C7.55347 2.01948 5.27195 4.74976 5.17992 4.8621C5.15386 4.90769 3.53924 7.44928 2.10764 12.3682C0.727884 17.1086 0.203731 23.7958 0.184692 24.064C0.307634 24.2562 3.13529 29.0839 10.8415 29.0839L12.7948 26.2554C10.6064 25.6744 8.51972 24.7373 6.60956 23.4658L7.77736 21.7114C10.859 23.7626 14.4525 24.8469 18.1693 24.8469C21.8862 24.8469 25.4796 23.7626 28.5613 21.7114L29.7291 23.4658C27.819 24.7373 25.7322 25.6744 23.5438 26.2554L25.4971 29.0839C33.2033 29.0839 36.031 24.2562 36.1539 24.064C36.1349 23.7958 35.6107 17.1086 34.231 12.3682ZM13.2967 17.8818H11.1892V14.3691H13.2967V17.8818ZM25.1494 17.8818H23.0419V14.3691H25.1494V17.8818Z" fill="white"/>
</svg>
