<?xml version="1.0" standalone="no"?>
<!DOCTYPE svg PUBLIC "-//W3C//DTD SVG 20010904//EN"
 "http://www.w3.org/TR/2001/REC-SVG-20010904/DTD/svg10.dtd">
<svg version="1.0" xmlns="http://www.w3.org/2000/svg"
 width="960.000000pt" height="960.000000pt" viewBox="0 0 960.000000 960.000000"
 preserveAspectRatio="xMidYMid meet">
<metadata>
Created by potrace 1.11, written by Peter Selinger 2001-2013
</metadata>
<g transform="translate(0.000000,960.000000) scale(0.100000,-0.100000)"
fill="#000000" stroke="none">
<path d="M4627 8974 c-1 -1 -43 -5 -92 -8 -106 -7 -183 -13 -245 -22 -25 -3
-58 -7 -75 -9 -16 -2 -46 -7 -65 -10 -19 -4 -47 -8 -61 -10 -15 -2 -80 -15
-145 -29 -115 -25 -173 -40 -334 -85 -41 -12 -79 -23 -85 -24 -5 -1 -14 -5
-20 -9 -5 -3 -39 -15 -75 -26 -83 -25 -246 -91 -356 -142 -47 -22 -89 -40 -94
-40 -4 0 -13 -7 -20 -15 -7 -9 -15 -14 -17 -11 -2 2 -23 -7 -46 -20 -23 -13
-58 -31 -77 -41 -19 -9 -58 -32 -87 -50 -29 -18 -55 -33 -58 -33 -3 0 -40 -22
-82 -50 -42 -27 -79 -50 -82 -50 -4 0 -16 -8 -27 -17 -11 -10 -49 -38 -84 -62
-71 -49 -239 -177 -255 -195 -5 -6 -30 -27 -53 -45 -74 -58 -277 -254 -372
-361 -36 -40 -72 -80 -80 -89 -8 -9 -44 -52 -79 -96 -35 -44 -68 -81 -72 -83
-5 -2 -9 -10 -9 -18 0 -8 -4 -14 -10 -14 -5 0 -10 -5 -10 -11 0 -6 -7 -17 -15
-25 -21 -22 -177 -251 -192 -284 -3 -8 -9 -17 -13 -20 -7 -6 -51 -81 -88 -150
-36 -66 -136 -264 -137 -270 0 -3 -11 -27 -23 -55 -13 -27 -43 -99 -66 -160
-24 -60 -47 -119 -52 -130 -4 -11 -8 -24 -9 -30 0 -5 -3 -14 -6 -20 -21 -36
-121 -403 -143 -525 -3 -14 -10 -50 -16 -80 -18 -91 -35 -209 -46 -320 -15
-161 -27 -633 -16 -654 3 -5 6 -36 7 -70 3 -55 8 -112 20 -231 4 -38 13 -97
21 -140 2 -11 11 -56 19 -100 8 -44 17 -93 20 -110 12 -60 67 -271 86 -327 10
-32 21 -66 22 -75 2 -10 9 -31 16 -48 7 -16 15 -42 18 -58 3 -15 10 -30 14
-33 5 -3 9 -12 9 -21 0 -8 7 -31 16 -51 9 -21 20 -46 24 -57 51 -129 188 -419
201 -423 5 -2 9 -10 9 -18 0 -22 167 -292 268 -433 30 -44 116 -157 147 -195
17 -20 38 -47 48 -59 87 -108 319 -346 456 -467 100 -88 361 -290 376 -290 3
0 15 -8 26 -18 10 -11 32 -25 47 -33 15 -8 29 -17 32 -20 7 -9 258 -159 278
-166 9 -4 19 -9 22 -12 14 -17 321 -158 445 -206 39 -14 79 -30 90 -35 55 -23
105 -39 105 -35 0 3 8 1 18 -4 46 -24 454 -131 565 -147 15 -2 39 -6 55 -8 15
-3 45 -7 67 -10 22 -4 54 -8 70 -11 41 -6 128 -16 195 -21 295 -24 666 -16
910 21 14 2 45 7 70 10 44 6 219 38 270 49 14 3 34 8 45 10 11 2 64 16 118 31
53 14 105 28 115 30 62 12 350 116 460 166 35 16 67 29 71 29 18 0 344 172
446 235 61 37 126 77 145 88 19 12 37 24 40 27 3 4 28 21 55 40 61 41 256 188
270 204 6 6 23 22 39 34 80 61 277 252 406 392 56 61 228 274 271 334 19 27
51 73 72 102 20 30 37 58 37 63 0 5 3 11 8 13 19 8 142 217 237 404 51 100
156 337 170 383 4 13 14 40 23 60 9 20 17 41 18 46 1 6 14 46 29 90 15 44 31
94 35 110 4 17 22 82 38 145 17 63 33 126 36 140 3 14 10 50 16 80 6 30 13 69
16 85 2 17 9 55 14 85 11 66 20 129 26 190 2 25 7 79 11 120 13 132 7 770 -7
770 -3 0 -5 10 -6 23 0 38 -13 150 -24 207 -5 30 -11 66 -14 80 -42 243 -128
547 -219 776 -86 218 -164 380 -272 569 -57 101 -203 324 -252 385 -6 8 -35
47 -64 85 -29 39 -58 75 -64 81 -5 6 -28 33 -50 60 -90 111 -277 302 -415 424
-47 41 -87 77 -90 80 -3 3 -34 28 -70 55 -36 28 -67 52 -70 55 -47 52 -417
292 -580 377 -30 16 -62 33 -70 38 -8 5 -17 10 -20 10 -3 1 -25 11 -50 22
-124 58 -222 103 -224 103 -2 0 -20 7 -40 15 -20 8 -38 15 -41 15 -3 0 -18 6
-34 14 -16 9 -31 12 -35 9 -3 -4 -6 -1 -6 5 0 7 -8 12 -17 12 -21 0 -90 23
-99 33 -4 4 -17 7 -29 7 -12 0 -25 3 -29 7 -3 4 -12 8 -19 9 -7 1 -39 10 -72
20 -33 10 -64 19 -70 20 -5 2 -35 10 -65 18 -51 15 -257 59 -325 71 -16 2 -41
7 -55 9 -14 3 -47 8 -75 11 -27 3 -63 8 -80 11 -34 5 -122 13 -210 20 -64 5
-474 11 -478 8z"/>
</g>
</svg>
