<svg width="116" height="116" viewBox="0 0 116 116" fill="none" xmlns="http://www.w3.org/2000/svg">
<mask id="mask0" mask-type="alpha" maskUnits="userSpaceOnUse" x="0" y="0" width="116" height="116">
<circle cx="58" cy="58" r="58" fill="white"/>
</mask>
<g mask="url(#mask0)">
<mask id="mask1" mask-type="alpha" maskUnits="userSpaceOnUse" x="0" y="-78" width="185" height="243">
<path d="M185 71.9138C185 123 143.586 164.414 92.5 164.414C41.4137 164.414 0 123 0 71.9138C0 20.8275 41.4137 -78 92.5 -78C143.586 -78 185 20.8275 185 71.9138Z" fill="white"/>
</mask>
<g mask="url(#mask1)">
<path d="M146.888 105.046C139.655 105.131 132.379 105.131 125.103 105.258C97.8193 105.765 70.5352 105.638 43.2512 105.554C25.7809 105.512 8.26839 105.258 -9.20185 105.131C-9.92097 105.131 -10.5978 105.173 -11.3169 105.173C-10.4286 104.2 -9.24415 104.454 -8.14433 104.412C-2.72983 104.243 2.68468 104.792 8.09919 104.792C44.6894 104.877 81.2373 104.962 117.828 104.75C126.415 104.708 135.002 104.454 143.589 104.412C144.731 104.412 145.915 104.243 146.888 105.046Z" fill="#9FF8F6"/>
<path d="M15.629 72.9824C19.1822 73.4054 19.3937 73.6169 19.8167 77.2971C20.9589 74.6321 21.0435 71.7134 21.5934 68.8369C18.4631 69.4291 16.3904 70.9097 15.629 72.9824ZM150.822 102.466C152.641 99.505 152.768 98.659 151.88 96.967C150.315 96.9247 148.284 97.4746 147.396 96.6709C146.465 95.8671 148.411 94.2597 148.369 92.8215C148.327 90.4103 149.13 88.8029 151.795 88.5491C152.303 88.5068 152.726 87.9569 153.191 87.6608C154.968 85.4188 154.291 82.7116 154.587 80.1735C154.545 78.9045 154.545 77.6355 154.46 76.3665C154.291 74.1245 153.318 72.1364 151.119 71.7557C148.58 71.3327 148.496 69.979 148.665 68.0332C148.877 65.6644 148.031 63.8877 145.619 63.1263C144.646 62.8302 144.9 62.3226 145.196 61.6881C146.254 59.4038 147.269 57.0773 148.284 54.7507C149.342 52.3396 148.707 50.0554 146.931 49.2516C144.985 48.3633 142.87 49.5054 141.855 52.0435C140.586 55.1738 139.317 58.2617 138.132 61.4343C137.709 62.5764 137.117 62.9148 135.975 62.8725C130.349 62.8302 124.723 62.8302 119.097 62.8725C118.378 62.8725 117.616 62.7456 117.024 62.9994C115.205 63.8031 115.036 62.7879 114.782 61.392C114.232 58.304 114.063 55.1314 113.09 52.1281C112.582 51.9589 112.202 51.8743 111.863 51.832C111.694 51.832 111.567 51.832 111.44 51.832C110.89 51.9589 110.721 52.4665 110.764 53.5663C110.764 54.8353 110.975 56.1044 111.229 57.3311C112.413 63.3378 113.217 69.3868 113.005 75.605C112.836 80.4696 112.963 85.3342 112.963 90.1988C112.963 91.6371 113.048 93.033 113.64 94.3443C114.274 95.7402 113.978 96.2056 112.371 96.0787C109.114 95.8671 108.522 96.4594 108.522 99.6742C108.522 100.563 108.268 100.986 107.379 101.028C105.561 101.07 103.699 101.07 101.88 101.028C100.781 101.028 100.527 100.563 101.034 99.5473C101.796 98.1091 102.176 96.5017 102.388 94.8942C103.022 90.5795 103.657 86.2649 104.291 81.9079C105.603 72.8555 106.872 63.7608 108.099 54.6661C108.352 52.8472 108.141 52.0435 107.168 51.832H107.126C106.745 51.7474 106.28 51.7051 105.687 51.7474C105.603 51.7474 105.561 51.7474 105.476 51.7474C105.349 51.7897 105.222 51.8743 105.138 51.9589C105.053 52.0012 105.011 52.0858 104.968 52.1704L104.926 52.2127C104.545 52.8895 104.503 53.6932 104.418 54.4546C103.022 64.353 101.669 74.2514 100.231 84.1498C99.8499 86.7725 99.8499 86.7302 97.185 86.6033C92.405 86.3918 88.6825 88.1684 86.3982 92.5254C85.4676 94.302 84.9177 96.1633 84.7062 98.1514C84.4101 100.689 84.1986 100.901 81.7029 100.901C67.4052 100.901 53.0652 100.901 38.7675 100.943C34.8335 100.943 30.8996 100.943 27.0079 100.986C26.3734 100.986 25.7389 100.986 25.1466 100.774C24.8928 100.689 24.639 100.563 24.4275 100.351C21.4242 98.4898 20.4936 95.6556 21.0435 92.3562C23.2008 79.2429 25.2735 66.1297 27.5155 53.0164C27.6424 52.1704 27.7693 51.3667 28.2346 50.6053C28.3192 50.5207 28.4038 50.4784 28.4884 50.4361C29.2075 50.0131 30.0535 50.1823 30.8573 50.2246C31.5764 50.2246 32.2955 50.2246 33.0569 50.2246C54.5457 50.3092 75.9922 50.2246 97.481 50.2669C98.8347 50.2669 100.146 50.3092 101.5 50.0977C101.542 50.0977 101.584 50.0554 101.627 50.0554C101.753 50.0131 101.838 49.9707 101.965 49.9707C104.08 49.4208 106.28 49.5054 108.437 49.0401C108.564 48.9555 108.648 48.8286 108.733 48.744C108.775 48.7017 108.818 48.6171 108.86 48.5748C109.537 47.475 109.029 46.0791 109.495 45.0216C109.791 46.1214 109.537 47.475 110.298 48.4902C110.341 48.5748 110.425 48.6594 110.51 48.744C110.594 48.8286 110.679 48.9132 110.721 48.9555C111.356 49.2516 111.99 49.2939 112.667 49.0401C112.752 48.9978 112.836 48.9555 112.921 48.8709C112.963 48.8286 113.005 48.7863 113.048 48.744C113.09 48.7017 113.09 48.6594 113.132 48.6171C113.513 47.5596 113.048 46.5867 112.921 45.5715C112.921 45.5292 112.921 45.4869 112.921 45.4023C112.836 45.0639 112.709 44.81 112.413 44.5985C112.117 43.1603 111.821 41.7221 111.567 40.2839C110.214 41.2991 108.352 41.0453 106.956 41.9336H106.914C106.745 42.0182 106.618 42.1451 106.491 42.272C106.237 42.695 106.068 43.1603 106.026 43.6679C105.73 47.5596 104.841 47.2212 101.711 47.2212C86.0175 47.1789 70.3239 47.2212 54.588 47.2635H54.5457C46.5509 47.2635 38.5137 47.3058 30.4765 47.3058C30.3496 47.3058 30.265 47.3058 30.1804 47.3058C30.0958 47.3058 30.0535 47.3058 29.9689 47.3058C29.9266 47.3058 29.842 47.3058 29.7997 47.3058C28.9114 47.2212 28.5307 46.7136 28.7422 45.4869C29.2498 42.7373 29.6728 39.9455 30.1381 37.1536C30.265 36.3499 30.4765 35.5039 31.4495 35.4616C31.9148 35.4193 32.3378 35.377 32.8031 35.3347C33.9875 35.2078 35.1296 35.1232 36.2718 35.6308C36.3987 35.6731 36.4833 35.7154 36.6102 35.8C37.1601 36.8152 37.287 37.9996 37.7946 39.0148C37.8369 39.0994 37.8792 39.184 37.9215 39.2686C37.9215 39.3109 37.9638 39.3109 37.9638 39.3532C38.7675 40.8761 39.825 42.1451 41.3902 42.9488C42.2785 43.3718 43.2091 43.4987 43.8859 42.6104C44.605 41.7221 44.4781 40.7915 43.8013 39.9032C43.6744 39.7339 43.5475 39.607 43.3783 39.4801C43.2091 39.3109 42.9976 39.184 42.8284 39.0148C42.7861 38.9725 42.7438 38.9302 42.7015 38.8879C42.0247 37.915 40.798 37.1536 41.3902 35.6731C41.3902 35.6731 41.3902 35.6731 41.3902 35.6308C46.424 35.1655 51.4578 35.2501 56.5339 35.5462C56.7877 35.5462 57.0415 35.5885 57.2953 35.5885C57.8452 36.223 57.7606 37.0267 58.0144 37.7458C58.8181 39.9032 59.9602 41.8067 62.0753 42.9065C63.0059 43.4141 64.0211 43.4141 64.7402 42.4835C65.4593 41.5529 65.2055 40.6646 64.5287 39.8185C64.1903 39.3955 63.6827 39.0571 63.3443 38.6341C62.7521 37.7881 61.9061 37.0267 62.3291 35.8423C62.879 35.2501 63.6404 35.4193 64.3172 35.4193C69.774 35.4193 75.2731 35.4193 80.7299 35.4193C81.3644 35.4193 81.999 35.3347 82.5912 35.7154C83.1834 36.1807 83.268 36.9421 83.4795 37.5766C84.114 39.2686 84.8754 40.8761 86.2713 42.0605C86.3136 42.1028 86.3136 42.1028 86.3559 42.1451C86.3982 42.1874 86.3983 42.1874 86.4406 42.2297C87.4981 43.0334 88.5556 43.8794 89.9092 42.8642C90.7975 42.1874 90.7975 41.3837 90.4168 40.58C90.3745 40.4954 90.3322 40.4108 90.2899 40.3262C90.2476 40.2416 90.2053 40.157 90.1207 40.0724C89.5708 39.3109 88.8517 38.761 88.3441 37.9996C87.9634 37.4497 87.3712 36.8575 87.6673 36.0961C88.0057 35.2924 88.8517 35.5039 89.5285 35.5039C94.1816 35.4616 98.7924 35.5039 103.445 35.4616H104.122C106.66 35.4616 106.703 35.5462 106.999 38.1688C106.999 38.2534 107.041 38.3803 107.083 38.4649C107.083 38.5072 107.126 38.5918 107.168 38.6341C107.21 38.7187 107.295 38.8456 107.379 38.9302C108.606 39.4378 109.917 39.4801 111.229 39.3532C110.34 32.7543 110.764 32.1198 104.08 32.4582C102.769 32.5005 102.515 31.7814 102.05 30.8085C100.442 27.3398 97.7349 25.3094 93.8855 25.0556C89.74 24.7595 86.3559 26.2823 84.7908 29.8356C83.6487 32.4159 82.0835 32.5851 79.9262 32.4159C79.5878 32.3736 79.2071 32.3736 78.8687 32.4159C77.5574 32.5851 76.9652 32.0775 76.4152 30.8085C74.7655 27.086 71.8045 25.0556 67.659 25.0133C63.5135 24.971 60.5947 27.0437 58.7758 30.6816C58.4374 31.3584 58.522 32.3736 57.253 32.4159C55.857 32.5005 55.9417 31.3584 55.6032 30.6393C53.9958 27.3398 51.4155 25.394 47.7353 25.0556C43.9705 24.7172 40.5018 25.9016 38.9367 29.2433C37.4562 32.3313 35.5103 32.7543 32.7185 32.4159C32.0417 32.3313 31.3226 32.4159 30.6034 32.4159C28.573 32.3313 27.5578 33.2619 27.2194 35.3347C26.2042 41.8067 24.9351 48.2364 24.0891 54.7084C23.793 57.0773 23.0316 57.6695 20.7051 57.5426C17.2364 57.3734 17.1941 57.5849 17.2787 54.1162C17.4056 48.5325 16.0097 43.4987 11.7796 39.607C11.2297 39.0994 10.5952 38.4226 9.74914 38.8879C8.98772 39.2686 9.19923 40.1147 9.19923 40.7915C9.24153 44.2178 7.8456 47.1366 6.15357 50.3515C2.8118 44.8947 -1.46058 40.9184 -6.66359 37.8727C-8.65173 36.6883 -9.11703 36.8998 -9.24393 39.184C-9.66694 45.6984 -9.11703 52.1281 -7.2981 58.4309C-6.87509 59.9114 -7.17119 60.2498 -8.60942 60.3768C-11.359 60.6306 -13.9816 61.392 -16.562 62.4072C-17.2811 62.661 -18.1694 62.7879 -18.0425 63.8454C-17.9156 64.9029 -16.985 64.8183 -16.2659 64.9875C-12.4588 65.7913 -8.77863 66.9757 -5.47916 69.133C-3.91403 70.1482 -2.3912 71.2058 -1.50288 73.0247C-5.14075 73.6169 -5.30996 73.7015 -5.56376 77.2971C-5.90217 81.7387 -6.11367 86.138 -6.32518 90.5795C-6.36748 91.7217 -6.79049 92.1024 -7.97491 92.1024C-13.3894 92.0178 -18.8039 92.0178 -24.2607 91.9755C-26.4604 93.2445 -28.66 94.4712 -30.7751 95.8248C-32.7209 97.0939 -32.6363 99.2935 -30.6905 100.647C-29.8021 101.282 -28.8292 101.789 -27.6025 102.593C-33.017 103.185 -38.0508 102.847 -43 103.82C-41.6887 104.116 -40.3773 104.327 -39.066 104.37C-29.7598 104.708 -20.496 105.004 -11.2321 105.3C-10.513 105.3 -9.83614 105.258 -9.11703 105.258C8.35321 105.427 30.265 122.958 47.7353 123C75.0193 123.042 97.9041 105.85 125.188 105.385C132.464 105.258 139.697 105.258 146.973 105.173C154.206 104.497 161.525 105.046 168.716 103.777C162.751 102.804 156.829 102.931 150.822 102.466ZM148.623 74.9282C148.58 73.1516 149.469 73.2362 150.611 73.7861C151.711 74.336 152.303 75.2666 152.303 76.4934C152.345 77.7624 152.303 79.0314 152.303 80.3004C152.303 81.4849 152.303 82.7116 152.303 83.896C152.303 84.9112 151.922 85.7995 151.076 86.4764C150.484 86.9417 149.807 87.1532 149.088 86.9417C148.284 86.6456 148.623 85.8419 148.623 85.2919C148.623 81.8656 148.707 78.3969 148.623 74.9282ZM92.7434 28.1012C95.6621 28.0166 97.7772 29.4125 99.0462 32.4582C95.1968 32.4582 91.5166 32.4582 87.8788 32.4582C87.625 32.4582 87.3289 32.4159 87.0751 32.3736C88.0057 29.7087 90.0784 28.1858 92.7434 28.1012ZM67.3206 28.1012C70.197 28.0166 72.2698 29.3279 73.5811 32.0775C72.1006 32.5005 64.1903 32.6274 61.6946 32.2044C62.6675 29.624 64.6556 28.1858 67.3206 28.1012ZM46.2971 28.1012C48.8774 27.9743 51.5424 29.4125 52.473 31.4007C52.7268 31.9929 52.9383 32.4582 51.9654 32.4582C48.2852 32.4582 44.5627 32.4582 40.798 32.4582C41.7286 29.7933 43.759 28.1858 46.2971 28.1012Z" fill="#354546"/>
<path d="M113.047 52.2125C111.567 52.0433 110.975 52.3817 111.313 54.1583C112.074 58.0923 112.497 62.0263 113.216 65.9603C113.428 67.1447 113.428 68.3291 113.428 69.5135C113.428 75.9009 113.47 82.3307 113.428 88.7181C113.428 91.1293 113.47 93.4981 114.697 95.6554C115.416 96.9245 114.739 97.136 113.682 96.9668C113.216 96.9245 112.709 96.7553 112.244 96.6707C108.986 96.3745 108.183 97.3052 109.283 100.351C109.706 101.493 109.409 101.704 108.352 101.704C105.687 101.662 102.98 101.704 100.315 101.662C99.8494 101.662 98.7919 101.704 99.4264 100.858C102.049 97.3475 101.838 93.1597 102.43 89.1834C104.122 77.9737 105.602 66.7217 107.167 55.5119C107.21 55.1735 107.337 54.8351 107.421 54.4967C107.887 52.8047 107.379 51.9164 105.518 52.1279C105.475 51.2819 106.195 51.2396 106.702 51.2396C108.733 51.155 110.763 50.8166 112.793 51.4934C112.878 51.578 112.963 51.6626 113.09 51.7472C113.09 51.9587 113.09 52.0856 113.047 52.2125Z" fill="#8F6D4A"/>
<path d="M111.313 40.4114C110.382 42.6533 108.352 41.8496 106.702 42.0611C105.349 42.1034 104.968 41.2151 105.095 40.1576C105.222 39.0154 105.898 38.2117 107.21 38.5078C108.479 38.7193 109.917 38.254 111.017 39.3116C111.144 39.6923 111.228 40.073 111.313 40.4114Z" fill="#D7D5D4"/>
<path d="M23.792 100.901C20.7463 99.2089 19.6465 96.2901 20.1541 93.2022C22.3537 79.116 24.7649 65.0298 27.1337 50.9436C27.176 50.8167 27.2183 50.6898 27.2606 50.5206C29.7987 49.8015 32.379 50.3514 34.9594 50.4783C39.9932 50.7744 45.0693 51.1974 50.1031 51.5781C56.9558 52.0857 63.8508 52.5511 70.7036 53.101C75.7374 53.4817 80.8135 53.8201 85.8473 54.1585C90.8388 54.4969 94.8574 59.3615 93.8421 64.0146C91.5156 65.3259 89.0621 64.6914 86.651 64.4799C85.5935 64.3953 85.5089 63.3801 85.5935 62.4917C85.7627 60.7574 86.0588 59.0231 86.2703 57.2464C85.7204 58.8539 85.6358 60.5459 85.382 62.1956C85.1282 63.8877 84.2822 64.6914 82.5901 64.6914C80.3482 64.6914 78.0639 64.7337 75.822 64.6914C74.2992 64.6491 73.6646 63.9723 73.8761 62.4071C74.0876 60.6728 74.4684 58.9385 74.553 57.1618C74.0453 58.8962 73.9607 60.7151 73.6223 62.4494C73.3685 63.93 72.6071 64.6914 71.042 64.6914C68.8423 64.6914 66.685 64.776 64.4854 64.6491C62.5395 64.5645 62.0319 63.93 62.2011 61.9418C62.328 60.419 62.6241 58.8539 62.751 57.331C62.2857 58.9385 62.1588 60.6305 61.8627 62.2802C61.5666 63.93 60.6783 64.7337 58.9862 64.6914C56.7866 64.6491 54.6293 64.7337 52.4296 64.6491C50.9068 64.6068 50.2723 63.8031 50.4415 62.3225C50.653 60.6305 50.8645 58.9808 51.076 57.2887C50.6107 58.8116 50.5684 60.419 50.23 61.9841C49.7647 64.1415 49.2994 64.6068 47.142 64.6914C45.1116 64.776 43.0388 64.776 41.0084 64.6914C38.8934 64.6068 38.5549 64.1838 38.7241 62.111C38.851 60.419 39.2741 58.7693 39.4433 56.5696C38.9357 58.6001 38.7664 60.1652 38.4703 61.7303C37.9627 64.2684 37.582 64.6491 35.0017 64.6914C34.2826 64.6914 33.6057 64.7337 32.802 64.6914C33.1404 64.8183 33.3942 64.776 33.648 64.776C37.9627 64.776 38.0896 64.9452 37.3705 69.2599C36.4399 75.0128 36.4399 75.0128 30.7293 75.3512C30.5601 75.3512 30.4332 75.3935 30.1371 75.6473C31.4061 75.9011 32.5482 75.7319 33.6903 75.8165C35.7631 75.9434 36.1861 76.4087 35.9746 78.4392C35.8054 80.2581 35.4247 82.077 35.1709 83.8537C34.9171 85.6726 33.9441 86.434 32.1675 86.3071C31.2369 86.2648 30.3486 86.3071 29.418 86.3071C29.2911 86.3917 29.3334 86.3917 29.5872 86.3917C34.7902 86.3071 34.8748 86.434 34.0288 91.5947C33.9019 92.483 33.7326 93.4137 33.7326 94.3443C34.198 92.6099 34.3672 90.791 34.621 89.0144C34.8748 87.2377 35.8054 86.3917 37.582 86.3917C39.7817 86.3917 41.939 86.3494 44.1387 86.3917C45.7461 86.434 46.4229 87.2377 46.1691 88.8452C45.873 90.6218 45.5346 92.4407 45.45 94.2597C45.9999 92.3984 46.0845 90.4526 46.4652 88.5491C46.7613 87.1531 47.5227 86.434 48.9186 86.3917C51.3298 86.3071 53.6986 86.3071 56.1098 86.3917C57.548 86.434 58.0979 87.1531 57.8864 88.5914C57.5903 90.4526 57.2942 92.3561 57.1673 94.2597C57.7172 92.5253 57.8441 90.7064 58.0979 88.9298C58.3517 87.1954 59.1978 86.3071 61.0167 86.3494C63.1317 86.3917 65.2468 86.3494 67.3618 86.3917C68.9269 86.434 69.773 87.2377 69.5192 88.8029C69.2654 90.5372 69.3923 92.3561 68.3347 93.879C64.7815 96.1209 60.7206 97.1361 56.7443 98.2783C46.5498 101.197 36.1015 101.535 25.5686 101.324C24.9764 101.282 24.3842 101.155 23.792 100.901Z" fill="#FAFAF8"/>
<path d="M23.7935 100.902C29.5464 100.944 35.2993 100.986 41.0522 100.436C50.2738 99.5057 59.2416 97.5599 67.7863 93.7951C67.9132 93.7528 68.0401 93.7528 68.2093 93.7105C68.5477 93.8797 68.6323 94.2604 68.8015 94.6411C69.6899 93.5836 68.8438 91.8493 70.2821 91.0879C70.7897 91.4263 71.2973 91.5955 71.8472 91.1725C73.2854 90.0726 74.8929 89.2266 76.8387 87.9576C75.1044 87.873 73.8776 87.9999 72.6509 87.873C71.9741 87.8307 71.0435 88.0845 70.832 86.9847C71.3396 86.3502 72.0587 86.3502 72.7355 86.3502C74.8506 86.3079 76.9656 86.2656 79.0383 86.3502C81.1957 86.4348 81.661 86.9847 81.3649 89.0997C81.1534 90.8341 80.7304 92.5684 80.6035 94.6834C81.1957 92.7799 81.238 91.1302 81.5341 89.565C82.084 86.7309 82.4647 86.3925 85.4258 86.3502C86.6102 86.3502 87.7946 86.3502 88.979 86.3079C87.6677 86.2656 86.3564 86.3079 85.0451 86.2656C82.4647 86.181 82.084 85.758 82.507 83.2199C82.5916 82.7969 82.6339 82.3739 82.8877 82.0355C83.4799 81.9509 83.8606 81.6548 84.326 81.1472C85.8488 79.4974 86.864 77.4247 88.6829 76.0711C89.5713 75.6481 90.5865 76.0711 91.5171 75.5635C90.8826 74.929 89.8251 75.3943 89.3597 74.5905C89.8251 72.3909 91.2633 70.572 91.9401 68.4569C92.5323 66.5957 92.4477 66.5111 90.5442 66.2996C89.0213 66.1727 87.3293 66.9341 86.018 65.5382C86.7794 64.396 88.0061 64.8614 89.0636 64.6922C90.5865 64.4806 92.2785 65.1998 93.7167 64.0999C93.8859 58.8123 89.952 54.54 84.5797 54.5823C77.8116 54.6246 71.0435 53.5247 64.2754 53.1017C60.0876 52.8479 55.8998 52.5518 51.712 52.2134C43.8864 51.5366 36.0607 51.0713 28.235 50.5214C27.9389 50.5214 27.6851 50.5214 27.389 50.5214C27.6851 49.21 28.785 49.8446 29.4618 49.8446C50.5699 49.8023 71.6357 49.8023 92.7438 49.8023C95.7472 49.8023 98.7928 49.7177 101.796 49.6331C102.092 50.9021 102.769 51.7904 104.25 51.7058C104.673 51.7058 105.096 51.8327 105.307 52.2557C103.7 63.6769 102.092 75.0982 100.569 86.5194C100.443 87.5769 100.02 87.8307 99.0889 87.6192C90.2058 85.8426 85.7219 91.8493 85.2566 99.125C85.1297 101.071 84.6643 101.79 82.4647 101.79C64.2753 101.663 46.1283 101.748 27.9389 101.705C26.4161 101.79 24.9356 101.959 23.7935 100.902Z" fill="#D4D6D5"/>
<path d="M83.3104 35.2513C83.6065 37.747 84.5794 39.9467 86.356 41.7233C86.3137 42.9924 85.2562 43.0347 84.4102 43.2462C76.6691 44.9805 68.8012 46.1649 60.8909 46.9263C50.9925 47.8569 41.0941 47.5608 31.1957 47.6031C30.6881 47.6031 30.2228 47.6454 29.7575 47.3493C29.2922 46.9263 29.2076 46.3764 29.2922 45.7842C29.6306 43.1616 29.969 40.4966 30.6458 37.9163C31.3649 35.209 33.5646 34.5322 36.991 35.7166C37.3294 36.8164 37.7101 37.9586 38.0485 39.0584C37.0756 39.9044 35.2566 39.8621 35.4258 41.8925C35.5527 43.1193 35.9334 43.923 37.2871 43.9653C40.5019 44.0076 43.7591 44.0076 46.9739 43.9653C48.2853 43.923 48.5814 43.077 48.5814 41.9771C48.5814 40.835 48.4545 39.8621 46.9739 39.7352C45.3242 39.6083 43.5899 40.0313 42.0247 39.1007C41.0518 38.2124 40.4173 37.1125 40.3327 35.7589C40.7134 35.3782 41.1787 35.2936 41.6863 35.2936C47.1008 35.3359 52.4731 35.1244 57.8876 35.3782C58.226 38.1278 59.3681 40.4543 61.5677 42.1886C62.3714 42.8231 63.3021 43.3731 64.1481 42.4001C65.121 41.3426 64.4019 40.4966 63.5136 39.7775C62.1176 38.6777 61.3139 37.324 61.1024 35.5474C61.3985 35.209 61.7369 35.0398 62.2022 35.0398C69.2665 35.209 76.2884 34.9552 83.3104 35.2513Z" fill="#FE5521"/>
<path d="M-3.27905 75.4788C-2.81374 74.8443 -2.13693 75.0558 -1.54472 75.0558C3.36218 75.0558 8.26908 75.0981 13.2183 75.0981C14.3604 76.7901 13.8528 78.8206 14.0643 80.6395C14.9949 88.0845 12.7953 94.3027 6.11173 98.3636C4.12359 99.5903 1.88165 100.267 -0.402595 100.732C-1.03711 100.859 -1.88313 100.732 -2.01003 101.748C-2.81374 101.663 -3.32135 101.155 -3.74436 100.479C-4.63268 97.1368 -3.91356 93.7951 -3.78666 90.4956C-3.61746 86.0963 -3.15215 81.697 -3.06755 77.2978C-3.02525 76.7055 -2.89835 76.071 -3.27905 75.4788Z" fill="#657575"/>
<path d="M29.7989 47.1375C36.144 47.1375 42.4892 47.4336 48.8343 47.0952C55.8139 46.7145 62.7936 46.2069 69.7309 45.1917C74.8493 44.4726 79.9254 43.3304 85.0015 42.5267C85.5937 42.4421 86.1013 42.3152 86.3974 41.723C86.6089 41.8922 86.8628 42.0191 87.0743 42.1883C87.7934 42.7805 88.5548 43.2458 89.4854 42.6113C90.416 41.9768 89.993 41.1731 89.7815 40.4117C93.8847 39.6926 97.7341 38.1697 101.499 36.4354C102.345 36.0547 103.191 35.7586 103.783 34.9549C107.717 34.7434 107.717 34.7434 107.252 38.5081C104.967 39.4811 104.841 40.4117 106.744 42.0614C106.575 43.3727 106.363 44.6841 106.237 46.0377C106.067 47.4759 105.517 48.1527 103.825 48.1104C98.1994 47.9835 92.5734 48.0681 86.9473 48.0681C68.5888 48.0681 50.1879 48.0681 31.8294 48.0681C31.1103 48.0681 30.4334 47.9835 29.7143 47.9835C29.5028 47.6451 29.5028 47.3913 29.7989 47.1375Z" fill="#D75229"/>
<path d="M-1.96892 101.789C-2.18042 101.239 -3.19564 100.647 -1.5036 100.393C1.33055 100.012 3.9955 99.0392 6.49125 97.5163C12.2865 93.9631 14.613 86.8565 13.5132 80.3422C13.2171 78.5656 13.4286 76.8312 13.2594 75.0969C13.344 75.0969 13.3863 75.0969 13.4709 75.0969C17.3203 75.0123 17.0242 75.0546 17.6164 78.8194C18.0817 81.8227 17.5318 84.8684 18.3355 87.7871C18.7162 89.2677 18.2086 90.7482 17.8279 92.1441C17.3626 94.0054 17.8279 95.6128 18.2509 97.2625C18.8008 99.4199 17.4895 101.958 15.2475 102C9.62151 102.169 3.9955 102 -1.58821 101.958C-1.75741 102.043 -1.88431 101.873 -1.96892 101.789Z" fill="#586767"/>
<path d="M12.0761 43.2869C13.472 45.0212 14.318 46.967 14.5718 49.1667C15.1218 54.2851 14.1065 59.0651 11.0186 63.2529C9.41114 65.4525 7.423 67.356 4.25044 67.0599C3.31982 63.0414 3.99663 59.2343 5.98477 55.681C8.09981 52.0008 10.3841 48.4476 11.3147 44.2598C11.4416 43.8791 11.6531 43.4984 12.0761 43.2869Z" fill="#3EDB80"/>
<path d="M-5.77557 41.1716C-5.01415 41.3408 -4.50654 41.8907 -4.04123 42.4407C-1.37628 45.1902 0.442658 48.3628 0.907967 52.2121C1.20407 54.7079 0.611862 56.9498 -1.03787 58.8957C-1.79929 59.8263 -2.6876 60.4608 -3.95663 59.784C-5.05645 58.092 -5.18335 56.1038 -5.64866 54.2003C-6.57928 50.4355 -6.32548 46.5438 -6.62158 42.7368C-6.62158 42.0599 -6.45238 41.4677 -5.77557 41.1716Z" fill="#3EDB80"/>
<path d="M118.166 96.2061C117.997 96.2484 117.87 96.2484 117.701 96.2907C116.094 94.5564 115.459 92.4413 115.459 90.1571C115.417 82.7121 115.459 75.2672 115.459 67.8222C115.459 66.6801 115.671 65.7072 116.855 65.2842C123.708 65.2842 130.561 65.3265 137.413 65.3265C138.302 65.3265 139.232 65.4111 140.121 65.4534C140.248 67.0608 138.936 66.7647 138.132 66.807C135.764 66.9339 133.352 66.8493 130.941 66.8493C127.557 66.8493 124.173 66.807 120.789 66.8493C118.42 66.8916 117.997 67.2723 117.955 69.5143C117.913 76.8323 117.955 84.1504 117.913 91.4684C117.955 93.0758 119.309 94.5987 118.166 96.2061Z" fill="#EDF9FB"/>
<path d="M103.785 34.9538C104.208 35.6306 103.827 35.9267 103.235 36.2228C99.3855 37.9995 95.5361 39.6915 91.3906 40.6644C90.7561 40.8336 90.2908 40.5798 89.7832 40.3683C88.3449 39.3954 87.2874 38.1687 86.6952 36.5189C86.2722 35.3768 86.4837 34.8269 87.8373 34.8692C93.1249 34.9538 98.4548 34.9538 103.785 34.9538Z" fill="#FD5623"/>
<path d="M127.431 102.085C123.37 102.128 119.351 102.128 115.29 102.17C113.471 102.17 112.075 101.451 111.314 99.6742C111.229 99.0397 111.652 98.9974 112.118 98.9974C120.916 99.0397 129.715 98.9128 138.514 99.082C138.683 99.082 138.767 99.1666 138.852 99.6742C135.51 102.339 131.322 101.493 127.431 102.085Z" fill="#E4F9FD"/>
<path d="M42.0245 39.1426C43.5473 39.1426 45.1124 39.2695 46.6353 39.1003C48.7503 38.8888 49.4694 39.8194 49.1733 41.7652C49.1733 41.8921 49.1733 42.0613 49.1733 42.1882C49.3848 43.9649 48.708 44.7263 46.8468 44.6417C43.6319 44.5148 40.3747 44.5148 37.1599 44.6417C35.3832 44.684 34.7487 43.9649 34.791 42.3151C34.791 40.7077 34.6641 39.058 36.9907 39.1003C37.3291 39.1003 37.7098 39.1003 38.0482 39.1003C38.8519 40.2424 39.6133 41.3845 40.7554 42.2305C41.5592 42.8651 42.4898 43.415 43.3358 42.442C44.2241 41.4268 43.7165 40.5385 42.7013 39.8617C42.4475 39.6925 42.2783 39.3964 42.0245 39.1426Z" fill="#FD6F42"/>
<path d="M4.33438 67.0177C10.8487 65.3257 12.71 60.0804 14.0636 54.3698C14.4866 52.6777 14.5289 50.9011 14.5289 49.1667C15.5018 56.1041 15.2057 62.7453 10.045 68.2021C9.28358 69.0058 8.31066 69.8096 8.14146 70.9517C7.84535 73.1513 6.44942 73.1513 4.79969 72.9398C3.95367 71.0786 3.48837 69.0904 4.33438 67.0177Z" fill="#3DBD76"/>
<path d="M127.429 102.085C130.221 101.45 133.098 101.366 135.847 100.477C136.693 100.181 137.581 99.9275 138.427 99.3353C137.92 99.293 137.455 99.293 136.947 99.293C129.121 99.293 121.296 99.293 113.512 99.293C112.793 99.293 111.947 98.9969 111.313 99.716C110.72 98.6162 111.693 98.9546 112.116 98.9546C113.724 98.9123 115.373 98.9123 116.981 98.9546C127.387 98.9969 137.793 99.0815 148.199 99.1661C148.749 99.1661 149.595 98.7854 149.849 99.6314C150.018 100.308 149.426 100.774 148.918 101.197C148.157 101.831 147.268 102.254 146.211 102.254C139.95 102.127 133.69 102.085 127.429 102.085Z" fill="#B0C2C7"/>
<path d="M-3.66064 59.785C-1.88401 59.4889 -0.361177 57.67 0.146433 55.6395C0.992449 52.2977 -0.191973 49.379 -1.5879 46.4602C-2.26471 45.022 -3.78754 44.0914 -4.04135 42.4417C-0.488077 44.8528 2.13457 48.0677 4.33422 51.7055C4.75722 52.4246 4.58802 52.9323 4.16501 53.6091C3.06519 55.3857 2.13457 57.2892 1.75387 59.4043C1.54236 60.5041 0.95015 61.054 -0.149672 60.5887C-1.5456 59.9965 -3.11073 60.7156 -4.46436 59.9965C-4.21055 59.6581 -3.95675 59.6158 -3.66064 59.785Z" fill="#3BBD75"/>
<path d="M87.2446 101.705C86.1871 100.901 86.8216 99.801 86.8639 98.8704C87.2869 93.4982 90.0365 90.0718 94.3512 89.395C95.1549 89.2258 95.1972 89.818 95.0703 90.2834C94.0128 94.6403 91.8554 98.3628 88.429 101.282C88.1329 101.535 87.6253 101.451 87.2446 101.705Z" fill="#FAFAF8"/>
<path d="M20.4088 66.5954C17.4478 67.9067 14.6136 69.345 13.0062 72.4329C12.4563 73.4905 11.1027 73.2367 10.3412 72.8559C9.36832 72.3483 10.2989 71.46 10.6373 70.9524C11.3565 69.9372 12.2871 69.0489 13.0908 68.076C14.9943 65.834 15.8403 63.0845 16.5172 60.2926C17.0248 60.2503 17.5324 60.208 18.04 60.4195C18.6322 60.8002 18.463 61.3924 18.3361 61.9C17.6593 65.1995 17.6593 65.1995 20.4088 66.5954Z" fill="#3BBC75"/>
<path d="M105.18 52.2963C104.503 52.254 103.784 52.2963 103.107 52.2117C101.542 52.0002 100.823 51.2811 101.626 49.6737C102.98 48.5739 104.587 49.2084 106.068 48.9969C106.829 48.9123 107.591 48.87 108.352 48.8277C109.071 48.2777 109.79 48.3623 110.467 48.8277C111.186 48.8277 111.905 48.8277 112.624 48.87C112.878 49.8429 113.217 50.7735 113.005 51.7887C110.509 52.1271 107.971 51.5349 105.518 52.1694C105.433 52.254 105.306 52.2963 105.18 52.2963Z" fill="#DDDCDA"/>
<path d="M87.2446 101.705C91.1786 98.7435 93.2513 94.598 94.6896 90.0718C94.7319 89.9026 94.4781 89.6065 94.3512 89.395C94.5204 89.3104 94.7319 89.1835 94.9011 89.1835C96.5085 89.1412 98.6235 88.7182 99.385 89.9872C99.9349 90.9601 97.9044 92.06 96.9738 93.0752C94.6473 95.6978 92.1938 98.1936 89.825 100.816C89.1059 101.62 88.3445 101.958 87.2446 101.705Z" fill="#D2D4D3"/>
<path d="M0.484116 62.873C0.864823 62.9153 1.20323 63.1269 1.20323 63.5076C0.991724 66.5532 1.49933 69.5143 1.83774 72.4753C1.83774 72.6445 1.75314 72.856 1.54164 73.5329C-0.742609 69.6412 -3.95747 67.3146 -7.51074 65.2842C-7.13003 64.0998 -6.28402 64.7343 -5.73411 64.9881C-3.87287 65.7918 -2.30774 65.6226 -1.29252 63.7191C-0.827209 63.0423 -0.150397 63.0846 0.484116 62.873Z" fill="#3DBB76"/>
<path d="M29.7998 47.1368C29.7575 47.3906 29.7152 47.6867 29.6729 47.9405C28.0232 48.279 27.431 47.8559 27.854 45.9947C28.5308 42.949 28.9115 39.8188 29.3768 36.6885C29.546 35.3772 30.0113 34.7004 31.4919 34.8696C32.8878 35.0388 34.2837 34.9119 35.6796 34.9119C36.2718 34.9119 37.0333 34.7427 36.991 35.7579C31.4919 35.8002 31.4918 35.8002 30.6035 41.1301C30.3074 43.1183 30.0536 45.1487 29.7998 47.1368Z" fill="#F9A88D"/>
<path d="M4.33308 67.0178C4.07927 69.0482 4.50228 70.994 4.84069 72.9822C3.23326 72.7284 3.78317 71.1632 3.69856 70.4864C3.36016 66.8062 2.93715 63.0415 3.95237 59.3613C4.41768 57.6693 5.05219 56.0195 6.02511 54.539C8.26705 51.1126 10.1283 47.5171 11.0589 43.4562C11.3127 42.2718 11.5665 42.1449 12.1164 43.287C11.4396 47.1364 9.83219 50.6896 7.67484 53.8622C4.92529 57.9231 4.03697 62.2801 4.33308 67.0178Z" fill="#ADECC8"/>
<path d="M20.4084 66.5955C17.405 66.5532 16.559 65.2419 17.6588 62.3654C17.8703 61.8155 18.3356 61.2656 17.8703 60.6311C19.4778 59.4467 21.2121 59.5736 22.9464 60.2504C22.7772 61.5617 22.608 62.873 22.4388 64.1844C22.2696 65.4111 21.6774 66.3417 20.4084 66.5955Z" fill="#3FDA80"/>
<path d="M0.484734 62.8721C0.27323 62.999 -0.107477 63.0836 -0.19208 63.2951C-1.79951 66.4254 -4.12606 66.7215 -7.00251 65.0717C-7.08711 65.0294 -7.34092 65.2409 -7.51013 65.3255C-9.03295 64.8179 -10.5558 64.268 -12.0786 63.7604C-9.15986 62.4068 -6.0296 62.2376 -2.89933 62.4491C-2.01102 62.5337 -1.0804 62.3645 -0.23438 62.7875C0.0617266 62.8298 0.27323 62.8721 0.484734 62.8721Z" fill="#3ED980"/>
<path d="M91.4316 101.661C94.1389 98.7427 96.6346 96.0777 99.2573 93.2859C99.0881 99.0811 96.4231 102 91.4316 101.661Z" fill="#F6F7F4"/>
<path d="M57.888 35.4205C55.0538 36.0127 52.1773 35.632 49.3432 35.7166C46.3398 35.8012 43.3365 35.7589 40.3331 35.8012C40.1639 35.1243 40.5023 34.9128 41.0945 34.9128C46.509 34.9128 51.9235 34.9128 57.2957 34.9128C57.6342 34.9128 57.8457 35.1243 57.888 35.4205Z" fill="#F59C80"/>
<path d="M83.3097 35.2512C76.7953 35.2935 70.3233 35.3359 63.809 35.3782C62.9207 35.3782 61.9901 35.5474 61.1017 35.632C61.0171 35.082 61.3132 34.9128 61.8209 34.9128C68.8005 34.9128 75.8224 34.9128 82.8021 34.9551C82.9713 34.9551 83.1405 35.1243 83.3097 35.2512Z" fill="#ED9F88"/>
<path d="M110.51 48.8704C109.791 48.8704 109.114 48.8704 108.395 48.8704C108.268 46.9669 108.733 45.148 109.072 42.906C110.172 44.9787 109.791 47.0515 110.51 48.8704Z" fill="#8A6A4A"/>
<path d="M22.9463 60.2922C21.2543 60.4614 19.52 59.9538 17.8702 60.6729C17.4049 60.6306 16.8973 60.7998 16.5166 60.3345C18.4624 59.4462 20.5352 59.4462 22.5656 59.6577C22.9463 59.6577 22.9463 59.9961 22.9463 60.2922Z" fill="#A7E8C0"/>
<path d="M93.5896 64.1413C93.8434 65.2834 93.2088 65.368 92.2782 65.4103C90.1632 65.5372 87.9635 65.0296 85.8485 65.7064C86.3138 67.6945 85.637 69.5558 85.3832 71.4593C85.0871 73.9128 85.0448 73.9128 87.4136 74.082C88.0905 74.1243 88.8096 74.1243 89.3595 74.6742C90.2055 74.7165 91.0092 74.7165 91.8552 74.8011C92.2782 74.8434 92.7012 75.0549 92.6589 75.5625C92.6589 76.0701 92.2359 76.2816 91.8129 76.2816C90.7131 76.3662 89.6133 76.3662 88.5135 76.4085C85.4255 76.5777 83.9027 78.2274 83.7758 81.3154C83.7758 81.5269 83.522 81.6538 83.3528 81.7807C83.2682 81.9076 83.1836 82.0345 83.1413 82.1614C82.4644 85.6724 82.4644 85.6724 86.0177 85.6301C87.1598 85.6301 88.2597 85.5878 89.4018 85.6301C90.0363 85.6724 91.0938 85.2917 91.0092 86.3492C90.9669 87.3644 89.9094 86.9837 89.2749 86.9837C87.4982 87.026 85.7639 87.0683 83.9873 86.9837C82.6759 86.8991 82.2529 87.449 82.126 88.6334C81.9145 90.6639 81.5338 92.652 81.28 94.6825C81.1954 95.317 81.1531 96.163 80.3917 96.0784C79.3765 95.9515 79.7149 95.0632 79.8418 94.3864C80.1802 92.3559 80.4763 90.3678 80.7724 88.3373C80.857 87.8297 81.1108 87.026 80.2648 87.026C77.0922 87.0683 73.9197 86.4338 70.7894 87.3221C71.1701 88.6334 71.1278 89.8602 70.2395 91.0023C69.9857 92.3136 69.7742 93.5826 69.5204 94.894C69.4358 95.4439 69.4781 96.163 68.6744 96.0784C67.913 95.9938 68.0822 95.2747 68.1245 94.7248C68.1245 94.3864 68.1245 94.048 68.1668 93.6672C68.4629 91.9329 68.759 90.1986 69.0551 88.4642C69.2243 87.4067 69.0551 86.8991 67.7861 86.9414C65.3326 87.026 62.8369 87.026 60.3834 86.9414C59.3259 86.8991 58.9029 87.1952 58.8183 88.295C58.6068 90.4524 58.2261 92.6097 57.8454 94.7671C57.7608 95.317 57.8031 96.2476 56.8724 96.0361C56.111 95.8669 56.3648 95.1055 56.4071 94.5979C56.6609 92.5251 56.9147 90.4101 57.3377 88.3373C57.5916 87.1529 57.2108 86.8991 56.0687 86.8991C53.6153 86.9837 51.1195 86.9414 48.6661 86.8991C47.6086 86.8568 47.1432 87.2375 47.0586 88.295C46.8048 90.4524 46.4664 92.6097 46.128 94.7671C46.0434 95.317 46.0011 96.2053 45.1128 95.9938C44.3937 95.8246 44.5629 95.1055 44.6475 94.5556C44.9859 92.4828 45.2397 90.3678 45.6627 88.295C45.9165 87.1106 45.5358 86.8145 44.3937 86.8568C41.9402 86.9414 39.4445 86.9414 36.991 86.8568C35.722 86.8145 35.4259 87.4067 35.299 88.4219C35.0452 90.3678 34.7491 92.3136 34.4107 94.2595C34.2838 94.9786 34.5376 96.1207 33.3955 95.9515C32.4649 95.8246 32.8879 94.8517 33.0148 94.1749C33.3109 92.229 33.5647 90.2832 33.9031 88.3373C34.1146 87.2375 33.8185 86.7722 32.6341 86.8568C31.1535 86.9414 29.673 86.8991 28.1925 86.8568C27.6849 86.8568 27.0927 86.8145 27.135 86.1377C27.1773 85.4609 27.7695 85.4609 28.2348 85.4609C29.8422 85.4609 31.4919 85.4186 33.0994 85.4609C33.9454 85.5032 34.3261 85.2071 34.453 84.3188C34.7491 81.9499 35.1721 79.5811 35.5951 77.2122C35.7643 76.3239 35.3836 76.1124 34.5799 76.1124C33.0994 76.1547 31.6188 76.1547 30.1383 76.1124C29.5038 76.1124 28.7001 76.197 28.7424 75.3087C28.7424 74.5896 29.4615 74.5896 30.0537 74.5896C30.1383 74.5896 30.1806 74.5896 30.2652 74.5896C32.1688 74.3358 34.6645 75.5202 35.8489 74.0397C36.8641 72.7706 36.6103 70.4018 36.9064 68.5405C37.3718 65.3257 37.3295 65.3257 33.9454 65.3257C33.0994 65.3257 32.2534 65.3257 31.4073 65.3257C30.9843 65.3257 30.519 65.1988 30.5613 64.6489C30.5613 64.099 30.9843 63.9721 31.4496 63.9721C32.9302 63.9721 34.4107 63.8875 35.8912 63.9721C37.1602 64.0567 37.7948 63.7606 37.8794 62.28C38.0063 60.3765 38.387 58.5152 38.6831 56.654C38.7677 56.0618 38.7677 55.1312 39.5714 55.2581C40.5443 55.385 40.2482 56.3156 40.1213 56.9924C39.8252 58.8537 39.6137 60.7572 39.233 62.6184C38.9369 63.9298 39.5291 64.0144 40.5443 63.9721C42.9555 63.9298 45.3243 63.8875 47.7355 63.9721C49.0468 64.0567 49.4698 63.5067 49.5967 62.3223C49.8505 60.2919 50.1889 58.3037 50.485 56.2733C50.5696 55.6811 50.7388 55.0466 51.4579 55.2158C52.0501 55.3427 52.0078 55.9349 51.9232 56.4425C51.6271 58.3883 51.3733 60.3342 50.9926 62.28C50.8234 63.3798 50.8657 63.9721 52.2616 63.9298C54.7151 63.8452 57.2108 63.8452 59.6643 63.9298C60.8064 63.9721 61.1025 63.5067 61.2294 62.5338C61.5255 60.4611 61.8639 58.346 62.2023 56.2733C62.2869 55.7657 62.3715 55.1735 63.0061 55.2158C63.8098 55.2581 63.6829 55.9772 63.5983 56.5271C63.3445 58.5575 63.0484 60.588 62.71 62.5761C62.5408 63.5913 62.7946 63.9721 63.8944 63.9298C66.4324 63.8875 68.9705 63.8875 71.5085 63.9298C72.4814 63.9298 72.8621 63.6336 72.9467 62.6607C73.1583 60.6303 73.4967 58.5998 73.8351 56.6117C73.9197 56.0195 73.962 55.1312 74.808 55.2158C75.6117 55.3427 75.4425 56.1887 75.3579 56.7809C75.0618 58.7268 74.808 60.6726 74.4696 62.6184C74.3004 63.4644 74.3004 63.9298 75.4002 63.9298C78.0652 63.8875 80.7724 63.8875 83.4374 63.9298C84.5795 63.9721 84.6641 63.2952 84.7487 62.4492C85.0025 60.5034 85.3409 58.5575 85.5947 56.6117C85.6793 55.9772 85.6793 55.1312 86.5253 55.2581C87.3713 55.3427 87.2021 56.1464 87.0752 56.7809C86.7368 58.7268 86.483 60.6726 86.1446 62.6184C85.9331 63.6336 86.2292 63.9721 87.2867 63.9721C89.3595 64.0144 91.4745 64.099 93.5896 64.1413Z" fill="#354546"/>
<path d="M89.4017 74.6738C84.3256 75.0122 84.3256 75.0122 85.087 70.1899C85.2985 68.7093 85.3831 67.1865 85.933 65.7483C87.8365 65.7906 89.7401 65.8752 91.6436 65.8329C92.9972 65.7906 93.4625 66.129 92.9126 67.5249C91.8551 69.9784 90.9245 72.4741 89.4017 74.6738Z" fill="#FAFAF8"/>
<path d="M70.2822 91.0447C70.3245 89.818 70.4514 88.5489 70.8321 87.3645C73.0741 87.3645 75.316 87.3645 78.0656 87.3645C75.8236 89.4795 73.4548 90.6217 71.2551 91.9753C70.2822 92.6098 70.4091 91.5523 70.2822 91.0447Z" fill="#FAFAF8"/>
<path d="M83.395 81.7386C83.4373 81.3156 83.4373 80.8926 83.4796 80.4696C83.9872 76.028 83.9872 76.028 88.5134 76.3664C87.0752 78.2276 85.637 80.0889 84.241 81.9501C83.6911 82.7538 83.5642 82.2462 83.395 81.7386Z" fill="#F8F8F6"/>
<path d="M0.146045 85.1654C0.146045 84.4039 0.146045 83.6425 0.146045 82.8388C0.146045 80.1739 0.188346 80.2585 2.8533 80.1316C4.75684 80.047 5.34905 80.8084 5.22215 82.585C5.09524 84.3194 5.13754 86.096 5.22215 87.8303C5.26445 89.5647 4.71454 90.4107 2.811 90.3261C1.07666 90.2415 -0.10776 89.9454 0.146045 87.8726C0.230647 86.9843 0.146045 86.0537 0.146045 85.1654Z" fill="#7B898A"/>
<path d="M65.967 74.7588C60.8063 74.7588 60.8063 74.7588 61.6946 69.5981C62.4137 65.4526 62.4137 65.4526 66.5592 65.4526C67.1091 65.4526 67.7013 65.4526 68.2512 65.4526C72.6505 65.4526 72.6505 65.4526 71.9314 69.6827C71.1277 74.7588 71.1277 74.7588 65.967 74.7588Z" fill="#FAFAF8"/>
<path d="M77.4312 74.7582C76.0776 74.5466 73.8357 75.5196 72.9473 74.3351C72.2705 73.4045 73.1588 71.2895 73.3703 69.6821C73.9626 65.452 73.9626 65.452 78.2349 65.452C79.8424 65.452 81.4498 65.4943 83.0995 65.452C84.0302 65.4097 84.284 65.7481 84.1148 66.721C83.6918 69.0052 83.3533 71.2895 83.0995 73.5737C82.9726 74.462 82.6765 74.8005 81.7882 74.8005C80.3923 74.7159 79.081 74.7582 77.4312 74.7582Z" fill="#FAFAF8"/>
<path d="M54.2494 76.2826C59.0717 76.2826 59.0717 76.2826 58.4795 80.978C57.8873 85.5888 57.8873 85.5888 53.3188 85.5888C51.7536 85.5888 50.2308 85.5465 48.6657 85.5888C47.6928 85.6311 47.4812 85.2504 47.6505 84.3198C48.0735 82.1201 48.4542 79.8782 48.6657 77.6785C48.7926 76.5787 49.131 76.198 50.1885 76.2826C51.5844 76.3672 52.9381 76.2826 54.2494 76.2826Z" fill="#FAFAF8"/>
<path d="M42.1943 74.7588C40.883 74.6319 38.7256 75.4356 37.8373 74.4204C36.949 73.4052 38.0065 71.4171 38.218 69.8519C38.7256 65.4526 38.7679 65.4526 43.0826 65.4526C44.2247 65.4526 45.3246 65.4526 46.4667 65.4526C49.1739 65.4526 49.1739 65.4526 48.7509 68.2022C48.4971 69.8096 48.1164 71.3748 48.0318 72.9822C47.9472 74.505 47.2704 74.8857 45.9168 74.7588C44.7323 74.6742 43.5902 74.7588 42.1943 74.7588Z" fill="#FAFAF8"/>
<path d="M64.3595 85.5882C59.1988 85.5882 59.1988 85.5882 60.0872 80.4698C60.8063 76.282 60.8063 76.282 65.121 76.282C66.6015 76.282 68.082 76.3666 69.5625 76.2397C70.8316 76.1551 70.9585 76.7473 70.7893 77.7202C70.4509 79.793 70.1125 81.8657 69.8164 83.9807C69.6894 85.1229 69.3087 85.7574 67.9551 85.5882C66.7284 85.5036 65.544 85.5882 64.3595 85.5882Z" fill="#FAFAF8"/>
<path d="M41.0086 85.5876C40.1626 85.5876 39.3166 85.5876 38.4706 85.5876C35.721 85.5876 35.721 85.5876 36.1863 82.7957C36.4401 81.3575 36.8208 79.877 36.8631 78.4387C36.9054 76.7467 37.5399 76.1122 39.2743 76.2391C41.4316 76.4083 43.6313 76.3237 45.7886 76.2391C46.973 76.1968 47.5652 76.3237 47.2268 77.8465C46.7615 79.8347 46.4654 81.8651 46.3385 83.8532C46.2539 85.2492 45.7463 85.7145 44.3927 85.5876C43.2505 85.503 42.1084 85.5876 41.0086 85.5876Z" fill="#FAFAF8"/>
<path d="M53.8696 74.7603C52.5583 74.5911 50.401 75.4794 49.5127 74.4219C48.6666 73.4067 49.6819 71.3762 49.9357 69.8111C50.6125 65.4118 50.6125 65.4118 55.0118 65.4118C56.1962 65.4118 57.4229 65.5387 58.6073 65.3695C60.4263 65.158 61.0185 65.8348 60.5532 67.5692C60.2994 68.5844 60.2148 69.6419 60.0456 70.6571C59.3264 74.6757 59.3264 74.6757 55.2656 74.6757C54.8849 74.7603 54.5042 74.7603 53.8696 74.7603Z" fill="#F9F9F7"/>
<path d="M77.5573 76.2817C77.8957 76.2817 78.2765 76.2817 78.6149 76.2817C82.7603 76.2817 82.8026 76.2817 82.0412 80.258C81.7028 81.9501 82.1681 84.2343 80.9414 85.2495C79.6301 86.307 77.4304 85.5879 75.6115 85.5879C71.0007 85.6302 71.0007 85.5879 71.6775 81.0194C72.312 76.2817 72.312 76.2817 77.5573 76.2817Z" fill="#F9F9F7"/>
<path d="M53.7834 69.8522C53.3181 69.3023 52.8951 68.7947 52.5144 68.3294C52.176 67.9487 51.8799 67.4834 52.3452 67.0604C52.8528 66.5528 53.3181 66.9758 53.5719 67.3565C54.5026 68.837 55.4332 69.0062 56.6176 67.6103C56.956 67.2296 57.4213 66.9758 57.8866 67.4834C58.3096 67.991 58.0135 68.4563 57.5905 68.7101C56.1523 69.5984 55.8562 70.529 57.2944 71.6712C57.7174 72.0096 57.9289 72.5172 57.4636 72.9402C56.8714 73.4901 56.3638 72.9825 56.11 72.5172C55.264 71.1636 54.418 71.0789 53.3604 72.3057C52.9797 72.7287 52.4298 73.1517 51.9222 72.5595C51.4146 71.9673 52.0068 71.5866 52.4298 71.2058C52.8951 70.6982 53.3181 70.2752 53.7834 69.8522Z" fill="#3A4949"/>
<path d="M80.0099 79.2013C80.0099 79.2859 80.0099 79.3705 79.9676 79.4128C78.064 80.6396 77.8948 81.9932 79.5869 83.6006C79.6715 83.6852 79.5023 84.1505 79.333 84.2774C78.91 84.5735 78.487 84.4043 78.2332 84.0236C77.2603 82.5008 76.2451 82.2047 75.0184 83.7275C74.7223 84.0659 74.257 84.1928 73.9185 83.8544C73.4532 83.3891 73.707 82.8815 74.13 82.6277C75.8221 81.6548 75.6529 80.5973 74.2993 79.4551C73.9608 79.159 73.9185 78.6514 74.2569 78.313C74.7646 77.8477 75.2299 78.1861 75.4837 78.6091C76.4566 80.3435 77.5141 80.0474 78.6562 78.7783C78.91 78.4822 79.2484 78.3976 79.5869 78.5668C79.883 78.6514 80.0099 78.8629 80.0099 79.2013Z" fill="#3B4A4A"/>
</g>
</g>
</svg>
