<svg width="116" height="116" viewBox="0 0 116 116" fill="none" xmlns="http://www.w3.org/2000/svg">
<mask id="mask0" mask-type="alpha" maskUnits="userSpaceOnUse" x="0" y="0" width="116" height="116">
<circle cx="58" cy="58" r="58" fill="white"/>
</mask>
<g mask="url(#mask0)">
<mask id="mask1" mask-type="alpha" maskUnits="userSpaceOnUse" x="-9" y="63" width="81" height="58">
<path d="M62.4067 120H-6.85005C-7.01676 120 -7.17896 119.937 -7.30061 119.825C-8.47659 118.766 -9.06233 117.226 -8.99475 115.374C-8.89562 112.672 -7.40875 109.762 -6.08408 108.739C-5.88132 108.581 -5.60197 108.554 -5.37218 108.667C-5.14239 108.78 -4.99371 109.014 -4.99371 109.275V110.726C-2.84901 106.717 0.12024 103.892 3.28773 102.951C5.68024 102.239 8.11781 102.64 10.3661 104.095C11.5782 103.032 13.0425 102.446 14.5114 102.437C16.0658 96.4733 19.0621 90.0047 23.8381 82.347L19.4135 85.8606C19.1612 86.0588 18.8053 86.0543 18.5575 85.8471C18.3096 85.6398 18.2466 85.2885 18.3998 85.0047C23.6669 75.3515 30.9841 67.9415 39.0087 64.1397C39.0177 64.1352 39.0312 64.1307 39.0403 64.1262C39.1214 64.0947 41.0408 63.3244 42.6358 64.383C43.8658 65.1983 44.4966 66.8244 44.5147 69.2073C44.5147 69.3154 44.4921 69.419 44.4426 69.5136C39.635 79.1263 38.1887 95.0273 41.4688 101.104C42.5592 100.825 43.627 100.897 44.4696 101.325C44.9697 101.577 45.3752 101.951 45.6636 102.415C47.0514 101.649 48.7635 101.545 50.3045 102.171C51.6246 102.708 52.6023 103.667 53.0619 104.843C56.4727 102.685 60.6405 102.356 63.9161 104.041C66.633 105.442 68.3181 108.068 68.6786 111.383L70.1655 109.762C70.3502 109.559 70.6431 109.487 70.8999 109.586C71.1567 109.685 71.3324 109.928 71.3369 110.203C71.5172 117.946 66.3717 119.5 62.4923 119.996C62.4653 119.996 62.4337 120 62.4067 120Z" fill="url(#paint0_linear)"/>
</mask>
<g mask="url(#mask1)">
<path d="M62.4067 120.268H-6.85005C-7.01676 120.268 -7.17896 120.205 -7.30061 120.093C-8.47659 119.034 -9.06233 117.493 -8.99475 115.642C-8.89562 112.939 -7.40875 110.029 -6.08408 109.007C-5.88132 108.849 -5.60197 108.822 -5.37218 108.935C-5.14239 109.047 -4.99371 109.282 -4.99371 109.543V110.993C-2.84901 106.984 0.12024 104.16 3.28773 103.219C5.68024 102.507 8.11781 102.908 10.3661 104.363C11.5782 103.3 13.0425 102.714 14.5114 102.705C16.0658 96.7411 19.0621 90.2726 23.8381 82.6149L19.4135 86.1284C19.1612 86.3266 18.8053 86.3221 18.5575 86.1149C18.3096 85.9077 18.2466 85.5563 18.3998 85.2725C23.6669 75.6193 30.9841 68.2094 39.0087 64.4075C39.0177 64.403 39.0312 64.3985 39.0403 64.394C39.1214 64.3625 41.0408 63.5922 42.6358 64.6508C43.8658 65.4661 44.4966 67.0922 44.5147 69.4751C44.5147 69.5833 44.4921 69.6869 44.4426 69.7815C39.635 79.3941 38.1887 95.2951 41.4688 101.372C42.5592 101.092 43.627 101.165 44.4696 101.592C44.9697 101.845 45.3752 102.219 45.6636 102.683C47.0514 101.917 48.7635 101.813 50.3045 102.439C51.6246 102.975 52.6023 103.935 53.0619 105.11C56.4727 102.953 60.6405 102.624 63.9161 104.309C66.633 105.71 68.3181 108.336 68.6786 111.651L70.1655 110.029C70.3502 109.827 70.6431 109.755 70.8999 109.854C71.1567 109.953 71.3324 110.196 71.3369 110.471C71.5172 118.214 66.3717 119.768 62.4923 120.264C62.4653 120.264 62.4337 120.268 62.4067 120.268Z" fill="url(#paint1_linear)"/>
<path opacity="0.55" d="M23.68 85.4521L28.1361 81.916C22.7428 90.0782 18.4579 98.0873 16.5565 105.767C14.9209 105.605 13.2313 106.299 11.9607 107.592H11.9562C5.55363 102.97 -1.08322 108.533 -4.14258 116.461V112.15C-0.709254 106.078 4.94537 102.569 10.4288 106.529H10.4333C11.7039 105.231 13.3935 104.542 15.0291 104.704C16.57 98.4747 19.6789 92.0287 23.68 85.4521Z" fill="white"/>
<path opacity="0.55" d="M40.8247 67.384C34.0077 70.6138 27.916 76.3616 23.1355 83.6094L18.9902 86.8977C24.0591 77.6093 31.1646 70.1723 39.2928 66.3165C39.2928 66.3165 41.6538 65.348 42.9739 67.2174C41.8791 66.9471 40.8247 67.384 40.8247 67.384Z" fill="white"/>
<path d="M62.3843 119.799H32.2954C36.0712 119.326 38.6935 117.939 39.8289 115.362C42.4512 117.583 44.5283 116.263 46.3756 113.439C48.0563 116.178 49.5521 116.263 50.7732 112.416C57.4191 112.331 59.8837 109.592 58.167 104.195C63.2584 103.619 68.1966 106.75 68.0525 113.515L70.6432 110.691C70.7874 117.137 67.1964 119.182 62.3843 119.799Z" fill="#D36C0F"/>
<path d="M10.6869 105.378C10.3534 105.784 10.029 106.203 9.71363 106.631C9.39372 107.058 9.09184 107.504 8.7404 107.928C8.70435 107.968 8.64127 107.977 8.60072 107.941C8.56918 107.914 8.55567 107.869 8.56918 107.833V107.829C8.74491 107.333 8.87106 106.811 9.02876 106.293C9.18196 105.775 9.34416 105.252 9.52889 104.734V104.73C9.65055 104.378 10.038 104.194 10.3895 104.315C10.7409 104.437 10.9257 104.824 10.804 105.176C10.7725 105.248 10.7319 105.315 10.6869 105.378Z" fill="#390075"/>
<path d="M18.6287 105.426C18.1016 105.043 17.5203 104.732 16.9346 104.444C16.3489 104.16 15.7496 103.921 15.1458 103.723C14.7944 103.611 14.6007 103.232 14.7178 102.876C14.8304 102.525 15.2089 102.331 15.5649 102.449C15.628 102.467 15.682 102.498 15.7316 102.53L15.7361 102.534C16.3128 102.93 16.8535 103.354 17.3581 103.813C17.8628 104.273 18.3449 104.746 18.7639 105.286C18.7954 105.331 18.7909 105.39 18.7459 105.426C18.7143 105.453 18.6693 105.453 18.6287 105.426Z" fill="#390075"/>
<path d="M52.8859 106.786C52.6336 106.917 52.3722 107.079 52.1154 107.241C51.8586 107.408 51.6108 107.584 51.363 107.768C50.8764 108.138 50.4123 108.548 50.0068 109.021C49.9707 109.061 49.9076 109.066 49.8671 109.03C49.831 109.003 49.822 108.953 49.8401 108.913C50.0969 108.322 50.4393 107.764 50.8178 107.237C51.007 106.971 51.2098 106.714 51.417 106.462C51.6288 106.21 51.8451 105.967 52.0884 105.719L52.0974 105.71C52.3587 105.449 52.7868 105.449 53.0481 105.714C53.3094 105.976 53.3094 106.403 53.0436 106.665C52.9985 106.714 52.9445 106.755 52.8859 106.786Z" fill="#390075"/>
<path d="M43.4238 106.13C43.4509 105.842 43.5365 105.567 43.6446 105.301C43.7527 105.036 43.8789 104.783 44.0186 104.536C44.1583 104.288 44.3069 104.049 44.4692 103.815C44.6359 103.576 44.7936 103.356 45.0189 103.112L44.7665 103.63V103.626C44.7665 103.261 45.0639 102.964 45.4289 102.964C45.7938 102.964 46.0912 103.261 46.0912 103.626V103.63V103.747C46.0912 103.923 45.9876 104.076 45.8389 104.153C45.6497 104.247 45.4244 104.396 45.2171 104.54C45.0098 104.689 44.8026 104.847 44.6088 105.018C44.4106 105.184 44.2258 105.365 44.0501 105.554C43.8789 105.743 43.7212 105.95 43.6131 106.18V106.184C43.5905 106.234 43.532 106.256 43.4824 106.229C43.4418 106.211 43.4238 106.171 43.4238 106.13Z" fill="#390075"/>
<path d="M41.188 102.676C40.7465 102.797 40.3455 102.96 40.012 103.27C39.6741 103.577 39.4038 104.045 39.0794 104.469C39.0478 104.514 38.9847 104.523 38.9397 104.487C38.9036 104.46 38.8946 104.415 38.9036 104.379C38.9802 104.131 39.0343 103.879 39.1064 103.622C39.174 103.365 39.2596 103.095 39.3948 102.829C39.5254 102.563 39.7056 102.306 39.9129 102.086C40.1202 101.86 40.3545 101.667 40.5933 101.491L40.6068 101.482C40.9087 101.261 41.3322 101.324 41.553 101.626C41.7737 101.928 41.7107 102.351 41.4088 102.572C41.3412 102.617 41.2646 102.653 41.188 102.676Z" fill="#390075"/>
<path d="M45.4654 104.27C45.0283 104.27 44.6724 103.914 44.6724 103.477V103.472C44.6724 103.036 45.0283 102.68 45.4654 102.68C45.9024 102.68 46.2584 103.036 46.2584 103.472C46.2584 103.909 45.9024 104.27 45.4654 104.27Z" fill="#390075"/>
<path d="M43.0048 63.0657C39.9004 65.5297 37.1024 68.8405 34.5386 72.791L37.4268 70.791C34.1466 75.8271 31.1864 82.5884 28.3568 90.0479L31.4793 85.5118C28.5596 93.1785 28.064 99.4894 28.064 104.985L33.4437 90.147L35.0162 93.2866C36.1426 86.5343 40.8376 69.3225 45.3027 65.354L42.7615 62.7639" fill="#FFCA29"/>
<path opacity="0.2" d="M6.24791 109.7C5.70273 109.191 3.71122 109.704 2.24688 111.267C0.782534 112.831 0.404057 114.849 0.949244 115.362C1.49443 115.871 2.76954 114.691 4.23388 113.128C5.69822 111.565 6.79761 110.209 6.24791 109.7Z" fill="white"/>
</g>
<path d="M62.4067 120H-6.85005C-7.01676 120 -7.17896 119.937 -7.30061 119.825C-8.47659 118.766 -9.06233 117.226 -8.99475 115.374C-8.89562 112.672 -7.40875 109.762 -6.08408 108.739C-5.88133 108.581 -5.60197 108.554 -5.37218 108.667C-5.1424 108.78 -4.99371 109.014 -4.99371 109.275V110.726C-2.84901 106.717 0.120234 103.892 3.28772 102.951C5.68024 102.239 8.11781 102.64 10.3661 104.095C11.5782 103.032 13.0425 102.446 14.5114 102.437C16.0658 96.4732 19.0621 90.0047 23.8381 82.347L19.4135 85.8606C19.1612 86.0588 18.8053 86.0543 18.5575 85.8471C18.3096 85.6398 18.2466 85.2885 18.3998 85.0047C23.6669 75.3515 30.9841 67.9415 39.0087 64.1397C39.0177 64.1352 39.0312 64.1307 39.0403 64.1262C39.1214 64.0947 41.0408 63.3244 42.6358 64.383C43.8658 65.1983 44.4966 66.8244 44.5147 69.2073C44.5147 69.3154 44.4921 69.419 44.4426 69.5136C39.635 79.1263 38.1887 95.0273 41.4688 101.104C42.5592 100.825 43.627 100.897 44.4696 101.325C44.9697 101.577 45.3752 101.951 45.6636 102.415C47.0513 101.649 48.7635 101.545 50.3044 102.171C51.6246 102.708 52.6023 103.667 53.0619 104.843C56.4727 102.685 60.6405 102.356 63.9161 104.041C66.633 105.442 68.3181 108.068 68.6786 111.383L70.1655 109.762C70.3502 109.559 70.6431 109.487 70.8999 109.586C71.1567 109.685 71.3324 109.928 71.3369 110.203C71.5172 117.946 66.3717 119.5 62.4923 119.996C62.4653 119.996 62.4337 120 62.4067 120ZM-6.57971 118.649H62.3616C67.1512 118.027 69.4941 116.014 69.9176 112.027L68.5659 113.5C68.3767 113.708 68.0793 113.775 67.818 113.672C67.5567 113.568 67.39 113.311 67.3945 113.032C67.4756 109.41 66.0202 106.644 63.2943 105.244C60.2575 103.68 56.1393 104.181 53.0529 106.487C52.8592 106.631 52.6068 106.662 52.3861 106.568C52.1653 106.473 52.0121 106.271 51.9806 106.032C51.8364 104.897 51.0209 103.924 49.7953 103.428C48.4301 102.874 46.8937 103.072 45.7943 103.951C45.6185 104.09 45.3842 104.135 45.168 104.068C44.9517 104 44.785 103.829 44.7219 103.613C44.5777 103.117 44.2849 102.753 43.8568 102.536C43.217 102.212 42.2934 102.217 41.3877 102.55C41.0903 102.658 40.7524 102.545 40.5857 102.275C38.6843 99.2706 37.9544 93.6129 38.5762 86.7525C39.1619 80.2975 40.8741 73.6983 43.1584 69.0632C43.1224 67.2749 42.6853 66.0496 41.8923 65.5181C40.9552 64.892 39.7071 65.3244 39.5629 65.3785C32.6782 68.6488 26.3207 74.6893 21.3915 82.5678L26.1901 78.7614C26.4514 78.5542 26.8209 78.5677 27.0687 78.793C27.312 79.0182 27.357 79.3876 27.1768 79.6623C21.0311 88.9642 17.3815 96.4777 15.6918 103.302C15.6107 103.626 15.2999 103.843 14.9709 103.811C13.5652 103.671 12.0558 104.28 10.9248 105.437C10.6996 105.667 10.3076 105.703 10.0462 105.514C7.99615 104.032 5.85596 103.608 3.68422 104.253C0.25991 105.266 -3.0788 109.032 -5.02525 114.077C-5.1424 114.379 -5.4623 114.559 -5.7777 114.496C-6.0976 114.437 -6.33189 114.158 -6.33189 113.834V111.185C-6.98972 112.307 -7.57095 113.888 -7.62953 115.433C-7.69261 116.784 -7.33666 117.865 -6.57971 118.649Z" fill="#390075"/>
<path d="M47.9087 42.4621C48.0034 42.6964 48.0034 42.9712 47.8862 43.2234L43.1462 53.4172C42.8849 53.9757 42.182 54.1424 41.6864 53.7775C38.6045 51.4847 33.9186 51.255 30.2465 51.5343C29.3859 51.5973 28.5794 51.6919 27.8675 51.791C26.9213 51.9217 26.3851 50.7505 27.097 50.1153C37.9422 40.4081 44.8494 41.1468 47.305 41.9036C47.5978 41.9892 47.8096 42.2054 47.9087 42.4621Z" fill="#EC1C24"/>
<g opacity="0.6">
<path opacity="0.6" d="M47.7271 42.2113C37.8011 42.1257 30.191 49.2203 29.5242 49.896C28.8843 50.5492 29.5512 51.0312 30.0648 51.2789C29.2043 51.342 28.3977 51.4366 27.6858 51.5357C26.7396 51.6663 26.2035 50.4951 26.9154 49.86C37.7605 40.1527 44.6677 40.8915 47.1233 41.6482C47.4162 41.7383 47.628 41.95 47.7271 42.2113Z" fill="white"/>
</g>
<path d="M42.8119 55.7476L42.127 55.0539C38.6531 51.5358 31.7009 51.9277 27.8666 52.4728C27.1637 52.5719 26.4833 52.207 26.1814 51.5584C25.8796 50.9097 26.0327 50.1574 26.5644 49.68C40.6176 37.0628 48.3403 41.5403 48.6647 41.7385L49.1784 42.0538L42.8119 55.7476ZM32.593 50.7701C35.9813 50.7701 39.7705 51.3557 42.3838 53.4638L47.4077 42.6529C46.6417 42.3736 45.0827 41.9907 42.7894 42.279C39.6309 42.6754 34.4088 44.4547 27.4655 50.689C27.3439 50.7971 27.3754 50.9232 27.407 50.9863C27.4385 51.0493 27.5106 51.1575 27.6773 51.1349C29.0335 50.9412 30.7547 50.7701 32.593 50.7701Z" fill="#390075"/>
<path d="M65.5384 59.2113C65.9665 60.3779 66.4396 62.5806 65.7863 65.8284C65.0879 69.2969 63.0964 73.9591 58.3789 79.8105C57.7797 80.5537 56.5812 80.0762 56.6668 79.1258C56.8921 76.5312 56.9596 72.7879 56.0089 69.5131C55.5719 67.9996 54.9186 66.5852 53.9634 65.432C53.5714 64.9545 53.702 64.2428 54.2472 63.9545L64.1867 58.6977C64.6959 58.4275 65.3357 58.6617 65.5384 59.2113Z" fill="#EC1C24"/>
<g opacity="0.35">
<path opacity="0.35" d="M65.5385 59.2113C65.9665 60.378 65.8178 60.3825 65.98 63.4996C64.2048 65.5176 59.7712 68.2699 56.0089 69.5177C55.5719 68.0041 54.9186 66.5897 53.9634 65.4366C53.5714 64.9591 53.702 64.2474 54.2472 63.9591L64.1867 58.7023C64.6959 58.4275 65.3357 58.6618 65.5385 59.2113Z" fill="#390075"/>
</g>
<path d="M57.5954 80.914C57.3927 80.914 57.1854 80.8735 56.9872 80.7924C56.3248 80.5221 55.9238 79.869 55.9869 79.1572C56.3338 75.3014 56.3654 68.3419 52.6707 65.0536L51.9453 64.4049L65.2956 57.3418L65.6381 57.8373C65.8498 58.1481 70.725 65.6256 58.848 80.3104C58.5236 80.7068 58.0685 80.914 57.5954 80.914ZM54.2432 64.7202C57.7036 68.5761 57.681 75.4095 57.3296 79.2789C57.3161 79.441 57.4242 79.5131 57.4918 79.5401C57.5594 79.5671 57.6855 79.5942 57.7892 79.4635C63.6556 72.2113 65.165 66.9049 65.3993 63.7292C65.566 61.4274 65.1019 59.8914 64.7865 59.1391L54.2432 64.7202Z" fill="#390075"/>
<path d="M42.0099 66.4276C43.6004 67.8825 45.9839 68.2925 48.8901 67.797C49.192 67.7429 49.4984 67.6844 49.8138 67.6123C50.3725 67.4862 50.9447 67.3285 51.5349 67.1393C52.9542 66.6889 54.4591 66.0672 56.0271 65.2879C57.158 64.7249 58.3205 64.0762 59.5055 63.351C60.5733 62.6978 61.6592 61.9816 62.7541 61.2068C63.7678 60.4906 64.7951 59.7203 65.8269 58.9005C69.1161 56.2924 72.4548 53.1843 75.6763 49.6662C80.9344 43.9184 84.5255 37.4499 86.8053 31.6391C90.1891 23.0039 90.6622 15.8282 89.3736 14.6525C88.0399 13.4363 81.0966 14.5174 72.9414 18.5534C72.8423 18.603 72.7476 18.648 72.6485 18.6976C67.5706 21.2471 62.0422 24.9364 57.1175 29.9274C56.6399 30.4094 56.1713 30.9049 55.7072 31.4094C52.6659 34.7337 49.9985 38.1346 47.7682 41.459C47.6375 41.6527 47.5114 41.8464 47.3807 42.0401C47.2951 42.1662 47.214 42.2923 47.1329 42.4184C46.5021 43.3914 45.9118 44.3554 45.3577 45.3058C44.6818 46.468 44.0645 47.6122 43.5103 48.7338C42.893 49.9815 42.3524 51.1933 41.8928 52.3689C41.4647 53.459 41.1088 54.5176 40.8249 55.5311C40.6898 56.0176 40.5681 56.4906 40.4645 56.9591C40.2482 57.9185 40.104 58.8375 40.0365 59.7023C39.7977 62.6348 40.4149 64.9726 42.0099 66.4276Z" fill="white"/>
<g opacity="0.35">
<g opacity="0.35">
<path opacity="0.35" d="M51.4646 66.9641C51.4871 67.0227 51.5096 67.0812 51.5322 67.1443C50.9419 67.3335 50.3697 67.4911 49.811 67.6173C49.5136 67.6848 49.2253 67.7434 48.9414 67.7929L49.1036 67.5452L49.0991 67.5407C49.8561 67.4056 50.6446 67.2119 51.4646 66.9641Z" fill="black"/>
</g>
<g opacity="0.35">
<path opacity="0.35" d="M48.7783 67.8955L49.0036 67.5487L48.9405 67.4856L49.0847 67.4541C49.8372 67.3235 50.6302 67.1343 51.4412 66.8865L51.5088 66.864L51.5358 66.9316C51.5583 66.9901 51.5809 67.0532 51.6034 67.1118L51.6304 67.1883L51.5538 67.2109C50.9681 67.4 50.3868 67.5577 49.8281 67.6838C49.5263 67.7514 49.2289 67.81 48.954 67.8595L48.7783 67.8955ZM49.1523 67.6028L49.1027 67.6793C49.3235 67.6388 49.5578 67.5892 49.7921 67.5352C50.3238 67.4136 50.8735 67.2649 51.4277 67.0892C51.4232 67.0802 51.4186 67.0667 51.4141 67.0577C50.6392 67.2919 49.8777 67.4766 49.1523 67.6028Z" fill="#390075"/>
</g>
</g>
<g opacity="0.35">
<path opacity="0.35" d="M86.9668 31.3415C84.696 37.1524 81.1095 43.6254 75.8603 49.3777C72.6433 52.9002 69.3091 56.0129 66.0199 58.6255C64.9927 59.4453 63.9654 60.2156 62.9516 60.9363C61.8567 61.7156 60.7708 62.4318 59.703 63.085C58.518 63.8102 57.36 64.4588 56.2291 65.0219C54.5575 65.8552 52.9625 66.5084 51.4621 66.9634C50.6421 67.2156 49.8491 67.4048 49.0966 67.5354L49.1011 67.5399L48.9389 67.7877C46.8663 68.1481 45.0505 68.049 43.6042 67.4363C43.0095 67.1886 42.4733 66.8507 42.0092 66.4228C40.4187 64.9679 39.7969 62.63 40.0312 59.6976C40.0988 58.8327 40.243 57.9138 40.4592 56.9543C42.4643 57.5174 44.8162 58.8687 46.988 60.8507C47.3079 61.1435 47.6143 61.4408 47.9116 61.7426C48.7587 62.612 50.0699 62.8507 51.1557 62.3057C60.8429 57.4318 68.1376 51.3417 73.6165 45.1569C73.977 44.7515 73.5895 44.1254 73.0623 44.265C70.4625 44.9497 67.5834 44.3416 65.4477 42.3957C62.1045 39.3461 61.8657 34.1614 64.9161 30.819C67.9664 27.4767 73.1524 27.2379 76.4956 30.2875C78.2348 31.8776 79.136 34.0398 79.1675 36.2244C79.1765 36.7605 79.8839 36.9587 80.1768 36.5037C81.8619 33.8956 83.2587 31.3641 84.4076 29.0037C88.5123 20.5982 89.517 14.3459 89.517 14.3459C90.8057 15.5261 90.3416 22.7019 86.9668 31.3415Z" fill="#390075"/>
</g>
<path d="M89.7928 14.6742C89.8064 14.7103 89.8199 14.7463 89.8334 14.7823C89.8604 14.8544 89.8829 14.931 89.901 15.0121C89.9145 15.0526 89.9235 15.0977 89.9325 15.1427C90.0046 15.449 90.0542 15.8184 90.0857 16.2328C90.0902 16.2914 90.0947 16.3544 90.0992 16.413C90.1217 16.8454 90.1217 17.3274 90.0992 17.8589C90.0947 17.9355 90.0902 18.0121 90.0857 18.0887C90.0767 18.2644 90.0632 18.449 90.0497 18.6337C90.0451 18.7148 90.0361 18.8004 90.0271 18.8815C89.9821 19.395 89.9145 19.94 89.8334 20.5211C89.8199 20.6067 89.8064 20.6923 89.7928 20.7779C89.7117 21.3094 89.6126 21.868 89.4955 22.4491C89.4729 22.5527 89.4549 22.6563 89.4324 22.7599C89.3152 23.3365 89.1756 23.9311 89.0224 24.5437C88.9953 24.6563 88.9638 24.7689 88.9368 24.8815C88.5853 26.2464 88.1483 27.6968 87.6166 29.2059C87.5715 29.332 87.5265 29.4581 87.4814 29.5842C87.3913 29.8365 87.2967 30.0933 87.2021 30.35C87.1525 30.4761 87.1075 30.6068 87.0579 30.7329C87.0444 30.7689 87.0264 30.8095 87.0128 30.8455C86.3911 29.9356 85.5981 28.9761 84.7915 28.0707C84.0571 27.2464 83.3092 26.4671 82.6739 25.8275C80.8085 23.1833 78.3169 21.0211 75.4017 19.5436L74.5637 19.1247L72.7344 18.1968C80.5202 14.2778 87.2607 13.0436 89.153 13.94C89.2206 13.9715 89.2837 14.0076 89.3423 14.0481C89.3828 14.0751 89.4189 14.1022 89.4549 14.1337C89.5856 14.2508 89.6982 14.4355 89.7928 14.6742Z" fill="#EC1C24"/>
<g opacity="0.6">
<path opacity="0.6" d="M88.8454 13.9988C87.4396 14.3547 83.5107 15.3907 79.9512 16.7601C77.6488 17.6475 75.6438 18.5349 74.2561 19.1836L72.4268 18.2556C80.2171 14.3367 86.953 13.1024 88.8454 13.9988Z" fill="white"/>
</g>
<g opacity="0.35">
<path opacity="0.35" d="M89.7919 14.6741C89.8054 14.7101 89.8189 14.7462 89.8324 14.7822C89.8594 14.8543 89.882 14.9308 89.9 15.0119C89.9135 15.0525 89.9225 15.0975 89.9315 15.1426C90.0036 15.4489 90.0532 15.8182 90.0847 16.2327C90.0892 16.2912 90.0937 16.3543 90.0982 16.4128C90.1208 16.8453 90.1208 17.3273 90.0982 17.8588C90.0937 17.9354 90.0892 18.0119 90.0847 18.0885C90.0757 18.2642 90.0622 18.4489 90.0487 18.6336C90.0442 18.7147 90.0352 18.8002 90.0262 18.8813C89.9811 19.3948 89.9135 19.9399 89.8324 20.521C89.8189 20.6066 89.8054 20.6921 89.7919 20.7777C89.7108 21.3093 89.6116 21.8678 89.4945 22.4489C89.4719 22.5525 89.4539 22.6561 89.4314 22.7597C89.3143 23.3363 89.1746 23.9309 89.0214 24.5435C88.9943 24.6561 88.9628 24.7687 88.9358 24.8814C88.5843 26.2462 88.1473 27.6967 87.6156 29.2057C87.5705 29.3318 87.5255 29.458 87.4804 29.5841C87.3903 29.8363 87.2957 30.0931 87.2011 30.3499C87.1515 30.476 87.1065 30.6066 87.0569 30.7327C87.0434 30.7688 87.0299 30.8093 87.0118 30.8454C86.3901 29.9354 85.597 28.976 84.7905 28.0706C86.3315 24.6021 89.499 17.0435 89.3413 14.0435C89.3818 14.0705 89.4179 14.0975 89.4539 14.129C89.5846 14.2507 89.6972 14.4354 89.7919 14.6741Z" fill="#390075"/>
</g>
<path d="M46.7812 68.1973C44.6725 68.1973 42.9694 67.6117 41.6988 66.454C39.9776 64.8865 39.2387 62.436 39.4955 59.1747C39.6712 56.963 40.3065 54.4314 41.3924 51.6521C41.861 50.4584 42.4107 49.2152 43.028 47.9629C43.5912 46.8278 44.2175 45.6566 44.8933 44.4944C45.5331 43.3908 46.218 42.2827 46.9344 41.1971C49.3269 37.553 52.1475 33.9448 55.3149 30.4718C61.2669 23.9493 67.9128 19.8682 72.4365 17.5934C80.0556 13.7555 88.0622 11.9447 89.914 13.6339C91.7343 15.2961 90.6485 23.4177 87.5395 31.3682C85.6922 36.1025 82.2409 43.107 76.3024 49.6161C73.1349 53.0846 69.8007 56.2197 66.3854 58.936C65.3671 59.7468 64.3218 60.5306 63.2855 61.2693C62.1816 62.0486 61.0777 62.7828 60.0008 63.4405C58.8068 64.1702 57.6218 64.8324 56.4774 65.409C53.8055 66.7423 51.3454 67.6072 49.1557 67.9856C48.3131 68.1252 47.5246 68.1973 46.7812 68.1973ZM87.463 14.3186C84.9037 14.3186 79.578 15.5078 73.0358 18.8006C68.6112 21.0258 62.1185 25.0123 56.3062 31.3817C53.1883 34.8007 50.4128 38.3503 48.0608 41.9359C47.3579 43.0034 46.6866 44.089 46.0603 45.1701C45.4025 46.3098 44.7897 47.4494 44.24 48.562C43.6362 49.7828 43.1046 50.9855 42.6495 52.1431C41.6132 54.8008 41.0049 57.2017 40.8427 59.2828C40.6174 62.1072 41.2122 64.1837 42.6089 65.454C44.0057 66.7288 46.1279 67.1297 48.9169 66.6477C50.976 66.2964 53.3099 65.4675 55.8646 64.1973C56.9775 63.6387 58.131 62.9991 59.2889 62.2873C60.3433 61.6432 61.4201 60.927 62.5015 60.1657C63.5198 59.445 64.5381 58.6747 65.5383 57.8774C68.8951 55.2062 72.1797 52.1206 75.2976 48.7017C81.0964 42.3503 84.4667 35.4989 86.2735 30.8727C89.8329 21.7601 89.7969 15.3546 88.9949 14.6249C88.7786 14.4312 88.2514 14.3186 87.463 14.3186Z" fill="#390075"/>
<path d="M75.7034 40.5143C73.6218 42.7936 70.4453 43.4828 67.7059 42.5053C66.8047 42.1855 65.9487 41.681 65.1962 40.9918C64.9169 40.735 64.66 40.4647 64.4302 40.181C62.1459 37.3701 62.1999 33.244 64.7186 30.4872C64.8853 30.3025 65.0565 30.1359 65.2368 29.9737C67.5347 27.9016 70.8508 27.5007 73.5407 28.8476C74.14 29.1449 74.7077 29.5323 75.2258 30.0052C78.2582 32.78 78.4699 37.4827 75.7034 40.5143Z" fill="#418BF9"/>
<path d="M70.2114 43.0532C69.3598 43.0532 68.4992 42.9091 67.6657 42.6118C66.7195 42.2739 65.8634 41.7604 65.1154 41.0757C64.8361 40.819 64.5703 40.5442 64.336 40.2514C62.002 37.3775 62.1282 33.1478 64.6288 30.4135C64.7955 30.2288 64.9758 30.0531 65.156 29.891C67.4404 27.8279 70.8286 27.3684 73.5861 28.7513C74.2034 29.0576 74.7801 29.454 75.2938 29.927C76.7851 31.2874 77.6547 33.1432 77.7448 35.1568C77.835 37.1703 77.1411 39.0982 75.7804 40.5892C74.325 42.1883 72.2975 43.0532 70.2114 43.0532ZM70.2249 28.1838C68.4406 28.1838 66.6744 28.8279 65.3092 30.0576C65.1335 30.2153 64.9622 30.382 64.8 30.5622C62.376 33.2198 62.2543 37.3234 64.5162 40.1072C64.746 40.391 64.9983 40.6568 65.2731 40.9091C65.9986 41.5712 66.8276 42.0712 67.7468 42.3955C70.5358 43.391 73.6267 42.6208 75.6227 40.4361C76.9428 38.9901 77.6187 37.1207 77.5286 35.1658C77.4385 33.2108 76.5959 31.409 75.1496 30.0892C74.6494 29.6297 74.0907 29.2468 73.4915 28.9495C72.4597 28.436 71.3378 28.1838 70.2249 28.1838Z" fill="#390075"/>
<path d="M75.7025 40.5119C73.6208 42.7911 70.4443 43.4803 67.7049 42.5029C66.8038 42.183 65.9477 41.6785 65.1952 40.9893C64.9159 40.7326 64.6591 40.4623 64.4293 40.1785C62.1449 37.3677 62.199 33.2415 64.7176 30.4848C64.8843 30.3001 65.0556 30.1334 65.2358 29.9713C67.5337 27.8992 70.8499 27.4983 73.5397 28.8451C74.139 29.1424 74.7067 29.5298 75.2249 30.0028C78.2572 32.7776 78.469 37.4803 75.7025 40.5119Z" fill="#418BF9"/>
<g opacity="0.6">
<path opacity="0.6" d="M75.505 30.9539C74.9869 30.4809 74.4192 30.0935 73.8199 29.7962C71.13 28.4493 67.8139 28.8457 65.516 30.9223C65.3357 31.0845 65.1645 31.2557 64.9978 31.4359C63.2902 33.3052 62.7179 35.8098 63.2406 38.1026C62.2989 35.5755 62.7675 32.6205 64.714 30.4899C64.8807 30.3052 65.0519 30.1385 65.2321 29.9764C67.53 27.9043 70.8462 27.5034 73.5361 28.8503C74.1353 29.1476 74.703 29.5349 75.2212 30.0079C76.3836 31.071 77.1316 32.4178 77.456 33.8458C77.0595 32.7737 76.4062 31.7782 75.505 30.9539Z" fill="white"/>
</g>
<path d="M70.201 43.4136C68.2231 43.4136 66.3442 42.6884 64.8753 41.3461C63.3119 39.9226 62.4017 37.9767 62.3026 35.8641C62.208 33.7514 62.9379 31.7289 64.3617 30.1703C65.7855 28.6073 67.7319 27.6974 69.8451 27.5983C71.9583 27.5037 73.9813 28.2334 75.5403 29.6568C77.1037 31.0803 78.0139 33.0262 78.113 35.1388C78.2076 37.2515 77.4777 39.274 76.0539 40.8326C74.6301 42.3956 72.6837 43.3055 70.5705 43.4046C70.4444 43.4091 70.3227 43.4136 70.201 43.4136ZM70.2146 28.5442C70.1064 28.5442 69.9983 28.5487 69.8902 28.5532C68.0338 28.6388 66.3217 29.4406 65.0646 30.8145C63.812 32.1884 63.1677 33.9677 63.2533 35.8235C63.3389 37.6794 64.1409 39.3911 65.5151 40.6479C66.8894 41.9001 68.6646 42.5398 70.5255 42.4587C72.3818 42.3731 74.094 41.5713 75.351 40.1974C76.6036 38.8235 77.2479 37.0442 77.1623 35.1884C77.0767 33.3325 76.2747 31.6208 74.9005 30.364C73.6073 29.1793 71.9538 28.5442 70.2146 28.5442Z" fill="#390075"/>
<path d="M75.1592 35.7858C75.0015 38.5156 72.6586 40.6057 69.9236 40.448C68.5719 40.3714 67.3734 39.7543 66.5309 38.8219C65.6748 37.8714 65.1837 36.5921 65.2603 35.2138C65.418 32.484 67.7609 30.3939 70.4959 30.5516C72.4378 30.6642 74.0508 31.8759 74.7672 33.5516C75.0601 34.2363 75.2043 34.993 75.1592 35.7858Z" fill="#01D3EC"/>
<path d="M70.2112 40.5711C70.112 40.5711 70.0129 40.5666 69.9138 40.5621C68.5756 40.4855 67.3456 39.8954 66.4444 38.8999C65.5298 37.8819 65.0657 36.5756 65.1468 35.2107C65.2234 33.8593 65.8226 32.6206 66.8364 31.7197C67.8457 30.8188 69.1478 30.3683 70.4995 30.4449C72.4325 30.5575 74.1041 31.7332 74.87 33.5125C75.1809 34.2332 75.3161 35.0035 75.2665 35.7963C75.1133 38.4855 72.874 40.5711 70.2112 40.5711ZM70.2021 30.6611C69.0126 30.6611 67.8817 31.089 66.9896 31.8863C66.0254 32.7467 65.4487 33.9314 65.3766 35.2242C65.3 36.526 65.7415 37.7783 66.6156 38.7513C67.4762 39.7017 68.6522 40.2648 69.9318 40.3369C72.5947 40.49 74.8925 38.4495 75.0457 35.7828L75.1584 35.7873L75.0457 35.7828C75.0908 35.026 74.9601 34.2918 74.6673 33.5981C73.9373 31.8954 72.3378 30.7737 70.4905 30.6656C70.3914 30.6611 70.2968 30.6611 70.2021 30.6611Z" fill="#390075"/>
<g opacity="0.3">
<path opacity="0.3" d="M72.2828 39.8014C73.0082 39.387 73.6119 38.7158 73.9904 37.851L71.5078 31.0401C71.4402 31.0086 71.3636 30.9816 71.2915 30.9545C70.5165 30.6752 69.7416 30.6662 69.0342 30.8779L72.2828 39.8014Z" fill="white"/>
</g>
<g opacity="0.3">
<path opacity="0.3" d="M69.3859 40.346C69.9221 40.4856 70.4448 40.4901 70.9314 40.3775L67.4935 31.6162C67.0565 31.873 66.6825 32.2423 66.3896 32.7108L69.3859 40.346Z" fill="white"/>
</g>
<g opacity="0.35">
<path opacity="0.35" d="M71.1338 32.012C68.4033 31.8544 66.0604 33.94 65.8982 36.6742C65.8666 37.2012 65.9207 37.7148 66.0468 38.1967C65.4926 37.3409 65.1953 36.3093 65.2583 35.2147C65.416 32.485 67.759 30.3949 70.4939 30.5526C72.4359 30.6652 74.0489 31.8769 74.7653 33.5526C74.8645 33.7823 74.9456 34.021 75.0086 34.2643C74.1796 32.9895 72.7738 32.1066 71.1338 32.012Z" fill="#390075"/>
</g>
<path d="M70.2107 40.9305C70.1071 40.9305 69.9989 40.926 69.8953 40.9215C68.4625 40.8404 67.1423 40.2053 66.1781 39.1422C65.1959 38.0521 64.7003 36.6467 64.7859 35.1872C64.8715 33.7413 65.5113 32.4124 66.5971 31.444C67.6785 30.48 69.0753 29.998 70.5216 30.0791C72.5942 30.2007 74.3874 31.4575 75.203 33.3674C75.5364 34.1422 75.6806 34.9665 75.631 35.8179C75.4643 38.6963 73.0673 40.9305 70.2107 40.9305ZM70.2017 31.0205C69.1023 31.0205 68.057 31.4169 67.2279 32.1557C66.3358 32.953 65.8041 34.0476 65.7366 35.2413C65.669 36.4485 66.0745 37.6062 66.8855 38.5026C67.6785 39.381 68.7689 39.9035 69.9494 39.971C72.4095 40.1107 74.5361 38.2233 74.6803 35.7593C74.7209 35.0566 74.6037 34.3809 74.3289 33.7413C73.653 32.1692 72.1752 31.1287 70.4675 31.0296C70.3774 31.025 70.2918 31.0205 70.2017 31.0205Z" fill="#390075"/>
<g opacity="0.3">
<g opacity="0.3">
<path opacity="0.3" d="M74.0587 34.7063C74.2435 35.3685 74.1849 36.0937 73.9506 36.7604C73.7163 37.427 73.3018 38.0442 72.7656 38.5216C72.2294 38.9991 71.5716 39.3415 70.8822 39.4991C70.1929 39.6523 69.4629 39.6298 68.8276 39.3685C69.4855 39.1793 70.0712 38.9766 70.6029 38.7018C71.139 38.4315 71.6167 38.1027 72.0537 37.7198C72.4862 37.3324 72.8692 36.8955 73.1981 36.3955C73.5271 35.8955 73.7974 35.3369 74.0587 34.7063Z" fill="#390075"/>
</g>
</g>
<path d="M44.8849 69.5928L38.0543 63.6197C37.2298 62.899 37.3424 61.5026 38.2931 60.6873L39.6673 59.5161L48.7417 67.4486L47.764 68.9666C47.0791 70.0162 45.7094 70.3135 44.8849 69.5928Z" fill="#EC1C24"/>
<g opacity="0.5">
<g opacity="0.5">
<path opacity="0.5" d="M38.4679 60.9444L39.8421 59.7732L48.9166 67.7057L48.876 67.7642L40.5045 60.4444L39.1302 61.6155C38.3192 62.3092 38.121 63.4264 38.5941 64.1876L38.2291 63.8678C37.4046 63.1516 37.5172 61.7552 38.4679 60.9444Z" fill="white"/>
</g>
</g>
<g opacity="0.35">
<path opacity="0.35" d="M48.7362 67.4486L47.7584 68.9666C47.0781 70.0161 45.7129 70.318 44.8838 69.5927L42.4102 67.4306C43.1446 67.5342 43.9647 67.1648 44.4423 66.426L45.4245 64.908L39.459 59.6918L39.6662 59.5161L48.7362 67.4486Z" fill="#390075"/>
</g>
<path d="M46.0468 70.8283C45.5467 70.8283 45.0781 70.6571 44.7041 70.3328L37.3418 63.9003C36.8913 63.5084 36.6479 62.9453 36.6479 62.3192C36.6525 61.6075 36.9769 60.9228 37.5446 60.4363L39.6668 58.6255L49.6198 67.3282L48.1059 69.6706C47.7004 70.2967 47.0651 70.7111 46.3577 70.8102C46.254 70.8238 46.1504 70.8283 46.0468 70.8283ZM39.6577 60.4093L38.4232 61.4633C38.1619 61.6886 38.0042 62.0084 37.9997 62.3237C37.9997 62.4543 38.0267 62.7021 38.2294 62.8778L45.5917 69.3147C45.7945 69.4904 46.0423 69.4859 46.1729 69.4679C46.4838 69.4228 46.7857 69.2246 46.9705 68.9364L47.8491 67.576L39.6577 60.4093Z" fill="#390075"/>
<path d="M65.2637 58.9638L61.7988 54.653C58.7169 50.8196 55.0718 47.5043 50.9626 44.8016L46.9346 42.1529L47.4302 41.4006L51.4583 44.0493C55.6485 46.8016 59.3612 50.18 62.5017 54.0899L65.9665 58.4007L65.2637 58.9638Z" fill="#390075"/>
<g opacity="0.35">
<path opacity="0.35" d="M75.7026 40.5123C73.6209 42.7916 70.4444 43.4808 67.705 42.5033C67.1057 42.2015 66.5335 41.8186 66.0154 41.3411C65.9793 41.3096 65.9433 41.2735 65.9072 41.2375C68.6377 42.1925 71.7916 41.5033 73.8642 39.233C76.5992 36.2375 76.4235 31.6113 73.4948 28.832C73.5083 28.8365 73.5263 28.841 73.5398 28.85C74.1391 29.1473 74.7068 29.5347 75.225 30.0077C78.2573 32.778 78.469 37.4807 75.7026 40.5123Z" fill="#390075"/>
</g>
<g opacity="0.3">
<path opacity="0.3" d="M29.4429 51.3321C29.4429 51.3321 32.5563 49.7104 35.9401 49.7645C38.4047 49.805 40.7296 48.6429 42.257 46.7104C43.2888 45.4041 44.7171 43.796 46.6816 41.9131L47.38 42.0392C47.38 42.0392 41.7524 49.9447 41.455 53.5843C41.4505 53.5888 35.8544 50.0573 29.4429 51.3321Z" fill="#390075"/>
</g>
<path d="M86.665 31.3097C79.6542 20.5799 72.5848 18.679 72.5127 18.661L72.7335 17.7871C73.0354 17.8637 80.1949 19.7601 87.4175 30.8142L86.665 31.3097Z" fill="#390075"/>
</g>
<defs>
<linearGradient id="paint0_linear" x1="48.0806" y1="56.7992" x2="11.4905" y2="120" gradientUnits="userSpaceOnUse">
<stop stop-color="#FFCA29"/>
<stop offset="1" stop-color="#FF8B38"/>
</linearGradient>
<linearGradient id="paint1_linear" x1="48.0806" y1="57.0671" x2="11.4905" y2="120.268" gradientUnits="userSpaceOnUse">
<stop stop-color="#FFCA29"/>
<stop offset="1" stop-color="#FF8B38"/>
</linearGradient>
</defs>
</svg>
