<svg width="116" height="116" viewBox="0 0 116 116" fill="none" xmlns="http://www.w3.org/2000/svg">
<mask id="mask0" mask-type="alpha" maskUnits="userSpaceOnUse" x="0" y="0" width="116" height="116">
<circle cx="58" cy="58" r="58" fill="white"/>
</mask>
<g mask="url(#mask0)">
<path d="M104.769 120.08C104.769 120.99 104.769 121.899 104.333 122.736C104.333 122.772 104.297 122.809 104.297 122.809C103.97 123.609 103.425 124.373 103.461 125.209C103.243 124.082 102.88 122.954 102.335 121.899V121.863C101.79 121.099 101.027 120.662 100.192 120.262C97.7937 119.389 96.8854 117.243 97.9027 114.552C99.7556 109.605 99.7556 104.585 98.5203 99.5657C96.5221 91.5271 94.3786 83.5248 92.344 75.5226C92.1624 74.7588 91.9444 73.9949 91.4357 73.3766C90.8544 72.7218 90.1641 72.249 89.2922 72.0307C87.9116 71.8489 88.0569 70.794 88.0569 69.8119C88.0569 62.8282 88.0569 55.8444 88.0569 48.8606C88.0569 47.8422 88.1659 46.7873 87.4756 45.9144C87.4393 41.986 87.403 38.0576 87.403 34.1293C87.3666 29.2915 85.1141 27 80.282 27C65.4225 27 50.5267 27 35.6672 27C31.1258 27 28.8006 29.3643 28.7643 33.9474C28.7279 37.9485 28.6916 41.9496 28.6916 45.9144C28.0376 46.751 28.1103 47.7331 28.1103 48.7151C28.1103 55.7717 28.1103 62.8645 28.1103 69.9574C28.1103 70.7576 28.3283 71.8125 27.1657 72.0307C24.8041 72.5036 24.0775 74.2495 23.5689 76.2865C21.607 84.3978 19.3545 92.4364 17.3926 100.548C17.0656 101.894 16.4479 102.512 15.031 102.439C11.3979 102.257 7.8011 102.839 4.16797 102.876C2.16975 102.912 0.0625353 102.73 -1.82669 103.712C-2.299 103.821 -2.77131 103.931 -3.24361 103.967C-8.29366 104.476 -8.98396 104.949 -10.0739 110.005C-11.4545 116.552 -11.6725 123.172 -11.7088 129.829C-11.7088 130.593 -11.6361 131.284 -12.2174 132.047C-14.0703 134.521 -12.4354 138.304 -9.3836 138.704C-8.29366 138.849 -7.24006 138.995 -6.15012 139.104C-5.67781 139.14 -5.09651 139.104 -5.02385 139.722C-4.76953 141.505 -3.67959 142.887 -2.58965 144.56C-3.86125 144.56 -4.87852 144.524 -5.85947 144.56C-6.4771 144.596 -7.27639 144.487 -7.31272 145.506C-7.16739 146.342 -6.62242 146.706 -5.82313 146.815C-5.02385 146.888 -4.26089 146.888 -3.4616 146.888H119.52C120.319 146.888 121.082 146.888 121.881 146.815C122.681 146.742 123.226 146.379 123.371 145.506C122.826 144.087 121.554 144.669 120.573 144.56C119.738 144.487 118.612 144.96 118.975 143.214C119.157 142.341 118.212 141.796 117.485 141.359C116.395 140.704 115.16 140.377 113.888 140.341C113.017 140.304 112.617 140.122 112.835 139.068C113.198 137.504 112.617 136.194 111.164 135.43C110.691 135.176 110.401 134.885 110.401 134.303C110.401 132.011 110.074 129.72 110.364 127.428C111.273 125.682 111.164 124.009 110.074 122.336C109.747 121.826 109.783 121.172 109.783 120.553L104.769 120.08ZM72.2528 120.008C72.1802 120.153 72.1075 120.262 72.0348 120.408C68.9467 119.717 65.8222 119.026 62.734 118.298C59.5005 117.534 57.5386 114.734 54.7775 113.206C54.0872 112.842 53.3605 112.551 52.7429 112.115C52.2706 111.751 51.108 111.751 51.544 110.696C51.9436 109.787 52.3069 108.805 53.6512 108.877C56.594 108.95 59.5369 108.914 62.4797 108.877C63.3153 108.877 63.8603 109.132 64.1146 109.969C66.2581 113.751 68.8377 117.207 72.2528 120.008ZM103.57 125.718C103.57 125.755 103.607 125.791 103.607 125.828C104.188 127.246 103.934 128.665 104.006 130.083C103.934 128.628 103.825 127.173 103.57 125.718Z" fill="#6D4C41"/>
<path d="M37.5002 106.5C33.9002 106.1 31.3336 104.333 30.5002 103.5C29.3336 103.5 25.9002 103.4 21.5002 103C16.0002 102.5 19.5002 110 20.0002 111.5C20.5002 113 40.5002 120 46.0002 116C50.4002 112.8 50.1669 111 49.5002 110.5L48.0002 109H46.0002C44.6669 108.333 41.1002 106.9 37.5002 106.5Z" fill="#FECA80"/>
<path d="M33.9961 28.7453C34.5411 28.3451 35.1587 28.4906 35.74 28.4906C50.5632 28.4906 65.4227 28.4906 80.2458 28.527C84.0969 28.527 85.6592 30.1275 85.6592 33.9467C85.6592 47.114 85.6592 60.2449 85.6592 73.4122C85.6592 74.4671 85.4775 75.4128 85.0416 76.3585C83.661 79.2684 83.3703 82.3602 84.3876 85.3792C85.9498 89.8532 85.5865 94.4727 85.6592 99.0557C85.6592 99.6377 85.4412 100.111 85.2232 100.62C84.7509 101.602 84.2786 102.584 83.879 103.602C82.5347 107.349 82.5347 107.349 78.6109 107.349C67.7842 107.349 56.9211 107.349 46.0944 107.349C45.2588 107.349 44.3868 107.349 43.6239 106.949C41.6257 106.258 40.0997 104.839 38.5012 103.602C37.7019 102.984 37.9925 102.475 38.8645 102.257C39.7001 102.038 40.5357 102.111 41.4077 102.111C53.1427 102.111 64.8777 102.111 76.6127 102.111C77.521 102.111 78.4293 102.148 79.3375 102.002C80.8635 101.747 81.6627 100.838 81.8081 99.3104C81.8444 98.8739 81.8081 98.4738 81.8081 98.0373C81.8081 78.0317 81.8081 58.0625 81.8081 38.0569C81.8081 34.7833 81.1541 34.1286 77.8843 34.1286C64.7687 34.1286 51.6168 34.1286 38.5012 34.1286C37.5929 34.1286 36.6846 34.3104 35.8853 33.6557C35.849 32.7464 36.6119 32.8191 37.1206 32.71C37.8472 32.5645 38.5738 32.6372 39.3005 32.6372C50.8901 32.6372 62.5162 32.6372 74.1058 32.6372C74.7235 32.6372 75.3048 32.6372 75.9224 32.6372C78.0296 32.5645 78.3566 32.0553 77.7753 29.9092C77.085 29.1817 76.2131 29.4 75.3774 29.4C62.4798 29.4 49.5822 29.4 36.6483 29.3636C35.7763 29.2909 34.7591 29.5819 33.9961 28.7453Z" fill="#CECCCE"/>
<path d="M93.6529 116.77C93.5076 117.316 92.4176 116.988 92.5993 117.861C92.8173 118.589 92.345 119.025 91.8727 119.389C88.6392 121.899 85.0061 123.499 80.937 123.972C80.6826 124.009 80.4646 123.863 80.3193 123.681C79.411 122.226 77.7761 122.19 76.3955 121.644C75.5963 121.317 74.6516 121.353 73.6344 120.626C74.7243 120.48 75.5236 120.444 76.2865 120.226C76.9768 120.044 76.6499 119.826 76.2139 119.68C74.6153 119.025 73.3437 117.934 72.2901 116.552C70.5099 114.297 71.3092 111.641 74.034 110.805C76.4682 110.077 79.0477 110.077 81.5183 109.495C82.6445 109.241 82.9715 110.041 83.0805 110.95C83.5891 112.514 83.4075 114.333 84.6427 115.643C84.9334 113.497 84.4611 111.314 84.8971 109.168C85.0424 108.404 85.1151 107.64 85.551 106.949C86.2413 105.858 86.6046 104.658 86.6046 103.348C86.6046 102.621 86.7863 101.893 87.1859 101.275C89.0025 98.4014 88.9298 95.3096 88.2759 92.1815C87.6582 89.2716 87.1496 86.3617 86.4593 83.4882C85.8053 80.651 86.6046 77.9957 87.5856 75.3768C87.9489 74.6857 88.3122 74.031 89.2931 74.3583C90.3104 77.1955 90.7827 80.1781 91.2914 83.1608C92.236 88.9078 93.1079 94.6549 94.1615 100.366C94.8518 104.112 95.2151 107.895 95.2515 111.714C95.2878 113.569 94.7792 115.279 93.6529 116.77Z" fill="#FECB80"/>
<path d="M78.7565 29.1461C78.7565 33.7656 79.2288 33.1108 74.8328 33.1472C62.5528 33.1836 50.2728 33.1472 37.9565 33.1836C37.2662 33.1836 36.5033 32.929 35.8493 33.511C34.0327 35.4751 34.2144 37.8758 34.2144 40.3128C34.2507 57.4085 34.2144 74.4678 34.2144 91.5635C34.2144 94.728 34.1781 97.8561 34.2507 101.021C33.7421 102.439 32.7248 102.512 31.5259 101.966C30.5813 100.621 30.2906 99.1656 30.2906 97.5288C30.2543 93.3458 30.3633 89.2356 31.7439 85.1981C32.7248 82.2882 32.2525 79.3419 31.1626 76.5048C31.4169 75.3044 31.3806 74.0677 31.2716 72.9037C30.8356 67.7023 31.4169 62.5372 31.1262 57.2994C30.8356 52.0252 31.3079 46.6783 31.2716 41.3677C31.2716 39.7309 31.2716 38.0941 31.0536 36.4572C30.8719 35.1114 30.9446 33.7656 31.3806 32.4925C32.0345 30.5647 33.1245 29.1825 35.377 29.1097C35.8493 29.0734 36.3216 29.037 36.8302 29.037C50.3092 29.037 63.8244 29.037 77.3033 29.037C77.8119 29.0006 78.3206 28.8915 78.7565 29.1461Z" fill="#E8ECF2"/>
<path d="M33.995 101.275C33.4501 100.475 33.6681 99.5294 33.6681 98.6564C33.6681 78.178 33.6681 57.6995 33.6317 37.1847C33.6317 35.4024 34.1404 34.1293 35.8843 33.4746C50.0898 33.4746 64.3317 33.511 78.5372 33.4746C81.5164 33.4746 82.461 34.3476 82.461 37.3302C82.461 57.7359 82.461 78.1416 82.461 98.5473C82.461 101.603 81.5164 102.548 78.4282 102.548C66.0392 102.548 53.6139 102.548 41.225 102.548C40.3167 102.548 39.4084 102.548 38.0641 102.548C40.135 104.149 41.9153 105.531 43.6592 106.913C42.6056 107.604 42.0606 106.622 41.334 106.259C39.7354 104.985 38.1368 103.712 36.2112 102.985C35.303 102.621 34.3947 102.33 33.995 101.275Z" fill="#6D4E43"/>
<path d="M27.9292 74.6484C30.5451 77.4856 30.9447 80.8683 30.2544 84.433C29.7458 86.9791 29.0918 89.4889 28.4742 91.9987C27.6386 95.4179 27.7112 98.6915 29.6731 101.783C30.0001 102.293 30.1454 102.874 30.4724 103.602C26.9846 103.384 23.6421 103.165 20.2996 102.984C19.7183 102.329 19.9727 101.601 20.1543 100.91C21.3533 96.4727 22.0435 91.8532 23.7874 87.6702C25.3497 84.0329 24.8411 80.0318 26.5486 76.5399C26.8756 75.8124 26.8756 74.8667 27.9292 74.6484Z" fill="#FECA80"/>
<path d="M78.7546 29.1455C65.094 29.1455 51.3971 29.2182 37.7366 29.1091C32.1052 29.0727 31.3423 32.6374 31.6693 36.6748C32.0326 41.1488 32.0689 45.5864 31.6329 50.0604C31.5239 51.2243 31.8872 52.3519 31.8146 53.4431C31.4513 58.4991 32.3232 63.5187 31.6329 68.5746C31.3786 70.5024 31.9962 72.503 31.8872 74.5036C31.8509 75.231 32.0326 75.9949 31.1969 76.395C30.5793 75.6675 30.3613 74.8309 30.3613 73.8852C30.3977 60.3178 30.3613 46.7504 30.3977 33.183C30.3977 30.6732 31.5239 29.3273 33.9945 28.709C36.7556 28.7454 39.5531 28.7817 42.3143 28.8181C53.7587 28.8181 65.2394 28.8181 76.6837 28.8545C77.374 28.8545 78.137 28.5635 78.7546 29.1455Z" fill="#FAFBFB"/>
<path d="M93.65 116.769C95.6482 111.895 94.7036 106.876 93.9043 102.001C92.7417 94.9813 91.5791 87.9248 90.3802 80.9047C90.0169 78.7223 89.6536 76.5398 89.2539 74.3574C89.7989 74.5393 89.9079 74.9758 90.0532 75.4486C92.2694 84.2147 94.6673 92.908 96.7382 101.71C97.7918 106.257 97.5738 110.84 95.1759 115.06C94.7763 115.751 94.413 116.442 93.65 116.769Z" fill="#E1B173"/>
<path d="M83.0797 111.021C82.7164 110.403 82.4257 109.675 81.4811 109.966C79.3012 110.694 76.976 110.657 74.7235 111.13C73.5246 111.385 72.3256 111.821 71.9623 113.167C71.599 114.549 71.9623 115.786 73.0523 116.768C74.1422 117.714 75.1595 118.732 76.2131 119.714C74.5055 119.605 73.1976 118.732 71.9623 117.568C69.6735 115.386 67.7479 112.912 66.1493 110.184C65.7134 109.457 65.459 108.875 66.767 108.875C71.708 108.911 76.6854 108.911 81.6264 108.875C83.2614 108.875 83.0797 109.966 83.0797 111.021Z" fill="#E0B072"/>
<path d="M87.5828 75.377C87.8371 77.1593 86.7471 78.687 86.7471 80.4329C86.7471 83.8884 87.6918 87.1984 88.4184 90.5448C89.254 94.4732 89.6173 98.2197 87.4011 101.821C87.1105 102.33 87.1468 102.876 87.1468 103.421C87.1468 104.076 87.2558 104.767 86.8925 105.385C85.0396 108.404 85.0759 111.751 84.9306 115.097C84.9306 115.315 84.7489 115.534 84.6763 115.752C83.877 110.296 84.4946 105.094 87.2921 100.22C88.7454 97.6741 88.3094 94.946 87.7281 92.2908C87.1831 89.7446 86.4928 87.2712 85.9479 84.725C85.1849 81.3423 85.4392 78.1777 87.5828 75.377Z" fill="#FBE2BC"/>
<path d="M10.4155 122.372C9.90682 122.263 9.43451 122.118 8.92587 122.009C9.50717 121.645 10.7788 122.481 10.7424 120.372C10.3065 121.754 9.57984 121.572 8.92587 121.608C3.69417 121.827 -1.53754 121.172 -6.76924 121.281C-7.78652 121.318 -8.18617 120.881 -8.1135 119.899C-8.00451 118.662 -8.44048 117.389 -7.78652 116.189C-7.67753 119.062 -7.67753 119.062 -4.73469 119.171C-4.26238 119.171 -3.79008 119.099 -3.3541 119.426C-4.08073 120.154 -4.95268 119.717 -5.75197 119.826C-2.44582 119.863 0.860327 119.863 4.16647 119.826C4.42079 119.79 4.67511 119.681 4.92943 119.572C6.23736 119.572 7.50895 119.572 8.81688 119.535C9.36185 119.499 10.0158 119.826 10.4155 119.171C9.94315 118.553 9.18019 118.844 8.59889 118.589C8.16292 118.408 8.01759 118.189 8.41724 117.826C9.61617 117.535 10.0521 116.771 9.94315 115.57C9.87049 114.916 9.90682 114.261 9.90682 113.57C9.87049 112.733 9.87049 111.933 9.90682 111.096C9.97948 110.223 9.72516 109.314 10.4881 108.623C11.4327 108.769 11.2874 109.569 11.3237 110.187C11.3964 111.278 11.3964 112.37 11.3237 113.461C11.3601 114.952 11.1421 116.443 11.5054 117.935C11.5781 118.335 11.6871 118.699 11.5054 119.099C10.6334 120.263 11.4327 121.608 11.1058 122.809C10.9968 122.809 10.9241 122.809 10.8151 122.809C10.6698 122.554 10.5608 122.481 10.4155 122.372Z" fill="#6F737D"/>
<path d="M27.9242 74.65C26.6889 76.7597 26.035 79.0876 25.7807 81.4883C25.599 83.4889 25.381 85.2712 24.4001 87.1262C23.3828 89.0541 23.1285 91.382 22.6562 93.5644C21.9659 96.7289 20.5853 99.7479 20.2946 103.022C18.8414 103.313 19.2047 102.367 19.3863 101.603C20.6943 96.4016 22.0385 91.2001 23.3465 85.9987C24.2184 82.5431 25.1267 79.124 25.9986 75.6685C26.2893 74.5409 26.6526 73.7407 27.9242 74.65Z" fill="#FBE2BD"/>
<path d="M33.9967 101.275C36.0676 102.658 38.5744 103.24 40.391 105.058C40.7543 105.422 41.4809 105.495 41.3356 106.259C39.1557 105.058 36.7579 104.549 34.3237 104.258C32.6888 104.076 31.8168 103.458 31.5625 101.894C32.4345 101.857 33.2337 101.603 33.9967 101.275Z" fill="#CCC9CB"/>
<path d="M47.0371 108.844C48.236 108.844 48.89 108.844 49.544 108.844C49.8346 108.844 50.2343 108.771 50.2706 109.135C50.3069 109.389 50.1979 109.717 50.0526 109.935C49.8346 110.335 49.4713 110.299 49.1443 110.117C48.5994 109.79 48.0544 109.462 47.0371 108.844Z" fill="#CB9D6A"/>
<path d="M-3.75394 107.713C-3.60861 107.822 -3.49962 107.931 -3.35429 108.077C-3.39062 108.731 -3.7176 109.313 -3.64494 109.968C-3.7176 111.132 -3.09997 111.969 -2.30068 112.696C-0.0844755 115.424 2.7857 116.843 6.23717 117.316C6.92746 117.388 7.72675 117.316 8.23539 117.97C8.78036 118.48 9.43432 118.225 10.052 118.298C10.5606 118.37 10.8876 118.516 10.4153 119.025C8.34438 118.771 6.23717 118.589 4.20262 118.225C0.387831 117.534 -2.0827 114.842 -4.4079 112.041C-5.49784 110.732 -5.02553 108.513 -3.75394 107.713Z" fill="#71544A"/>
<path d="M32.9023 110.732C33.193 114.261 34.2103 117.753 33.4473 121.354C33.2657 117.825 33.084 114.261 32.9023 110.732Z" fill="#A8A1A3"/>
<path d="M10.8137 107.387C10.3777 107.86 9.7964 107.714 9.28776 107.714C5.83628 107.714 2.38481 107.714 -1.06666 107.714C-1.61163 107.714 -2.1566 107.86 -2.62891 107.423C1.87617 107.423 6.34492 107.387 10.8137 107.387Z" fill="#71544A"/>
<path d="M59.8991 31.691C58.9545 31.691 57.9736 31.691 57.029 31.691C56.702 31.691 56.375 31.5819 56.375 31.2182C56.375 30.8908 56.6657 30.7089 56.9926 30.7089C59.0272 30.6725 61.0617 30.6725 63.0963 30.7089C63.4233 30.7089 63.6776 30.8908 63.6413 31.2545C63.6049 31.5819 63.2779 31.691 62.951 31.691C61.9337 31.691 60.9164 31.691 59.8991 31.691Z" fill="#836861"/>
<path d="M64.5857 101.132C60.3349 101.132 56.1205 101.132 51.8697 101.132C51.5791 100.804 51.6881 100.441 51.9061 100.15C53.8679 97.6398 55.8298 95.1664 58.046 92.8384C61.2795 92.4383 64.5493 92.6929 67.7828 92.6566C71.3796 92.5838 72.0336 91.9655 72.0699 88.2917C72.0699 86.6549 72.2516 85.0181 71.3433 83.5267C70.762 81.8899 69.2361 81.4898 67.8555 80.9078C67.6012 80.4714 67.8555 80.1076 68.0735 79.7439C69.3087 77.7797 70.762 75.961 72.4332 74.3242C73.2325 74.0332 74.1045 74.1423 74.9401 74.1059C76.8657 74.0332 77.6649 73.3421 77.8466 71.4143C77.9556 70.1412 77.8103 68.8681 77.9556 67.6314C77.9919 67.4495 78.0283 67.2313 78.1009 67.0494C78.5369 66.2492 79.0092 65.4854 79.6995 64.9398C80.0628 64.6488 80.4988 63.8485 81.1164 64.6851C81.1527 70.9051 81.1164 77.1613 81.1164 83.3813C81.1527 90.1468 77.7739 94.9481 72.3969 98.5491C70.0717 100.113 67.4195 100.986 64.5857 101.132Z" fill="#4CCFE0"/>
<path d="M42.4226 101.13C40.388 101.13 38.3171 101.13 36.2826 101.093C35.8103 100.475 35.7013 99.7838 35.7376 99.0563C35.7376 96.6556 35.7013 94.2186 35.7739 91.8179C35.8103 91.5269 35.8466 91.1996 35.9193 90.9086C38.9348 87.1985 41.9139 83.5247 44.8931 79.7782C46.0557 78.3233 47.1456 76.7592 48.3809 75.4134C48.8169 74.9405 49.2165 74.3585 49.9068 74.213C53.9032 74.0675 57.936 73.9584 61.9325 74.2494C62.6591 74.504 62.6227 75.0132 62.2958 75.5225C60.8788 77.5594 59.6073 79.7418 57.4637 81.1604C54.8115 81.5241 52.1593 81.2695 49.5435 81.3423C48.7079 81.3786 47.8359 81.3059 47.0366 81.5605C46.3463 81.7788 45.547 82.1061 45.4744 82.9063C45.1837 85.6708 44.4571 88.5079 46.2373 91.0904C46.637 91.927 47.3999 92.4727 47.9812 93.1274C47.7996 94.7278 46.4917 95.6372 45.6924 96.8375C44.6388 98.3288 43.4762 99.6747 42.4226 101.13Z" fill="#4CCFE0"/>
<path d="M64.5859 101.129C68.1101 100.111 71.5979 98.9832 74.3954 96.4735C78.2102 93.0543 80.7534 88.8713 80.8987 83.6699C81.0803 77.2681 80.8987 70.8663 80.8987 64.4645C80.2811 63.7734 80.3901 62.8641 80.3901 62.0639C80.3537 58.4993 80.3901 54.9346 80.3901 51.37C80.3174 47.0051 80.3537 42.6403 80.3901 38.2754C80.3901 37.5116 80.3537 36.675 80.9714 36.0566C81.48 36.6386 81.262 37.3297 81.262 37.9845C81.262 57.9173 81.262 77.8137 81.2257 97.7465C81.2257 100.875 80.8987 101.202 77.8469 101.202C73.4144 101.166 69.0184 101.129 64.5859 101.129Z" fill="#53B5C0"/>
<path d="M35.1199 99.8219C34.7203 99.2036 34.8656 98.5125 34.8656 97.8941C34.8656 77.8886 34.8656 57.9194 34.8656 37.9138C34.8656 35.1857 35.3379 34.7129 37.9901 34.7129C44.3844 34.7493 50.815 34.7856 57.2094 34.822C56.8824 35.986 55.9378 36.3497 54.9205 36.6043C50.3427 36.8226 45.7287 36.6771 41.1509 36.7134C36.9728 36.7498 36.8275 36.8589 36.8275 41.151C36.7912 47.5528 36.9728 53.991 36.7185 60.3928C36.6822 60.611 36.6095 60.8656 36.5368 61.0475C35.8466 61.9568 35.7012 62.9753 35.7012 64.1029C35.7376 73.2327 35.7376 82.3262 35.7012 91.456C35.7376 93.602 35.7012 95.7481 35.7012 97.8941C35.7012 98.5125 35.7376 99.2763 35.1199 99.8219Z" fill="#54B4BF"/>
<path d="M42.4258 101.127C42.8618 98.7993 44.9326 97.5626 46.0226 95.6348C46.5312 94.7618 47.2578 93.998 47.8755 93.1978C48.2025 92.7976 48.6748 92.6885 49.1834 92.6522C51.5813 92.543 54.0155 92.543 56.4133 92.6522C56.8856 92.6885 57.3579 92.7976 57.7212 93.1978C57.2489 95.2347 55.3234 96.2168 54.2698 97.8536C53.5432 98.9812 52.3805 99.8178 51.8719 101.127C48.7111 101.127 45.5866 101.127 42.4258 101.127Z" fill="#63D4E4"/>
<path d="M80.933 36.0572C80.933 41.1496 80.8966 46.2783 80.8966 51.3706C80.6423 52.389 80.0973 53.1893 79.1891 53.7713C78.8257 53.9895 78.4261 54.2077 78.1355 53.6985C77.6995 52.4254 77.9538 51.0796 77.8811 49.7701C77.8448 48.788 77.8085 47.8423 77.0455 47.0785C75.9919 45.187 74.0663 45.4053 72.3588 45.0415C72.0318 44.7869 72.0681 44.5323 72.3588 44.3141C75.0836 41.9498 76.7912 38.7489 79.1527 36.0936C79.516 35.7299 79.843 35.2934 80.4607 35.4389C80.6423 35.6207 80.7876 35.839 80.933 36.0572Z" fill="#4CCFE0"/>
<path d="M80.4621 35.404C80.1351 35.6222 79.8081 35.8769 79.5174 36.0951C78.6455 36.6771 77.7009 36.6771 76.7199 36.6771C71.6335 36.6407 66.5472 36.7498 61.4608 36.6043C60.6615 36.568 59.8985 36.5316 59.1356 36.7498C57.864 36.8953 56.6287 37.2227 55.3571 37.0044C54.7758 36.568 55.2118 36.3133 55.5388 36.0587C56.1201 35.6222 56.7014 35.1857 57.2827 34.7856C64.5853 34.7493 71.8879 34.7129 79.1905 34.7129C79.6628 34.7129 80.2441 34.7493 80.4621 35.404Z" fill="#87BDC4"/>
<path d="M35.1211 99.823C35.1574 97.0222 35.1574 94.185 35.1938 91.3843C35.5571 91.0933 35.8841 91.0933 36.2474 91.3843C36.2474 94.6215 36.2837 97.8588 36.2837 101.132C35.5934 100.951 35.1938 100.514 35.1211 99.823Z" fill="#55B5C1"/>
<path d="M10.4535 108.149C16.0849 107.822 21.7526 108.04 27.3839 108.04C28.5465 108.04 29.2005 108.804 29.4185 109.931C29.7091 111.459 29.7454 113.023 29.7454 114.587C29.6728 114.66 29.6001 114.733 29.4911 114.806C26.9843 115.315 24.4411 114.806 21.9705 114.66C18.5554 114.478 15.1039 114.515 11.7251 113.933C11.3618 113.896 11.1075 113.714 10.8532 113.46C10.5625 111.787 11.0348 110.077 10.5262 108.44C10.4899 108.404 10.4172 108.331 10.3809 108.295C10.3809 108.295 10.4172 108.222 10.4535 108.149Z" fill="#D3DBE6"/>
<path d="M8.27321 117.97C3.94979 117.788 0.0986712 116.552 -2.58984 112.842C-1.79056 112.114 -0.773279 112.26 0.171334 112.332C2.67819 112.478 5.18505 112.66 7.69191 112.769C8.63652 112.805 9.61747 112.914 10.4168 113.569C10.4168 114.296 10.3441 115.024 10.4894 115.715C10.8164 117.534 10.0534 118.225 8.27321 117.97Z" fill="#C5CCD6"/>
<path d="M10.4173 113.533C6.09383 113.242 1.77041 112.806 -2.58935 112.806C-3.60662 112.115 -4.40591 111.314 -4.15159 109.896C-3.42497 109.314 -2.58935 109.277 -1.75373 109.387C1.66141 109.859 5.11289 109.605 8.56436 110.078C9.29099 110.187 10.0176 110.26 10.4173 110.987C10.4536 111.86 10.4536 112.697 10.4173 113.533Z" fill="#D5DDE8"/>
<path d="M10.8521 113.533C11.07 113.533 11.3244 113.533 11.5423 113.533C11.8693 113.715 12.0873 113.97 12.16 114.37C12.269 114.988 11.397 115.788 12.269 116.152C13.1773 116.516 14.0855 117.134 15.1755 117.061C18.7723 116.807 22.4054 116.625 26.0385 116.88C27.7461 116.989 29.0904 116.37 29.6717 114.624H29.7443C30.5799 118.371 29.6353 119.389 25.8932 119.098C20.9885 118.698 16.0474 118.516 11.1427 118.262C10.5977 116.734 10.8884 115.134 10.8521 113.533Z" fill="#C5CCD6"/>
<path d="M10.4529 111.024C8.78162 110.261 6.8924 110.515 5.18482 110.406C2.09666 110.261 -0.991495 109.86 -4.11599 109.933C-4.33397 109.097 -4.15232 108.478 -3.35303 108.078V108.224C0.607082 108.405 4.53086 108.26 8.49097 108.296C9.14493 108.296 9.7989 108.151 10.4529 108.442L10.5255 108.515C10.4892 109.351 10.4892 110.188 10.4529 111.024Z" fill="#D3DBE6"/>
<path d="M10.416 108.441C6.27428 108.441 2.16884 108.478 -1.97293 108.478C-2.44523 108.478 -2.95387 108.55 -3.35352 108.223C1.26056 107.896 5.8383 107.968 10.4524 108.187C10.4524 108.259 10.4524 108.332 10.416 108.441Z" fill="#D5DDE8"/>
<path d="M46.0567 91.7448C44.8215 90.7263 44.4218 89.4532 44.5308 87.8892C44.6398 86.6888 44.5308 85.4521 44.5671 84.2518C44.6035 81.9239 45.5481 80.9418 47.8733 80.9054C51.1431 80.8327 54.4129 80.8327 57.6827 80.8327C61.0615 79.9597 64.4767 79.887 67.8555 80.8327C69.4904 80.869 70.871 81.3055 71.5249 83.0151C72.1789 85.0157 72.1062 87.089 71.9972 89.1259C71.9246 90.8355 70.7257 91.9994 69.0181 92.254C68.0735 92.3995 67.0925 92.3268 66.1116 92.3268C60.4076 92.3268 54.7399 92.3268 49.0359 92.3268C48.0186 92.3268 46.965 92.3268 46.0567 91.7448Z" fill="#6D4C42"/>
<path d="M67.8544 80.7962C64.4756 80.7962 61.0605 80.7962 57.6816 80.7962C59.2439 78.7593 60.8425 76.686 62.4047 74.6491C62.7317 74.2489 63.204 74.1398 63.7126 74.1035C66.1105 74.0671 68.5447 74.0671 70.9426 74.1035C71.4149 74.1035 71.8872 74.2489 72.2505 74.6491C71.1606 76.977 69.0533 78.5411 67.8544 80.7962Z" fill="#77D9E7"/>
<path d="M72.25 74.6486C68.9802 74.6486 65.7104 74.6486 62.4406 74.6486C58.0808 74.6486 53.721 74.6486 49.3613 74.6486C46.9271 75.5943 44.4202 75.2669 41.9134 74.9396C41.2594 74.8305 40.5328 74.4667 40.6418 73.4846C41.2594 72.9754 41.986 73.0118 42.7127 73.0118C52.7401 73.0118 62.7312 73.0118 72.7586 72.9754C76.1011 72.9754 76.5008 72.648 76.7914 69.3744C76.8277 69.0834 76.8641 68.7924 76.9367 68.465C77.1911 67.8103 77.5544 67.2283 78.39 67.3375C78.39 68.5378 78.4263 69.7381 78.39 70.9385C78.3537 73.7029 77.4454 74.6122 74.7569 74.6122C73.9212 74.6122 73.0856 74.6486 72.25 74.6486Z" fill="#5DB4C0"/>
<path d="M46.0586 91.7453C53.5428 91.7453 61.0271 91.7817 68.475 91.7817C70.4732 91.7817 71.4542 90.7996 71.4905 88.7991C71.5268 86.8712 71.4905 84.9434 71.5268 83.0156C73.2707 85.8892 72.7984 88.9446 71.9991 91.9272C71.7085 93.0548 70.4006 93.2367 69.238 93.2367C65.3868 93.2003 61.4994 93.2367 57.6483 93.2367C54.3785 93.2367 51.1086 93.2367 47.8388 93.2367C46.9669 93.0912 46.5309 92.4001 46.0586 91.7453Z" fill="#59B3BE"/>
<path d="M78.4292 53.9173C79.4101 53.2262 80.1368 52.2804 80.8997 51.3711C80.8997 55.7359 80.8997 60.1008 80.8997 64.4657C79.8098 65.0476 79.3738 66.2843 78.4292 67.0118C77.9206 66.5753 77.8842 65.957 77.8842 65.3386C77.9206 61.8467 77.7752 58.3549 77.9569 54.863C77.9932 54.4992 78.1385 54.1719 78.4292 53.9173Z" fill="#87DEE9"/>
<path d="M78.391 54.6047C78.391 58.7149 78.391 62.8615 78.4273 66.9717C78.4273 67.0809 78.4273 67.2264 78.391 67.3355C78.064 67.5537 77.7007 67.8083 77.3737 68.0266C76.9014 67.6628 76.7924 67.1172 76.7924 66.5716C76.7924 63.0798 76.6107 59.5879 76.9014 56.096C77.1557 55.4049 77.3374 54.5683 78.391 54.6047Z" fill="#7BC4CE"/>
<path d="M40.6057 73.5591C41.405 74.4321 42.3859 74.6867 43.5122 74.6503C45.4377 74.5776 47.3633 74.6503 49.3252 74.6503C47.0363 77.5966 44.8564 80.5792 42.4949 83.4528C40.4603 85.8898 38.8618 88.727 36.2822 90.6548C35.6283 90.0364 35.7373 89.2362 35.7373 88.436C35.7373 80.1064 35.7373 71.7768 35.7373 63.4472C35.7373 62.5015 35.9553 61.6649 36.2822 60.8283C36.2822 60.7192 36.3186 60.5737 36.3186 60.4645C36.7182 59.7007 36.9725 58.7914 37.7355 58.2821C38.2078 57.9548 38.7164 57.4455 39.1524 58.3185C39.5884 61.1557 39.3341 63.9928 39.3341 66.7936C39.3341 69.1579 39.2251 71.4858 40.6057 73.5591Z" fill="#72D9E7"/>
<path d="M36.2474 60.791C36.2474 70.7211 36.2837 80.6875 36.2837 90.6175C36.2837 90.8721 36.2837 91.1267 36.2474 91.345C35.8841 91.345 35.5571 91.345 35.1938 91.345C35.1938 81.9242 35.1938 72.5034 35.1211 63.1189C35.1211 62.1005 35.5207 61.4094 36.2474 60.791Z" fill="#71BDC6"/>
<path d="M38.7537 57.8809C37.6638 58.4629 37.2278 59.6996 36.2832 60.4271C36.2832 53.3342 36.2832 46.2413 36.2832 39.1484C36.2832 36.675 36.9372 36.0566 39.3714 36.0566C44.7484 36.0566 50.1254 36.0566 55.5388 36.0566C55.4298 36.2749 55.2845 36.5295 55.1755 36.7477C54.9212 37.3661 54.3398 37.5843 53.7949 37.8753C51.5787 39.1484 49.7984 40.858 48.8902 43.2586C48.3089 44.8227 47.3279 45.4047 45.7293 45.332C44.6394 45.2592 43.5495 45.2956 42.4595 45.332C40.207 45.4047 39.444 46.1322 39.3714 48.4237C39.2987 50.8608 39.3714 53.2614 39.335 55.6985C39.2987 56.4623 39.444 57.2989 38.7537 57.8809Z" fill="#4CCEE0"/>
<path d="M38.7578 57.8824C38.7941 54.6815 38.7941 51.4806 38.8305 48.2433C38.8668 45.6971 39.7751 44.7514 42.3183 44.7151C42.4999 44.7151 42.6816 44.7151 42.8632 44.7151C45.7334 44.9697 48.204 44.9333 49.3666 41.2959C50.1658 38.8589 52.6727 37.5494 55.1432 36.7128C56.3785 36.6037 57.5774 36.4582 58.8127 36.3491C62.7728 35.9126 65.3886 38.1678 67.2052 41.1868C68.3678 43.151 69.2761 44.7514 71.8193 44.3877C72.0009 44.3513 72.1463 44.4968 72.2916 44.6423C74.1808 44.7514 76.2154 44.4241 77.269 46.6065C78.1773 49.6255 78.0683 52.6445 77.3416 55.6636C77.3416 59.7738 77.3416 63.9204 77.3416 68.0306C77.4143 74.4324 75.8157 73.5595 71.456 73.5595C61.1742 73.5231 50.8925 73.5231 40.6107 73.5231C39.1938 72.7229 38.7578 71.4861 38.7941 69.9221C38.8305 65.921 38.7578 61.9198 38.7578 57.8824Z" fill="#6D4C42"/>
<path d="M72.2875 44.6752C71.9968 44.7116 71.6699 44.7116 71.3792 44.748C69.3447 45.039 68.1821 44.4934 67.2738 42.2746C65.8205 38.6736 62.696 36.8185 58.8086 36.382C59.2446 35.9092 59.8259 36.091 60.3345 36.091C66.7288 36.091 73.1231 36.091 79.4811 36.091C77.4829 38.7463 75.521 41.4016 73.4864 43.9841C73.2684 44.3115 72.7235 44.457 72.2875 44.6752Z" fill="#8DDFEB"/>
<path d="M77.3754 55.6996C77.3391 52.6806 77.3027 49.6616 77.3027 46.6426C78.32 47.2609 78.3563 48.3158 78.3927 49.2979C78.4653 50.8619 78.429 52.3896 78.429 53.9537C78.429 54.1719 78.3927 54.4266 78.3927 54.6448C78.0294 54.9722 77.7024 55.3359 77.3754 55.6996Z" fill="#4EB8C8"/>
<path d="M29.6711 114.66C29.7074 116.333 28.0725 117.825 26.3286 117.534C23.4584 117.025 20.5883 117.316 17.7181 117.534C15.6835 117.679 13.6853 117.461 11.7598 116.806C10.8515 116.479 10.9968 115.679 11.4328 115.206C11.9778 114.624 11.8324 114.151 11.5418 113.605C16.9915 113.969 22.4412 114.333 27.8545 114.66C28.4722 114.66 29.0898 114.624 29.6711 114.66Z" fill="#C6CDD6"/>
<path d="M69.7096 82.9786C70.4726 85.1247 70.0729 87.3435 69.9639 89.5623C69.9276 90.2534 69.201 90.5808 68.4744 90.5808C61.5351 90.5808 54.5958 90.5808 47.6929 90.5444C47.4022 90.5444 47.1479 90.3261 46.8573 90.217C46.7119 90.0352 46.7483 89.8897 46.9299 89.7442C47.3296 89.4895 47.8019 89.4532 48.2742 89.4532C49.9817 89.5623 51.6893 88.9803 53.3969 89.1258C54.1598 89.1986 54.6321 88.5075 55.1771 88.0346C55.2861 87.9255 55.4314 87.8164 55.5404 87.6709C55.9764 87.3071 56.1944 86.5796 56.9937 86.8343C57.6476 87.5254 58.4469 87.9255 59.1372 87.0525C59.9728 85.9977 58.7739 85.4884 58.3379 84.761C58.4469 83.7061 59.2099 83.1605 60.0818 82.6877C60.4815 82.6149 60.9175 82.5785 61.3534 82.6149C61.9711 82.6513 62.843 82.3239 63.17 83.0514C63.4606 83.7061 62.8067 84.2517 62.407 84.761C61.2444 85.3429 60.7721 86.1795 61.5714 87.5254C61.3898 86.6524 61.8984 86.325 62.5887 86.1432C63.061 86.034 63.497 85.5975 64.0419 85.8885C64.0783 87.0525 65.0956 86.2887 65.5315 86.6524C65.8222 86.8706 65.8585 86.7979 65.8948 86.4705C66.0038 85.5612 65.3499 85.2702 64.7322 84.9064C64.4053 83.888 65.1319 83.3787 65.7132 82.7968C65.8948 82.6876 66.0765 82.6513 66.2582 82.6149C67.3481 82.6876 68.547 82.3967 69.7096 82.9786Z" fill="#E2562A"/>
<path d="M46.458 90.0003C45.4771 87.7451 45.9857 85.4172 46.1674 83.0893C46.2037 82.4709 47.003 82.2891 47.6206 82.2891C54.6326 82.2891 61.6445 82.3254 68.6564 82.3254C68.8744 82.3254 69.0561 82.5073 69.2741 82.6164C68.1115 83.162 66.8399 82.4709 65.6773 83.0165C65.0233 83.4166 64.3693 83.5985 63.6427 83.2712C62.0078 82.5073 60.4092 82.6528 58.8107 83.3439C56.9578 83.6713 55.1049 83.6349 53.2883 83.3439C51.5807 83.0529 49.8368 83.0529 48.1292 83.3439C47.6933 83.5258 47.33 83.8531 47.1483 84.326C46.8213 85.49 47.0393 86.6903 46.9666 87.8542C46.894 88.5454 47.003 89.3456 46.458 90.0003Z" fill="#F2B39C"/>
<path d="M46.4572 89.9985C46.6752 87.9252 46.0939 85.7791 46.7841 83.7422C47.6924 85.7791 47.6198 87.8524 46.8568 89.8894C46.8205 89.9985 46.8205 90.1076 46.8205 90.2167C46.7115 90.144 46.5662 90.0712 46.4572 89.9985Z" fill="#FA7348"/>
<path d="M65.6777 83.0148C66.804 82.2873 68.0756 82.7602 69.2745 82.6147C69.4199 82.7238 69.5652 82.8693 69.7105 82.9784C68.3663 82.9784 67.022 82.9784 65.6777 83.0148Z" fill="#FA7D55"/>
<path d="M62.0442 63.6662C55.1776 65.0484 48.3473 66.6125 41.4444 67.7401C40.2818 65.7759 40.7178 63.7753 41.3354 61.7748C42.5343 61.5201 43.7333 61.2655 44.9685 61.0109C45.5861 61.7748 45.8768 62.7932 46.8577 63.2297C48.1293 64.3573 48.7833 63.4116 49.4009 62.4659C50.0186 61.1928 49.9822 59.8469 49.9822 58.4647C49.9822 57.1189 49.4009 55.5548 50.8542 54.5C52.7071 56.7188 54.56 58.9376 56.5219 61.3019C55.9406 61.5929 55.4319 61.8111 54.9596 62.0294C57.1032 62.2476 59.0287 61.6656 60.9543 61.1564C61.0996 61.12 61.2813 60.9382 61.3176 60.829C61.9716 57.7736 62.1169 57.5918 64.9871 57.0098C66.1497 56.7552 67.3486 56.6097 68.5475 56.3914C69.4195 56.1368 69.6738 56.5006 69.4195 57.3008C69.2741 57.81 68.8745 58.2101 68.5475 58.6466C68.2569 59.0103 67.8936 59.2286 67.5302 59.4832C66.8036 60.3562 66.077 61.2291 65.314 62.0657C64.4058 63.0478 63.3885 63.6298 62.0442 63.6662Z" fill="#FCC829"/>
<path d="M68.2193 58.6076C68.183 58.0256 68.6553 57.6983 68.9822 57.2982C69.4909 56.6798 69.0549 56.498 68.5099 56.3888C70.5445 55.9523 72.6154 55.4795 74.6499 55.043C75.4492 54.8611 75.9579 55.1157 75.8489 56.0615C75.8489 56.1342 75.8489 56.1706 75.8489 56.2433C76.0668 60.4991 76.0668 60.4991 71.8524 61.4812C68.183 62.3541 68.183 62.3541 69.3819 65.9188C69.9632 67.6283 70.5808 69.3379 71.1621 71.0475C71.3074 71.4112 71.6344 71.8477 71.2348 72.2114C70.4355 73.0116 66.4027 72.1387 66.0394 71.0475C65.3128 69.0105 64.5498 66.9736 63.8595 64.9003C63.5326 63.9182 63.0239 63.4817 62.043 63.6272C64.4045 62.7906 65.8214 60.9356 67.1657 58.9714C67.4927 59.3351 67.8923 59.2987 68.2556 59.1169C68.6189 58.9714 68.2919 58.7895 68.2193 58.6076Z" fill="#E0B02D"/>
<path d="M59.8625 65.1942C62.5511 64.2485 62.66 64.2849 63.532 66.9038C64.0406 68.3224 64.5129 69.741 65.0579 71.1595C65.3849 71.9961 65.2396 72.4326 64.2586 72.4326C56.6654 72.4326 49.0721 72.3962 41.4426 72.3962C41.2972 72.3962 41.1519 72.2144 40.9703 72.1416C40.8976 71.5233 41.0429 70.9777 41.6606 70.6867C43.2591 69.9956 44.9667 70.1411 46.6379 69.9228C51.3973 69.159 55.7208 67.4494 59.8625 65.1942Z" fill="#85AB48"/>
<path d="M55.5039 57.5553C53.651 55.9185 52.3431 53.8088 50.7809 51.9174C49.2186 49.0075 48.71 46.0249 50.4176 42.9695C52.5974 39.0047 56.0852 37.4407 60.6993 38.2772C61.7529 38.5319 62.6975 38.9684 63.4968 39.7322C63.8965 40.7507 64.1871 41.7328 62.6975 42.1329C62.1162 42.0965 61.6802 41.8055 61.2079 41.5509C58.0108 39.8777 54.3777 40.8234 52.7064 43.7697C50.9989 46.7523 52.0888 50.608 55.1406 52.4266C55.5403 52.6813 56.0126 52.8268 56.4122 53.1177C57.0298 53.5906 57.9381 53.5542 58.4831 54.209C58.3741 56.064 56.7392 56.646 55.5039 57.5553Z" fill="#FB5622"/>
<path d="M62.6956 41.9512C63.9308 41.5511 63.0952 40.4235 63.4948 39.7324C67.5276 42.8969 68.2906 48.0256 65.2387 52.0268C63.3858 54.4638 61.424 56.8281 59.4984 59.2288C58.1541 60.902 57.8998 60.902 56.5919 59.1924C56.1922 58.6832 55.8653 58.1012 55.502 57.5556C56.1922 56.2097 57.7545 55.6278 58.4448 54.2456C58.7718 53.6272 59.3894 53.5908 59.9707 53.4453C63.7855 52.4269 65.6021 48.8622 64.2215 45.1521C63.7855 44.0609 62.8045 43.2243 62.6956 41.9512Z" fill="#E15428"/>
<path d="M75.8477 66.6087C75.8477 67.9181 75.8477 69.264 75.8477 70.5734C75.8477 71.6283 75.3028 72.2466 74.2128 72.3557C73.2319 72.4648 72.5052 72.2466 72.1783 71.0826C71.488 68.7911 70.616 66.5359 69.8167 64.2444C69.5261 63.3714 69.4534 62.7894 70.6523 62.6076C71.9603 62.4257 73.2682 62.1711 74.5035 61.771C75.7751 61.3708 75.9204 61.8801 75.8841 62.9349C75.8114 64.1716 75.8477 65.372 75.8477 66.6087Z" fill="#369FD1"/>
<path d="M43.9885 46.6426C44.4244 47.952 44.8967 49.2979 45.3327 50.6073C45.5507 53.6627 45.6597 56.7545 45.369 59.8099C44.0248 60.1009 42.6805 60.4282 41.3363 60.7192C40.864 60.2827 40.7913 59.6644 40.7913 59.046C40.7913 55.9179 40.7186 52.7897 40.8276 49.6616C40.9003 47.2609 41.6269 46.6426 43.9885 46.6426Z" fill="#8CC24C"/>
<path d="M70.0364 54.9736C68.1109 55.3737 66.1853 55.7738 64.2598 56.2103C66.2943 53.3368 68.2925 50.5724 68.5469 47.0078C70.0001 46.3167 71.526 46.7168 73.0519 46.7168C73.7422 47.0441 73.7786 47.6625 73.6332 48.2445C73.0519 50.1723 72.4343 52.1365 71.4534 53.9188C71.1264 54.5008 70.6177 54.7554 70.0364 54.9736Z" fill="#2AB3F4"/>
<path d="M59.866 65.1934C57.6134 67.303 54.7796 68.2488 51.9458 69.1581C48.6033 70.2493 45.1518 70.5039 41.7003 70.9768C41.119 70.2857 41.1554 69.5946 41.664 68.8671C47.7313 67.6668 53.7986 66.4301 59.866 65.1934Z" fill="#8BC04A"/>
<path d="M50.8158 54.4979C50.0528 56.6075 50.5978 58.7536 50.4525 60.8997C50.3798 61.809 50.4525 62.7547 49.3262 63.0457C48.5996 63.7004 47.8366 63.9914 46.9283 63.4094C45.5114 63.1912 44.9301 62.3546 44.9664 60.9724C46.4197 60.4632 48.6359 60.8997 49.2899 59.6993C50.0165 58.4262 48.5632 56.7167 48.0909 55.189C47.5823 53.4067 46.892 51.6607 46.3107 49.9148C47.0373 49.26 47.655 49.4419 48.1999 50.2058C48.8176 51.8062 49.8712 53.1157 50.8158 54.4979Z" fill="#FBD769"/>
<path d="M70.0352 54.9702C71.9607 52.6786 72.6873 49.8778 73.305 47.0407C74.0316 46.3496 74.7946 46.677 75.5212 46.9316C76.1751 49.0412 75.7028 51.1873 75.7755 53.297C75.8118 53.9517 75.1579 53.9881 74.7219 54.0608C73.196 54.3882 71.6337 54.6792 70.0352 54.9702Z" fill="#36A0D1"/>
<path d="M45.3643 59.8119C44.6013 58.9026 44.9283 57.8114 45.001 56.8657C45.11 54.7924 44.5287 52.6463 45.3643 50.6094C46.1999 52.9009 46.9992 55.2288 47.9438 57.4476C48.5978 58.9753 48.0528 59.4846 46.6359 59.6664C46.1999 59.7392 45.8003 59.7756 45.3643 59.8119Z" fill="#AED281"/>
<path d="M43.9882 46.6409C41.4087 47.5139 41.4087 47.5139 41.4087 50.4601C41.4087 53.8793 41.3724 57.3348 41.3724 60.7539C40.6457 60.9358 40.2461 60.8267 40.2461 59.9173C40.2824 55.8798 40.2098 51.806 40.2824 47.7685C40.3188 46.0589 41.99 45.5861 43.9882 46.6409Z" fill="#CEE6B7"/>
<path d="M60.699 38.2757C56.4846 37.9483 52.9605 39.0759 50.8533 43.077C49.6907 45.2231 49.3637 47.4782 50.1993 49.8425C50.4536 50.5336 50.599 51.2247 50.8169 51.9158C48.4191 48.7149 48.4554 44.6047 50.8896 41.3311C53.1421 38.312 57.2839 37.0026 60.699 38.2757Z" fill="#F4A289"/>
<path d="M41.3346 61.7734C41.3709 63.774 41.4073 65.7746 41.4436 67.7387C40.8986 68.0297 40.281 68.4298 40.2447 67.3023C40.2083 65.7382 40.2447 64.1741 40.2447 62.61C40.2083 61.8098 40.826 61.8462 41.3346 61.7734Z" fill="#FBE7A7"/>
<path d="M48.2014 50.2062C47.6201 49.8425 46.9662 49.8425 46.3122 49.9152C45.8036 49.0059 45.4766 48.0238 45.2949 47.0053C46.0579 46.3142 46.8572 46.3506 47.6201 46.969C47.8018 48.0602 47.9834 49.1514 48.2014 50.2062Z" fill="#F5C32A"/>
<path d="M75.5576 46.9311C74.831 46.9675 74.0681 47.0038 73.3414 47.0402C71.7429 47.0038 70.1443 47.0038 68.582 46.9675C68.473 46.6037 68.473 46.1309 68.909 46.1309C70.9436 46.1309 72.9418 46.2036 74.9764 46.3127C75.158 46.3491 75.3397 46.7128 75.5576 46.9311Z" fill="#9DD7EF"/>
<path d="M41.6604 68.8673C41.6604 69.5584 41.6967 70.2859 41.6967 70.977C41.4787 71.3407 41.2607 71.7409 41.0428 72.1046C40.0255 71.4135 40.1345 70.3587 40.3161 69.3766C40.4251 68.6855 41.1154 68.8673 41.6604 68.8673Z" fill="#BACF9A"/>
<path d="M47.6188 47.0049C46.8559 47.0049 46.0566 47.0049 45.2936 47.0413C44.8213 46.4593 44.894 45.9501 45.6933 46.0592C46.3472 46.1319 47.6915 45.259 47.6188 47.0049Z" fill="#E1CB90"/>
<path d="M47.5098 82.9802C49.1083 82.2527 50.8522 82.5437 52.4508 82.7256C54.558 82.9802 56.6652 82.871 58.7361 82.9802C59.1358 82.7619 59.4991 82.7256 59.8624 83.0165C59.3901 83.5985 58.8815 84.1805 58.4091 84.7625C57.4645 85.199 57.5009 86.3629 56.8832 87.0177C56.1203 86.9449 56.4109 87.9997 55.757 88.0361C55.4663 87.3814 55.3573 86.6539 55.212 85.9628C55.1393 85.6718 54.9213 85.4172 54.558 85.5263C54.231 85.6355 54.1947 85.9628 54.1584 86.2538C54.1221 86.5812 54.0494 86.6903 54.558 86.6539C55.43 86.5812 55.5753 87.3086 55.539 88.0361C54.8124 89.2728 53.9767 89.9639 52.3418 89.6002C50.9976 89.3092 49.617 90.1458 48.2364 89.8912C47.6188 88.4726 48.8177 87.9997 49.5443 87.2723C52.3055 87.4541 52.3055 87.4541 51.6515 84.617C52.0148 83.744 51.7242 83.453 50.7796 83.4167C49.6896 83.4167 48.4907 83.8168 47.5098 82.9802Z" fill="#FA7348"/>
<path d="M49.728 87.3429C49.3647 88.2886 48.2021 88.7615 48.2384 89.9254C47.7661 89.9254 47.3301 89.9254 46.8578 89.9254C46.8215 87.8885 46.8215 85.8152 46.7852 83.7783C46.8942 83.4145 47.1485 83.1599 47.4754 83.0508C49.2194 83.0508 50.9633 83.0508 52.6708 83.0508C52.9615 84.0692 51.9805 84.2511 51.8715 84.8695C50.7089 85.2696 50.164 86.2517 49.728 87.3429Z" fill="#FC5622"/>
<path d="M59.9017 83.0146C59.5384 83.0146 59.1387 82.9782 58.7754 82.9782C61.1006 82.0689 63.3895 83.0146 65.7147 82.9782C65.3514 83.5602 65.0244 84.1422 64.6611 84.7242C64.5157 85.197 64.2977 85.6699 63.8254 85.9245C63.4985 86.1427 63.1715 86.3974 62.8082 86.6156C61.9725 86.2155 61.3549 85.7426 62.0452 84.7242C62.0452 84.0694 62.7718 83.8148 62.9172 82.9782C61.8635 83.0146 60.8826 83.0146 59.9017 83.0146Z" fill="#FA7D55"/>
<path d="M63.7871 85.9258C63.8234 85.3802 63.7871 84.7618 64.6227 84.7255C67.4929 84.58 65.5673 86.8351 66.403 87.8172C65.4583 87.89 65.4947 87.0898 65.095 86.7988C64.4047 86.8351 64.877 87.7081 64.2594 87.8536C63.4965 87.4171 64.0414 86.5805 63.7871 85.9258Z" fill="#EDDBD4"/>
<path d="M56.8828 87.0172C57.0645 86.0352 56.4105 84.4711 58.4087 84.7621C59.3897 85.0167 59.971 85.5987 59.8256 86.6899C59.7167 87.5629 59.099 87.8538 58.3361 87.963C57.6458 88.0721 56.9191 88.1085 56.8828 87.0172Z" fill="#FAF0EB"/>
<path d="M55.5389 88.035C54.7396 86.7983 54.7396 86.7983 53.8677 87.9259C53.468 87.1984 53.686 86.4709 53.6133 85.8162C53.5407 85.016 53.9766 84.7614 54.7033 84.8341C55.4299 84.8705 56.1565 85.016 55.8659 85.9617C55.6116 86.6892 56.2292 87.3803 55.7932 88.0714L55.6842 88.035H55.5389Z" fill="#F8F5F1"/>
<path d="M62.0086 84.7598C62.2629 84.8689 62.7715 85.0871 62.6625 85.1235C61.1366 85.8146 62.9169 86.142 62.7715 86.6512C62.4446 86.724 61.8633 86.7603 61.8269 86.9058C61.7179 87.5606 62.5899 87.0513 62.6262 87.706C61.9723 87.8879 61.1366 88.5063 60.6643 87.3787C60.192 86.2511 60.8823 85.0144 62.0086 84.7598Z" fill="#FAF2ED"/>
<path d="M46.8912 63.4106C47.6904 63.3015 48.4897 63.156 49.289 63.0469C49.2527 64.6109 47.9084 64.029 47.1455 64.2472C46.5642 64.4291 46.6368 63.8107 46.8912 63.4106Z" fill="#906C3C"/>
<path d="M65.9299 59.6657C64.7673 60.6478 63.8954 60.5386 63.0234 60.4659C63.6774 59.5929 64.5493 59.5929 65.9299 59.6657Z" fill="#8E6939"/>
<path d="M68.2196 58.6094C68.6556 58.7549 69.1642 58.4275 69.5276 58.864C68.038 59.9188 67.8926 59.9188 67.166 58.9731C67.5293 58.9004 67.8563 58.7549 68.2196 58.6094Z" fill="#7A583D"/>
<path d="M53.6135 62.4985C52.5963 63.1169 51.8333 63.4443 50.707 63.1897C51.5063 62.3531 52.3056 62.2076 53.6135 62.4985Z" fill="#7F593D"/>
<path d="M42.8613 64.8664C43.5516 64.3571 44.2782 63.9207 45.4772 64.248C44.5326 64.9755 43.7696 65.1574 42.8613 64.8664Z" fill="#835D3A"/>
<path d="M70.9785 58.7553C71.7778 57.6277 72.7224 57.9551 73.8124 57.6641C73.0131 58.8644 72.1411 58.7553 70.9785 58.7553Z" fill="#855F3A"/>
<path d="M62.6973 41.948C63.4239 42.8209 64.0416 43.7667 64.5139 44.7851C65.3858 47.5495 64.9862 49.9866 62.8063 52.0235C60.9171 53.8058 58.7009 54.3514 56.2303 53.3693C52.7425 52.0599 51.1803 49.6228 51.5073 45.9491C51.7616 43.0756 53.9778 40.8204 57.1749 40.202C59.2822 39.8383 61.0261 40.784 62.6973 41.948Z" fill="#6F4D42"/>
<path d="M56.2285 53.3694C61.1696 54.4606 65.6383 50.8959 64.512 44.7852C66.5466 47.5496 64.4394 52.9329 60.1886 53.8786C59.6073 54.0241 59.026 54.1332 58.4447 54.2423C57.7181 53.915 56.7372 54.206 56.2285 53.3694Z" fill="#D98B71"/>
<path d="M49.7255 87.3457C49.6165 85.1269 49.7982 84.9087 51.869 84.8359C52.6683 85.6362 53.068 86.5819 52.2324 87.5276C51.4331 88.4733 50.5248 87.8913 49.7255 87.3457Z" fill="#FBF2ED"/>
<path d="M59.0659 86.4011C59.0296 86.8739 58.8116 87.2376 58.3393 87.3104C57.649 87.4195 57.7217 86.8739 57.758 86.4738C57.758 86.0737 57.649 85.5645 58.303 85.5645C58.8116 85.5645 58.9569 85.9646 59.0659 86.4011Z" fill="#FA7347"/>
<path d="M61.3526 42.604C63.3872 43.9498 63.8232 45.914 63.4599 48.1328C63.0965 50.2424 61.2073 52.0248 59.0638 52.3521C56.8112 52.6795 54.922 52.0248 53.6504 50.0242C51.6522 45.623 57.1745 40.4215 61.3526 42.604Z" fill="#FDFDFD"/>
<path d="M61.3527 42.6051C58.1192 42.2778 55.5397 43.1507 54.0501 46.2789C53.4688 47.5156 53.8685 48.7887 53.6505 50.0254C52.0519 47.6611 52.2699 44.933 54.1954 43.0052C56.1573 41.041 59.0275 40.8956 61.3527 42.6051Z" fill="#E2D9D7"/>
<path d="M51.2146 87.3088C50.6696 87.2724 50.488 86.9087 50.4516 86.4722C50.4153 86.0357 50.5243 85.5992 51.0693 85.5628C51.5779 85.5265 51.7959 85.9266 51.8322 86.3994C51.8686 86.8359 51.6869 87.1633 51.2146 87.3088Z" fill="#F77D55"/>
</g>
</svg>
