<svg width="36" height="30" viewBox="0 0 36 30" fill="none" xmlns="http://www.w3.org/2000/svg">
<path d="M34.0464 12.3682C32.6147 7.44928 31.0001 4.90769 30.9741 4.8621C30.882 4.74976 28.6005 2.01948 23.1017 0L22.375 1.97831C24.991 2.93908 26.847 4.11117 27.8677 4.86849C24.8204 3.95851 21.1953 3.4012 17.9846 3.4012C14.7739 3.4012 11.1488 3.95851 8.10158 4.86849C9.1222 4.11124 10.9781 2.93908 13.5941 1.97831L12.8675 0C7.36877 2.01948 5.08726 4.74976 4.99523 4.8621C4.96916 4.90769 3.35455 7.44928 1.92295 12.3682C0.543192 17.1086 0.0190384 23.7958 0 24.064C0.122942 24.2562 2.9506 29.0839 10.6568 29.0839L12.6101 26.2554C10.4217 25.6744 8.33503 24.7373 6.42486 23.4658L7.59267 21.7114C10.6743 23.7626 14.2678 24.8469 17.9846 24.8469C21.7015 24.8469 25.2949 23.7626 28.3766 21.7114L29.5444 23.4658C27.6343 24.7373 25.5475 25.6744 23.3591 26.2554L25.3124 29.0839C33.0186 29.0839 35.8463 24.2562 35.9692 24.064C35.9502 23.7958 35.426 17.1086 34.0464 12.3682ZM13.112 17.8818H11.0045V14.3691H13.112V17.8818ZM24.9648 17.8818H22.8572V14.3691H24.9648V17.8818Z" fill="#F85454"/>
</svg>
