<svg width="64" height="54" viewBox="0 0 64 54" fill="none" xmlns="http://www.w3.org/2000/svg">
<path fill-rule="evenodd" clip-rule="evenodd" d="M12.4165 0.857785C10.8004 1.2578 8.08097 2.91325 6.37438 4.53617C-2.79864 13.2583 -1.99151 27.155 8.27968 37.3647C12.8411 41.8976 22.4881 49.0759 27.7397 51.8434L31.8299 54L39.0519 50.3014C54.3242 42.4822 63.2721 30.6708 63.2721 18.3319C63.2721 11.412 61.9445 7.63079 58.3247 4.24781C51.8412 -1.81396 41.5489 -1.3357 34.6426 5.34763L31.9495 7.95256L29.8068 5.65886C28.6277 4.39727 26.6688 2.84732 25.4537 2.2152C22.4424 0.647673 15.9809 -0.024885 12.4165 0.857785ZM23.3225 10.081C24.4593 10.8265 26.0938 13.4191 26.9555 15.843C29.4261 22.7988 33.6077 22.5905 37.0147 15.3427C39.5276 9.99748 42.3605 7.92795 47.1672 7.92795C50.2331 7.92795 51.4992 8.41587 53.2031 10.2542C56.2813 13.5756 56.4018 20.8577 53.4801 27.0091C51.246 31.7126 42.4044 39.93 36.4195 42.8646L31.8044 45.1276L27.9753 42.8365C21.8453 39.1678 15.7822 34.1821 12.0094 29.7063C9.21255 26.3893 8.42037 24.6609 8.08187 21.1451C7.55433 15.6504 9.07802 11.776 12.6459 9.54031C15.6898 7.63343 19.9128 7.84795 23.3225 10.081Z" fill="#F85454"/>
</svg>
