<svg width="421" height="726" viewBox="0 0 421 726" fill="none" xmlns="http://www.w3.org/2000/svg">
<path fill-rule="evenodd" clip-rule="evenodd" d="M195.239 0.682592C193.953 1.00091 191.789 2.31825 190.431 3.60971C183.132 10.5504 183.774 21.6089 191.947 29.7333C195.577 33.3404 203.254 39.0526 207.433 41.255L210.688 42.9711L216.435 40.0279C228.588 33.8057 235.708 24.4066 235.708 14.5878C235.708 9.08125 234.652 6.07228 231.771 3.38024C226.612 -1.44348 218.422 -1.06289 212.926 4.25544L210.783 6.32834L209.078 4.5031C208.139 3.49918 206.581 2.26578 205.614 1.76277C203.217 0.515393 198.076 -0.0198027 195.239 0.682592ZM203.918 8.02206C204.822 8.61532 206.123 10.6784 206.809 12.6072C208.775 18.1424 212.102 17.9766 214.813 12.2091C216.813 7.9556 219.067 6.30875 222.892 6.30875C225.332 6.30875 226.34 6.69702 227.696 8.15988C230.145 10.803 230.241 16.5977 227.916 21.4928C226.138 25.2356 219.102 31.7747 214.34 34.11L210.667 35.9108L207.62 34.0876C202.742 31.1682 197.917 27.2008 194.915 23.6391C192.69 20.9996 192.059 19.6242 191.79 16.8265C191.37 12.454 192.582 9.37088 195.422 7.59181C197.844 6.07438 201.204 6.24509 203.918 8.02206ZM210.115 58.698C202.824 63.1439 199.473 74.9573 202.539 85.4107C203.449 88.5148 204.533 90.0714 208.454 93.9066C214.146 99.4733 215.452 101.761 215.927 106.997C216.327 111.411 214.613 116.084 211.535 118.977C209.201 121.168 209.197 124.357 211.527 124.942C213.676 125.481 216.069 123.76 218.41 119.993C224.502 110.191 222.709 98.575 213.927 90.9368C211.654 88.9604 209.335 86.4531 208.772 85.3645C207.049 82.0337 206.72 76.2663 208.001 71.8602C209.283 67.45 211.106 65.0804 214.718 63.1299C217.375 61.6951 218.118 59.9957 216.789 58.3951C215.627 56.9945 212.691 57.1281 210.115 58.698ZM302.173 125.112C300.055 125.81 297.379 126.979 296.226 127.711C289.924 131.706 267.969 150.437 256.157 161.892L248.97 168.863L244.613 167.347C224.102 160.212 195.963 159.869 172.389 166.467C166.638 168.076 168.274 168.91 156.189 158.202C151.246 153.822 144.997 148.73 142.304 146.886C137.278 143.446 135.995 142.502 122.297 132.156C114.181 126.026 111.266 124.538 107.391 124.545C98.6646 124.56 90.5038 133.113 87.7059 145.174C86.352 151.012 86.3128 157.785 87.4526 189.39L88.3405 214.014L86.0407 221.572C84.775 225.729 81.7231 234.732 79.2575 241.578C76.7919 248.424 72.6975 261.489 70.1591 270.611C67.6208 279.733 64.317 291.604 62.8176 296.991C59.0311 310.594 57.778 319.781 57.7129 334.419C57.6541 347.551 58.2698 351.242 61.8794 359.404C66.6154 370.113 79.5479 382.748 94.5926 391.365C96.4425 392.425 97.8593 393.504 97.7411 393.763C97.6228 394.023 94.7899 398.333 91.4469 403.341C88.1033 408.35 83.9767 415.13 82.2758 418.408C80.575 421.685 78.837 424.986 78.413 425.742C75.0533 431.729 67.4389 450.321 65.2426 457.898C64.685 459.822 63.9371 462.026 63.5802 462.795C62.6427 464.817 58.9562 479.146 57.3253 487.106C55.2732 497.122 53.2638 511.795 52.3892 523.154L51.6203 533.142L47.1642 537.664C41.8992 543.007 37.8195 550.066 35.0132 558.689C32.712 565.759 30.7082 578.208 30.7082 585.433V590.284L26.6852 591.752C17.3608 595.153 7.52155 604.009 3.11231 612.966C0.886693 617.488 0.419312 619.242 0.107265 624.24C-0.351711 631.592 0.594231 635.946 4.26953 643.399C8.62701 652.237 19.1687 664.426 29.8756 673.008C32.3706 675.007 32.6791 675.499 31.6618 675.856C30.6229 676.22 30.9405 676.83 33.7188 679.8C36.1879 682.44 37.0051 683.858 37.0051 685.506C37.0051 691.399 29.6818 692.473 26.8496 686.995C25.8792 685.12 25.8827 684.708 26.8832 682.773C28.2769 680.079 29.6398 680.468 29.7203 683.583C29.8253 687.677 29.9043 687.82 31.9326 687.587C35.2028 687.211 34.8425 684.73 30.9342 680.712C29.078 678.804 27.0875 677.24 26.5103 677.235C25.3537 677.226 19.7872 679.917 17.6946 681.496C14.9351 683.578 13.0223 686.333 12.79 688.559C12.5857 690.517 13.0285 691.338 15.7306 694.012L18.912 697.16L20.5786 695.236C21.4951 694.177 22.7944 693.312 23.4654 693.312C24.4071 693.312 24.1447 693.87 22.3179 695.755L19.9496 698.198L25.1536 703.712C28.0166 706.744 30.7523 709.266 31.233 709.314C31.7143 709.363 32.1075 709.689 32.1075 710.038C32.1075 711.378 48.115 716.162 61.468 718.813C72.0454 720.913 90.268 723.393 95.1299 723.394C97.9342 723.395 98.5855 723.09 100.374 720.946C101.497 719.599 102.991 718.497 103.694 718.497C104.777 718.497 104.64 718.902 102.81 721.121L100.647 723.745L113.079 723.966C119.917 724.088 130.343 723.975 136.248 723.714L146.984 723.242L139.057 715.312C131.504 707.757 131.07 707.439 129.834 708.558C128.571 709.699 128.571 709.671 129.81 707.513C130.51 706.294 131.147 705.354 131.226 705.426C131.304 705.497 135.427 709.567 140.387 714.47L149.404 723.384L156.698 724.876C168.783 727.348 180.391 725.731 190.728 720.133C194.955 717.845 196.275 717.498 202.726 716.99L209.975 716.419L218.682 707.745L227.388 699.07L225.474 697.565C224.421 696.737 223.148 695.472 222.646 694.755C221.806 693.556 221.927 693.457 224.165 693.52C225.503 693.558 226.242 693.808 225.809 694.076C225.283 694.401 225.637 695.229 226.866 696.554C227.975 697.75 228.711 698.152 228.711 697.561C228.711 696.206 229.649 697.252 229.775 698.748C229.831 699.414 230.107 700.745 230.388 701.707L230.898 703.456L229.63 701.901L228.362 700.346L220.476 708.303L212.59 716.261L221.875 716.531C230.903 716.793 231.308 716.872 236.493 719.387C241.404 721.77 250.856 724.573 251.569 723.859C251.737 723.691 251.07 722.922 250.088 722.149C248.076 720.567 247.839 719.897 249.291 719.897C249.836 719.897 251.415 720.999 252.802 722.345C255.138 724.614 255.644 724.793 259.684 724.788C262.082 724.785 267.789 724.315 272.367 723.745C278.835 722.938 282.42 722.86 288.459 723.395C292.732 723.772 298.905 724.084 302.176 724.085C307.819 724.088 308.237 723.981 310.359 721.992C311.588 720.84 313.13 719.897 313.784 719.897C314.718 719.897 314.568 720.273 313.087 721.646L311.199 723.395L315.258 723.372C324.367 723.323 349.752 718.791 349.752 717.214C349.752 716.169 343.004 710.086 342.428 710.61C342.099 710.908 342.058 710.759 342.335 710.277C342.612 709.797 342.505 709.403 342.097 709.403C341.69 709.403 341.356 709.088 341.356 708.703C341.356 707.007 343.554 708.336 347.849 712.629L352.475 717.256L360.034 714.632C373.077 710.107 382.88 704.697 387.694 699.368C389.265 697.629 389.904 694.107 389.048 691.906C388.149 689.597 384.451 685.918 381.891 684.785C380.762 684.284 379.838 683.674 379.838 683.429C379.838 683.183 379.143 682.8 378.294 682.577C377.445 682.356 376.894 682.049 377.07 681.897C377.245 681.746 381.167 678.472 385.785 674.622C406.648 657.229 417.619 640.404 417.619 625.801C417.619 620.621 416.077 614.421 413.705 610.064L411.936 606.814L414.057 601.475C419.304 588.268 421.49 574.44 420.909 558.124C420.279 540.42 417.32 529.434 409.744 516.672C405.457 509.45 397.409 500.58 391.506 496.573C383.684 491.261 370.817 486.035 360.288 483.894C356.516 483.127 355.697 482.701 355.266 481.281C354.983 480.349 353.134 473.447 351.157 465.943C344.918 442.264 339.309 427.184 331.505 413.118C326.62 404.315 324.055 400.682 323.128 401.254C322.772 401.473 322.647 401.222 322.85 400.695C323.283 399.566 320.527 395.802 319.659 396.338C319.332 396.541 318.863 396.381 318.617 395.984C318.372 395.586 317.829 395.472 317.411 395.73C316.954 396.013 316.854 395.874 317.159 395.381C317.437 394.93 317.958 394.743 318.316 394.964C319.671 395.802 318.895 394.061 317.205 392.473C316.235 391.562 315.527 390.597 315.631 390.327C315.734 390.059 318.18 388.056 321.066 385.878C328.108 380.563 337.454 371.422 341.903 365.495C350.971 353.415 356.749 336.451 356.749 321.902C356.749 310.398 354.183 300.952 341.903 267.258C338.046 256.677 334.428 246.445 333.863 244.521C333.298 242.597 330.613 235.356 327.898 228.43C324.674 220.209 322.963 214.866 322.969 213.039C322.974 211.5 323.829 204.889 324.868 198.348C326.244 189.688 326.866 182.651 327.155 172.463C327.929 145.274 324.537 132.072 315.324 126.402C311.182 123.853 307.181 123.461 302.173 125.112ZM311.291 136.455C315.341 140.79 316.834 149.177 316.854 167.705C316.868 180.417 315.899 190.85 313.551 203.245C311.567 213.718 311.834 215.655 317.156 229.443C319.747 236.156 323.545 246.545 325.596 252.529C327.646 258.514 331.823 270.179 334.878 278.452C345.355 306.826 347.757 317.004 346.439 327.442C345.486 334.992 341.739 346.096 337.852 352.889C331.214 364.489 318.874 376.035 303.088 385.412C287.344 394.764 251.527 400.272 205.273 400.452C188.427 400.518 181.064 400.195 161.894 398.552C141.975 396.845 137.536 396.248 129.559 394.206C104.826 387.874 84.018 374.952 73.9835 359.691C69.1978 352.412 68.354 349.236 67.9657 337.033C67.4627 321.213 68.8676 312.181 75.1197 291.044C76.4281 286.619 78.8048 278.277 80.4007 272.505C81.9966 266.733 85.029 256.974 87.1398 250.818C94.8116 228.437 96.5069 223.131 97.5829 218.132C98.7374 212.768 98.7241 211.221 97.1792 172.113C96.8042 162.613 96.7874 153.663 97.14 150.911C98.1937 142.682 103.117 135.034 107.361 135.034C108.442 135.034 114.137 138.851 123.282 145.703C131.113 151.571 139.384 157.715 141.661 159.356C143.939 160.997 147.72 164.145 150.065 166.352C158.985 174.748 164.29 179.109 165.583 179.109C166.319 179.109 168.782 178.467 171.055 177.683C173.328 176.899 178.966 175.464 183.583 174.494C193.957 172.317 213.288 171.451 222.476 172.753C230.392 173.875 240.703 176.634 244.947 178.765C250.529 181.569 251 181.385 259.725 172.971C272.101 161.037 277.526 156.082 286.368 148.636C304.135 133.675 307.265 132.145 311.291 136.455ZM143.353 258.97C139.18 259.707 135.31 263.626 135.975 266.44C136.768 269.795 138.433 270.518 146.281 270.919C156.239 271.427 159.504 273.06 166.676 281.12C169.239 284 173.003 284.212 175.785 281.633C179.233 278.438 178.037 274.751 171.544 268.559C163.595 260.978 152.791 257.304 143.353 258.97ZM253.199 260.184C244.486 263.004 235.566 269.423 234.666 273.522C234.046 276.34 235.839 279.516 238.59 280.475C241.915 281.633 242.279 281.519 246.32 278.036C251.231 273.806 256.486 271.535 263.343 270.682C270.475 269.795 274.688 268.294 275.279 266.43C275.966 264.267 274.303 261.841 271.055 260.269C267.29 258.447 258.694 258.405 253.199 260.184ZM196.144 297.093C194.204 299.186 193.819 303.236 195.36 305.343C195.872 306.044 197.526 306.824 199.033 307.077L201.775 307.537L201.563 311.498C201.422 314.145 201.73 316.189 202.49 317.658C203.115 318.868 203.525 319.94 203.401 320.04C203.276 320.139 199.787 322.025 195.647 324.23L188.12 328.238L186.191 326.606C185.13 325.709 183.059 323.873 181.587 322.526C176.55 317.914 174.138 317.665 174.138 321.757C174.138 325.742 182.478 334.405 187.972 336.125C190.032 336.769 199.865 332.073 204.122 328.41C207.136 325.817 207.189 325.802 209.02 327.003C212.19 329.081 221.876 333.52 226.104 334.831L230.143 336.084L233.697 332.628C238.935 327.533 240.725 324.435 240.469 320.912C240.132 316.288 238.49 316.636 232.478 322.607L227.327 327.723L219.244 323.61C214.563 321.228 211.501 319.287 211.969 318.998C212.893 318.427 213.943 313.622 213.988 309.759C214.014 307.479 214.234 307.135 215.666 307.135C216.572 307.135 218.146 306.363 219.164 305.42C221.521 303.235 221.751 298.776 219.616 296.641C218.345 295.37 217.284 295.242 208.038 295.242C197.93 295.242 197.848 295.255 196.144 297.093ZM208.421 340.02C201.992 340.623 200.834 341.09 200.279 343.301C199.499 346.408 201.158 347.153 208.761 347.107C212.831 347.082 215.952 346.739 216.539 346.254C217.077 345.807 217.517 344.37 217.517 343.061C217.517 341.15 217.164 340.546 215.722 339.999C214.735 339.624 213.87 339.364 213.798 339.422C213.727 339.48 211.307 339.749 208.421 340.02ZM310.809 400.706C324.791 418.103 334.26 440.18 342.99 475.738C347.884 495.67 354.041 526.95 353.232 527.76C353.048 527.943 351.177 527.646 349.074 527.101C343.538 525.664 338.073 525.912 331.491 527.897C330.495 528.198 330.379 526.992 330.442 516.972L330.512 505.708L328.546 504.013C327.08 502.748 326.1 502.428 324.698 502.754C320.665 503.691 320.481 504.322 320.023 518.763C318.927 553.345 313.798 585.492 303.168 624.402C301.802 629.404 300.046 635.228 299.266 637.344C298.486 639.461 297.279 643.081 296.583 645.39C292.837 657.836 283.969 677.198 276.548 689.138C272.361 695.873 265.159 704.096 261.674 706.12C260.476 706.814 259.496 707.191 259.496 706.955C259.496 706.72 260.598 704.45 261.945 701.913C264.548 697.009 265.063 693.339 263.348 691.916C261.642 690.5 259.255 692.652 255.804 698.716C250.128 708.691 250.126 708.694 248.477 708.699C247.611 708.701 246.903 708.566 246.903 708.398C246.903 708.23 247.858 705.633 249.024 702.626C252.652 693.28 252.537 689.115 248.652 689.115C246.616 689.115 246.111 689.818 243.73 695.974C242.053 700.31 241.64 700.893 241.004 699.822C239.621 697.488 240.17 678.552 241.934 667.777C243.479 658.346 244.445 653.52 251.385 620.554C254.182 607.265 256.547 594.621 258.788 580.979C259.826 574.651 262.874 543.358 263.619 531.356C263.978 525.584 264.22 507.01 264.158 490.079C264.048 460.424 263.992 459.208 262.611 456.849C261.448 454.862 260.696 454.359 258.627 454.185C256.829 454.033 255.678 454.37 254.721 455.327C253.435 456.613 253.38 457.578 253.662 473.731C253.826 483.108 254.085 491.375 254.24 492.103C254.742 494.474 253.257 532.414 252.142 545.697C249.601 575.984 247.369 590.164 239.203 627.9C234.056 651.683 230.933 668.741 230.36 676.193L229.914 681.988L227.739 682.314C224.013 682.87 211.419 682.921 202.141 682.417L193.259 681.934L192.073 674.003C190.56 663.881 187.488 650.276 180.46 622.566C173.625 595.621 170.694 581.847 167.901 563.537C163.449 534.37 161.602 511.835 161.059 480.105C160.694 458.768 160.517 455.985 159.44 454.744C157.784 452.834 153.791 452.878 152.032 454.827C150.779 456.216 150.703 457.608 150.753 478.089C150.818 503.815 152.719 531.367 155.925 553.043C156.324 555.737 156.981 560.301 157.385 563.187C160.331 584.2 164.038 601.151 174.825 642.941C180.678 665.612 184.204 688.451 182.656 693.662L182.033 695.761L180.709 693.391C178.468 689.378 175.177 685.284 174.015 685.06C172.318 684.733 170.639 686.866 170.647 689.339C170.656 692.403 173.39 697.93 176.785 701.75C179.376 704.664 179.514 705.007 178.376 705.717C177.326 706.374 176.582 705.929 173.621 702.877C171.691 700.887 168.473 696.976 166.471 694.187C164.208 691.032 162.343 689.115 161.538 689.115C159.989 689.115 158.046 690.91 158.046 692.34C158.046 693.972 160.771 698.913 164.081 703.281C165.827 705.584 166.73 707.304 166.195 707.304C164.078 707.304 156.566 701.537 152.443 696.748C139.966 682.252 128.182 657.895 116.934 623.352C105.074 586.929 98.1112 550.915 96.1045 515.615C95.719 508.822 95.421 507.324 94.191 505.995C92.3068 503.959 90.049 503.999 87.5946 506.109C85.3459 508.042 85.2088 509.765 86.175 523.936C86.6123 530.358 86.5444 531.773 85.8252 531.218C82.464 528.622 72.5044 526.691 66.5321 527.477C64.4933 527.746 62.7246 527.783 62.6021 527.562C62.1886 526.814 64.168 508.343 65.6128 499.474C68.3484 482.674 73.083 464.755 78.4375 450.933C80.3692 445.948 81.9903 441.177 82.0414 440.331C82.0918 439.485 82.3178 438.907 82.5431 439.046C82.8887 439.259 88.0802 429.501 88.0802 428.637C88.0802 428.017 97.4738 412.763 102.276 405.584C105.77 400.363 107.643 398.152 108.37 398.393C126.195 404.31 127.15 404.715 127.509 406.501C128.131 409.599 133.444 416.728 138.304 420.987C147.909 429.404 158.298 434.132 173.972 437.219C179.624 438.332 193.439 440.054 196.739 440.058C197.048 440.058 197.235 442.105 197.153 444.606C197.065 447.332 196.7 449.156 196.242 449.16C194.617 449.175 188.266 452.575 185.766 454.769C181.03 458.928 177.699 468.283 178.604 474.883C179.588 482.066 184.51 489.239 190.445 492.143C195.5 494.616 204.845 495.848 210.529 494.791C221.223 492.802 228.245 485.554 230.193 474.493C232.082 463.775 226.242 453.789 215.542 449.441C213.357 448.552 211.601 447.495 211.64 447.09C211.678 446.686 211.757 444.781 211.815 442.857C211.913 439.576 212.033 439.359 213.754 439.359C221.331 439.359 244.603 434.128 253.834 430.349C267.159 424.896 281.638 412.792 282.904 406.047C283.285 404.018 283.72 403.621 286.286 402.961C291.266 401.681 298.125 399.34 301.812 397.663C303.743 396.783 305.704 396.046 306.168 396.024C306.633 396.002 308.721 398.109 310.809 400.706ZM269.991 406.819C269.991 407.007 267.698 408.983 264.895 411.21C255.35 418.795 245.357 422.963 228.591 426.355C200.723 431.992 169.689 428.644 152.128 418.106C150.604 417.193 149.239 416.089 149.095 415.654C148.95 415.22 148.583 415.018 148.279 415.204C147.736 415.541 140.163 407.987 140.652 407.596C140.929 407.375 147.014 407.854 168.191 409.763C194.484 412.134 237.439 411.129 261.955 407.568C269.866 406.419 269.991 406.407 269.991 406.819ZM262.995 409.317C262.995 409.725 263.31 409.864 263.694 409.626C264.079 409.388 264.394 409.055 264.394 408.885C264.394 408.715 264.079 408.576 263.694 408.576C263.31 408.576 262.995 408.91 262.995 409.317ZM257.397 409.976C257.397 410.36 257.731 410.675 258.138 410.675C258.546 410.675 258.685 410.36 258.447 409.976C258.209 409.591 257.876 409.276 257.706 409.276C257.536 409.276 257.397 409.591 257.397 409.976ZM212.442 459.324C215.91 460.773 217.471 462.265 218.999 465.594C222.051 472.238 219.231 480.061 212.559 483.464C207.99 485.795 197.213 484.925 193.388 481.916C190.474 479.624 188.628 475.296 188.986 471.592C189.677 464.437 193.621 460.226 200.731 459.047C206.606 458.074 209.621 458.146 212.442 459.324ZM368.323 496.714C386.442 502.935 395.579 510.82 403.953 527.459C412.383 544.209 413.267 573.814 405.938 593.969C404.312 598.442 403.995 598.614 401.239 596.512C397.704 593.816 389.226 589.901 385.815 589.39L382.889 588.951L382.074 579.742C380.619 563.28 375.676 548.851 368.454 539.985C366.012 536.987 365.141 535.251 364.776 532.657C363.703 525.026 360.88 508.45 359.558 502.025C358.783 498.256 358.148 494.867 358.148 494.494C358.148 493.611 361.268 494.292 368.323 496.714ZM347.926 537.594C359.977 541.22 369.227 557.085 371.417 577.882C372.626 589.351 372.615 589.409 369.168 590.44C354.246 594.905 336.415 612.077 317.558 640.143C310.902 650.048 301.326 663.313 301.038 663.025C300.802 662.789 304.695 652.149 306.723 647.489C309.479 641.155 316.511 615.988 320.407 598.517C323.068 586.587 326.941 563.5 328.036 553.043C329.273 541.23 329.317 541.056 331.39 539.698C335.94 536.717 342.317 535.906 347.926 537.594ZM79.2953 539.701C84.2572 542.129 88.7798 546.129 88.7798 548.09C88.7798 553.77 94.0937 580.049 100.604 606.562C105.851 627.932 107.645 634.111 113.188 649.894C115.139 655.45 116.656 660.075 116.559 660.172C116.227 660.504 109.425 651.695 102.253 641.647C98.312 636.124 94.4757 630.929 93.7278 630.103C92.9806 629.276 90.9719 626.868 89.264 624.752C87.5561 622.635 85.7804 620.991 85.3186 621.096C84.8562 621.202 84.6546 621.003 84.8701 620.653C85.4411 619.73 82.5074 616.259 81.6188 616.808C81.1613 617.09 81.0717 616.941 81.39 616.426C82.0498 615.359 72.1119 605.449 65.3413 600.423C59.262 595.909 51.6791 592.155 45.6221 590.661L41.0016 589.521L41.4494 581.426C42.1714 568.37 45.0274 558.509 50.568 549.945C57.7675 538.817 69.174 534.749 79.2953 539.701ZM384.838 599.818C395.474 602.321 405.521 612.457 407.124 622.297C408.875 633.061 400.258 647.568 382.636 663.522C377.897 667.812 354.194 686.068 338.673 697.38C326.582 706.193 314.819 710.687 308.668 708.845C304.533 707.606 299.924 704.337 297.628 701.015C295.966 698.612 295.529 697.235 295.529 694.406C295.529 689.237 298.487 683.802 308.692 670.225C313.464 663.877 320.922 653.488 325.266 647.139C348.09 613.779 362.818 600.86 380.187 598.965C380.572 598.923 382.665 599.307 384.838 599.818ZM49.2065 602.942C51.8414 604.174 56.0449 606.644 58.5476 608.43C63.9777 612.304 74.4445 622.695 80.4693 630.193C82.8565 633.164 85.1521 635.917 85.5705 636.311C85.9889 636.705 86.6459 637.529 87.0307 638.143C89.921 642.754 101.277 657.949 109.438 668.127C119.768 681.01 122.637 685.403 123.84 690.183C125.361 696.224 121.6 702.669 114.485 706.215C110.232 708.334 105.867 708.53 100.082 706.864C92.3705 704.643 87.6926 701.841 65.3413 686.063C48.7349 674.34 48.8161 674.391 48.0087 674.891C47.5917 675.148 47.4937 674.999 47.7785 674.539C48.0779 674.054 47.0837 672.978 45.2576 671.807C43.5994 670.745 41.3003 669.049 40.1487 668.038C38.9971 667.028 35.5988 664.081 32.5973 661.489C24.1314 654.177 17.1166 645.624 12.7963 637.344C11.0002 633.902 10.7876 632.796 10.7785 626.85C10.7701 621.381 11.0429 619.647 12.3219 617.056C15.2689 611.086 24.724 602.877 30.774 601.036C32.0844 600.637 35.6898 600.399 38.7858 600.505C43.4042 600.665 45.2758 601.103 49.2065 602.942ZM377.885 610.092C376.026 610.839 374.182 614.684 374.839 616.443C375.854 619.163 378.414 621.254 380.727 621.254C385.394 621.254 387.825 617.502 385.753 613.497C384.885 611.819 380.9 609.132 379.685 609.405C379.577 609.429 378.766 609.739 377.885 610.092ZM32.7533 612.805C29.6713 615.886 30.2919 620.332 34.019 621.876C36.5608 622.929 39.0516 622.081 41.1114 619.463C42.9907 617.074 43.0033 614.956 41.152 612.603C39.0859 609.976 35.4953 610.063 32.7533 612.805ZM361.219 615.896C359.858 617.067 359.314 618.196 359.314 619.854C359.314 622.601 362.141 625.451 364.866 625.451C367.101 625.451 370.042 622.521 370.042 620.293C370.042 617.623 369.343 616.393 367.193 615.281C364.485 613.881 363.437 613.988 361.219 615.896ZM49.0211 616.576C45.7355 620.074 48.073 625.451 52.8797 625.451C55.9365 625.451 57.9949 623.36 57.9949 620.255C57.9949 615.656 52.1408 613.257 49.0211 616.576ZM389.158 620.686C385.48 622.464 385.505 628.147 389.2 630.43C393.081 632.828 397.346 630.611 397.307 626.217C397.281 623.241 396.172 621.577 393.553 620.581C391.297 619.724 391.141 619.728 389.158 620.686ZM23.7116 621.743C21.8666 622.409 20.2448 625.031 20.2287 627.375C20.2091 630.225 22.3242 632.447 25.0536 632.447C28.0733 632.447 29.241 631.81 30.4284 629.513C32.9324 624.671 28.8107 619.903 23.7116 621.743ZM366.092 629.014C363.21 629.849 359.756 633.123 359.13 635.614C358.499 638.132 360.512 642.045 364.792 646.614C368.013 650.053 370.56 650.833 373.476 649.273C375.096 648.405 378.324 641.168 378.871 637.177C379.777 630.576 373.825 626.773 366.092 629.014ZM43.3021 629.728C40.9029 630.644 38.8242 633.691 38.8242 636.291C38.8242 639.27 41.7145 646.732 43.6974 648.871C45.9838 651.338 49.4464 651.271 51.8295 648.713C58.896 641.13 60.3716 636.559 56.9461 632.863C53.72 629.383 47.7792 628.018 43.3021 629.728ZM384.354 637.663C380.832 641.184 383.482 646.439 388.779 646.439C392.106 646.439 394.53 644.186 394.53 641.094C394.53 636.331 387.916 634.1 384.354 637.663ZM25.5552 638.095C24.1328 639.213 23.7116 640.162 23.7116 642.242C23.7116 647.237 29.3194 649.568 33.2347 646.2C38.7928 641.419 31.3358 633.548 25.5552 638.095ZM39.1188 679.763C41.9986 681.668 42.5031 682.501 41.0681 682.98C40.6084 683.133 39.3175 682.216 38.1987 680.942C37.08 679.668 35.8325 678.83 35.4274 679.081C34.9957 679.347 34.8971 679.201 35.1895 678.729C35.8633 677.638 35.9375 677.657 39.1188 679.763ZM26.5103 680.719C26.5103 681.104 26.1954 681.419 25.8106 681.419C25.4258 681.419 25.1109 681.104 25.1109 680.719C25.1109 680.335 25.4258 680.02 25.8106 680.02C26.1954 680.02 26.5103 680.335 26.5103 680.719ZM374.59 684.917C374.352 685.302 373.783 685.612 373.324 685.606C372.823 685.599 372.91 685.324 373.541 684.917C374.885 684.048 375.127 684.048 374.59 684.917ZM371.442 687.365C370.962 687.943 370.234 688.415 369.823 688.415C369.412 688.415 369.686 687.952 370.433 687.388C372.188 686.06 372.531 686.053 371.442 687.365ZM376.689 687.715C376.451 688.1 375.882 688.41 375.423 688.404C374.922 688.397 375.009 688.122 375.64 687.715C376.984 686.846 377.226 686.846 376.689 687.715ZM368.643 689.814C368.643 690.199 368.309 690.514 367.902 690.514C367.495 690.514 367.356 690.199 367.594 689.814C367.831 689.429 368.164 689.115 368.335 689.115C368.505 689.115 368.643 689.429 368.643 689.814ZM54.8464 691.913C55.0843 692.298 54.9451 692.612 54.5379 692.612C54.1307 692.612 53.7969 692.298 53.7969 691.913C53.7969 691.528 53.9355 691.213 54.1055 691.213C54.2755 691.213 54.6085 691.528 54.8464 691.913ZM363.745 692.887C363.745 693.039 363.257 693.35 362.66 693.579C362.037 693.818 361.756 693.7 362.001 693.304C362.412 692.639 363.745 692.321 363.745 692.887ZM200.2 693.775C199.72 693.97 198.933 693.97 198.451 693.775C197.971 693.581 198.364 693.423 199.326 693.423C200.288 693.423 200.682 693.581 200.2 693.775ZM207.555 693.793C206.886 693.968 205.627 693.974 204.757 693.807C203.886 693.64 204.433 693.496 205.973 693.488C207.512 693.481 208.224 693.618 207.555 693.793ZM214.203 693.805C213.343 693.97 211.768 693.975 210.705 693.814C209.642 693.654 210.345 693.518 212.269 693.512C214.194 693.507 215.064 693.639 214.203 693.805ZM219.791 693.775C219.31 693.97 218.523 693.97 218.042 693.775C217.561 693.581 217.954 693.423 218.916 693.423C219.878 693.423 220.272 693.581 219.791 693.775ZM13.2168 694.237C13.2168 694.538 13.9703 695.894 14.8917 697.25C15.9958 698.875 16.7409 699.433 17.0782 698.888C17.3776 698.403 16.6836 697.156 15.4032 695.875C14.2005 694.673 13.2168 693.935 13.2168 694.237ZM137.734 696.46C137.734 696.845 137.429 696.688 137.056 696.11C136.683 695.533 136.378 694.746 136.378 694.361C136.378 693.977 136.683 694.134 137.056 694.711C137.429 695.288 137.734 696.076 137.734 696.46ZM283.706 699.719C283.09 700.599 282.585 701.087 282.585 700.804C282.585 700.024 284.243 697.534 284.554 697.846C284.704 697.996 284.322 698.839 283.706 699.719ZM65.9927 700.24C65.8087 700.424 65.1146 700.007 64.4499 699.314C63.2962 698.109 63.3109 698.094 64.785 698.979C65.633 699.489 66.1767 700.056 65.9927 700.24ZM134.735 699.74C134.512 700.298 134.346 700.132 134.313 699.317C134.283 698.579 134.448 698.167 134.68 698.399C134.912 698.631 134.938 699.235 134.735 699.74ZM18.0332 700.833C18.4005 701.506 19.3947 702.529 20.2427 703.106C21.0907 703.684 22.1388 704.492 22.5733 704.902C23.8103 706.073 27.2099 708.204 27.2099 707.808C27.2099 707.613 25.3999 705.691 23.1869 703.539C19.1925 699.653 16.6668 698.327 18.0332 700.833ZM140.822 700.694C141.06 701.317 140.943 701.597 140.547 701.353C140.166 701.117 139.855 700.629 139.855 700.267C139.855 699.261 140.357 699.482 140.822 700.694ZM133.643 702.879C132.818 704.297 132.62 703.843 133.295 702.084C133.534 701.459 133.878 701.094 134.058 701.275C134.239 701.455 134.052 702.177 133.643 702.879ZM281.273 702.594C280.581 703.279 280.502 703.199 280.881 702.202C281.144 701.512 281.535 701.124 281.75 701.339C281.966 701.554 281.751 702.119 281.273 702.594ZM352.201 701.707C351.963 702.092 351.394 702.402 350.935 702.396C350.434 702.389 350.521 702.114 351.152 701.707C352.496 700.838 352.738 700.838 352.201 701.707ZM349.053 704.156C348.573 704.733 347.845 705.205 347.434 705.205C347.023 705.205 347.297 704.743 348.044 704.178C349.799 702.85 350.142 702.843 349.053 704.156ZM354.3 704.506C354.062 704.89 353.493 705.2 353.034 705.195C352.533 705.188 352.62 704.913 353.251 704.506C354.595 703.637 354.837 703.637 354.3 704.506ZM289.137 708.681C288.752 709.067 287.509 707.263 287.493 706.296C287.488 705.933 287.929 706.248 288.475 706.994C289.021 707.741 289.319 708.5 289.137 708.681ZM79.6843 709.369C80.2615 709.76 80.3748 710.086 79.9369 710.092C79.4982 710.097 78.3962 709.455 77.488 708.664C76.1895 707.533 76.1356 707.378 77.2355 707.941C78.0051 708.335 79.1071 708.977 79.6843 709.369ZM191.495 709.071C191.279 709.287 190.888 708.898 190.625 708.209C190.246 707.212 190.325 707.131 191.017 707.817C191.495 708.292 191.71 708.856 191.495 709.071ZM232.888 709.753C232.888 710.137 232.583 709.98 232.21 709.403C231.837 708.826 231.532 708.039 231.532 707.654C231.532 707.269 231.837 707.426 232.21 708.004C232.583 708.581 232.888 709.368 232.888 709.753ZM149.328 709.433C150.39 710.607 150.419 710.784 149.49 710.428C148.868 710.19 148.187 709.546 147.977 708.999C147.455 707.637 147.804 707.749 149.328 709.433ZM291.349 710.667C291.134 710.882 290.57 710.668 290.095 710.189C289.409 709.498 289.489 709.418 290.486 709.797C291.176 710.06 291.565 710.451 291.349 710.667ZM38.9145 711.225C38.6822 711.457 38.0784 711.482 37.5739 711.28C37.0156 711.057 37.1814 710.891 37.9965 710.857C38.734 710.827 39.1468 710.992 38.9145 711.225ZM84.2321 712.201C84.4699 712.586 84.3496 712.901 83.9648 712.901C83.58 712.901 83.0706 712.586 82.8327 712.201C82.5949 711.816 82.7152 711.502 83.1 711.502C83.4848 711.502 83.9942 711.816 84.2321 712.201ZM336.109 712.901C335.871 713.286 335.302 713.595 334.843 713.59C334.342 713.583 334.429 713.308 335.059 712.901C336.404 712.032 336.646 712.032 336.109 712.901ZM90.1897 715.579C89.7237 715.734 88.8218 715.331 88.1865 714.681C87.1049 713.577 87.1587 713.558 89.0338 714.399C90.1358 714.893 90.6563 715.424 90.1897 715.579ZM157.065 715.514C156.65 715.929 154.548 714.847 154.548 714.219C154.548 713.872 155.163 713.973 155.916 714.443C156.668 714.912 157.185 715.394 157.065 715.514ZM269.991 714.575C269.991 714.726 269.503 715.037 268.905 715.267C268.283 715.505 268.002 715.388 268.247 714.992C268.658 714.327 269.991 714.008 269.991 714.575ZM305.324 719.197C306.247 719.594 306.366 719.811 305.674 719.836C305.097 719.858 304.152 719.57 303.575 719.197C302.296 718.371 303.401 718.371 305.324 719.197ZM170.26 719.848C170.482 720.207 170.294 720.727 169.844 721.006C169.351 721.31 169.211 721.21 169.492 720.754C169.762 720.317 169.29 719.868 168.376 719.692C166.804 719.39 166.803 719.387 168.325 719.292C169.168 719.24 170.039 719.49 170.26 719.848ZM255.809 720.319C255.576 720.552 254.972 720.577 254.468 720.375C253.91 720.151 254.075 719.986 254.891 719.952C255.628 719.922 256.041 720.087 255.809 720.319ZM316.868 720.871C316.868 721.022 316.38 721.334 315.783 721.563C315.16 721.802 314.879 721.684 315.124 721.288C315.535 720.623 316.868 720.305 316.868 720.871ZM320.712 721.288C320.956 721.684 320.676 721.802 320.053 721.563C318.841 721.098 318.62 720.596 319.626 720.596C319.988 720.596 320.476 720.908 320.712 721.288Z" fill="#F7626B" fill-opacity="0.2"/>
</svg>
