<svg width="305" height="426" viewBox="0 0 305 426" fill="none" xmlns="http://www.w3.org/2000/svg">
<path d="M215.647 197.327C232.435 201.551 247.102 211.76 256.894 226.036C266.685 240.312 270.926 257.672 268.821 274.855C266.715 292.037 258.407 307.86 245.459 319.349C232.51 330.839 215.812 337.204 198.501 337.25H3.25059C-9.2816 337.241 -21.6699 334.579 -33.0989 329.437C-44.5279 324.296 -54.7385 316.793 -63.0586 307.421C-71.3786 298.049 -77.6195 287.021 -81.3705 275.063C-85.1214 263.106 -86.2974 250.489 -84.8209 238.044C-83.3445 225.599 -79.2492 213.608 -72.8045 202.86C-66.3597 192.112 -57.7118 182.851 -47.4299 175.686C-37.1479 168.521 -25.4651 163.614 -13.1503 161.29C-0.835609 158.966 11.8318 159.275 24.0181 162.199L47.6256 168.625" stroke="#FDE0E1" stroke-width="16.1667" stroke-linecap="round" stroke-linejoin="round"/>
<path d="M24.0189 162.199C30.0856 138.176 45.0601 117.358 65.9066 103.966C86.7532 90.5736 111.912 85.6092 136.283 90.0789C160.654 94.5486 182.414 108.118 197.151 128.036C211.889 147.954 218.501 172.731 215.648 197.344C215.648 197.344 212.932 212.999 207.376 221.874" stroke="#FDE0E1" stroke-width="16.1667" stroke-linecap="round" stroke-linejoin="round"/>
</svg>
