<svg width="235" height="314" viewBox="0 0 235 314" fill="none" xmlns="http://www.w3.org/2000/svg">
<path d="M65.8611 145.447C53.487 148.561 42.6758 156.086 35.4587 166.609C28.2417 177.132 25.1154 189.928 26.6674 202.593C28.2195 215.258 34.3429 226.92 43.8872 235.389C53.4315 243.858 65.7398 248.55 78.4996 248.583H222.416C231.654 248.577 240.785 246.614 249.209 242.825C257.633 239.035 265.159 233.504 271.292 226.596C277.425 219.689 282.025 211.56 284.79 202.746C287.554 193.932 288.421 184.633 287.333 175.46C286.245 166.287 283.226 157.448 278.476 149.526C273.725 141.604 267.351 134.777 259.772 129.496C252.194 124.215 243.582 120.598 234.505 118.885C225.428 117.172 216.091 117.4 207.109 119.555L189.708 124.292" stroke="#FDE0E1" stroke-width="16.1667" stroke-linecap="round" stroke-linejoin="round"/>
<path d="M207.108 119.555C202.636 101.848 191.599 86.5031 176.233 76.632C160.867 66.7608 142.323 63.1016 124.359 66.3962C106.396 69.6907 90.3569 79.6925 79.4941 94.374C68.6313 109.056 63.7574 127.318 65.8605 145.46C65.8605 145.46 67.8622 157 71.9573 163.541" stroke="#FDE0E1" stroke-width="16.1667" stroke-linecap="round" stroke-linejoin="round"/>
</svg>
