<svg width="271" height="271" viewBox="0 0 271 271" fill="none" xmlns="http://www.w3.org/2000/svg">
<circle cx="135.5" cy="135.5" r="135.5" fill="#F85454"/>
<circle cx="136" cy="136" r="79" fill="white"/>
<path fill-rule="evenodd" clip-rule="evenodd" d="M133.911 111.031C127.637 111.604 122.019 114.222 117.613 118.627C113.583 122.655 111.151 127.459 110.217 133.233C109.928 135.018 109.928 139.008 110.217 140.793C110.495 142.513 111.026 144.598 111.533 145.957C114.523 153.981 121.208 160.059 129.377 162.18C131.95 162.848 133.177 163 136.005 163C138.756 163 139.996 162.854 142.45 162.24C151.505 159.974 158.824 152.706 161.18 143.639C161.848 141.067 162 139.84 162 137.013C162 134.186 161.848 132.959 161.18 130.387C158.587 120.408 150.183 112.85 139.902 111.251C138.77 111.075 134.963 110.935 133.911 111.031ZM138.215 114.8C142.872 115.283 147.259 117.203 150.807 120.31C154.003 123.109 156.543 127.227 157.586 131.299C158.159 133.538 158.273 134.485 158.273 137.013C158.273 139.478 158.16 140.461 157.639 142.537C156.595 146.696 154.026 150.899 150.807 153.715C145.256 158.571 137.819 160.421 130.769 158.701C124.233 157.107 118.894 152.803 115.94 146.749C111.978 138.628 113.284 129.086 119.298 122.215C122.244 118.849 126.632 116.247 131.048 115.249C133.322 114.735 135.982 114.569 138.215 114.8ZM127.861 125.971C127.357 126.184 127.118 126.492 125.051 129.595L123.033 132.627V133.299C123.033 134.026 123.225 134.4 123.834 134.854C124.153 135.092 124.218 135.094 136.005 135.094C147.792 135.094 147.856 135.092 148.176 134.854C148.787 134.398 148.977 134.026 148.977 133.291C148.977 132.555 148.787 132.184 148.176 131.728C147.858 131.491 147.747 131.488 138.091 131.457L128.328 131.426L129.345 129.9C130.33 128.421 130.362 128.352 130.362 127.7C130.362 126.979 130.169 126.599 129.578 126.158C129.225 125.894 128.287 125.792 127.861 125.971ZM124.074 139.036C122.983 139.514 122.641 140.996 123.41 141.91C124.01 142.623 123.585 142.596 134.082 142.596H143.684L142.666 144.124C141.679 145.605 141.647 145.673 141.647 146.325C141.647 147.052 141.84 147.426 142.448 147.88C142.897 148.215 143.999 148.216 144.46 147.882C144.641 147.752 145.731 146.241 146.883 144.525L148.977 141.405V140.729C148.977 140 148.785 139.626 148.176 139.172C147.857 138.934 147.771 138.932 136.142 138.906C126.582 138.886 124.363 138.91 124.074 139.036Z" fill="#F85454"/>
</svg>
