<svg width="271" height="271" viewBox="0 0 271 271" fill="none" xmlns="http://www.w3.org/2000/svg">
<circle cx="135.5" cy="135.5" r="135.5" fill="#FFDDDD"/>
<path d="M135.5 271C99.5632 271 65.0982 256.724 39.687 231.313C14.2758 205.902 -9.99696e-07 171.437 0 135.5C9.99696e-07 99.5632 14.2759 65.0982 39.687 39.687C65.0982 14.2759 99.5632 -4.28542e-07 135.5 0V135.5V271Z" fill="#F85454"/>
<circle cx="136" cy="136" r="79" fill="white"/>
<path fill-rule="evenodd" clip-rule="evenodd" d="M114.308 111.139C113.502 111.341 112.899 111.687 112.292 112.294C111.666 112.92 111.288 113.609 111.114 114.441C110.961 115.172 110.963 155.835 111.116 156.554C111.468 158.204 112.789 159.531 114.432 159.884C115.148 160.038 155.84 160.039 156.568 159.885C158.191 159.542 159.547 158.181 159.887 156.554C160.039 155.822 160.037 115.157 159.884 114.441C159.532 112.786 158.207 111.455 156.568 111.109C155.794 110.946 114.962 110.974 114.308 111.139ZM156.36 114.077C156.603 114.202 156.806 114.406 156.93 114.65C157.113 115.011 157.123 115.21 157.123 118.779V122.529H135.5H113.878L113.882 118.759C113.886 114.513 113.88 114.552 114.604 114.112L114.978 113.885L135.48 113.884C155.839 113.884 155.985 113.885 156.36 114.077ZM117.586 116.964C117.182 117.178 116.843 117.745 116.843 118.207C116.843 118.937 117.551 119.647 118.279 119.647C118.753 119.647 119.304 119.308 119.521 118.881C119.627 118.673 119.714 118.369 119.714 118.207C119.714 117.73 119.375 117.177 118.951 116.959C118.479 116.718 118.048 116.719 117.586 116.964ZM123.326 116.964C122.923 117.178 122.584 117.745 122.584 118.207C122.584 118.937 123.291 119.647 124.019 119.647C124.747 119.647 125.454 118.937 125.454 118.207C125.454 117.73 125.116 117.177 124.691 116.959C124.22 116.718 123.788 116.719 123.326 116.964ZM129.067 116.964C128.663 117.178 128.324 117.745 128.324 118.207C128.324 118.369 128.411 118.673 128.517 118.881C128.734 119.308 129.285 119.647 129.76 119.647C130.488 119.647 131.195 118.937 131.195 118.207C131.195 117.73 130.856 117.177 130.432 116.959C129.96 116.718 129.529 116.719 129.067 116.964ZM143.418 116.964C143.014 117.178 142.676 117.745 142.676 118.207C142.676 118.683 143.014 119.237 143.439 119.454C143.801 119.64 143.995 119.647 148.416 119.647C152.838 119.647 153.031 119.64 153.394 119.454C153.818 119.237 154.157 118.683 154.157 118.207C154.157 117.73 153.818 117.177 153.394 116.959C153.03 116.773 152.842 116.766 148.396 116.77C143.985 116.774 143.76 116.783 143.418 116.964ZM157.123 140.688C157.123 155.81 157.121 155.97 156.93 156.345C156.806 156.589 156.603 156.793 156.36 156.918C155.985 157.11 155.839 157.111 135.493 157.111H115.004L114.622 156.896C114.398 156.769 114.165 156.533 114.059 156.323C113.883 155.977 113.878 155.499 113.878 140.688V125.411H135.5H157.123V140.688ZM139.094 129.951C138.846 130.093 138.647 130.313 138.507 130.598C138.391 130.836 136.375 135.533 134.028 141.037C131.442 147.1 129.76 151.162 129.76 151.343C129.76 151.824 130.097 152.377 130.522 152.595C131.285 152.986 132.086 152.719 132.473 151.946C133.166 150.564 141.241 131.437 141.241 131.179C141.241 130.698 140.903 130.145 140.478 129.927C139.989 129.677 139.562 129.684 139.094 129.951ZM126.257 134.229C126.094 134.319 124.298 135.729 122.266 137.362C118.463 140.42 118.279 140.6 118.279 141.261C118.279 141.922 118.463 142.102 122.266 145.16C124.298 146.793 126.094 148.203 126.257 148.293C127.138 148.78 128.324 148.055 128.324 147.032C128.324 146.378 128.101 146.151 125.057 143.708C123.434 142.405 122.106 141.304 122.106 141.261C122.106 141.218 123.434 140.117 125.057 138.814C128.101 136.371 128.324 136.143 128.324 135.49C128.324 134.467 127.138 133.742 126.257 134.229ZM143.418 134.255C143.017 134.468 142.676 135.035 142.676 135.49C142.676 136.143 142.899 136.371 145.943 138.814C147.566 140.117 148.895 141.218 148.895 141.261C148.895 141.304 147.566 142.405 145.943 143.708C142.899 146.151 142.676 146.378 142.676 147.032C142.676 148.055 143.862 148.78 144.743 148.293C144.906 148.203 146.702 146.793 148.734 145.16C152.537 142.102 152.722 141.922 152.722 141.261C152.722 140.6 152.537 140.42 148.734 137.362C146.702 135.729 144.906 134.319 144.743 134.229C144.35 134.012 143.858 134.021 143.418 134.255Z" fill="#F85454"/>
<mask id="mask0_26:148" style="mask-type:alpha" maskUnits="userSpaceOnUse" x="136" y="97" width="40" height="77">
<rect x="136" y="97" width="40" height="77" fill="#C4C4C4"/>
</mask>
<g mask="url(#mask0_26:148)">
<path fill-rule="evenodd" clip-rule="evenodd" d="M114.308 111.139C113.502 111.341 112.899 111.687 112.292 112.294C111.666 112.92 111.288 113.609 111.114 114.441C110.961 115.172 110.963 155.835 111.116 156.554C111.468 158.204 112.789 159.531 114.432 159.884C115.148 160.038 155.84 160.039 156.568 159.885C158.191 159.542 159.547 158.181 159.887 156.554C160.039 155.822 160.037 115.157 159.884 114.441C159.532 112.786 158.207 111.455 156.568 111.109C155.794 110.946 114.962 110.974 114.308 111.139ZM156.36 114.077C156.603 114.202 156.806 114.406 156.93 114.65C157.113 115.011 157.123 115.21 157.123 118.779V122.529H135.5H113.878L113.882 118.759C113.886 114.513 113.88 114.552 114.604 114.112L114.978 113.885L135.48 113.884C155.839 113.884 155.985 113.885 156.36 114.077ZM117.586 116.964C117.182 117.178 116.843 117.745 116.843 118.207C116.843 118.937 117.551 119.647 118.279 119.647C118.753 119.647 119.304 119.308 119.521 118.881C119.627 118.673 119.714 118.369 119.714 118.207C119.714 117.73 119.375 117.177 118.951 116.959C118.479 116.718 118.048 116.719 117.586 116.964ZM123.326 116.964C122.923 117.178 122.584 117.745 122.584 118.207C122.584 118.937 123.291 119.647 124.019 119.647C124.747 119.647 125.454 118.937 125.454 118.207C125.454 117.73 125.116 117.177 124.691 116.959C124.22 116.718 123.788 116.719 123.326 116.964ZM129.067 116.964C128.663 117.178 128.324 117.745 128.324 118.207C128.324 118.369 128.411 118.673 128.517 118.881C128.734 119.308 129.285 119.647 129.76 119.647C130.488 119.647 131.195 118.937 131.195 118.207C131.195 117.73 130.856 117.177 130.432 116.959C129.96 116.718 129.529 116.719 129.067 116.964ZM143.418 116.964C143.014 117.178 142.676 117.745 142.676 118.207C142.676 118.683 143.014 119.237 143.439 119.454C143.801 119.64 143.995 119.647 148.416 119.647C152.838 119.647 153.031 119.64 153.394 119.454C153.818 119.237 154.157 118.683 154.157 118.207C154.157 117.73 153.818 117.177 153.394 116.959C153.03 116.773 152.842 116.766 148.396 116.77C143.985 116.774 143.76 116.783 143.418 116.964ZM157.123 140.688C157.123 155.81 157.121 155.97 156.93 156.345C156.806 156.589 156.603 156.793 156.36 156.918C155.985 157.11 155.839 157.111 135.493 157.111H115.004L114.622 156.896C114.398 156.769 114.165 156.533 114.059 156.323C113.883 155.977 113.878 155.499 113.878 140.688V125.411H135.5H157.123V140.688ZM139.094 129.951C138.846 130.093 138.647 130.313 138.507 130.598C138.391 130.836 136.375 135.533 134.028 141.037C131.442 147.1 129.76 151.162 129.76 151.343C129.76 151.824 130.097 152.377 130.522 152.595C131.285 152.986 132.086 152.719 132.473 151.946C133.166 150.564 141.241 131.437 141.241 131.179C141.241 130.698 140.903 130.145 140.478 129.927C139.989 129.677 139.562 129.684 139.094 129.951ZM126.257 134.229C126.094 134.319 124.298 135.729 122.266 137.362C118.463 140.42 118.279 140.6 118.279 141.261C118.279 141.922 118.463 142.102 122.266 145.16C124.298 146.793 126.094 148.203 126.257 148.293C127.138 148.78 128.324 148.055 128.324 147.032C128.324 146.378 128.101 146.151 125.057 143.708C123.434 142.405 122.106 141.304 122.106 141.261C122.106 141.218 123.434 140.117 125.057 138.814C128.101 136.371 128.324 136.143 128.324 135.49C128.324 134.467 127.138 133.742 126.257 134.229ZM143.418 134.255C143.017 134.468 142.676 135.035 142.676 135.49C142.676 136.143 142.899 136.371 145.943 138.814C147.566 140.117 148.895 141.218 148.895 141.261C148.895 141.304 147.566 142.405 145.943 143.708C142.899 146.151 142.676 146.378 142.676 147.032C142.676 148.055 143.862 148.78 144.743 148.293C144.906 148.203 146.702 146.793 148.734 145.16C152.537 142.102 152.722 141.922 152.722 141.261C152.722 140.6 152.537 140.42 148.734 137.362C146.702 135.729 144.906 134.319 144.743 134.229C144.35 134.012 143.858 134.021 143.418 134.255Z" fill="#FFDDDD"/>
</g>
</svg>
