<svg width="271" height="271" viewBox="0 0 271 271" fill="none" xmlns="http://www.w3.org/2000/svg">
<circle r="135.5" transform="matrix(-1 0 0 1 135.5 135.5)" fill="#FFDDDD"/>
<path d="M135.5 271C171.437 271 205.902 256.724 231.313 231.313C256.724 205.902 271 171.437 271 135.5C271 99.5632 256.724 65.0982 231.313 39.687C205.902 14.2759 171.437 -4.28542e-07 135.5 0V135.5V271Z" fill="#F85454"/>
<circle cx="136" cy="136" r="79" fill="white"/>
<path fill-rule="evenodd" clip-rule="evenodd" d="M145.772 104.118C145.304 104.33 144.821 104.918 144.734 105.381C144.695 105.587 144.68 106.646 144.7 107.734C144.741 109.895 144.779 110.026 145.533 110.587C145.986 110.924 146.924 110.915 147.412 110.568C148.069 110.101 148.149 109.759 148.149 107.43C148.149 105.097 148.071 104.746 147.457 104.31C147.006 103.99 146.248 103.903 145.772 104.118ZM133.693 106.273C132.217 106.582 130.819 107.708 130.127 109.146C129.774 109.881 129.708 110.15 129.666 111.019C129.611 112.156 129.744 112.846 130.187 113.732L130.488 114.333L130.173 115.636C128.786 121.373 126.027 126.731 122.196 131.125C121.753 131.633 119.013 134.436 116.107 137.354C112.694 140.781 110.736 142.832 110.577 143.146C109.762 144.76 109.814 146.746 110.709 148.226C110.928 148.587 112.293 150.04 114.093 151.827C116.825 154.539 117.186 154.857 117.913 155.191C118.58 155.497 118.896 155.569 119.77 155.611C121.565 155.697 122.578 155.276 124.13 153.799L125.033 152.94L129.623 157.504C132.284 160.15 134.432 162.193 134.734 162.364C136.701 163.481 139.326 163.095 140.935 161.451C142.079 160.283 142.634 158.585 142.374 157.049C142.125 155.568 141.741 154.997 139.407 152.637L137.298 150.503L138.022 149.742C139.467 148.223 139.938 147.205 139.938 145.601C139.938 144.09 139.502 143.05 138.333 141.775C138.007 141.419 137.741 141.102 137.741 141.069C137.741 141.037 138.222 140.703 138.81 140.328C142.577 137.921 146.503 136.322 151.207 135.28C151.331 135.252 151.747 135.38 152.132 135.563C154.174 136.534 156.509 136.139 158.075 134.558C159.726 132.891 160.058 130.499 158.935 128.366C158.703 127.925 156.151 125.303 148.617 117.767C143.112 112.259 138.308 107.527 137.942 107.25C137.576 106.973 136.983 106.637 136.623 106.503C135.873 106.223 134.462 106.112 133.693 106.273ZM155.897 107.745C155.034 108.307 151.907 111.562 151.74 112.073C151.336 113.303 152.465 114.535 153.772 114.291C154.144 114.221 154.527 113.899 156.206 112.241C157.303 111.159 158.28 110.104 158.378 109.897C158.909 108.782 158.199 107.565 156.952 107.454C156.508 107.414 156.329 107.463 155.897 107.745ZM135.391 109.735C135.828 109.897 155.755 129.744 155.966 130.228C156.196 130.754 156.167 131.292 155.882 131.758C155.574 132.262 155.373 132.417 154.827 132.57C153.861 132.841 154.339 133.269 143.448 122.391C137.905 116.854 133.313 112.211 133.242 112.073C133.172 111.934 133.115 111.592 133.115 111.311C133.115 110.144 134.293 109.328 135.391 109.735ZM148.38 132.365C148.38 132.413 148.3 132.452 148.201 132.452C147.807 132.452 143.828 133.849 142.309 134.521C139.296 135.853 136.067 137.814 133.591 139.814L132.391 140.784L128.651 137.051L124.911 133.317L125.84 132.164C127.688 129.869 129.323 127.278 130.623 124.583C131.638 122.478 132.118 121.269 132.766 119.188C133.033 118.331 133.275 117.555 133.304 117.463C133.338 117.356 136.062 119.994 140.868 124.787C145 128.907 148.38 132.317 148.38 132.365ZM155.983 118.06C155.142 118.546 154.861 119.714 155.41 120.447C155.955 121.174 156.067 121.203 158.478 121.237C160.602 121.266 160.715 121.256 161.147 121.006C161.764 120.648 162.054 120.09 161.992 119.381C161.935 118.736 161.662 118.318 161.099 118.017C160.751 117.831 160.425 117.804 158.559 117.806C156.572 117.809 156.386 117.827 155.983 118.06ZM125.511 147.482C123.11 149.881 121.005 151.919 120.833 152.01C120.434 152.221 119.662 152.222 119.26 152.012C119.089 151.922 117.743 150.637 116.27 149.157C113.99 146.866 113.579 146.402 113.51 146.033C113.313 144.984 113.218 145.105 118.059 140.266L122.531 135.796L126.204 139.458L129.877 143.12L125.511 147.482ZM121.724 141.666C121.533 141.785 120.719 142.55 119.916 143.367C118.339 144.969 118.2 145.218 118.422 146.042C118.573 146.6 119.188 147.174 119.746 147.279C120.548 147.429 120.828 147.265 122.397 145.73C123.215 144.929 123.964 144.123 124.06 143.938C124.321 143.439 124.212 142.453 123.853 142.071C123.251 141.428 122.373 141.261 121.724 141.666ZM135.563 143.957C136.344 144.757 136.469 144.982 136.469 145.599C136.469 146.225 136.276 146.563 135.463 147.359L134.786 148.022L133.575 146.802L132.363 145.583L133.565 144.438C134.226 143.809 134.8 143.294 134.841 143.294C134.881 143.294 135.206 143.592 135.563 143.957ZM134.361 152.553C139.152 157.333 139.154 157.336 138.9 158.276C138.757 158.807 138.156 159.383 137.625 159.5C136.682 159.706 136.735 159.748 131.929 154.966L127.448 150.507L128.631 149.323C129.282 148.671 129.842 148.138 129.875 148.138C129.908 148.138 131.927 150.125 134.361 152.553Z" fill="#F85454"/>
<mask id="mask0_26:160" style="mask-type:alpha" maskUnits="userSpaceOnUse" x="101" y="104" width="37" height="65">
<rect x="101" y="104" width="37" height="65" fill="#C4C4C4"/>
</mask>
<g mask="url(#mask0_26:160)">
<path fill-rule="evenodd" clip-rule="evenodd" d="M145.772 104.118C145.304 104.33 144.821 104.918 144.734 105.381C144.695 105.587 144.68 106.646 144.7 107.734C144.741 109.895 144.779 110.026 145.533 110.587C145.986 110.924 146.924 110.915 147.412 110.568C148.069 110.101 148.149 109.759 148.149 107.43C148.149 105.097 148.071 104.746 147.457 104.31C147.006 103.99 146.248 103.903 145.772 104.118ZM133.693 106.273C132.217 106.582 130.819 107.708 130.127 109.146C129.774 109.881 129.708 110.15 129.666 111.019C129.611 112.156 129.744 112.846 130.187 113.732L130.488 114.333L130.173 115.636C128.786 121.373 126.027 126.731 122.196 131.125C121.753 131.633 119.013 134.436 116.107 137.354C112.694 140.781 110.736 142.832 110.577 143.146C109.762 144.76 109.814 146.746 110.709 148.226C110.928 148.587 112.293 150.04 114.093 151.827C116.825 154.539 117.186 154.857 117.913 155.191C118.58 155.497 118.896 155.569 119.77 155.611C121.565 155.697 122.578 155.276 124.13 153.799L125.033 152.94L129.623 157.504C132.284 160.15 134.432 162.193 134.734 162.364C136.701 163.481 139.326 163.095 140.935 161.451C142.079 160.283 142.634 158.585 142.374 157.049C142.125 155.568 141.741 154.997 139.407 152.637L137.298 150.503L138.022 149.742C139.467 148.223 139.938 147.205 139.938 145.601C139.938 144.09 139.502 143.05 138.333 141.775C138.007 141.419 137.741 141.102 137.741 141.069C137.741 141.037 138.222 140.703 138.81 140.328C142.577 137.921 146.503 136.322 151.207 135.28C151.331 135.252 151.747 135.38 152.132 135.563C154.174 136.534 156.509 136.139 158.075 134.558C159.726 132.891 160.058 130.499 158.935 128.366C158.703 127.925 156.151 125.303 148.617 117.767C143.112 112.259 138.308 107.527 137.942 107.25C137.576 106.973 136.983 106.637 136.623 106.503C135.873 106.223 134.462 106.112 133.693 106.273ZM155.897 107.745C155.034 108.307 151.907 111.562 151.74 112.073C151.336 113.303 152.465 114.535 153.772 114.291C154.144 114.221 154.527 113.899 156.206 112.241C157.303 111.159 158.28 110.104 158.378 109.897C158.909 108.782 158.199 107.565 156.952 107.454C156.508 107.414 156.329 107.463 155.897 107.745ZM135.391 109.735C135.828 109.897 155.755 129.744 155.966 130.228C156.196 130.754 156.167 131.292 155.882 131.758C155.574 132.262 155.373 132.417 154.827 132.57C153.861 132.841 154.339 133.269 143.448 122.391C137.905 116.854 133.313 112.211 133.242 112.073C133.172 111.934 133.115 111.592 133.115 111.311C133.115 110.144 134.293 109.328 135.391 109.735ZM148.38 132.365C148.38 132.413 148.3 132.452 148.201 132.452C147.807 132.452 143.828 133.849 142.309 134.521C139.296 135.853 136.067 137.814 133.591 139.814L132.391 140.784L128.651 137.051L124.911 133.317L125.84 132.164C127.688 129.869 129.323 127.278 130.623 124.583C131.638 122.478 132.118 121.269 132.766 119.188C133.033 118.331 133.275 117.555 133.304 117.463C133.338 117.356 136.062 119.994 140.868 124.787C145 128.907 148.38 132.317 148.38 132.365ZM155.983 118.06C155.142 118.546 154.861 119.714 155.41 120.447C155.955 121.174 156.067 121.203 158.478 121.237C160.602 121.266 160.715 121.256 161.147 121.006C161.764 120.648 162.054 120.09 161.992 119.381C161.935 118.736 161.662 118.318 161.099 118.017C160.751 117.831 160.425 117.804 158.559 117.806C156.572 117.809 156.386 117.827 155.983 118.06ZM125.511 147.482C123.11 149.881 121.005 151.919 120.833 152.01C120.434 152.221 119.662 152.222 119.26 152.012C119.089 151.922 117.743 150.637 116.27 149.157C113.99 146.866 113.579 146.402 113.51 146.033C113.313 144.984 113.218 145.105 118.059 140.266L122.531 135.796L126.204 139.458L129.877 143.12L125.511 147.482ZM121.724 141.666C121.533 141.785 120.719 142.55 119.916 143.367C118.339 144.969 118.2 145.218 118.422 146.042C118.573 146.6 119.188 147.174 119.746 147.279C120.548 147.429 120.828 147.265 122.397 145.73C123.215 144.929 123.964 144.123 124.06 143.938C124.321 143.439 124.212 142.453 123.853 142.071C123.251 141.428 122.373 141.261 121.724 141.666ZM135.563 143.957C136.344 144.757 136.469 144.982 136.469 145.599C136.469 146.225 136.276 146.563 135.463 147.359L134.786 148.022L133.575 146.802L132.363 145.583L133.565 144.438C134.226 143.809 134.8 143.294 134.841 143.294C134.881 143.294 135.206 143.592 135.563 143.957ZM134.361 152.553C139.152 157.333 139.154 157.336 138.9 158.276C138.757 158.807 138.156 159.383 137.625 159.5C136.682 159.706 136.735 159.748 131.929 154.966L127.448 150.507L128.631 149.323C129.282 148.671 129.842 148.138 129.875 148.138C129.908 148.138 131.927 150.125 134.361 152.553Z" fill="#FFDDDD"/>
</g>
</svg>
