<svg width="28" height="28" viewBox="0 0 28 28" fill="none" xmlns="http://www.w3.org/2000/svg">
<circle cx="14" cy="14" r="14" fill="#161228"/>
<path d="M11.0003 8.04332C10.9999 8.28671 11.0846 8.52258 11.2399 8.70998L15.9066 14.2933L11.4066 19.8871C11.3201 19.9936 11.2554 20.1162 11.2165 20.2478C11.1775 20.3794 11.1649 20.5174 11.1794 20.6539C11.1939 20.7904 11.2353 20.9227 11.3011 21.0431C11.3669 21.1636 11.4558 21.2699 11.5628 21.3558C11.6694 21.4423 11.792 21.507 11.9236 21.546C12.0552 21.5849 12.1932 21.5975 12.3297 21.583C12.4662 21.5685 12.5985 21.5272 12.7189 21.4613C12.8394 21.3955 12.9456 21.3066 13.0316 21.1996L18.0628 14.9496C18.216 14.7632 18.2998 14.5294 18.2998 14.2881C18.2998 14.0468 18.216 13.813 18.0628 13.6267L12.8545 7.37665C12.7671 7.27118 12.6597 7.18398 12.5385 7.12008C12.4173 7.05617 12.2847 7.0168 12.1482 7.00422C12.0118 6.99164 11.8742 7.0061 11.7434 7.04677C11.6125 7.08744 11.491 7.15352 11.3858 7.24123C11.2663 7.33817 11.1697 7.46037 11.1031 7.59905C11.0364 7.73773 11.0014 7.88946 11.0003 8.04332Z" fill="#8386C6"/>
</svg>
