<svg width="37" height="30" viewBox="0 0 37 30" fill="none" xmlns="http://www.w3.org/2000/svg">
<path d="M34.2309 12.3682C32.7992 7.44928 31.1847 4.90769 31.1586 4.8621C31.0666 4.74976 28.7851 2.01948 23.2862 0L22.5596 1.97831C25.1756 2.93908 27.0315 4.11117 28.0522 4.86849C25.005 3.95851 21.3799 3.4012 18.1692 3.4012C14.9585 3.4012 11.3334 3.95851 8.28615 4.86849C9.30677 4.11124 11.1627 2.93908 13.7787 1.97831L13.0521 0C7.55334 2.01948 5.27183 4.74976 5.1798 4.8621C5.15373 4.90769 3.53912 7.44928 2.10752 12.3682C0.727762 17.1086 0.203609 23.7958 0.18457 24.064C0.307512 24.2562 3.13517 29.0839 10.8414 29.0839L12.7947 26.2554C10.6063 25.6744 8.5196 24.7373 6.60943 23.4658L7.77724 21.7114C10.8589 23.7626 14.4523 24.8469 18.1692 24.8469C21.886 24.8469 25.4795 23.7626 28.5611 21.7114L29.7289 23.4658C27.8188 24.7373 25.7321 25.6744 23.5437 26.2554L25.497 29.0839C33.2032 29.0839 36.0309 24.2562 36.1538 24.064C36.1348 23.7958 35.6106 17.1086 34.2309 12.3682ZM13.2966 17.8818H11.189V14.3691H13.2966V17.8818ZM25.1493 17.8818H23.0418V14.3691H25.1493V17.8818Z" fill="white"/>
</svg>
