<?xml version="1.0" standalone="no"?>
<!DOCTYPE svg PUBLIC "-//W3C//DTD SVG 20010904//EN"
 "http://www.w3.org/TR/2001/REC-SVG-20010904/DTD/svg10.dtd">
<svg version="1.0" xmlns="http://www.w3.org/2000/svg"
 width="74.000000pt" height="74.000000pt" viewBox="0 0 74.000000 74.000000"
 preserveAspectRatio="xMidYMid meet">
<metadata>
Created by potrace 1.14, written by Peter Selinger 2001-2017
</metadata>
<g transform="translate(0.000000,74.000000) scale(0.100000,-0.100000)"
fill="#000000" stroke="none">
<path d="M357 733 c-12 -11 -8 -41 7 -46 7 -3 26 3 42 14 16 10 38 19 49 20
l20 0 -20 9 c-24 10 -89 13 -98 3z"/>
<path d="M263 705 c-15 -14 -23 -35 -24 -63 -2 -27 -8 -42 -16 -42 -16 0 -17
-12 -1 -28 18 -18 38 -14 38 6 0 33 59 71 61 40 0 -7 2 -20 4 -28 2 -8 6 -34
10 -57 l8 -43 -37 0 c-23 0 -35 4 -31 10 4 6 16 10 27 8 38 -5 29 17 -13 30
-42 13 -64 9 -53 -11 4 -7 -7 3 -24 21 -35 35 -43 37 -73 21 -16 -8 -25 -7
-39 6 -16 15 -18 14 -23 -12 -4 -20 2 -39 20 -67 19 -29 22 -41 13 -46 -9 -6
-7 -11 7 -18 29 -16 50 1 36 30 -10 22 -1 68 13 68 3 0 24 -16 47 -35 22 -19
44 -35 49 -35 4 0 8 -5 8 -11 0 -13 -40 -48 -55 -48 -5 0 1 9 14 20 20 16 22
22 11 32 -10 9 -13 9 -17 0 -3 -7 -15 -13 -28 -13 -14 0 -29 -9 -35 -20 -6
-11 -18 -19 -28 -18 -39 3 -53 -3 -62 -27 -6 -16 -17 -25 -32 -25 -16 0 -19
-3 -11 -11 6 -6 9 -17 7 -24 -4 -8 12 -17 45 -25 36 -8 48 -16 44 -26 -6 -17
18 -19 35 -2 18 18 15 38 -6 38 -19 0 -50 45 -39 56 3 4 36 7 72 8 64 2 65 2
65 -23 0 -15 -5 -33 -11 -41 -8 -12 -9 -8 -7 15 2 22 -2 31 -16 33 -12 3 -16
0 -11 -8 4 -6 1 -19 -7 -28 -8 -9 -15 -28 -16 -41 0 -13 -10 -30 -22 -38 -16
-11 -21 -24 -18 -49 2 -24 -3 -38 -17 -48 -20 -15 -20 -15 2 -16 12 0 23 -5
25 -12 3 -8 17 -6 48 10 33 16 46 18 52 9 10 -17 31 5 26 29 -3 15 -11 18 -41
16 -58 -5 -58 19 -1 72 52 47 65 47 78 -4 l7 -25 -21 24 c-16 18 -24 21 -32
13 -9 -9 -9 -12 1 -12 8 0 11 -7 8 -19 -3 -11 3 -30 11 -43 9 -13 15 -31 14
-42 -6 -31 7 -66 24 -66 13 0 15 -7 10 -31 -5 -26 -4 -29 8 -20 8 6 20 10 27
9 8 -2 23 16 34 40 11 23 25 40 31 38 19 -7 25 22 8 39 -14 13 -14 17 2 33 17
16 18 16 11 0 -3 -10 -3 -18 2 -18 4 0 13 -12 19 -26 10 -20 18 -25 40 -22 20
2 32 -4 44 -22 14 -20 18 -21 18 -7 0 9 5 17 10 17 13 0 13 41 -1 77 -7 19 -7
29 0 31 18 6 12 29 -8 35 -25 6 -31 0 -31 -33 0 -45 -43 -69 -55 -31 -3 11
-17 35 -30 55 -25 37 -21 48 23 59 15 3 22 1 19 -6 -2 -7 -12 -11 -21 -11 -9
1 -16 -6 -16 -16 0 -16 6 -18 38 -14 54 8 64 12 57 25 -4 6 7 3 24 -6 34 -17
66 -13 75 10 4 11 11 13 30 5 24 -9 25 -7 21 22 -2 16 -5 31 -7 32 -2 2 -18
13 -36 25 -18 12 -30 27 -26 32 10 18 -28 23 -41 5 -11 -15 -13 -14 -17 8 -3
14 -2 25 1 24 39 -4 71 21 71 58 0 17 5 24 20 24 25 0 25 5 -1 31 -17 17 -28
19 -61 14 -29 -5 -43 -3 -48 6 -7 10 -11 10 -24 0 -20 -17 -9 -41 19 -41 27 0
49 -24 41 -45 -3 -8 -13 -15 -23 -15 -10 0 -35 -9 -55 -20 -37 -19 -38 -19
-48 -1 -13 24 -14 69 -1 56 5 -6 11 -19 13 -29 1 -11 9 -21 17 -24 10 -3 12 0
8 12 -4 9 -2 28 3 42 7 18 7 31 0 39 -7 9 -6 21 7 43 16 28 16 31 -1 57 -13
20 -15 30 -7 38 18 18 13 24 -18 25 -19 0 -38 -9 -56 -28 -15 -16 -33 -26 -41
-23 -18 7 -30 -25 -15 -40 9 -9 16 -9 31 1 24 15 57 16 65 2 3 -5 -5 -29 -19
-53 -15 -24 -26 -51 -26 -60 0 -14 -4 -15 -23 -6 -13 6 -29 19 -35 30 -12 18
-11 19 7 10 10 -6 21 -16 23 -23 3 -8 10 -4 17 11 9 15 9 21 2 16 -7 -4 -16 6
-22 24 -7 20 -18 31 -29 31 -14 0 -20 9 -22 33 -2 24 -10 36 -33 47 -16 9 -32
24 -33 35 -5 25 -3 25 -29 0z m141 -246 c-9 -15 -44 -11 -38 5 3 8 13 12 25 9
10 -3 16 -9 13 -14z m-64 -9 c-6 -11 -15 -20 -20 -20 -14 0 -12 27 3 33 23 10
28 7 17 -13z m104 -6 c9 -3 16 -13 16 -20 0 -12 -4 -12 -20 -4 -11 6 -20 15
-20 20 0 12 3 12 24 4z m-20 -36 c15 -20 15 -28 2 -65 -15 -47 -99 -38 -112
11 -16 66 71 110 110 54z m-124 -3 c0 -14 -4 -25 -10 -25 -11 0 -14 33 -3 43
11 11 13 8 13 -18z m173 -42 c-5 -12 -7 -12 -14 -1 -5 7 -9 19 -9 27 0 11 3
11 14 1 8 -6 12 -18 9 -27z m52 7 c-24 -26 0 -36 27 -10 35 32 78 12 78 -37 0
-27 -10 -28 -70 -7 -25 9 -51 18 -58 20 -10 3 -9 10 3 34 9 17 20 28 26 24 6
-4 4 -13 -6 -24z m-227 -22 c14 -14 16 -28 2 -28 -5 0 -14 9 -20 20 -12 22 -1
27 18 8z m162 -16 c0 -5 -7 -17 -15 -28 -15 -19 -20 -8 -9 20 6 17 24 22 24 8z
m-109 -45 c-11 -11 -41 -3 -41 11 0 5 12 7 26 4 17 -3 22 -8 15 -15z m59 4 c0
-5 -7 -12 -16 -15 -24 -9 -28 -7 -14 9 14 17 30 20 30 6z m14 -61 c7 -7 2 -10
-12 -10 -12 0 -22 5 -22 11 0 5 -4 7 -10 4 -5 -3 -10 -13 -10 -21 0 -8 4 -13
9 -10 5 3 16 -6 26 -20 15 -24 15 -27 0 -50 -22 -34 -61 -30 -58 6 2 14 4 44
5 68 3 42 4 43 33 38 16 -4 34 -11 39 -16z"/>
<path d="M182 683 c-43 -28 -61 -58 -45 -74 15 -15 43 1 49 30 4 14 16 36 27
49 27 29 20 28 -31 -5z"/>
<path d="M566 651 c-8 -13 4 -41 18 -42 30 -2 61 -10 73 -20 27 -23 12 9 -20
39 -33 32 -61 41 -71 23z"/>
<path d="M29 486 c-20 -61 -15 -88 15 -84 22 3 23 7 9 88 l-8 45 -16 -49z"/>
<path d="M680 440 c0 -10 9 -27 20 -37 10 -10 23 -30 29 -43 9 -22 10 -21 10
18 1 24 -4 52 -9 63 -14 26 -50 25 -50 -1z"/>
<path d="M30 257 c29 -80 54 -104 79 -73 10 11 5 20 -26 43 -21 15 -44 35 -51
43 -10 12 -10 10 -2 -13z"/>
<path d="M650 219 c-7 -11 -9 -27 -6 -35 3 -8 1 -26 -5 -41 l-10 -27 22 19
c30 28 50 77 37 93 -15 17 -26 15 -38 -9z"/>
<path d="M193 58 c31 -25 87 -34 98 -17 14 23 -9 34 -66 34 -54 0 -54 0 -32
-17z"/>
<path d="M461 56 c-8 -13 -23 -29 -35 -35 -17 -9 -14 -10 19 -5 53 8 75 21 75
44 0 30 -43 26 -59 -4z"/>
</g>
</svg>
