<svg version="1.0" xmlns="http://www.w3.org/2000/svg" width="1333.333" height="1333.333" viewBox="0 0 1000 1000"><path d="M386.1 289.6c-5.1 4.5-17.6 20.9-24.3 31.6-11.4 18.3-22 44.2-26.4 64.8-2.8 12.6-2.6 40.3.3 52 5.6 22.5 21.6 50.2 39.3 68 12.8 12.8 31.1 27.2 31.8 25 .2-.6-2.7-4.9-6.6-9.8-3.8-4.8-8.8-11.6-11.2-15.2-2.4-3.6-8.1-11.7-12.7-18.1-13.5-19-19.7-32.3-22.9-48.7-5.4-28.4 5.1-64.3 27.4-93.7 4.8-6.3 19.1-21.5 20.2-21.5.4 0 6.7 3.4 14 7.6 14.3 8.2 20 10.9 20 9.6 0-1.5-10.2-17.4-16.9-26.2-8.3-11.1-24.8-29-26.7-29-.8 0-3.2 1.6-5.3 3.6zm217.6 3.6c-13.7 14.7-35.6 46.2-33.5 48.3.2.2 3-1.3 6.3-3.4 11.6-7.4 26.4-15.1 28.9-15.1 7 0 33.1 41 40 63 6.1 19.2 5 39-3.4 64.1-6.2 18.6-15.5 34.2-37.9 63.8-12.3 16.4-14.8 20.2-11.8 18.5 40.1-23.7 70-64.9 77.3-106.7 2.9-16.6.4-42.6-6.3-64.7-5.5-18.5-20-46.3-28.8-55.4-5.4-5.6-22.1-18.6-23.9-18.6-.6 0-3.7 2.8-6.9 6.2z"/><path d="M489.4 319.8c-44.3 34.1-58.7 48.5-76.5 76.7-15.9 25.3-19.4 42.5-15.3 74.7 2 15.5 3.8 21 12.6 37.8 7.9 15 8.6 16.1 23.7 37.5 10.9 15.4 26 31.7 35.4 38.4 4.8 3.3 4.7 3.1-3.8-7-42.3-50.5-52.6-105-28.8-151.8 6.6-12.9 14.6-23.3 28.8-37.7 14.4-14.5 36.8-34.4 38.8-34.4 1.7 0 27.6 26.5 37.2 38 15.2 18.3 25.8 37 31.1 54.5 2.5 8.2 2.7 10.4 2.7 25.5 0 19.3-1.8 31.5-6.9 46.9-4.4 13.4-19 41.8-26 50.7-7.7 9.9-8.4 11.4-3.8 7.7 18.4-14.6 49.5-58.1 61.3-85.9 6.3-14.8 7.6-22.1 7.5-41.9 0-16.5-.3-18.7-2.7-27-7-23.1-22.6-48.2-41.9-67.2-16.8-16.6-44.4-38.4-56.4-44.6l-3.1-1.6-13.9 10.7zm-256.9 29.3c-1.8 2.8-2.7 23.5-1.6 34.4 4.9 48.7 32.8 88.8 77.1 111 14.7 7.3 48.3 19.6 49.8 18.1.4-.5.4-.5-16.8-11.1-40.9-25.2-60.1-43.5-73.8-70.2-6.3-12.3-10.6-25.8-12.6-39.5-2-13.3-2.1-18.7-.2-19.4 3.9-1.5 30.9 5.9 49 13.3 5.9 2.4 11 4.3 11.2 4.1.8-.8-5.3-7.3-11.5-12.2-14.8-11.8-38.1-23.5-55.2-27.6-9.3-2.2-14.5-2.5-15.4-.9zm532.5 1.8c-25.7 9.6-57.7 25.3-64.5 31.6-2.8 2.6-4.1 4.4-3 4 1.1-.3 6.5-2.1 12-4 15.1-5 35.6-8 40.9-5.9 3.5 1.3 1.2 24.8-4 40.3-7.6 23.1-23.4 44-45.6 60.4-12.5 9.3-35.6 23.8-48.3 30.5-13.7 7.2-11.8 7.2 7.5 0 37-13.7 65.6-31.2 86.1-52.5 18.3-19.1 28.6-39.1 31.9-62.2 1.5-9.6.8-38-.9-42.4-1.3-3.4-2.6-3.3-12.1.2zm35.2 69.3c-18.6 26.3-35.2 44.6-50.2 55.4-7.6 5.5-18.3 11.8-33.9 20-10.3 5.4-9.2 5.7 20.5 5.2 24.9-.5 27.5-.7 34.9-2.9 16.1-4.9 28.5-14.1 33.8-24.9 3.6-7.6 4.6-15.1 5.3-39.5.5-20 .2-24.5-1.6-24.5-.4 0-4.4 5.1-8.8 11.2zm-600.6-6.5c-1.2 5.7-2.6 22.1-2.6 31.4 0 26.5 15.4 44.9 42.7 50.9 14.5 3.2 47.6 5.4 49.6 3.4.4-.4-3.3-2.9-8.1-5.6-9.8-5.6-13.1-8-21.6-15.2-7.3-6.3-26-27.9-43.6-50.6-7.2-9.4-13.8-17-14.5-17-.7 0-1.6 1.2-1.9 2.7z"/><path d="M826.3 478.5c-13.4 13.6-31.9 24.8-49.5 29.9-14.4 4.1-27.1 5.7-71.3 8.6-28.7 1.9-53 5.7-69.5 10.6-19.2 5.9-57.5 27.9-72.8 41.9-7.1 6.5-24.2 26.2-24.2 27.8 0 .5 3.3-1 7.3-3.3 21.1-11.9 37.3-18.8 55.3-23.5 14.3-3.7 26.3-5.3 49.4-6.5 42.6-2.2 71.4-6.7 98.6-15.6 10.7-3.5 28.8-11.7 37.2-16.9 6.1-3.8 5.6-1.7-3 13.4-10.6 18.7-17.1 28.5-26.3 39.6-9.9 12.1-14.2 16.1-24.8 23-23.3 15.1-43.6 22-73.6 25-20.8 2.1-22 2.7-10.1 5.1 14.3 2.7 45.8 2.5 59.7-.4 30.2-6.5 54.5-20.3 77.3-43.8 24.1-25 39.4-53.6 45.9-85.9 2.6-12.9 4.7-35.3 3.5-36.4-.5-.6-4.3 2.5-9.1 7.4zm-651.7-.8c-1.2 1.2-.6 23.8.9 34.2 4.9 34.3 18.3 60.2 44.2 85.2 17.4 16.8 36.2 28.1 57.9 34.8 16.8 5.2 26.8 6.5 47.4 6.5 18.1 0 27.6-1.1 43-4.8l5.5-1.3-14.5-.7c-37-1.8-52.1-5-73.5-15.2-15.3-7.2-30.2-18-41.1-29.5-13.9-14.9-41.3-57.4-38.6-60.1.5-.5 5.7 2 11.7 5.6 17.8 10.7 41 20 57.8 23.1 4.5.8 21.3 2.4 37.2 3.5 64.5 4.5 82.3 7.8 110 20.2 11.6 5.2 20.5 10.1 31.8 17.6 3.7 2.5 7 4.2 7.4 3.9 1-1.1-8.2-11.3-27.1-30.2-27.3-27.2-40.4-35.5-65.7-41.9-23.7-5.9-60.6-11.5-92.9-14.1-10.7-.8-25.2-2-32.3-2.5-25.7-2.1-40.6-8.8-59.8-26.8-4.8-4.5-8.9-7.8-9.3-7.5zm650.5 102.5c0 .7 5 5.3 11 10.2 6.1 4.9 11.3 9.5 11.7 10.4.8 2.2-6.7 8.7-21.3 18.4-14.2 9.5-20.2 12.6-31 16.1-20.1 6.6-38.7 10.1-64.2 12.2-9.6.8-17.8 1.7-18.1 1.9-1.6 1.6 19.8 6.2 36 7.7 14.2 1.3 36.5.6 48.9-1.6 23.2-4 43.8-15.6 60.2-33.8 10.4-11.5 16.9-19.7 16.5-20.9-.7-2-45.4-21.8-49.4-21.8-.2 0-.4.6-.3 1.2zm-662.9 5.4c-16.5 4.3-37.2 13.1-37.2 15.8 0 4.4 15.3 20.1 28.8 29.6 26.9 19 47.7 25.4 82.2 25.3 19.2 0 43.4-2.8 48.2-5.5 2.1-1.1 1.7-1.3-4.7-2-24.2-2.5-54.9-8.1-68-12.4-12.1-3.9-29.7-12.7-42-20.9-12.2-8.3-15.5-10.9-15.5-12.3 0-.5 4.7-4.7 10.5-9.3 14.4-11.6 14.1-12.7-2.3-8.3zm366.3 30.5c5.4 5.5 24.9 20.1 36.5 27.4 17.3 10.7 38.2 19.3 54.8 22.5 3.4.7 6.2 1.8 6.2 2.4 0 1.6-10 6.2-17.5 8.1-8.7 2.2-25.9 3.5-34 2.6-18.2-2.1-26-6.4-43.5-24.1-9-9-14.9-15.9-17.6-20.5-6.1-10.4-7-9.9-8 4.4-1.1 15.8 5.1 31.1 18.5 45.3 13.6 14.5 26.7 22.8 42.6 26.9 11 2.8 40.6 3.2 50.8.6 20.3-5.1 37.8-16.6 52-34.2 6.8-8.5 15.7-21.7 15.7-23.4 0-2.5-1.2-2.9-7.4-2-8.7 1.3-27.7 1-38.1-.6-20.7-3.1-39.7-9.3-76.5-25-21.3-9-35.3-14.5-37.3-14.5-.6 0 .7 1.8 2.8 4.1zm-63 .9c-19 9.3-56.8 23.1-78.5 28.9-18.3 4.8-27.1 6.1-50.4 7.1-12.1.5-22.4 1.4-22.8 1.8-.5.5 1.9 6.5 5.4 13.3 5.3 10.5 7.5 13.6 13.8 19.9 6.2 6.2 9.4 8.4 18 12.7 24.9 12.2 42.9 14.9 67.2 9.9 21.5-4.5 33.5-11 48.3-26 10-10.1 19.2-23.2 22.3-31.7 2.4-6.4 3.7-18.1 2.5-22.2-.8-2.7-1-2.5-8 7.1-23.3 32.1-49.8 48.9-74.1 46.7-12.7-1.1-31.6-8.9-40.9-17-3.3-2.8-3.3-2.9 9.4-4.4 13.1-1.6 20.8-4.3 37.8-13 23.2-12 54.9-31.3 58.4-35.5 1.9-2.3.6-1.9-8.4 2.4z"/></svg>