<?xml version="1.0" standalone="no"?>
<!DOCTYPE svg PUBLIC "-//W3C//DTD SVG 20010904//EN"
 "http://www.w3.org/TR/2001/REC-SVG-20010904/DTD/svg10.dtd">
<svg version="1.0" xmlns="http://www.w3.org/2000/svg"
 width="1000.000000pt" height="1000.000000pt" viewBox="0 0 1000.000000 1000.000000"
 preserveAspectRatio="xMidYMid meet">
<metadata>
Created by potrace 1.11, written by Peter Selinger 2001-2013
</metadata>
<g transform="translate(0.000000,1000.000000) scale(0.100000,-0.100000)"
fill="#000000" stroke="none">
<path d="M3861 7104 c-51 -45 -176 -209 -243 -316 -114 -183 -220 -442 -264
-648 -28 -126 -26 -403 3 -520 56 -225 216 -502 393 -680 128 -128 311 -272
318 -250 2 6 -27 49 -66 98 -38 48 -88 116 -112 152 -24 36 -81 117 -127 181
-135 190 -197 323 -229 487 -54 284 51 643 274 937 48 63 191 215 202 215 4 0
67 -34 140 -76 143 -82 200 -109 200 -96 0 15 -102 174 -169 262 -83 111 -248
290 -267 290 -8 0 -32 -16 -53 -36z"/>
<path d="M6037 7068 c-137 -147 -356 -462 -335 -483 2 -2 30 13 63 34 116 74
264 151 289 151 70 0 331 -410 400 -630 61 -192 50 -390 -34 -641 -62 -186
-155 -342 -379 -638 -123 -164 -148 -202 -118 -185 401 237 700 649 773 1067
29 166 4 426 -63 647 -55 185 -200 463 -288 554 -54 56 -221 186 -239 186 -6
0 -37 -28 -69 -62z"/>
<path d="M4894 6802 c-443 -341 -587 -485 -765 -767 -159 -253 -194 -425 -153
-747 20 -155 38 -210 126 -378 79 -150 86 -161 237 -375 109 -154 260 -317
354 -384 48 -33 47 -31 -38 70 -423 505 -526 1050 -288 1518 66 129 146 233
288 377 144 145 368 344 388 344 17 0 276 -265 372 -380 152 -183 258 -370
311 -545 25 -82 27 -104 27 -255 0 -193 -18 -315 -69 -469 -44 -134 -190 -418
-260 -507 -77 -99 -84 -114 -38 -77 184 146 495 581 613 859 63 148 76 221 75
419 0 165 -3 187 -27 270 -70 231 -226 482 -419 672 -168 166 -444 384 -564
446 l-31 16 -139 -107z"/>
<path d="M2325 6509 c-18 -28 -27 -235 -16 -344 49 -487 328 -888 771 -1110
147 -73 483 -196 498 -181 4 5 4 5 -168 111 -409 252 -601 435 -738 702 -63
123 -106 258 -126 395 -20 133 -21 187 -2 194 39 15 309 -59 490 -133 59 -24
110 -43 112 -41 8 8 -53 73 -115 122 -148 118 -381 235 -552 276 -93 22 -145
25 -154 9z"/>
<path d="M7650 6491 c-257 -96 -577 -253 -645 -316 -28 -26 -41 -44 -30 -40
11 3 65 21 120 40 151 50 356 80 409 59 35 -13 12 -248 -40 -403 -76 -231
-234 -440 -456 -604 -125 -93 -356 -238 -483 -305 -137 -72 -118 -72 75 0 370
137 656 312 861 525 183 191 286 391 319 622 15 96 8 380 -9 424 -13 34 -26
33 -121 -2z"/>
<path d="M8002 5798 c-186 -263 -352 -446 -502 -554 -76 -55 -183 -118 -339
-200 -103 -54 -92 -57 205 -52 249 5 275 7 349 29 161 49 285 141 338 249 36
76 46 151 53 395 5 200 2 245 -16 245 -4 0 -44 -51 -88 -112z"/>
<path d="M1996 5863 c-12 -57 -26 -221 -26 -314 0 -265 154 -449 427 -509 145
-32 476 -54 496 -34 4 4 -33 29 -81 56 -98 56 -131 80 -216 152 -73 63 -260
279 -436 506 -72 94 -138 170 -145 170 -7 0 -16 -12 -19 -27z"/>
<path d="M8263 5215 c-134 -136 -319 -248 -495 -299 -144 -41 -271 -57 -713
-86 -287 -19 -530 -57 -695 -106 -192 -59 -575 -279 -728 -419 -71 -65 -242
-262 -242 -278 0 -5 33 10 73 33 211 119 373 188 553 235 143 37 263 53 494
65 426 22 714 67 986 156 107 35 288 117 372 169 61 38 56 17 -30 -134 -106
-187 -171 -285 -263 -396 -99 -121 -142 -161 -248 -230 -233 -151 -436 -220
-736 -250 -208 -21 -220 -27 -101 -51 143 -27 458 -25 597 4 302 65 545 203
773 438 241 250 394 536 459 859 26 129 47 353 35 364 -5 6 -43 -25 -91 -74z"/>
<path d="M1746 5223 c-12 -12 -6 -238 9 -342 49 -343 183 -602 442 -852 174
-168 362 -281 579 -348 168 -52 268 -65 474 -65 181 0 276 11 430 48 l55 13
-145 7 c-370 18 -521 50 -735 152 -153 72 -302 180 -411 295 -139 149 -413
574 -386 601 5 5 57 -20 117 -56 178 -107 410 -200 578 -231 45 -8 213 -24
372 -35 645 -45 823 -78 1100 -202 116 -52 205 -101 318 -176 37 -25 70 -42
74 -39 10 11 -82 113 -271 302 -273 272 -404 355 -657 419 -237 59 -606 115
-929 141 -107 8 -252 20 -323 25 -257 21 -406 88 -598 268 -48 45 -89 78 -93
75z"/>
<path d="M8251 4198 c0 -7 50 -53 110 -102 61 -49 113 -95 117 -104 8 -22 -67
-87 -213 -184 -142 -95 -202 -126 -310 -161 -201 -66 -387 -101 -642 -122 -96
-8 -178 -17 -181 -19 -16 -16 198 -62 360 -77 142 -13 365 -6 489 16 232 40
438 156 602 338 104 115 169 197 165 209 -7 20 -454 218 -494 218 -2 0 -4 -6
-3 -12z"/>
<path d="M1622 4144 c-165 -43 -372 -131 -372 -158 0 -44 153 -201 288 -296
269 -190 477 -254 822 -253 192 0 434 28 482 55 21 11 17 13 -47 20 -242 25
-549 81 -680 124 -121 39 -297 127 -420 209 -122 83 -155 109 -155 123 0 5 47
47 105 93 144 116 141 127 -23 83z"/>
<path d="M5285 3839 c54 -55 249 -201 365 -274 173 -107 382 -193 548 -225 34
-7 62 -18 62 -24 0 -16 -100 -62 -175 -81 -87 -22 -259 -35 -340 -26 -182 21
-260 64 -435 241 -90 90 -149 159 -176 205 -61 104 -70 99 -80 -44 -11 -158
51 -311 185 -453 136 -145 267 -228 426 -269 110 -28 406 -32 508 -6 203 51
378 166 520 342 68 85 157 217 157 234 0 25 -12 29 -74 20 -87 -13 -277 -10
-381 6 -207 31 -397 93 -765 250 -213 90 -353 145 -373 145 -6 0 7 -18 28 -41z"/>
<path d="M4655 3830 c-190 -93 -568 -231 -785 -289 -183 -48 -271 -61 -504
-71 -121 -5 -224 -14 -228 -18 -5 -5 19 -65 54 -133 53 -105 75 -136 138 -199
62 -62 94 -84 180 -127 249 -122 429 -149 672 -99 215 45 335 110 483 260 100
101 192 232 223 317 24 64 37 181 25 222 -8 27 -10 25 -80 -71 -233 -321 -498
-489 -741 -467 -127 11 -316 89 -409 170 -33 28 -33 29 94 44 131 16 208 43
378 130 232 120 549 313 584 355 19 23 6 19 -84 -24z"/>
</g>
</svg>
