<svg width="558" height="263" viewBox="0 0 558 263" fill="none" xmlns="http://www.w3.org/2000/svg">
<mask id="mask0" style="mask-type:alpha" maskUnits="userSpaceOnUse" x="-6" y="0" width="564" height="263">
<rect x="-6" width="564" height="262.66" fill="#C4C4C4"/>
</mask>
<g mask="url(#mask0)">
<path fill-rule="evenodd" clip-rule="evenodd" d="M-513.33 210.7L-503.51 201.89C-493.689 193.08 -474.048 175.46 -453.514 149.03C-433.873 122.601 -414.232 87.3609 -394.591 65.336C-374.057 43.3112 -354.416 34.5012 -334.775 43.3112C-315.134 52.1211 -295.493 78.5509 -274.959 87.3609C-255.318 96.1708 -235.677 87.3609 -216.036 91.7659C-195.502 96.1708 -175.861 113.791 -156.22 109.386C-136.579 104.981 -116.938 78.551 -96.4041 56.5261C-76.763 34.5012 -57.1219 16.8813 -37.4809 38.9062C-16.9471 60.9311 2.69397 122.601 22.335 135.816C41.9761 149.03 61.6171 113.791 82.1509 91.7659C101.792 69.741 121.433 60.9311 141.074 78.5509C161.608 96.1708 181.249 140.221 200.89 149.03C220.531 157.84 240.172 131.411 260.706 100.576C280.347 69.741 299.988 34.5012 319.629 30.0963C340.163 25.6913 359.804 52.1211 379.445 91.7659C399.086 131.411 418.727 184.27 439.261 175.46C458.902 166.65 478.543 96.1708 498.184 96.1708C518.718 96.1708 538.359 166.65 548.18 201.89L558 237.13V263.56H548.18C538.359 263.56 518.718 263.56 498.184 263.56C478.543 263.56 458.902 263.56 439.261 263.56C418.727 263.56 399.086 263.56 379.445 263.56C359.804 263.56 340.163 263.56 319.629 263.56C299.988 263.56 280.347 263.56 260.706 263.56C240.172 263.56 220.531 263.56 200.89 263.56C181.249 263.56 161.608 263.56 141.074 263.56C121.433 263.56 101.792 263.56 82.1509 263.56C61.6171 263.56 41.9761 263.56 22.335 263.56C2.69397 263.56 -16.9471 263.56 -37.4809 263.56C-57.1219 263.56 -76.763 263.56 -96.4041 263.56C-116.938 263.56 -136.579 263.56 -156.22 263.56C-175.861 263.56 -195.502 263.56 -216.036 263.56C-235.677 263.56 -255.318 263.56 -274.959 263.56C-295.493 263.56 -315.134 263.56 -334.775 263.56C-354.416 263.56 -374.057 263.56 -394.591 263.56C-414.232 263.56 -433.873 263.56 -453.514 263.56C-474.048 263.56 -493.689 263.56 -503.51 263.56H-513.33V210.7Z" fill="#FFED70"/>
<path fill-rule="evenodd" clip-rule="evenodd" d="M-5.99994 239.811L1.94059 233.904C9.88111 227.997 25.7622 216.183 42.3651 198.462C58.2461 180.741 74.1272 157.113 90.0082 142.345C106.611 127.577 122.492 121.67 138.373 127.577C154.254 133.484 170.135 151.205 186.738 157.113C202.619 163.02 218.5 157.113 234.381 160.066C250.984 163.02 266.865 174.834 282.746 171.88C298.628 168.927 314.509 151.205 331.111 136.438C346.993 121.67 362.874 109.856 378.755 124.624C395.358 139.391 411.239 180.741 427.12 189.601C443.001 198.462 458.882 174.834 475.485 160.066C491.366 145.298 507.247 139.391 523.128 151.205C539.731 163.02 555.612 192.555 571.493 198.462C587.374 204.369 603.255 186.648 619.858 165.973C635.739 145.298 651.62 121.67 667.501 118.717C684.104 115.763 699.985 133.484 715.866 160.066C731.747 186.648 747.628 222.09 764.231 216.183C780.112 210.276 795.993 163.02 811.874 163.02C828.477 163.02 844.358 210.276 852.299 233.904L860.239 257.532V275.254H852.299C844.358 275.254 828.477 275.254 811.874 275.254C795.993 275.254 780.112 275.254 764.231 275.254C747.628 275.254 731.747 275.254 715.866 275.254C699.985 275.254 684.104 275.254 667.501 275.254C651.62 275.254 635.739 275.254 619.858 275.254C603.255 275.254 587.374 275.254 571.493 275.254C555.612 275.254 539.731 275.254 523.128 275.254C507.247 275.254 491.366 275.254 475.485 275.254C458.882 275.254 443.001 275.254 427.12 275.254C411.239 275.254 395.358 275.254 378.755 275.254C362.874 275.254 346.993 275.254 331.111 275.254C314.509 275.254 298.628 275.254 282.746 275.254C266.865 275.254 250.984 275.254 234.381 275.254C218.5 275.254 202.619 275.254 186.738 275.254C170.135 275.254 154.254 275.254 138.373 275.254C122.492 275.254 106.611 275.254 90.0082 275.254C74.1272 275.254 58.2461 275.254 42.3651 275.254C25.7622 275.254 9.88111 275.254 1.94059 275.254H-5.99994V239.811Z" fill="#FF833B" fill-opacity="0.79"/>
</g>
</svg>
