<svg width="106" height="65" viewBox="0 0 106 65" fill="none" xmlns="http://www.w3.org/2000/svg">
<g filter="url(#filter0_d)">
<rect x="6.46033" y="22.2668" width="89" height="32.5973" rx="7" transform="rotate(-10.0617 6.46033 22.2668)" fill="#F9C21C"/>
</g>
<path d="M44.5756 34.8332C44.7189 36.5144 44.311 37.9205 43.3519 39.0514C42.3999 40.1812 41.0185 40.8897 39.2078 41.1768C37.2273 41.4908 35.5623 41.0732 34.2127 39.924C32.8691 38.7666 32.0128 37.0243 31.6438 34.6973L31.4941 33.753C31.2586 32.2677 31.3129 30.9177 31.6568 29.703C32.0008 28.4883 32.6097 27.5035 33.4834 26.7487C34.363 25.9856 35.4465 25.5021 36.7338 25.298C38.5162 25.0154 40.0277 25.2652 41.2684 26.0473C42.509 26.8295 43.3511 28.0701 43.7944 29.769L40.6115 30.2736C40.3756 29.2886 39.9818 28.6115 39.4302 28.2421C38.8846 27.8646 38.1237 27.7532 37.1476 27.9079C36.0866 28.0762 35.3515 28.5843 34.9421 29.4323C34.5387 30.2721 34.4566 31.4924 34.6959 33.0931L34.8809 34.2602C35.1456 35.9294 35.5901 37.1097 36.2145 37.8011C36.846 38.4913 37.7064 38.7501 38.7957 38.5774C39.7788 38.4215 40.4756 38.0826 40.8859 37.5608C41.3022 37.0307 41.4711 36.2897 41.3927 35.3378L44.5756 34.8332ZM45.8757 33.9092C45.6951 32.7704 45.7535 31.7207 46.0507 30.7599C46.3479 29.7992 46.8681 29.0098 47.6112 28.3916C48.3614 27.7724 49.2811 27.3764 50.3704 27.2037C51.9194 26.9581 53.2571 27.2318 54.3834 28.0249C55.5168 28.8168 56.2691 30.0172 56.6402 31.6261L56.7859 32.4078C57.0651 34.169 56.7978 35.6616 55.984 36.8855C55.169 38.1023 53.934 38.842 52.2789 39.1044C50.6238 39.3668 49.217 39.046 48.0586 38.142C46.9072 37.237 46.1869 35.872 45.8975 34.0471L45.8757 33.9092ZM48.9772 33.6459C49.1499 34.7351 49.4873 35.5372 49.9895 36.0522C50.4906 36.5601 51.1231 36.7534 51.887 36.6323C52.6297 36.5146 53.1648 36.1397 53.4924 35.5077C53.8189 34.8686 53.8829 33.9231 53.6844 32.6712C53.515 31.6031 53.1752 30.8086 52.6648 30.2877C52.1544 29.7668 51.5208 29.5664 50.764 29.6864C50.0142 29.8052 49.4808 30.1907 49.1636 30.8428C48.8453 31.4879 48.7832 32.4222 48.9772 33.6459ZM62.8019 37.2185L59.7251 37.7063L57.905 26.2266L60.9818 25.7388L62.8019 37.2185ZM57.2537 23.2845C57.1808 22.8248 57.2729 22.4223 57.5299 22.077C57.794 21.7305 58.1913 21.5153 58.7218 21.4312C59.2452 21.3482 59.6861 21.4306 60.0444 21.6783C60.4027 21.926 60.6183 22.2798 60.6912 22.7395C60.7652 23.2063 60.6666 23.6135 60.3954 23.9611C60.1313 24.3075 59.7411 24.5216 59.2248 24.6035C58.7084 24.6853 58.2676 24.603 57.9022 24.3564C57.5439 24.1086 57.3277 23.7514 57.2537 23.2845ZM66.3397 24.8894L66.6455 26.2004C67.3033 25.0447 68.3219 24.3576 69.7012 24.1389C70.9177 23.946 71.8797 24.1596 72.5871 24.7798C73.2945 25.4 73.768 26.4198 74.0076 27.8393L75.1834 35.2554L72.1172 35.7416L70.9532 28.3997C70.85 27.749 70.6339 27.301 70.305 27.0559C69.975 26.8037 69.4811 26.7297 68.8233 26.834C67.9604 26.9708 67.3715 27.4412 67.0567 28.2452L68.3401 36.3404L65.2739 36.8265L63.4539 25.3469L66.3397 24.8894Z" fill="black"/>
<defs>
<filter id="filter0_d" x="0.460327" y="4.71768" width="105.326" height="59.6451" filterUnits="userSpaceOnUse" color-interpolation-filters="sRGB">
<feFlood flood-opacity="0" result="BackgroundImageFix"/>
<feColorMatrix in="SourceAlpha" type="matrix" values="0 0 0 0 0 0 0 0 0 0 0 0 0 0 0 0 0 0 127 0" result="hardAlpha"/>
<feOffset dy="4"/>
<feGaussianBlur stdDeviation="3"/>
<feComposite in2="hardAlpha" operator="out"/>
<feColorMatrix type="matrix" values="0 0 0 0 0 0 0 0 0 0 0 0 0 0 0 0 0 0 0.15 0"/>
<feBlend mode="normal" in2="BackgroundImageFix" result="effect1_dropShadow"/>
<feBlend mode="normal" in="SourceGraphic" in2="effect1_dropShadow" result="shape"/>
</filter>
</defs>
</svg>
