<svg width="77" height="62" viewBox="0 0 77 62" fill="none" xmlns="http://www.w3.org/2000/svg">
<path d="M70.3279 7.89557L76.4157 2.07165V0.796875H55.3263L40.296 38.2073L23.1962 0.796875H1.08311V2.07165L8.19452 10.6327C8.88754 11.2653 9.24994 12.1904 9.15775 13.1218V46.7651C9.3771 47.9763 8.98291 49.2225 8.13094 50.1031L0.119873 59.8117V61.0706H22.8338V59.7958L14.8227 50.1031C13.9549 49.2193 13.5448 47.9954 13.7196 46.7651V17.6646L33.6583 61.0865H35.9757L53.1201 17.6646V52.2552C53.1201 53.1676 53.12 53.3552 52.5224 53.9528L46.3551 59.9198V61.1977H76.2758V59.923L70.3311 54.1022C69.8098 53.708 69.5396 53.0468 69.6508 52.4046V9.59315C69.5396 8.94781 69.8066 8.28658 70.3279 7.89557Z" fill="white"/>
</svg>
