<svg width="91" height="117" viewBox="0 0 91 117" fill="none" xmlns="http://www.w3.org/2000/svg">
<path d="M36.284 73.965H35.284V74.965H36.284V73.965ZM39.738 61.091L40.562 61.6575L40.5661 61.6516L40.5701 61.6457L39.738 61.091ZM49.786 49.787L50.4665 50.5198L50.4674 50.5189L49.786 49.787ZM56.537 42.722L57.3264 43.3359L57.3343 43.3257L57.3421 43.3152L56.537 42.722ZM54.81 29.22L54.21 30.02L54.2285 30.0339L54.2477 30.0469L54.81 29.22ZM33.458 29.377L32.959 28.5103L32.9475 28.5171L33.458 29.377ZM25.294 37.698L24.821 38.579L25.6683 39.034L26.1559 38.205L25.294 37.698ZM1.901 25.138L1.03812 24.6326L0.513602 25.5281L1.42796 26.019L1.901 25.138ZM20.113 8.025L20.5744 8.91222L20.113 8.025ZM78.517 9.752L77.9466 10.5734L77.9531 10.5779L77.9597 10.5823L78.517 9.752ZM87.78 42.879L88.6914 43.2906L88.6962 43.2798L87.78 42.879ZM82.442 51.2L81.7021 50.5273L81.7005 50.5291L82.442 51.2ZM74.592 58.736L75.241 59.4969L75.2488 59.4901L74.592 58.736ZM66.742 66.586L67.5229 67.2107L67.5303 67.2015L67.5374 67.192L66.742 66.586ZM64.23 73.965V74.965H65.23V73.965H64.23ZM37.54 110.703L36.8442 111.421L36.8501 111.427L36.8561 111.433L37.54 110.703ZM37.383 87.31L36.7115 86.569L36.7056 86.5743L36.6998 86.5797L37.383 87.31ZM63.131 87.31L62.4595 88.051L63.131 87.31ZM63.131 110.703L63.8149 111.433L63.8209 111.427L63.8268 111.421L63.131 110.703ZM37.284 73.965C37.284 68.8761 38.4029 64.7981 40.562 61.6575L38.914 60.5245C36.4678 64.0826 35.284 68.5873 35.284 73.965H37.284ZM40.5701 61.6457C42.8148 58.2785 46.1048 54.5699 50.4665 50.5198L49.1055 49.0542C44.6752 53.1681 41.2665 56.9954 38.906 60.5363L40.5701 61.6457ZM50.4674 50.5189C53.5178 47.6789 55.8129 45.2818 57.3264 43.3359L55.7477 42.1081C54.3304 43.9302 52.1248 46.2431 49.1046 49.0551L50.4674 50.5189ZM57.3421 43.3152C58.9176 41.1769 59.735 38.8796 59.735 36.442H57.735C57.735 38.4004 57.0871 40.2897 55.7319 42.1288L57.3421 43.3152ZM59.735 36.442C59.735 33.0591 58.2489 30.3492 55.3723 28.3931L54.2477 30.0469C56.6044 31.6495 57.735 33.7542 57.735 36.442H59.735ZM55.41 28.42C52.6793 26.3719 49.1523 25.394 44.919 25.394V27.394C48.8497 27.394 51.9168 28.3001 54.21 30.02L55.41 28.42ZM44.919 25.394C40.5664 25.394 36.5726 26.4298 32.959 28.5104L33.957 30.2436C37.2514 28.3468 40.8983 27.394 44.919 27.394V25.394ZM32.9475 28.5171C29.4444 30.5971 26.6056 33.4959 24.4321 37.191L26.1559 38.205C28.1691 34.7827 30.7729 32.1342 33.9685 30.2368L32.9475 28.5171ZM25.767 36.817L2.37404 24.257L1.42796 26.019L24.821 38.579L25.767 36.817ZM2.76388 25.6434C6.95589 18.4863 12.8841 12.9111 20.5744 8.91222L19.6516 7.13778C11.6419 11.3028 5.42878 17.1363 1.03812 24.6326L2.76388 25.6434ZM20.5744 8.91222C28.2502 4.92076 37.556 2.90199 48.53 2.90199V0.901993C37.3146 0.901993 27.6758 2.96523 19.6516 7.13778L20.5744 8.91222ZM48.53 2.90199C60.8527 2.90199 70.6284 5.49128 77.9466 10.5734L79.0874 8.93063C71.3336 3.54605 61.1179 0.901993 48.53 0.901993V2.90199ZM77.9597 10.5823C85.3196 15.5225 88.978 22.431 88.978 31.418H90.978C90.978 21.7744 86.9957 14.2388 79.0743 8.9217L77.9597 10.5823ZM88.978 31.418C88.978 35.5951 88.2651 39.2753 86.8638 42.4782L88.6962 43.2798C90.2256 39.7841 90.978 35.8236 90.978 31.418H88.978ZM86.8686 42.4674C85.4403 45.6301 83.7156 48.3124 81.7021 50.5273L83.1819 51.8727C85.3551 49.4822 87.189 46.6172 88.6914 43.2906L86.8686 42.4674ZM81.7005 50.5291C79.7473 52.6879 77.1621 55.1714 73.9352 57.9819L75.2488 59.4901C78.5113 56.6486 81.1594 54.1081 83.1835 51.8709L81.7005 50.5291ZM73.9431 57.9752C70.3619 61.0297 67.6839 63.6997 65.9466 65.98L67.5374 67.192C69.1494 65.0763 71.7048 62.513 75.241 59.4968L73.9431 57.9752ZM65.9611 65.9613C64.1366 68.242 63.23 70.9252 63.23 73.965H65.23C65.23 71.3528 65.9981 69.1166 67.5229 67.2107L65.9611 65.9613ZM64.23 72.965H36.284V74.965H64.23V72.965ZM50.257 114.413C45.3502 114.413 41.3657 112.919 38.2239 109.973L36.8561 111.433C40.413 114.767 44.9065 116.413 50.257 116.413V114.413ZM38.2358 109.985C35.0781 106.926 33.516 103.259 33.516 98.928H31.516C31.516 103.808 33.3032 107.991 36.8442 111.421L38.2358 109.985ZM33.516 98.928C33.516 94.4761 35.0368 90.8741 38.0662 88.0403L36.6998 86.5797C33.2398 89.8165 31.516 93.9599 31.516 98.928H33.516ZM38.0545 88.051C41.1912 85.2084 45.2301 83.757 50.257 83.757V81.757C44.8172 81.757 40.2735 83.3409 36.7115 86.569L38.0545 88.051ZM50.257 83.757C55.2839 83.757 59.3228 85.2084 62.4595 88.051L63.8025 86.569C60.2405 83.3409 55.6968 81.757 50.257 81.757V83.757ZM62.4595 88.051C65.5899 90.8879 67.155 94.4868 67.155 98.928H69.155C69.155 93.9492 67.3708 89.8027 63.8025 86.569L62.4595 88.051ZM67.155 98.928C67.155 103.259 65.5929 106.926 62.4352 109.985L63.8268 111.421C67.3678 107.991 69.155 103.808 69.155 98.928H67.155ZM62.4471 109.973C59.3092 112.915 55.2745 114.413 50.257 114.413V116.413C55.7061 116.413 60.2541 114.771 63.8149 111.433L62.4471 109.973Z" fill="white"/>
</svg>
