<svg width="71" height="71" viewBox="0 0 71 71" fill="none" xmlns="http://www.w3.org/2000/svg">
<g clip-path="url(#clip0)">
<path d="M70.4899 13.4739C67.8827 14.6176 65.1046 15.3756 62.2082 15.7437C65.1879 13.9647 67.4621 11.169 68.5312 7.7994C65.7532 9.45574 62.6859 10.6257 59.417 11.2786C56.7791 8.46982 53.0195 6.73022 48.9181 6.73022C40.9606 6.73022 34.5543 13.1891 34.5543 21.1071C34.5543 22.2464 34.6507 23.3418 34.8874 24.3847C22.938 23.8019 12.3646 18.0748 5.26164 9.35057C4.02157 11.5021 3.29418 13.9647 3.29418 16.6157C3.29418 21.5935 5.85757 26.006 9.67855 28.5606C7.36931 28.5168 5.10389 27.8464 3.18464 26.7904C3.18464 26.8342 3.18464 26.8911 3.18464 26.9481C3.18464 33.9328 8.16681 39.7344 14.7002 41.0708C13.5302 41.3907 12.2551 41.5441 10.9318 41.5441C10.0116 41.5441 9.08261 41.4915 8.21062 41.2987C10.0729 46.9907 15.3574 51.1754 21.641 51.3112C16.7509 55.1366 10.5418 57.4414 3.82001 57.4414C2.64129 57.4414 1.51077 57.3889 0.380249 57.2443C6.74708 61.3501 14.2926 63.6943 22.4297 63.6943C48.8786 63.6943 63.3387 41.7851 63.3387 22.7941C63.3387 22.1587 63.3168 21.5453 63.2862 20.9362C66.1388 18.9118 68.5356 16.3835 70.4899 13.4739Z" fill="white"/>
</g>
<defs>
<clipPath id="clip0">
<rect width="70.1097" height="70.1097" fill="white" transform="translate(0.380127 0.157471)"/>
</clipPath>
</defs>
</svg>
