<?xml version="1.0" encoding="utf-8"?>
<!-- Generator: Adobe Illustrator 21.0.2, SVG Export Plug-In . SVG Version: 6.00 Build 0)  -->
<svg version="1.1" id="Слой_1" xmlns="http://www.w3.org/2000/svg" xmlns:xlink="http://www.w3.org/1999/xlink" x="0px" y="0px"
	 viewBox="0 0 382 215" style="enable-background:new 0 0 382 215;" xml:space="preserve">
<style type="text/css">
	.st0{fill:#212830;}
	.st1{fill:#FDB52F;}
	.st2{font-family:'OpenSans-Regular';}
	.st3{font-size:48.7575px;}
	.st4{letter-spacing:-0.6;}
	.st5{fill:#FFFFFF;}
</style>
<g>
	<rect x="58.2" y="68.3" class="st0" width="81.6" height="81.6"/>
	
		<rect x="58.2" y="68.3" transform="matrix(0.7071 0.7071 -0.7071 0.7071 106.1352 -38.0156)" class="st1" width="81.6" height="81.6"/>
</g>
<g>
	<g>
		<path class="st0" d="M245.4,127.7v-25.3c-0.2-4.1-1-10.8-11.4-11.3c-4.3-0.2-7.9,1.4-10,3.6c-2.3,2.4-3.4,6.2-3.4,11.5v21.6
			l-3.3,0l0-39.6l3.5,0l0,5.8c0,0,3-6.4,13.8-6.1c9.2,0.2,14.3,4.8,14.3,14.3v25.6H245.4z"/>
	</g>
</g>
<g>
	<g>
		<path class="st0" d="M208.8,117.4c0,3.5-1,6.2-3.1,8.1c-2.1,1.9-5,2.8-8.7,2.8c-4,0-7.2-0.8-9.6-2.4V122c3,2,6.2,3,9.6,3
			c3,0,5.2-0.6,6.8-1.9c1.5-1.3,2.3-3,2.3-5.1c0-2-0.6-3.6-1.8-5c-1.2-1.3-3.3-2.7-6.1-4c-3-1.4-5.1-2.6-6.4-3.7
			c-1.2-1-2.1-2.2-2.8-3.5c-0.6-1.3-0.9-2.8-0.9-4.7c0-2.9,0.9-5.2,2.8-6.9c1.9-1.7,4.6-2.6,8-2.6c3.3,0,6.4,0.8,9.3,2.4l-1,3.2
			c-3-1.6-5.7-2.4-8.2-2.4c-2.5,0-4.4,0.5-5.9,1.6c-1.4,1.1-2.2,2.5-2.2,4.4c0,2,0.6,3.7,1.7,4.9c1.1,1.2,3.3,2.6,6.6,4.1
			c2.7,1.3,4.7,2.4,5.9,3.4c1.2,1,2.2,2.2,2.8,3.5C208.5,114.1,208.8,115.6,208.8,117.4z"/>
	</g>
</g>
<g>
	<g>
		<path class="st0" d="M299.2,88.2v25.3c0,5.6,5.3,11.9,12.9,12c8,0.1,12.8-6.5,12.9-12.2c0-7.3,0-25.2,0-25.2l3.2,0
			c0,0,0,19.5,0,26.1c0,8.7-8.2,14.7-16.1,14.7c-7.5,0-16.1-6.6-16.1-15.2V88.1L299.2,88.2z"/>
	</g>
</g>
<g>
	<g>
		<path class="st0" d="M293.1,88.1v3.4c-2.2,0.1-7.4-0.2-11.2,4.6c-2,2.5-3.2,6.4-3.2,10.3v21.9h-3.4V88.2l3.4,0l0,7.6h0.2
			C282.4,88.8,290.4,87.9,293.1,88.1z"/>
	</g>
</g>
<g>
	<text transform="matrix(1.6765 0 0 1 160.334 120.6572)" class="st0 st2 st3 st4">-</text>
</g>
<circle class="st0" cx="262.4" cy="124.4" r="4.4"/>
<path class="st5" d="M73.4,113.6c0-26,36.8-26.7,38.5-2.5v3.6H77.6c1.6,16.4,22.2,19.1,29.1,5.5l4.2,0.1
	C104,139.4,73.4,136.4,73.4,113.6z M92.8,97.6c-4.3,0.1-7.8,1.1-10.4,3.4c-2.6,2.3-4.1,5.5-4.6,9.8h29.7
	C107.6,106.7,104.6,97.5,92.8,97.6z"/>
<path class="st5" d="M123.3,131.2h-4.1V80h4.1V131.2z"/>
</svg>
