<svg width="363" height="363" viewBox="0 0 363 363" fill="none" xmlns="http://www.w3.org/2000/svg">
<g clip-path="url(#clip0)">
<path d="M59.1084 230.617L67.5991 215.843L82.3732 224.333L73.8825 239.108L59.1084 230.617Z" fill="#CE1906"/>
<path d="M59.1084 230.617L73.8825 239.108L82.3732 224.333" fill="#8C0300"/>
<path d="M60.8701 223.277L69.3608 208.502L84.1349 216.993L75.6442 231.767L60.8701 223.277Z" fill="#CE1906"/>
<path d="M60.8701 223.277L75.6442 231.767L84.1349 216.993" fill="#8C0300"/>
<path d="M66.4956 234.862L74.9863 220.088L89.7604 228.579L81.2697 243.353L66.4956 234.862Z" fill="#CE1906"/>
<path d="M66.4956 234.862L81.2697 243.353L89.7604 228.579" fill="#8C0300"/>
<path d="M208.814 225.755C158.795 239.264 112.596 246.125 81.8978 245.68C78.4633 245.671 73.5683 237.945 70.5836 226.894C67.7561 216.425 67.9386 206.703 70.9019 204.966C97.3591 189.708 140.361 172.166 190.962 158.499C247.96 143.105 299.495 136.363 328.708 139.394L328.92 139.024C331.828 138.239 336.197 145.172 339.08 154.69C341.593 163.996 341.309 172.185 338.188 173.34L337.819 173.128C313.735 190.241 265.813 210.361 208.814 225.755Z" fill="#7C5037"/>
<path d="M82.2669 245.892C78.8323 245.883 73.7802 237.575 70.9527 227.106C68.1252 216.637 68.3076 206.915 71.2709 205.178C97.3588 189.708 140.36 172.166 190.961 158.499C247.96 143.105 299.495 136.363 328.708 139.394L328.92 139.024" fill="#5E3E29"/>
<path d="M189.039 231.096C180.527 233.083 172.015 235.07 164.297 236.53L146.279 172.127C154.264 169.347 162.038 166.935 170.393 164.367L189.039 231.096Z" fill="#F9AE41"/>
<path d="M163.928 236.317L146.279 172.127C154.264 169.346 162.038 166.935 170.393 164.366" fill="#E5892E"/>
<path d="M221.134 200.897C215.624 210.485 203.385 213.79 193.798 208.28C184.211 202.77 180.905 190.531 186.415 180.944C191.925 171.357 204.164 168.051 213.751 173.561C223.339 179.071 226.644 191.31 221.134 200.897Z" fill="#E5892E"/>
<path d="M214.485 197.077C211.086 202.993 203.534 205.032 197.618 201.632C191.703 198.233 189.663 190.681 193.063 184.765C196.463 178.85 204.014 176.81 209.93 180.21C215.846 183.61 217.885 191.161 214.485 197.077Z" fill="#063A5E"/>
<path d="M209.718 180.579C203.808 177.183 196.247 179.225 192.851 185.135C189.454 191.044 191.496 198.605 197.406 202.002" fill="#00233F"/>
</g>
<defs>
<clipPath id="clip0">
<rect width="265.137" height="265.137" fill="white" transform="matrix(-0.498277 0.867018 0.867018 0.498277 132.145 0.936523)"/>
</clipPath>
</defs>
</svg>
