<svg width="62" height="62" viewBox="0 0 62 62" fill="none" xmlns="http://www.w3.org/2000/svg">
<path d="M62 31C62.0015 33.2933 61.7493 35.5797 61.248 37.8175C60.4729 41.2752 59.1048 44.5725 57.2043 47.5632C54.745 51.4518 51.4518 54.745 47.5632 57.2043C44.5725 59.1048 41.2752 60.473 37.8175 61.248C33.3278 62.2507 28.6722 62.2507 24.1825 61.248C20.7248 60.473 17.4275 59.1048 14.4368 57.2043C10.5482 54.745 7.25501 51.4518 4.79566 47.5632C2.89515 44.5725 1.52703 41.2752 0.751963 37.8175C-0.250654 33.3261 -0.250654 28.6689 0.751963 24.1775C2.04638 18.4586 4.93405 13.2232 9.08067 9.07747C13.2273 4.93173 18.4633 2.04518 24.1825 0.751972C28.6722 -0.250657 33.3278 -0.250657 37.8175 0.751972C43.536 2.04661 48.7712 4.93364 52.9176 9.07914C57.064 13.2246 59.9522 18.4593 61.248 24.1775C61.7496 26.417 62.0018 28.7051 62 31Z" fill="#B2B2B2"/>
<path d="M30.9999 49.5491C41.2449 49.5491 49.5501 41.2439 49.5501 30.9989C49.5501 20.7539 41.2449 12.4487 30.9999 12.4487C20.7549 12.4487 12.4497 20.7539 12.4497 30.9989C12.4497 41.2439 20.7549 49.5491 30.9999 49.5491Z" fill="#FCF9F0"/>
<path d="M38.3944 35.0218C39.375 34.0412 39.9259 32.7112 39.9259 31.3244C39.9259 29.9377 39.375 28.6077 38.3944 27.6271L30.9997 20.2324L23.605 27.6271C22.7907 28.4434 22.2691 29.5061 22.1213 30.6496C21.9735 31.7931 22.2078 32.9534 22.7878 33.95C23.3677 34.9466 24.2608 35.7235 25.3281 36.1599C26.3954 36.5963 27.577 36.6676 28.689 36.3629C28.4624 38.2811 27.8163 40.126 26.7967 41.7666H35.2043C34.1844 40.1261 33.5383 38.2812 33.3119 36.3629C34.202 36.6085 35.1413 36.6138 36.0341 36.3782C36.927 36.1427 37.7414 35.6746 38.3944 35.0218Z" fill="#373737"/>
<path d="M37.8176 61.2478C33.3279 62.2505 28.6723 62.2505 24.1826 61.2478L25.8758 55.0229H36.1245L37.8176 61.2478Z" fill="#2E54D9"/>
<path d="M57.2045 14.4371L51.612 17.6342L44.3662 10.3835L47.5583 4.79102C51.4497 7.25067 54.7448 10.5457 57.2045 14.4371Z" fill="#2E54D9"/>
<path d="M17.6332 51.612L14.436 57.2044C10.5474 54.7451 7.25428 51.4519 4.79492 47.5633L10.3874 44.3662L17.6332 51.612Z" fill="#2E54D9"/>
<path d="M62.0002 31.0002C62.0018 33.2935 61.7496 35.5799 61.2482 37.8177L55.0283 36.1246V25.8759L61.2482 24.1777C61.7498 26.4172 62.002 28.7053 62.0002 31.0002Z" fill="#2E54D9"/>
<path d="M6.97188 25.8759V36.1246L0.751963 37.8177C-0.250654 33.3263 -0.250654 28.6691 0.751963 24.1777L6.97188 25.8759Z" fill="#2E54D9"/>
<path d="M57.2045 47.5633C54.7451 51.4519 51.4519 54.7451 47.5633 57.2044L44.3662 51.612L51.612 44.3662L57.2045 47.5633Z" fill="#2E54D9"/>
<path d="M17.6332 10.3835L10.3874 17.6342L4.79492 14.4371C7.25458 10.5457 10.5496 7.25067 14.441 4.79102L17.6332 10.3835Z" fill="#2E54D9"/>
<path d="M37.8176 0.751971L36.1245 6.97189H25.8758L24.1826 0.751971C28.6723 -0.250657 33.3279 -0.250657 37.8176 0.751971Z" fill="#2E54D9"/>
</svg>
