<svg width="419" height="451" viewBox="0 0 419 451" fill="none" xmlns="http://www.w3.org/2000/svg">
<path d="M372.959 261.434C372.968 275.016 371.474 288.556 368.505 301.809C363.915 322.286 355.813 341.813 344.558 359.525C329.993 382.554 310.49 402.056 287.461 416.621C269.75 427.876 250.223 435.979 229.746 440.569C203.157 446.506 175.585 446.506 148.997 440.569C128.52 435.979 108.992 427.876 91.2807 416.621C68.2517 402.056 48.749 382.554 34.1842 359.525C22.9291 341.813 14.8268 322.286 10.2367 301.809C4.29903 275.21 4.29903 247.629 10.2367 221.03C17.9025 187.162 35.0038 156.157 59.5609 131.605C84.1179 107.053 115.126 89.9586 148.997 82.3C175.585 76.3622 203.157 76.3622 229.746 82.3C263.612 89.9671 294.616 107.065 319.171 131.615C343.727 156.165 360.831 187.166 368.505 221.03C371.476 234.293 372.969 247.843 372.959 261.434Z" fill="#EB9517"/>
<path d="M189.371 371.283C250.044 371.283 299.228 322.098 299.228 261.425C299.228 200.753 250.044 151.568 189.371 151.568C128.698 151.568 79.5132 200.753 79.5132 261.425C79.5132 322.098 128.698 371.283 189.371 371.283Z" fill="#F9F9F9"/>
<path d="M229.746 82.3L219.718 119.135H159.024L148.997 82.3C175.585 76.3622 203.157 76.3622 229.746 82.3Z" fill="#F9F9F9"/>
<path d="M229.746 440.568C203.157 446.506 175.585 446.506 148.997 440.568L159.024 403.703H219.718L229.746 440.568Z" fill="#F9F9F9"/>
<path d="M344.558 163.344L311.438 182.278L268.527 139.337L287.432 106.218C310.477 120.784 329.991 140.298 344.558 163.344Z" fill="#F9F9F9"/>
<path d="M110.214 383.501L91.2806 416.621C68.2516 402.056 48.7488 382.554 34.1841 359.524L67.3036 340.591L110.214 383.501Z" fill="#F9F9F9"/>
<path d="M372.959 261.434C372.968 275.016 371.474 288.556 368.505 301.809L331.67 291.782V231.087L368.505 221.03C371.476 234.293 372.969 247.843 372.959 261.434Z" fill="#F9F9F9"/>
<path d="M47.072 231.087V291.782L10.2365 301.809C4.29878 275.21 4.29878 247.629 10.2365 221.03L47.072 231.087Z" fill="#F9F9F9"/>
<path d="M344.558 359.524C329.993 382.554 310.49 402.056 287.461 416.621L268.527 383.501L311.438 340.591L344.558 359.524Z" fill="#F9F9F9"/>
<path d="M110.214 139.337L67.3036 182.278L34.1841 163.344C48.7506 140.298 68.2646 120.784 91.3101 106.218L110.214 139.337Z" fill="#F9F9F9"/>
<path d="M122.97 278.005C117.817 278.005 113.892 276.747 111.195 274.23C108.499 271.683 107.151 268.058 107.151 263.355C107.151 258.501 108.544 254.756 111.33 252.12C114.117 249.483 118.191 248.165 123.554 248.165C125.352 248.165 126.969 248.27 128.408 248.479C129.876 248.689 131.254 249.004 132.542 249.423V256.658C131.224 256.149 129.861 255.805 128.452 255.625C127.044 255.445 125.606 255.355 124.138 255.355C121.352 255.355 119.255 255.984 117.847 257.243C116.468 258.501 115.779 260.538 115.779 263.355C115.779 265.991 116.379 267.894 117.577 269.062C118.805 270.23 120.603 270.815 122.97 270.815C123.749 270.815 124.483 270.77 125.172 270.68C125.861 270.56 126.505 270.41 127.104 270.23V266.006H121.352V260.793H134.16V275.354C133.051 276.043 131.568 276.657 129.711 277.196C127.883 277.735 125.636 278.005 122.97 278.005ZM148.153 278.005C146.205 278.005 144.363 277.855 142.625 277.556C140.887 277.226 139.404 276.777 138.176 276.207V269.242C139.524 269.871 141.022 270.38 142.67 270.77C144.318 271.159 145.861 271.354 147.299 271.354C148.797 271.354 149.92 271.234 150.669 270.994C151.448 270.725 151.838 270.141 151.838 269.242C151.838 268.613 151.613 268.118 151.164 267.759C150.744 267.399 150.07 267.07 149.141 266.77C148.243 266.47 147.059 266.096 145.591 265.647C143.644 265.017 142.101 264.328 140.962 263.579C139.824 262.83 139 261.916 138.491 260.838C138.011 259.759 137.772 258.441 137.772 256.883C137.772 254.037 138.775 251.88 140.783 250.412C142.82 248.914 145.831 248.165 149.816 248.165C151.403 248.165 153.036 248.3 154.714 248.569C156.422 248.839 157.8 249.138 158.849 249.468V256.479C157.44 255.909 156.092 255.505 154.804 255.265C153.516 255.026 152.302 254.906 151.164 254.906C149.846 254.906 148.722 255.011 147.793 255.22C146.865 255.43 146.4 255.969 146.4 256.838C146.4 257.587 146.79 258.142 147.569 258.501C148.377 258.831 149.801 259.265 151.838 259.804C154.205 260.433 156.002 261.197 157.231 262.096C158.489 262.995 159.343 264.044 159.792 265.242C160.242 266.411 160.466 267.744 160.466 269.242C160.466 271.878 159.448 274.005 157.41 275.623C155.373 277.211 152.287 278.005 148.153 278.005ZM164.946 277.556V248.614H173.395V259.4H183.372V248.614H191.821V277.556H183.372V266.77H173.395V277.556H164.946ZM197.235 277.556V248.614H205.684V277.556H197.235ZM211.091 277.556V248.614H227C229.936 248.614 232.168 249.303 233.696 250.681C235.224 252.06 235.988 254.037 235.988 256.614C235.988 258.112 235.703 259.37 235.134 260.389C234.595 261.407 233.875 262.216 232.977 262.815C234.205 263.295 235.179 263.999 235.898 264.927C236.647 265.826 237.021 267.174 237.021 268.972C237.021 271.698 236.182 273.811 234.505 275.309C232.827 276.807 230.445 277.556 227.359 277.556H211.091ZM219.225 260.164H224.708C226.775 260.164 227.809 259.235 227.809 257.378C227.809 256.449 227.554 255.745 227.045 255.265C226.565 254.786 225.711 254.546 224.483 254.546H219.225V260.164ZM219.225 271.669H225.067C226.206 271.669 227.045 271.429 227.584 270.949C228.123 270.47 228.393 269.676 228.393 268.568C228.393 267.639 228.123 266.935 227.584 266.455C227.045 265.976 226.146 265.736 224.887 265.736H219.225V271.669ZM239.057 277.556L250.158 248.614H259.101L270.201 277.556H261.393L258.966 271.399H250.247L247.866 277.556H239.057ZM251.371 265.332H257.842L254.607 256.838L251.371 265.332Z" fill="#FDA625"/>
<path d="M412.996 189.53C413.005 203.111 411.512 216.652 408.543 229.905C403.953 250.382 395.85 269.909 384.595 287.62C370.031 310.649 350.528 330.152 327.499 344.717C309.787 355.972 290.26 364.074 269.783 368.664C243.194 374.602 215.623 374.602 189.034 368.664C168.557 364.074 149.03 355.972 131.318 344.717C108.289 330.152 88.7863 310.649 74.2216 287.62C62.9664 269.909 54.8642 250.382 50.2741 229.905C44.3364 203.306 44.3364 175.725 50.2741 149.126C57.9399 115.257 75.0412 84.2527 99.5982 59.7008C124.155 35.149 155.164 18.0543 189.034 10.3957C215.623 4.45795 243.194 4.45795 269.783 10.3957C303.649 18.0628 334.653 35.1603 359.209 59.7107C383.764 84.2611 400.868 115.261 408.543 149.126C411.513 162.388 413.007 175.939 412.996 189.53Z" fill="#F7AE43"/>
<path d="M229.408 299.378C290.081 299.378 339.266 250.193 339.266 189.521C339.266 128.848 290.081 79.6631 229.408 79.6631C168.736 79.6631 119.551 128.848 119.551 189.521C119.551 250.193 168.736 299.378 229.408 299.378Z" fill="#222831"/>
<path d="M269.783 10.3955L259.756 47.2309H199.061L189.034 10.3955C215.623 4.4577 243.194 4.4577 269.783 10.3955Z" fill="#FFD07F"/>
<path d="M269.783 368.664C243.194 374.602 215.623 374.602 189.034 368.664L199.061 331.799H259.756L269.783 368.664Z" fill="#FFD07F"/>
<path d="M384.595 91.4394L351.476 110.373L308.565 67.433L327.469 34.3135C350.515 48.88 370.029 68.3939 384.595 91.4394Z" fill="#FFD07F"/>
<path d="M150.252 311.597L131.318 344.716C108.289 330.152 88.7864 310.649 74.2217 287.62L107.341 268.686L150.252 311.597Z" fill="#FFD07F"/>
<path d="M412.996 189.53C413.005 203.111 411.512 216.652 408.543 229.904L371.708 219.877V159.183L408.543 149.126C411.514 162.388 413.007 175.939 412.996 189.53Z" fill="#FFD07F"/>
<path d="M87.1096 159.183V219.877L50.2741 229.904C44.3364 203.305 44.3364 175.725 50.2741 149.126L87.1096 159.183Z" fill="#FFD07F"/>
<path d="M384.595 287.62C370.031 310.649 350.528 330.152 327.499 344.716L308.565 311.597L351.476 268.686L384.595 287.62Z" fill="#FFD07F"/>
<path d="M150.252 67.433L107.341 110.373L74.2217 91.4394C88.7882 68.3939 108.302 48.88 131.348 34.3135L150.252 67.433Z" fill="#FFD07F"/>
<path d="M163.007 206.101C157.854 206.101 153.929 204.842 151.233 202.326C148.537 199.779 147.188 196.154 147.188 191.45C147.188 186.597 148.582 182.852 151.368 180.215C154.154 177.579 158.229 176.26 163.592 176.26C165.389 176.26 167.007 176.365 168.445 176.575C169.913 176.785 171.291 177.099 172.58 177.519V184.754C171.261 184.245 169.898 183.9 168.49 183.721C167.082 183.541 165.644 183.451 164.176 183.451C161.39 183.451 159.292 184.08 157.884 185.338C156.506 186.597 155.817 188.634 155.817 191.45C155.817 194.087 156.416 195.989 157.615 197.158C158.843 198.326 160.641 198.91 163.007 198.91C163.786 198.91 164.52 198.865 165.209 198.776C165.899 198.656 166.543 198.506 167.142 198.326V194.102H161.39V188.889H174.197V203.449C173.089 204.138 171.606 204.753 169.748 205.292C167.921 205.831 165.674 206.101 163.007 206.101ZM188.19 206.101C186.243 206.101 184.4 205.951 182.663 205.651C180.925 205.322 179.442 204.872 178.214 204.303V197.337C179.562 197.967 181.06 198.476 182.708 198.865C184.355 199.255 185.898 199.45 187.337 199.45C188.835 199.45 189.958 199.33 190.707 199.09C191.486 198.82 191.875 198.236 191.875 197.337C191.875 196.708 191.651 196.214 191.201 195.854C190.782 195.495 190.108 195.165 189.179 194.866C188.28 194.566 187.097 194.192 185.629 193.742C183.681 193.113 182.138 192.424 181 191.675C179.861 190.926 179.038 190.012 178.528 188.934C178.049 187.855 177.809 186.537 177.809 184.979C177.809 182.133 178.813 179.976 180.82 178.508C182.857 177.009 185.868 176.26 189.853 176.26C191.441 176.26 193.074 176.395 194.752 176.665C196.459 176.935 197.838 177.234 198.886 177.564V184.574C197.478 184.005 196.13 183.601 194.842 183.361C193.553 183.121 192.34 183.002 191.201 183.002C189.883 183.002 188.76 183.106 187.831 183.316C186.902 183.526 186.438 184.065 186.438 184.934C186.438 185.683 186.827 186.237 187.606 186.597C188.415 186.926 189.838 187.361 191.875 187.9C194.242 188.529 196.04 189.293 197.268 190.192C198.527 191.091 199.38 192.139 199.83 193.338C200.279 194.506 200.504 195.839 200.504 197.337C200.504 199.974 199.485 202.101 197.448 203.719C195.411 205.307 192.325 206.101 188.19 206.101ZM204.984 205.651V176.71H213.433V187.496H223.409V176.71H231.858V205.651H223.409V194.866H213.433V205.651H204.984ZM237.272 205.651V176.71H245.721V205.651H237.272ZM251.128 205.651V176.71H267.037C269.973 176.71 272.205 177.399 273.733 178.777C275.261 180.155 276.025 182.133 276.025 184.709C276.025 186.207 275.741 187.466 275.171 188.484C274.632 189.503 273.913 190.312 273.014 190.911C274.243 191.39 275.216 192.094 275.935 193.023C276.684 193.922 277.059 195.27 277.059 197.068C277.059 199.794 276.22 201.906 274.542 203.404C272.864 204.902 270.483 205.651 267.397 205.651H251.128ZM259.263 188.26H264.745C266.813 188.26 267.846 187.331 267.846 185.473C267.846 184.544 267.591 183.84 267.082 183.361C266.603 182.882 265.749 182.642 264.521 182.642H259.263V188.26ZM259.263 199.764H265.105C266.243 199.764 267.082 199.525 267.621 199.045C268.161 198.566 268.43 197.772 268.43 196.663C268.43 195.735 268.161 195.031 267.621 194.551C267.082 194.072 266.183 193.832 264.925 193.832H259.263V199.764ZM279.095 205.651L290.195 176.71H299.138L310.238 205.651H301.43L299.003 199.495H290.285L287.903 205.651H279.095ZM291.408 193.428H297.88L294.644 184.934L291.408 193.428Z" fill="#FDA625"/>
</svg>
