<svg width="77" height="77" viewBox="0 0 77 77" fill="none" xmlns="http://www.w3.org/2000/svg">
<path d="M77 38.5C77.0019 41.3481 76.6887 44.1877 76.0661 46.9669C75.1035 51.2611 73.4044 55.3562 71.0441 59.0704C67.9897 63.8998 63.8998 67.9897 59.0704 71.0441C55.3561 73.4044 51.2611 75.1035 46.9669 76.0661C41.391 77.3113 35.609 77.3113 30.0331 76.0661C25.7389 75.1035 21.6438 73.4044 17.9295 71.0441C13.1002 67.9897 9.01026 63.8998 5.9559 59.0704C3.59559 55.3562 1.89648 51.2611 0.93389 46.9669C-0.311297 41.3889 -0.311297 35.6049 0.93389 30.0269C2.54148 22.9244 6.12777 16.4224 11.2776 11.2736C16.4274 6.1249 22.9302 2.53998 30.0331 0.9339C35.609 -0.3113 41.391 -0.3113 46.9669 0.9339C54.0689 2.54175 60.5707 6.12726 65.7203 11.2757C70.8698 16.4242 74.4567 22.9252 76.0661 30.0269C76.689 32.8082 77.0022 35.6498 77 38.5Z" fill="#FFC839"/>
<path d="M38.5001 61.5363C51.2237 61.5363 61.5382 51.2217 61.5382 38.4981C61.5382 25.7745 51.2237 15.46 38.5001 15.46C25.7764 15.46 15.4619 25.7745 15.4619 38.4981C15.4619 51.2217 25.7764 61.5363 38.5001 61.5363Z" fill="#FCF9F0"/>
<path d="M47.6837 43.4954C48.9015 42.2775 49.5857 40.6258 49.5857 38.9035C49.5857 37.1812 48.9015 35.5295 47.6837 34.3116L38.5 25.1279L29.3163 34.3116C28.3049 35.3255 27.6571 36.6452 27.4735 38.0654C27.2899 39.4856 27.5809 40.9266 28.3012 42.1643C29.0215 43.402 30.1307 44.3668 31.4562 44.9088C32.7817 45.4508 34.2492 45.5394 35.6303 45.1609C35.3488 47.5433 34.5464 49.8345 33.2801 51.872H43.7218C42.4551 49.8346 41.6527 47.5434 41.3716 45.1609C42.477 45.466 43.6436 45.4726 44.7524 45.18C45.8612 44.8874 46.8727 44.3061 47.6837 43.4954Z" fill="#373737"/>
<path d="M46.967 0.9339L44.8642 8.65864H32.136L30.0332 0.9339C35.6091 -0.3113 41.3911 -0.3113 46.967 0.9339Z" fill="url(#paint0_linear)"/>
<path d="M46.967 76.0661C41.3911 77.3113 35.6091 77.3113 30.0332 76.0661L32.136 68.3352H44.8642L46.967 76.0661Z" fill="url(#paint1_linear)"/>
<path d="M71.0439 17.9295L64.0984 21.9001L55.0996 12.8952L59.064 5.94971C63.8969 9.00444 67.9891 13.0967 71.0439 17.9295Z" fill="url(#paint2_linear)"/>
<path d="M21.9003 64.0986L17.9297 71.0441C13.1003 67.9897 9.01042 63.8999 5.95605 59.0705L12.9015 55.0999L21.9003 64.0986Z" fill="url(#paint3_linear)"/>
<path d="M76.9999 38.5001C77.0019 41.3482 76.6887 44.1878 76.066 46.967L68.3413 44.8642V32.136L76.066 30.027C76.689 32.8082 77.0022 35.6499 76.9999 38.5001Z" fill="url(#paint4_linear)"/>
<path d="M8.65863 32.136V44.8642L0.93389 46.967C-0.311297 41.389 -0.311297 35.605 0.93389 30.027L8.65863 32.136Z" fill="url(#paint5_linear)"/>
<path d="M71.0439 59.0705C67.9895 63.8999 63.8996 67.9897 59.0702 71.0441L55.0996 64.0986L64.0984 55.0999L71.0439 59.0705Z" fill="url(#paint6_linear)"/>
<path d="M21.9003 12.8952L12.9015 21.9001L5.95605 17.9295C9.01079 13.0967 13.103 9.00444 17.9359 5.94971L21.9003 12.8952Z" fill="url(#paint7_linear)"/>
<defs>
<linearGradient id="paint0_linear" x1="38.5001" y1="0" x2="38.5001" y2="8.65864" gradientUnits="userSpaceOnUse">
<stop stop-color="#F59A22"/>
<stop offset="1" stop-color="#FEA726"/>
</linearGradient>
<linearGradient id="paint1_linear" x1="38.5001" y1="68.3352" x2="38.5001" y2="77" gradientUnits="userSpaceOnUse">
<stop stop-color="#F59A22"/>
<stop offset="1" stop-color="#FEA726"/>
</linearGradient>
<linearGradient id="paint2_linear" x1="63.0717" y1="5.94971" x2="63.0717" y2="21.9001" gradientUnits="userSpaceOnUse">
<stop stop-color="#F59A22"/>
<stop offset="1" stop-color="#FEA726"/>
</linearGradient>
<linearGradient id="paint3_linear" x1="13.9282" y1="55.0999" x2="13.9282" y2="71.0441" gradientUnits="userSpaceOnUse">
<stop stop-color="#F59A22"/>
<stop offset="1" stop-color="#FEA726"/>
</linearGradient>
<linearGradient id="paint4_linear" x1="72.6706" y1="30.027" x2="72.6706" y2="46.967" gradientUnits="userSpaceOnUse">
<stop stop-color="#F59A22"/>
<stop offset="1" stop-color="#FEA726"/>
</linearGradient>
<linearGradient id="paint5_linear" x1="4.32931" y1="30.027" x2="4.32931" y2="46.967" gradientUnits="userSpaceOnUse">
<stop stop-color="#F59A22"/>
<stop offset="1" stop-color="#FEA726"/>
</linearGradient>
<linearGradient id="paint6_linear" x1="63.0717" y1="55.0999" x2="63.0717" y2="71.0441" gradientUnits="userSpaceOnUse">
<stop stop-color="#F59A22"/>
<stop offset="1" stop-color="#FEA726"/>
</linearGradient>
<linearGradient id="paint7_linear" x1="13.9282" y1="5.94971" x2="13.9282" y2="21.9001" gradientUnits="userSpaceOnUse">
<stop stop-color="#F59A22"/>
<stop offset="1" stop-color="#FEA726"/>
</linearGradient>
</defs>
</svg>
