<svg width="19" height="19" viewBox="0 0 19 19" fill="none" xmlns="http://www.w3.org/2000/svg">
<path d="M10.9598 9.26808L18.2498 1.97808C18.4136 1.78678 18.4992 1.54071 18.4895 1.28903C18.4798 1.03735 18.3754 0.798615 18.1973 0.620521C18.0192 0.442426 17.7805 0.338093 17.5288 0.328372C17.2772 0.318651 17.0311 0.404257 16.8398 0.568084L9.54978 7.85808L2.25978 0.558084C2.06848 0.394257 1.8224 0.308652 1.57072 0.318373C1.31905 0.328094 1.08031 0.432426 0.902215 0.61052C0.724121 0.788615 0.619788 1.02735 0.610067 1.27903C0.600346 1.53071 0.685952 1.77678 0.849779 1.96808L8.13978 9.26808L0.839778 16.5581C0.735097 16.6477 0.650076 16.758 0.590053 16.8821C0.53003 17.0062 0.496299 17.1413 0.49098 17.279C0.48566 17.4167 0.508866 17.5541 0.559141 17.6824C0.609415 17.8107 0.685673 17.9273 0.783128 18.0247C0.880583 18.1222 0.99713 18.1984 1.12546 18.2487C1.25378 18.299 1.39111 18.3222 1.52883 18.3169C1.66655 18.3116 1.80168 18.2778 1.92575 18.2178C2.04981 18.1578 2.16013 18.0728 2.24978 17.9681L9.54978 10.6781L16.8398 17.9681C17.0311 18.1319 17.2772 18.2175 17.5288 18.2078C17.7805 18.1981 18.0192 18.0937 18.1973 17.9156C18.3754 17.7376 18.4798 17.4988 18.4895 17.2471C18.4992 16.9955 18.4136 16.7494 18.2498 16.5581L10.9598 9.26808Z" fill="white"/>
</svg>
