<svg width="23" height="23" viewBox="0 0 23 23" fill="none" xmlns="http://www.w3.org/2000/svg">
<g opacity="0.72" clip-path="url(#clip0)">
<path d="M11.7264 23.0003C11.6502 23.0003 11.5741 23.0003 11.4974 23C9.69453 23.0044 8.02873 22.9586 6.40874 22.8599C4.92351 22.7696 3.56778 22.2563 2.4879 21.3758C1.44592 20.5261 0.734367 19.3773 0.373062 17.9615C0.0586091 16.729 0.0419388 15.5191 0.0259705 14.3488C0.014389 13.5092 0.00245667 12.5142 0 11.5024C0.00245667 10.4864 0.014389 9.49146 0.0259705 8.65181C0.0419388 7.48173 0.0586091 6.27182 0.373062 5.0391C0.734367 3.62336 1.44592 2.47452 2.4879 1.62486C3.56778 0.744321 4.92351 0.231053 6.40891 0.140683C8.02891 0.0422405 9.69505 -0.00373427 11.5018 0.000652638C13.3051 -0.00320784 14.9704 0.0422405 16.5904 0.140683C18.0756 0.231053 19.4313 0.744321 20.5112 1.62486C21.5534 2.47452 22.2648 3.62336 22.6261 5.0391C22.9405 6.27165 22.9572 7.48173 22.9732 8.65181C22.9847 9.49146 22.9968 10.4864 22.9991 11.4982V11.5024C22.9968 12.5142 22.9847 13.5092 22.9732 14.3488C22.9572 15.5189 22.9407 16.7288 22.6261 17.9615C22.2648 19.3773 21.5534 20.5261 20.5112 21.3758C19.4313 22.2563 18.0756 22.7696 16.5904 22.8599C15.039 22.9543 13.4453 23.0003 11.7264 23.0003ZM11.4974 21.2031C13.2709 21.2073 14.8993 21.1626 16.4812 21.0664C17.6043 20.9981 18.578 20.6337 19.3757 19.9832C20.1131 19.3818 20.6209 18.5522 20.885 17.5172C21.1468 16.4912 21.1619 15.3896 21.1765 14.3243C21.1879 13.4902 21.1998 12.5023 21.2022 11.5003C21.1998 10.4982 21.1879 9.51041 21.1765 8.67637C21.1619 7.61106 21.1468 6.50942 20.885 5.48323C20.6209 4.44827 20.1131 3.61862 19.3757 3.01726C18.578 2.36695 17.6043 2.00249 16.4812 1.93423C14.8993 1.83789 13.2709 1.79349 11.5016 1.79735C9.72839 1.79314 8.0998 1.83789 6.51788 1.93423C5.39484 2.00249 4.42112 2.36695 3.62341 3.01726C2.88605 3.61862 2.37823 4.44827 2.11414 5.48323C1.85233 6.50942 1.83723 7.61088 1.82267 8.67637C1.81126 9.51111 1.79933 10.4996 1.79688 11.5024C1.79933 12.5009 1.81126 13.4895 1.82267 14.3243C1.83723 15.3896 1.85233 16.4912 2.11414 17.5172C2.37823 18.5522 2.88605 19.3818 3.62341 19.9832C4.42112 20.6335 5.39484 20.998 6.51788 21.0662C8.0998 21.1626 9.72874 21.2075 11.4974 21.2031ZM11.4546 17.1156C8.35845 17.1156 5.83932 14.5966 5.83932 11.5003C5.83932 8.40403 8.35845 5.88507 11.4546 5.88507C14.5508 5.88507 17.0698 8.40403 17.0698 11.5003C17.0698 14.5966 14.5508 17.1156 11.4546 17.1156ZM11.4546 7.68195C9.34919 7.68195 7.63619 9.39495 7.63619 11.5003C7.63619 13.6057 9.34919 15.3187 11.4546 15.3187C13.5601 15.3187 15.2729 13.6057 15.2729 11.5003C15.2729 9.39495 13.5601 7.68195 11.4546 7.68195ZM17.6987 4.0882C16.9545 4.0882 16.351 4.69148 16.351 5.43585C16.351 6.18022 16.9545 6.78351 17.6987 6.78351C18.4431 6.78351 19.0463 6.18022 19.0463 5.43585C19.0463 4.69148 18.4431 4.0882 17.6987 4.0882Z" fill="white"/>
</g>
<defs>
<clipPath id="clip0">
<rect width="23" height="23" fill="white"/>
</clipPath>
</defs>
</svg>
