<svg width="111" height="111" viewBox="0 0 111 111" fill="none" xmlns="http://www.w3.org/2000/svg">
<path fill-rule="evenodd" clip-rule="evenodd" d="M46.7409 4.60893C42.3049 7.22215 29.9732 14.391 19.3377 20.539L0 31.7178L0.122878 55.4828L0.245759 79.2473L8.54846 84.0688C21.8983 91.8211 41.4979 103.165 48.1642 106.998C51.5565 108.949 54.5758 110.738 54.8737 110.974C55.2291 111.256 59.1575 109.237 66.3087 105.097C72.2999 101.628 84.8066 94.4106 94.1009 89.0574L111 79.3242L110.895 55.4111L110.79 31.498L83.7472 15.8229C68.8735 7.20174 56.2771 0.0823088 55.7552 0.00254457C55.2101 -0.0805432 51.3738 1.87985 46.7409 4.60893ZM61.3812 15.6577C67.4554 19.1521 79.9849 26.3974 92.1685 33.4603L100.59 38.3421V47.7946C100.59 53.9303 100.42 57.2467 100.104 57.2467C99.8364 57.2467 87.882 50.4971 73.5387 42.2477L47.4597 27.2487L41.7631 30.7341C38.6299 32.6508 36.0684 34.3263 36.0703 34.4569C36.0722 34.5874 36.8725 35.1358 37.8489 35.6752C43.8885 39.012 54.1431 45.0712 54.3685 45.4359C54.6759 45.9334 45.2739 57.4124 44.3858 57.6241C43.6532 57.7984 11.1555 39.0405 11.1645 38.4484C11.1726 37.9342 54.5203 12.6722 55.4507 12.6395C55.8051 12.6271 58.4738 13.985 61.3812 15.6577ZM83.4739 62.0073C92.6444 67.3012 100.073 71.8544 99.9826 72.126C99.8924 72.3971 89.905 78.3581 77.7892 85.3721C59.6262 95.8862 55.5925 98.0465 54.8087 97.679C54.2854 97.4341 44.2501 91.6706 32.5077 84.8717L11.1579 72.5101L11.0293 62.691L10.9012 52.872L13.4015 54.2963C14.7769 55.0797 26.2304 61.6992 38.8543 69.0067L61.8058 82.2926L67.4331 78.6719C70.5279 76.6806 73.06 74.9443 73.0595 74.8138C73.0595 74.6832 69.1131 72.333 64.2904 69.5911C59.4677 66.8492 55.574 64.3471 55.6385 64.0304C55.7026 63.7137 57.8893 60.8717 60.4977 57.7148C63.7742 53.7489 65.4813 52.0373 66.0202 52.1783C66.4496 52.2908 74.3035 56.7139 83.4739 62.0073Z" fill="#FDA525" fill-opacity="0.6"/>
</svg>
