<svg width="462" height="462" viewBox="0 0 462 462" fill="none" xmlns="http://www.w3.org/2000/svg">
<path d="M455.684 231C455.695 247.621 453.867 264.193 450.233 280.412C444.616 305.473 434.7 329.372 420.925 351.048C403.1 379.232 379.232 403.1 351.048 420.925C329.372 434.7 305.473 444.616 280.412 450.233C247.872 457.5 214.128 457.5 181.588 450.233C156.527 444.616 132.628 434.7 110.952 420.925C82.7681 403.1 58.8997 379.232 41.0747 351.048C27.3001 329.372 17.3841 305.473 11.7665 280.412C4.4997 247.859 4.4997 214.105 11.7665 181.552C21.1483 140.102 42.0777 102.156 72.1319 72.1087C102.186 42.0609 140.136 21.1396 181.588 11.7666C214.128 4.49968 247.872 4.49968 280.412 11.7666C321.859 21.1499 359.804 42.0747 389.856 72.1208C419.908 102.167 440.841 140.106 450.233 181.552C453.869 197.783 455.697 214.367 455.684 231Z" fill="#F7AE43"/>
<path d="M231 365.438C305.254 365.438 365.449 305.243 365.449 230.989C365.449 156.735 305.254 96.5399 231 96.5399C156.746 96.5399 96.5508 156.735 96.5508 230.989C96.5508 305.243 156.746 365.438 231 365.438Z" fill="#222831"/>
<path d="M284.596 260.153C291.703 253.046 295.695 243.406 295.695 233.355C295.695 223.304 291.703 213.665 284.596 206.557L231 152.962L177.404 206.557C171.502 212.474 167.721 220.176 166.65 228.464C165.579 236.752 167.277 245.162 171.481 252.385C175.684 259.608 182.157 265.239 189.893 268.402C197.628 271.564 206.192 272.082 214.252 269.873C212.61 283.776 207.927 297.148 200.537 309.038H261.474C254.082 297.149 249.399 283.777 247.758 269.873C254.21 271.653 261.018 271.692 267.489 269.984C273.96 268.277 279.862 264.884 284.596 260.153Z" fill="#FDA525"/>
<path d="M280.413 11.7666L268.141 56.8477H193.86L181.588 11.7666C214.129 4.49968 247.872 4.49968 280.413 11.7666Z" fill="#FFD07F"/>
<path d="M280.413 450.233C247.872 457.5 214.129 457.5 181.588 450.233L193.86 405.116H268.141L280.413 450.233Z" fill="#FFD07F"/>
<path d="M420.925 110.952L380.392 134.124L327.875 81.572L351.012 41.0387C379.216 58.8659 403.098 82.7481 420.925 110.952Z" fill="#FFD07F"/>
<path d="M134.124 380.392L110.952 420.925C82.7682 403.1 58.8998 379.232 41.0747 351.048L81.608 327.876L134.124 380.392Z" fill="#FFD07F"/>
<path d="M455.684 231C455.695 247.621 453.867 264.193 450.233 280.412L405.152 268.14V193.859L450.233 181.552C453.869 197.783 455.697 214.367 455.684 231Z" fill="#FFD07F"/>
<path d="M56.8476 193.859V268.14L11.7665 280.412C4.4997 247.859 4.4997 214.105 11.7665 181.552L56.8476 193.859Z" fill="#FFD07F"/>
<path d="M420.925 351.048C403.1 379.232 379.232 403.1 351.048 420.925L327.875 380.392L380.392 327.876L420.925 351.048Z" fill="#FFD07F"/>
<path d="M134.124 81.572L81.608 134.124L41.0747 110.952C58.902 82.7481 82.7841 58.8659 110.988 41.0387L134.124 81.572Z" fill="#FFD07F"/>
</svg>
