<svg width="134" height="112" viewBox="0 0 134 112" fill="none" xmlns="http://www.w3.org/2000/svg">
<path fill-rule="evenodd" clip-rule="evenodd" d="M70.1453 6.96592C99.133 6.96592 122.515 30.322 122.515 59.4147C122.515 88.0976 98.8595 111.727 69.735 111.59C41.5677 111.317 17.9126 88.0976 17.9126 59.2781C17.9126 30.322 41.1575 6.82934 70.1453 6.96592ZM30.3555 86.5952C30.3555 87.1415 30.6289 87.4147 30.9024 87.8245C32.9534 90.6928 35.2779 93.4245 38.0126 95.7464C39.2432 96.8391 40.4738 97.9318 41.8412 98.8879C45.6697 101.346 49.635 103.668 54.0106 105.171C57.5657 106.4 61.2575 107.356 64.9493 107.766C67.8208 108.039 70.8289 108.176 73.7004 107.766C75.3412 107.493 77.1187 107.493 78.7595 106.81C79.033 106.946 79.1697 106.673 79.3065 106.673C82.7248 106.127 86.0065 105.034 89.2881 103.668C99.9534 99.0245 108.021 91.5123 113.217 81.1318C117.866 71.9806 119.37 62.283 117.866 52.1757C116.498 42.4781 112.396 34.0098 105.833 26.9074C97.082 16.9367 85.8697 11.7464 72.6065 10.9269C66.7269 10.5171 60.8473 11.3367 55.2412 13.2488C46.0799 16.2537 38.5595 21.444 32.4065 28.9562C25.433 37.561 22.0146 47.3952 21.6044 58.322C21.4677 61.0537 21.7412 63.6489 22.1514 66.3806C22.9718 72.5269 25.0228 78.4001 28.1677 83.7269C28.9881 84.5464 29.535 85.6391 30.3555 86.5952Z" fill="#A6732A"/>
<path fill-rule="evenodd" clip-rule="evenodd" d="M78.7595 106.673C77.1187 107.493 75.3412 107.493 73.7004 107.629C70.8289 108.039 67.8208 107.903 64.9493 107.629C61.2575 107.22 57.5657 106.264 54.0106 105.034C49.6351 103.532 45.6698 101.21 41.8412 98.7514C40.4738 97.7953 39.2432 96.7026 38.0126 95.6099C35.2779 93.288 32.9534 90.5563 30.9024 87.688C30.6289 87.2782 30.3555 86.8685 30.3555 86.4587C33.6371 79.0831 34.8677 71.2977 35.5514 63.3758C35.8249 59.688 35.9616 56.0002 36.6453 52.3124C37.3289 48.0782 38.9698 44.2538 41.9779 40.9758C44.7126 38.1075 48.131 36.1953 51.8228 34.8294C54.831 33.6002 57.9759 32.5075 61.3942 32.3709C64.5391 32.2343 67.5473 32.6441 70.5555 33.327C75.0677 34.4197 79.58 35.7855 83.8187 37.8343C87.2371 39.2002 90.7922 40.566 94.3473 41.6587C98.0391 42.7514 101.731 43.9807 104.876 46.3026C108.841 49.3075 109.935 53.1319 108.158 57.7758C107.064 60.6441 105.013 62.8294 102.962 65.0148C99.2698 68.8392 95.3045 72.3904 91.7493 76.3514C87.6473 81.1319 83.9555 86.0489 81.3575 91.7855C79.1698 96.566 77.9391 101.483 78.7595 106.673ZM105.149 61.7367C105.013 61.7367 104.876 61.7368 104.739 61.8733C104.602 61.8733 104.466 62.0099 104.466 62.1465C104.466 62.1465 104.466 62.1465 104.466 62.2831C104.602 62.2831 104.739 62.1465 104.739 62.0099L105.149 61.7367C105.286 61.7367 105.423 61.7367 105.149 61.7367C105.286 61.6002 105.149 61.7367 105.149 61.7367ZM63.3085 37.9709C58.1126 37.9709 53.8738 42.205 53.8738 47.2587C53.8738 52.4489 58.1126 56.5465 63.1718 56.6831C68.3677 56.6831 72.4698 52.4489 72.6065 47.2587C72.6065 42.0685 68.5045 37.9709 63.3085 37.9709ZM70.9657 66.6538C71.7861 67.8831 73.2902 68.9758 75.0677 69.5221C78.6228 70.7514 82.1779 70.7514 85.733 70.0685C92.0228 68.8392 97.9024 66.6538 103.235 63.1026C103.509 62.8294 104.055 62.8294 104.192 62.2831C103.919 62.1465 103.782 62.2831 103.645 62.4197C101.868 63.5124 99.9534 64.3319 98.0391 65.1514C93.1167 67.2002 87.9208 68.566 82.4514 68.8392C78.4861 69.1124 74.5208 68.8392 70.9657 66.6538ZM96.8085 58.5953C97.9024 58.5953 98.8596 57.6392 98.8596 56.4099C98.8596 55.3172 97.9024 54.3611 96.6718 54.4977C95.5779 54.4977 94.7575 55.4538 94.7575 56.5465C94.7575 57.7758 95.5779 58.5953 96.8085 58.5953Z" fill="#A6732A"/>
<path fill-rule="evenodd" clip-rule="evenodd" d="M63.3082 37.9707C68.5042 37.9707 72.6062 42.2048 72.6062 47.2585C72.6062 52.4487 68.3674 56.5463 63.1715 56.6829C57.9756 56.6829 53.8735 52.4487 53.8735 47.2585C53.8735 42.0683 58.1123 37.9707 63.3082 37.9707ZM69.8715 47.3951C69.8715 43.7073 67.0001 40.839 63.3082 40.839C59.6164 40.839 56.745 43.7073 56.745 47.3951C56.745 50.9463 59.6164 53.9512 63.1715 53.9512H63.3082C66.8633 53.9512 69.7348 51.0829 69.8715 47.3951Z" fill="#FCFDFB"/>
<path fill-rule="evenodd" clip-rule="evenodd" d="M70.9659 66.6537C74.521 68.8391 78.4863 69.1123 82.4516 68.9757C87.921 68.7025 93.1169 67.4732 98.0394 65.2879C99.9536 64.4684 101.868 63.6489 103.645 62.5562C103.782 62.4196 103.919 62.283 104.192 62.4196C104.056 62.8293 103.645 62.9659 103.235 63.2391C97.9026 66.7903 92.023 68.9757 85.7332 70.205C82.1781 70.8879 78.4863 70.8879 75.0679 69.6586C73.2904 68.9757 71.6496 67.883 70.9659 66.6537ZM70.4189 33.3269C73.2904 32.5074 76.2985 32.2342 79.17 33.3269C81.3577 34.1464 82.9985 35.6489 83.6822 37.9708C79.5802 35.7854 75.0679 34.4196 70.4189 33.3269Z" fill="#7E8295"/>
<path fill-rule="evenodd" clip-rule="evenodd" d="M96.8088 58.5951C95.715 58.5951 94.7578 57.639 94.7578 56.5463C94.7578 55.4537 95.5782 54.4976 96.6721 54.4976C97.766 54.4976 98.7231 55.3171 98.8598 56.4098C98.7231 57.639 97.9027 58.5951 96.8088 58.5951Z" fill="#7E8295"/>
<path fill-rule="evenodd" clip-rule="evenodd" d="M104.739 62.0097C104.739 62.1463 104.603 62.2829 104.466 62.2829C104.466 62.0097 104.603 61.8732 104.739 62.0097ZM105.15 61.7366L104.739 62.0097L104.603 61.8732C104.876 61.7366 105.013 61.7366 105.15 61.7366Z" fill="#A9ACBF"/>
<path fill-rule="evenodd" clip-rule="evenodd" d="M69.8716 47.3953C69.8716 50.9465 67.0002 53.9514 63.4451 53.9514H63.3084C59.7533 53.9514 56.7451 51.0831 56.7451 47.3953V47.2587C56.7451 43.5709 59.7533 40.7026 63.3084 40.7026C66.8635 40.7026 69.8716 43.7075 69.8716 47.3953Z" fill="#7E8295"/>
</svg>
