<svg width="33" height="39" viewBox="0 0 33 39" fill="none" xmlns="http://www.w3.org/2000/svg">
<path fill-rule="evenodd" clip-rule="evenodd" d="M0.0672183 0.101919C0.263388 0.324782 6.52219 8.1676 9.43874 11.8452C12.1101 15.2136 12.5741 15.813 12.6443 15.9854C12.8239 16.4267 12.4359 16.848 11.642 17.0738C10.8836 17.2896 10.3747 17.1176 9.92444 16.4933C9.61673 16.0666 8.5415 14.3924 6.7882 11.6102C5.95318 10.285 5.23288 9.15372 5.18756 9.09615L5.10523 8.99152L5.15915 9.10476C5.1888 9.16704 5.87204 10.4308 6.67745 11.9132C9.01882 16.2225 9.34771 16.8546 9.34595 17.0422C9.34436 17.2126 9.19156 17.4906 8.92859 17.8018C8.44845 18.37 8.2097 19.0449 8.02324 20.3611C7.76305 22.1977 7.30241 23.1549 5.658 25.2759C4.33264 26.9853 4.12924 27.4581 4.12787 28.8317C4.12708 29.6222 4.1727 29.9158 4.40893 30.6398C4.58494 31.1793 4.78477 31.5826 5.30758 32.4532C5.80021 33.2735 6.03772 33.7565 6.03772 33.9377C6.03772 34.0482 6.0544 34.0636 6.17428 34.0636C6.37742 34.0636 7.49359 33.7765 8.02324 33.5881C8.63932 33.3689 9.40926 32.9873 9.86849 32.6736C10.3162 32.3678 10.8397 31.8428 11.0198 31.519C11.1837 31.2244 11.2605 30.7762 11.235 30.2632C11.1986 29.5323 10.8815 29.108 9.74402 28.269C8.74178 27.5297 8.31851 27.0265 8.14083 26.363C7.92418 25.5541 8.02452 25.0933 8.78705 23.3955C9.2836 22.2899 9.4191 21.7691 9.5415 20.4957C9.62083 19.6703 9.67179 19.4227 9.81369 19.1736C10.0318 18.7908 10.293 18.6573 11.114 18.5093C12.1604 18.3206 12.6977 18.0912 13.1956 17.6208C13.6784 17.1646 13.8894 16.6556 13.8904 15.9447L13.8908 15.6502L13.5982 15.3105C11.5187 12.897 0.0673068 0 0.00372603 0C-0.010658 0 0.0178892 0.0458409 0.0672183 0.101919ZM12.5237 8.62506C12.5237 8.63525 12.6677 8.66741 12.8436 8.69654C14.3716 8.94934 15.5519 9.57173 16.7534 10.7581C17.2742 11.2724 17.7462 11.8401 18.6553 13.0456C20.3969 15.3554 21.166 16.0991 22.3582 16.6267C23.4029 17.0891 24.5935 17.3115 26.7092 17.4396C27.6244 17.495 28.4297 17.5919 28.846 17.6968C29.6629 17.9026 30.2992 18.3709 30.7926 19.1294C30.9978 19.4449 31.0109 19.3958 30.8814 18.7949C30.6463 17.7035 29.9295 16.3493 28.9923 15.226L28.8651 15.0735L28.7429 15.5657C28.5042 16.5269 28.0536 17.2487 27.6427 17.3279C27.4546 17.3641 27.199 17.2507 27.0749 17.076C26.9213 16.8599 26.927 16.6696 27.0985 16.2786C27.1846 16.0824 27.2788 15.7804 27.308 15.6073C27.3748 15.2112 27.3393 14.3177 27.2393 13.8724L27.1655 13.5441L26.8049 13.314C26.3246 13.0073 25.39 12.5423 24.9065 12.3692C23.2433 11.7741 21.2977 11.6097 19.4289 11.9065L18.9436 11.9835L18.1714 11.1841C17.7468 10.7444 17.2116 10.2377 16.9822 10.0581C15.7243 9.07328 14.446 8.60758 12.9981 8.60676C12.7372 8.60662 12.5237 8.61482 12.5237 8.62506ZM27.8883 9.5667C27.7119 10.0064 27.625 10.4247 27.5694 11.1028C27.499 11.9602 27.4994 11.9585 27.35 11.9585C27.2799 11.9585 26.9811 11.8657 26.6859 11.7523C26.1794 11.5578 25.1515 11.2337 25.0411 11.2337C25.0132 11.2337 25.3183 11.4021 25.7189 11.608C26.8811 12.2052 27.4233 12.6189 27.6551 13.0854C27.8504 13.4785 27.8951 13.8168 27.8978 14.9255C27.9003 15.8997 27.8941 15.9842 27.8018 16.2278C27.6629 16.5946 27.7234 16.5519 27.8982 16.1598C28.1417 15.6134 28.211 15.241 28.2693 14.1655C28.3193 13.245 28.3692 13.2242 29.1183 13.8112C29.3707 14.009 29.7757 14.3498 30.0184 14.5686C30.2611 14.7874 30.4305 14.9265 30.3949 14.8779C30.1585 14.5552 29.6386 13.9455 29.1833 13.4571C28.1977 12.4001 28.073 12.2049 27.9515 11.5282C27.8059 10.7178 27.8206 9.95644 27.9914 9.45939C28.1005 9.14208 28.0286 9.21682 27.8883 9.5667ZM12.4123 9.94271C12.297 11.522 12.9861 13.5706 14.0237 14.7331C14.3651 15.1156 14.9034 15.5338 15.3175 15.7383C15.694 15.9242 16.1882 16.0268 16.385 15.9599C16.6063 15.8846 16.5813 15.7457 16.247 15.1912C15.7839 14.4233 15.6754 14.1419 15.4317 13.0769C15.3108 12.5489 15.1851 12.0253 15.1521 11.9132C14.8453 10.8674 14.4447 10.3181 13.7171 9.94507C13.4335 9.79966 12.8575 9.5917 12.5832 9.53563L12.4441 9.50718L12.4123 9.94271ZM21.2606 17.6729C21.2618 18.9465 21.6042 19.8331 22.4119 20.654C23.2382 21.494 24.5031 22.2332 26.6651 23.1394C29.5516 24.3493 30.5434 24.9058 31.3031 25.7419C31.7878 26.2754 32.0697 26.8959 32.1467 27.5988C32.1653 27.7677 32.2002 27.9104 32.2245 27.9159C32.2845 27.9294 32.6129 27.2372 32.7533 26.8014C32.816 26.6066 32.8969 26.2499 32.933 26.0087C33.0238 25.4022 33.022 24.2211 32.9295 23.7574C32.6341 22.2747 31.8259 21.0397 30.6002 20.198C29.5198 19.4561 28.3727 19.0597 26.3562 18.7316C23.0132 18.1877 22.4967 18.0291 21.4696 17.2312L21.26 17.0684L21.2606 17.6729ZM14.3411 18.8919C13.8452 19.1463 13.4941 19.6792 13.4597 20.2297C13.4209 20.8498 13.5264 21.1357 13.8637 21.3253C14.0781 21.4458 14.9488 21.429 15.4122 21.2954C16.0738 21.1046 16.5229 20.7732 16.6227 20.402C16.7025 20.1054 16.5543 19.6538 16.2671 19.3179C15.9401 18.9356 15.5144 18.7531 14.9495 18.7531C14.6608 18.7531 14.5722 18.7733 14.3411 18.8919ZM15.5931 19.0906C15.8765 19.2812 15.9613 19.5608 15.8051 19.7897C15.7081 19.9319 15.3213 20.111 15.11 20.1116C14.74 20.1125 14.3301 19.8802 14.2703 19.6356C14.2054 19.3701 14.4964 19.054 14.8667 18.9877C15.1011 18.9457 15.4515 18.9953 15.5931 19.0906ZM23.5803 22.8525C23.8461 23.7459 23.9043 24.676 23.7356 25.3348C23.5035 26.241 22.8817 27.0171 22.0113 27.4868C21.4289 27.8011 21.1089 27.8843 19.0098 28.2666C17.6779 28.5092 17.0692 28.6939 16.3183 29.0832C15.9104 29.2947 15.3826 29.621 15.4446 29.6233C15.4615 29.6239 15.6303 29.5742 15.8196 29.5129C16.7289 29.2183 17.3939 29.1143 19.1642 28.9896C20.5819 28.8899 21.036 28.8271 21.6455 28.6469C22.9805 28.2521 23.9784 27.3011 24.3442 26.0752C24.4199 25.8216 24.4368 25.6471 24.4363 25.1239C24.436 24.7332 24.4128 24.3948 24.3767 24.2567C24.2388 23.7279 23.9663 23.175 23.6626 22.8072L23.5129 22.626L23.5803 22.8525ZM25.2858 23.6112C25.1874 23.7368 25.0987 24.3325 25.0987 24.8678C25.0987 25.4839 25.1691 25.9038 25.3711 26.4914C25.6196 27.2147 25.8237 27.5826 26.9964 29.4206C27.9375 30.8957 28.1335 31.2264 28.4327 31.844C28.847 32.6988 29.0132 33.4272 28.9681 34.1899C28.9363 34.7282 28.8496 35.0815 28.6045 35.6716C28.501 35.9208 28.4231 36.1318 28.4314 36.1406C28.4663 36.1777 29.1883 35.7445 29.5287 35.4822C30.5914 34.6634 31.4188 33.3025 31.6992 31.912C31.8037 31.3938 31.8304 30.0402 31.7452 29.5791C31.5205 28.3632 30.9445 27.3179 30.0695 26.538C29.3928 25.9349 28.816 25.5532 27.1513 24.6069C26.5198 24.2479 25.8615 23.8643 25.6884 23.7544C25.3345 23.5298 25.3462 23.534 25.2858 23.6112ZM6.25842 28.29C6.62226 28.4773 6.76799 29.0327 6.55475 29.4192C6.35946 29.7732 6.02638 29.8949 5.74108 29.7163C5.54094 29.591 5.5206 29.453 5.65826 29.1543C5.76081 28.9318 5.77373 28.7638 5.68836 28.7638C5.62341 28.7638 5.46412 28.5756 5.46412 28.4989C5.46412 28.225 5.90628 28.1087 6.25842 28.29ZM15.6344 30.8292C14.822 30.9769 13.8262 31.3422 12.9348 31.8197C12.109 32.262 11.612 32.6136 10.5305 33.5207C10.4554 33.5837 10.4992 33.5982 11.0546 33.6945C12.2909 33.9087 12.9715 34.1659 13.6048 34.6578C13.7746 34.7898 14.2512 35.2363 14.6637 35.6501C15.4441 36.4328 15.6616 36.6107 16.0315 36.7681C17.0849 37.2166 18.1807 36.8592 18.6056 35.9287C18.7114 35.697 18.723 35.6201 18.723 35.1507C18.723 34.7023 18.7096 34.6042 18.6269 34.4455C18.3023 33.823 17.4494 33.5045 16.8245 33.7726C16.5922 33.8722 16.4246 34.0464 16.3194 34.2974C16.1609 34.6757 16.2465 35.0065 16.5523 35.198C16.7487 35.3209 16.8052 35.3092 16.6233 35.1833C16.2687 34.938 16.2692 34.4477 16.6245 34.1408C16.9823 33.8317 17.5111 33.8664 17.9843 34.2301C18.2067 34.401 18.3038 34.6393 18.3038 35.0145C18.3038 35.528 18.1015 35.8873 17.6783 36.1256C17.4782 36.2382 17.3944 36.2579 17.1125 36.2584C16.8221 36.259 16.7399 36.2387 16.4416 36.0931C16.0494 35.9016 15.7687 35.6364 15.6122 35.3092C15.5216 35.12 15.5037 35.0157 15.5033 34.6751C15.5029 34.3211 15.5188 34.2338 15.6247 34.0118C15.6918 33.8712 15.8336 33.6739 15.9399 33.5734C16.7184 32.8366 17.9826 32.9088 18.9993 33.7481C19.5284 34.1848 19.8498 34.6968 20.4653 36.083C20.9486 37.1718 21.104 37.4596 21.4403 37.8887C21.8708 38.4381 22.3655 38.7747 22.9808 38.9368C23.5401 39.0842 24.3883 38.9663 24.9689 38.6605C25.2565 38.5091 25.8185 38.1224 25.7734 38.107C25.7486 38.0985 25.6226 38.1343 25.4933 38.1866C25.0536 38.3646 24.5721 38.4568 24.0839 38.4566C23.1273 38.4561 22.6168 38.1617 22.2165 37.3796C22.0081 36.9724 21.912 36.5907 21.7237 35.4225C21.6374 34.8869 21.5173 34.255 21.4569 34.0183C21.3159 33.4663 20.9337 32.6729 20.6331 32.3082C19.9945 31.5334 18.8757 30.9466 17.7642 30.8035C17.2549 30.738 16.0566 30.7524 15.6344 30.8292Z" fill="white"/>
</svg>
