<svg width="111" height="112" viewBox="0 0 111 112" fill="none" xmlns="http://www.w3.org/2000/svg">
<path fill-rule="evenodd" clip-rule="evenodd" d="M50.2047 0.142504C49.2784 0.230711 48.341 0.32972 48.1216 0.362485C47.0184 0.527025 45.993 0.694065 45.5953 0.774058C45.3515 0.823072 44.7448 0.941366 44.2472 1.03689C42.511 1.37017 40.0354 2.03056 38.0876 2.68015C33.9549 4.05834 30.537 5.63803 26.7197 7.93382C19.473 12.2922 12.9457 18.7866 8.43829 26.1233C7.20819 28.1255 5.85991 30.6431 5.06762 32.4174C4.4199 33.8679 4.3043 34.1356 4.14235 34.5601C4.04874 34.8056 3.93812 35.0868 3.89654 35.185C3.49871 36.1248 2.62061 38.6928 2.24804 40.0061C2.16444 40.3007 2.04353 40.7225 1.97936 40.9435C1.66831 42.0143 1.15727 44.2841 0.913947 45.6752C0.446352 48.3491 0.354162 49.1316 0.0721865 52.8175C-0.0939319 54.9898 0.039211 59.5112 0.343082 62.0132C0.688792 64.86 1.15834 67.4184 1.75216 69.6911C1.89967 70.2558 2.04593 70.8183 2.07713 70.941C2.2772 71.7272 3.06187 74.2037 3.18713 74.4439C3.23154 74.5292 3.26788 74.6412 3.26788 74.6928C3.26788 74.8102 4.35191 77.5737 4.69664 78.335C4.83714 78.6454 4.95211 78.9198 4.95211 78.9451C4.95211 79.0287 6.59938 82.3129 6.97558 82.9793C7.17902 83.3396 7.34549 83.6487 7.34549 83.6661C7.34549 83.7316 8.81592 86.112 9.41187 87.0111C10.3781 88.4689 12.1764 90.8747 13.1155 91.9661C14.4102 93.4706 14.9376 94.043 16.2047 95.3194C19.9608 99.1031 23.208 101.583 28.5314 104.735C29.6017 105.369 32.8222 106.976 34.1159 107.523C36.4375 108.503 38.9854 109.419 40.6312 109.866C45.1421 111.089 48.2188 111.609 52.5538 111.878C55.1928 112.042 56.4099 112.041 59.1134 111.874C61.1555 111.748 61.8883 111.678 63.2797 111.475C63.5966 111.429 64.0354 111.368 64.2548 111.338C64.7415 111.273 66.9126 110.873 67.4016 110.758C68.8329 110.423 70.1228 110.105 70.4598 110.005C70.6792 109.939 71.1579 109.797 71.5236 109.688C78.686 107.555 85.3226 103.942 91.2911 98.9265C93.7676 96.8456 97.084 93.3815 99.237 90.6269C104.526 83.8595 108.272 75.6471 109.945 67.1467C110.233 65.6836 110.261 65.526 110.349 64.9147C110.846 61.4688 111 59.3854 111 56.1208C111 51.505 110.707 48.8154 109.634 43.5772C109.519 43.0167 109.058 41.2588 108.755 40.2293C108.604 39.7137 108.446 39.1713 108.405 39.024C108.3 38.6498 107.52 36.4026 107.382 36.0778C107.32 35.9305 106.977 35.1069 106.622 34.2476C104.356 28.7715 100.878 23.2592 96.7908 18.6686C96.2913 18.1074 93.2587 15.0506 92.6651 14.5099C90.4233 12.4676 87.5458 10.2976 84.7273 8.52386C83.0912 7.4943 82.7885 7.31682 81.1542 6.42805C78.0641 4.74784 73.4814 2.85835 70.6814 2.11011C70.5352 2.07109 70.0964 1.9511 69.7064 1.84361C67.6731 1.28303 66.0231 0.924939 63.9888 0.602644C60.8385 0.103578 59.8461 0.0325125 55.6563 0.00590753C52.5761 -0.0136444 51.5818 0.0112645 50.2047 0.142504ZM60.2658 12.8161C60.6315 12.8705 61.3495 12.9745 61.8614 13.0473C63.7141 13.3111 65.3895 13.6775 67.6232 14.3077C70.2942 15.0611 73.7648 16.4997 76.2217 17.8718C77.9671 18.8465 77.971 18.8489 79.3685 19.7725C80.2073 20.3267 81.8877 21.5358 81.9835 21.654C82.0079 21.684 82.2074 21.8462 82.4268 22.0144C83.8533 23.1077 86.4188 25.5636 87.8384 27.1946C88.2016 27.612 88.5189 27.9736 88.5433 27.9981C88.9589 28.4148 90.7797 30.8945 91.6826 32.2734C93.7138 35.3757 95.7816 39.7932 96.7441 43.0862C97.7557 46.5469 98.1293 48.4109 98.4708 51.7015C98.6955 53.8669 98.7159 58.0184 98.5125 60.1716C97.3987 71.9581 91.7319 82.574 82.5597 90.0573C78.6179 93.2733 74.0127 95.8004 69.1302 97.4267C66.0792 98.4429 63.358 99.0167 59.601 99.436C58.1852 99.594 53.021 99.5961 51.756 99.4392C49.0307 99.1011 48.7744 99.0615 47.0136 98.708C41.3011 97.5608 35.4183 94.9451 30.5702 91.3966C28.9798 90.2327 28.0312 89.4491 26.4925 88.0282C25.2068 86.8408 25.1626 86.7961 23.9469 85.4487C20.1066 81.1929 16.8942 75.7866 15.1938 70.7178C15.062 70.325 14.9208 69.9232 14.8799 69.825C14.6823 69.3501 13.9885 66.838 13.758 65.7629C12.5309 60.0395 12.3524 54.8734 13.1949 49.4696C13.5446 47.2267 13.8668 45.7948 14.531 43.5326C16.0868 38.2336 18.7961 33.0451 22.2503 28.7495C23.5585 27.1227 25.8157 24.7208 27.069 23.6222C29.4081 21.5715 31.4608 20.0498 33.717 18.6939C35.787 17.4498 38.8112 16 40.8528 15.2728C41.2185 15.1425 41.5974 15.0027 41.6949 14.9621C41.7925 14.9214 42.2711 14.7641 42.7587 14.6126C43.2462 14.4611 43.7648 14.2989 43.911 14.2521C45.7918 13.6508 49.3364 12.9977 52.1549 12.733C53.2457 12.6306 59.4441 12.6941 60.2658 12.8161ZM53.7948 20.5488C50.8048 20.7918 48.3413 21.2298 45.8612 21.9594C42.9218 22.8243 39.8575 24.2138 37.2184 25.8787C34.1507 27.814 31.2439 30.3586 28.9842 33.087C28.5165 33.6517 28.1117 34.1338 28.0846 34.1583C27.9358 34.293 26.601 36.2156 26.0701 37.0599C25.0991 38.6043 23.8554 40.9908 23.3886 42.2057C23.2875 42.469 23.1509 42.8049 23.0852 42.9523C22.6402 43.9495 21.8223 46.6258 21.4346 48.3536C20.4292 52.8338 20.36 58.9136 21.2668 63.0845C22.4793 68.6609 24.2889 72.8187 27.348 77.0566C28.4699 78.6107 28.6466 78.8298 29.8828 80.2006C32.2426 82.8172 35.1954 85.2121 38.2378 86.9768C42.5326 89.468 46.8625 90.9001 52.0134 91.5328C53.5275 91.7188 57.8229 91.7445 59.2021 91.5757C63.9146 90.9993 67.4703 89.9754 71.2248 88.1139C77.6176 84.9441 82.8551 79.977 86.4139 73.7086C86.7198 73.17 88.1886 70.1701 88.1886 70.0841C88.1886 70.0546 88.2436 69.904 88.3109 69.7492C88.9217 68.3452 89.656 66.0586 90.0499 64.3344C90.498 62.3732 90.714 60.9338 90.8938 58.7099C91.0557 56.7081 91.0552 55.6714 90.8911 53.5764C90.7318 51.5416 90.5743 50.4391 90.1456 48.3536C89.9333 47.3214 89.3691 45.3582 88.927 44.1129C88.3082 42.3702 86.9601 39.435 86.2803 38.3505C86.1598 38.1582 86.0611 37.9793 86.0611 37.9529C86.0611 37.8113 83.3733 33.9024 83.1451 33.712C83.1157 33.6874 82.853 33.3861 82.5614 33.0424C79.0936 28.9546 74.719 25.6435 70.0609 23.581C69.7684 23.4515 69.4493 23.3088 69.3518 23.264C68.2052 22.737 66.0866 22.0327 64.2548 21.5697C62.6159 21.1555 62.2063 21.0825 59.2464 20.677C58.5419 20.5805 54.558 20.4869 53.7948 20.5488ZM59.9556 55.5851V75.1817H56.0996H52.2436L52.2209 55.6744C52.2084 44.9454 52.2172 36.1165 52.2405 36.0545C52.274 35.9659 53.0975 35.9469 56.1193 35.9652L59.9556 35.9885V55.5851Z" fill="#FDA525" fill-opacity="0.6"/>
</svg>
