<svg width="102" height="112" viewBox="0 0 102 112" fill="none" xmlns="http://www.w3.org/2000/svg">
<path fill-rule="evenodd" clip-rule="evenodd" d="M47.6397 0.335194C42.7351 1.01604 35.9886 3.0133 31.8047 5.02297C30.0108 5.88425 27.5585 6.52231 26.0406 6.52231C23.9296 6.52231 23.1404 6.84971 22.1089 8.15621C19.8236 11.0476 20.7317 14.494 24.1152 15.7751C26.5407 16.6928 29.236 15.5388 30.4076 13.0809C31.1314 11.5629 32.303 10.6316 35.0157 9.41993C41.8543 6.36482 45.9654 5.5922 55.3877 5.5922C62.7944 5.5922 64.8076 5.81108 68.7529 7.04441C76.9731 9.61401 84.1886 13.7995 90.1135 19.4342C91.8893 21.1232 92.4493 22.1464 92.4493 23.7003C92.4493 26.4199 94.313 28.225 97.1209 28.225C100.095 28.225 101.793 26.4392 101.793 23.3096C101.793 21.4172 101.427 20.5875 100.151 19.5892C99.2487 18.8823 98.0459 18.3038 97.4779 18.3038C96.9104 18.3038 95.1962 17.0264 93.6689 15.465C87.6101 9.27111 76.8286 3.39837 67.7401 1.34095C62.227 0.09212 52.7884 -0.379754 47.6397 0.335194ZM62.2737 9.71446C61.6035 10.1157 58.1241 10.5057 54.4877 10.5869C46.5839 10.7642 42.2692 11.8364 34.8089 15.4787C25.8543 19.8502 18.0838 27.9106 14.1453 36.9129C13.4726 38.4513 12.0356 40.5924 10.9524 41.6707C8.75117 43.8621 8.56868 44.8511 9.89418 47.4027C11.3822 50.2681 14.5546 50.7982 17.3077 48.6422C19.0537 47.2756 19.4909 44.6527 18.3324 42.4979C17.4255 40.8119 21.4387 33.4237 25.8836 28.5945C33.2598 20.5813 42.2386 16.4051 53.07 15.9506C59.3324 15.6877 59.5062 15.7168 60.9818 17.3023C64.0259 20.572 69.4026 18.5574 69.4026 14.1468C69.4026 10.5404 65.2287 7.94538 62.2737 9.71446ZM13.9498 18.1487C8.25287 24.5678 3.72824 33.0275 1.4298 41.5566C-0.501763 48.7241 -0.471857 61.2558 1.49272 68.2199C2.2626 70.9482 2.82755 73.7386 2.74845 74.4207C2.16605 79.4451 3.45168 81.5515 7.1024 81.5515C9.9876 81.5515 12.0973 79.5047 12.0973 76.7063C12.0973 74.7902 11.0029 73.2444 8.72378 71.9397C6.98344 70.9439 5.25556 62.4501 5.25494 54.8883C5.2537 43.082 9.05764 32.2567 16.1485 23.8844C20.5766 18.6566 21.2419 17.3898 20.2104 16.1521C18.7485 14.3985 16.6967 15.0533 13.9498 18.1487ZM73.6071 15.8731C73.0079 16.2209 72.517 17.1672 72.517 17.977C72.517 19.1105 73.5155 20.1094 76.8598 22.3225C80.7852 24.9206 87.4662 31.4506 87.4662 32.6895C87.4662 33.5552 91.0192 33.224 91.8015 32.2852C92.2338 31.7669 92.3683 30.8076 92.1179 30.0232C91.4315 27.8703 82.5168 19.2922 78.7459 17.156C74.8852 14.969 75.0821 15.018 73.6071 15.8731ZM48.536 21.4054C47.1657 21.7142 44.8809 21.8128 43.4589 21.6243C39.9732 21.1623 38.4316 21.7532 37.2668 23.9954C36.1107 26.2203 36.4969 28.318 38.3836 30.0678C40.5295 32.0583 43.0584 31.6918 45.5848 29.0255C47.7449 26.7455 47.8147 26.7225 53.5104 26.4751C62.2631 26.0938 68.6545 28.3273 74.7083 33.8819C76.795 35.7967 77.2404 36.5824 77.0342 37.9825C76.6281 40.7363 78.8823 43.1068 81.9058 43.1068C85.0495 43.1068 86.8434 41.4171 86.8434 38.4562C86.8434 36.1657 85.1018 33.8057 83.4119 33.8057C82.8955 33.8057 80.835 32.3076 78.8343 30.4759C71.9552 24.1802 65.5345 21.4637 56.6335 21.0836C53.5502 20.9521 49.9064 21.0966 48.536 21.4054ZM29.0696 32.8483C22.1027 40.7276 19.2723 52.3168 21.7558 62.8004C23.6693 70.8794 29.8782 79.9548 33.2274 79.5673C35.9936 79.2467 35.6971 76.6294 32.445 72.6541C24.5014 62.9455 24.185 47.8554 31.7213 38.1462C35.9183 32.7391 35.9114 32.7528 35.1664 31.3669C34.0185 29.232 31.7879 29.7739 29.0696 32.8483ZM48.1224 32.4781C46.1821 33.1161 43.6233 34.236 42.4367 34.9664C39.1255 37.0034 35.2051 41.5802 33.4311 45.4786C32.5503 47.4139 31.1495 49.8154 30.3173 50.8156C26.3757 55.5536 32.9795 61.44 37.3521 57.0864C39.0414 55.4054 39.2463 53.8112 38.1588 50.8162C37.5184 49.0546 37.6231 48.5077 39.0688 46.0515C45.1668 35.6938 58.519 33.5229 67.3396 41.4555C68.69 42.6703 70.3376 44.6669 71.0003 45.8928C72.3121 48.3179 74.4866 49.2704 75.951 48.0606C77.3033 46.9432 77.0965 45.5543 75.1157 42.4446C69.4998 33.6289 57.7796 29.3014 48.1224 32.4781ZM10.8397 53.3523C10.2828 54.0201 10.167 55.5183 10.4436 58.468C11.48 69.5183 15.5032 78.1225 23.2968 85.9547C29.1886 91.8758 34.2446 95.0295 41.8917 97.5545C46.0607 98.931 47.7362 99.1313 55.0763 99.1313C62.4163 99.1313 64.0919 98.931 68.2609 97.5545C75.1032 95.2949 80.7242 91.9546 85.8692 87.0894C91.2004 82.0482 93.094 79.0415 91.8663 77.5688C90.2935 75.6825 88.5177 76.4613 84.6988 80.7126C69.6954 97.4143 44.6567 98.7047 28.2892 83.6195C21.3671 77.2395 16.5977 67.6686 15.9804 58.9188C15.8122 56.5315 15.4204 54.0902 15.1096 53.4931C14.4144 52.1574 11.9048 52.0743 10.8397 53.3523ZM33.5494 62.5673C32.6487 66.1402 38.5537 73.1148 45.1101 76.222C48.7553 77.9501 49.7488 78.1411 55.0763 78.1411C60.4038 78.1411 61.3973 77.9501 65.0424 76.222C70.8303 73.4794 76.8772 66.9072 76.8772 63.3597C76.8772 60.6531 72.6192 60.5626 71.3921 63.2432C70.0741 66.1228 65.6796 70.2308 62.3808 71.6675C53.8025 75.4041 43.0864 71.6508 38.8159 63.4143C37.8342 61.5212 37.2674 61.089 35.7663 61.089C34.3424 61.089 33.8372 61.4263 33.5494 62.5673ZM78.7253 67.8013C77.7916 68.5541 77.274 69.7124 77.1793 71.2589C76.889 76.0211 68.2839 81.9261 59.4801 83.4043C53.3553 84.433 46.5378 83.3485 45.7237 81.2167C44.5813 78.2261 40.0274 77.4671 37.7439 79.886C36.315 81.4009 35.9874 83.9847 36.989 85.848C37.9165 87.5731 40.8303 88.5472 42.8154 87.7957C43.9908 87.3505 44.9955 87.3741 46.2002 87.8732C49.1284 89.0873 61.0902 88.856 65.0424 87.5086C70.6453 85.5988 74.0674 83.6375 77.9137 80.1328C79.9132 78.3116 82.4707 76.452 83.5969 76.0012C85.9427 75.0618 86.8434 73.7181 86.8434 71.1591C86.8434 67.3828 81.8217 65.3055 78.7253 67.8013ZM94.0906 82.837C92.9053 83.7652 92.4493 84.6947 92.4493 86.1847C92.4493 87.9042 91.8532 88.7915 88.8677 91.5124C81.9463 97.8217 74.0151 101.876 64.9023 103.765C59.4969 104.884 57.9334 106.06 59.191 108.06C60.1902 109.648 62.5546 109.699 68.3213 108.253C77.3992 105.978 85.9819 101.318 92.9875 94.8621C95.01 92.9981 97.1023 91.4728 97.6367 91.4728C99.5533 91.4728 102 88.6911 102 86.5122C102 85.0426 101.516 84.0412 100.304 83.0038C98.211 81.2105 96.2346 81.1578 94.0906 82.837ZM10.215 84.6767C9.25696 86.4594 10.9624 88.9887 16.9845 94.7164C24.3077 101.681 32.9645 106.391 42.4853 108.589C44.7856 109.12 47.1688 110.09 47.7817 110.745C49.5146 112.596 53.4057 112.359 55.0308 110.301C56.6808 108.214 56.6678 106.339 54.9872 104.213C53.7701 102.672 53.4001 102.559 50.7827 102.929C45.3144 103.703 42.9394 103.415 37.3241 101.303C29.8557 98.4945 25.3311 95.4524 18.8469 88.8815C13.2609 83.2202 11.4682 82.3465 10.215 84.6767Z" fill="#FDA525" fill-opacity="0.6"/>
</svg>
