<svg width="110" height="110" viewBox="0 0 110 110" fill="none" xmlns="http://www.w3.org/2000/svg">
<path fill-rule="evenodd" clip-rule="evenodd" d="M48.813 0.361105C30.2033 2.54752 13.8951 13.991 5.77803 30.5581C3.84928 34.495 2.64931 37.7647 1.66072 41.7765C-0.685265 51.2991 -0.54903 60.2047 2.09034 69.8493C4.84007 79.897 11.0469 89.6418 19.074 96.5143C28.293 104.407 38.9094 108.784 51.2762 109.791C55.0016 110.095 56.0805 110.079 60.0134 109.665C71.6654 108.439 81.5131 104.348 90.2398 97.1082C93.071 94.7594 93.8083 93.6315 93.8102 91.6474C93.813 88.6518 91.7001 86.6382 88.5538 86.6382C87.4898 86.6382 86.1112 87.421 84.4541 88.9664C82.6572 90.642 78.4463 93.4477 75.3553 95.0289C71.8779 96.8077 67.0909 98.459 63.2442 99.2068C59.9762 99.8421 50.442 99.9211 47.4369 99.3376C37.8897 97.4842 29.6925 93.2388 23.5014 86.9404L21.5834 84.9896L22.1072 84.0937C22.395 83.6011 23.8845 81.2162 25.4167 78.7942C26.9489 76.3722 29.4861 72.347 31.0549 69.8493C32.6236 67.3516 34.5477 64.3172 35.3307 63.1062C36.1137 61.8951 38.0309 58.8607 39.5911 56.363C41.1514 53.8653 42.9048 51.0954 43.4874 50.2078C44.0704 49.3202 44.547 48.4841 44.547 48.35C44.547 48.216 44.6709 48.1062 44.8223 48.1062C45.0009 48.1062 45.0975 51.6649 45.0975 58.2318C45.0975 68.9908 45.2161 70.2106 46.5091 72.7392C47.9012 75.4612 49.9015 76.73 52.8017 76.73C56.6061 76.73 59.2177 74.6449 62.9712 68.6107C66.3181 63.2306 71.1452 55.5162 71.9271 54.2988C72.4132 53.5419 73.5418 51.753 74.4355 50.3231L76.0599 47.7236L76.2121 54.8644C76.3832 62.9121 76.5679 63.9855 78.4573 67.9227C81.1759 73.5882 86.9113 77.0336 92.9859 76.6502C97.398 76.3716 101.256 74.5166 104.465 71.1302C108.499 66.8729 110.398 60.7604 109.93 53.537C109.322 44.1426 107.965 38.5557 104.564 31.4466C101.689 25.4378 98.685 21.1403 94.0659 16.4298C90.981 13.2839 89.033 11.6752 85.2707 9.16733C74.5596 2.02707 61.4941 -1.12871 48.813 0.361105ZM61.7484 10.541C71.3643 11.9843 80.2396 16.5759 87.0855 23.6491C92.149 28.8803 95.4415 34.2627 97.6697 40.9502C99.1069 45.2642 99.6001 48.2757 99.7655 53.7484C99.9298 59.1781 99.6568 60.7419 98.1194 63.1774C95.6242 67.1303 90.3884 67.8291 87.9973 64.5283C86.4404 62.379 86.314 61.4875 86.1181 51.2713C85.9491 42.4736 85.9018 41.8205 85.3249 40.3599C82.9192 34.2677 77.0974 32.8577 72.078 37.1512C69.9191 38.998 67.9488 41.7745 61.6906 51.789L55.1431 62.2664L55.0054 49.3227L54.8678 36.3789L53.8165 34.2523C52.6724 31.9381 51.6899 31.0811 49.509 30.4937C47.9936 30.0856 46.6415 30.3291 44.9007 31.3233C43.2634 32.2585 42.1884 33.5033 39.9148 37.097C39.0049 38.5351 35.6189 43.8935 32.3903 49.0045C24.4834 61.5219 23.584 62.9443 20.9078 67.1677C19.6373 69.1725 17.9034 71.9534 17.0547 73.348C16.2059 74.7426 15.4355 75.8881 15.3431 75.8938C15.0824 75.9101 13.1828 71.6237 12.312 69.0541C10.6076 64.0249 10.2817 61.7617 10.2864 54.9869C10.2911 47.9785 10.5248 46.3703 12.325 40.9472C16.7197 27.7081 27.3892 16.8817 40.4036 12.456C42.9722 11.5825 47.4746 10.5215 49.501 10.3123C52.1979 10.0335 59.2452 10.1653 61.7484 10.541Z" fill="#A6732A"/>
</svg>
