<svg width="96" height="84" viewBox="0 0 96 84" fill="none" xmlns="http://www.w3.org/2000/svg">
<path fill-rule="evenodd" clip-rule="evenodd" d="M44.0435 0.223715C41.2561 0.537036 37.5989 1.27986 35.3435 1.99073C33.2459 2.65232 27.5035 5.11587 27.0854 5.53403C27.0162 5.60333 27.6549 6.35571 28.505 7.20607C34.4483 13.1511 37.7729 21.0498 37.7729 29.2248C37.7729 36.1128 35.789 42.1854 31.6588 47.9383L29.9586 50.3066L31.1037 51.2902C32.7771 52.7271 38.4481 55.4938 41.2068 56.2188C43.0289 56.6975 44.5521 56.8526 47.6268 56.8723C52.4112 56.903 55.4928 56.2567 59.4874 54.3842C61.6571 53.3672 65.8414 50.7104 65.8414 50.3496C65.8414 50.2845 65.1931 49.3747 64.4012 48.3278C56.7675 38.2397 55.9219 24.4689 62.2701 13.6233C63.6272 11.3043 66.2663 7.96324 67.8142 6.60362L68.8304 5.71145L68.157 5.27029C67.0044 4.51552 63.5215 3.01911 60.8168 2.11648C58.4089 1.31332 55.0428 0.63142 51.2846 0.185782L49.717 0V8.22429V16.4483H48.0794H46.4419L46.3625 8.30911C46.2735 -0.820487 46.4939 -0.051971 44.0435 0.223715ZM8.86365 1.08452C7.99084 1.31959 6.69731 1.85125 5.98932 2.26642C4.14607 3.34676 1.74144 6.01073 0.805026 8.00953C0.0770386 9.56359 0 10.0564 0 13.1627C0 16.4638 0.0382206 16.6708 0.97911 18.4734C1.51779 19.5047 2.43777 20.8796 3.02363 21.5283C4.03678 22.6499 6.04098 24.1069 6.2512 23.8748C6.30554 23.815 6.82481 22.8171 7.40529 21.657C10.0097 16.4531 15.2698 10.0606 19.6733 6.74878C20.7596 5.93158 21.6485 5.17442 21.6485 5.06599C21.6485 4.95787 21.1158 4.38768 20.4649 3.79927C17.4233 1.05077 12.9118 -0.00507749 8.86365 1.08452ZM80.8774 0.909196C79.1709 1.27359 76.7997 2.5215 75.3858 3.79927C74.7349 4.38768 74.2022 4.95608 74.2022 5.06211C74.2022 5.16844 75.2121 6.04658 76.4462 7.01372C81.4035 10.8978 86.4451 17.2395 88.7888 22.5394C89.1232 23.2962 89.5198 23.9154 89.6697 23.9154C90.3687 23.9154 92.8937 21.5692 93.9441 19.9432C95.4013 17.6878 96 15.7135 96 13.1627C96 6.51671 90.994 1.1347 84.4773 0.775088C83.1781 0.703403 81.5582 0.763737 80.8774 0.909196ZM21.8265 9.17112C17.1319 12.8575 11.893 19.4993 9.90189 24.2888L9.43637 25.4088H21.7745H34.1127L33.8499 23.9901C33.1748 20.3473 31.2987 16.0621 29.032 12.9859C27.5471 10.9707 24.41 7.78642 23.9098 7.78671C23.7336 7.78671 22.796 8.40977 21.8265 9.17112ZM69.5106 9.80254C65.7324 13.5483 62.7703 19.1403 61.8368 24.2888L61.6338 25.4088H74.0588H86.4839L84.9363 22.4486C83.0802 18.8978 80.8929 15.9202 77.8224 12.764C75.4859 10.362 72.3959 7.78642 71.8507 7.78642C71.682 7.78642 70.6288 8.69382 69.5106 9.80254ZM7.9153 29.4345C7.46292 30.6251 6.79823 33.4485 6.40229 35.8628C6.00664 38.2759 5.91139 46.0811 6.26434 47.1934C6.46529 47.8263 6.5922 47.8586 8.16672 47.6755C11.8225 47.2501 15.1931 45.8714 17.9972 43.6543C18.8462 42.9831 19.5888 42.4339 19.6479 42.4339C19.7067 42.4339 20.0767 43.1214 20.4702 43.9616L21.1857 45.4894L20.2974 46.217C17.3962 48.5933 13.4328 50.2821 9.36381 50.8753C8.07296 51.0635 7.01711 51.3451 7.01711 51.5013C7.01711 51.6575 7.37393 52.9741 7.80989 54.4272C8.72301 57.4711 8.60984 57.4171 12.4033 56.619C19.2107 55.1865 25.7217 50.7409 29.6791 44.8227C32.4134 40.7337 33.8858 36.3927 34.3647 31.0092L34.5708 28.6944H21.3837H8.19658L7.9153 29.4345ZM61.3627 30.1131C61.3639 33.4581 62.652 38.4709 64.4063 41.9557C66.8623 46.835 71.1123 51.205 76.0147 53.8926C78.7337 55.3833 83.0405 56.7588 85.2635 56.8466L87.1223 56.9201L87.7801 54.9786C88.1417 53.9108 88.5204 52.6154 88.6216 52.0996L88.8052 51.1623L86.804 50.9494C82.9153 50.536 78.7361 48.7839 75.5399 46.2266L74.4939 45.3896L75.2968 43.9864C75.7388 43.2146 76.1356 42.5351 76.1789 42.476C76.2222 42.4171 76.9036 42.9037 77.6934 43.5575C80.4823 45.866 83.8076 47.251 87.5893 47.6791L89.3833 47.8819L89.595 46.4715C90.0157 43.6647 89.5341 35.9443 88.7234 32.4975C88.3072 30.7287 87.8852 29.1495 87.7855 28.988C87.6708 28.8028 82.7574 28.6944 74.4832 28.6944H61.3624L61.3627 30.1131ZM25.381 54.2722C21.6064 57.1859 16.1874 59.5398 11.7069 60.2119C10.9341 60.3278 10.3017 60.5115 10.3017 60.6202C10.3017 61.0664 13.1074 65.6981 14.3898 67.369C16.6431 70.3044 19.8166 73.4254 22.9244 75.762C25.9549 78.0404 31.1461 80.8376 34.0333 81.7479L35.7012 82.2739L37.8034 80.2002C42.7327 75.3382 46.1337 67.9257 46.1337 62.0446V60.4236L44.4168 60.222C38.773 59.5592 31.8451 56.6133 28.2177 53.3338L27.4712 52.6587L25.381 54.2722ZM66.2893 54.3042C62.2594 57.3511 56.5122 59.6085 51.2736 60.2032L49.3966 60.4162L49.5686 62.1029C49.8794 65.1524 50.0744 66.1509 50.831 68.5688C52.2649 73.1491 54.6059 76.932 58.142 80.3821C60.3164 82.5039 60.1763 82.4965 64.309 80.7142C70.8364 77.8994 76.4871 73.5783 80.7027 68.1778C82.5083 65.8648 85.549 61.1354 85.549 60.6399C85.549 60.5204 84.9166 60.3278 84.1438 60.2119C79.7105 59.547 74.1174 57.1426 70.4697 54.3335L68.3795 52.7239L66.2893 54.3042ZM47.6268 71.173C47.6268 71.8394 45.642 75.7635 44.2997 77.7506C43.6052 78.7787 42.2525 80.4412 41.2937 81.4448L39.5508 83.2694L41.8718 83.6452C44.7462 84.1105 50.9591 84.1198 53.7394 83.6631C54.8842 83.4749 55.8615 83.2805 55.9111 83.2309C55.961 83.1813 55.3862 82.483 54.634 81.679C53.8818 80.8752 52.6752 79.4021 51.9523 78.4054C50.5933 76.5314 48.2239 72.147 48.2239 71.5069C48.2239 71.3065 48.0896 71.0598 47.9254 70.9583C47.7611 70.8567 47.6268 70.9535 47.6268 71.173Z" fill="#FDA525" fill-opacity="0.6"/>
</svg>
