<svg width="116" height="135" viewBox="0 0 116 135" fill="none" xmlns="http://www.w3.org/2000/svg">
<path fill-rule="evenodd" clip-rule="evenodd" d="M0.236283 0.352796C0.925847 1.12424 22.9265 28.2725 33.1786 41.0028C42.5687 52.6626 44.1998 54.7372 44.4466 55.3341C45.0779 56.8615 43.7141 58.3199 40.9236 59.1017C38.2574 59.8487 36.4687 59.2533 34.8859 57.0922C33.8043 55.6153 30.0247 49.82 23.8616 40.189C20.9263 35.602 18.3944 31.686 18.2351 31.4867L17.9457 31.1245L18.1352 31.5165C18.2394 31.7321 20.6411 36.1067 23.4723 41.238C31.7025 56.1547 32.8586 58.343 32.8524 58.9923C32.8468 59.5821 32.3097 60.5446 31.3854 61.6218C29.6976 63.5883 28.8583 65.9248 28.2029 70.4809C27.2883 76.8383 25.6691 80.1517 19.8887 87.4935C15.2299 93.4108 14.5149 95.0473 14.5101 99.8022C14.5073 102.538 14.6677 103.555 15.4981 106.061C16.1167 107.928 16.8192 109.324 18.6569 112.338C20.3886 115.178 21.2235 116.849 21.2235 117.477C21.2235 117.859 21.2821 117.912 21.7035 117.912C22.4176 117.912 26.3411 116.919 28.2029 116.266C30.3685 115.508 33.075 114.187 34.6892 113.101C36.2629 112.042 38.1033 110.225 38.7364 109.104C39.3124 108.085 39.5824 106.533 39.4926 104.757C39.3648 102.227 38.25 100.759 34.2517 97.8543C30.7287 95.2952 29.2408 93.5533 28.6162 91.2567C27.8547 88.4564 28.2074 86.8614 30.8878 80.9845C32.6333 77.1575 33.1096 75.3546 33.5398 70.9467C33.8187 68.0894 33.9978 67.2323 34.4966 66.3702C35.2633 65.0451 36.1816 64.5831 39.0673 64.0706C42.7455 63.4176 44.6344 62.6235 46.3847 60.995C48.0818 59.4159 48.8235 57.6541 48.827 55.193L48.8284 54.1738L47.7997 52.9979C40.4901 44.6433 0.236593 0 0.0130975 0C-0.0374643 0 0.0628832 0.15868 0.236283 0.352796ZM44.0229 29.856C44.0229 29.8913 44.5288 30.0026 45.1473 30.1034C50.5182 30.9785 54.6674 33.1329 58.8907 37.2396C60.7215 39.0199 62.3806 40.9849 65.576 45.1579C71.6984 53.1532 74.4016 55.7276 78.5925 57.5541C82.2647 59.1547 86.4499 59.9246 93.8868 60.3678C97.104 60.5595 99.9349 60.895 101.398 61.258C104.27 61.9705 106.506 63.5915 108.241 66.2172C108.962 67.3093 109.008 67.1392 108.553 65.0593C107.726 61.2812 105.207 56.5937 101.912 52.7053L101.465 52.1775L101.036 53.8813C100.197 57.2085 98.6127 59.7071 97.1684 59.981C96.5072 60.1065 95.6086 59.714 95.1723 59.1094C94.6325 58.3611 94.6524 57.7024 95.2552 56.3489C95.5578 55.67 95.8891 54.6245 95.9918 54.0254C96.2265 52.6543 96.1019 49.5611 95.7502 48.0198L95.4907 46.8835L94.2234 46.0868C92.5351 45.0254 89.2499 43.4156 87.55 42.8166C81.7037 40.7564 74.8645 40.1876 68.2957 41.2148L66.5896 41.4815L63.8754 38.7143C62.3826 37.1923 60.5014 35.4383 59.6949 34.8165C55.2734 31.4075 50.7797 29.7955 45.6902 29.7926C44.7731 29.7922 44.0229 29.8205 44.0229 29.856ZM98.0315 33.1155C97.4114 34.6375 97.1062 36.0854 96.9106 38.4328C96.6631 41.4006 96.6646 41.3948 96.1395 41.3948C95.8932 41.3948 94.8427 41.0737 93.8049 40.6812C92.0247 40.0079 88.4112 38.886 88.0232 38.886C87.9253 38.886 88.9975 39.469 90.4058 40.1816C94.4912 42.2489 96.3969 43.6809 97.2118 45.2958C97.8984 46.6563 98.0554 47.8274 98.0652 51.6651C98.0738 55.0373 98.052 55.3299 97.7277 56.173C97.2393 57.4428 97.4521 57.2951 98.0662 55.9378C98.9222 54.0465 99.1659 52.7573 99.3709 49.0343C99.5465 45.8482 99.7219 45.776 102.355 47.808C103.242 48.4926 104.666 49.6723 105.519 50.4297C106.372 51.187 106.968 51.6688 106.843 51.5006C106.012 50.3834 104.184 48.2729 102.584 46.5824C99.1192 42.9234 98.6809 42.2476 98.2536 39.9052C97.7419 37.1001 97.7936 34.4646 98.394 32.744C98.7774 31.6457 98.5249 31.9044 98.0315 33.1155ZM43.6311 34.4171C43.2258 39.8839 45.648 46.9751 49.2954 50.9991C50.4956 52.3233 52.3876 53.7709 53.8432 54.4787C55.167 55.1223 56.9039 55.4773 57.5958 55.2457C58.3736 54.9851 58.2858 54.5042 57.1107 52.5848C55.4829 49.9266 55.1014 48.9526 54.2446 45.2661C53.8199 43.4386 53.3778 41.626 53.2621 41.238C52.1833 37.618 50.7752 35.7165 48.2177 34.4252C47.2208 33.9219 45.1962 33.2021 44.2319 33.0079L43.7429 32.9095L43.6311 34.4171ZM74.7343 61.1755C74.7386 65.5842 75.942 68.6529 78.7811 71.4947C81.6857 74.4024 86.1322 76.961 93.7317 80.0978C103.879 84.2859 107.365 86.2123 110.035 89.1066C111.739 90.9533 112.73 93.1012 113.001 95.5343C113.066 96.119 113.189 96.6129 113.274 96.6319C113.485 96.6786 114.639 94.2825 115.133 92.7741C115.353 92.0998 115.638 90.865 115.764 90.0302C116.084 87.9308 116.077 83.8424 115.752 82.2371C114.714 77.1047 111.873 72.8297 107.564 69.9161C103.767 67.348 99.7343 65.9761 92.646 64.8402C80.8951 62.9574 79.0795 62.4084 75.469 59.6464L74.7322 59.0829L74.7343 61.1755ZM50.4112 65.395C48.6681 66.2755 47.4338 68.1203 47.3128 70.026C47.1766 72.1723 47.5473 73.1621 48.733 73.8185C49.4867 74.2356 52.5472 74.1772 54.1764 73.7148C56.5019 73.0546 58.0805 71.9073 58.4315 70.6221C58.7117 69.5957 58.1909 68.0323 57.1812 66.8696C56.0318 65.5463 54.5354 64.9145 52.5498 64.9145C51.5349 64.9145 51.2236 64.9845 50.4112 65.395ZM54.8123 66.0828C55.8081 66.7425 56.1062 67.7106 55.5572 68.5027C55.2163 68.9949 53.8565 69.615 53.1141 69.6169C51.8134 69.6202 50.3726 68.816 50.1624 67.9693C49.9343 67.0504 50.957 65.9563 52.2587 65.7266C53.0826 65.5812 54.3144 65.7531 54.8123 66.0828ZM82.8884 79.1048C83.8228 82.1973 84.0274 85.417 83.4343 87.6973C82.6183 90.8344 80.4326 93.5208 77.3729 95.1467C75.3258 96.2345 74.201 96.5224 66.8223 97.8459C62.1405 98.6858 60.0007 99.325 57.3613 100.673C55.9276 101.405 54.0723 102.534 54.29 102.542C54.3496 102.544 54.9428 102.372 55.6084 102.16C58.8048 101.14 61.1423 100.78 67.3651 100.349C72.3485 100.003 73.9448 99.7862 76.0872 99.1623C80.7798 97.7958 84.2878 94.5038 85.5736 90.2602C85.8396 89.3824 85.899 88.7783 85.8974 86.9674C85.8963 85.6151 85.8146 84.4436 85.6879 83.9655C85.2029 82.1349 84.2453 80.221 83.1775 78.948L82.6514 78.3208L82.8884 79.1048ZM88.8834 81.7312C88.5375 82.1658 88.2257 84.228 88.2257 86.0807C88.2257 88.2135 88.4733 89.667 89.1832 91.701C90.0568 94.2046 90.7743 95.4781 94.8963 101.841C98.2044 106.947 98.8935 108.091 99.9454 110.229C101.401 113.188 101.986 115.71 101.827 118.35C101.716 120.213 101.411 121.436 100.549 123.479C100.185 124.341 99.9114 125.072 99.9406 125.102C100.063 125.231 102.601 123.731 103.798 122.823C107.533 119.989 110.442 115.278 111.428 110.464C111.795 108.671 111.889 103.985 111.589 102.389C110.799 98.1804 108.775 94.5618 105.699 91.8624C103.32 89.7746 101.293 88.4534 95.4409 85.1776C93.2213 83.9351 90.9072 82.6072 90.2985 82.2268C89.0544 81.4494 89.0958 81.464 88.8834 81.7312ZM21.9993 97.9269C23.2782 98.5752 23.7905 100.498 23.0409 101.836C22.3545 103.061 21.1836 103.482 20.1808 102.864C19.4773 102.43 19.4058 101.953 19.8897 100.919C20.2501 100.148 20.2955 99.567 19.9954 99.567C19.7671 99.567 19.2072 98.9156 19.2072 98.65C19.2072 97.7019 20.7615 97.2993 21.9993 97.9269ZM54.9573 106.716C52.1015 107.228 48.6014 108.492 45.4679 110.145C42.565 111.676 40.8179 112.893 37.0162 116.033C36.7524 116.251 36.9062 116.301 38.8584 116.635C43.2044 117.376 45.597 118.266 47.8228 119.969C48.4199 120.426 50.095 121.972 51.5451 123.404C54.2883 126.114 55.053 126.729 56.3532 127.274C60.0561 128.827 63.908 127.59 65.4016 124.369C65.7733 123.567 65.8141 123.3 65.8141 121.676C65.8141 120.123 65.7671 119.784 65.4763 119.235C64.3354 117.079 61.3372 115.977 59.1407 116.905C58.3241 117.25 57.7351 117.853 57.3653 118.722C56.8081 120.031 57.1088 121.176 58.1839 121.839C58.8741 122.265 59.0729 122.224 58.4333 121.788C57.187 120.939 57.1888 119.242 58.4375 118.18C59.6955 117.11 61.5541 117.23 63.2176 118.489C63.9995 119.08 64.3407 119.905 64.3407 121.204C64.3407 122.982 63.6296 124.225 62.142 125.05C61.4385 125.44 61.1441 125.508 60.153 125.51C59.1322 125.512 58.8434 125.442 57.7946 124.938C56.4161 124.275 55.4294 123.357 54.8791 122.224C54.5608 121.569 54.4979 121.208 54.4963 120.029C54.4949 118.804 54.5511 118.501 54.9232 117.733C55.1589 117.247 55.6574 116.564 56.031 116.216C58.7677 113.665 63.2114 113.915 66.7855 116.82C68.6454 118.332 69.7752 120.104 71.9385 124.903C73.6376 128.672 74.1838 129.668 75.3658 131.153C76.8791 133.055 78.6181 134.22 80.7811 134.781C82.7469 135.291 85.7287 134.883 87.7696 133.825C88.7805 133.301 90.7559 131.962 90.5975 131.909C90.5103 131.88 90.0672 132.004 89.6128 132.184C88.0671 132.801 86.3747 133.12 84.6585 133.119C81.296 133.117 79.5015 132.098 78.0943 129.391C77.3618 127.982 77.024 126.66 76.3622 122.616C76.0586 120.762 75.6366 118.575 75.4241 117.756C74.9287 115.845 73.5853 113.099 72.5285 111.836C70.2837 109.154 66.3511 107.123 62.4437 106.628C60.6536 106.401 56.4412 106.451 54.9573 106.716Z" fill="#FDA525" fill-opacity="0.6"/>
</svg>
