<svg width="460" height="469" viewBox="0 0 460 469" fill="none" xmlns="http://www.w3.org/2000/svg">
<g clip-path="url(#clip0)">
<path d="M31.3142 203.351C29.9038 261.008 70.2232 307.748 129.419 309.196C160.041 309.945 188.396 310.638 205.84 320.159C214.366 324.798 220.293 331.552 222.589 341.45C224.687 350.456 223.794 362.053 219.146 377.035C198.937 442.186 276.251 463.977 276.251 463.977C274.068 456.718 272.691 449.72 272.084 443.041C271.989 442.104 271.918 441.186 271.864 440.269C271.864 440.25 271.865 440.231 271.857 440.212C269.463 400.438 294.717 372.921 339.376 374.013C407.63 375.683 422.651 290.505 362.444 261.188C326.78 243.808 280.615 251.316 246.773 247.02C243.145 246.567 239.665 245.968 236.35 245.195C236.274 245.184 236.198 245.173 236.131 245.152C234.558 244.777 233.028 244.366 231.541 243.909C216.079 239.156 205.062 229.492 201.844 209.514C193 154.561 265.887 167.803 286.485 172.588C286.56 172.599 286.628 172.619 286.686 172.639C288.639 173.089 290.101 173.471 290.951 173.697C291.001 173.717 291.06 173.728 291.111 173.739C291.262 173.77 291.397 173.811 291.497 173.842C291.699 173.893 291.808 173.925 291.808 173.925C292.305 174.039 292.793 174.145 293.299 174.25C472.761 213.365 474.328 71.8415 397.781 27.3176C389.413 22.4495 380.697 18.6469 371.825 15.7376C299.332 -8.07575 215.848 27.5691 215.848 27.5691C215.848 27.5691 321.67 27.9702 333.546 83.437C333.728 84.301 333.886 85.1367 334.01 85.944C335.885 98.5432 330.117 104.982 319.276 107.839C295.591 114.083 247.668 103.218 202.179 102.105C75.3293 99.0026 32.7245 145.696 31.3142 203.351Z" fill="#FEA83B"/>
<path d="M154.116 188.816C162.066 218.744 190.554 232.648 231.538 243.904C216.077 239.151 205.059 229.488 201.841 209.509C192.997 154.556 265.884 167.799 286.482 172.584C260.002 166.14 144.043 140.516 154.116 188.816Z" fill="url(#paint0_linear)"/>
<path d="M271.854 440.208C269.459 400.433 294.713 372.916 339.373 374.008C407.626 375.678 422.648 290.5 362.441 261.183C326.777 243.803 280.612 251.311 246.769 247.015L246.597 247.815C389.933 268.81 319.364 351.759 299.137 365.753C279.34 379.448 268.763 397.397 271.854 440.208Z" fill="url(#paint1_linear)"/>
<path d="M293.294 174.246C472.758 213.361 474.325 71.8369 397.778 27.313C389.41 22.4441 380.694 18.6415 371.821 15.7322C460.052 86.611 353.896 186.403 293.294 174.246Z" fill="url(#paint2_linear)"/>
<path d="M236.347 245.19C236.271 245.18 236.196 245.168 236.128 245.147C236.196 245.158 236.271 245.179 236.339 245.199L236.347 245.19Z" fill="#9F74E2"/>
<path d="M319.275 107.839C357.589 104.037 367.432 81.864 367.98 59.4531C367.98 59.4531 358.499 83.1404 334.01 85.944C335.884 98.5432 330.117 104.982 319.275 107.839Z" fill="url(#paint3_linear)"/>
<path d="M205.84 320.15L205.84 320.159C214.366 324.798 220.293 331.552 222.589 341.45C237.997 347.716 252.194 365.075 252.194 365.075C246.001 341.557 222.219 326.515 205.84 320.15Z" fill="url(#paint4_linear)"/>
<path d="M136.174 265.024C99.9251 259.464 76.3835 218.695 77.0918 189.736C77.0918 189.736 63.1729 222.578 86.6231 249.791C110.073 277.004 136.174 265.024 136.174 265.024Z" fill="url(#paint5_linear)"/>
</g>
<defs>
<linearGradient id="paint0_linear" x1="220.412" y1="160.49" x2="218.379" y2="243.582" gradientUnits="userSpaceOnUse">
<stop stop-color="#ED8F20"/>
<stop offset="1" stop-color="#FDA625"/>
</linearGradient>
<linearGradient id="paint1_linear" x1="324.206" y1="248.91" x2="319.498" y2="441.373" gradientUnits="userSpaceOnUse">
<stop stop-color="#ED8F20"/>
<stop offset="1" stop-color="#FDA625"/>
</linearGradient>
<linearGradient id="paint2_linear" x1="372.609" y1="15.7515" x2="368.555" y2="181.516" gradientUnits="userSpaceOnUse">
<stop stop-color="#ED8F20"/>
<stop offset="1" stop-color="#FDA625"/>
</linearGradient>
<linearGradient id="paint3_linear" x1="344.234" y1="58.8723" x2="343.022" y2="108.42" gradientUnits="userSpaceOnUse">
<stop stop-color="#ED8F20"/>
<stop offset="1" stop-color="#FDA625"/>
</linearGradient>
<linearGradient id="paint4_linear" x1="229.553" y1="320.731" x2="228.482" y2="364.495" gradientUnits="userSpaceOnUse">
<stop stop-color="#ED8F20"/>
<stop offset="1" stop-color="#FDA625"/>
</linearGradient>
<linearGradient id="paint5_linear" x1="105.757" y1="190.437" x2="103.878" y2="267.22" gradientUnits="userSpaceOnUse">
<stop stop-color="#ED8F20"/>
<stop offset="1" stop-color="#FDA625"/>
</linearGradient>
<clipPath id="clip0">
<rect width="448.733" height="457.357" transform="matrix(-0.999701 -0.0244541 -0.0244541 0.999701 459.783 10.9731)" fill="white"/>
</clipPath>
</defs>
</svg>
