<svg width="582" height="670" viewBox="0 0 582 670" fill="none" xmlns="http://www.w3.org/2000/svg">
<g clip-path="url(#clip0)">
<path d="M32.2292 203.763C30.8189 261.419 71.1382 308.159 130.335 309.607C160.956 310.356 189.311 311.05 206.755 320.571C215.281 325.21 221.208 331.963 223.504 341.862C225.602 350.867 224.709 362.464 220.061 377.446C199.852 442.598 277.166 464.389 277.166 464.389C274.983 457.129 273.606 450.132 272.999 443.452C272.904 442.515 272.833 441.598 272.779 440.681C272.779 440.662 272.78 440.643 272.772 440.624C270.378 400.849 295.632 373.332 340.291 374.425C408.545 376.094 423.566 290.917 363.359 261.599C327.695 244.22 281.53 251.727 247.688 247.432C244.06 246.978 240.58 246.379 237.265 245.607C237.189 245.596 237.114 245.584 237.046 245.564C235.473 245.188 233.943 244.778 232.456 244.32C216.994 239.567 205.977 229.904 202.759 209.925C193.915 154.972 266.802 168.215 287.4 173C287.475 173.01 287.543 173.031 287.601 173.051C289.554 173.501 291.016 173.882 291.866 174.109C291.916 174.129 291.975 174.139 292.026 174.15C292.177 174.182 292.312 174.222 292.412 174.253C292.614 174.305 292.723 174.336 292.723 174.336C293.22 174.451 293.708 174.557 294.214 174.662C473.676 213.777 475.243 72.2531 398.696 27.7292C390.328 22.8611 381.612 19.0585 372.74 16.1493C300.247 -7.66413 216.764 27.9807 216.764 27.9807C216.764 27.9807 322.585 28.3818 334.461 83.8486C334.643 84.7126 334.801 85.5483 334.925 86.3556C336.8 98.9548 331.032 105.394 320.191 108.251C296.506 114.494 248.583 103.63 203.094 102.517C76.2444 99.4142 33.6395 146.108 32.2292 203.763Z" fill="#FEA83B"/>
<path d="M155.031 189.228C162.981 219.156 191.469 233.06 232.453 244.316C216.992 239.563 205.974 229.899 202.756 209.921C193.912 154.968 266.799 168.21 287.397 172.995C260.917 166.552 144.958 140.927 155.031 189.228Z" fill="url(#paint0_linear)"/>
<path d="M272.769 440.62C270.374 400.845 295.628 373.328 340.288 374.42C408.541 376.09 423.563 290.912 363.356 261.595C327.692 244.215 281.527 251.723 247.684 247.427L247.512 248.227C390.848 269.222 320.279 352.171 300.052 366.164C280.255 379.86 269.678 397.809 272.769 440.62Z" fill="url(#paint1_linear)"/>
<path d="M294.209 174.658C473.673 213.772 475.24 72.2486 398.693 27.7247C390.325 22.8557 381.609 19.0531 372.736 16.1438C460.967 87.0226 354.811 186.814 294.209 174.658Z" fill="url(#paint2_linear)"/>
<path d="M70.4624 82.3885L55.4463 78.6374C48.3576 76.8663 48.6329 65.6135 55.7997 64.1921L70.9812 61.1796C85.9417 58.2117 97.8842 45.6502 101.303 29.2882L104.773 12.6844C106.411 4.84611 116.598 5.09529 117.85 13.0043L120.503 29.7579C123.117 46.2675 134.432 59.397 149.23 63.0936L164.246 66.8448C171.334 68.6159 171.059 79.8687 163.892 81.2901L148.711 84.3026C133.75 87.2704 121.808 99.8319 118.389 116.194L114.919 132.798C113.281 140.636 103.094 140.387 101.842 132.478L99.1889 115.724C96.5739 99.2147 85.2598 86.0852 70.4624 82.3885Z" fill="#F9D366"/>
<path d="M254.82 295.422L239.804 291.671C232.715 289.9 232.99 278.647 240.157 277.226L255.339 274.213C270.299 271.245 282.242 258.684 285.661 242.322L289.13 225.718C290.768 217.88 300.955 218.129 302.207 226.038L304.861 242.792C307.475 259.301 318.79 272.431 333.587 276.127L348.603 279.878C355.692 281.65 355.417 292.902 348.25 294.324L333.068 297.336C318.108 300.304 306.165 312.866 302.746 329.228L299.277 345.831C297.639 353.67 287.452 353.421 286.2 345.512L283.546 328.758C280.931 312.248 269.618 299.119 254.82 295.422Z" fill="#F9D366"/>
<path d="M237.262 245.603C237.186 245.592 237.111 245.58 237.043 245.56C237.111 245.57 237.187 245.591 237.254 245.611L237.262 245.603Z" fill="#9F74E2"/>
<path d="M320.19 108.251C358.505 104.449 368.347 82.2759 368.895 59.865C368.895 59.865 359.414 83.5523 334.925 86.3559C336.799 98.9551 331.032 105.394 320.19 108.251Z" fill="url(#paint3_linear)"/>
<path d="M206.755 320.563L206.755 320.572C215.281 325.21 221.208 331.964 223.504 341.862C238.912 348.128 253.109 365.487 253.109 365.487C246.916 341.969 223.134 326.927 206.755 320.563Z" fill="url(#paint4_linear)"/>
<path d="M137.089 265.435C100.84 259.875 77.2985 219.106 78.0069 190.148C78.0069 190.148 64.088 222.99 87.5381 250.203C110.988 277.416 137.089 265.435 137.089 265.435Z" fill="url(#paint5_linear)"/>
</g>
<path d="M279.023 537.028L287.514 522.254L302.288 530.745L293.798 545.519L279.023 537.028Z" fill="#CE1906"/>
<path d="M279.023 537.028L293.798 545.519L302.288 530.745" fill="#8C0300"/>
<path d="M280.785 529.688L289.276 514.914L304.05 523.405L295.559 538.179L280.785 529.688Z" fill="#CE1906"/>
<path d="M280.785 529.688L295.559 538.179L304.05 523.405" fill="#8C0300"/>
<path d="M286.411 541.274L294.901 526.5L309.675 534.991L301.185 549.765L286.411 541.274Z" fill="#CE1906"/>
<path d="M286.411 541.274L301.185 549.765L309.675 534.991" fill="#8C0300"/>
<path d="M428.729 532.166C378.71 545.676 332.511 552.537 301.813 552.091C298.378 552.083 293.483 544.356 290.499 533.305C287.671 522.836 287.854 513.114 290.817 511.378C317.274 496.12 360.276 478.577 410.877 464.911C467.875 449.517 519.41 442.774 548.623 445.805L548.835 445.436C551.743 444.651 556.112 451.583 558.995 461.102C561.508 470.407 561.224 478.597 558.103 479.752L557.734 479.539C533.65 496.653 485.728 516.772 428.729 532.166Z" fill="#7C5037"/>
<path d="M302.182 552.303C298.747 552.295 293.695 543.987 290.868 533.518C288.04 523.048 288.223 513.326 291.186 511.59C317.274 496.12 360.275 478.577 410.876 464.911C467.875 449.516 519.41 442.774 548.623 445.805L548.835 445.436" fill="#5E3E29"/>
<path d="M408.954 537.507C400.442 539.494 391.93 541.481 384.212 542.942L366.194 478.539C374.18 475.758 381.953 473.347 390.308 470.778L408.954 537.507Z" fill="#F9AE41"/>
<path d="M383.843 542.729L366.194 478.539C374.18 475.758 381.953 473.346 390.308 470.778" fill="#E5892E"/>
<path d="M441.049 507.309C435.539 516.896 423.3 520.202 413.713 514.692C404.126 509.182 400.82 496.943 406.33 487.356C411.84 477.768 424.079 474.463 433.666 479.973C443.254 485.483 446.559 497.721 441.049 507.309Z" fill="#E5892E"/>
<path d="M434.4 503.489C431.001 509.404 423.449 511.444 417.533 508.044C411.618 504.644 409.578 497.093 412.978 491.177C416.378 485.261 423.929 483.222 429.845 486.622C435.761 490.021 437.8 497.573 434.4 503.489Z" fill="#063A5E"/>
<path d="M429.633 486.991C423.723 483.594 416.162 485.637 412.766 491.546C409.369 497.456 411.411 505.017 417.321 508.413" fill="#00233F"/>
<defs>
<linearGradient id="paint0_linear" x1="221.327" y1="160.902" x2="219.294" y2="243.994" gradientUnits="userSpaceOnUse">
<stop stop-color="#ED8F20"/>
<stop offset="1" stop-color="#FDA625"/>
</linearGradient>
<linearGradient id="paint1_linear" x1="325.121" y1="249.322" x2="320.413" y2="441.785" gradientUnits="userSpaceOnUse">
<stop stop-color="#ED8F20"/>
<stop offset="1" stop-color="#FDA625"/>
</linearGradient>
<linearGradient id="paint2_linear" x1="373.525" y1="16.1631" x2="369.47" y2="181.928" gradientUnits="userSpaceOnUse">
<stop stop-color="#ED8F20"/>
<stop offset="1" stop-color="#FDA625"/>
</linearGradient>
<linearGradient id="paint3_linear" x1="345.149" y1="59.2841" x2="343.937" y2="108.832" gradientUnits="userSpaceOnUse">
<stop stop-color="#ED8F20"/>
<stop offset="1" stop-color="#FDA625"/>
</linearGradient>
<linearGradient id="paint4_linear" x1="230.468" y1="321.143" x2="229.397" y2="364.907" gradientUnits="userSpaceOnUse">
<stop stop-color="#ED8F20"/>
<stop offset="1" stop-color="#FDA625"/>
</linearGradient>
<linearGradient id="paint5_linear" x1="106.672" y1="190.849" x2="104.793" y2="267.632" gradientUnits="userSpaceOnUse">
<stop stop-color="#ED8F20"/>
<stop offset="1" stop-color="#FDA625"/>
</linearGradient>
<clipPath id="clip0">
<rect width="448.733" height="457.357" transform="matrix(-0.999701 -0.0244541 -0.0244541 0.999701 460.698 11.385)" fill="white"/>
</clipPath>
</defs>
</svg>
