<svg width="318" height="348" viewBox="0 0 318 348" fill="none" xmlns="http://www.w3.org/2000/svg">
<path d="M27.5474 76.9767L12.5313 73.2255C5.44256 71.4544 5.71781 60.2016 12.8847 58.7802L28.0662 55.7677C43.0266 52.7999 54.9691 40.2384 58.3882 23.8764L61.8576 7.27254C63.4957 -0.565756 73.6826 -0.316571 74.9346 7.59242L77.5881 24.346C80.2022 40.8556 91.5171 53.9851 106.314 57.6818L121.331 61.4329C128.419 63.204 128.144 74.4568 120.977 75.8782L105.796 78.8907C90.8353 81.8586 78.8928 94.42 75.4737 110.782L72.0043 127.386C70.3662 135.224 60.1793 134.975 58.9273 127.066L56.2738 110.312C53.6589 93.8028 42.3448 80.6733 27.5474 76.9767Z" fill="#F9D366"/>
<path d="M211.905 290.01L196.889 286.259C189.8 284.488 190.075 273.235 197.242 271.814L212.424 268.801C227.384 265.834 239.327 253.272 242.746 236.91L246.215 220.306C247.853 212.468 258.04 212.717 259.292 220.626L261.945 237.38C264.56 253.889 275.875 267.019 290.672 270.715L305.688 274.467C312.777 276.238 312.502 287.49 305.335 288.912L290.153 291.924C275.193 294.892 263.25 307.454 259.831 323.816L256.362 340.42C254.724 348.258 244.537 348.009 243.285 340.1L240.631 323.346C238.016 306.837 226.703 293.707 211.905 290.01Z" fill="#F9D366"/>
</svg>
