<svg width="22" height="23" viewBox="0 0 22 23" fill="none" xmlns="http://www.w3.org/2000/svg">
<g clip-path="url(#clip0)">
<path d="M21.8237 4.42888C21.0121 4.78488 20.1473 5.02084 19.2458 5.13542C20.1733 4.58164 20.8812 3.71142 21.214 2.66252C20.3492 3.17811 19.3944 3.54229 18.3769 3.74552C17.5558 2.87121 16.3855 2.32971 15.1088 2.32971C12.6318 2.32971 10.6377 4.34022 10.6377 6.80493C10.6377 7.15957 10.6677 7.50056 10.7413 7.82519C7.02177 7.64378 3.73049 5.86106 1.51947 3.14537C1.13347 3.81509 0.907047 4.58164 0.907047 5.40685C0.907047 6.95633 1.70498 8.32986 2.89437 9.12506C2.17555 9.11142 1.47037 8.90273 0.872947 8.57401C0.872947 8.58765 0.872947 8.60538 0.872947 8.62312C0.872947 10.7973 2.42379 12.6032 4.45749 13.0192C4.0933 13.1188 3.69639 13.1665 3.28446 13.1665C2.99803 13.1665 2.70886 13.1502 2.43743 13.0902C3.01712 14.862 4.66208 16.1646 6.61803 16.2068C5.09583 17.3976 3.16307 18.1151 1.07072 18.1151C0.703814 18.1151 0.351907 18.0987 0 18.0537C1.98186 19.3317 4.33064 20.0615 6.86355 20.0615C15.0965 20.0615 19.5977 13.2416 19.5977 7.33006C19.5977 7.13229 19.5908 6.94133 19.5813 6.75174C20.4692 6.12158 21.2153 5.33456 21.8237 4.42888Z" fill="white"/>
</g>
<defs>
<clipPath id="clip0">
<rect width="21.8237" height="21.8237" fill="white" transform="translate(0 0.283691)"/>
</clipPath>
</defs>
</svg>
