<svg width="43" height="43" viewBox="0 0 43 43" fill="none" xmlns="http://www.w3.org/2000/svg">
<g clip-path="url(#clip0)">
<path d="M10.8822 42.9633L11.6738 42.742C12.4353 42.5292 12.8801 41.7394 12.6673 40.9779L3.6163 8.58795C3.48859 8.13085 3.18451 7.74321 2.77097 7.51031C2.35744 7.27741 1.86832 7.21833 1.41122 7.34607L1.30898 7.37461C0.357071 7.64057 -0.199003 8.62785 0.0669501 9.57977L9.11816 41.9697C9.33093 42.7312 10.1207 43.176 10.8822 42.9633Z" fill="white"/>
<path d="M42.7555 20.3285C39.8852 18.8973 37.2299 17.0705 34.8672 14.9016C34.6686 14.7198 34.5909 14.4407 34.667 14.1824C35.8377 9.75356 36.7071 5.25049 37.2693 0.704141C37.3582 -0.0520655 36.9505 -0.274479 36.5205 0.244486C28.0836 10.3347 13.4858 -1.60155 4.79688 7.56931C4.90119 7.76463 4.98326 7.97104 5.04153 8.18466L10.9133 29.2102C19.617 20.1505 34.1629 32.0126 42.585 21.9447C43.015 21.4257 43.0965 20.4767 42.7555 20.3285Z" fill="white"/>
</g>
<defs>
<clipPath id="clip0">
<rect width="43" height="43" fill="white"/>
</clipPath>
</defs>
</svg>
