<svg width="43" height="43" viewBox="0 0 43 43" fill="none" xmlns="http://www.w3.org/2000/svg">
<g clip-path="url(#clip0)">
<path d="M10.938 11.6123L7.21263 11.9001C6.17601 11.9802 5.25278 12.5235 4.67951 13.3907L0.383155 19.8886C-0.051629 20.5462 -0.120748 21.3692 0.198139 22.0901C0.517109 22.811 1.1726 23.3134 1.95155 23.4341L5.36255 23.9624C6.16048 19.7279 8.0706 15.5039 10.938 11.6123Z" fill="white"/>
<path d="M19.0376 37.6374L19.5659 41.0484C19.6866 41.8274 20.189 42.4829 20.9098 42.8018C21.2098 42.9345 21.5272 43 21.8431 43C22.2868 43 22.7273 42.8707 23.1114 42.6167L29.6095 38.3205C30.4767 37.7471 31.02 36.8238 31.0999 35.7874L31.3877 32.062C27.4961 34.9295 23.2721 36.8396 19.0376 37.6374Z" fill="white"/>
<path d="M17.755 35.2733C17.8734 35.2733 17.9925 35.2635 18.1113 35.2437C19.8854 34.9471 21.5953 34.4474 23.2264 33.7933L9.20702 19.7739C8.55295 21.405 8.05325 23.1149 7.75662 24.889C7.63971 25.5884 7.87428 26.3008 8.37558 26.8022L16.1982 34.6248C16.6144 35.0409 17.1761 35.2733 17.755 35.2733Z" fill="white"/>
<path d="M39.5713 19.0646C43.002 12.432 43.1291 5.42308 42.9498 2.13596C42.8884 1.00965 41.9904 0.111698 40.864 0.0503062C40.3288 0.0210799 39.6945 0 38.9795 0C35.3039 0 29.4879 0.556728 23.9354 3.42872C19.5228 5.71114 13.7365 10.7368 10.3228 17.3415C10.3631 17.373 10.4025 17.4064 10.4396 17.4435L25.5566 32.5606C25.5938 32.5977 25.6271 32.637 25.6586 32.6773C32.2633 29.2635 37.2889 23.4772 39.5713 19.0646ZM25.0018 9.0904C27.4576 6.63463 31.4536 6.63438 33.9096 9.0904C35.0993 10.28 35.7545 11.8619 35.7545 13.5443C35.7545 15.2268 35.0993 16.8086 33.9096 17.9982C32.6818 19.226 31.0685 19.84 29.4558 19.8401C27.8425 19.8402 26.2299 19.2263 25.0018 17.9982C23.8121 16.8086 23.1569 15.2268 23.1569 13.5443C23.1569 11.8619 23.8121 10.28 25.0018 9.0904Z" fill="white"/>
<path d="M26.7832 16.2167C28.2567 17.6902 30.6544 17.6903 32.128 16.2167C32.8417 15.5028 33.2349 14.5538 33.2349 13.5443C33.2349 12.5348 32.8417 11.5858 32.128 10.872C31.3912 10.1352 30.4234 9.76685 29.4556 9.76685C28.4878 9.76685 27.52 10.1352 26.7833 10.872C26.0695 11.5858 25.6763 12.5348 25.6763 13.5443C25.6763 14.5538 26.0694 15.5029 26.7832 16.2167Z" fill="white"/>
<path d="M1.2852 35.436C1.60761 35.436 1.93003 35.3131 2.17594 35.067L6.2889 30.954C6.78088 30.462 6.78088 29.6644 6.2889 29.1725C5.79701 28.6805 4.99932 28.6805 4.50734 29.1725L0.394376 33.2854C-0.0976045 33.7774 -0.0976045 34.575 0.394376 35.067C0.640366 35.313 0.962782 35.436 1.2852 35.436Z" fill="white"/>
<path d="M10.0586 32.9417C9.56669 32.4498 8.769 32.4498 8.27702 32.9417L0.369474 40.8493C-0.122507 41.3413 -0.122507 42.1389 0.369474 42.6308C0.615464 42.8768 0.93788 42.9998 1.2603 42.9998C1.58271 42.9998 1.90513 42.8768 2.15103 42.6308L10.0585 34.7233C10.5506 34.2313 10.5506 33.4337 10.0586 32.9417Z" fill="white"/>
<path d="M12.0458 36.711L7.93295 40.824C7.44097 41.316 7.44097 42.1136 7.93295 42.6056C8.17894 42.8515 8.50136 42.9746 8.82369 42.9746C9.14602 42.9746 9.46852 42.8516 9.71443 42.6056L13.8274 38.4926C14.3194 38.0006 14.3194 37.203 13.8274 36.711C13.3355 36.219 12.5378 36.219 12.0458 36.711Z" fill="white"/>
</g>
<defs>
<clipPath id="clip0">
<rect width="43" height="43" fill="white"/>
</clipPath>
</defs>
</svg>
