<svg width="43" height="43" viewBox="0 0 43 43" fill="none" xmlns="http://www.w3.org/2000/svg">
<g clip-path="url(#clip0)">
<path d="M5.37512 19.7083C4.91646 19.7083 4.45779 19.5327 4.10841 19.1833C3.40787 18.4827 3.40787 17.3504 4.10841 16.6499L16.4817 4.27663C17.1822 3.57609 18.3145 3.57609 19.0151 4.27663C19.7156 4.97717 19.7156 6.1095 19.0151 6.81004L6.64183 19.1833C6.29246 19.5327 5.83379 19.7083 5.37512 19.7083Z" fill="white"/>
<path d="M20.1562 10.7501C19.8069 10.7501 19.4629 10.6139 19.2066 10.3559L12.9358 4.08508C12.5506 3.70166 12.4359 3.12296 12.6438 2.62129C12.8516 2.11962 13.3425 1.79175 13.8854 1.79175H20.1562C20.898 1.79175 21.5 2.39375 21.5 3.1355V9.40633C21.5 9.94921 21.1721 10.4401 20.6704 10.648C20.5038 10.716 20.33 10.7501 20.1562 10.7501Z" fill="white"/>
<path d="M12.5415 27.3228V37.6249H1.7915V27.3228C1.7915 26.0866 2.79484 25.0833 4.03109 25.0833H10.3019C11.5382 25.0833 12.5415 26.0866 12.5415 27.3228Z" fill="white"/>
<path d="M26.875 20.1563V37.6251H16.125V20.1563C16.125 18.9201 17.1283 17.9167 18.3646 17.9167H24.6354C25.8717 17.9167 26.875 18.9201 26.875 20.1563Z" fill="white"/>
<path d="M41.2085 12.9896V37.625H30.4585V12.9896C30.4585 11.7533 31.4618 10.75 32.6981 10.75H38.9689C40.2052 10.75 41.2085 11.7533 41.2085 12.9896Z" fill="white"/>
<path d="M41.6562 43H1.34375C0.602 43 0 42.398 0 41.6562C0 40.9145 0.602 40.3125 1.34375 40.3125H41.6562C42.398 40.3125 43 40.9145 43 41.6562C43 42.398 42.398 43 41.6562 43Z" fill="white"/>
</g>
<defs>
<clipPath id="clip0">
<rect width="43" height="43" fill="white"/>
</clipPath>
</defs>
</svg>
