<svg width="32" height="26" viewBox="0 0 32 26" fill="none" xmlns="http://www.w3.org/2000/svg">
<path d="M31.321 3.01268C30.1562 3.52361 28.9151 3.86226 27.6212 4.0267C28.9523 3.23193 29.9683 1.98301 30.4459 0.477644C29.2048 1.2176 27.8345 1.74027 26.3742 2.03195C25.1957 0.777151 23.5162 0 21.6839 0C18.129 0 15.267 2.88544 15.267 6.42275C15.267 6.93172 15.3101 7.42111 15.4158 7.88701C10.0775 7.62665 5.35393 5.06812 2.18072 1.17062C1.62673 2.13178 1.30178 3.23193 1.30178 4.41625C1.30178 6.64004 2.44695 8.6113 4.15394 9.75256C3.12231 9.73299 2.11025 9.43348 1.25284 8.96171C1.25284 8.98128 1.25284 9.00673 1.25284 9.03218C1.25284 12.1525 3.47858 14.7443 6.3973 15.3414C5.87464 15.4843 5.30499 15.5528 4.7138 15.5528C4.30272 15.5528 3.88771 15.5293 3.49816 15.4432C4.33012 17.9861 6.69094 19.8555 9.49808 19.9162C7.31344 21.6252 4.53958 22.6548 1.53668 22.6548C1.0101 22.6548 0.50505 22.6313 0 22.5667C2.84433 24.401 6.21525 25.4483 9.85044 25.4483C21.6663 25.4483 28.1262 15.6605 28.1262 7.17641C28.1262 6.89257 28.1164 6.61851 28.1027 6.34641C29.3771 5.44202 30.4479 4.3125 31.321 3.01268Z" fill="white"/>
</svg>
