<?xml version="1.0" encoding="utf-8"?>
<!-- Generator: Adobe Illustrator 21.0.2, SVG Export Plug-In . SVG Version: 6.00 Build 0)  -->
<svg version="1.1" id="Слой_1" xmlns="http://www.w3.org/2000/svg" xmlns:xlink="http://www.w3.org/1999/xlink" x="0px" y="0px"
	 viewBox="0 0 167.3 166.7" style="enable-background:new 0 0 167.3 166.7;" xml:space="preserve">
<style type="text/css">
	.st0{fill:#FFFFFF;}
	.st1{fill:#FDB52F;}
</style>
<circle class="st0" cx="84.3" cy="78.3" r="52.3"/>
<g>
	<path class="st1" d="M94.4,83.7c-1.2-0.4-2.6,0-3.3,0.7l-4.7,3.5C81,85,77.6,81.7,74.7,76.3l3.4-4.6c0.9-0.9,1.2-2.2,0.8-3.4
		c-0.8-3.4-1.5-9.1-2.1-9.7c-0.6-0.7-1.5-1.1-2.5-1.1h-7.7c-1.8,0-3.4,1.5-3.4,3.4c0,21.2,17.2,38.4,38.4,38.4
		c1.8,0,3.4-1.5,3.4-3.4v-7.6c0-1.3-0.6-2.7-1.7-2.9C99.8,84.6,98.3,84.4,94.4,83.7z"/>
</g>
</svg>
