<?xml version="1.0" encoding="utf-8"?>
<!-- Generator: Adobe Illustrator 21.0.2, SVG Export Plug-In . SVG Version: 6.00 Build 0)  -->
<svg version="1.1" id="Слой_1" xmlns="http://www.w3.org/2000/svg" xmlns:xlink="http://www.w3.org/1999/xlink" x="0px" y="0px"
	 viewBox="0 0 182 176" style="enable-background:new 0 0 182 176;" xml:space="preserve">
<style type="text/css">
	.st0{fill:#FFFFFF;}
	.st1{fill:#FDB52F;}
</style>
<circle class="st0" cx="95" cy="88" r="52.3"/>
<g>
	<g>
		<path class="st1" d="M102.9,68.9h-15c-6.9,0-12.5,5.6-12.5,12.5v15c0,6.9,5.6,12.5,12.5,12.5h15c6.9,0,12.5-5.6,12.5-12.5v-15
			C115.4,74.6,109.8,68.9,102.9,68.9z M111.6,96.5c0,4.8-3.9,8.8-8.8,8.8h-15c-4.8,0-8.8-3.9-8.8-8.8v-15c0-4.8,3.9-8.8,8.8-8.8h15
			c4.8,0,8.8,3.9,8.8,8.8V96.5z"/>
	</g>
</g>
<g>
	<g>
		<path class="st1" d="M95.4,79c-5.5,0-10,4.5-10,10c0,5.5,4.5,10,10,10s10-4.5,10-10C105.4,83.4,100.9,79,95.4,79z M95.4,95.2
			c-3.4,0-6.3-2.8-6.3-6.3c0-3.5,2.8-6.3,6.3-6.3c3.4,0,6.3,2.8,6.3,6.3C101.6,92.4,98.8,95.2,95.4,95.2z"/>
	</g>
</g>
<g>
	<g>
		<circle class="st1" cx="106.1" cy="78.2" r="1.3"/>
	</g>
</g>
</svg>
