<?xml version="1.0" encoding="utf-8"?>
<!-- Generator: Adobe Illustrator 21.0.2, SVG Export Plug-In . SVG Version: 6.00 Build 0)  -->
<svg version="1.1" id="Слой_1" xmlns="http://www.w3.org/2000/svg" xmlns:xlink="http://www.w3.org/1999/xlink" x="0px" y="0px"
	 viewBox="0 0 182 176" style="enable-background:new 0 0 182 176;" xml:space="preserve">
<style type="text/css">
	.st0{fill:#FFFFFF;}
	.st1{fill:#FDB52F;}
</style>
<circle class="st0" cx="90.7" cy="89.7" r="52.3"/>
<g>
	<g>
		<g>
			<g>
				<path class="st1" d="M67.6,75.9C74.2,81.4,85.8,91,89.2,94c0.5,0.4,0.9,0.6,1.5,0.6c0.5,0,1-0.2,1.5-0.6
					c3.4-3,15-12.6,21.6-18.1c0.4-0.3,0.5-0.9,0.1-1.4c-0.8-1-1.9-1.5-3.1-1.5H70.6c-1.2,0-2.4,0.6-3.1,1.5
					C67.2,74.9,67.2,75.5,67.6,75.9z"/>
				<path class="st1" d="M114.1,78.8c-0.4-0.2-0.8-0.1-1.1,0.1c-4.3,3.6-10,8.3-14.3,11.9c-0.2,0.2-0.4,0.5-0.3,0.8
					c0,0.3,0.1,0.6,0.4,0.7c4,3.1,10,7.4,14.3,10.5c0.2,0.1,0.4,0.2,0.6,0.2c0.2,0,0.3,0,0.5-0.1c0.3-0.2,0.5-0.5,0.5-0.9V79.7
					C114.7,79.4,114.5,79,114.1,78.8z"/>
				<path class="st1" d="M68.2,102.9c4.3-3.1,10.4-7.4,14.3-10.5c0.2-0.2,0.4-0.5,0.4-0.7c0-0.3-0.1-0.6-0.3-0.8
					c-4.3-3.6-10-8.4-14.3-11.9c-0.3-0.2-0.7-0.3-1.1-0.1c-0.4,0.2-0.6,0.5-0.6,0.9v22.4c0,0.4,0.2,0.7,0.5,0.9
					c0.1,0.1,0.3,0.1,0.5,0.1C67.8,103.1,68,103,68.2,102.9z"/>
				<path class="st1" d="M113.5,105.6c-4.2-2.9-11.9-8.4-16.5-12.1c-0.4-0.3-0.9-0.3-1.3,0c-0.9,0.8-1.7,1.4-2.2,1.9
					c-1.6,1.5-3.9,1.5-5.6,0c-0.5-0.5-1.3-1.1-2.2-1.9c-0.4-0.3-0.9-0.3-1.3,0c-4.6,3.7-12.3,9.1-16.5,12.1
					c-0.2,0.2-0.4,0.4-0.4,0.7c0,0.3,0.1,0.6,0.3,0.8c0.8,0.8,1.8,1.3,2.9,1.3h40.1c1.1,0,2.2-0.5,2.9-1.3c0.2-0.2,0.3-0.5,0.3-0.8
					C113.9,106,113.7,105.8,113.5,105.6z"/>
			</g>
		</g>
	</g>
</g>
</svg>
