<?xml version="1.0" encoding="utf-8"?>
<!-- Generator: Adobe Illustrator 21.0.2, SVG Export Plug-In . SVG Version: 6.00 Build 0)  -->
<svg version="1.1" id="Слой_1" xmlns="http://www.w3.org/2000/svg" xmlns:xlink="http://www.w3.org/1999/xlink" x="0px" y="0px"
	 viewBox="0 0 182 176" style="enable-background:new 0 0 182 176;" xml:space="preserve">
<style type="text/css">
	.st0{fill:#FFFFFF;}
	.st1{fill:#FDB52F;}
</style>
<g>
	<circle class="st0" cx="95" cy="88" r="52.3"/>
	<g>
		<g>
			<path class="st1" d="M122,74.2c-1.8,0.8-3.7,1.3-5.7,1.6c2.1-1.2,3.6-3.2,4.4-5.5c-1.9,1.1-4,2-6.3,2.4c-1.8-1.9-4.4-3.2-7.2-3.2
				c-5.5,0-9.9,4.5-9.9,10c0,0.8,0.1,1.5,0.2,2.3c-8.2-0.4-15.5-4.4-20.4-10.4c-0.9,1.5-1.4,3.2-1.4,5c0,3.5,1.8,6.5,4.4,8.3
				c-1.6,0-3.2-0.5-4.5-1.2c0,0,0,0.1,0,0.1c0,4.8,3.4,8.9,7.9,9.8c-0.8,0.2-1.7,0.3-2.6,0.3c-0.6,0-1.3,0-1.9-0.2
				c1.3,3.9,4.9,6.8,9.3,6.9c-3.4,2.7-7.6,4.3-12.3,4.3c-0.8,0-1.6,0-2.4-0.1c4.4,2.8,9.6,4.5,15.2,4.5c18.2,0,28.2-15.2,28.2-28.4
				c0-0.4,0-0.9,0-1.3C119,77.9,120.7,76.2,122,74.2z"/>
		</g>
	</g>
</g>
</svg>
