<?xml version="1.0" encoding="utf-8"?>
<!-- Generator: Adobe Illustrator 21.0.2, SVG Export Plug-In . SVG Version: 6.00 Build 0)  -->
<svg version="1.1" id="Слой_1" xmlns="http://www.w3.org/2000/svg" xmlns:xlink="http://www.w3.org/1999/xlink" x="0px" y="0px"
	 viewBox="0 0 182 176" style="enable-background:new 0 0 182 176;" xml:space="preserve">
<style type="text/css">
	.st0{fill:#FFFFFF;}
	.st1{fill:#FDB52F;}
</style>
<g>
	<circle class="st0" cx="95" cy="88" r="52.3"/>
	<g>
		<g>
			<path class="st1" d="M121,100.6c-0.1-0.2-1-2.1-5.1-5.8c-4.3-4-3.7-3.3,1.4-10.2c3.1-4.2,4.4-6.7,4-7.8c-0.4-1-2.7-0.8-2.7-0.8
				l-7.6,0c0,0-0.6-0.1-1,0.2c-0.4,0.2-0.7,0.8-0.7,0.8s-1.2,3.2-2.8,6c-3.4,5.8-4.8,6.1-5.3,5.7c-1.3-0.8-1-3.4-1-5.2
				c0-5.6,0.8-7.9-1.7-8.6c-0.8-0.2-1.4-0.3-3.6-0.4c-2.7,0-5,0-6.3,0.6c-0.9,0.4-1.5,1.4-1.1,1.4c0.5,0.1,1.7,0.3,2.3,1.1
				c0.8,1.1,0.8,3.5,0.8,3.5s0.5,6.6-1.1,7.4c-1,0.6-2.4-0.6-5.5-5.8c-1.6-2.7-2.7-5.7-2.7-5.7s-0.2-0.6-0.6-0.8
				c-0.5-0.4-1.2-0.5-1.2-0.5l-7.3,0c0,0-1.1,0-1.5,0.5c-0.4,0.4,0,1.3,0,1.3s5.7,13.3,12.1,20c5.9,6.2,12.6,5.8,12.6,5.8h3
				c0,0,0.9-0.1,1.4-0.6c0.4-0.5,0.4-1.3,0.4-1.3s-0.1-4.1,1.8-4.7c1.9-0.6,4.3,3.9,6.8,5.7c1.9,1.3,3.4,1,3.4,1l6.8-0.1
				C119.1,103.6,122.7,103.4,121,100.6z"/>
		</g>
	</g>
</g>
</svg>
